<svg xmlns="http://www.w3.org/2000/svg" viewBox="0 0 141.2 141.2"><defs><style>.cls-1{fill:none;}.cls-2{}</style></defs><g id="Calque_2" data-name="Calque 2"><g id="Layer_1" data-name="Layer 1"><rect class="cls-1" width="141.2" height="141.2" rx="70.6"/><path class="cls-2" d="M56.49,92.35l.2.13H57a9.29,9.29,0,0,0,1.29.06,12.77,12.77,0,0,0,11.87-8.43,11,11,0,0,0-5.26-13.87l-.19-.13H64.4a12.7,12.7,0,0,0-13.09,8.37A10.91,10.91,0,0,0,56.49,92.35Zm11.15-9.08A10.13,10.13,0,0,1,62,89.17,15.72,15.72,0,0,0,66.09,83a14.55,14.55,0,0,0,.71-7.65A8.94,8.94,0,0,1,67.64,83.27ZM53.71,79.38a10.15,10.15,0,0,1,8.68-6.67c2.14,1.49,2.66,5.44,1.23,9.4s-4.6,7-7.32,7.06A8.49,8.49,0,0,1,53.71,79.38Z"/><path class="cls-2" d="M101.22,67.78c0-14.13-8.62-22.56-23-22.56a23,23,0,0,0-3.57-5.51l-.52-.58-.77.19a6.23,6.23,0,0,0-4.41,3.12l-.39.84.71.65A13.37,13.37,0,0,1,71.08,46C62.46,48,57,53.91,55.52,62.79a15.08,15.08,0,0,0-1.75.26A17.6,17.6,0,0,0,41.45,74.52c-2.2,6.16-1.94,11.86.85,16.47a16.75,16.75,0,0,0,6.35,6,30.5,30.5,0,0,0,16,5.06,23.17,23.17,0,0,0,5.57-.71A19.38,19.38,0,0,0,83.13,91c.07-.13.13-.33.2-.46C94.54,88.59,101.22,80.1,101.22,67.78Zm-2.59,0a22.48,22.48,0,0,1-3,12.06,29.45,29.45,0,0,0,1-8.49c0-8.24-3.44-15.5-9-18.87a11.45,11.45,0,0,0-8.1-1.62,16,16,0,0,0-.46-3C91.5,48.14,98.63,55.4,98.63,67.78ZM44.5,89.69c-2.4-4-2.59-8.88-.65-14.26a15.15,15.15,0,0,1,10.44-9.85,10.13,10.13,0,0,1,2.4-.26,7,7,0,0,1,5.05,1.88,8.35,8.35,0,0,0,7.33,2.07h.13A7.8,7.8,0,0,1,77,71.93c2.72,3.3,3,8.75.71,14.26C74.38,94.49,66.86,98.7,57.59,97.4A21,21,0,0,1,50,94.94c-.78-.45-1.49-1-2.27-1.49A19.65,19.65,0,0,1,44.5,89.69Zm39.22-15A13.72,13.72,0,0,0,75,67.2a10.7,10.7,0,0,0-6.29-.52h-.07a5.81,5.81,0,0,1-5-1.43,9.44,9.44,0,0,0-5.45-2.46C59.54,55,64.6,50,72.44,48.33a11.66,11.66,0,0,1,.78,3.57,1.89,1.89,0,0,1-1-1.17l-2.46.72a4.79,4.79,0,0,0,2.72,3,5.72,5.72,0,0,0,4.93-.13l.06-.07a8.74,8.74,0,0,1,8.88.39C91,57.47,94.09,64,94,71.22c0,5.18-.06,10.5-4.47,14.32a20.93,20.93,0,0,1-5.12,2A17.27,17.27,0,0,0,83.72,74.65Z"/></g></g></svg>