<svg xmlns="http://www.w3.org/2000/svg" viewBox="0 0 141.2 141.2"><defs><style>.cls-1{}.cls-2{fill:none;}</style></defs><g id="Calque_2" data-name="Calque 2"><g id="Layer_1" data-name="Layer 1"><path class="cls-1" d="M88,71.74H84.11V65.2a13.7,13.7,0,0,0-1.35-5.8,1.35,1.35,0,0,0,.67-.37l3.7-3.69a1.35,1.35,0,0,0-1.92-1.91l-3.69,3.69-.08.1h0a13.52,13.52,0,0,0-21.85,0l-.06-.07-3.7-3.71a1.36,1.36,0,0,0-1.92,1.92L57.62,59a1.36,1.36,0,0,0,.67.35,13.53,13.53,0,0,0-1.35,5.82v6.53h-3.8a1.36,1.36,0,0,0,0,2.71H57V78a11.24,11.24,0,0,0,.67,3.81L54,85.49A1.35,1.35,0,0,0,55.9,87.4l3-3h0a11.61,11.61,0,0,0,9.69,5.18h3.92a11.64,11.64,0,0,0,9.69-5.24l3.06,3.06h0a1.32,1.32,0,0,0,1,.39,1.36,1.36,0,0,0,1-.39,1.37,1.37,0,0,0,.4-1,1.35,1.35,0,0,0-.4-1l-3.71-3.71A11.43,11.43,0,0,0,84.17,78V74.45h3.89a1.36,1.36,0,0,0,0-2.71ZM59.72,78V66.55H81.41V78a8.91,8.91,0,0,1-8.87,8.86H68.62A8.91,8.91,0,0,1,59.72,78ZM81.34,63.85H59.81a10.82,10.82,0,0,1,21.53,0Z"/><path class="cls-1" d="M73.36,80.39a1.3,1.3,0,0,0,1,.39,1.38,1.38,0,0,0,1-.39,1.36,1.36,0,0,0,0-1.91L72.5,75.69l2.78-2.78h0A1.35,1.35,0,0,0,73.36,71l-2.78,2.78L67.8,71a1.35,1.35,0,0,0-1.91,1.91l2.78,2.78-2.78,2.79h0a1.35,1.35,0,0,0,1,2.3,1.28,1.28,0,0,0,1-.39l2.78-2.78Z"/><rect class="cls-2" width="141.2" height="141.2" rx="70.6"/></g></g></svg>