<svg xmlns="http://www.w3.org/2000/svg" viewBox="0 0 141.2 141.2"><defs><style>.cls-1{}.cls-2{fill:none;}</style></defs><g id="Calque_2" data-name="Calque 2"><g id="Layer_1" data-name="Layer 1"><path class="cls-1" d="M95.8,35.79c-4.58,0-8.24,1.4-10.72,4.12-4.27,4.66-3.65,11.27-3,17.09.46,4.82.46,7.54,0,8,0,0-1.56.94-7.69-.54-11.73-2.87-20.9-1.63-27.19,3.81-9.09,7.84-8,21-7.93,21.59a5.84,5.84,0,0,0,5.83,5.29h.54a5.9,5.9,0,0,0,5.29-6.37c0-.08-.55-7.77,3.88-11.66,4.12-3.49,11.42-2.64,16.78-1.32s12.9,2.57,18.1-1.94,4.59-11.65,4-18c-.15-2-.7-7.3.08-8.15a4.78,4.78,0,0,1,2.1-.31,5.87,5.87,0,0,0,5.82-5.83A5.94,5.94,0,0,0,95.8,35.79ZM86.24,41l.39-.39a3.75,3.75,0,0,1,1.63.47c1.25.62,3,2,4.43,5.59-.08,0-.08.08-.15.08-1,1.16-.94,4.35-.55,8.23-4-3.26-7.22-2.25-8.7-1.47C83,49,83.21,44.34,86.24,41ZM45.46,93.52a4.23,4.23,0,0,1-4.66-3.89,37.41,37.41,0,0,1,.07-5c1.56-.46,5.21-1.4,8.47,1.09a26.41,26.41,0,0,0-.08,3.18A4.18,4.18,0,0,1,45.46,93.52Zm4-8.32a9.39,9.39,0,0,0-8.47-1,25.4,25.4,0,0,1,3.58-10.48A7.66,7.66,0,0,1,53.61,76C50.74,78.6,49.73,82.41,49.42,85.2Zm4.51-9.4a8,8,0,0,0-9.09-2.56,21.46,21.46,0,0,1,3.34-3.73,19.18,19.18,0,0,1,7-3.81A8.68,8.68,0,0,1,57.34,67a8.15,8.15,0,0,1,3,6.3A11.75,11.75,0,0,0,53.93,75.8Zm6.75-2.56a8.62,8.62,0,0,0-5-7.77,27.51,27.51,0,0,1,7.38-.93,41.05,41.05,0,0,1,6,.46c.86,1.09,2.34,3.19,2.18,5.36a4.67,4.67,0,0,1-1.86,3.35A32.53,32.53,0,0,0,60.68,73.24Zm9.17.62a5,5,0,0,0,1.79-3.42c.15-2.1-1.09-4.12-2-5.36,1.4.23,2.8.55,4.35.86a27,27,0,0,0,5,.85A8.64,8.64,0,0,1,81,72a5.37,5.37,0,0,1-1.55,3.34A35.43,35.43,0,0,1,72,74.17C71.25,74.09,70.55,73.94,69.85,73.86ZM88.57,72.7c-2.4,2.09-5.51,2.71-8.7,2.71a5.53,5.53,0,0,0,1.4-3.34,7.92,7.92,0,0,0-1.86-5.2c2.41.08,3.34-.39,3.57-.62.62-.55.86-1.79.93-3.73a5.21,5.21,0,0,1,2,.31c1.39.54,3.41,2,5.51,6.06A10,10,0,0,1,88.57,72.7Zm3-4.28c-3.11-5.82-6.14-6.37-7.62-6.29,0-1.4-.15-3.11-.31-5.21-.08-.93-.15-1.94-.23-3,1.32-.77,4.66-1.94,8.7,1.56a1.29,1.29,0,0,0,.08.54C92.46,60.19,92.93,64.69,91.53,68.42ZM95.8,45.89a7.06,7.06,0,0,0-2.8.47c-1.94-4.74-4.5-5.91-6-6.14,2.18-1.94,5.13-2.87,8.78-2.87a4.31,4.31,0,0,1,4.27,4.27A4.25,4.25,0,0,1,95.8,45.89Z"/><path class="cls-1" d="M65.7,104.88H63.63a.88.88,0,0,1-.57-.18,1,1,0,0,1-.33-.43l-1.07-2.94h-6l-1.08,2.94a1,1,0,0,1-.32.42.89.89,0,0,1-.57.19H51.64L57.3,90.46H60Zm-9.33-5.44H61l-1.75-4.8c-.09-.21-.17-.46-.27-.75s-.19-.6-.28-.94c-.1.34-.19.65-.28.94s-.18.55-.26.77Z"/><path class="cls-1" d="M76.59,101.48a.53.53,0,0,1,.38.17l1,1.14a5.77,5.77,0,0,1-2.15,1.67,7.39,7.39,0,0,1-3.08.58,7.15,7.15,0,0,1-2.88-.55A6.22,6.22,0,0,1,67.72,103a6.49,6.49,0,0,1-1.39-2.33,8.55,8.55,0,0,1-.49-3,7.93,7.93,0,0,1,.54-3,6.72,6.72,0,0,1,1.52-2.33,6.87,6.87,0,0,1,2.33-1.52,8.1,8.1,0,0,1,3-.54,7.1,7.1,0,0,1,2.8.51,6.32,6.32,0,0,1,2.06,1.36l-.89,1.25a1.34,1.34,0,0,1-.21.2.57.57,0,0,1-.34.09.85.85,0,0,1-.47-.17,5.49,5.49,0,0,0-.61-.39,4.65,4.65,0,0,0-.93-.39,5.41,5.41,0,0,0-3.3.17,4.07,4.07,0,0,0-1.46,1,4.65,4.65,0,0,0-1,1.6,6.16,6.16,0,0,0-.35,2.12,6.27,6.27,0,0,0,.35,2.16,4.72,4.72,0,0,0,.93,1.6,3.93,3.93,0,0,0,1.39,1,4.25,4.25,0,0,0,1.71.35,9.4,9.4,0,0,0,1-.06,5.83,5.83,0,0,0,.82-.19,3.85,3.85,0,0,0,.71-.34,4.1,4.1,0,0,0,.66-.5,1.37,1.37,0,0,1,.21-.15A.6.6,0,0,1,76.59,101.48Z"/><path class="cls-1" d="M87.77,93.09a.77.77,0,0,1-.25.3.65.65,0,0,1-.35.1.88.88,0,0,1-.44-.16L86.14,93a5.33,5.33,0,0,0-.79-.35,3.48,3.48,0,0,0-1.08-.15,3.16,3.16,0,0,0-1,.13,2.14,2.14,0,0,0-.7.38,1.46,1.46,0,0,0-.42.57,1.94,1.94,0,0,0-.14.73,1.28,1.28,0,0,0,.28.85,2.29,2.29,0,0,0,.76.58,7.07,7.07,0,0,0,1.06.43c.4.12.81.26,1.23.4a11.59,11.59,0,0,1,1.22.5,4.31,4.31,0,0,1,1.06.72,3.3,3.3,0,0,1,.76,1.06,3.65,3.65,0,0,1,.28,1.52,5,5,0,0,1-.33,1.83,4.3,4.3,0,0,1-1,1.49,4.57,4.57,0,0,1-1.57,1,5.64,5.64,0,0,1-2.12.37,6.82,6.82,0,0,1-1.36-.14,7.59,7.59,0,0,1-1.28-.38,7.36,7.36,0,0,1-1.15-.6,5.56,5.56,0,0,1-1-.78l.78-1.28a1,1,0,0,1,.26-.24.7.7,0,0,1,.35-.09,1,1,0,0,1,.53.2l.69.46a6.07,6.07,0,0,0,.92.45,3.57,3.57,0,0,0,1.29.2,2.64,2.64,0,0,0,1.77-.54,1.94,1.94,0,0,0,.63-1.56,1.46,1.46,0,0,0-.29-.93,2.39,2.39,0,0,0-.75-.6,5.55,5.55,0,0,0-1.07-.41c-.4-.11-.8-.24-1.21-.37A9.08,9.08,0,0,1,81.63,98a3.71,3.71,0,0,1-1.06-.73,3.22,3.22,0,0,1-.76-1.12,4.27,4.27,0,0,1-.28-1.66,3.91,3.91,0,0,1,.31-1.53,4,4,0,0,1,.92-1.33,4.67,4.67,0,0,1,1.48-.93,5.41,5.41,0,0,1,2-.34,6.91,6.91,0,0,1,2.36.39,5.37,5.37,0,0,1,1.83,1.12Z"/><rect class="cls-2" width="141.2" height="141.2" rx="70.6"/></g></g></svg>