<svg xmlns="http://www.w3.org/2000/svg" viewBox="0 0 141.2 141.2"><defs><style>.cls-1{fill-rule:evenodd;}.cls-2{fill:none;}</style></defs><g id="Calque_2" data-name="Calque 2"><g id="Layer_1" data-name="Layer 1"><path class="cls-1" d="M56.1,100.2A2,2,0,0,1,54,102.27,2.09,2.09,0,0,1,52,100.2V67A2.07,2.07,0,0,1,54,65a2,2,0,0,1,2.07,2Z"/><path class="cls-1" d="M72.67,100.2a2,2,0,0,1-2.07,2.07,2.09,2.09,0,0,1-2.07-2.07V50.48a2.07,2.07,0,0,1,4.14,0Z"/><path class="cls-1" d="M54,69c-1.9.08-4.87-1.66-7.42-4.53-3.2-3.61-2.93-9-2.93-9s5.45.49,8.65,4.09A19.24,19.24,0,0,1,54,61.8a19.24,19.24,0,0,1,1.7-2.21c3.2-3.6,8.65-4.09,8.65-4.09s.27,5.36-2.93,9C58.9,67.34,55.93,69.08,54,69Z"/><path class="cls-1" d="M89.24,100.2a2,2,0,0,1-2.07,2.07,2.09,2.09,0,0,1-2.07-2.07V79.46a2.07,2.07,0,0,1,2.07-2,2,2,0,0,1,2.07,2Z"/><path class="cls-1" d="M87.17,81.43c-1.9.08-4.87-1.67-7.42-4.53-3.2-3.61-2.93-9-2.93-9s5.45.49,8.65,4.1a18.41,18.41,0,0,1,1.7,2.21A18.41,18.41,0,0,1,88.87,72c3.2-3.61,8.65-4.1,8.65-4.1s.27,5.37-2.93,9C92,79.76,89.07,81.51,87.17,81.43Z"/><path class="cls-1" d="M70.6,52.43c-1.9.08-4.87-1.66-7.42-4.53-3.2-3.61-2.93-9-2.93-9s5.45.49,8.65,4.09a19.24,19.24,0,0,1,1.7,2.21A19.24,19.24,0,0,1,72.3,43c3.2-3.6,8.65-4.09,8.65-4.09s.27,5.36-2.93,9C75.47,50.77,72.5,52.51,70.6,52.43Z"/><rect class="cls-2" width="141.2" height="141.2" rx="70.6"/></g></g></svg>