<svg xmlns="http://www.w3.org/2000/svg" viewBox="0 0 141.2 141.2"><defs><style>.cls-1{fill-rule:evenodd;}.cls-2{fill:none;}</style></defs><g id="Calque_2" data-name="Calque 2"><g id="Layer_1" data-name="Layer 1"><path class="cls-1" d="M79.56,78.36c-1.24,0-3.47.13-3.47.13V89.22h4.06c.94,0,5.86-.6,5.9-5.3S80.75,78.36,79.56,78.36Z"/><path class="cls-1" d="M83.49,69.85c-.09-4.36-3-4.87-5.22-5.08l-2.18.08v10.3s1.84,0,3-.13S83.53,74.21,83.49,69.85Z"/><path class="cls-1" d="M42.11,45.57V95.63h57V45.57ZM69,92.85H65V85.28H51.34a23.11,23.11,0,0,0-1.07,7.4H46.38c0-8.17,4.49-22.44,16.76-30.78C67.76,59.51,69,62.93,69,64Zm11.32,0H72.07V61.09h4c7.06,0,11.07,3,11.07,8.16s-3.29,6.67-3.29,6.67,6,1.41,6,8.55C89.9,92.76,80.32,92.85,80.32,92.85Zm2.4-32.06c-8.25-2.61-6.29-12-5-13.29,0,0,7.18,3,5.85,11.84,0,0,4.06-5.43,10.65-4.06C94.22,55.28,91.31,63.48,82.72,60.79Z"/><path class="cls-1" d="M52.88,81.31H65V65.24C54.29,74,52.88,81.31,52.88,81.31Z"/><rect class="cls-2" width="141.2" height="141.2" rx="70.6"/></g></g></svg>