<svg xmlns="http://www.w3.org/2000/svg" viewBox="0 0 141.2 141.2"><defs><style>.cls-1{fill-rule:evenodd;}.cls-2{fill:none;}</style></defs><g id="Calque_2" data-name="Calque 2"><g id="Layer_1" data-name="Layer 1"><path class="cls-1" d="M46.84,69.19H51v1.56h7V69.19h8.63v1.56h7.06V69.19h8.62v1.56h7.06V69.19h4.47a4.64,4.64,0,0,1,4.94,4.66v3.89h7.06v3.89H99a5.43,5.43,0,0,1-5.09,5.44h-47a5.43,5.43,0,0,1-5.1-5.44H35.31V77.74h6.28V73.85c0-2.78,2.44-4.66,5.25-4.66Zm1.8,2.33h-1.8c-1.51,0-2.9.84-2.9,2.34v7.77a3.23,3.23,0,0,0,2.9,3.1H93.89c1.5,0,2.59-1.61,2.59-3.1V73.86a2.31,2.31,0,0,0-2.59-2.34H91.77v1.56H80V71.52H76.09v1.56H64.33V71.52H60.41v1.56H48.64Z"/><path class="cls-1" d="M71,70H69.85c0-6.22-.1-7.14-3.41-8.88-1.56-.81-3.41-2.18-3.49-7,1.45,2.32,7.37.52,7.31,7-1.3-3.24-4.67-3.11-6.18-5,1.62,3,6.33,2.45,6.33,7.72,0-2.65,4.19-3.65,5.33-5.77-1.29,1.64-4.52,2.48-5.2,4,0-3.91,6-4.68,6.52-5.41-.45,2.94-1.38,4.27-2.38,4.86C71.05,63.63,71,63,71,70Z"/><path class="cls-1" d="M86.68,70H85.53c0-6.22-.09-7.14-3.41-8.88-1.56-.81-3.4-2.18-3.49-7,1.45,2.32,7.38.52,7.31,7-1.3-3.24-4.66-3.11-6.17-5,1.61,3,6.32,2.45,6.32,7.72,0-2.65,4.19-3.65,5.33-5.77-1.29,1.64-4.51,2.48-5.2,4,0-3.91,6-4.68,6.52-5.41-.45,2.94-1.38,4.27-2.38,4.86C86.73,63.63,86.68,63,86.68,70Z"/><path class="cls-1" d="M55.32,70H54.16c0-6.22-.09-7.14-3.4-8.88-1.56-.81-3.41-2.18-3.5-7,1.45,2.32,7.38.52,7.32,7-1.3-3.24-4.67-3.11-6.18-5,1.62,3,6.32,2.45,6.32,7.72,0-2.65,4.2-3.65,5.34-5.77-1.3,1.64-4.52,2.48-5.2,4,0-3.91,6-4.68,6.52-5.41C60.93,59.58,60,60.91,59,61.5,55.36,63.63,55.32,63,55.32,70Z"/><path class="cls-1" d="M53.63,78.05a6.61,6.61,0,0,0-4.06-1.24,6.18,6.18,0,0,0-4.06,1.24v3.58a1.38,1.38,0,0,0,1.33,1.55H93.89a1.79,1.79,0,0,0,1.8-1.55V78.05a8.92,8.92,0,0,1-4.3,1.24,7.2,7.2,0,0,1-4.24-1.24,7.75,7.75,0,0,0-8.41,0,7.68,7.68,0,0,1-8.37,0,7.68,7.68,0,0,0-8.37,0,7.68,7.68,0,0,1-8.37,0Z"/><rect class="cls-2" width="141.2" height="141.2" rx="70.6"/></g></g></svg>