<svg xmlns="http://www.w3.org/2000/svg" viewBox="0 0 141.2 141.2"><defs><style>.cls-1{}.cls-2{fill:none;}</style></defs><g id="Calque_2" data-name="Calque 2"><g id="Layer_1" data-name="Layer 1"><path class="cls-1" d="M98.16,63.31v-4.1a8,8,0,0,0-6.6-7.9v-5.2a.94.94,0,0,0-1-1H89v-2.8l1.7-1a1,1,0,1,0-1-1.8l-2.2,1.3a1.05,1.05,0,0,0-.5.9V45h-1.6a.94.94,0,0,0-1,1v5.1H80l-2.5-12.8a3.52,3.52,0,0,0-3.4-2.8H60.76a3.54,3.54,0,0,0-3.5,3.5v12.2h0v4.5c-2.8-3-9.1-9.7-11.9-12.7h0a1.34,1.34,0,0,0-.8-.5c-5.7-1-8.1,4.9-6.2,10.3a1,1,0,0,0,.9.7h0a.94.94,0,0,0,1-1v-.3a4.47,4.47,0,0,1,7.7-3.5l.2.2c-4.2.9-5.2,6.1-3.8,10.3a1.2,1.2,0,0,0,1,.7h0a.94.94,0,0,0,1-1v-.3a4.47,4.47,0,0,1,7.7-3.5l3.1,3.3a11.21,11.21,0,1,0,18,11.2h10a8.3,8.3,0,1,0,16.6.4A8.16,8.16,0,0,0,98.16,63.31ZM86.36,47h3.2v4.1h-3.2Zm-10.7-8.3,2.4,12.4H65V37.51h9.2A1.59,1.59,0,0,1,75.66,38.71Zm-16.4.2a1.54,1.54,0,0,1,1.5-1.5h2.1v13.7h-3.6ZM40,47.41a3.55,3.55,0,0,1,3.5-3.1H44l.8.8.1.1A6.12,6.12,0,0,0,40,47.41Zm6.1,6.4c.5-2.1,1.8-3.3,4-3.1l.9.9A6.63,6.63,0,0,0,46.06,53.81Zm18.2,22.5a9.2,9.2,0,1,1,9.2-9.2A9.18,9.18,0,0,1,64.26,76.31Zm11.3-9.2a11.18,11.18,0,0,0-11.2-11.2,11.52,11.52,0,0,0-5,1.2v-4h30.9a6,6,0,0,1,6,6v3.1a8.84,8.84,0,0,0-2.7-.4,8.16,8.16,0,0,0-7.9,5.9h-10C75.46,67.51,75.56,67.31,75.56,67.11Zm17.9,9.2a6.27,6.27,0,0,1-6.3-6.3,6.34,6.34,0,0,1,6.3-6.3,6.3,6.3,0,0,1,0,12.6Z"/><path class="cls-1" d="M93.46,66.31a3.8,3.8,0,1,0,3.8,3.8A3.8,3.8,0,0,0,93.46,66.31Zm0,5.6a1.8,1.8,0,1,1,1.8-1.8A1.79,1.79,0,0,1,93.46,71.91Z"/><path class="cls-1" d="M64.26,61.31a5.8,5.8,0,0,0-5.8,5.8,5.87,5.87,0,0,0,5.8,5.8,5.8,5.8,0,0,0,5.8-5.8A5.68,5.68,0,0,0,64.26,61.31Zm0,9.7a3.8,3.8,0,1,1,3.8-3.8A3.74,3.74,0,0,1,64.26,71Z"/><path class="cls-1" d="M84,63.51h-6.2a1,1,0,0,0,0,2h6.3a.94.94,0,0,0,1-1A1.18,1.18,0,0,0,84,63.51Z"/><path class="cls-1" d="M84,58.41a.94.94,0,0,0,1-1v-2.2a1,1,0,1,0-2,0v2.2A.94.94,0,0,0,84,58.41Z"/><path class="cls-1" d="M87.86,58.41a.94.94,0,0,0,1-1v-2.2a1,1,0,1,0-2,0v2.2A.94.94,0,0,0,87.86,58.41Z"/><path class="cls-1" d="M91.66,58.41a.94.94,0,0,0,1-1v-2.2a1,1,0,0,0-2,0v2.2A.94.94,0,0,0,91.66,58.41Z"/><rect class="cls-2" width="141.2" height="141.2" rx="70.6"/></g></g></svg>