<svg xmlns="http://www.w3.org/2000/svg" viewBox="0 0 141.2 141.2"><defs><style>.cls-1{}.cls-2{fill:none;}</style></defs><g id="Calque_2" data-name="Calque 2"><g id="Layer_1" data-name="Layer 1"><path class="cls-1" d="M78,61.44a.43.43,0,0,0,.22.06.48.48,0,0,0,.48-.46v-.52A7.93,7.93,0,0,0,74,53.47,11.67,11.67,0,0,1,76.82,50a.91.91,0,0,0,.16.11.92.92,0,1,0-.48-1.21.94.94,0,0,0,0,.66,12.18,12.18,0,0,0-3,3.71c-.1,0-.19-.09-.29-.12a8.09,8.09,0,0,0-5.82.26,12.65,12.65,0,0,0-3.05-3.85.94.94,0,0,0,0-.66.92.92,0,1,0-.48,1.21A.91.91,0,0,0,64,50a11.79,11.79,0,0,1,2.92,3.62,8.33,8.33,0,0,0-2.69,2.15A7.81,7.81,0,0,0,62.57,61a.62.62,0,0,0,.07.23.48.48,0,0,0,.64.18,13.41,13.41,0,0,1,5.6-2.14,13,13,0,0,1,6,.61A14.67,14.67,0,0,1,78,61.44Z"/><path class="cls-1" d="M60.69,65.66,56,64l-.22-.08c-.3-.74-.6-1.51-.91-2.27-.55-1.49-1.13-3-1.72-4.45l-.41-1a1,1,0,0,0-.92-.68v0h-.23A.94.94,0,0,0,51,56.66c.79,2,1.57,3.93,2.36,5.9l.9,2.25a1.06,1.06,0,0,0,.67.67H55l.45.17,1.7.61,2.45.89a16.08,16.08,0,0,0-1,1.71A17.78,17.78,0,0,0,57,73.72H52.45a1.07,1.07,0,0,0-.87.45l-.67.84-2.06,2.6-1.39,1.75a1,1,0,0,0-.27.66.94.94,0,0,0,.94.94,1,1,0,0,0,.66-.27L52.48,76l.31-.4h4a19.78,19.78,0,0,0,.06,3.08,18.23,18.23,0,0,0,1,4.43l-4.23,1.34a1.46,1.46,0,0,0-.46.2,1.07,1.07,0,0,0-.37.59l-.27.9-.94,3.08c-.21.74-.42,1.48-.64,2.17a1,1,0,0,0,.64,1.17h.24a1,1,0,0,0,.92-.68c.55-1.84,1.09-3.69,1.64-5.51l.09-.27,3.79-1.18.32-.1a15.24,15.24,0,0,0,1.47,2.46,13.93,13.93,0,0,0,6.34,4.87,11.74,11.74,0,0,0,3.21.7v-32A12.67,12.67,0,0,0,65,62.15,14,14,0,0,0,60.69,65.66Zm.73,12.76a2,2,0,1,1,2-2A2,2,0,0,1,61.42,78.42Zm4,7.77a2,2,0,1,1,2-2A2,2,0,0,1,65.42,86.19Zm2-16.94a2,2,0,1,1-2-2A2,2,0,0,1,67.42,69.25Z"/><path class="cls-1" d="M93.74,79.37l-3.22-4.09-.74-1a1.09,1.09,0,0,0-.9-.57H84.15a17.56,17.56,0,0,0-2.35-6.29,1.15,1.15,0,0,0-.19-.26c1.57-.56,3.14-1.11,4.68-1.71a1,1,0,0,0,.67-.66v-.08c.05-.13.09-.25.15-.37L87.66,63c.52-1.27,1-2.55,1.54-3.83l1-2.46a.94.94,0,0,0-.66-1.15h-.23l0,0a1,1,0,0,0-.92.68l-1.11,2.76-1.76,4.38-.21.51L81.05,65.4l-.59.21a13.85,13.85,0,0,0-5.9-4.16,12.52,12.52,0,0,0-3-.6v32a12.56,12.56,0,0,0,2.73-.53,13.77,13.77,0,0,0,6.46-4.57,16.41,16.41,0,0,0,1.85-3l4,1.25h.11c.49,1.66,1,3.33,1.47,5l.23.73a1,1,0,0,0,.91.69h.24a.94.94,0,0,0,.66-1.15h0l-1.48-5c-.11-.36-.21-.74-.31-1.06l-.07-.22a1,1,0,0,0-.74-.68c-.79-.27-1.6-.5-2.4-.74l-1.89-.56a17.32,17.32,0,0,0,.91-3.69,19.91,19.91,0,0,0,.19-2.56,10.45,10.45,0,0,0-.05-1.24h4c1.16,1.48,2.31,3,3.47,4.43l.53.67a.94.94,0,0,0,1.32,0A1,1,0,0,0,93.74,79.37ZM75.66,67.25a2,2,0,1,1-2,2A2,2,0,0,1,75.66,67.25Zm0,18.94a2,2,0,1,1,2-2A2,2,0,0,1,75.66,86.19Zm4-7.77a2,2,0,1,1,2-2A2,2,0,0,1,79.66,78.42Z"/><rect class="cls-2" width="141.2" height="141.2" rx="70.6"/></g></g></svg>