<svg xmlns="http://www.w3.org/2000/svg" viewBox="0 0 141.2 141.2"><defs><style>.cls-1{}.cls-2{fill:none;}</style></defs><g id="Calque_2" data-name="Calque 2"><g id="Layer_1" data-name="Layer 1"><path class="cls-1" d="M99,77V72.9a8,8,0,0,0-6.6-7.9V59.8a.94.94,0,0,0-1-1h-1.6V56l1.7-1a1,1,0,1,0-1-1.8l-2.2,1.3a1.05,1.05,0,0,0-.5.9v3.3h-1.6a.94.94,0,0,0-1,1v5.1h-4.4L78.32,52a3.52,3.52,0,0,0-3.4-2.8H61.62a3.54,3.54,0,0,0-3.5,3.5V64.9h0v4.5c-2.8-3-9.1-9.7-11.9-12.7h0a1.34,1.34,0,0,0-.8-.5c-5.7-1-8.1,4.9-6.2,10.3a1,1,0,0,0,.9.7h0a.94.94,0,0,0,1-1v-.3a4.47,4.47,0,0,1,7.7-3.5l.2.2c-4.2.9-5.2,6.1-3.8,10.3a1.2,1.2,0,0,0,1,.7h0a.94.94,0,0,0,1-1v-.3a4.47,4.47,0,0,1,7.7-3.5L58,72.1A11.21,11.21,0,1,0,76,83.3H86a8.3,8.3,0,1,0,16.6.4A8.16,8.16,0,0,0,99,77ZM87.22,60.7h3.2v4.1h-3.2Zm-10.7-8.3,2.4,12.4H65.82V51.2H75A1.59,1.59,0,0,1,76.52,52.4Zm-16.4.2a1.54,1.54,0,0,1,1.5-1.5h2.1V64.8h-3.6Zm-19.3,8.5a3.55,3.55,0,0,1,3.5-3.1h.5l.8.8.1.1A6.12,6.12,0,0,0,40.82,61.1Zm6.1,6.4c.5-2.1,1.8-3.3,4-3.1l.9.9A6.63,6.63,0,0,0,46.92,67.5ZM65.12,90a9.2,9.2,0,1,1,9.2-9.2A9.18,9.18,0,0,1,65.12,90Zm11.3-9.2a11.18,11.18,0,0,0-11.2-11.2,11.52,11.52,0,0,0-5,1.2v-4h30.9a6,6,0,0,1,6,6v3.1a8.84,8.84,0,0,0-2.7-.4,8.16,8.16,0,0,0-7.9,5.9h-10C76.32,81.2,76.42,81,76.42,80.8ZM94.32,90A6.27,6.27,0,0,1,88,83.7a6.34,6.34,0,0,1,6.3-6.3,6.3,6.3,0,1,1,0,12.6Z"/><path class="cls-1" d="M94.32,80a3.8,3.8,0,1,0,3.8,3.8A3.8,3.8,0,0,0,94.32,80Zm0,5.6a1.8,1.8,0,1,1,1.8-1.8A1.79,1.79,0,0,1,94.32,85.6Z"/><path class="cls-1" d="M65.12,75a5.8,5.8,0,0,0-5.8,5.8,5.87,5.87,0,0,0,5.8,5.8,5.8,5.8,0,0,0,5.8-5.8A5.68,5.68,0,0,0,65.12,75Zm0,9.7a3.8,3.8,0,1,1,3.8-3.8A3.74,3.74,0,0,1,65.12,84.7Z"/><path class="cls-1" d="M84.82,77.2h-6.2a1,1,0,0,0,0,2h6.3a.94.94,0,0,0,1-1A1.18,1.18,0,0,0,84.82,77.2Z"/><path class="cls-1" d="M84.82,72.1a.94.94,0,0,0,1-1V68.9a1,1,0,0,0-2,0v2.2A.94.94,0,0,0,84.82,72.1Z"/><path class="cls-1" d="M88.72,72.1a.94.94,0,0,0,1-1V68.9a1,1,0,0,0-2,0v2.2A.94.94,0,0,0,88.72,72.1Z"/><path class="cls-1" d="M92.52,72.1a.94.94,0,0,0,1-1V68.9a1,1,0,0,0-2,0v2.2A.94.94,0,0,0,92.52,72.1Z"/><rect class="cls-2" width="141.2" height="141.2" rx="70.6"/></g></g></svg>