<svg xmlns="http://www.w3.org/2000/svg" viewBox="0 0 141.2 141.2"><defs><style>.cls-1{fill:none;}.cls-2{}</style></defs><g id="Calque_2" data-name="Calque 2"><g id="Layer_1" data-name="Layer 1"><rect class="cls-1" width="141.2" height="141.2" rx="70.6"/><path class="cls-2" d="M70.6,81.94a6.72,6.72,0,1,0,6.72,6.72A6.72,6.72,0,0,0,70.6,81.94Zm0,11.44a4.72,4.72,0,1,1,4.72-4.72A4.73,4.73,0,0,1,70.6,93.38Z"/><path class="cls-2" d="M70.6,85.51a3.15,3.15,0,1,0,3.15,3.15A3.15,3.15,0,0,0,70.6,85.51Zm0,4.3a1.15,1.15,0,1,1,1.15-1.15A1.16,1.16,0,0,1,70.6,89.81Z"/><path class="cls-2" d="M132.6,41.59h-8.47V37.78a1,1,0,0,0-1-1h-3.47a1,1,0,0,0-1,1v3.81h-8.47a1,1,0,0,0-1,1v5.15a1,1,0,0,0,1,1h8.47v5.75h-1a1,1,0,0,0-1,1v3H99.56c-4.12,0-7-3.87-8.6-7.12a10.66,10.66,0,0,0-9.59-5.83H59.83a10.65,10.65,0,0,0-9.59,5.83c-1.65,3.25-4.48,7.12-8.6,7.12H24.55v-3a1,1,0,0,0-1-1h-1V48.74H31a1,1,0,0,0,1-1V42.59a1,1,0,0,0-1-1H22.54V37.78a1,1,0,0,0-1-1H18.07a1,1,0,0,0-1,1v3.81H8.6a1,1,0,0,0-1,1v5.15a1,1,0,0,0,1,1h8.47v5.75h-1a1,1,0,0,0-1,1v16a1,1,0,0,0,1,1h7.49a1,1,0,0,0,1-1V68.45h9.1V98.59a1,1,0,0,0,1,1h0v2a2.87,2.87,0,1,0,5.74,0v-2h0a1,1,0,0,0,1-1V87.52L58.94,94l.68,4.09a1,1,0,0,0,1,.84h20a1,1,0,0,0,1-.84L82.26,94l17.51-6.49V98.59a1,1,0,0,0,1,1h0v2a2.87,2.87,0,1,0,5.73,0v-2h0a1,1,0,0,0,1-1V68.45h9.1v3.06a1,1,0,0,0,1,1h7.49a1,1,0,0,0,1-1v-16a1,1,0,0,0-1-1h-1V48.74h8.47a1,1,0,0,0,1-1V42.59A1,1,0,0,0,132.6,41.59Zm-11.94-2.81h1.47v2.81h-1.47ZM81.37,47.55a8.86,8.86,0,0,1,3,.55L76.11,58.5h-11L56.78,48.1a8.86,8.86,0,0,1,3-.55Zm-62.3-8.77h1.47v2.81H19.07ZM9.6,43.59H30v3.15H9.6Zm9.47,5.15h1.47v5.75H19.07ZM42.78,68.45l6,8a11.07,11.07,0,0,0,7.95,4.35l.51,3L41.43,78V68.45ZM57.59,78.82a9.07,9.07,0,0,1-7.21-3.6l-5-6.68c7.11.58,12.57,4.16,15.6,10.28ZM39.43,97.59H35.65V68.45h3.78V97.59Zm-1,4a.87.87,0,0,1-1.74,0v-2h1.74Zm3-16.16v-5.3l16.19,6,.94,5.65ZM72.16,96.94c-.67,0-1.18,0-1.56,0s-.89,0-1.56,0H61.45L58.77,80.82H82.43L79.75,96.94ZM99.77,78,84,83.82l.51-3a11.05,11.05,0,0,0,8-4.35l6-8h1.35V78Zm-9-2.74a9.07,9.07,0,0,1-7.21,3.6H80.24c3-6.12,8.49-9.7,15.6-10.28ZM82.64,91.74l.94-5.65,16.19-6v5.3Zm21.89,9.81a.87.87,0,1,1-1.74,0v-2h1.74Zm1-4h-3.78V68.45h3.78Zm18.59-27.08h-5.49V67.45a1,1,0,0,0-1-1H97.92c-9.3,0-16.32,4.39-19.87,12.37H63.15c-3.55-8-10.57-12.37-19.87-12.37H23.55a1,1,0,0,0-1,1v3.06H17.06v-14h5.49v3a1,1,0,0,0,1,1H41.64c5.14,0,8.48-4.47,10.38-8.22A8.55,8.55,0,0,1,55,49l8.87,11.1a1,1,0,0,0,.78.38h12a1,1,0,0,0,.79-.38L86.25,49a8.55,8.55,0,0,1,2.93,3.26c1.9,3.75,5.24,8.22,10.38,8.22h18.09a1,1,0,0,0,1-1v-3h5.49v14Zm-2-16h-1.47V48.74h1.47Zm9.47-7.75H111.19V43.59H131.6Z"/><path class="cls-2" d="M64.6,51.88h12a1,1,0,0,0,0-2h-12a1,1,0,0,0,0,2Z"/><path class="cls-2" d="M74,54.34H67.26a1,1,0,0,0,0,2H74a1,1,0,0,0,0-2Z"/></g></g></svg>