<svg xmlns="http://www.w3.org/2000/svg" viewBox="0 0 141.2 141.2"><defs><style>.cls-1{fill:none;}.cls-2{}</style></defs><g id="Calque_2" data-name="Calque 2"><g id="Layer_1" data-name="Layer 1"><rect class="cls-1" width="141.2" height="141.2" rx="70.6"/><path class="cls-2" d="M131.21,68.4a17.94,17.94,0,0,0-3-9.82,15.62,15.62,0,0,0,.67-4.55,16.35,16.35,0,0,0-4.63-11.29,12,12,0,0,0,.4-3.08c0-7.44-6.64-13.49-14.79-13.49s-14.79,6-14.79,13.49a12.44,12.44,0,0,0,.39,3.08A16.38,16.38,0,0,0,90.88,54a16,16,0,0,0,.66,4.55,18,18,0,0,0-3,9.82c0,9.54,7.63,17.48,17.64,19.07h0l-.23,20q-2.55-.39-5.34-.73l-2.83-.31c-1.7-.18-3.45-.34-5.25-.49l-3.22-.23q-3.15-.21-6.45-.35l-3.25-.11c-1.64,0-3.3-.09-5-.11H66.34c-3.1,0-6.12.13-9.05.27l-11.24.75c-3.9.36-7.54.8-10.85,1.31l-.23-20h0c10-1.59,17.64-9.53,17.64-19.07a18,18,0,0,0-3-9.82A16,16,0,0,0,50.32,54,16.34,16.34,0,0,0,45.7,42.74a12.44,12.44,0,0,0,.39-3.08c0-7.44-6.63-13.49-14.79-13.49s-14.79,6-14.79,13.49a12,12,0,0,0,.4,3.08A16.35,16.35,0,0,0,12.28,54,15.62,15.62,0,0,0,13,58.58a17.94,17.94,0,0,0-3,9.82c0,9.54,7.64,17.48,17.64,19.07L27.39,109c-4.52,1.06-8,2.32-10,3.72a1.27,1.27,0,0,0,1.43,2.09,12.45,12.45,0,0,1,1.92-1c7.89-3.59,28-6.09,49.85-6.09s42,2.5,49.85,6.09a12.45,12.45,0,0,1,1.92,1,1.22,1.22,0,0,0,.71.22,1.27,1.27,0,0,0,.72-2.31c-2-1.4-5.47-2.66-10-3.72l-.24-21.53C123.57,85.88,131.21,77.94,131.21,68.4Zm-103.39,3-6-6.49h0l1-1,5,4.64ZM28,55l-3.78-4.16.67-.66L28,53Zm1.92,53.45.76-66.07a.61.61,0,0,1,1.22,0l.72,65.55C31.7,108.09,30.8,108.26,29.93,108.44ZM34.57,53l3.14-2.85.67.66h0L34.59,55Zm.18,15.57,5-4.64,1,1-6,6.49Zm.19,16.33-.11-9.78,7.81-8.46a2.52,2.52,0,0,0-.07-3.51h0l-1-1a2.52,2.52,0,0,0-3.51-.07l-3.34,3.09-.07-6.47,5.61-6.17a2.53,2.53,0,0,0-.08-3.5l-.67-.67a2.53,2.53,0,0,0-3.5-.08l-1.47,1.34-.08-7.29a3.16,3.16,0,0,0-3.15-3.11h0a3.17,3.17,0,0,0-3.15,3.11l-.08,7.29L26.6,48.29a2.54,2.54,0,0,0-3.5.08l-.67.67a2.54,2.54,0,0,0-.08,3.5L28,58.71l-.08,6.47-3.34-3.09a2.52,2.52,0,0,0-3.51.07l-1,1h0A2.52,2.52,0,0,0,20,66.68l7.82,8.46-.12,9.78c-8.61-1.53-15.14-8.35-15.14-16.52a15.52,15.52,0,0,1,2.86-8.9,1.28,1.28,0,0,0,.16-1.14A13.33,13.33,0,0,1,14.82,54a13.94,13.94,0,0,1,4.39-10,1.26,1.26,0,0,0,.33-1.3,9.78,9.78,0,0,1-.49-3.05c0-6,5.49-10.95,12.25-10.95s12.26,4.91,12.26,10.95a10.13,10.13,0,0,1-.49,3.05,1.26,1.26,0,0,0,.32,1.3,13.91,13.91,0,0,1,4.4,10,13.34,13.34,0,0,1-.73,4.33,1.28,1.28,0,0,0,.16,1.14,15.52,15.52,0,0,1,2.86,8.9c0,8.17-6.52,15-15.14,16.52Zm71.48-13.47-6-6.49h0l1-1,5,4.64ZM106.61,55l-3.79-4.15h0l.66-.66L106.63,53Zm1.92,52.93.76-65.55a.61.61,0,0,1,1.22,0l.73,66.06C110.37,108.25,109.46,108.08,108.53,107.92ZM113.17,53l3.14-2.85.66.66h0L113.19,55Zm.18,15.57,5-4.64,1,1-6,6.49Zm.19,16.33-.12-9.78,7.82-8.46a2.52,2.52,0,0,0-.07-3.51h0l-1-1a2.52,2.52,0,0,0-3.51-.07l-3.34,3.09-.08-6.47,5.62-6.17a2.54,2.54,0,0,0-.08-3.5l-.67-.67a2.53,2.53,0,0,0-3.5-.08l-1.47,1.34-.08-7.29a3.16,3.16,0,0,0-3.15-3.11h0a3.16,3.16,0,0,0-3.15,3.11l-.08,7.29-1.47-1.34a2.53,2.53,0,0,0-3.5.08L101,49a2.53,2.53,0,0,0-.08,3.5l5.61,6.17-.07,6.47-3.34-3.09a2.52,2.52,0,0,0-3.51.07l-1,1a2.52,2.52,0,0,0-.07,3.51l7.81,8.46-.11,9.78h0c-8.62-1.53-15.14-8.35-15.14-16.52A15.52,15.52,0,0,1,94,59.5a1.28,1.28,0,0,0,.16-1.14A13.34,13.34,0,0,1,93.41,54a14,14,0,0,1,4.4-10,1.28,1.28,0,0,0,.33-1.3,9.79,9.79,0,0,1-.5-3.05c0-6,5.5-10.95,12.26-10.95s12.25,4.91,12.25,10.95a9.82,9.82,0,0,1-.49,3.05A1.26,1.26,0,0,0,122,44a14,14,0,0,1,4.4,10,13.34,13.34,0,0,1-.73,4.33,1.28,1.28,0,0,0,.16,1.14,15.52,15.52,0,0,1,2.86,8.9C128.68,76.57,122.16,83.39,113.54,84.92Z"/><path class="cls-2" d="M94.26,89.22v-.08a.47.47,0,0,0,0-.17,10.34,10.34,0,0,0-2-4.68,3.31,3.31,0,0,0-3.33-1.13,5.42,5.42,0,0,0-.31-2.08,4,4,0,0,0-1.35-3.34,4.16,4.16,0,0,0-3.73-.58l-.09,0c-.62-.35-1.27-.68-1.94-1-1-2.49-4.3-3.87-6.83-3.61a4.16,4.16,0,0,0-3.9,3.47,4.8,4.8,0,0,0-3.32-1.47c-1.29.11-2.11,1.14-3,2.23-.33.41-.66.83-1,1.21-.2.2-.38.4-.56.61a14,14,0,0,1-1.68,1.62c-.17.14-.69-.11-1.15-.33a2.94,2.94,0,0,0-2.61-.37,7.05,7.05,0,0,0-3.48,4.72,3.27,3.27,0,0,0-2.7,1.26c-2.05,2.12-3.68,6.48-3.12,8.34.21.69,1.34,1.64,3,3a18.62,18.62,0,0,1,1.72,1.5,3.8,3.8,0,0,1,.71,2c.21,1.21.44,2.58,2.88,2.58a4.52,4.52,0,0,0,.51,0,.32.32,0,0,0,.17,0c3.22-.31,6.72.92,10.43,2.23a40.82,40.82,0,0,0,8.27,2.29,16.46,16.46,0,0,0,2.2.14,17,17,0,0,0,5.2-.82h0a.39.39,0,0,0,.25-.08l0,0A17.85,17.85,0,0,0,94,96.68c.66-1.52.76-4.62.23-7.46Zm-2.64-4.38a9.58,9.58,0,0,1,1.82,4.4c.11,5.9-3.19,6.71-7.58,7.18a7.14,7.14,0,0,0,2.56-2.17c1.45-2.13,1.19-3.73.88-5.59A20.5,20.5,0,0,1,89,86.38c-.05-1-.07-1.73-.08-2.37a2.45,2.45,0,0,1,2.69.83ZM73,103.3A4.35,4.35,0,0,1,72,99.71a.41.41,0,0,0-.35-.47.42.42,0,0,0-.47.35,5.29,5.29,0,0,0,.78,3.79,8.29,8.29,0,0,1-.86,0c-4.54-.24-8.85-3.52-11.74-6.31,3.43,1.18,7-.15,10.53-1.45,4.83-1.8,9-3.35,12.31,1.44a23.83,23.83,0,0,0-3.35,2.74c-1.77,1.66-3.36,3.13-5.91,3.51ZM61.39,96.38c-1.24-5.77-1.09-9.56,3.28-13.1a10.37,10.37,0,0,1,7.58-2.14A9.73,9.73,0,0,1,77.94,84a14.06,14.06,0,0,0-4.56-1c-3-.12-8.36.76-11.12,8.08a.41.41,0,1,0,.77.29,15.34,15.34,0,0,1,.92-2h0a3.44,3.44,0,0,1,3.81.13.46.46,0,0,0,.24.08.41.41,0,0,0,.34-.18.42.42,0,0,0-.1-.58,4.41,4.41,0,0,0-3.57-.66,9.84,9.84,0,0,1,5-3.84h.18a3,3,0,0,1,3.42,1.6.43.43,0,0,0,.36.21.39.39,0,0,0,.21-.06.42.42,0,0,0,.15-.57,4.26,4.26,0,0,0-1.69-1.66c.33,0,.65,0,1,0a14.58,14.58,0,0,1,9.92,4.79.36.36,0,0,0,.11.16l0,0a7.75,7.75,0,0,1,1.49,2.71,4.31,4.31,0,0,1-2,5c-3.66-5.25-8.53-3.44-13.24-1.69-2.76,1-5.58,2.07-8.27,1.81a.39.39,0,0,0,0-.26Zm11.86-20.5c3.44-1.31,8.08.91,11.37,3s3.44,2.18,3.48,4.86c0,.71,0,1.58.08,2.7.06.88.19,1.67.3,2.36.3,1.83.52,3.14-.74,5a7.42,7.42,0,0,1-3.16,2.35,4.9,4.9,0,0,0,1.1-4.85,8.16,8.16,0,0,0-1.52-2.83,9.42,9.42,0,0,0,2-5.8.4.4,0,0,0-.43-.4.41.41,0,0,0-.4.43,8.5,8.5,0,0,1-1.68,5.12,14.82,14.82,0,0,0-3.82-2.92,11.9,11.9,0,0,0-3.9-3.43,5.94,5.94,0,0,0,1.39-4.23.42.42,0,0,0-.47-.35.4.4,0,0,0-.35.47,5.16,5.16,0,0,1-1.35,3.74,10.52,10.52,0,0,0-2.75-.77,10.84,10.84,0,0,0-2.9,0c.8-2.32,2.07-3.83,3.79-4.48Zm13.48,2.51a2.74,2.74,0,0,1,.94,1.55,25.85,25.85,0,0,0-2.61-1.77l-.57-.35a3.07,3.07,0,0,1,2.24.57Zm-12-5a6.45,6.45,0,0,1,5.5,2.25c-2.47-1-5.07-1.42-7.28-.58a6,6,0,0,0-1.28.68,3.39,3.39,0,0,1,3.06-2.35ZM57.79,80.31c.54-.27,1.22.06,1.88.38s1.44.69,2,.23a14.2,14.2,0,0,0,1.78-1.72c.17-.2.35-.39.53-.58.4-.41.75-.85,1.09-1.27.79-1,1.48-1.85,2.41-1.92.78-.07,1.74.41,2.94,1.45a9.83,9.83,0,0,0-1.92,3.66,10.74,10.74,0,0,0-4.38,2.1,12.84,12.84,0,0,0-2.47,2.57,4,4,0,0,1-1-2.58.42.42,0,0,0-.45-.38.41.41,0,0,0-.37.45,4.81,4.81,0,0,0,1.32,3.23c-1.73,2.92-1.57,6.22-.63,10.59a7.3,7.3,0,0,1-2.84-1.23c-2.18-1.52-3.57-5.26-3.31-8.89.2-2.9,1.43-5.12,3.36-6.09Zm35.48,16a17.12,17.12,0,0,1-8.49,9,5.61,5.61,0,0,0,.92-3.68.41.41,0,0,0-.82.1A4.77,4.77,0,0,1,83.06,106a16.49,16.49,0,0,1-7.11.64,40.92,40.92,0,0,1-8.1-2.25c-3.62-1.28-7.36-2.6-10.76-2.28l-.13,0c-2.2.17-2.33-.6-2.55-1.87a4.53,4.53,0,0,0-.9-2.35,17,17,0,0,0-1.83-1.61c-1-.85-2.62-2.14-2.77-2.63-.43-1.43,1-5.5,2.92-7.53a2.75,2.75,0,0,1,1.93-1,9.92,9.92,0,0,0-.16,1.25A13,13,0,0,0,55,93.24a4.12,4.12,0,0,1-2.75-1.7.42.42,0,0,0-.58-.1.4.4,0,0,0-.1.57,5,5,0,0,0,3.91,2.11h0A7.33,7.33,0,0,0,57,95.73h0a38.59,38.59,0,0,0,4.8,4.46,12.69,12.69,0,0,1-3.94-.53.41.41,0,0,0-.53.26.41.41,0,0,0,.26.52,13.31,13.31,0,0,0,4,.58A9.17,9.17,0,0,0,62.7,101l.07,0a16.48,16.48,0,0,0,8.31,3.26l.62,0c3.66,0,5.65-1.86,7.75-3.83A21.72,21.72,0,0,1,83,97.56l1.8-.19c4-.39,7.72-.77,9-4.53a9.68,9.68,0,0,1-.51,3.51Z"/></g></g></svg>