<svg xmlns="http://www.w3.org/2000/svg" viewBox="0 0 141.2 141.2"><defs><style>.cls-1{fill:none;}.cls-2{}</style></defs><g id="Calque_2" data-name="Calque 2"><g id="Layer_1" data-name="Layer 1"><rect class="cls-1" width="141.2" height="141.2" rx="70.6"/><path class="cls-2" d="M109.51,96.3v-3a3.54,3.54,0,0,0,1.45.28,8.52,8.52,0,0,0,3.49-.83c1.1-.63,2.38-3.08,2.87-4.1a1,1,0,0,0,0-.92,1,1,0,0,0-.78-.49c-1.13-.11-3.89-.28-5,.34a8.24,8.24,0,0,0-2,1.85V86.91a3.54,3.54,0,0,0,1.45.27,8.52,8.52,0,0,0,3.49-.83c1.1-.62,2.38-3.07,2.87-4.09a1,1,0,0,0,0-.92,1,1,0,0,0-.78-.5c-1.13-.1-3.89-.27-5,.35a8.18,8.18,0,0,0-2,1.84V80.46a3.54,3.54,0,0,0,1.45.28,8.52,8.52,0,0,0,3.49-.83c1.1-.62,2.38-3.07,2.87-4.1a1,1,0,0,0,0-.91,1,1,0,0,0-.78-.5c-1.13-.11-3.89-.28-5,.34a8.24,8.24,0,0,0-2,1.85V74a3.54,3.54,0,0,0,1.45.27,8.52,8.52,0,0,0,3.49-.83c1.1-.62,2.38-3.07,2.87-4.09a1,1,0,0,0,0-.92,1,1,0,0,0-.78-.5c-1.13-.1-3.89-.28-5,.35a8.18,8.18,0,0,0-2,1.84V67.57a3.54,3.54,0,0,0,1.45.28,8.52,8.52,0,0,0,3.49-.83c1.1-.62,2.38-3.07,2.87-4.1a1,1,0,0,0,0-.91,1,1,0,0,0-.78-.5c-1.13-.11-3.89-.28-5,.34a8.24,8.24,0,0,0-2,1.85v-.6c1.35-1,2-3.64,2-4.58,0-1.26-1.5-3.58-2.15-4.52a1,1,0,0,0-1.63,0c-.65.94-2.15,3.26-2.15,4.52,0,.94.63,3.62,2,4.57v.61a8.06,8.06,0,0,0-2-1.85c-1.1-.62-3.86-.45-5-.35a1,1,0,0,0-.8,1.42c.5,1,1.77,3.47,2.88,4.09a8.43,8.43,0,0,0,3.49.83,3.49,3.49,0,0,0,1.44-.27v2.57a8.06,8.06,0,0,0-2-1.85c-1.1-.62-3.86-.45-5-.34a1,1,0,0,0-.8,1.41c.5,1,1.77,3.48,2.88,4.1a8.39,8.39,0,0,0,3.49.83,3.49,3.49,0,0,0,1.44-.28v2.57a8,8,0,0,0-2-1.84c-1.1-.62-3.86-.45-5-.35a1,1,0,0,0-.8,1.42c.5,1,1.77,3.47,2.88,4.09a8.39,8.39,0,0,0,3.49.83,3.49,3.49,0,0,0,1.44-.27V83a8.06,8.06,0,0,0-2-1.85c-1.1-.62-3.86-.45-5-.34a1,1,0,0,0-.8,1.41c.5,1,1.77,3.47,2.88,4.1a8.39,8.39,0,0,0,3.49.83,3.49,3.49,0,0,0,1.44-.28v2.57a8.06,8.06,0,0,0-2-1.85c-1.1-.61-3.86-.44-5-.34a1,1,0,0,0-.8,1.42c.5,1,1.77,3.47,2.88,4.09a8.39,8.39,0,0,0,3.49.83,3.66,3.66,0,0,0,1.44-.27v3H71.84l-.17-10.52a12.63,12.63,0,0,0,7.7,2.68c8,0,14.48-7.81,14.48-17.4,0-7.78-4.26-14.37-10.12-16.6a13,13,0,0,0,.1-1.64,14.48,14.48,0,1,0-29,0v0c0,.37,0,.75,0,1.12a12,12,0,0,0,2.21,22.9,12,12,0,0,0,11.39,8.28h.2L68.52,96.3H35.87v-3a3.46,3.46,0,0,0,1.44.28,8.52,8.52,0,0,0,3.49-.83c1.1-.63,2.38-3.08,2.87-4.1a1,1,0,0,0,0-.92,1,1,0,0,0-.78-.49c-1.13-.11-3.89-.28-5,.34a8,8,0,0,0-2,1.85V86.91a3.46,3.46,0,0,0,1.44.27,8.52,8.52,0,0,0,3.49-.83c1.1-.62,2.38-3.07,2.87-4.09a1,1,0,0,0,0-.92,1,1,0,0,0-.78-.5c-1.13-.1-3.89-.27-5,.35a8,8,0,0,0-2,1.84V80.46a3.46,3.46,0,0,0,1.44.28,8.52,8.52,0,0,0,3.49-.83c1.1-.62,2.38-3.07,2.87-4.1a1,1,0,0,0,0-.91,1,1,0,0,0-.78-.5c-1.13-.11-3.89-.28-5,.34a8,8,0,0,0-2,1.85V74a3.46,3.46,0,0,0,1.44.27,8.52,8.52,0,0,0,3.49-.83c1.1-.62,2.38-3.07,2.87-4.09a1,1,0,0,0,0-.92,1,1,0,0,0-.78-.5c-1.13-.1-3.89-.28-5,.35a8,8,0,0,0-2,1.84V67.57a3.46,3.46,0,0,0,1.44.28A8.52,8.52,0,0,0,40.8,67c1.1-.62,2.38-3.07,2.87-4.1a1,1,0,0,0,0-.91,1,1,0,0,0-.78-.5c-1.13-.11-3.89-.28-5,.34a8,8,0,0,0-2,1.85v-.6c1.34-1,2-3.64,2-4.58,0-1.26-1.5-3.58-2.15-4.52a1,1,0,0,0-1.63,0c-.64.94-2.15,3.26-2.15,4.52,0,.94.63,3.62,2,4.57v.61a8.06,8.06,0,0,0-2-1.85c-1.1-.62-3.85-.45-5-.35a1,1,0,0,0-.8,1.42c.5,1,1.77,3.47,2.88,4.09a8.43,8.43,0,0,0,3.49.83,3.49,3.49,0,0,0,1.44-.27v2.57a8.06,8.06,0,0,0-2-1.85c-1.1-.62-3.85-.45-5-.34a1,1,0,0,0-.8,1.41c.5,1,1.77,3.48,2.88,4.1a8.39,8.39,0,0,0,3.49.83A3.49,3.49,0,0,0,33.89,74v2.57a8,8,0,0,0-2-1.84c-1.1-.62-3.85-.45-5-.35a1,1,0,0,0-.8,1.42c.5,1,1.77,3.47,2.88,4.09a8.39,8.39,0,0,0,3.49.83,3.49,3.49,0,0,0,1.44-.27V83a8.06,8.06,0,0,0-2-1.85c-1.1-.62-3.85-.45-5-.34a1,1,0,0,0-.8,1.41c.5,1,1.77,3.47,2.88,4.1a8.39,8.39,0,0,0,3.49.83,3.49,3.49,0,0,0,1.44-.28v2.57a8.06,8.06,0,0,0-2-1.85c-1.1-.61-3.85-.44-5-.34a1,1,0,0,0-.8,1.42c.5,1,1.77,3.47,2.88,4.09a8.39,8.39,0,0,0,3.49.83,3.66,3.66,0,0,0,1.44-.27v3H23.78v2h93.64v-2Zm3-7a7.72,7.72,0,0,1,2.34-.18,7,7,0,0,1-1.36,1.9,6.24,6.24,0,0,1-3,.56A6,6,0,0,1,112.5,89.35Zm0-6.45a7.72,7.72,0,0,1,2.34-.18,7.35,7.35,0,0,1-1.36,1.91,6.11,6.11,0,0,1-3,.55A6.17,6.17,0,0,1,112.5,82.9Zm0-6.44a7.72,7.72,0,0,1,2.34-.18,7,7,0,0,1-1.36,1.9,6.24,6.24,0,0,1-3,.56A6.1,6.1,0,0,1,112.5,76.46Zm0-6.44a8,8,0,0,1,2.34-.19,7.35,7.35,0,0,1-1.36,1.91,6.11,6.11,0,0,1-3,.55A6.07,6.07,0,0,1,112.5,70Zm0-6.45a8.07,8.07,0,0,1,2.34-.18,7,7,0,0,1-1.36,1.9,6.26,6.26,0,0,1-3,.56A6.19,6.19,0,0,1,112.5,63.57Zm-8.92,1.72a7.23,7.23,0,0,1-1.37-1.9,7.68,7.68,0,0,1,2.34.18,6.1,6.1,0,0,1,2,2.28A6.2,6.2,0,0,1,103.58,65.29Zm0,6.45a7.63,7.63,0,0,1-1.37-1.9,7.68,7.68,0,0,1,2.34.18,6.07,6.07,0,0,1,2,2.27A6,6,0,0,1,103.58,71.74Zm0,6.44a7.23,7.23,0,0,1-1.37-1.9,7.68,7.68,0,0,1,2.34.18,6.1,6.1,0,0,1,2,2.28A6.18,6.18,0,0,1,103.58,78.18Zm0,6.45a7.55,7.55,0,0,1-1.37-1.91,7.57,7.57,0,0,1,2.34.19,6.07,6.07,0,0,1,2,2.27A6,6,0,0,1,103.58,84.63Zm0,6.44a7.23,7.23,0,0,1-1.37-1.9,7.68,7.68,0,0,1,2.34.18,6.1,6.1,0,0,1,2,2.28A6.18,6.18,0,0,1,103.58,91.07Zm5-34.67a7.34,7.34,0,0,1,1,2.12,6.21,6.21,0,0,1-1,2.88,6.1,6.1,0,0,1-1-2.88A7.48,7.48,0,0,1,108.53,56.4Zm-40,26.49A9.75,9.75,0,0,1,59.58,77,9.25,9.25,0,0,1,59,75.33a.72.72,0,0,0-.65-.56,9.44,9.44,0,0,1-1.76-.34,9.74,9.74,0,0,1-1.34-18.22,9.09,9.09,0,0,1,1.43-.53.78.78,0,0,0,.56-.89,12.33,12.33,0,0,1-.15-1.49c0-.16,0-.32,0-.48a12.25,12.25,0,1,1,24.5,0h0c0,.34,0,.69,0,1s-.09.83-.17,1.25a1,1,0,0,0,.72,1.16c.4.12.8.26,1.19.42,4.84,2,8.32,7.71,8.32,14.38,0,8.36-5.49,15.17-12.25,15.17a10.43,10.43,0,0,1-6.17-2.07,12.82,12.82,0,0,1-1.58-1.37l-.18-10.86,6.64-7a.84.84,0,0,0,0-1.18l0,0a.84.84,0,0,0-1.13.06l-5.49,5.18-.23-14.16a1,1,0,0,0-1-.95h-.07a1,1,0,0,0-.88,1l-.46,28.08ZM38.85,89.35a7.72,7.72,0,0,1,2.34-.18,7,7,0,0,1-1.36,1.9,6.24,6.24,0,0,1-3,.56A6,6,0,0,1,38.85,89.35Zm0-6.45a7.72,7.72,0,0,1,2.34-.18,7.35,7.35,0,0,1-1.36,1.91,6.11,6.11,0,0,1-3,.55A6.17,6.17,0,0,1,38.85,82.9Zm0-6.44a7.72,7.72,0,0,1,2.34-.18,7,7,0,0,1-1.36,1.9,6.24,6.24,0,0,1-3,.56A6.1,6.1,0,0,1,38.85,76.46Zm0-6.44a8,8,0,0,1,2.34-.19,7.35,7.35,0,0,1-1.36,1.91,6.11,6.11,0,0,1-3,.55A6.07,6.07,0,0,1,38.85,70Zm0-6.45a8.07,8.07,0,0,1,2.34-.18,7,7,0,0,1-1.36,1.9,6.26,6.26,0,0,1-3,.56A6.19,6.19,0,0,1,38.85,63.57Zm-8.92,1.72a7.23,7.23,0,0,1-1.37-1.9,7.68,7.68,0,0,1,2.34.18,6.1,6.1,0,0,1,2,2.28A6.2,6.2,0,0,1,29.93,65.29Zm0,6.45a7.63,7.63,0,0,1-1.37-1.9A7.68,7.68,0,0,1,30.9,70a6.07,6.07,0,0,1,2,2.27A6,6,0,0,1,29.93,71.74Zm0,6.44a7.23,7.23,0,0,1-1.37-1.9,7.68,7.68,0,0,1,2.34.18,6.1,6.1,0,0,1,2,2.28A6.18,6.18,0,0,1,29.93,78.18Zm0,6.45a7.55,7.55,0,0,1-1.37-1.91,7.57,7.57,0,0,1,2.34.19,6.07,6.07,0,0,1,2,2.27A6,6,0,0,1,29.93,84.63Zm0,6.44a7.23,7.23,0,0,1-1.37-1.9,7.68,7.68,0,0,1,2.34.18,6.1,6.1,0,0,1,2,2.28A6.18,6.18,0,0,1,29.93,91.07Zm5-34.67a7.79,7.79,0,0,1,1,2.12,6.21,6.21,0,0,1-1,2.88,6.1,6.1,0,0,1-1-2.88A7.48,7.48,0,0,1,34.88,56.4Z"/><rect class="cls-2" x="57.37" y="100.85" width="24.19" height="2.03"/></g></g></svg>