<svg xmlns="http://www.w3.org/2000/svg" viewBox="0 0 141.2 141.2"><defs><style>.cls-1{fill:none;}.cls-2{}</style></defs><g id="Calque_2" data-name="Calque 2"><g id="Layer_1" data-name="Layer 1"><rect class="cls-1" width="141.2" height="141.2" rx="70.6"/><path class="cls-2" d="M131.21,74.24a18,18,0,0,0-3-9.82,15.62,15.62,0,0,0,.67-4.55,16.35,16.35,0,0,0-4.63-11.29,12,12,0,0,0,.4-3.08c0-7.43-6.64-13.48-14.79-13.48s-14.79,6-14.79,13.48a12.38,12.38,0,0,0,.39,3.08c-.28.3-.53.61-.79.92a17.55,17.55,0,0,0-5.85-10.73,12.08,12.08,0,0,0,.51-3.46c0-8.26-8.42-15-18.77-15s-18.77,6.72-18.77,15a11.75,11.75,0,0,0,.52,3.46A17.51,17.51,0,0,0,46.49,49.5c-.26-.31-.51-.62-.79-.92a12.38,12.38,0,0,0,.39-3.08C46.09,38.07,39.46,32,31.3,32s-14.79,6-14.79,13.48a12,12,0,0,0,.4,3.08,16.35,16.35,0,0,0-4.63,11.29A15.57,15.57,0,0,0,13,64.42a18,18,0,0,0-3,9.82c0,9.55,7.64,17.49,17.64,19.07l-.24,21.53c-4.52,1.07-8,2.32-10,3.72a1.27,1.27,0,0,0,1.43,2.09,11.67,11.67,0,0,1,1.92-1c7.89-3.59,28-6.1,49.85-6.1s42,2.51,49.85,6.1a11.67,11.67,0,0,1,1.92,1,1.22,1.22,0,0,0,.71.22,1.27,1.27,0,0,0,.72-2.31c-2-1.4-5.47-2.65-10-3.72l-.25-21.53C123.57,91.72,131.21,83.79,131.21,74.24ZM27.82,77.29l-6-6.48h0l1-1,5,4.64ZM28,60.83l-3.78-4.15L24.9,56,28,58.88Zm1.92,53.45.76-66.07a.61.61,0,0,1,1.22,0l.72,65.56C31.7,113.93,30.8,114.11,29.93,114.28Zm4.64-55.41L37.71,56l.67.67h0l-3.79,4.15Zm.18,15.57,5-4.64,1,1-6,6.48ZM34.83,81l7.81-8.45A2.53,2.53,0,0,0,42.57,69h0l-1-1a2.53,2.53,0,0,0-3.51-.06L34.71,71l-.07-6.47,5.61-6.16a2.53,2.53,0,0,0-.08-3.5l-.67-.67a2.53,2.53,0,0,0-3.5-.08l-1.47,1.33-.08-7.28a3.16,3.16,0,0,0-3.15-3.12h0a3.17,3.17,0,0,0-3.15,3.12l-.08,7.28L26.6,54.14a2.53,2.53,0,0,0-3.5.08l-.67.67a2.54,2.54,0,0,0-.08,3.5L28,64.55,27.89,71l-3.34-3.08A2.53,2.53,0,0,0,21,68l-1,1h0A2.53,2.53,0,0,0,20,72.53L27.78,81l-.12,9.78c-8.61-1.52-15.14-8.35-15.14-16.52a15.55,15.55,0,0,1,2.86-8.9,1.26,1.26,0,0,0,.16-1.13,13.35,13.35,0,0,1-.72-4.34,14,14,0,0,1,4.39-10,1.26,1.26,0,0,0,.33-1.3,9.73,9.73,0,0,1-.49-3c0-6,5.49-11,12.25-11s12.26,4.91,12.26,11a9.74,9.74,0,0,1-.5,3,1.28,1.28,0,0,0,.33,1.3,14.85,14.85,0,0,1,3.32,4.8,13.89,13.89,0,0,0,.51,1.89,18.3,18.3,0,0,0-3.83,11,18.72,18.72,0,0,0,5.37,12.82A18.44,18.44,0,0,1,34.94,90.76Zm16.48,30.56A5.26,5.26,0,0,1,50,101.18v.9a1.27,1.27,0,0,0,2.53,0v-.9a5.26,5.26,0,0,1-1.26,10.36Zm15-.53q-4.65.06-9.05.26a7.78,7.78,0,0,0-4.72-12.68v-1a1.27,1.27,0,1,0-2.53,0v1a7.78,7.78,0,0,0-4,13.44c-3.9.35-7.54.79-10.85,1.31l-.23-20A21.14,21.14,0,0,0,50.69,82.24a29.92,29.92,0,0,0,15.9,6.66Zm.45-39.5L59.93,64.1a.14.14,0,0,1,0-.19l1.11-1.11a.13.13,0,0,1,.19,0L66.83,68ZM67,53.32l-4.41-4.84a.13.13,0,0,1,0-.19h0l.73-.74a.18.18,0,0,1,.1,0,.18.18,0,0,1,.09,0L67,50.78ZM70.6,111H68.87L69.7,39a.81.81,0,0,1,1.62,0l.83,72ZM74,50.74l3.51-3.19a.12.12,0,0,1,.09,0,.18.18,0,0,1,.1,0l.74.74a.14.14,0,0,1,0,.19L74,53.32ZM74.19,68l5.59-5.17a.17.17,0,0,1,.1,0,.12.12,0,0,1,.09,0l1.11,1.11a.13.13,0,0,1,0,.19l-6.86,7.41Zm.08,7.24L83,65.82a2.66,2.66,0,0,0-.07-3.7L81.76,61a2.67,2.67,0,0,0-3.7-.07l-3.91,3.62L74.06,57l6.25-6.86a2.66,2.66,0,0,0-.09-3.68h0l-.74-.74a2.66,2.66,0,0,0-3.68-.09L74,47.35,73.86,39a3.35,3.35,0,0,0-3.35-3.31h0A3.35,3.35,0,0,0,67.17,39l-.1,8.35-1.85-1.68a2.66,2.66,0,0,0-3.68.09l-.74.74a2.65,2.65,0,0,0-.08,3.68L67,57l-.09,7.51L63,60.93a2.67,2.67,0,0,0-3.7.07l-1.12,1.12h0a2.67,2.67,0,0,0-.07,3.7l8.68,9.38-.13,11.16C54.9,84.88,45.93,77,45.93,67.57a15.92,15.92,0,0,1,3.71-10,1.28,1.28,0,0,0,.19-1.26,13.21,13.21,0,0,1-.94-4.86c0-4.18,2-8.19,5.74-11.3A1.26,1.26,0,0,0,55,38.73a9.79,9.79,0,0,1-.63-3.42c0-6.87,7.28-12.45,16.23-12.45s16.23,5.58,16.23,12.45a9.79,9.79,0,0,1-.63,3.42,1.26,1.26,0,0,0,.37,1.41c3.7,3.11,5.74,7.12,5.74,11.3a13.25,13.25,0,0,1-.94,4.86,1.3,1.3,0,0,0,.19,1.26,15.94,15.94,0,0,1,3.71,10c0,9.5-9.07,17.39-20.87,18.81Zm15.92,35.58h0a5.15,5.15,0,0,1-.83.79c-2.1-.13-4.25-.25-6.45-.34a5,5,0,0,1,5.47-8.12l-.5.6a1.27,1.27,0,0,0,2,1.61l.49-.61A5,5,0,0,1,90.19,110.78Zm7.64,1.51q-2.55-.27-5.25-.48a7.58,7.58,0,0,0,1.19-5.18,3.54,3.54,0,0,1,4.06,5.66Zm8.17,1c-1.7-.26-3.48-.51-5.34-.73A6.05,6.05,0,0,0,93,104.2a7.56,7.56,0,0,0-1-1.51l.57-.7a1.27,1.27,0,0,0-2-1.6l-.57.7a7.51,7.51,0,0,0-10.36,10c-1.64,0-3.3-.08-5-.1l-.26-22.09a29.93,29.93,0,0,0,16.08-6.68,21.14,21.14,0,0,0,15.72,11.07Zm.42-36-6-6.48h0l1-1,5,4.64Zm.19-16.45-3.79-4.16h0l.66-.67,3.14,2.86Zm1.92,52.92.76-65.55a.61.61,0,0,1,1.22,0l.73,66.07C110.37,114.1,109.46,113.93,108.53,113.76Zm4.64-54.89L116.31,56l.66.67h0l-3.78,4.15Zm.18,15.57,5-4.64,1,1-6,6.48Zm.19,16.32L113.42,81l7.82-8.45a2.53,2.53,0,0,0-.07-3.52h0l-1-1a2.52,2.52,0,0,0-3.51-.07L113.31,71l-.08-6.47,5.62-6.16a2.54,2.54,0,0,0-.08-3.5l-.67-.67a2.53,2.53,0,0,0-3.5-.08l-1.47,1.33-.08-7.28a3.16,3.16,0,0,0-3.15-3.12h0a3.16,3.16,0,0,0-3.15,3.12l-.08,7.28-1.47-1.33a2.53,2.53,0,0,0-3.5.08l-.67.67a2.53,2.53,0,0,0-.08,3.5l5.61,6.16L106.49,71l-3.34-3.08a2.53,2.53,0,0,0-3.51.06l-1,1a2.53,2.53,0,0,0-.07,3.52L106.37,81l-.11,9.78A18.44,18.44,0,0,1,92.44,80.39a18.72,18.72,0,0,0,5.37-12.82,18.3,18.3,0,0,0-3.83-11,13.89,13.89,0,0,0,.51-1.89,14.85,14.85,0,0,1,3.32-4.8,1.26,1.26,0,0,0,.33-1.3,9.74,9.74,0,0,1-.5-3c0-6,5.5-11,12.26-11s12.25,4.91,12.25,11a9.73,9.73,0,0,1-.49,3,1.26,1.26,0,0,0,.33,1.3,14,14,0,0,1,4.4,10,13.36,13.36,0,0,1-.73,4.34,1.26,1.26,0,0,0,.16,1.13,15.55,15.55,0,0,1,2.86,8.9C128.68,82.41,122.16,89.24,113.54,90.76ZM85,35.84a4.46,4.46,0,0,0-3.19-4.26v-.74a1.27,1.27,0,1,0-2.53,0v.74A4.45,4.45,0,1,0,85,35.84Zm-4.46,1.92a1.93,1.93,0,1,1,1.93-1.92A1.92,1.92,0,0,1,80.52,37.76ZM62.56,31v-.74a1.27,1.27,0,0,0-2.54,0V31a4.46,4.46,0,1,0,2.54,0Zm-1.27,6.18a1.93,1.93,0,1,1,1.92-1.92A1.93,1.93,0,0,1,61.29,37.21Zm25,13.86v-.74a1.27,1.27,0,0,0-2.54,0v.74a4.46,4.46,0,1,0,2.54,0ZM85,57.25A1.93,1.93,0,1,1,87,55.33,1.93,1.93,0,0,1,85,57.25ZM57.08,51v-.7a1.27,1.27,0,1,0-2.53,0V51a4.39,4.39,0,1,0,2.53,0Zm-1.27,6a1.86,1.86,0,1,1,1.86-1.86A1.85,1.85,0,0,1,55.81,57.06Zm1.27,13.1a1.27,1.27,0,0,0-2.53,0v.75a4.46,4.46,0,1,0,2.53,0Zm.66,5a1.93,1.93,0,1,1-1.93-1.92A1.94,1.94,0,0,1,57.74,75.16ZM85,71V70a1.27,1.27,0,1,0-2.53,0v1A4.94,4.94,0,1,0,85,71Zm-1.26,7.16a2.41,2.41,0,1,1,2.4-2.41A2.41,2.41,0,0,1,83.72,78.13Z"/></g></g></svg>