<svg xmlns="http://www.w3.org/2000/svg" viewBox="0 0 141.2 141.2"><defs><style>.cls-1{fill:none;}.cls-2{}</style></defs><g id="Calque_2" data-name="Calque 2"><g id="Layer_1" data-name="Layer 1"><rect class="cls-1" width="141.2" height="141.2" rx="70.6"/><path class="cls-2" d="M131.21,68.4a17.94,17.94,0,0,0-3-9.82,15.62,15.62,0,0,0,.67-4.55,16.35,16.35,0,0,0-4.63-11.29,12,12,0,0,0,.4-3.08c0-7.44-6.64-13.49-14.79-13.49s-14.79,6-14.79,13.49a12.44,12.44,0,0,0,.39,3.08A16.38,16.38,0,0,0,90.88,54a16,16,0,0,0,.66,4.55,18,18,0,0,0-3,9.82c0,9.54,7.63,17.48,17.64,19.07h0l-.23,20q-2.55-.39-5.34-.73l-2.83-.31c-1.7-.18-3.45-.34-5.25-.49l-3.22-.23q-3.15-.21-6.45-.35l-3.25-.11c-1.64,0-3.3-.09-5-.11H66.34c-3.1,0-6.12.13-9.05.27l-11.24.75c-3.9.36-7.54.8-10.85,1.31l-.23-20h0c10-1.59,17.64-9.53,17.64-19.07a18,18,0,0,0-3-9.82A16,16,0,0,0,50.32,54,16.34,16.34,0,0,0,45.7,42.74a12.44,12.44,0,0,0,.39-3.08c0-7.44-6.63-13.49-14.79-13.49s-14.79,6-14.79,13.49a12,12,0,0,0,.4,3.08A16.35,16.35,0,0,0,12.28,54,15.62,15.62,0,0,0,13,58.58a17.94,17.94,0,0,0-3,9.82c0,9.54,7.64,17.48,17.64,19.07L27.39,109c-4.52,1.06-8,2.32-10,3.72a1.27,1.27,0,0,0,1.43,2.09,12.45,12.45,0,0,1,1.92-1c7.89-3.59,28-6.09,49.85-6.09s42,2.5,49.85,6.09a12.45,12.45,0,0,1,1.92,1,1.22,1.22,0,0,0,.71.22,1.27,1.27,0,0,0,.72-2.31c-2-1.4-5.47-2.66-10-3.72l-.24-21.53C123.57,85.88,131.21,77.94,131.21,68.4Zm-103.39,3-6-6.49h0l1-1,5,4.64ZM28,55l-3.78-4.16.67-.66L28,53Zm1.92,53.45.76-66.07a.61.61,0,0,1,1.22,0l.72,65.55C31.7,108.09,30.8,108.26,29.93,108.44ZM34.57,53l3.14-2.85.67.66h0L34.59,55Zm.18,15.57,5-4.64,1,1-6,6.49Zm.19,16.33-.11-9.78,7.81-8.46a2.52,2.52,0,0,0-.07-3.51h0l-1-1a2.52,2.52,0,0,0-3.51-.07l-3.34,3.09-.07-6.47,5.61-6.17a2.53,2.53,0,0,0-.08-3.5l-.67-.67a2.53,2.53,0,0,0-3.5-.08l-1.47,1.34-.08-7.29a3.16,3.16,0,0,0-3.15-3.11h0a3.17,3.17,0,0,0-3.15,3.11l-.08,7.29L26.6,48.29a2.54,2.54,0,0,0-3.5.08l-.67.67a2.54,2.54,0,0,0-.08,3.5L28,58.71l-.08,6.47-3.34-3.09a2.52,2.52,0,0,0-3.51.07l-1,1h0A2.52,2.52,0,0,0,20,66.68l7.82,8.46-.12,9.78c-8.61-1.53-15.14-8.35-15.14-16.52a15.52,15.52,0,0,1,2.86-8.9,1.28,1.28,0,0,0,.16-1.14A13.33,13.33,0,0,1,14.82,54a13.94,13.94,0,0,1,4.39-10,1.26,1.26,0,0,0,.33-1.3,9.78,9.78,0,0,1-.49-3.05c0-6,5.49-10.95,12.25-10.95s12.26,4.91,12.26,10.95a10.13,10.13,0,0,1-.49,3.05,1.26,1.26,0,0,0,.32,1.3,13.91,13.91,0,0,1,4.4,10,13.34,13.34,0,0,1-.73,4.33,1.28,1.28,0,0,0,.16,1.14,15.52,15.52,0,0,1,2.86,8.9c0,8.17-6.52,15-15.14,16.52Zm71.48-13.47-6-6.49h0l1-1,5,4.64ZM106.61,55l-3.79-4.15h0l.66-.66L106.63,53Zm1.92,52.93.76-65.55a.61.61,0,0,1,1.22,0l.73,66.06C110.37,108.25,109.46,108.08,108.53,107.92ZM113.17,53l3.14-2.85.66.66h0L113.19,55Zm.18,15.57,5-4.64,1,1-6,6.49Zm.19,16.33-.12-9.78,7.82-8.46a2.52,2.52,0,0,0-.07-3.51h0l-1-1a2.52,2.52,0,0,0-3.51-.07l-3.34,3.09-.08-6.47,5.62-6.17a2.54,2.54,0,0,0-.08-3.5l-.67-.67a2.53,2.53,0,0,0-3.5-.08l-1.47,1.34-.08-7.29a3.16,3.16,0,0,0-3.15-3.11h0a3.16,3.16,0,0,0-3.15,3.11l-.08,7.29-1.47-1.34a2.53,2.53,0,0,0-3.5.08L101,49a2.53,2.53,0,0,0-.08,3.5l5.61,6.17-.07,6.47-3.34-3.09a2.52,2.52,0,0,0-3.51.07l-1,1a2.52,2.52,0,0,0-.07,3.51l7.81,8.46-.11,9.78h0c-8.62-1.53-15.14-8.35-15.14-16.52A15.52,15.52,0,0,1,94,59.5a1.28,1.28,0,0,0,.16-1.14A13.34,13.34,0,0,1,93.41,54a14,14,0,0,1,4.4-10,1.28,1.28,0,0,0,.33-1.3,9.79,9.79,0,0,1-.5-3.05c0-6,5.5-10.95,12.26-10.95s12.25,4.91,12.25,10.95a9.82,9.82,0,0,1-.49,3.05A1.26,1.26,0,0,0,122,44a14,14,0,0,1,4.4,10,13.34,13.34,0,0,1-.73,4.33,1.28,1.28,0,0,0,.16,1.14,15.52,15.52,0,0,1,2.86,8.9C128.68,76.57,122.16,83.39,113.54,84.92Z"/><path class="cls-2" d="M67.45,99.23l1.34.57h0A2.34,2.34,0,0,1,70,100.9l0,.09v5.69h1.16V101l0-.09a2.34,2.34,0,0,1,1.16-1.1l1.33-.57h0a3.54,3.54,0,0,0,1.55-1.29A3.47,3.47,0,0,0,75.83,96v-3.9a.6.6,0,0,0-.31-.52.59.59,0,0,0-.6,0l-2.47,1.65a5.23,5.23,0,0,0-1.29,1.24V94l0-.08h0a2.26,2.26,0,0,1,1.16-1.1l1.34-.57h0A3.51,3.51,0,0,0,75.83,89V85.11a.58.58,0,0,0-.91-.48l-2.47,1.64a5.62,5.62,0,0,0-1.29,1.24V87l0-.09h0a2.34,2.34,0,0,1,1.16-1.1l1.34-.57h0A3.52,3.52,0,0,0,75.25,84,3.47,3.47,0,0,0,75.83,82V75.2H74.66v2.61l-2.21,1.47h0a5.23,5.23,0,0,0-1.29,1.24v-.36l1.17-.88a2.92,2.92,0,0,0,0-4.66l-1.17-.87v-2H70v2l-1.17.87a2.92,2.92,0,0,0,0,4.66l1.17.88v.36a5.07,5.07,0,0,0-1.29-1.24L66.5,77.81V75.2H65.33V82A3.47,3.47,0,0,0,65.91,84a3.52,3.52,0,0,0,1.54,1.29l1.34.57A2.34,2.34,0,0,1,70,86.91L70,87v.51a5.62,5.62,0,0,0-1.29-1.24l-2.47-1.64h0a.58.58,0,0,0-.91.48V89a3.48,3.48,0,0,0,2.12,3.21l1.34.58A2.26,2.26,0,0,1,70,93.91L70,94v.52a5.23,5.23,0,0,0-1.29-1.24l-2.47-1.65h0a.59.59,0,0,0-.6,0,.6.6,0,0,0-.31.52V96a3.47,3.47,0,0,0,.58,1.93,3.52,3.52,0,0,0,1.54,1.29Zm4.26-3.42h0a4.05,4.05,0,0,1,1.39-1.57l1.56-1V96a2.35,2.35,0,0,1-.38,1.29,2.39,2.39,0,0,1-1,.86l-1.34.57h0a3.35,3.35,0,0,0-.75.44V96.91Zm0-7h0a4.2,4.2,0,0,1,1.39-1.57l1.56-1V89a2.31,2.31,0,0,1-.38,1.28,2.39,2.39,0,0,1-1,.86l-1.34.57h0a3.83,3.83,0,0,0-.75.45V89.91Zm0-7h0a4.05,4.05,0,0,1,1.39-1.57l1.56-1V82a2.35,2.35,0,0,1-.38,1.29,2.39,2.39,0,0,1-1,.86l-1.34.57h0a3.78,3.78,0,0,0-.75.44V82.92ZM68.83,77a1.77,1.77,0,0,1,.7-1.4l1-.78,1,.78a1.75,1.75,0,0,1,0,2.8l-1,.79-1-.79A1.75,1.75,0,0,1,68.83,77Zm.42,7.79-1.34-.57a2.39,2.39,0,0,1-1-.86A2.35,2.35,0,0,1,66.5,82V79.21l1.56,1h0a4.12,4.12,0,0,1,1.39,1.57l.55,1.1v2.26h0a4.33,4.33,0,0,0-.75-.44Zm0,7-1.34-.58A2.32,2.32,0,0,1,66.5,89V86.2l1.56,1h0a4.15,4.15,0,0,1,1.39,1.58l.55,1.1v2.26h0a3.35,3.35,0,0,0-.75-.44ZM66.5,93.2l1.56,1h0a4.12,4.12,0,0,1,1.39,1.57l.55,1.1v2.26h0a3.78,3.78,0,0,0-.75-.44l-1.34-.57a2.39,2.39,0,0,1-1-.86A2.35,2.35,0,0,1,66.5,96Z"/><path class="cls-2" d="M54.63,99.23,56,99.8h0a2.36,2.36,0,0,1,1.17,1.1l0,.09v5.69h1.17V101l0-.09a2.36,2.36,0,0,1,1.17-1.1l1.33-.57h0A3.47,3.47,0,0,0,63,96v-3.9a.6.6,0,0,0-.31-.52.57.57,0,0,0-.59,0l-2.47,1.65a5.07,5.07,0,0,0-1.29,1.24V94l0-.08h0a2.28,2.28,0,0,1,1.17-1.1l1.33-.57h0A3.54,3.54,0,0,0,62.43,91,3.59,3.59,0,0,0,63,89V85.11a.58.58,0,0,0-.31-.51.57.57,0,0,0-.59,0l-2.47,1.64a5.43,5.43,0,0,0-1.29,1.24V87l0-.09h0a2.36,2.36,0,0,1,1.17-1.1l1.33-.57h0A3.47,3.47,0,0,0,63,82V75.2H61.84v2.61l-2.21,1.47h0a5.07,5.07,0,0,0-1.29,1.24v-.36l1.17-.88a2.92,2.92,0,0,0,0-4.66l-1.17-.87v-2H57.17v2L56,74.62a2.91,2.91,0,0,0,0,4.66l1.16.88v.36a4.91,4.91,0,0,0-1.29-1.24l-2.2-1.47V75.2H52.51V82a3.51,3.51,0,0,0,2.12,3.22l1.33.57a2.36,2.36,0,0,1,1.17,1.1l0,.09v.51a5.25,5.25,0,0,0-1.29-1.24l-2.46-1.64a.58.58,0,0,0-.91.48V89A3.52,3.52,0,0,0,53.09,91a3.44,3.44,0,0,0,1.54,1.28l1.33.58a2.28,2.28,0,0,1,1.17,1.1l0,.08v.52a4.91,4.91,0,0,0-1.29-1.24l-2.46-1.65a.59.59,0,0,0-.6,0,.6.6,0,0,0-.31.52V96a3.51,3.51,0,0,0,2.12,3.22Zm4.26-3.42h0a4.05,4.05,0,0,1,1.39-1.57l1.56-1V96a2.35,2.35,0,0,1-1.42,2.15l-1.33.57h0a3.14,3.14,0,0,0-.75.44V96.91Zm0-7h0a4.2,4.2,0,0,1,1.39-1.57l1.56-1V89a2.35,2.35,0,0,1-1.42,2.14l-1.33.57h0a3.55,3.55,0,0,0-.75.45V89.91Zm0-7h0a4.05,4.05,0,0,1,1.39-1.57l1.56-1V82a2.35,2.35,0,0,1-1.42,2.15l-1.33.57h0a3.51,3.51,0,0,0-.75.44V82.92ZM56,77a1.77,1.77,0,0,1,.7-1.4l1-.78,1.05.78a1.75,1.75,0,0,1,0,2.8l-1.05.79-1-.79A1.75,1.75,0,0,1,56,77Zm.41,7.79-1.33-.57A2.32,2.32,0,0,1,53.68,82V79.21l1.56,1h0a4,4,0,0,1,1.38,1.57l.55,1.1v2.26h0a4,4,0,0,0-.75-.44Zm0,7-1.33-.58a2.27,2.27,0,0,1-1-.86A2.31,2.31,0,0,1,53.68,89V86.2l1.56,1h0a4,4,0,0,1,1.38,1.58l.55,1.1v2.26h0a3.14,3.14,0,0,0-.75-.44ZM53.68,93.2l1.56,1h0a4,4,0,0,1,1.38,1.57l.55,1.1v2.26h0a3.51,3.51,0,0,0-.75-.44l-1.33-.57A2.32,2.32,0,0,1,53.68,96Z"/><path class="cls-2" d="M87.48,77.81l-2.2,1.47h0A4.91,4.91,0,0,0,84,80.52v-.36l1.16-.88a2.91,2.91,0,0,0,0-4.66L84,73.75v-2H82.82v2l-1.17.87a2.92,2.92,0,0,0,0,4.66l1.17.88v.36a5.07,5.07,0,0,0-1.29-1.24l-2.21-1.47V75.2H78.16V82a3.47,3.47,0,0,0,2.12,3.22l1.33.57a2.36,2.36,0,0,1,1.17,1.1l0,.09v.51a5.43,5.43,0,0,0-1.29-1.24l-2.47-1.64h0a.58.58,0,0,0-.9.48V89A3.59,3.59,0,0,0,78.73,91a3.52,3.52,0,0,0,1.55,1.28l1.33.58a2.28,2.28,0,0,1,1.17,1.1l0,.08v.52a5.07,5.07,0,0,0-1.29-1.24l-2.47-1.65h0a.59.59,0,0,0-.6,0,.61.61,0,0,0-.3.52V96a3.47,3.47,0,0,0,2.12,3.22l1.33.57a2.36,2.36,0,0,1,1.17,1.1l0,.09v5.69H84V101l0-.09a2.38,2.38,0,0,1,1.16-1.1l1.34-.57h0a3.52,3.52,0,0,0,1.54-1.29A3.47,3.47,0,0,0,88.65,96v-3.9a.6.6,0,0,0-.31-.52.59.59,0,0,0-.6,0l-2.46,1.65A4.91,4.91,0,0,0,84,94.51V94l0-.08h0a2.28,2.28,0,0,1,1.17-1.1l1.33-.57h0A3.46,3.46,0,0,0,88.07,91,3.52,3.52,0,0,0,88.65,89V85.11a.58.58,0,0,0-.91-.48l-2.46,1.64A5.25,5.25,0,0,0,84,87.51V87l0-.09h0a2.36,2.36,0,0,1,1.17-1.1l1.33-.57h0A3.51,3.51,0,0,0,88.65,82V75.2H87.48ZM81.65,77a1.8,1.8,0,0,1,.7-1.4l1.05-.78,1,.78a1.75,1.75,0,0,1,0,2.8l-1,.79-1.05-.79A1.78,1.78,0,0,1,81.65,77Zm.42,7.79-1.33-.57A2.35,2.35,0,0,1,79.32,82V79.21l1.56,1h0a4.12,4.12,0,0,1,1.39,1.57l.55,1.1v2.26h0a3.51,3.51,0,0,0-.75-.44Zm0,7-1.33-.58a2.27,2.27,0,0,1-1-.86A2.32,2.32,0,0,1,79.32,89V86.2l1.56,1h0a4.15,4.15,0,0,1,1.39,1.58l.55,1.09v2.27h0a3.14,3.14,0,0,0-.75-.44Zm0,7-1.33-.57A2.35,2.35,0,0,1,79.32,96V93.2l1.56,1h0a4.12,4.12,0,0,1,1.39,1.57l.55,1.1v2.26h0a3.51,3.51,0,0,0-.75-.44Zm2.47-2.92h0a4,4,0,0,1,1.38-1.57l1.56-1V96a2.32,2.32,0,0,1-1.41,2.15l-1.33.57h0a3.14,3.14,0,0,0-.75.44V96.91Zm0-7h0a4.09,4.09,0,0,1,1.38-1.57l1.56-1V89a2.32,2.32,0,0,1-1.41,2.14l-1.33.57h0a3.55,3.55,0,0,0-.75.45V89.91Zm1.53-4.64-1.33.57h0a3.51,3.51,0,0,0-.75.44V82.92l.55-1.1a4,4,0,0,1,1.38-1.57l1.56-1V82a2.32,2.32,0,0,1-1.41,2.15Z"/></g></g></svg>