<svg xmlns="http://www.w3.org/2000/svg" viewBox="0 0 141.2 141.2"><defs><style>.cls-1{fill:none;}.cls-2{}</style></defs><g id="Calque_2" data-name="Calque 2"><g id="Layer_1" data-name="Layer 1"><rect class="cls-1" width="141.2" height="141.2" rx="70.6"/><path class="cls-2" d="M113.91,78.05a.76.76,0,0,0-.4.1c-.1,0-.2.1-.3.1s-.2.1-.3.1a9.22,9.22,0,0,0-.8.5,5,5,0,0,0-.8.7c-.1.1-.2.3-.4.4a1.76,1.76,0,0,1-.4.5,2.19,2.19,0,0,1-.3.5l-.3.6a5,5,0,0,0-.4,1.3c0,.2-.1.4-.1.7v1.1h0v.6c0,.4-.1.7-.1,1v.2c0,.1,0,.1-.1.2s-.1.3-.1.4-.1.2-.1.3a.37.37,0,0,0-.1.3,1.38,1.38,0,0,1-.3.4l-.1.1a62,62,0,0,1-14.9,6c.4-5.4-1.3-11.9-7.5-16-12.3-8.2-16.9-12.9-17-12.9l-.6-.6-1.4-7.1,4.7-30.5-2.3,1.6c-3.1,2.2-5.2,6.5-6.5,11.2-7.6,3.7-7.7,16.9-7.7,18.9l-1.7,4.6-2,2s-4.6,4.7-17,12.9c-7.5,5.2-8.8,14.7-6.2,21.4,2.3,5.8,7,9.1,12.6,9.1a14.92,14.92,0,0,0,2.1-.2,11.72,11.72,0,0,0,5.5,1.3,13.11,13.11,0,0,0,6.3-1.6,9.56,9.56,0,0,0,5.4,1.6,10.14,10.14,0,0,0,5.5-1.6,13.78,13.78,0,0,0,6.4,1.6,11.72,11.72,0,0,0,5.5-1.3,5.7,5.7,0,0,0,1.3.1,18.91,18.91,0,0,0,7.9,4.9,14.53,14.53,0,0,0,4.1.6,15.81,15.81,0,0,0,8.6-2.7,22.86,22.86,0,0,0,10.1-14.1,25.17,25.17,0,0,0,.7-7.8l.1-.1a6.89,6.89,0,0,0,.3-.8.75.75,0,0,0,.1-.5c0-.2.1-.3.1-.5s.1-.4.1-.6v-.6a4.87,4.87,0,0,0-.1-1.2c0-.2-.1-.4-.1-.6v-.2h0v-.1a.37.37,0,0,0-.1-.3,1.27,1.27,0,0,0-.1-.6v-.6a3.75,3.75,0,0,1,.1-1.1,4.33,4.33,0,0,1,.1-.5c.1-.2.1-.4.2-.5s.1-.3.2-.5.2-.3.3-.5.4-.5.6-.8a2.65,2.65,0,0,1,.6-.5c.1-.1.2-.1.3-.2a.37.37,0,0,1,.3-.1c.3,0,.4,0,.5-.1h0Zm-29.1,2.3c5.6,3.7,6.9,9.9,6.3,14.6-2.7.6-5.2,1-7.3,1.3a21.66,21.66,0,0,0-.4-2.5c-1.5-7.1-7-15.3-11.5-21.2l-.8-2.2C73.81,72.55,78.21,76,84.81,80.35Zm-27-21.5c0-.1-.3-10.8,4.3-15.4a95.57,95.57,0,0,0-1.8,14.7l2.5.1a86.15,86.15,0,0,1,1.2-12c1-5.7,2.5-10.1,4.4-12.9l-3.8,24.2.7,3.9-.1-.1.1.4.7,3.8c-.5-.6-.8-.9-.9-1l-2.3-2.5.3,5.7c-1-1.7-1.8-3-1.9-3.1l-1-1.7-1,1.7c-.1.1-.8,1.3-1.7,2.8l.3-5.3-1.9,2.1,1.9-5Zm-27.1,39.9c-2.3-5.8-1.2-14.1,5.3-18.4s11-7.8,13.7-10l-.8,2.2c-4.5,5.9-10,14.2-11.5,21.2-1.1,5.1-.1,9.5,2.6,12.5C35.91,106,32.51,103.25,30.71,98.75Zm12.5,7c-3.2-2.3-4.4-6.5-3.3-11.5,1.9-8.9,10.9-20.4,15.2-25.5l-.2,3.2c-.4.7-.8,1.4-1.1,2-3.4,6.5-6.5,23.3-1.7,31.3.3.4.5.8.8,1.2A9.58,9.58,0,0,1,43.21,105.75Zm17.1,1.7a6.65,6.65,0,0,1-6.1-3.4c-4.3-7.1-1.3-23,1.8-28.9,1.1-2.1,3.1-5.5,4.3-7.6,1.2,2.1,3.3,5.5,4.3,7.6,3,5.9,6.1,21.7,1.8,28.9A6.65,6.65,0,0,1,60.31,107.45Zm14.6-4.2a18.56,18.56,0,0,0,1.9,3.1,10,10,0,0,1-9.1.2,7.63,7.63,0,0,0,.8-1.1c4.9-8,1.7-24.8-1.7-31.3-.3-.5-.6-1.1-.9-1.7l-.2-3.6C70,74,79,85.35,80.91,94.35a9.08,9.08,0,0,1,.3,2.3c-2.7.3-4.4.3-4.4.3h-1l-1.1,5.9Zm23.4,6.3a13.24,13.24,0,0,1-10.8,1.8c-5-1.5-8.8-6.1-10.3-8.8l.6-3.2c3.8-.2,17.8-1.3,30.1-7.9C108,95.35,106.91,104.25,98.31,109.55Z"/><path class="cls-2" d="M94,108.55a2.77,2.77,0,0,0,.9-.1,10.34,10.34,0,0,0,1.2-.3,6.94,6.94,0,0,0,1.3-.5,2.51,2.51,0,0,0,.7-.4c.1-.1.2-.1.3-.2s.2-.1.3-.2.5-.3.7-.5l.3-.3.3-.3.3-.3.3-.3a4.35,4.35,0,0,0,.6-.7c.2-.2.3-.5.5-.7s.3-.5.5-.7.3-.5.4-.7.3-.5.4-.7c.2-.5.4-1,.6-1.4A9.29,9.29,0,0,0,104,99a5,5,0,0,0,.2-1.2c0-.3.1-.6.1-.9v-.8s-.5,1-1.4,2.4a6.73,6.73,0,0,1-.7,1.1,2.09,2.09,0,0,1-.4.6c-.1.2-.3.4-.4.6a5.67,5.67,0,0,0-.8,1.3,2.65,2.65,0,0,1-.5.6c-.2.2-.3.4-.5.6s-.3.4-.5.6-.2.2-.2.3l-.3.3c-.3.4-.7.7-1,1.1s-.7.6-1.1.9a2.18,2.18,0,0,0-.5.4,1.76,1.76,0,0,0-.5.4c-.1.1-.2.1-.2.2a.31.31,0,0,1-.2.1,1.38,1.38,0,0,0-.4.3,3,3,0,0,1-.8.4,2.19,2.19,0,0,0-.5.3.31.31,0,0,1-.2.1h.2C93.51,108.55,93.71,108.55,94,108.55Z"/></g></g></svg>