<svg xmlns="http://www.w3.org/2000/svg" viewBox="0 0 141.2 141.2"><defs><style>.cls-1{}.cls-2{fill:none;}</style></defs><g id="Calque_2" data-name="Calque 2"><g id="Layer_1" data-name="Layer 1"><path class="cls-1" d="M114.14,65.53c-.61-19.5-5.89-26.38-6.13-26.68a1,1,0,0,0-1.4-.19h0A64,64,0,0,0,88.86,58.76c-1.81-.46-4.56-.45-6.06,2a20.46,20.46,0,0,0-1.47,4.17A26.75,26.75,0,0,0,63.46,56C44.3,54.37,24.53,71.15,23.7,71.87a1,1,0,0,0-.15,1.41l.05,0c8,8.15,24,13.71,28.08,15a13.48,13.48,0,0,0-.49,6.55,1.8,1.8,0,0,0,.08.21c3.08,6.07,9.4,7.65,15.14,7.65a42,42,0,0,0,11.79-1.81,40.77,40.77,0,0,0,14.55-8.71,21.45,21.45,0,0,0,4.85.59,16.16,16.16,0,0,0,10.17-3.47c8-6.18,10.1-18.58,10.1-20C117.85,67.17,115.78,66,114.14,65.53Zm-8.65-23.41-6.1,22.81c-1-.23-2-.48-3-.73,1.43-3.66,6.77-17.29,9-22Zm2.11-.06c.13.27.27.56.41.89-.28,4.73-3.32,19.21-4.12,23-.84-.17-1.69-.36-2.52-.55Zm1.92,5.07c.29,1,.59,2.09.86,3.31-.49,3.14-2,14.19-2.3,16.39l-.33-.07c-.63-.16-1.27-.28-1.91-.4.63-3,2.69-12.85,3.66-19.23Zm2,9.66a94.69,94.69,0,0,1,.72,10.9l-.9-.19-1.26-.26c.1-1.13.78-6.11,1.39-10.45Zm-9.67-11.44C99.19,51.61,95.51,61,94.47,63.68l-.76-.2-1-.28c1.55-4.34,5.26-14,7.19-15.94h0C100.53,46.63,101.18,46,101.85,45.35ZM89.42,62.14A47.17,47.17,0,0,1,94,54.42c-1.38,3.39-2.63,6.76-3.14,8.19Zm-1.5-1.53c-.19.4-.32.69-.38.85l-.69-.27A22.91,22.91,0,0,0,93.2,65a43.17,43.17,0,0,0,7,2.23,52.32,52.32,0,0,0,7.27,1.12c1.22.1,2.45.13,3.67.17a22.72,22.72,0,0,0,3.68-.16l-.66-.16v-.48a3.71,3.71,0,0,1,1.3.83C101.4,70.38,88.7,63.2,85.2,61A3.64,3.64,0,0,1,87.92,60.61Zm6.51,27.1A74.11,74.11,0,0,1,57.9,99a11.14,11.14,0,0,1-2.3-1.54c5.88-.7,23.45-3.31,40-11Zm4.14-5c-19,10-40.89,12.52-44.62,12.89-.08-.11-.17-.22-.24-.33l45-12.83ZM53,93.39a11,11,0,0,1,.09-2.3C56.47,89.67,76,81.72,97.69,80.23l.63.27Zm.66-4.7a12.82,12.82,0,0,1,1.19-2.51c2-1,15.06-7.32,35.69-8.4.92.24,1.85.51,2.8.82A156.34,156.34,0,0,0,53.7,88.69ZM58,82.61c2.52-2.19,6.27-4.24,11.87-5.67a44.48,44.48,0,0,1,13.08-.49A96.79,96.79,0,0,0,58,82.61ZM63.31,58a25,25,0,0,1,17.53,9.37,28.85,28.85,0,0,0-.24,6.82A42.89,42.89,0,0,0,69.35,75a31.56,31.56,0,0,0-12,5.54c-16.44-.53-27.69-6-31.23-8C30.49,69,47.44,56.61,63.31,58ZM32.83,77.8a75.85,75.85,0,0,0,22.42,4.62,16.09,16.09,0,0,0-2.8,4.08A105.15,105.15,0,0,1,32.83,77.8ZM77.6,99a38.51,38.51,0,0,1-13.87,1.58,76.75,76.75,0,0,0,24-6.88A36.17,36.17,0,0,1,77.6,99Zm28.92-11.27a14.8,14.8,0,0,1-12,2.78A50.07,50.07,0,0,0,102,81.25a1,1,0,0,0-.36-1.37l0,0a50.8,50.8,0,0,0-19-5.51,26.21,26.21,0,0,1,1.5-11.67c3.25,2.08,13.82,8.14,26.51,8.14a37,37,0,0,0,5-.34C115.12,73.83,112.72,83,106.52,87.76Z"/><circle class="cls-1" cx="38.69" cy="66.25" r="0.75"/><circle class="cls-1" cx="49.22" cy="63.67" r="1.49"/><circle class="cls-1" cx="49.96" cy="72.21" r="0.75"/><circle class="cls-1" cx="34.54" cy="73.7" r="0.75"/><circle class="cls-1" cx="61.23" cy="59.6" r="0.75"/><circle class="cls-1" cx="68.9" cy="62.97" r="1.78"/><circle class="cls-1" cx="77.4" cy="69.07" r="0.75"/><rect class="cls-2" width="141.2" height="141.2" rx="70.6"/></g></g></svg>