<svg xmlns="http://www.w3.org/2000/svg" viewBox="0 0 141.2 141.2"><defs><style>.cls-1{fill-rule:evenodd;}.cls-2{fill:none;}</style></defs><g id="Calque_2" data-name="Calque 2"><g id="Layer_1" data-name="Layer 1"><path class="cls-1" d="M90.66,67.36A6.32,6.32,0,0,1,89,55a1.4,1.4,0,0,1,.75,2.69A3.56,3.56,0,0,0,87.25,62a3.54,3.54,0,1,0,5-4.12l-.35-.14a1.39,1.39,0,1,1,.8-2.67,6.73,6.73,0,0,1,.71.27l0,0a6.32,6.32,0,0,1-2.78,12Z"/><path class="cls-1" d="M91,58a6.24,6.24,0,0,1-2.08-.36c-.26-.08-.5-.19-.67-.25l0,0a6.31,6.31,0,0,1-2.89-8.46,6.36,6.36,0,0,1,7.36-3.32,6.53,6.53,0,0,1,1,.38l.07,0a6.34,6.34,0,0,1,3.53,5.58A1.38,1.38,0,0,1,95.9,53h0a1.41,1.41,0,0,1-1.4-1.38,3.51,3.51,0,0,0-1.94-3.09,3.66,3.66,0,0,0-.63-.23,3.56,3.56,0,0,0-4.13,1.84,3.52,3.52,0,0,0,1.59,4.72,3.6,3.6,0,0,0,.39.16h0a3.58,3.58,0,0,0,3.31-.52,1.39,1.39,0,1,1,1.67,2.23A6.36,6.36,0,0,1,91,58Z"/><path class="cls-1" d="M96.9,61.44a1.36,1.36,0,0,1-.58-.13l-.22-.1h0a6.31,6.31,0,0,1-3.2-3.64,6.24,6.24,0,0,1,.31-4.83A6.37,6.37,0,0,1,101,49.54c.24.08.49.19.65.26l.05,0a6.3,6.3,0,0,1,1.79,10,1.39,1.39,0,0,1-2-1.92,3.48,3.48,0,0,0,.63-.9,3.55,3.55,0,0,0-1.61-4.71,2.88,2.88,0,0,0-.4-.15,3.53,3.53,0,0,0-4.53,4.47,3.52,3.52,0,0,0,1.77,2l.2.09a1.4,1.4,0,0,1-.58,2.67Z"/><path class="cls-1" d="M107.05,56.29a6.33,6.33,0,0,1-6.33-6.22,1.4,1.4,0,0,1,1.37-1.42h0a1.4,1.4,0,0,1,1.4,1.38,3.54,3.54,0,0,0,3.54,3.47h0a3.52,3.52,0,0,0,3.47-3.59,3.49,3.49,0,0,0-1.07-2.48,3.56,3.56,0,0,0-2.47-1h0a3.57,3.57,0,0,0-2.08.71,1.39,1.39,0,1,1-1.66-2.24,6.34,6.34,0,0,1,8.2.52,6.24,6.24,0,0,1,1.92,4.44,6.32,6.32,0,0,1-6.22,6.42Z"/><path class="cls-1" d="M97.54,52.16a1.41,1.41,0,0,1-.45-.07,7.08,7.08,0,0,1-.67-.27l0,0a6.36,6.36,0,0,1-2.91-8.45,6.16,6.16,0,0,1,2-2.38,6.29,6.29,0,0,1,6.47-.51,6,6,0,0,1,1.52,1,1.39,1.39,0,1,1-1.91,2,3.85,3.85,0,0,0-.85-.58,3.53,3.53,0,0,0-3.62.3,3.35,3.35,0,0,0-1.1,1.3,3.57,3.57,0,0,0,1.6,4.74,2.88,2.88,0,0,0,.4.15,1.4,1.4,0,0,1-.44,2.72Z"/><path class="cls-1" d="M100.48,52.26a1.4,1.4,0,0,1-.38-2.74,3.57,3.57,0,0,0,2.23-1.86,3.52,3.52,0,0,0-.26-3.54,1.4,1.4,0,1,1,2.3-1.58,6.3,6.3,0,0,1-3.5,9.66A1.32,1.32,0,0,1,100.48,52.26Z"/><path class="cls-1" d="M90,48.18a1.47,1.47,0,0,1-.36,0,6.59,6.59,0,0,1-1.12-.41,6.33,6.33,0,0,1,5.58-11.36,6.92,6.92,0,0,1,1,.58h0a6.25,6.25,0,0,1,2.57,5.14,1.39,1.39,0,1,1-2.78,0,3.51,3.51,0,0,0-1.41-2.84,5,5,0,0,0-.59-.35,3.54,3.54,0,1,0-3.11,6.35,3.35,3.35,0,0,0,.6.22,1.39,1.39,0,0,1,1,1.7A1.41,1.41,0,0,1,90,48.18Z"/><path class="cls-1" d="M92.28,48.3A1.4,1.4,0,0,1,92,45.53a3.53,3.53,0,0,0,1.41-.61A1.39,1.39,0,1,1,95,47.2a6.5,6.5,0,0,1-2.48,1.07A1.15,1.15,0,0,1,92.28,48.3Z"/><path class="cls-1" d="M94.3,39.49a1.39,1.39,0,0,1-1.25-.77,6.37,6.37,0,0,1,.75-6.87,6.33,6.33,0,0,1,8.91-.89A1.39,1.39,0,1,1,101,33.12a3.54,3.54,0,0,0-5,.5,3.57,3.57,0,0,0-.42,3.86,1.39,1.39,0,0,1-.62,1.87A1.6,1.6,0,0,1,94.3,39.49Z"/><path class="cls-1" d="M98.68,42.16a6.18,6.18,0,0,1-2.76-.65,6.53,6.53,0,0,1-1-.57,1.39,1.39,0,0,1,1.59-2.29,4,4,0,0,0,.61.36,3.54,3.54,0,0,0,4.72-1.63,3.6,3.6,0,0,0,.36-1.62,3.52,3.52,0,0,0-.1-.76,1.39,1.39,0,0,1,2.72-.6,6,6,0,0,1,.17,1.36,6.34,6.34,0,0,1-6.35,6.4Z"/><path class="cls-1" d="M103.63,37.18a1.4,1.4,0,0,1-.84-2.51,7.3,7.3,0,0,1,1-.62,1.4,1.4,0,1,1,1.25,2.5,3.19,3.19,0,0,0-.56.35A1.39,1.39,0,0,1,103.63,37.18Z"/><path class="cls-1" d="M106.5,46a6.27,6.27,0,0,1-2.69-.6l0,0a6.29,6.29,0,0,1-1.52-1,7.33,7.33,0,0,1-.91-1.07,6.29,6.29,0,0,1-1.09-3.45,1.39,1.39,0,0,1,1.36-1.43,1.4,1.4,0,0,1,1.43,1.37,3.58,3.58,0,0,0,.6,1.94,3.73,3.73,0,0,0,.52.6,3.68,3.68,0,0,0,.84.58,3.59,3.59,0,0,0,4.72-1.68,3.52,3.52,0,0,0-1.58-4.66,1.39,1.39,0,1,1,1.28-2.47,6.29,6.29,0,0,1,2.81,8.34A6.37,6.37,0,0,1,106.5,46Z"/><path class="cls-1" d="M106.62,37.22a6.32,6.32,0,1,1,6.32-6.32A6.33,6.33,0,0,1,106.62,37.22Zm0-9.86a3.54,3.54,0,1,0,3.53,3.53A3.54,3.54,0,0,0,106.62,27.36Z"/><path class="cls-1" d="M100.45,69.78a6.32,6.32,0,1,1,6.32-6.32A6.33,6.33,0,0,1,100.45,69.78Zm0-9.86A3.54,3.54,0,1,0,104,63.46,3.55,3.55,0,0,0,100.45,59.92Z"/><path class="cls-1" d="M89.64,116.62a1.37,1.37,0,0,1-1.29-.87c-3.56-8.79-3.71-20.41-.47-34.55a116,116,0,0,1,5.91-18.55,1.39,1.39,0,1,1,2.55,1.12,115.63,115.63,0,0,0-5.76,18.11c-2.13,9.31-3.8,22.57.35,32.83a1.4,1.4,0,0,1-.77,1.82A1.58,1.58,0,0,1,89.64,116.62Z"/><path class="cls-1" d="M79.29,93a16.33,16.33,0,0,1-11.26-4c-9.52-8.49-7-27.39-6.86-28.19a1.41,1.41,0,0,1,.55-.93,1.36,1.36,0,0,1,1-.26c11.19,1.64,19,5.74,23.36,12.19a21.94,21.94,0,0,1,3.1,16.42,1.39,1.39,0,0,1-1.7,1h0c.2.34.31.56.35.62a1.43,1.43,0,0,1,.07,1.23A1.46,1.46,0,0,1,87,92,30.56,30.56,0,0,1,79.29,93ZM63.78,62.68C63.4,67.1,62.87,80.73,69.89,87c3.44,3.06,8.33,4,14.56,2.69a76.68,76.68,0,0,0-4.66-6.9c-4.22-5.55-8.14-8.9-11.32-9.68a1.39,1.39,0,1,1,.66-2.71c7.16,1.76,14.43,12.48,17.36,17.26,0,0,0,0,0,0A19.42,19.42,0,0,0,83.76,73.4C80.09,67.92,73.37,64.32,63.78,62.68Z"/><path class="cls-1" d="M45.79,60a6.34,6.34,0,0,1-1.5-.18,5.1,5.1,0,0,1-.77-.24,1.4,1.4,0,0,1,1-2.6,1.74,1.74,0,0,0,.32.11l.07,0a3.54,3.54,0,0,0,3.76-5.44,3.46,3.46,0,0,0-2.26-1.47A3.53,3.53,0,0,0,42.32,53a3.56,3.56,0,0,0,.56,2.65,1.4,1.4,0,0,1-2.31,1.57,6.35,6.35,0,0,1-1-4.73,6.24,6.24,0,0,1,2.65-4.06,6.32,6.32,0,0,1,4.74-1,6.2,6.2,0,0,1,4,2.64A6.33,6.33,0,0,1,45.79,60Z"/><path class="cls-1" d="M40,67.37a6.49,6.49,0,0,1-1.51-.18,6.64,6.64,0,0,1-1.09-.37h0a6.34,6.34,0,0,1-.68-11.2,6.24,6.24,0,0,1,4.75-.73,4.17,4.17,0,0,1,.78.25,6.1,6.1,0,0,1,3,2.34,5.91,5.91,0,0,1,.94,2.13,1.39,1.39,0,1,1-2.72.62A3.28,3.28,0,0,0,42.91,59a3.39,3.39,0,0,0-1.66-1.31l-.09,0a1,1,0,0,0-.27-.07l-.06,0a3.48,3.48,0,0,0-2.67.4,3.56,3.56,0,0,0-.91,5.28,3.57,3.57,0,0,0,1.27,1,4.13,4.13,0,0,0,.57.21h.06a3.47,3.47,0,0,0,3.52-1.12,1.39,1.39,0,1,1,2.12,1.81A6.28,6.28,0,0,1,40,67.37Z"/><path class="cls-1" d="M48.55,69.46a6.41,6.41,0,0,1-1.5-.18,5,5,0,0,1-.78-.24,6.15,6.15,0,0,1-3-2.34,6.37,6.37,0,0,1-.92-5.08A6.32,6.32,0,0,1,50,57l.23.06a1.39,1.39,0,1,1-.68,2.7l-.23-.06a3.53,3.53,0,0,0-4.26,2.59,3.52,3.52,0,0,0,.51,2.86,3.38,3.38,0,0,0,1.66,1.3l.08,0a1.58,1.58,0,0,0,.28.08l.06,0A3.53,3.53,0,0,0,52,64a4,4,0,0,0,.11-1.1,1.38,1.38,0,0,1,1.28-1.49,1.4,1.4,0,0,1,1.5,1.28,6.33,6.33,0,0,1-6.29,6.79Z"/><path class="cls-1" d="M51.27,79a6.3,6.3,0,0,1-6.16-4.85,1.4,1.4,0,0,1,2.71-.67A3.55,3.55,0,0,0,54,74.94a3.54,3.54,0,0,0-5.38-4.61,1.4,1.4,0,1,1-2.11-1.83A6.34,6.34,0,1,1,51.27,79Z"/><path class="cls-1" d="M42.73,76.85a6.34,6.34,0,0,1-6.12-4.74,6.1,6.1,0,0,1,0-3.09,6.31,6.31,0,0,1,7.62-4.63,3.57,3.57,0,0,1,.82.26A1.39,1.39,0,1,1,43.9,67.2a1,1,0,0,0-.28-.09h-.06a3.45,3.45,0,0,0-2.66.4,3.5,3.5,0,0,0-1.6,2.18,3.34,3.34,0,0,0,0,1.72,3.54,3.54,0,0,0,3.59,2.66A1.39,1.39,0,1,1,43,76.84Z"/><path class="cls-1" d="M44.08,76.67a1.39,1.39,0,0,1-.4-2.73,3.51,3.51,0,0,0,1.72-1.1h0a3.52,3.52,0,0,0,.23-4.31A1.4,1.4,0,0,1,48,66.94a6.31,6.31,0,0,1-.43,7.71,6.23,6.23,0,0,1-3.05,2A1.81,1.81,0,0,1,44.08,76.67Z"/><path class="cls-1" d="M34.17,75h-.39a5.54,5.54,0,0,1-1.15-.18,6.33,6.33,0,0,1,3-12.29h0a9.94,9.94,0,0,1,1,.36,1.39,1.39,0,0,1-1.1,2.56,4.94,4.94,0,0,0-.65-.22,3.54,3.54,0,0,0-1.69,6.88h0a3.16,3.16,0,0,0,.62.09,3.5,3.5,0,0,0,2.93-1.28A1.39,1.39,0,0,1,39,72.64,6.3,6.3,0,0,1,34.17,75Z"/><path class="cls-1" d="M38.91,68.79a1.4,1.4,0,0,1-1.35-1.05,3.68,3.68,0,0,0-.67-1.34A1.39,1.39,0,0,1,39,64.63a6.23,6.23,0,0,1,1.22,2.42,1.39,1.39,0,0,1-1,1.7A1.34,1.34,0,0,1,38.91,68.79Z"/><path class="cls-1" d="M35.75,84.43h0a6.33,6.33,0,0,1-2.38-12.15,1.39,1.39,0,1,1,1.08,2.57,3.51,3.51,0,0,0-2.15,3.21,3.45,3.45,0,0,0,1,2.51,3.53,3.53,0,0,0,2.5,1.07,1.4,1.4,0,0,1,0,2.79Z"/><path class="cls-1" d="M38.74,83.46a1.43,1.43,0,0,1-1.12-.56,1.4,1.4,0,0,1,.29-2,3.46,3.46,0,0,0,1.32-2,3.56,3.56,0,0,0-2.59-4.3h0a2.71,2.71,0,0,0-.62-.09,1.4,1.4,0,0,1,.17-2.79,5.76,5.76,0,0,1,1.16.18,6.33,6.33,0,0,1,2.24,11.22A1.36,1.36,0,0,1,38.74,83.46Z"/><path class="cls-1" d="M39.83,83.58a1.39,1.39,0,0,1-1.26-.81,6.29,6.29,0,0,1-.38-1.1,1.4,1.4,0,1,1,2.7-.72h0a4.14,4.14,0,0,0,.21.65,1.4,1.4,0,0,1-.68,1.85A1.53,1.53,0,0,1,39.83,83.58Z"/><path class="cls-1" d="M44.26,86.51a6.46,6.46,0,0,1-1.37-.15,1.4,1.4,0,0,1,.59-2.73,3.54,3.54,0,0,0,1.67-6.87,3.28,3.28,0,0,0-1-.09,3.76,3.76,0,0,0-.77.12,3.53,3.53,0,0,0-1.7,1.09,1.39,1.39,0,1,1-2.13-1.8,6.28,6.28,0,0,1,3.06-2,6.69,6.69,0,0,1,1.4-.22h0a6.4,6.4,0,0,1,1.82.17,6.33,6.33,0,0,1-1.58,12.46Z"/><path class="cls-1" d="M38.7,93.3A6.32,6.32,0,1,1,45,87,6.33,6.33,0,0,1,38.7,93.3Zm0-9.86A3.54,3.54,0,1,0,42.24,87,3.54,3.54,0,0,0,38.7,83.44Z"/><path class="cls-1" d="M54.87,64.38a6.32,6.32,0,1,1,6.32-6.32A6.32,6.32,0,0,1,54.87,64.38Zm0-9.85a3.54,3.54,0,1,0,3.53,3.53A3.54,3.54,0,0,0,54.87,54.53Z"/><path class="cls-1" d="M65.85,115.36a1.59,1.59,0,0,1-.43-.06,1.41,1.41,0,0,1-.9-1.76,57.57,57.57,0,0,0,1.69-8.7c.31-2.25.58-5,.8-8.11s.34-6.06.39-8.88a1.39,1.39,0,1,1,2.78.05c0,2.86-.17,5.74-.39,9s-.5,6-.82,8.29a57.44,57.44,0,0,1-1.81,9.18A1.36,1.36,0,0,1,65.85,115.36Z"/><path class="cls-1" d="M67.92,63.49a1.38,1.38,0,0,1-1.38-1.29c-.07-.92-.16-1.83-.25-2.79l0-.29C64.9,43.76,62,42.1,61.16,42c-2.1-.35-5.86,4.59-9.15,12-.34.77-.55,1.27-.55,1.27a1.39,1.39,0,0,1-2.57-1.08s.21-.51.57-1.32a57,57,0,0,1,4.47-8.25c2.75-4,5.26-5.79,7.69-5.38,3.93.65,6.29,6.9,7.42,19.66l0,.28c.09.93.17,1.89.25,2.84A1.4,1.4,0,0,1,68,63.5Z"/><path class="cls-1" d="M46.38,103.78a1.45,1.45,0,0,1-.9-.33A1.4,1.4,0,0,1,45,102c2.65-9.68,9.55-16.57,20-19.94a1.4,1.4,0,1,1,.86,2.66c-8.55,2.76-14.33,7.86-17.2,15.18a78.63,78.63,0,0,1,10.59-3.39,36.08,36.08,0,0,1,9.2-1.1,1.39,1.39,0,0,1-.1,2.78,33.52,33.52,0,0,0-8.46,1A80,80,0,0,0,47,103.66,1.43,1.43,0,0,1,46.38,103.78Z"/><path class="cls-1" d="M56.24,116.62a1.27,1.27,0,0,1-.39-.06,1.43,1.43,0,0,1-1-1.13,27.25,27.25,0,0,1,3.5-18.24,1.39,1.39,0,0,1,2.4,1.42A24.24,24.24,0,0,0,57.35,112a75.69,75.69,0,0,1,9.42-8.15,1.39,1.39,0,0,1,1.62,2.26,78.35,78.35,0,0,0-11.11,10A1.36,1.36,0,0,1,56.24,116.62Z"/><rect class="cls-2" width="141.2" height="141.2" rx="70.6"/></g></g></svg>