<svg xmlns="http://www.w3.org/2000/svg" viewBox="0 0 141.2 141.2"><defs><style>.cls-1{fill:none;}.cls-2{}</style></defs><g id="Calque_2" data-name="Calque 2"><g id="Layer_1" data-name="Layer 1"><rect class="cls-1" width="141.2" height="141.2" rx="70.6"/><path class="cls-2" d="M113.25,94.22A27.74,27.74,0,0,0,96.13,97.5a17.59,17.59,0,0,1-6,1.82c1.09-2.91,3.83-8.54,9.34-11a1.33,1.33,0,0,0-1.07-2.43c-7.3,3.22-10.29,10.88-11.15,13.61A40.73,40.73,0,0,1,75.76,98c-.13-.07-.27-.15-.41-.21a26.94,26.94,0,0,0-5.57-1.89C74.63,92.71,85.16,86.33,94.61,84A1.32,1.32,0,0,0,94,81.42c-12.13,3-25.44,12-28,13.83a36.66,36.66,0,0,0-6.08-.13c2.49-3.45,5.25-7.34,8.13-11.52,1.55-1.08,10.31-7,18.5-7.64.5,0,1-.11,1.5-.19,1.83.9,9.4,4.43,16,4.43a15.22,15.22,0,0,0,3.12-.3,1.32,1.32,0,1,0-.55-2.59c-4.55,1-10.74-1.07-14.48-2.61a35.5,35.5,0,0,0,5.4-2.46,22.09,22.09,0,0,0,4.85.53,19.53,19.53,0,0,0,7.79-1.55,1.32,1.32,0,0,0,.69-1.74,1.34,1.34,0,0,0-1.75-.69A17.34,17.34,0,0,1,101,70.07a47.17,47.17,0,0,0,5-3.92,1.32,1.32,0,1,0-1.81-1.93c-.09.08-9,8.36-17.92,9.1l-.24,0L98.32,59.85a1.32,1.32,0,0,0-2-1.78l-14.58,16a46.46,46.46,0,0,0-10.15,4.16C76.51,71,81.51,63.08,85.9,55.33c2.62-1.1,15.29-6.64,22-13.77a1.32,1.32,0,1,0-1.93-1.81,40.85,40.85,0,0,1-7.59,6.07L102,38.91a1.33,1.33,0,0,0-2.35-1.23L94,48.42c-2.21,1.23-4.3,2.27-5.95,3C93.7,41,98,31.11,99.05,23.61a1.33,1.33,0,0,0-2.63-.37,59.83,59.83,0,0,1-4.71,14.81l.16-13.13a1.33,1.33,0,0,0-1.31-1.34h0a1.32,1.32,0,0,0-1.32,1.3l-.23,19c-3.26,6.57-7.3,13.58-11.57,20.46-.23-1.37-.49-3.08-.73-4.94,1.71-2,8.28-10.28,8.28-17a1.32,1.32,0,1,0-2.64,0c0,4.42-3.67,10-6,13.18a41.51,41.51,0,0,1,.1-9.9c1.41-8.19-1.78-18.87-1.91-19.32a1.33,1.33,0,1,0-2.54.76,61,61,0,0,1,1.9,9.6L70.22,33a1.32,1.32,0,1,0-1.9,1.84l5.77,5.93a24.82,24.82,0,0,1-.31,4.45,22.25,22.25,0,0,0-.29,2.45l-9.57-9.94A1.33,1.33,0,1,0,62,39.61l11.4,11.83a104.06,104.06,0,0,0,1.92,16.21c-5.06,8-10.33,15.66-14.94,22.16-.25-1.15-.57-2.56-.94-4.11,1.79-2,7.92-9.24,8.84-14.25a1.32,1.32,0,0,0-2.6-.48c-.61,3.33-4.43,8.47-7,11.58C58.33,81.28,58,80,57.6,78.69l2.67-6,9.45-8.26a1.33,1.33,0,0,0-1.75-2l-5.14,4.5L68.2,54.83a1.32,1.32,0,1,0-2.42-1.07L56.39,74.88a41.4,41.4,0,0,0-1.58-4,19.3,19.3,0,0,1-1.24-4.32l3.9-15.89A1.32,1.32,0,1,0,54.9,50l-2.16,8.78c-.34-6.65,0-13.1,0-13.21a1.32,1.32,0,1,0-2.64-.15A130.26,130.26,0,0,0,50.31,62l-5.9-7.36a1.33,1.33,0,0,0-2.07,1.66L51,67a22.07,22.07,0,0,0,1.42,4.92c.26.56.51,1.16.76,1.81l-5.37-2.36-6.7-12.45a1.33,1.33,0,1,0-2.34,1.26l5.1,9.47L33.26,65a1.33,1.33,0,0,0-1.06,2.43l22.16,9.72c1.46,4.56,2.7,9.84,3.42,13.09L49.52,85l-3.63-9.76a1.32,1.32,0,0,0-2.48.92l2.41,6.49L28.91,71.94a1.33,1.33,0,0,0-1.42,2.24l9.58,6.08-7.76-.77a1.33,1.33,0,0,0-.26,2.64l13,1.28L50.79,89,40.18,90.87a1.31,1.31,0,0,0-1.07,1.53,1.33,1.33,0,0,0,1.3,1.09,1,1,0,0,0,.24,0L54.1,91.06l3.72,2.36c-6.32,8.76-10.89,14.62-11,14.81a1.32,1.32,0,0,0,.23,1.86,1.31,1.31,0,0,0,.81.28,1.34,1.34,0,0,0,1.05-.51c.5-.64,4-5.13,8.93-11.88.52-.07,1.4-.17,2.53-.22,1.28,3.84,6.53,17.41,17.56,21.27a1.29,1.29,0,0,0,.43.07,1.32,1.32,0,0,0,.44-2.57c-4.58-1.6-8.1-5.24-10.67-9l9.26,2.8a1.21,1.21,0,0,0,.38.06,1.32,1.32,0,0,0,.38-2.59L66,104.12a48.39,48.39,0,0,1-2.89-6.39,28.21,28.21,0,0,1,11.08,2.43,37,37,0,0,1,6.93,4.65c4.43,3.48,9,7.07,16.74,7.07a29.64,29.64,0,0,0,3-.17,1.33,1.33,0,0,0-.29-2.64c-8.58,1-13.08-2.59-17.85-6.34l-1.06-.83a37.36,37.36,0,0,0,4.77.31,23.19,23.19,0,0,0,10.87-2.37,25.58,25.58,0,0,1,15.38-3,1.32,1.32,0,0,0,.5-2.6Z"/></g></g></svg>