<svg xmlns="http://www.w3.org/2000/svg" viewBox="0 0 141.2 141.2"><defs><style>.cls-1{}.cls-2{fill:none;}</style></defs><g id="Calque_2" data-name="Calque 2"><g id="Layer_1" data-name="Layer 1"><path class="cls-1" d="M100.18,47c-1.47-.67-3.94.83-5.64,2.1a3.82,3.82,0,0,0-3.34-2.3c.63-2,1.23-4.9.09-6.07A2,2,0,0,0,89,40.32a1,1,0,1,0,.66,1.88l.21-.05c.24.62-.18,2.86-.93,5a4.94,4.94,0,0,0-2,1.64A2.7,2.7,0,0,0,86.38,51a6.37,6.37,0,0,0-2.51.55c-10.27-6-16.08-1.49-14,2.7,2.25,4.42,6.44,3.89,9.25,4.1-2,5.54-.92,5-1.45,9.77a1,1,0,0,0,.43.87,1,1,0,0,0,1,.1c3.37-1.64,4.47-1.21,8.71-4.64.36.81.69,1.59.89,2.19,1.84,5.5,8.27,6.72,9.79,3.09,1.12-2.66-.29-7.37-5.86-12a6.15,6.15,0,0,0-.35-2.61c1.65-.23,2.64-2.14,2.72-3.82,1.73-1.4,3.64-2.54,4.31-2.5a1.09,1.09,0,0,1,0,.22,1,1,0,0,0,1,1h0a1,1,0,0,0,1-1A2,2,0,0,0,100.18,47ZM85.12,64a5.93,5.93,0,0,0-4.66-3.27,30,30,0,0,1,1.27-3.55,10.48,10.48,0,0,1,6.33,4.4A28.32,28.32,0,0,1,85.12,64Zm4.35-3.89a12.51,12.51,0,0,0-6.84-4.76,4.21,4.21,0,1,1,6.84,4.76ZM71.65,53.34C70.37,50.76,75.3,49.15,82,52.8a11.32,11.32,0,0,0-2.16,3.6C76.4,56.1,73.38,56.74,71.65,53.34Zm8.11,13.28a37,37,0,0,1,.25-4A4,4,0,0,1,83.42,65C82.73,65.43,82,65.66,79.76,66.62ZM96.61,69c-.84,2-4.92.43-6-2.94-.27-.82-.73-1.87-1.21-2.93A11.64,11.64,0,0,0,92,59.84C96.48,63.84,97.25,67.42,96.61,69ZM91.72,53.09a9.83,9.83,0,0,1-3.3-2.32c-.11-.17-.22-.35.13-.85a2.71,2.71,0,0,1,3.53-.85C93.78,50.27,92.73,53.31,91.72,53.09Z"/><path class="cls-1" d="M87.91,85.77l-7.25-4.19V73.22a1,1,0,0,0-.5-.87l-7.25-4.18V59.78a1,1,0,0,0-.5-.86l-7.25-4.19v-7.8l7.25-4.18a1,1,0,0,0,.36-1.37A1,1,0,0,0,71.41,41L64.16,45.2,56.91,41a1,1,0,0,0-1,0L48.66,45.2,41.41,41a1,1,0,1,0-1,1.73l7.25,4.18v7.8l-7.25,4.19a1,1,0,0,0-.5.86v9a1,1,0,0,0,.5.87l7.25,4.18v7.8l-7.25,4.19A1,1,0,0,0,40,87.14a1,1,0,0,0,1.37.36l7.25-4.18,6.75,3.9V95l-7.25,4.18a1,1,0,1,0,1,1.73l7.25-4.18,7.25,4.18a1,1,0,0,0,.5.14,1,1,0,0,0,.5-.14l7.25-4.18,7.25,4.18a1,1,0,0,0,1,0l7.75-4.47a1,1,0,0,0,.5-.87v-9A1,1,0,0,0,87.91,85.77Zm-17-17.61-6.75,3.89-6.75-3.89v-7.8l6.75-3.89,6.75,3.89ZM49.66,73.79l6.75-3.89,6.75,3.89v7.79l-6.75,3.9-6.75-3.9Zm29,7.79-6.75,3.9-6.75-3.9V73.79l6.75-3.89,6.75,3.89ZM56.41,43l6.75,3.89v7.8l-6.75,3.9-6.75-3.9v-7.8ZM41.91,60.36l6.75-3.89,6.75,3.89v7.8l-6.75,3.89-6.75-3.89ZM64.16,98.9,57.41,95V87.22l6.75-3.9,6.75,3.9V95ZM86.41,95,79.66,98.9,72.91,95V87.22l6.75-3.9,6.75,3.89Z"/><rect class="cls-2" width="141.2" height="141.2" rx="70.6"/></g></g></svg>