<svg xmlns="http://www.w3.org/2000/svg" viewBox="0 0 141.2 141.2"><defs><style>.cls-1{fill:none;}.cls-2{}</style></defs><g id="Calque_2" data-name="Calque 2"><g id="Layer_1" data-name="Layer 1"><rect class="cls-1" width="141.2" height="141.2" rx="70.6"/><path class="cls-2" d="M109.67,83.6h-1V77.54a9,9,0,0,0,8-8.94,1,1,0,0,0-1-1,9,9,0,0,0-8,4.89,9,9,0,0,0-8-4.89,1,1,0,0,0-1,1,9,9,0,0,0,8,8.94V83.6a1,1,0,0,0-.25,0l-7.88,2H93.67v-3a1,1,0,0,0-1-1h-3v-17a7,7,0,0,0-6-6.92V25.6a1,1,0,0,0-1-1h-24a1,1,0,0,0-1,1V57.68a7,7,0,0,0-6,6.92v17h-3a1,1,0,0,0-1,1v3H42.08l-1.71-1.71a1,1,0,0,0-.58-.28L34.67,83V76.54a9,9,0,0,0,8-8.94,1,1,0,0,0-1-1,9,9,0,0,0-8,4.9,9,9,0,0,0-8-4.9,1,1,0,0,0-1,1,9,9,0,0,0,8,8.94v6.18l-.88-.11a.91.91,0,0,0-.4,0l-7,2,.55,1.92,6.81-1.94,7.45.93L41,87.31a1,1,0,0,0,.71.29h25v13h-3v2h4a1,1,0,0,0,1-1v-42h4v42a1,1,0,0,0,1,1h4v-2h-3v-13h24a1,1,0,0,0,.24,0l7.88-2h2.81l6.93,1,.28-2-7-1Zm4.91-13.92a7,7,0,0,1-5.83,5.84A7,7,0,0,1,114.58,69.68Zm-13.83,0a7,7,0,0,1,5.83,5.84A7,7,0,0,1,100.75,69.68Zm-60.17-1a7,7,0,0,1-5.83,5.84A7,7,0,0,1,40.58,68.68Zm-13.83,0a7,7,0,0,1,5.83,5.84A7,7,0,0,1,26.75,68.68ZM59.67,26.6h22v31H77.59a7,7,0,0,0-13.84,0H59.67Zm-4,59h-6v-2h6Zm11,0h-9v-3a1,1,0,0,0-1-1h-3v-17a5,5,0,0,1,5-5h8Zm-.9-28a5,5,0,0,1,9.8,0Zm17.9,25v3h-9v-26h8a5,5,0,0,1,5,5v17h-3A1,1,0,0,0,83.67,82.6Zm8,3h-6v-2h6Z"/><path class="cls-2" d="M52.67,92.6a7,7,0,1,0,7,7A7,7,0,0,0,52.67,92.6Zm0,12a5,5,0,1,1,5-5A5,5,0,0,1,52.67,104.6Z"/><rect class="cls-2" x="49.67" y="98.6" width="6" height="2"/><path class="cls-2" d="M31.67,116.6a7,7,0,1,0-7-7A7,7,0,0,0,31.67,116.6Zm0-12a5,5,0,1,1-5,5A5,5,0,0,1,31.67,104.6Z"/><rect class="cls-2" x="28.67" y="108.6" width="6" height="2"/><path class="cls-2" d="M95.67,116.6a7,7,0,1,0-7-7A7,7,0,0,0,95.67,116.6Zm0-12a5,5,0,1,1-5,5A5,5,0,0,1,95.67,104.6Z"/><polygon class="cls-2" points="94.67 112.6 96.67 112.6 96.67 110.6 98.67 110.6 98.67 108.6 96.67 108.6 96.67 106.6 94.67 106.6 94.67 108.6 92.67 108.6 92.67 110.6 94.67 110.6 94.67 112.6"/><path class="cls-2" d="M109.67,88.6a7,7,0,1,0,7,7A7,7,0,0,0,109.67,88.6Zm0,12a5,5,0,1,1,5-5A5,5,0,0,1,109.67,100.6Z"/><polygon class="cls-2" points="110.67 92.6 108.67 92.6 108.67 94.6 106.67 94.6 106.67 96.6 108.67 96.6 108.67 98.6 110.67 98.6 110.67 96.6 112.67 96.6 112.67 94.6 110.67 94.6 110.67 92.6"/><path class="cls-2" d="M55.74,111.8l-.23,1a12,12,0,0,0,2.77.33,11.65,11.65,0,0,0,10.28-6.19l.62,2.67,1-.22-1-4.36a.55.55,0,0,0-.3-.35.48.48,0,0,0-.45,0l-3.62,2.22.53.85,2.48-1.52A10.65,10.65,0,0,1,55.74,111.8Zm12.58-5.89,0,.16L68.2,106Z"/><path class="cls-2" d="M73.15,104.46l-1,.28a11.63,11.63,0,0,0,11.24,8.49h.26l-2,1.86.68.73,3.3-3a.52.52,0,0,0,.15-.43.51.51,0,0,0-.25-.38l-3.71-2-.48.87,2.54,1.41A10.64,10.64,0,0,1,73.15,104.46Zm11.31,8.06-.12.11v-.18Z"/><path class="cls-2" d="M62.67,39.6a8,8,0,0,0,5.71,7.66L69,45.35a6,6,0,0,1,0-11.5A1,1,0,0,0,69.16,32l-4-2.3-1,1.74,2.31,1.32A8,8,0,0,0,62.67,39.6Z"/><path class="cls-2" d="M72.17,47.17l4,2.3,1-1.74-2.3-1.32A8,8,0,0,0,73,31.94l-.57,1.91a6,6,0,0,1,0,11.5,1,1,0,0,0-.21,1.82Z"/></g></g></svg>