<svg xmlns="http://www.w3.org/2000/svg" viewBox="0 0 141.2 141.2"><defs><style>.cls-1{}.cls-2{fill:none;}</style></defs><g id="Calque_2" data-name="Calque 2"><g id="Layer_1" data-name="Layer 1"><path class="cls-1" d="M109.66,67.25l-.5,1.35H103.6v-7a12.75,12.75,0,0,0,12-12.72V48.6a1,1,0,0,0-1-1,12.76,12.76,0,0,0-12,8.47,12.77,12.77,0,0,0-12-8.47,1,1,0,0,0-1,1v.24a12.76,12.76,0,0,0,12,12.72v7H96l-.5-1.35a1,1,0,0,0-.94-.65h-16a1,1,0,0,0-.94.65l-.5,1.35H71.6v-7a12.75,12.75,0,0,0,12-12.72V48.6a1,1,0,0,0-1-1,12.76,12.76,0,0,0-12,8.47,12.77,12.77,0,0,0-12-8.47,1,1,0,0,0-1,1v.24a12.76,12.76,0,0,0,12,12.72v7H64l-.5-1.35a1,1,0,0,0-.94-.65h-16a1,1,0,0,0-.94.65l-.5,1.35H39.6v-7a12.75,12.75,0,0,0,12-12.72V48.6a1,1,0,0,0-1-1,12.76,12.76,0,0,0-12,8.47,12.77,12.77,0,0,0-12-8.47,1,1,0,0,0-1,1v.24a12.76,12.76,0,0,0,12,12.72v7H32l-.5-1.35a1,1,0,0,0-.94-.65h-6v2h5.31L32.66,76a1,1,0,0,0,.94.65h1.51c2.21,2.77,3.07,5,2.54,6.69a5.5,5.5,0,0,1-1.39,2A4.77,4.77,0,0,0,34.6,88.6c0,1.69,1.16,3.32,3.45,4.83l1.1-1.67c-1.67-1.1-2.55-2.19-2.55-3.16,0-.66.41-1.14,1.13-1.92a7.31,7.31,0,0,0,1.82-2.78c.67-2.07,0-4.48-1.94-7.3h2.3c2.21,2.77,3.07,5,2.54,6.69a5.58,5.58,0,0,1-1.39,2A4.75,4.75,0,0,0,39.4,88.6c0,1.69,1.16,3.32,3.45,4.83L44,91.76c-1.67-1.1-2.55-2.19-2.55-3.16,0-.66.41-1.14,1.13-1.92a7.31,7.31,0,0,0,1.82-2.78c.66-2.07,0-4.48-2-7.3h1.2a1,1,0,0,0,.94-.65l2-5.35h.06v-.15l.69-1.85H61.91L64.66,76a1,1,0,0,0,.94.65h1.11c2.2,2.77,3.07,5,2.53,6.69a5.44,5.44,0,0,1-1.38,2A4.77,4.77,0,0,0,66.2,88.6c0,1.7,1.15,3.32,3.45,4.83l1.1-1.67c-1.67-1.1-2.56-2.19-2.55-3.16,0-.66.41-1.14,1.13-1.92a7.31,7.31,0,0,0,1.82-2.78c.66-2.07,0-4.48-2-7.3h1.71c2.21,2.77,3.07,5,2.54,6.69a5.58,5.58,0,0,1-1.39,2A4.75,4.75,0,0,0,70.4,88.6c0,1.69,1.15,3.32,3.45,4.83L75,91.76c-1.67-1.1-2.55-2.19-2.55-3.16,0-.66.41-1.14,1.13-1.92a7.31,7.31,0,0,0,1.82-2.78c.66-2.07,0-4.48-1.95-7.3h2.2a1,1,0,0,0,.94-.65l2-5.35h.06v-.15l.69-1.85H93.91L96.66,76a1,1,0,0,0,.94.65h1.51c2.21,2.77,3.07,5,2.54,6.69a5.5,5.5,0,0,1-1.39,2A4.81,4.81,0,0,0,98.6,88.6c0,1.69,1.15,3.32,3.45,4.83l1.1-1.67c-1.67-1.1-2.55-2.19-2.55-3.16,0-.66.41-1.14,1.13-1.92a7.31,7.31,0,0,0,1.82-2.78c.66-2.07,0-4.48-2-7.3h2.31c2.2,2.77,3.07,5,2.53,6.69a5.44,5.44,0,0,1-1.38,2,4.75,4.75,0,0,0-1.66,3.28c0,1.69,1.15,3.32,3.45,4.83l1.1-1.67c-1.67-1.1-2.56-2.19-2.55-3.16,0-.66.41-1.14,1.13-1.92a7.31,7.31,0,0,0,1.82-2.78c.66-2.07,0-4.48-1.95-7.3h1.2a1,1,0,0,0,.94-.65l2-5.35h.06v-.15l.69-1.85h5.31v-2h-6A1,1,0,0,0,109.66,67.25Zm3.91-17.6a10.77,10.77,0,0,1-9.69,9.9A10.76,10.76,0,0,1,113.57,49.65Zm-21.94,0a10.76,10.76,0,0,1,9.69,9.9A10.77,10.77,0,0,1,91.63,49.65Zm-10.06,0a10.77,10.77,0,0,1-9.69,9.9A10.75,10.75,0,0,1,81.57,49.65Zm-21.94,0a10.76,10.76,0,0,1,9.69,9.9A10.77,10.77,0,0,1,59.63,49.65Zm-10.06,0a10.77,10.77,0,0,1-9.69,9.9A10.75,10.75,0,0,1,49.57,49.65Zm-21.94,0a10.76,10.76,0,0,1,9.69,9.9A10.77,10.77,0,0,1,27.63,49.65ZM42.91,74.6H34.29l-1.5-4H44.41Zm32,0H66.29l-1.5-4H76.41Zm32,0H98.29l-1.5-4h11.62Z"/><path class="cls-1" d="M66.47,95.11a1,1,0,0,0-1.11-.48l-5.24,1.31a11.09,11.09,0,0,0-5.18,3l-2.2-1.55A12.79,12.79,0,0,0,38.45,97a4,4,0,0,0,.23,6.88l.55.3A12.88,12.88,0,0,0,52,104l2.86-1.72.06.08a11.3,11.3,0,0,0,5.19,3l5.24,1.31a1,1,0,0,0,.24,0,1,1,0,0,0,.71-1.71L62,100.6l4.28-4.29A1,1,0,0,0,66.47,95.11Zm-24.29,8.17a10.7,10.7,0,0,1-2-.82l-.55-.3a2,2,0,0,1-.12-3.45,11.23,11.23,0,0,1,2.95-1.31A13.15,13.15,0,0,1,42.18,103.28Zm8.8-1a10.86,10.86,0,0,1-6.84,1.47,15.44,15.44,0,0,0,.42-2.11h2.11v-2h-2a14.33,14.33,0,0,0-.22-2.53,9.06,9.06,0,0,1,.91-.07,10.86,10.86,0,0,1,6.23,2l2.21,1.56Zm8.93-2.35a1,1,0,0,0,0,1.42l2.44,2.44-1.74-.43a9.18,9.18,0,0,1-4-2.15V100a9,9,0,0,1,4-2.15l1.74-.43Z"/><path class="cls-1" d="M78.73,115.09a1,1,0,0,0,.87.51,1,1,0,0,0,.24,0l5.24-1.31a11.18,11.18,0,0,0,5.18-3l2.2,1.55a12.79,12.79,0,0,0,14.29.31,4,4,0,0,0-.23-6.88L106,106a12.85,12.85,0,0,0-12.78.26L90.33,108s0,0-.06-.08A11.19,11.19,0,0,0,85.08,105l-5.24-1.32a1,1,0,0,0-1.11.48,1,1,0,0,0,.16,1.2l4.28,4.29-4.28,4.29A1,1,0,0,0,78.73,115.09ZM103,106.92a10.7,10.7,0,0,1,2,.82l.55.3a2,2,0,0,1,.12,3.45,11.27,11.27,0,0,1-3,1.32A13.19,13.19,0,0,1,103,106.92Zm-8.8,1a10.88,10.88,0,0,1,6.84-1.47,15.44,15.44,0,0,0-.42,2.11H98.53v2h2a15.6,15.6,0,0,0,.23,2.55,10.83,10.83,0,0,1-7.15-1.93l-2.21-1.56Zm-8.93,2.35a1,1,0,0,0,0-1.42l-2.44-2.44,1.74.43a9.18,9.18,0,0,1,4,2.15v1.14a9.08,9.08,0,0,1-4,2.15l-1.74.43Z"/><path class="cls-1" d="M114.6,95.6a3,3,0,1,0-3,3A3,3,0,0,0,114.6,95.6Zm-4,0a1,1,0,1,1,1,1A1,1,0,0,1,110.6,95.6Z"/><path class="cls-1" d="M91.6,83.6a3,3,0,1,0-3,3A3,3,0,0,0,91.6,83.6Zm-4,0a1,1,0,1,1,1,1A1,1,0,0,1,87.6,83.6Z"/><path class="cls-1" d="M30.6,90.6a3,3,0,1,0-3,3A3,3,0,0,0,30.6,90.6Zm-4,0a1,1,0,1,1,1,1A1,1,0,0,1,26.6,90.6Z"/><path class="cls-1" d="M44.6,113.6a3,3,0,1,0,3-3A3,3,0,0,0,44.6,113.6Zm4,0a1,1,0,1,1-1-1A1,1,0,0,1,48.6,113.6Z"/><path class="cls-1" d="M65.6,34.6a5,5,0,1,0,5-5A5,5,0,0,0,65.6,34.6Zm5-3a3,3,0,1,1-3,3A3,3,0,0,1,70.6,31.6Z"/><rect class="cls-1" x="69.6" y="24.6" width="2" height="3"/><rect class="cls-1" x="69.6" y="41.6" width="2" height="3"/><rect class="cls-1" x="77.6" y="33.6" width="3" height="2"/><rect class="cls-1" x="60.6" y="33.6" width="3" height="2"/><rect class="cls-1" x="75.11" y="27.59" width="3" height="2" transform="translate(2.22 62.55) rotate(-45)"/><rect class="cls-1" x="63.09" y="39.61" width="3" height="2" transform="translate(-9.8 57.57) rotate(-45)"/><rect class="cls-1" x="75.61" y="39.11" width="2" height="3" transform="translate(-6.28 66.07) rotate(-45)"/><rect class="cls-1" x="63.59" y="27.09" width="2" height="3" transform="translate(-1.3 54.04) rotate(-45)"/><rect class="cls-2" width="141.2" height="141.2" rx="70.6"/></g></g></svg>