<svg xmlns="http://www.w3.org/2000/svg" viewBox="0 0 141.2 141.2"><defs><style>.cls-1{}.cls-2{fill:none;}</style></defs><g id="Calque_2" data-name="Calque 2"><g id="Layer_1" data-name="Layer 1"><path class="cls-1" d="M120.34,91.21h0s0,0,0-.08a9.29,9.29,0,0,0-1.65-3.51c-5.29-7.06-16.37-18.33-31.09-14.5l-1.84.48h0l-2.59.68c1.82-2.28,3.34-2.86,6.72-3.73A27,27,0,0,0,106,58.24c4-6.85,5-15.48,2.93-25.65a8,8,0,0,0-1.71-3.54l0-.06h0a7.34,7.34,0,0,0-1.22-1.16l-.06-.05,0,0a7.94,7.94,0,0,0-2.23-1.18h0l0,0a8.72,8.72,0,0,0-1.45-.33A56,56,0,0,0,87.45,26c-7.81,1-13.58,4.08-17.14,9h0s0,0,0,0c-.21.29-.4.56-.57.84-2.27,3.53-3.87,6.44-4.88,8.33-.45.84-.86,1.61-1.24,2.34C61.2,51.15,60,53.44,57,55.12a21.24,21.24,0,0,1-4.45,1.72A31.06,31.06,0,0,0,40.1,63.59h0a24.26,24.26,0,0,0-6.49,10,27.27,27.27,0,0,0-1,3.69A43.38,43.38,0,0,0,21.94,88.8a8.11,8.11,0,0,0-1.3,3.71.22.22,0,0,1,0,.08h0a7.39,7.39,0,0,0,.05,1.7s0,0,0,.07a0,0,0,0,0,0,0,8,8,0,0,0,.75,2.42h0l0,0a8.5,8.5,0,0,0,.79,1.26,55.51,55.51,0,0,0,10.21,10.45c6.27,4.79,12.5,6.72,18.5,5.74h0c.33,0,.67-.11,1-.19,4.15-.9,7.31-1.82,9.34-2.43l2.53-.78c4.9-1.52,7.37-2.29,10.71-1.32A21.21,21.21,0,0,1,79,111.54a30.69,30.69,0,0,0,13.55,4h.06l.9,0a24.19,24.19,0,0,0,10.62-2.45h.08c5.5-2.68,10.49-7.53,14.81-14.4a2.39,2.39,0,0,0,.13-.21l.05-.08,0,0a9.44,9.44,0,0,0,1.16-7.13ZM102.2,110.35A21,21,0,0,1,95,112.21a46.48,46.48,0,0,0,2-6.33,41.68,41.68,0,0,0,7.05-.88A42.87,42.87,0,0,1,102.2,110.35ZM77,100.53q0-.78-.12-1.59a1.63,1.63,0,0,0-3.24.32c0,.28,0,.55.07.83a54.89,54.89,0,0,0-7.94-.4c.17-1.07.3-2.14.38-3.21l18.39.32C84.24,98,84,98.72,84,98.73a1.63,1.63,0,0,0,1,2.06,1.51,1.51,0,0,0,.51.08,1.64,1.64,0,0,0,1.55-1.12s.36-1.11.76-2.9L95,97a38,38,0,0,1-.58,5.67,91.28,91.28,0,0,1-13.29-1.48C79.77,101,78.38,100.73,77,100.53Zm-17.3,8.25c-1.54.46-3.59,1-6.12,1.64a52.33,52.33,0,0,0,2-6c.9-.15,1.8-.33,2.69-.55,1.11-.26,2.22-.46,3.35-.61A42.06,42.06,0,0,1,59.69,108.78Zm2-45.55c.39.35.79.69,1.21,1a1.63,1.63,0,1,0,2.06-2.52l-.63-.54a55.92,55.92,0,0,0,5.9-5.33c.64.88,1.3,1.72,2,2.54L59,71.2c-.65-1.06-1-1.71-1-1.74a1.63,1.63,0,0,0-2.92,1.46s.39.78,1.13,2a27.51,27.51,0,0,0-6-1c2.61-2.25,5.38-4.25,8.08-6.2C59.39,64.9,60.53,64.07,61.66,63.23ZM75.28,49.34c.2-.33.41-.64.62-1a42.35,42.35,0,0,0,2.82,3.76l-4.15,4c-.76-.89-1.47-1.83-2.15-2.79A37.56,37.56,0,0,0,75.28,49.34ZM90.11,35a40.38,40.38,0,0,0,2.78,3.43l-4.17,4a26.56,26.56,0,0,1-1.64-2.32,1.63,1.63,0,1,0-2.78,1.7,31.63,31.63,0,0,0,2.07,2.9l-5.29,5.11A41.74,41.74,0,0,1,78,45.53,42.11,42.11,0,0,1,90.11,35ZM96,50a48.16,48.16,0,0,1-5.18-5l4.38-4.23c.55.51,1.13,1,1.72,1.5A1.63,1.63,0,0,0,99,39.75c-.49-.4-1-.82-1.44-1.24l6-5.84A58.5,58.5,0,0,1,96,50Zm-6.91,7.16a36.28,36.28,0,0,1-5.83-4.88l5.22-5A51,51,0,0,0,94,52.63,25,25,0,0,1,89.07,57.19Zm-4.16,20a41.44,41.44,0,0,1,.76,5.55c-2.63.17-5.22.4-7.75.63-.08-1.18-.22-2.61-.45-4.2l.09,0,.69-.18,1.5-.4L82.06,78C83,77.71,83.9,77.45,84.91,77.19Zm32.35,15.29a6.28,6.28,0,0,1,0,1.62L108.74,94c0-.77-.07-1.53-.14-2.28a1.63,1.63,0,1,0-3.24.3q.09.94.12,1.92l-7.27-.13A36.78,36.78,0,0,0,97.43,88a1.63,1.63,0,1,0-3.19.69,34.86,34.86,0,0,1,.7,5l-6.49-.11A51,51,0,0,0,89,85.83C97.81,85.5,107.83,86.25,117.26,92.48ZM97.74,102.57A40.21,40.21,0,0,0,98.26,97l7.18.13a35,35,0,0,1-.52,4.3A37.83,37.83,0,0,1,97.74,102.57ZM67.52,93.23h0l-1.26,0c0-1.1-.07-2.21-.18-3.32a1.63,1.63,0,0,0-3.24.32c.1,1,.15,2,.16,2.94l-5.68-.1v-.36c0-.37,0-.74,0-1.1,0-.19,0-.38,0-.56,0-.35,0-.69,0-1,0-.18,0-.37,0-.55,0-.37-.06-.74-.1-1.11,0-.15,0-.29,0-.44-.06-.52-.13-1-.21-1.54h0l.2.05.32.08.4.09.33.07.41.08.33.07.43.07.34.06.48.07.47.06.61.07.42,0,.41,0,.45,0,.4,0,.47,0,.41,0,.49,0h3.87l.56,0,.48,0,1.08,0h0c1.36-.07,2.8-.17,4.4-.31h.16c0,.94-.06,1.49-.06,1.49a1.62,1.62,0,0,0,1.48,1.76h.14A1.62,1.62,0,0,0,78,88.71s.07-.79.07-2.06c2.53-.23,5.13-.47,7.75-.63a48,48,0,0,1-.61,7.54Zm-10,7.49c-.37.09-.75.16-1.12.24,0-.13.06-.27.08-.4q.41-2.11.6-4.26l5.76.1a34.36,34.36,0,0,1-.46,3.49A39.78,39.78,0,0,0,57.54,100.72ZM46.76,92.86a52.28,52.28,0,0,0-.13-7.72,25.59,25.59,0,0,1,6.72.27A35.73,35.73,0,0,1,54,93ZM73.14,76l.78.67-1.67.39C72.56,76.73,72.85,76.37,73.14,76Zm-.27-4.74c-.66-.68-1-1.09-1-1.1a1.63,1.63,0,1,0-2.5,2.1s.51.6,1.41,1.51c-1,1.24-2.1,2.52-3.19,3.79-1.66-.14-3-.81-5.32-2.16l-.56-.32c-.3-.39-.59-.77-.86-1.16L74.45,60.8c.79.77,1.62,1.52,2.48,2.22A1.63,1.63,0,1,0,79,60.5c-.77-.63-1.5-1.29-2.2-2l4.09-4A39.9,39.9,0,0,0,86,59C81.25,61.75,77.18,66.17,72.87,71.28ZM95.24,36.2A34.7,34.7,0,0,1,93,33.48a50.33,50.33,0,0,1,8.41-3.24Zm-50,39.2.12,0h.07a1.27,1.27,0,0,0,.28,0,1.33,1.33,0,0,0,.28,0h.07l.22-.06.06,0,.2-.1a24.09,24.09,0,0,1,10.3,1.28,20.73,20.73,0,0,1,3,1.29l.75.41c3,1.79,5,2.64,7.7,2.64a26.78,26.78,0,0,0,6-.91c.2,1.4.31,2.65.38,3.69l-.34,0c-1.56.14-3,.23-4.27.3h0c-5.81.32-9.91,0-13.28-1.08l-.56-.17-.09,0h0c-.23-.9-.5-1.82-.81-2.73a1.63,1.63,0,0,0-3.09,1c.11.32.21.64.31,1a29,29,0,0,0-6.27-.08,45.06,45.06,0,0,0-1.52-6.41ZM43.39,85.59a48.25,48.25,0,0,1,.11,7.22l-6.09-.11c0-.75-.08-1.51-.16-2.28a1.63,1.63,0,0,0-3.24.32c.06.63.11,1.27.14,1.89l-8.4-.15A59.31,59.31,0,0,1,43.39,85.59ZM34.14,95.9a34.56,34.56,0,0,1-.35,3.5,49.93,49.93,0,0,1-8.24-3.66ZM37.4,96l5.79.1c-.23,1.75-.48,2.79-.48,2.8a1.63,1.63,0,0,0,1.2,2,1.74,1.74,0,0,0,.39,0,1.62,1.62,0,0,0,1.58-1.25,31.45,31.45,0,0,0,.59-3.52l4.5.08h0l2.82,0c-.12,1.24-.3,2.48-.54,3.71-.1.52-.2,1-.32,1.57a42.4,42.4,0,0,1-16-1.17A38.44,38.44,0,0,0,37.4,96Zm71.31,1.26,6.38.11a44.57,44.57,0,0,1-6.68,3.07Q108.62,98.79,108.71,97.22Zm5.14-10.39c-8.54-4-17.2-4.55-24.93-4.26a43.39,43.39,0,0,0-.86-6.21l.32-.08C99.55,73.37,108.53,80.66,113.85,86.83ZM89,67.4c-5.27,1.35-7.19,2.5-10.73,8.17l-.41.11c-.91-.7-1.8-1.42-2.64-2.16,4.42-5.25,8.54-9.73,13.21-12.16l.6-.32c.81.48,1.65.94,2.5,1.36a1.69,1.69,0,0,0,.72.17A1.63,1.63,0,0,0,93,59.48L92.1,59a29.22,29.22,0,0,0,4.48-4.37,44,44,0,0,0,5.6,3.45A23.94,23.94,0,0,1,89,67.4Zm14.84-12.12A40.92,40.92,0,0,1,98.56,52a59.57,59.57,0,0,0,7.55-16.4C107.33,43.3,106.58,49.9,103.86,55.28ZM95.14,28.94c-1.28.52-2.61,1.11-4,1.8-.33-.55-.65-1.11-1-1.69C91.9,28.93,93.57,28.9,95.14,28.94Zm-8.41.53c.5,1,1,1.93,1.57,2.84A45.81,45.81,0,0,0,76.18,42.52a50.23,50.23,0,0,1-2.75-6.15C76.32,32.78,80.78,30.46,86.73,29.47Zm-15.5,10.2A53.33,53.33,0,0,0,74,45.35c-.53.74-1,1.5-1.52,2.28-.6,1-1.24,1.89-1.93,2.8a41.91,41.91,0,0,1-2.51-5.27C68.87,43.67,69.9,41.84,71.23,39.67ZM66.1,48.86a43.55,43.55,0,0,0,2.25,4.23,51.39,51.39,0,0,1-6.44,5.85c-.61-.64-1.21-1.31-1.78-2C62.74,55,64.16,52.53,66.1,48.86ZM53.41,60a27.66,27.66,0,0,0,3.87-1.38c.65.81,1.32,1.58,2,2.32l-2.93,2.14a98,98,0,0,0-10.31,8.18,44.89,44.89,0,0,1-2.91-6A28.41,28.41,0,0,1,53.41,60ZM40.64,67.73A48.36,48.36,0,0,0,43,72.51c-.29.07-.58.13-.87.21a27.67,27.67,0,0,0-5.07,1.87c-.07-.16-.13-.33-.2-.49A21.27,21.27,0,0,1,40.64,67.73ZM35,79.57c.66-.46,1.34-.88,2.07-1.29a24.65,24.65,0,0,1,4.44-2,41.29,41.29,0,0,1,1.46,6,60,60,0,0,0-17,6.27A37.46,37.46,0,0,1,35,79.57Zm-6,21.52c1.35.58,2.72,1.1,4.1,1.55-.15.62-.32,1.25-.51,1.88C31.35,103.39,30.15,102.23,29.06,101.09Zm6.34,5.58c.34-1,.64-2.08.89-3.11a45.86,45.86,0,0,0,15.79,1.35,48.63,48.63,0,0,1-2.41,6.29C45.1,111.7,40.31,110.18,35.4,106.67Zm28.29.89a41.6,41.6,0,0,0,1.4-4.59,51.66,51.66,0,0,1,8.69.41c0,.88-.07,1.77-.16,2.67a12.87,12.87,0,0,0-1.94-.15C69.24,105.89,66.84,106.58,63.69,107.56Zm13.13-.66c.11-1,.18-2.05.21-3.07l3.57.56a99.7,99.7,0,0,0,13.1,1.51,45.06,45.06,0,0,1-2.17,6.29,28.36,28.36,0,0,1-11-3.52A27.74,27.74,0,0,0,76.82,106.9Zm29.9.76c.39-1.2.73-2.4,1-3.6a44.78,44.78,0,0,0,4.51-1.67A34.36,34.36,0,0,1,106.72,107.66Z"/><rect class="cls-2" width="141.2" height="141.2" rx="70.6"/></g></g></svg>