<svg xmlns="http://www.w3.org/2000/svg" viewBox="0 0 141.2 141.2"><defs><style>.cls-1{}.cls-2{fill:none;}</style></defs><g id="Calque_2" data-name="Calque 2"><g id="Layer_1" data-name="Layer 1"><path class="cls-1" d="M82.38,79.11a15.15,15.15,0,1,0,8.43-29.06,21.19,21.19,0,0,0-42,0,15.15,15.15,0,1,0,8.44,29.06,15.27,15.27,0,0,0,6.27,5.28L62,101H51.14v2H88.52v-2H77.64L76.1,84.39A15.36,15.36,0,0,0,82.38,79.11ZM75.9,82.26l-.66-7.18,2.48-3.42-1.64-1.2L73.37,74.2a1,1,0,0,0-.19.69L75.6,101H64.06l2.42-26.11a1,1,0,0,0-.19-.69l-2.71-3.74-1.64,1.2,2.48,3.42-.66,7.18a13.15,13.15,0,0,1-5.19-4.91,1,1,0,0,0-.87-.5,1.09,1.09,0,0,0-.39.08,13,13,0,0,1-5,1,13.12,13.12,0,0,1-2.39-26,1,1,0,0,0,.83-.89,19.16,19.16,0,0,1,38.1,0,1,1,0,0,0,.82.89,13.12,13.12,0,1,1-7.35,25,1,1,0,0,0-1.26.42A13.15,13.15,0,0,1,75.9,82.26Z"/><rect class="cls-1" x="57.73" y="105.55" width="24.19" height="2.03"/><path class="cls-1" d="M52.54,61.66V58.15h-2v3.51a4.14,4.14,0,1,0,2,0Zm-1,6.11a2.11,2.11,0,1,1,2.1-2.1A2.1,2.1,0,0,1,51.53,67.77Z"/><path class="cls-1" d="M88.13,69.8a4.13,4.13,0,0,0,1-8.14V58.15h-2v3.51a4.13,4.13,0,0,0,1,8.14Zm0-6.24A2.11,2.11,0,1,1,86,65.67,2.11,2.11,0,0,1,88.13,63.56Z"/><path class="cls-1" d="M70.85,61.66V58.15h-2v3.51a4.13,4.13,0,1,0,2,0Zm-1,6.11a2.11,2.11,0,1,1,2.1-2.1A2.1,2.1,0,0,1,69.83,67.77Z"/><path class="cls-1" d="M61.33,52.66V49.15h-2v3.51a4.14,4.14,0,1,0,2,0Zm-1,6.11a2.11,2.11,0,1,1,2.11-2.1A2.1,2.1,0,0,1,60.31,58.77Z"/><path class="cls-1" d="M83.48,56.67a4.15,4.15,0,0,0-3.12-4V49.15h-2v3.51a4.13,4.13,0,1,0,5.15,4Zm-4.13,2.1a2.11,2.11,0,1,1,2.1-2.1A2.11,2.11,0,0,1,79.35,58.77Z"/><rect class="cls-2" width="141.2" height="141.2" rx="70.6"/></g></g></svg>