<svg xmlns="http://www.w3.org/2000/svg" viewBox="0 0 141.2 141.2"><defs><style>.cls-1{}.cls-2{fill:none;}</style></defs><g id="Calque_2" data-name="Calque 2"><g id="Layer_1" data-name="Layer 1"><path class="cls-1" d="M76.89,114H64.31a5.1,5.1,0,0,1-5.1-5.1V94.75a1.71,1.71,0,0,1,.65-1.34,1.73,1.73,0,0,1,1.46-.31,50.86,50.86,0,0,0,7.16,1.27l.16,0a11.2,11.2,0,0,0,5-.12l.21,0a51.65,51.65,0,0,0,5.91-1.1A1.7,1.7,0,0,1,82,94.54c0,.12,0,.23,0,.34v14A5.11,5.11,0,0,1,76.89,114ZM62.61,96.88v12a1.7,1.7,0,0,0,1.7,1.7H76.89a1.71,1.71,0,0,0,1.7-1.7v-12c-1.39.29-2.8.52-4.2.7a14.79,14.79,0,0,1-6.35.15A52.41,52.41,0,0,1,62.61,96.88Z"/><path class="cls-1" d="M76.89,114H64.31a5.1,5.1,0,0,1-5.1-5.1V94.75a1.71,1.71,0,0,1,.65-1.34,1.73,1.73,0,0,1,1.46-.31,50.86,50.86,0,0,0,7.16,1.27l.16,0a11.2,11.2,0,0,0,5-.12l.21,0a51.65,51.65,0,0,0,5.91-1.1A1.7,1.7,0,0,1,82,94.54c0,.12,0,.23,0,.34v14A5.11,5.11,0,0,1,76.89,114ZM62.61,96.88v12a1.7,1.7,0,0,0,1.7,1.7H76.89a1.71,1.71,0,0,0,1.7-1.7v-12c-1.39.29-2.8.52-4.2.7a14.79,14.79,0,0,1-6.35.15A52.41,52.41,0,0,1,62.61,96.88Z"/><path class="cls-1" d="M76.89,114H64.31a5.1,5.1,0,0,1-5.1-5.1V94.75a1.71,1.71,0,0,1,.65-1.34,1.73,1.73,0,0,1,1.46-.31,50.86,50.86,0,0,0,7.16,1.27l.16,0a11.2,11.2,0,0,0,5-.12l.21,0a51.65,51.65,0,0,0,5.91-1.1A1.7,1.7,0,0,1,82,94.54c0,.12,0,.23,0,.34v14A5.11,5.11,0,0,1,76.89,114ZM62.61,96.88v12a1.7,1.7,0,0,0,1.7,1.7H76.89a1.71,1.71,0,0,0,1.7-1.7v-12c-1.39.29-2.8.52-4.2.7a14.79,14.79,0,0,1-6.35.15A52.41,52.41,0,0,1,62.61,96.88Z"/><path class="cls-1" d="M47.67,66.64A1.72,1.72,0,0,1,46.33,66l-8.21-9.48a1.71,1.71,0,0,1-.22-1.92l5.81-10.86a3.07,3.07,0,0,1,1.36-1.33,3,3,0,0,1,4,1.36l4.35,8.39a1.72,1.72,0,0,1,.06,1.44,111.39,111.39,0,0,0-4.19,11.78,1.88,1.88,0,0,1-.16.39A1.7,1.7,0,0,1,47.67,66.64ZM41.45,55.17,47,61.51c.93-2.87,2-5.72,3.12-8.5l-3.68-7.09Z"/><path class="cls-1" d="M68.36,97.76h-.19c-19-2.09-22.86-10-24.16-17.56-1.62-9.29,6-27.18,6.37-27.94a1.7,1.7,0,0,1,2.74-.55A139.46,139.46,0,0,1,63.83,63.27a1.7,1.7,0,0,1,.15,2c-3.87,6.44-5.91,11.51-5.91,14.67,0,7.18,4.47,13.28,10.62,14.5a1.7,1.7,0,0,1-.33,3.36ZM52.56,55.92c-2,5.07-6.33,17.2-5.2,23.69C48,83.16,49,89.17,59.21,92.49A19.27,19.27,0,0,1,54.67,79.9c0-3.64,1.94-8.81,5.78-15.38C58,61.55,55.31,58.67,52.56,55.92Z"/><path class="cls-1" d="M60.91,96.45a1.14,1.14,0,0,1-.26,0c-14.52-2.19-24-7.43-28.1-15.57-5.28-10.4-.2-22.35,2.24-27a2.9,2.9,0,0,1,.74-.93,3,3,0,0,1,4.26.34L49,63.83a1.68,1.68,0,0,1,.35,1.58c-1.8,6.23-2.48,11.14-1.94,14.2h0c.87,5,2.74,10.62,14,13.49a1.7,1.7,0,0,1-.42,3.35ZM37.57,55.88c-2.27,4.48-6.4,14.76-2,23.45,2.26,4.45,6.48,7.93,12.62,10.4A18.4,18.4,0,0,1,44,80.19h0c-.6-3.45,0-8.44,1.77-14.83Zm-.36-.42h0Z"/><path class="cls-1" d="M80.3,96.45a1.7,1.7,0,0,1-.42-3.35c11.22-2.87,13.09-8.47,14-13.49h0c.53-3.06-.14-8-2-14.2a1.68,1.68,0,0,1,.35-1.58l9.18-10.59a3,3,0,0,1,4.24-.34,3.05,3.05,0,0,1,.74.94c2.44,4.67,7.53,16.61,2.26,27C104.53,89,95.08,94.24,80.56,96.43ZM97.19,80.19A18.57,18.57,0,0,1,93,89.73c6.14-2.47,10.37-6,12.62-10.41,4.41-8.69.28-19-2-23.44l-8.22,9.48c1.78,6.39,2.38,11.38,1.78,14.83ZM104,55.45h0Z"/><path class="cls-1" d="M74.05,97.62a1.7,1.7,0,0,1-.42-3.35c5.83-1.47,10.06-7.51,10.06-14.37,0-2.19-1.12-6.52-6.41-14.65a1.7,1.7,0,0,1,.11-2A140.44,140.44,0,0,1,88.07,51.7a1.73,1.73,0,0,1,1.52-.44,1.7,1.7,0,0,1,1.22,1c.33.76,8,18.65,6.38,27.94-1.27,7.32-5,15.11-22.92,17.41Zm6.76-33.17C85,71,87.09,76.23,87.09,79.9a19.54,19.54,0,0,1-3.56,11.32c-.24.35-.5.68-.77,1,9.48-3.37,10.48-9.17,11.08-12.61C95,73.12,90.62,61,88.63,55.92,85.91,58.65,83.29,61.5,80.81,64.45Z"/><path class="cls-1" d="M52,54.63h-.11a1.66,1.66,0,0,1-1.4-.91l-4.29-8.25a1.71,1.71,0,0,1,.09-1.72l5.95-9a4.53,4.53,0,0,1,2.88-2,4.6,4.6,0,0,1,3.49.6,4.65,4.65,0,0,1,1.67,1.85l2.18,4.19a1.69,1.69,0,0,1-.11,1.76l-9,12.81A1.69,1.69,0,0,1,52,54.63Zm-2.32-9.85,2.53,4.87L58.92,40,57.21,36.7l0,0a1.25,1.25,0,0,0-.45-.49,1.19,1.19,0,0,0-.92-.17,1.27,1.27,0,0,0-.77.54l0,0Z"/><path class="cls-1" d="M70.31,54.63h0a1.72,1.72,0,0,1-1.36-.7l-9.4-12.81a1.68,1.68,0,0,1,0-2l7-9.95A4.61,4.61,0,0,1,73,28a4.34,4.34,0,0,1,1.16,1.14l7.25,10a1.7,1.7,0,0,1,0,2L71.67,54A1.69,1.69,0,0,1,70.31,54.63ZM63,40.1l7.33,10,7.54-10-6.51-9,0,0A1.3,1.3,0,0,0,71,30.8a1.23,1.23,0,0,0-1.69.32v0Z"/><path class="cls-1" d="M89.19,54.62a1.7,1.7,0,0,1-1.38-.7L78.6,41.11a1.71,1.71,0,0,1-.14-1.77l2.15-4.2a4.63,4.63,0,0,1,8-.53l6.28,9.26A1.71,1.71,0,0,1,95,45.63l-4.31,8.09a1.71,1.71,0,0,1-1.39.9ZM82,40l7,9.74,2.55-4.78-5.71-8.41,0,0a1.22,1.22,0,0,0-.49-.44,1.24,1.24,0,0,0-1.64.58l0,0Z"/><path class="cls-1" d="M62.53,66.05a1.7,1.7,0,0,1-1.39-.71A135.47,135.47,0,0,0,50.77,54.15a1.7,1.7,0,0,1-.21-2.2l8.95-12.81a1.69,1.69,0,0,1,1.38-.72,1.67,1.67,0,0,1,1.39.69l9.4,12.81a1.73,1.73,0,0,1,0,2,127.73,127.73,0,0,0-7.6,11.13A1.7,1.7,0,0,1,62.8,66,1.23,1.23,0,0,1,62.53,66.05ZM54.17,52.72c2.83,2.79,5.56,5.71,8.14,8.74,1.85-2.92,3.81-5.79,5.88-8.55L60.94,43Z"/><path class="cls-1" d="M78.7,66h-.09a1.72,1.72,0,0,1-1.33-.77A126.09,126.09,0,0,0,69,54a1.7,1.7,0,0,1,0-2.11l9.67-12.81A1.67,1.67,0,0,1,80,38.42a1.71,1.71,0,0,1,1.36.7l9.21,12.82a1.7,1.7,0,0,1,0,2l-.13.18a1.33,1.33,0,0,1-.21.26A135.7,135.7,0,0,0,80,65.4,1.7,1.7,0,0,1,78.7,66ZM72.47,52.89c2.24,2.77,4.38,5.65,6.39,8.6,2.57-3,5.3-5.94,8.12-8.72l-7-9.79Zm16.59.22Z"/><path class="cls-1" d="M93.52,66.65a1.71,1.71,0,0,1-1.63-1.22,113.57,113.57,0,0,0-4-11.33A1.73,1.73,0,0,1,87.49,53v-.07a1.72,1.72,0,0,1,.2-.8l4.5-8.46a3.06,3.06,0,0,1,1.28-1.29,3,3,0,0,1,4.08,1.26l5.91,10.74a1.7,1.7,0,0,1-.21,1.93L94.86,66a1.72,1.72,0,0,1-1.09.63ZM91.1,53c1.16,2.8,2.21,5.67,3.14,8.56L99.91,55l-5-9.13Z"/><path class="cls-1" d="M89.19,54.62a1.7,1.7,0,0,1-1.38-.7L78.6,41.11a1.71,1.71,0,0,1-.14-1.77l2.15-4.2a4.63,4.63,0,0,1,8-.53l6.28,9.26A1.71,1.71,0,0,1,95,45.63l-4.31,8.09a1.71,1.71,0,0,1-1.39.9ZM82,40l7,9.74,2.55-4.78-5.71-8.41,0,0a1.22,1.22,0,0,0-.49-.44,1.24,1.24,0,0,0-1.64.58l0,0Z"/><path class="cls-1" d="M93.52,66.65a1.71,1.71,0,0,1-1.63-1.22,113.57,113.57,0,0,0-4-11.33A1.73,1.73,0,0,1,87.49,53v-.07a1.72,1.72,0,0,1,.2-.8l4.5-8.46a3.06,3.06,0,0,1,1.28-1.29,3,3,0,0,1,4.08,1.26l5.91,10.74a1.7,1.7,0,0,1-.21,1.93L94.86,66a1.72,1.72,0,0,1-1.09.63ZM91.1,53c1.16,2.8,2.21,5.67,3.14,8.56L99.91,55l-5-9.13Z"/><rect class="cls-2" width="141.2" height="141.2" rx="70.6"/></g></g></svg>