<svg xmlns="http://www.w3.org/2000/svg" viewBox="0 0 141.2 141.2"><defs><style>.cls-1{fill:none;}.cls-2{}</style></defs><g id="Calque_2" data-name="Calque 2"><g id="Layer_1" data-name="Layer 1"><rect class="cls-1" width="141.2" height="141.2" rx="70.6"/><path class="cls-2" d="M24.14,118.05h92.92a1.2,1.2,0,1,0,0-2.39h-4.75a1.26,1.26,0,0,0,0-.28,10.89,10.89,0,0,0-9.69-10.81V100c2,0,5.79-.41,8.38-2.93,3.53-3.43,3.19-9.3,3.17-9.55a1.2,1.2,0,0,0-1.07-1.11c-.25,0-6.12-.54-9.65,2.89a9.2,9.2,0,0,0-2,2.83,9.29,9.29,0,0,0-1.79-2.72c-3.43-3.53-9.31-3.19-9.55-3.17a1.17,1.17,0,0,0-1.11,1.07c0,.25-.55,6.11,2.88,9.65,2.52,2.59,6.35,3.1,8.31,3.18v4.4a10.89,10.89,0,0,0-9.7,10.81,1.27,1.27,0,0,0,.06.28H71.74V102.38h.06c2.35,0,7.26-.42,10.54-3.6,4.34-4.21,3.91-11.45,3.89-11.75a1.17,1.17,0,0,0-1.07-1.11c-.31,0-7.53-.67-11.87,3.54a10.62,10.62,0,0,0-1.56,1.94v-5c1-1,4.12-4.33,4.09-8.38,0-4.79-4.4-8.48-4.59-8.63a1.18,1.18,0,0,0-1.54,0c-.18.16-4.47,3.93-4.43,8.71,0,3.88,2.91,7,4.09,8.18v4.77a10.35,10.35,0,0,0-1.18-1.48c-4.21-4.34-11.45-3.92-11.76-3.9a1.21,1.21,0,0,0-1.11,1.08c0,.3-.66,7.53,3.55,11.86,3.21,3.32,8.19,3.85,10.5,3.91v13.1H50.18a1.27,1.27,0,0,0,.06-.28,10.89,10.89,0,0,0-9.7-10.81V100c2,0,5.79-.41,8.38-2.93,3.53-3.43,3.19-9.3,3.18-9.55A1.21,1.21,0,0,0,51,86.44c-.25,0-6.11-.54-9.65,2.89a9.2,9.2,0,0,0-1.95,2.83,9.1,9.1,0,0,0-1.79-2.72c-3.43-3.53-9.3-3.19-9.55-3.17A1.17,1.17,0,0,0,27,87.34c0,.25-.54,6.11,2.89,9.65,2.52,2.59,6.34,3.1,8.3,3.18v4.4a10.88,10.88,0,0,0-9.69,10.81,1.26,1.26,0,0,0,.05.28H24.14a1.2,1.2,0,1,0,0,2.39ZM75,91.18c2.66-2.58,6.93-2.91,8.91-2.91-.06,2-.51,6.22-3.18,8.81S73.75,100,71.77,100C71.83,98,72.28,93.78,75,91.18Zm-7.3-13.06c0-2.6,1.77-5,2.84-6.12,1.08,1.14,2.92,3.46,2.94,6.07S71.66,83,70.59,84.18C69.51,83,67.67,80.71,67.65,78.12ZM60.56,97c-2.58-2.66-2.91-6.92-2.91-8.9,2,.06,6.23.52,8.81,3.18,2.25,2.32,2.79,5.85,2.89,8v.87C67.37,100.11,63.14,99.66,60.56,97ZM105.16,91c2-1.9,5-2.22,6.67-2.25-.07,1.63-.49,4.71-2.45,6.6s-5,2.22-6.67,2.25C102.79,96,103.21,92.94,105.16,91ZM93.7,95.33c-1.9-2-2.23-5-2.26-6.68,1.63.08,4.71.5,6.61,2.45s2.16,4.6,2.24,6.29v.39C98.65,97.7,95.59,97.28,93.7,95.33Zm-.72,20a8.5,8.5,0,0,1,17,0,1.26,1.26,0,0,0,0,.28H92.92A.88.88,0,0,0,93,115.38ZM43,91c2-1.9,5-2.22,6.68-2.25-.08,1.63-.5,4.71-2.45,6.6s-5,2.22-6.68,2.25C40.66,96,41.08,92.94,43,91ZM31.57,95.33c-1.89-2-2.22-5-2.25-6.68,1.63.08,4.71.5,6.6,2.45s2.17,4.61,2.24,6.31v.37C36.53,97.7,33.46,97.28,31.57,95.33Zm-.72,20a8.5,8.5,0,0,1,17,0,.88.88,0,0,0,.06.28H30.8A1.26,1.26,0,0,0,30.85,115.38Z"/><path class="cls-2" d="M56.89,45.46a10,10,0,1,0,10-10A10,10,0,0,0,56.89,45.46Zm10-7.65a7.65,7.65,0,1,1-7.65,7.65A7.66,7.66,0,0,1,66.92,37.81Z"/><path class="cls-2" d="M68.11,29.79V24.34a1.19,1.19,0,1,0-2.38,0v5.45a1.19,1.19,0,1,0,2.38,0Z"/><path class="cls-2" d="M78,26.08a1.19,1.19,0,0,0-1.63.44l-2.7,4.73a1.2,1.2,0,0,0,.45,1.63,1.16,1.16,0,0,0,.59.16,1.2,1.2,0,0,0,1-.61l2.69-4.73A1.18,1.18,0,0,0,78,26.08Z"/><path class="cls-2" d="M84.48,33.67,79.8,36.45a1.19,1.19,0,0,0,.61,2.22,1.21,1.21,0,0,0,.6-.17l4.69-2.78a1.19,1.19,0,1,0-1.22-2Z"/><path class="cls-2" d="M89.23,45.09A1.19,1.19,0,0,0,88,43.92L82.57,44a1.19,1.19,0,0,0,0,2.38h0l5.44-.09A1.2,1.2,0,0,0,89.23,45.09Z"/><path class="cls-2" d="M81.24,52A1.19,1.19,0,1,0,80.09,54l4.77,2.61a1.22,1.22,0,0,0,.58.15,1.17,1.17,0,0,0,1-.62A1.19,1.19,0,0,0,86,54.56Z"/><path class="cls-2" d="M74.5,57.79a1.2,1.2,0,0,0-.39,1.64L77,64.07a1.17,1.17,0,0,0,1,.57,1.2,1.2,0,0,0,1-1.82l-2.85-4.64A1.21,1.21,0,0,0,74.5,57.79Z"/><path class="cls-2" d="M67.4,59.93a1.19,1.19,0,0,0-1.15,1.23l.18,5.45a1.19,1.19,0,0,0,1.19,1.15h0a1.2,1.2,0,0,0,1.16-1.23l-.18-5.45A1.2,1.2,0,0,0,67.4,59.93Z"/><path class="cls-2" d="M58.56,58.77,56,63.59a1.2,1.2,0,0,0,1,1.75,1.2,1.2,0,0,0,1.06-.64l2.53-4.82a1.19,1.19,0,0,0-2.11-1.11Z"/><path class="cls-2" d="M53.07,52.89l-4.59,2.92a1.19,1.19,0,0,0-.36,1.65,1.17,1.17,0,0,0,1,.55,1.24,1.24,0,0,0,.64-.18l4.59-2.93a1.19,1.19,0,1,0-1.28-2Z"/><path class="cls-2" d="M44.64,46.57a1.2,1.2,0,0,0,1.19,1.14h.06l5.44-.28a1.19,1.19,0,1,0-.12-2.38l-5.44.27A1.2,1.2,0,0,0,44.64,46.57Z"/><path class="cls-2" d="M53.47,37.32l-4.86-2.45A1.19,1.19,0,1,0,47.54,37l4.86,2.45a1.12,1.12,0,0,0,.53.13,1.19,1.19,0,0,0,.54-2.26Z"/><path class="cls-2" d="M56.26,27.19a1.19,1.19,0,0,0-2,1.32l3,4.54a1.18,1.18,0,0,0,1,.53,1.19,1.19,0,0,0,1-1.85Z"/></g></g></svg>