<svg xmlns="http://www.w3.org/2000/svg" viewBox="0 0 141.2 141.2"><defs><style>.cls-1{fill:none;}.cls-2{}</style></defs><g id="Calque_2" data-name="Calque 2"><g id="Layer_1" data-name="Layer 1"><rect class="cls-1" width="141.2" height="141.2" rx="70.6"/><path class="cls-2" d="M59.54,59.56a15.39,15.39,0,0,0,3.22-.49c2.86-.77,4.7-2.31,4.7-3.93a.84.84,0,0,1,1.68,0c0,1.54,3.32,3.54,9.48,4.24,1.09.12,2.21.18,3.33.21-.36-6.57-4.82-11.25-10.9-11.25A11.81,11.81,0,0,0,59.54,59.56Z"/><path class="cls-2" d="M81.07,83A182.91,182.91,0,0,1,77.76,61c-4.47-.59-7.78-1.9-9.33-3.59a8.3,8.3,0,0,1-4.57,3.11c-5.84,21-5.81,38.2.09,46a8.68,8.68,0,0,0,7.1,3.81c5,0,8.39-1.1,10.25-3.37,3.57-4.33,1.89-12.95-.23-23.85Zm-2.76,21.11a.85.85,0,0,1-.67.34.87.87,0,0,1-.51-.17.85.85,0,0,1-.17-1.18c1.19-1.58,1.06-3.14.81-6-.13-1.46-.29-3.27-.29-5.52a.84.84,0,1,1,1.68,0c0,2.17.15,3.88.28,5.38.27,3,.44,5-1.13,7.13Z"/><path class="cls-2" d="M58.66,32.63c6.16,0,11.2,6.24,11.52,14.07.29,0,.58,0,.87,0s.54,0,.81,0C71.52,38,65.74,31,58.66,31a.84.84,0,0,0,0,1.68Z"/></g></g></svg>