<svg xmlns="http://www.w3.org/2000/svg" viewBox="0 0 141.2 141.2"><defs><style>.cls-1{fill:none;}.cls-2{}</style></defs><g id="Calque_2" data-name="Calque 2"><g id="Layer_1" data-name="Layer 1"><rect class="cls-1" width="141.2" height="141.2" rx="70.6"/><path class="cls-2" d="M124.65,62.3a7.4,7.4,0,0,1-4.44,4.59,8.8,8.8,0,0,1-3.44.64,10.42,10.42,0,0,1-3.09-.46A8.54,8.54,0,0,1,107.28,57a7.41,7.41,0,0,1,4.43-4.59,9.89,9.89,0,0,1,6.53-.18A8.54,8.54,0,0,1,124.65,62.3Zm-92,31.31a5.07,5.07,0,0,0-5.16.44l-4.43,3a5.14,5.14,0,0,0-2.21,4.69A5.08,5.08,0,0,0,23.81,106l4.85,2.31a5.23,5.23,0,0,0,2.23.51,5.17,5.17,0,0,0,5.17-5.2c0-.14,0-.28,0-.42l-.44-5.34A5.13,5.13,0,0,0,32.68,93.61Zm78.93,4.89a2.59,2.59,0,0,0-4.36,2.8l-8.71,5.61h0a2.59,2.59,0,0,0-4.36,2.81l2.8,4.36a2.59,2.59,0,1,0,4.36-2.81l8.72-5.61h0a2.59,2.59,0,1,0,4.36-2.81ZM23.94,68.7a3.89,3.89,0,1,0-3.89,3.89A3.89,3.89,0,0,0,23.94,68.7ZM127.63,41.48H73.19v-13a2.59,2.59,0,1,0-5.18,0v13H13.57a2.6,2.6,0,0,0,0,5.19H68v13c0,2.76-3,4.81-6.81,6.44A125.82,125.82,0,0,0,46.37,61l-4.64-7.87a2.59,2.59,0,1,0-4.47,2.63h0l2.24,3.8a20,20,0,0,0-8.6.2,2.59,2.59,0,0,0,1.64,4.92c3.8-1.27,13.23,1.24,21.07,4l-.79.24c-1.33.4-2.61.79-3.78,1.18l-2.33.76a86.26,86.26,0,0,0-9,3.27l-5.35-1.48a2.59,2.59,0,1,0-1.38,5h0l.59.16a14.93,14.93,0,0,0-4.95,6.89,2.59,2.59,0,0,0,4.92,1.64h0c1.92-5.77,9.78-8.31,16.72-10.55l.36-.12a37.9,37.9,0,0,0-1.62,17.17l-4.53,6.8a2.59,2.59,0,1,0,4.29,2.91l0,0,2.41-3.62a23.76,23.76,0,0,0,4,6.61,2.6,2.6,0,0,0,3.67-3.67,32.6,32.6,0,0,1-4.56-9.35,14.65,14.65,0,0,1-.54-5.1l4.44,2.9A2.59,2.59,0,1,0,59.15,86L59.06,86,52.52,81.7a61.8,61.8,0,0,1,2.2-7.91c5.44-1.65,11.61-3.6,15.27-7.08a30,30,0,0,0,9.54,10.63c.5.33,1,.58,1.43.87-3.92,3.52-10.65,9.9-12.68,14a2.59,2.59,0,1,0,4.64,2.32,24.51,24.51,0,0,1,3.74-4.85c2.08,1.17,4.5,2.57,6.69,3.91A28.26,28.26,0,0,0,81,103.7a2.59,2.59,0,0,0,5.18,0,21.77,21.77,0,0,1,1.64-7.29,13.92,13.92,0,0,1,1.72,1.34,2.59,2.59,0,0,0,3.66-3.66,88.9,88.9,0,0,0-12.75-8.28c2-1.93,4-3.74,5.47-5a27.33,27.33,0,0,0,8.25,2,2.1,2.1,0,0,0,1.24.09c1.29.07,2.53.08,3.73.08a11.72,11.72,0,0,1,10.65,6.34A2.59,2.59,0,1,0,114.39,87a16.63,16.63,0,0,0-11.56-8.78,23.22,23.22,0,0,0,6.38-7,2.59,2.59,0,0,0-4.64-2.32c-1.66,3.31-7.25,7.1-10.07,8.77A24.66,24.66,0,0,1,82.41,73a25.53,25.53,0,0,1-9.33-12,8.09,8.09,0,0,0,.08-1,44.88,44.88,0,0,0,20.35,5.23,36.88,36.88,0,0,0,6-.49,2.6,2.6,0,0,0-.8-5.13h0a29,29,0,0,1-3.08.34,17.47,17.47,0,0,0,3.23-4.4,2.59,2.59,0,0,0-4.64-2.32,16.13,16.13,0,0,1-6.47,6.27,42.92,42.92,0,0,1-14.54-5.46V46.67h54.44a2.6,2.6,0,0,0,0-5.19Z"/></g></g></svg>