<svg xmlns="http://www.w3.org/2000/svg" viewBox="0 0 141.2 141.2"><defs><style>.cls-1{fill:none;}.cls-2{}</style></defs><g id="Calque_2" data-name="Calque 2"><g id="Layer_1" data-name="Layer 1"><rect class="cls-1" width="141.2" height="141.2" rx="70.6"/><path class="cls-2" d="M50.52,113.86A23.18,23.18,0,1,1,71.77,81.41a1.29,1.29,0,0,1,0,1c-.17.41-.31.74-.43,1.06a20.68,20.68,0,0,0,0,14.38c.12.32.26.65.43,1a1.32,1.32,0,0,1,0,1A23.19,23.19,0,0,1,50.52,113.86Zm0-43.81A20.63,20.63,0,1,0,69.2,99.42c-.09-.23-.18-.45-.25-.66A23.24,23.24,0,0,1,69,82.6c.07-.21.16-.43.25-.66A20.62,20.62,0,0,0,50.52,70.05Z"/><path class="cls-2" d="M90.68,113.86A23.19,23.19,0,0,1,69.43,100c-.2-.45-.35-.83-.48-1.19A23.24,23.24,0,0,1,69,82.6c.13-.37.29-.74.48-1.19a23.18,23.18,0,1,1,21.25,32.45Zm0-43.81A20.64,20.64,0,0,0,71.77,82.43c-.17.4-.31.74-.43,1.06a20.68,20.68,0,0,0,0,14.38c.12.32.26.65.43,1A20.63,20.63,0,1,0,90.68,70.05Z"/><path class="cls-2" d="M70.6,73.7A23.18,23.18,0,1,1,93.78,50.52,23.21,23.21,0,0,1,70.6,73.7Zm0-43.81A20.63,20.63,0,1,0,91.23,50.52,20.66,20.66,0,0,0,70.6,29.89Z"/><path class="cls-2" d="M70.6,62.75A12.23,12.23,0,1,1,82.83,50.52,12.25,12.25,0,0,1,70.6,62.75Zm0-21.9a9.68,9.68,0,1,0,9.67,9.67A9.68,9.68,0,0,0,70.6,40.85Z"/><path class="cls-2" d="M70.6,55.45a4.93,4.93,0,1,1,4.93-4.93A4.93,4.93,0,0,1,70.6,55.45Zm0-7.3A2.37,2.37,0,1,0,73,50.52,2.37,2.37,0,0,0,70.6,48.15Z"/><path class="cls-2" d="M90.68,102.91a12.23,12.23,0,1,1,12.23-12.23A12.25,12.25,0,0,1,90.68,102.91Zm0-21.91a9.68,9.68,0,1,0,9.67,9.68A9.69,9.69,0,0,0,90.68,81Z"/><path class="cls-2" d="M90.68,95.61a4.93,4.93,0,1,1,4.93-4.93A4.93,4.93,0,0,1,90.68,95.61Zm0-7.3a2.37,2.37,0,1,0,2.37,2.37A2.37,2.37,0,0,0,90.68,88.31Z"/><path class="cls-2" d="M50.52,102.91A12.23,12.23,0,1,1,62.75,90.68,12.25,12.25,0,0,1,50.52,102.91Zm0-21.91a9.68,9.68,0,1,0,9.68,9.68A9.69,9.69,0,0,0,50.52,81Z"/><path class="cls-2" d="M50.52,95.61a4.93,4.93,0,1,1,4.93-4.93A4.93,4.93,0,0,1,50.52,95.61Zm0-7.3a2.37,2.37,0,1,0,2.37,2.37A2.37,2.37,0,0,0,50.52,88.31Z"/><path class="cls-2" d="M112.58,113.86h-84a1.28,1.28,0,1,1,0-2.55h84a1.28,1.28,0,1,1,0,2.55Z"/></g></g></svg>