<svg xmlns="http://www.w3.org/2000/svg" viewBox="0 0 141.2 141.2"><defs><style>.cls-1{fill:none;}.cls-2{}</style></defs><g id="Calque_2" data-name="Calque 2"><g id="Layer_1" data-name="Layer 1"><rect class="cls-1" width="141.2" height="141.2" rx="70.6"/><path class="cls-2" d="M79.63,57.5C87.84,63.13,99.42,72.27,104.49,82c-.12.06-.25.09-.38.15l-18.38,8.1H84.29a10.56,10.56,0,0,0,1.23-4.66A10.95,10.95,0,0,0,74.58,74.36H52.18a26.08,26.08,0,0,0-12.11,3l-.73.39C45.12,69.65,54.57,62.3,61.57,57.5A16,16,0,0,1,79.63,57.5ZM53.55,36.56a7.64,7.64,0,0,1,7.63,7.63,1.75,1.75,0,0,0,3.5,0,7.65,7.65,0,0,1,7.64-7.63,1.75,1.75,0,0,0,0-3.5,7.64,7.64,0,0,1-7.64-7.63,1.75,1.75,0,0,0-3.5,0,7.64,7.64,0,0,1-7.63,7.63,1.75,1.75,0,0,0,0,3.5Zm55.62,49.51a7.65,7.65,0,0,0-3,.64L87.56,94.9a3.92,3.92,0,0,1-1.62.34H59a2.11,2.11,0,0,1-2.14-1.71,2,2,0,0,1,2-2.3H74.31a6.11,6.11,0,0,0,6.21-5.78,5.94,5.94,0,0,0-5.94-6.09H52.18a21,21,0,0,0-9.78,2.42L26.2,90.31A3,3,0,0,0,24.6,93v21.56a3,3,0,0,0,3,3,3.23,3.23,0,0,0,1-.17l8.4-3a21,21,0,0,1,7-1.2H81a35.05,35.05,0,0,0,18.45-5.25l13.45-8.35a7.58,7.58,0,0,0,3.71-6.17A7.3,7.3,0,0,0,109.17,86.07ZM26.75,52.27a10.07,10.07,0,0,1,10.06,10,1.75,1.75,0,1,0,3.5,0,10.07,10.07,0,0,1,10.06-10,1.75,1.75,0,0,0,0-3.5A10.07,10.07,0,0,1,40.31,38.71a1.75,1.75,0,0,0-3.5,0A10.07,10.07,0,0,1,26.75,48.77a1.75,1.75,0,0,0,0,3.5Z"/></g></g></svg>