<svg xmlns="http://www.w3.org/2000/svg" viewBox="0 0 141.2 141.2"><defs><style>.cls-1{fill:none;}.cls-2{}</style></defs><g id="Calque_2" data-name="Calque 2"><g id="Layer_1" data-name="Layer 1"><rect class="cls-1" width="141.2" height="141.2" rx="70.6"/><path class="cls-2" d="M97.22,105.51a1,1,0,0,1-.38-.07c-1.28-.49-3-1.71-3.82-4.76h0v-.26a1.58,1.58,0,0,0-.63-1.09c-.73-.54-2-.65-3.75-.29-.86.32-6.64,2.17-13.39-1.89l-7.08-3.69L68,93.39c-.25-.16-6.22-4-11.23,1.47-.5.49-4.6,4.41-8.25,3.6-.67,0-3-.44-4.7-3.63a23.91,23.91,0,0,0-2.7-4,46.91,46.91,0,0,1-7.94-13c-.1-.22-2.45-6.24,0-16.89,0-.12.54-2.73-2.81-6.6l-.09-.11c-1.39-2.09-5.84-9.14-4.49-11.94a2.06,2.06,0,0,1,.74-.86c-.33-1.37-.65-3.76.52-5.3a3.35,3.35,0,0,1,2-1.28c-.25-1.51-.39-4,.91-5.43h0a3.39,3.39,0,0,1,2.17-1.15,5.83,5.83,0,0,1,.76-4.55,3.55,3.55,0,0,1,2.71-1.28,4.71,4.71,0,0,1,1.65-3,3.34,3.34,0,0,1,2.49-.58c1.22-1.56,3.66-3.33,6.51-1.7a.38.38,0,0,1,.15.09c.27.2,6.79,5.7,6.42,17.22v1.72c-.08,1.93-.16,3.92-.16,5.88v2.8a5.76,5.76,0,0,0,1.79,4.28,12.49,12.49,0,0,0,5,2.51c.68.19,17.25,4.63,23.18,9.91h0A31,31,0,0,1,93,75.91l.27.81c.24.68.47,1.37.73,2l1.44,3.66s1.36,3.17,3.91,3.78a7.42,7.42,0,0,1,3.36,1.62,12.17,12.17,0,0,1,3.46,13.25,4.83,4.83,0,0,1-1.37,2.1,11.56,11.56,0,0,1-3.07,2.17,1.08,1.08,0,0,1-.86.1,1.09,1.09,0,0,1-.68-1.44,1.08,1.08,0,0,1,.61-.61,9.64,9.64,0,0,0,2.52-1.77,2.73,2.73,0,0,0,.73-1.16,10.13,10.13,0,0,0-2.85-11,5.37,5.37,0,0,0-2.42-1.08c-3.63-.87-5.34-4.9-5.43-5.07l-1.45-3.67c-.27-.69-.52-1.41-.76-2.17l-.27-.8a28.87,28.87,0,0,0-9.58-13.34l-.1-.09c-5.51-5-22.19-9.42-22.35-9.47h0a14.38,14.38,0,0,1-5.85-3,7.87,7.87,0,0,1-2.51-5.89V42c0-2,.07-4,.15-6V34.36c.45-9.81-4.85-14.78-5.49-15.42-2.17-1.09-3.77,1.37-3.94,1.65a1.1,1.1,0,0,1-1.24.48,1.51,1.51,0,0,0-1.37.07,3.54,3.54,0,0,0-.88,2.34,1,1,0,0,1-.36.79,1.07,1.07,0,0,1-.82.27c-1.35-.13-1.71.34-1.84.49-.71.91-.33,3.06,0,4h0a1.1,1.1,0,0,1-1.23,1.45c-1.29-.19-1.68.26-1.81.4-.87,1-.49,3.59-.18,4.69a1.09,1.09,0,0,1-.18,1,1.12,1.12,0,0,1-.9.42c-1.09-.06-1.46.35-1.56.48-.7.93-.31,3.13.09,4.35a1.08,1.08,0,0,1-.11.94,1.06,1.06,0,0,1-.81.5.34.34,0,0,0-.2,0c-.57.67,1.18,5.08,4.34,9.77,4.12,4.77,3.26,8.34,3.26,8.49-2.17,9.9-.06,15.54,0,15.6A45.21,45.21,0,0,0,43,89.41a26.09,26.09,0,0,1,2.95,4.41c1.33,2.44,2.87,2.49,2.93,2.49h0a1.22,1.22,0,0,1,.27,0c2.12.54,5.26-2,6.28-3,5.79-6.46,13-2.26,13.78-1.79l7.11,3.7c6.22,3.8,11.38,1.82,11.65,1.74h.18c2.49-.54,4.4-.29,5.67.71a3.78,3.78,0,0,1,1.41,2.54,4.51,4.51,0,0,0,2.48,3.26,1.1,1.1,0,0,1,.67,1.21,1.08,1.08,0,0,1-1.06.88Z"/><path class="cls-2" d="M98.78,111.85H98.7a1.1,1.1,0,0,1-.94-.74c-.52-1.56-1.71-5.33-1.62-6.51h0a3.13,3.13,0,0,1,3.37-2.88,3.13,3.13,0,0,1,2.88,3.38c-.1,1.21-1.88,4.74-2.64,6.19h0a1.11,1.11,0,0,1-1,.56Zm.48-8h0a1,1,0,0,0-1,.89,17.31,17.31,0,0,0,.71,3.11,17.69,17.69,0,0,0,1.21-3,.94.94,0,0,0-.21-.74,1,1,0,0,0-.68-.35Z"/><path class="cls-2" d="M106.38,104.41a5.05,5.05,0,0,1-3-1.18,1.09,1.09,0,0,1,1.3-1.74c.58.42,1.39.9,2,.71s1-1.09,1-1.09a1,1,0,0,1,.47-.59c.69-.41,1.52-1.08,1.54-1.73s-1-1.71-1.34-2a1.07,1.07,0,0,1-.48-.81,1.09,1.09,0,0,1,.35-.88,2,2,0,0,0,.81-1.53c-.06-.72-.89-1.36-1.19-1.55a1.09,1.09,0,0,1-.51-1.09c.24-1.45.11-2.51-.36-2.92s-1.48-.17-1.49-.17a1.08,1.08,0,0,1-1.28-.58.86.86,0,0,0-.58-.5c-1.09-.27-3,.67-4,1.33a1.11,1.11,0,0,1-.81.17,1.1,1.1,0,0,1-.7-.46A1.08,1.08,0,0,1,98,87a1.06,1.06,0,0,1,.46-.69c.34-.23,3.4-2.17,5.75-1.62a3,3,0,0,1,1.51.9,3.6,3.6,0,0,1,2.72.76c1,.85,1.39,2.28,1.19,4.25a4.27,4.27,0,0,1,1.58,2.76,3.47,3.47,0,0,1-.69,2.45,3.76,3.76,0,0,1-.94,6.36,3.81,3.81,0,0,1-2.17,2.09,3.28,3.28,0,0,1-1,.12Z"/><path class="cls-2" d="M101.76,98.56h-.26a1.09,1.09,0,1,1,0-2.17h.26a1.09,1.09,0,0,1,0,2.17Z"/><path class="cls-2" d="M48.23,76.6a1.33,1.33,0,0,1-.34,0c-5.37-1.82-8-3.53-8.26-5.43a1.94,1.94,0,0,1,0-.68,3.29,3.29,0,0,1-1.23-1.36,3.84,3.84,0,0,1-.27-2.34,2,2,0,0,1-.83-1.38A2.94,2.94,0,0,1,38.39,63c-.15-1.08-.22-2.82,1-3.61a2.81,2.81,0,0,1,2.45-.11A3,3,0,0,1,43.25,57a3.81,3.81,0,0,1,3.51.39,2.32,2.32,0,0,1,1.31-1.46c1.27-.53,2.8.26,3.91,1.09h0a1.77,1.77,0,0,1,.6-.48c1.29-.67,2.93.33,3.53.75l8.43,3.83C81,65.36,82.05,73.94,82.09,74.31h0a1.09,1.09,0,1,1-2.17.23c0-.13-1.09-7.53-16-11.33l-.19-.07L55.1,59.22a.87.87,0,0,1-.18-.11,3.92,3.92,0,0,0-1.29-.61,1.21,1.21,0,0,0,0,.38,1.09,1.09,0,0,1-1.85.79c-1.08-1.09-2.49-1.86-2.85-1.72,0,0-.25.23-.26,1.29h0a1.1,1.1,0,0,1-.62,1,1.07,1.07,0,0,1-1.14-.13c-1-.77-2.26-1.35-2.61-1.15-.12,0-.4.58-.25,2.08h0a1.06,1.06,0,0,1-.53,1.05A1.1,1.1,0,0,1,42.34,62a3.3,3.3,0,0,0-1.75-.71,3.58,3.58,0,0,0,.06,2,1.1,1.1,0,0,1-.44,1.09,2.48,2.48,0,0,0-.68.69,1.18,1.18,0,0,0,.29.16,1,1,0,0,1,.6.58,1.14,1.14,0,0,1,0,.85,2.15,2.15,0,0,0,0,1.5,1.57,1.57,0,0,0,1.08.72,1.1,1.1,0,0,1,.34,2s.24,1.47,6.81,3.69a1.07,1.07,0,0,1,.62.54,1.11,1.11,0,0,1,.06.84,1.08,1.08,0,0,1-1.1.7Z"/><path class="cls-2" d="M57.53,98.53A7,7,0,0,1,53,96.79a1.09,1.09,0,0,1,1.38-1.68A4.77,4.77,0,0,0,60.92,95,29.66,29.66,0,0,1,66,90.62a1,1,0,0,1,.82-.17,1.06,1.06,0,0,1,.69.46,1.09,1.09,0,0,1-.21,1.52,28,28,0,0,0-4.67,3.95l-.08.09h0a7.46,7.46,0,0,1-5,2.06Z"/><path class="cls-2" d="M72.36,114.39a1.12,1.12,0,0,1-.82-.37,7.18,7.18,0,0,1-.52-.67c-1-1-3.7-2.92-9.34-.6h0a1.1,1.1,0,0,1-1-2,10.3,10.3,0,0,0,2.74-2.17,6.24,6.24,0,0,0-1.72-.21,1.06,1.06,0,0,1-1-.75,1.08,1.08,0,0,1,.39-1.21,1.77,1.77,0,0,0,.33-2.36,22.64,22.64,0,0,1-3.25-6.66,1.1,1.1,0,0,1,.09-.87A1.07,1.07,0,0,1,59,96a1.12,1.12,0,0,1,.86.15,1.07,1.07,0,0,1,.46.74,20.78,20.78,0,0,0,3,5.94,4,4,0,0,1,.44,3.58,2.39,2.39,0,0,1,2,1.54,2.19,2.19,0,0,1-.35,1.72,10.65,10.65,0,0,1,4.56.36,3,3,0,0,1,.13-.59,3,3,0,0,1,.66-1.09c-6-3.25-9-12.8-9.12-13.25a1.09,1.09,0,0,1,2.09-.63c0,.11,3.47,11.1,9.77,12.63a1.09,1.09,0,0,1,0,2.17c-.27.07-1.09.38-1.29.94h0a2.06,2.06,0,0,0,.42,1.57,5.28,5.28,0,0,1,.78,1.09,1.08,1.08,0,0,1-.3,1.43,1.13,1.13,0,0,1-.68.08Z"/><path class="cls-2" d="M114.51,116.71h-.46a1.09,1.09,0,1,1,.14-2.17h.39a1.09,1.09,0,1,1-.07,2.17Z"/><path class="cls-2" d="M113.91,123.79h-.47a1.08,1.08,0,0,1-.75-.37,1.07,1.07,0,0,1-.27-.78,1.12,1.12,0,0,1,.36-.75,1.09,1.09,0,0,1,.79-.27H114a1.09,1.09,0,1,1-.06,2.17Z"/><path class="cls-2" d="M105.23,124.73h-.47a1.11,1.11,0,0,1-.74-.36,1.1,1.1,0,0,1-.28-.79,1.09,1.09,0,0,1,1.16-1h.4a1.09,1.09,0,0,1-.07,2.17Z"/><path class="cls-2" d="M100.62,119.53h-.47a1.09,1.09,0,1,1,.13-2.17h.4a1.1,1.1,0,0,1,1.06,1.12,1.08,1.08,0,0,1-1.12,1Z"/><path class="cls-2" d="M92.73,118.44a1.09,1.09,0,0,1-1.07-.92,1.07,1.07,0,0,1,.73-1.2l.38-.12a1.08,1.08,0,1,1,.67,2.06l-.38.12a.92.92,0,0,1-.33.06Z"/><path class="cls-2" d="M87.67,123.48h-.45a1.09,1.09,0,0,1,.1-2.17h.39a1.09,1.09,0,0,1,1.09,1.09,1.06,1.06,0,0,1-.34.78,1,1,0,0,1-.79.3Z"/><path class="cls-2" d="M83.59,116.33h-.4a1.09,1.09,0,1,1,.09-2.17h.41a1.09,1.09,0,0,1,0,2.17Z"/><path class="cls-2" d="M46.88,111.35a1.09,1.09,0,0,1-.38-2.11,10.2,10.2,0,0,0,2.73-1.39,6.06,6.06,0,0,0-1.39-.43,1.08,1.08,0,0,1-.82-.87,1.11,1.11,0,0,1,.46-1.09l.2-.1a1.5,1.5,0,0,0,.63-1.93,21.7,21.7,0,0,1-1.71-6.17,1.11,1.11,0,0,1,.26-.8,1.09,1.09,0,0,1,1.91.62,19.5,19.5,0,0,0,1.55,5.51,3.68,3.68,0,0,1-.2,3.25,2.2,2.2,0,0,1,1.47,1.78c0,.49.14,2-4.34,3.64h0a1.25,1.25,0,0,1-.37.09Z"/><path class="cls-2" d="M56.51,114.72a1.1,1.1,0,0,1-.92-.52,5.17,5.17,0,0,1-.43-4.52,2.64,2.64,0,0,1,.67-.74C52.44,106,51,100.59,50.4,97.31A1.11,1.11,0,0,1,51.29,96a1.1,1.1,0,0,1,1.28.89c.5,2.77,2.11,9.41,6.17,11.32a1.11,1.11,0,0,1,.6,1.21,1.08,1.08,0,0,1-1.09.85,1.69,1.69,0,0,0-1.26.55c-.26.42-.13,1,.25,1.81a2.18,2.18,0,0,0,.22.43,1.06,1.06,0,0,1-1,1.63Z"/><path class="cls-2" d="M56.56,114.82a1.07,1.07,0,0,1-.76-.31,1.36,1.36,0,0,1-.26-.41,2.73,2.73,0,0,0-.23-.45c-.63-1.09-2.69-3.36-8.22-2.32a1.12,1.12,0,0,1-.5-2.18h.09c6.88-1.3,9.63,1.89,10.5,3.33a4.83,4.83,0,0,1,.35.68v.07a1.14,1.14,0,0,1-1,1.59Z"/></g></g></svg>