<svg xmlns="http://www.w3.org/2000/svg" viewBox="0 0 141.2 141.2"><defs><style>.cls-1{fill:none;}.cls-2{}</style></defs><g id="Calque_2" data-name="Calque 2"><g id="Layer_1" data-name="Layer 1"><rect class="cls-1" width="141.2" height="141.2" rx="70.6"/><path class="cls-2" d="M99.54,47.34v-.16a4.89,4.89,0,0,1-.66,0H96.73a5.53,5.53,0,0,1-5.52-5.52H93.1a3.63,3.63,0,0,0,3.63,3.63h2.15a3.58,3.58,0,0,0,3.47-2.7v-.93h4a4,4,0,0,0-2.27-3.59l-1.85-.89-2.52-5a3.25,3.25,0,0,0-2.9-1.8H90.69a1.37,1.37,0,0,0-1.28,1.83L90,33.84a9.75,9.75,0,0,0-6,6.26L79.33,54.73a9.32,9.32,0,0,1-7,6.33l-9.36,1.87L42.63,39.68,41,42.05a35.64,35.64,0,0,0-6.14,20v.3a35.63,35.63,0,0,0,7.55,22c3.51,4.49,7,9,7.36,9.44a18,18,0,0,0-5.85,4.46,7.8,7.8,0,0,0,6.14,12.59,8.22,8.22,0,0,0,1-.06,7.72,7.72,0,0,0,5.18-3A17.79,17.79,0,0,0,59,101.5a15.68,15.68,0,0,0,.77,1.71,18.37,18.37,0,0,0,5,6.07,7.82,7.82,0,0,0,10.87-1.93,6.83,6.83,0,0,0,.49-.82,7.8,7.8,0,0,0,7,4.27,8.18,8.18,0,0,0,1-.06,7.74,7.74,0,0,0,5.19-3,18.42,18.42,0,0,0,3-7.27c.62-3.44.08-6-1.55-7.28a3.18,3.18,0,0,0-.66-.41l4.37-5A33.15,33.15,0,0,0,102,59.68Zm-2.1-10.09a1.23,1.23,0,1,1-1.23,1.23A1.23,1.23,0,0,1,97.44,37.25ZM59,75.59h2.28L54.9,85h9.17A20.92,20.92,0,0,0,85,64.09V63h1.88v1.05a22.8,22.8,0,0,1-22.8,22.8H51.36Zm-1.6,24.58a16.69,16.69,0,0,1-2.61,6.46,5.92,5.92,0,0,1-9.35-7.26A16.52,16.52,0,0,1,51,95.24a9.54,9.54,0,0,1,3.79-1,2.73,2.73,0,0,1,1.7.48c1,.8,1.34,2.79.85,5.46Zm16.72,6.1a5.93,5.93,0,0,1-8.24,1.47,16.63,16.63,0,0,1-4.4-5.4c-1.26-2.41-1.55-4.4-.81-5.46.57-.82,1.86-1.25,3.64-1.25a14.35,14.35,0,0,1,1.77.12A16.84,16.84,0,0,1,72.64,98a5.89,5.89,0,0,1,2.44,3.82,5.83,5.83,0,0,1-1,4.42Zm16.29-6.1a16.69,16.69,0,0,1-2.61,6.46,5.92,5.92,0,1,1-9.35-7.26,16.52,16.52,0,0,1,5.62-4.13,9.54,9.54,0,0,1,3.79-1,2.76,2.76,0,0,1,1.7.48c1,.8,1.33,2.79.85,5.46Z"/></g></g></svg>