<svg xmlns="http://www.w3.org/2000/svg" viewBox="0 0 141.2 141.2"><defs><style>.cls-1{fill-rule:evenodd;}.cls-2{fill:none;}</style></defs><g id="Calque_2" data-name="Calque 2"><g id="Layer_1" data-name="Layer 1"><path class="cls-1" d="M89.62,58.59a2.61,2.61,0,0,1-1.91.74c-1.95,0-4.5-1.54-6.52-3.56a1,1,0,0,1,0-1.37,1,1,0,0,1,1.38,0c2.75,2.75,5.19,3.3,5.68,2.82a1,1,0,0,1,1.37,1.37m-12,.71c-1.77,1.78-2.21,3.29-2.09,3.59a1,1,0,0,1,0,1.36.93.93,0,0,1-.68.28,1,1,0,0,1-.71-.3c-1.44-1.44.09-4.28,2.12-6.31a1,1,0,0,1,1.37,0,1,1,0,0,1,0,1.38M74.14,69.91a1,1,0,1,1,1.38,1.38,18.05,18.05,0,0,0-3.27,4,.94.94,0,0,1-.26.91,1,1,0,0,1-1.37,0c-.38-.38-1.39-1.39,3.52-6.31m-5.67,0a20.78,20.78,0,0,1-2.85,2.41,3.83,3.83,0,0,1-1.88.76,1.22,1.22,0,0,1-.88-.35,1,1,0,0,1,0-1.38,1,1,0,0,1,1-.24,13.37,13.37,0,0,0,3.27-2.58,1,1,0,0,1,1.38,1.38m-9.17,12a3.1,3.1,0,0,1-2.27.87,7.11,7.11,0,0,1-4.75-2.28,1,1,0,0,1,1.38-1.37c1.62,1.62,3.59,2.08,4.27,1.41a1,1,0,0,1,1.37,1.37M56.48,93.15a1,1,0,0,1-.69.28.94.94,0,0,1-.68-.28c-2-2-3.56-4.87-2.12-6.32a1,1,0,0,1,1.4,1.36c-.11.33.34,1.83,2.09,3.58a1,1,0,0,1,0,1.38M98.8,54.07H96.21a10.89,10.89,0,0,0-2.41-5.3l1.46-1.46a1,1,0,0,0-1.37-1.37L92.42,47.4A10.86,10.86,0,0,0,87.14,45V42.39a1,1,0,0,0-1-1h0a1,1,0,0,0-1,1v2.46a11,11,0,0,0-6.8,2.54l-2.17-2.17a1,1,0,0,0-1.37,0,1,1,0,0,0,0,1.38L77,48.74,74.13,51.6,72.7,50.17a1,1,0,0,0-1.38,0,1,1,0,0,0,0,1.37L72.75,53,69.9,55.83l-2.14-2.14a1,1,0,0,0-1.37,0,1,1,0,0,0,0,1.38l2.13,2.13-2.86,2.86-1.42-1.43A1,1,0,0,0,62.86,60l1.43,1.42-2.86,2.86L59.3,62.16a1,1,0,1,0-1.37,1.37l2.13,2.13L57.2,68.52l-1.42-1.43a1,1,0,0,0-1.38,1.38l1.43,1.42L53,72.75l-2.13-2.13a1,1,0,0,0-1.38,0,1,1,0,0,0,0,1.37l2.14,2.14L48.74,77l-1.43-1.43a1,1,0,0,0-1.37,0,1,1,0,0,0,0,1.38l1.46,1.46a10.86,10.86,0,0,0-2.54,6.8H42.4a1,1,0,1,0,0,1.94H45a10.71,10.71,0,0,0,2.4,5.29l-1.46,1.47a1,1,0,0,0,0,1.37,1,1,0,0,0,.69.29,1,1,0,0,0,.68-.29l1.47-1.46a10.86,10.86,0,0,0,5.29,2.4v2.6a1,1,0,1,0,1.94,0V96.34a11,11,0,0,0,6.8-2.54l1.46,1.46a1,1,0,0,0,1.38,0,1,1,0,0,0,0-1.37l-1.43-1.43,2.85-2.86,2.14,2.14a1,1,0,0,0,1.37,0,1,1,0,0,0,0-1.38l-2.13-2.13,2.85-2.86,1.43,1.43a1,1,0,0,0,1.38,0,1,1,0,0,0,0-1.38L72.68,84l2.86-2.86,2.13,2.13a1,1,0,0,0,.69.29,1,1,0,0,0,.68-.29,1,1,0,0,0,0-1.37l-2.13-2.13,2.86-2.86,1.42,1.43a1,1,0,0,0,1.38,0,1,1,0,0,0,0-1.38l-1.43-1.42L84,72.68l2.13,2.13a1,1,0,0,0,.69.29.94.94,0,0,0,.68-.29,1,1,0,0,0,0-1.37L85.37,71.3l2.86-2.85,1.43,1.43a.94.94,0,0,0,.68.28,1,1,0,0,0,.69-.28,1,1,0,0,0,0-1.38L89.6,67.07l2.86-2.85,2.13,2.13a1,1,0,0,0,1.38,0A1,1,0,0,0,96,65L93.8,62.81A10.86,10.86,0,0,0,96.34,56H98.8a1,1,0,1,0,0-1.94"/><rect class="cls-2" width="141.2" height="141.2" rx="70.6"/></g></g></svg>