<svg xmlns="http://www.w3.org/2000/svg" viewBox="0 0 141.2 141.2"><defs><style>.cls-1{fill:none;}.cls-2{}</style></defs><g id="Calque_2" data-name="Calque 2"><g id="Layer_1" data-name="Layer 1"><rect class="cls-1" width="141.2" height="141.2" rx="70.6"/><path class="cls-2" d="M78.24,54.17,78,57.65a1.58,1.58,0,0,0,1.58,1.58h3.84A1.58,1.58,0,0,0,85,57.65l-.25-3.49a98.5,98.5,0,0,1,0-14.27L85,36.4a1.58,1.58,0,0,0-1.58-1.58H79.56A1.57,1.57,0,0,0,78,36.4l.25,3.49A100.09,100.09,0,0,1,78.24,54.17Z"/><path class="cls-2" d="M84.75,91.26,85,87.78a1.58,1.58,0,0,0-1.58-1.58H79.58A1.58,1.58,0,0,0,78,87.78l.25,3.49a98.5,98.5,0,0,1,0,14.27L78,109a1.58,1.58,0,0,0,1.58,1.58h3.84A1.57,1.57,0,0,0,85,109l-.25-3.49a100.09,100.09,0,0,1,0-14.28Z"/><path class="cls-2" d="M69,52.84a1.57,1.57,0,0,0,1.58,1.57l3.84,0A1.57,1.57,0,0,0,76,52.81l-.26-3.49A98.64,98.64,0,0,1,75.63,35l.24-3.48A1.58,1.58,0,0,0,74.28,30H70.44a1.59,1.59,0,0,0-1.57,1.59l.27,3.48a100.09,100.09,0,0,1,.06,14.28Z"/><path class="cls-2" d="M69.08,78.53a1.59,1.59,0,0,0,1.59,1.57l3.84,0a1.58,1.58,0,0,0,1.57-1.59L75.81,75a100.08,100.08,0,0,1-.06-14.28L76,57.25a1.56,1.56,0,0,0-1.58-1.57H70.56A1.58,1.58,0,0,0,69,57.28l.26,3.48A98.64,98.64,0,0,1,69.32,75Z"/><path class="cls-2" d="M75.86,86.42l.24-3.49a1.59,1.59,0,0,0-1.59-1.57l-3.84,0A1.57,1.57,0,0,0,69.1,83l.27,3.49a100.08,100.08,0,0,1,.06,14.28l-.23,3.48a1.56,1.56,0,0,0,1.58,1.57h3.84a1.58,1.58,0,0,0,1.57-1.59l-.26-3.48A98.64,98.64,0,0,1,75.86,86.42Z"/><path class="cls-2" d="M86.44,57.86c8.31-6.19,9.17-14,9.17-14-6,3.8-8.82,10.78-9.74,13.59l6.25-8.22Z"/><path class="cls-2" d="M86.1,61.21l2.68,3.52L85.87,61.4a9.5,9.5,0,0,0,4.73,5.38A11.27,11.27,0,0,0,86.1,61.21Z"/><path class="cls-2" d="M58.48,86.81c-9.14,4.86-11.16,12.43-11.16,12.43,6.51-2.86,10.34-9.33,11.67-12l-7.41,7.18Z"/><path class="cls-2" d="M58.32,85.47l-7.81-1.76,7.9,1.23c-7-3.86-12.82-2-12.82-2,4.63,3,10.45,2.73,12.73,2.48Z"/><path class="cls-2" d="M53.53,76.43c.55,3.63,3.36,6.42,4.53,7.45L55.4,79.2l3,4.49a11.45,11.45,0,0,0-4.84-7.26Z"/><path class="cls-2" d="M66.86,56.87a14.37,14.37,0,0,1-2.66,3h1.21A1.58,1.58,0,0,0,67,58.26l-.1-1.44Z"/><path class="cls-2" d="M60.5,49.07a56.58,56.58,0,0,1,5,3C64.06,49.67,62,45.3,62.51,40.58l.15-1.35,1,1A14.35,14.35,0,0,1,66.54,45c0-1.51.11-3,.22-4.53L67,37a1.58,1.58,0,0,0-1.58-1.58H61.6A1.57,1.57,0,0,0,60,37l.25,3.49q.3,4.29.23,8.58Z"/><path class="cls-2" d="M66.46,55.31c-1.52-.41-3.67-1-6.12-2,0,.47-.05.94-.09,1.41L60,57.88a10.47,10.47,0,0,1,5.91-2.51Z"/><path class="cls-2" d="M67,62.7a1.58,1.58,0,0,0-1.58-1.58H62.28a9,9,0,0,1-2.07.78,1.63,1.63,0,0,0-.21.79l.24,3.49a100.09,100.09,0,0,1,0,14.28L60,83.94a1.58,1.58,0,0,0,1.58,1.58h3.84A1.59,1.59,0,0,0,67,84l-.25-3.49a100,100,0,0,1,0-14.27Z"/><path class="cls-2" d="M67,88.39a1.57,1.57,0,0,0-1.57-1.58H61.55A1.57,1.57,0,0,0,60,88.38l.24,3.49a100,100,0,0,1,0,14.27l-.26,3.49a1.58,1.58,0,0,0,1.58,1.58h3.84a1.57,1.57,0,0,0,1.58-1.57l-.25-3.49a100,100,0,0,1,0-14.27Z"/><path class="cls-2" d="M66.32,56.51l-5.14,2.88L66,56a9.12,9.12,0,0,0-7.8,5.5C62.57,61.45,65.33,58,66.32,56.51Z"/><path class="cls-2" d="M49.45,46.37c7.39,6.13,13.9,7.48,17.82,8.48L57.53,50l10,4.28c-11.38-8.5-18-7.91-18-7.91Z"/><path class="cls-2" d="M63.16,40.65c-.55,5.3,2.24,10.18,3.46,12L64.7,45.19l2.41,7.33c.22-7.75-4-11.87-4-11.87Z"/><path class="cls-2" d="M85,62.09a1.58,1.58,0,0,0-1.58-1.58H79.57A1.57,1.57,0,0,0,78,62.09l.25,3.49c.21,2.89.28,5.78.24,8.68a12.09,12.09,0,0,1,3.83-3.56l1.38-.77-.26,1.56a12.21,12.21,0,0,1-5.13,7.33c0,.09,0,.18,0,.28a23,23,0,0,1,6.32-1.24,100.64,100.64,0,0,1,.12-12.28Z"/><path class="cls-2" d="M79.58,84.92h3.84A1.58,1.58,0,0,0,85,83.34l-.11-1.53a19.17,19.17,0,0,1-4.19.46,21.81,21.81,0,0,1-2.61-.17L78,83.34a1.58,1.58,0,0,0,1.58,1.58Z"/><path class="cls-2" d="M76.59,80.57l8-.66-7.9,1.19c7.88,1.58,12.81-2,12.81-2-5.31-1.48-10.79.52-12.89,1.44Z"/><path class="cls-2" d="M77.48,78.47a11.66,11.66,0,0,0,5.21-7.1c-3.27,1.84-4.94,5.43-5.5,6.89l3.52-4.16Z"/></g></g></svg>