<svg xmlns="http://www.w3.org/2000/svg" viewBox="0 0 141.2 141.2"><defs><style>.cls-1{}.cls-2{fill:none;}</style></defs><g id="Calque_2" data-name="Calque 2"><g id="Layer_1" data-name="Layer 1"><path class="cls-1" d="M51.48,101.73c-2.37,0-4.22.09-6.06,0a12.33,12.33,0,0,1-3.89-.76c-2.32-1-4.55-2.12-6.79-3.24-1.93-1-3-2.77-4.31-4.38-.6-.75-1.15-1.53-1.69-2.33a3.46,3.46,0,0,1,.38-4.61c1.51-1.56,3.16-3,4.63-4.37-1.7-1-3.62-2.08-5.37-3.34a9.85,9.85,0,0,1-3.6-5.19A3.67,3.67,0,0,1,24.87,71,9.51,9.51,0,0,1,31.4,65.5q5.3-1.17,10.66-2c5.25-.83,10-3,15-4.82,4.34-1.6,7.35-4.86,10.44-8.07,2.1-2.17,4.1-4.41,6.39-6.43A24.73,24.73,0,0,1,78,41.62c3-1.74,6-3.44,9-5.23A3.35,3.35,0,0,0,88.6,33.1a3.31,3.31,0,0,0-1.72-3,2.56,2.56,0,0,1-1.12-3.44c0-.08.08-.14.12-.21a28.46,28.46,0,0,1,2.31-3.35c8,2.2,15.72,4.34,23.53,6.76-.45,1.41-.77,2.53-1.18,3.62-.83,2.24-1.38,2.51-3.76,2.34a22.4,22.4,0,0,0-3.06.24c.37,2.51,1.08,4.72,3.17,5.91,5.2,3,7.36,7.85,8.84,13.23,1.63,5.92.7,11.72-.59,17.57-1.42,6.39-4.56,12-7.65,17.64a27.17,27.17,0,0,1-2.69,3.53,50.25,50.25,0,0,1-9.2,9.23c-1.95,1.44-3.7,3.15-5.59,4.67a18.07,18.07,0,0,1-2.79,1.78c-3,1.56-5.94,3.32-9.28,4.17a2,2,0,0,0-.62.25c-3,2-6.54,2.8-10,3.41-6.13,1-12.16,1.16-17.72-2.19-2.19-1.33-3.39-3.48-4.55-5.58-.73-1.33.07-2.58,1.16-3.51C47.82,104.79,49.46,103.43,51.48,101.73Zm-3.66,9.59A14.6,14.6,0,0,0,55.07,115a24.43,24.43,0,0,0,8,.29C68,114.7,72.9,114,77.44,111.8a67.58,67.58,0,0,0,6.44-3.47,95.86,95.86,0,0,0,8.58-5.83c2.77-2.18,5.22-4.77,7.88-7.11a42.22,42.22,0,0,0,8-10,14.88,14.88,0,0,0,1.53-3c1-2.94,1.91-5.91,2.8-8.88a34.18,34.18,0,0,0,.73-18.41,19.46,19.46,0,0,0-3.8-7.45c-1.83-2.3-4.52-3.74-6.38-6.1a5.23,5.23,0,0,1-1.41-3.09V35.9l-2.12-.44a11.67,11.67,0,0,1,.26,1.31c.26,2.56.19,5-1.63,7.14a12.76,12.76,0,0,0-3.58,8.62,12.54,12.54,0,0,1-.45,2.85A85,85,0,0,1,86.68,77.1c-4,7.49-9.34,13.92-16.77,18.22a160.84,160.84,0,0,1-14.83,7.49,20.47,20.47,0,0,0-6.55,4.4Zm47.64-76.9c-.45,1.1-.77,2-1.19,2.86-1.27,2.64-3,4.72-6.16,5.16A5,5,0,0,0,86,43.54a40,40,0,0,0-8.7,9.7,95.58,95.58,0,0,1-7,9.67,130.93,130.93,0,0,1-9.49,9.65c-2.36,2.22-4.65,4.67-7.72,5.91s-6.55,2.26-9.85,3.3c-1.2.37-2.51.41-3.68.83-2.21.8-4.39,1.73-6.53,2.7a2,2,0,0,0-1.23,2.34,20.82,20.82,0,0,1-.15,3.53c.44.54,1.15,1.38,1.84,2.25A17.14,17.14,0,0,0,45.9,99.83a66.31,66.31,0,0,0,8.22,0,10.07,10.07,0,0,0,3.42-.73c2-.85,4-2,6-2.87A40.8,40.8,0,0,0,81.36,81.76,54.69,54.69,0,0,0,88.68,67.1a88.74,88.74,0,0,0,4-14.3c.62-4.09,1.81-7.74,4.58-10.83a2.8,2.8,0,0,0,.64-1.37,9.73,9.73,0,0,0-.3-5.5ZM90.94,32.8A7.47,7.47,0,0,0,90.6,34a5.57,5.57,0,0,1-3.36,4.63,20.26,20.26,0,0,0-1.92,1.1c-3.09,1.87-6.18,3.73-9.24,5.65a15,15,0,0,0-2.42,2c-2.59,2.53-5.1,5.14-7.71,7.66a21.12,21.12,0,0,1-7.83,5.28c-2.17.73-4.25,1.72-6.4,2.52-3.82,1.4-7.63,2.85-11.75,3.21-2.35.2-4.7.58-7,1a5.67,5.67,0,0,0-5.13,5.18c-.1.58-.27,1.15-.39,1.66,1.43,3.44,4.22,5,7.63,5.72,2.61.51,5.22,1,7.87-.09a45.13,45.13,0,0,1,6.11-1.93,17.73,17.73,0,0,0,7.48-4.12c3.52-3.16,6.85-6.54,10.21-9.87a50.8,50.8,0,0,0,8-10.34A38.36,38.36,0,0,1,84.6,42c1.47-1.11,2.88-2.35,4.92-2.34a1.45,1.45,0,0,0,1.14-.56c.85-1.63,1.6-3.3,2.35-5,.07-.15-.11-.4-.19-.67Zm18.46-1.29L88.49,25.1c-.34,1.09-.67,2.12-1.08,3.43,2.57.4,4.19,2.37,6.46,3.07a55.42,55.42,0,0,0,7.07,1.9,70.44,70.44,0,0,0,7.25.5C108.65,33.1,109,32.31,109.4,31.51Z"/><path class="cls-1" d="M101.44,47.75a8.25,8.25,0,0,1,.74,5.35C100.73,61.36,98.74,69.47,95,77a40.06,40.06,0,0,1-8.23,10.65,57.46,57.46,0,0,1-9.91,8.16c-4.27,2.63-8.52,5.32-13.29,7-1.53.55-3,1.37-4.45,2-.78.34-1.6.58-2.4.87l-.22-.4a4.31,4.31,0,0,1,1-1c2.55-1.32,4.87-3.13,7.76-3.75A5.42,5.42,0,0,0,66.6,100l6.51-3.74a44,44,0,0,0,10.54-8,73.35,73.35,0,0,0,6.09-6.74,64.9,64.9,0,0,0,5.14-8.79,34.61,34.61,0,0,0,2-5.86c1-3.26,1.88-6.53,2.7-9.83a36.88,36.88,0,0,0,.79-5A12,12,0,0,1,101.44,47.75Z"/><path class="cls-1" d="M38.37,87.5a3.9,3.9,0,0,1,2.69-2l7.15-2.4c5.23-1.72,10-4.47,14.83-7A52.38,52.38,0,0,0,74.6,68,53,53,0,0,0,84.7,55.42c1.33-2.3,2.55-4.67,3.82-7,.11-.2.18-.46.35-.56.46-.27,1-.75,1.45-.63.77.22.79,1,.45,1.65-1.32,2.56-2.56,5.17-4,7.64s-3.26,4.92-4.94,7.35C79,68,75.18,70.93,71.17,73.77s-8.3,4.8-12.5,7.12a71.12,71.12,0,0,1-10.55,4.52,68.87,68.87,0,0,1-7.07,1.9A17.17,17.17,0,0,1,38.37,87.5Z"/><path class="cls-1" d="M59.69,64.59a5.38,5.38,0,0,1-1.13.94,101.17,101.17,0,0,1-19.21,6.08,16.74,16.74,0,0,1-4,.14c-1,0-1-.1-2.1-1.39,9.22-.46,17.58-3.86,26.19-6.26Z"/><rect class="cls-2" width="141.2" height="141.2" rx="70.6"/></g></g></svg>