<svg xmlns="http://www.w3.org/2000/svg" viewBox="0 0 141.2 141.2"><defs><style>.cls-1{fill:none;}.cls-2{}</style></defs><g id="Calque_2" data-name="Calque 2"><g id="Layer_1" data-name="Layer 1"><rect class="cls-1" width="141.2" height="141.2" rx="70.6"/><path class="cls-2" d="M115.56,37.85a7.4,7.4,0,0,1-3.61-1,23,23,0,0,0-3-1.69,23.66,23.66,0,0,0-6.37-1.56h-.24a11.18,11.18,0,0,0-6.13-1.32,4.4,4.4,0,0,0-3.13,1.8c-2.4,1-4.81,2-7.21,3.25a45.88,45.88,0,0,0-6.61,4,3.41,3.41,0,0,0-.85,1h-.24a13.07,13.07,0,0,0-6.61,4c-1,1-2,1.92-3,3a10.36,10.36,0,0,0-1.2,1.92,4,4,0,0,0-.49,1.08,2.11,2.11,0,0,0-.48-.6c-.24-.36-.36-.72-.6-1.08a.44.44,0,0,1-.12-.36,15.27,15.27,0,0,0-.84-2l-.36-1.44a4.07,4.07,0,0,0-1.08-1.68A8.38,8.38,0,0,0,60.14,41a.12.12,0,0,1-.12-.12.12.12,0,0,1-.12-.12c-1-1.44-3.36-1.92-4.68-2.76-.25-.12-.49,0-.49.36v1.08a15.19,15.19,0,0,1-3,3.85,10.22,10.22,0,0,0-1.92,2c-.73.84-1.45,1.8-1.09,3a.12.12,0,0,0-.12.12,10,10,0,0,0-2.76,4.44A5.14,5.14,0,0,0,47,58.64a11.12,11.12,0,0,0,2.17,8.06,11.94,11.94,0,0,0-7.1,0,.12.12,0,0,0-.12.12h-.48a24,24,0,0,0-7,1.8c-2,.84-3.61,2.64-5.29,4.21a5.08,5.08,0,0,0-1.68.72L25.41,75l-.12.12a13,13,0,0,0-3.37,3.49,2.11,2.11,0,0,1-.48.6c-1.68,1.56-3.13,3.36-3.13,5.41a8.6,8.6,0,0,0-3.48,4.2,21.44,21.44,0,0,0-1.44,3.85,11.34,11.34,0,0,0-.72,5A76.19,76.19,0,0,0,14,106.85a3.2,3.2,0,0,1-.36,1.44.23.23,0,0,0,.12.36c0,.24.24.36.36.24,1.56-.6,3.24-1.2,4.81-1.8.48-.12.84-.24,1.2-.36a.42.42,0,0,0,.24.12,12,12,0,0,0,7.33-1.33c.48-.24,1.08-.48,1.56-.72a2.27,2.27,0,0,0,.85-.24,13,13,0,0,0,5.53-2.88.12.12,0,0,0,.12-.12c3-.85,5.65-2.29,6.85-5.41V96a21,21,0,0,0,6.13-2.53,12.78,12.78,0,0,0,3.36-3.36c.12-.12.36-.24.48-.36a8.78,8.78,0,0,0,4-5.41c.12-.72.24-1.33.36-2.05v.24a31,31,0,0,0,1.2,8.78c.61,2.64,1.21,5.65,3,7.81a.44.44,0,0,0,.36.12c.84-.24,1.8-.6,2-1.56a.44.44,0,0,0-.12-.36c-1.92-5.17-2.64-10.58-3.36-16,.36.12.84.24,1.32.36a12.4,12.4,0,0,0,4.93,3.13c3.12,1.32,6.37.84,9.5,1.92a8.25,8.25,0,0,0,2.88.6,8.41,8.41,0,0,0,3.85-.6c.24,0,.36-.12.6-.12s.36-.12.6-.24.12,0,.12-.12a.62.62,0,0,0,.24-.48c0-.12-.12-.24-.12-.36a.92.92,0,0,0-.6-.24c-.24-.12-.36-.36-.6-.6-.36-1.21-.12-3.25-.36-4.21a2.14,2.14,0,0,0-1-1.32c-.12-.24-.12-.48-.25-.72v-.12c-.11-.24-.11-.48-.24-.85-.72-2.16-1.2-4.68-2.28-6.73a7.2,7.2,0,0,0-2.28-2.4c4,1,9.85,1.44,12.5-1.8a3.78,3.78,0,0,0,.84-1.09,4.26,4.26,0,0,0,.48-1.08v-.12a15.54,15.54,0,0,0,10.46-8.53V55.4A14.23,14.23,0,0,0,110.15,49a4.76,4.76,0,0,0,3.25-3,11.61,11.61,0,0,0,1-2.88,6.93,6.93,0,0,1,.12-1.57v-.12a9.41,9.41,0,0,1,1.08-2.88l.48-.48c0,.24-.12-.24-.48-.24Zm-22.48,3c.84-1.8,1.56-6.61,4-7.57,2-.12,3.85,1,5.65,1.92a26.8,26.8,0,0,1,4.45,3,10.6,10.6,0,0,0-7.34,1.2C96.93,41,94,42.54,91,44a9.43,9.43,0,0,0,2-3.13Zm2.53,3.37a14.39,14.39,0,0,1,3.84,1.92A22.77,22.77,0,0,0,88.51,47.7c2-1.92,4.21-4.08,7.1-3.48ZM80.46,42.41l.24-.24A52.65,52.65,0,0,1,91,36.28a26.27,26.27,0,0,1-.6,3c-.24.84-.48,1.56-.72,2.4-.25.6-.48,1.2-.73,1.81a15.11,15.11,0,0,1-4.92,5.4c-2.41,1.69-5.77,2.65-8.18,4.69a58.67,58.67,0,0,1,1.44-6.25,35.86,35.86,0,0,1,3.13-4.93ZM68.56,56a19.6,19.6,0,0,1,2.16-5.77,17,17,0,0,1,5.41-5.53c-1,2.88-1,5.77-1.68,8.65-.84,3.37-3.13,5.77-5.89,7.82a23.23,23.23,0,0,0-.12-3A12.34,12.34,0,0,0,68.56,56ZM67.12,66a3.3,3.3,0,0,0,0-1.09h.72a17.21,17.21,0,0,1,5.77,2.77c-2.17-.6-4.81-.36-6.61-1.56.12,0,.12,0,.12-.12Zm-1.45-3.13c.12.48.24.84.36,1.32.12.84-.6,1.08-1.2,1.2a7.79,7.79,0,0,0,.84-2.52Zm-.12,3.61a12.75,12.75,0,0,1-1.08,1.32c-.12.12-.36.24-.48.36a.12.12,0,0,0-.12.12,3,3,0,0,1-1.44.24,4.42,4.42,0,0,1,3.12-2Zm-4.2,1.08a3.14,3.14,0,0,1,1.2-3.13A3.71,3.71,0,0,1,61.35,67.54Zm3.48-5.05c0,.24-.12.6-.12.84a6.09,6.09,0,0,1-1.08,1.92c0-.48-.12-1-.12-1.44l.12-.12a9.74,9.74,0,0,1,1.2-1.08c-.12,0,0-.12,0-.12Zm-3-7A39.57,39.57,0,0,0,64,48.18,16.18,16.18,0,0,1,61.47,62c-.36.36-.72.84-1.09,1.2-.12.12-.24.12-.36.24-1.32-1.32-.84-3-.12-4.69.24-.48.48-.84.73-1.32,0-.12.12-.24.12-.36a6.1,6.1,0,0,0,1.08-1.56Zm-7.1,11.9a3,3,0,0,1,2.41.72l.12.12c-1.08.24-2.28.24-2.53-.84Zm-1.8,1.08c.24-.12.6-.36.84-.48l.48.48a4.84,4.84,0,0,0-1.32,0Zm.6,1.2-.36.36c-.12-.12-.36-.24-.48-.36l-.12-.12A2.34,2.34,0,0,1,53.53,69.7Zm-1.68-6.49a3.81,3.81,0,0,1-2.4-1.8,5.1,5.1,0,0,1-.24-1.32c1.2.72,2.88.6,4.2.84a8,8,0,0,1,4.81,2.4,15.29,15.29,0,0,0-3.24.24,13.86,13.86,0,0,1-3.13-.36Zm2.4,6.85c0-.12.25-.24.37-.36a8.27,8.27,0,0,0,1,.36,1.33,1.33,0,0,1-1.33.24ZM56.78,66c.36-.12.84-.25,1.32-.37s1.2.12,1.32.73a1.43,1.43,0,0,1-.48,1.32A2.89,2.89,0,0,1,56.78,66Zm3.73-22.24c3,4.8-1.21,10.33-2.65,15.26l-.36-.72c-.12-1-.24-1.92-.48-3V53.59a19.53,19.53,0,0,1,.84-3.6c.72-2.17,2.65-4,2.65-6.25Zm-4.93.84c.12-1.32.12-2.65.12-4v-.24a8.27,8.27,0,0,0,1,.36,3.88,3.88,0,0,1,1,2.53,5.89,5.89,0,0,1-1.2,3.12c-.24.48-.6,1.08-.84,1.56a7.91,7.91,0,0,1,0-3.36Zm-.72-2.41c-.25,3-.48,6-.48,9C50.53,49.15,53.41,45.06,54.86,42.17ZM47.4,52c.24-.36.6-.84.84-1.2a10.51,10.51,0,0,0,1-1.2,1.87,1.87,0,0,0,.72,1A8.11,8.11,0,0,0,54,53.11h.6c0,.48.12,1,.12,1.45a19.56,19.56,0,0,0,1.09,4.32,8.87,8.87,0,0,0-3.13-1.08C50.17,57.2,46,55,47.4,52Zm2.89,17.19a.12.12,0,0,0,.12.12,13.12,13.12,0,0,1,1.8,1,4.7,4.7,0,0,1,1.2,1,9.2,9.2,0,0,1-2.76-1.2,23.07,23.07,0,0,0-2.17-1.56,11.36,11.36,0,0,1,1.81.72Zm-7.82-.48c3.37.24,6,2.28,8.9,3.73a37.36,37.36,0,0,1-11.54,1.08c-2.16-.12-4.33-.6-6.49-.84l-2.53-.36c3.13-3.25,7.46-3.85,11.66-3.61ZM20.6,81.84A21,21,0,0,1,23.36,79a14.84,14.84,0,0,1,6-3.37,15.15,15.15,0,0,1,6.13-.36c1.32.12,2.53.6,3.85.84-3,1-5.65,2.53-8.66,3.85l-.72.36c-1,.24-1.92.6-2.88.84-.72.12-1.44.36-2.17.48-1,.24-1.92.6-2.88.84-.6.24-1.32.36-2,.61a12.12,12.12,0,0,0,.6-1.21Zm-2.29,4.69c1.44-1.44,3.73-1.92,5.65-2.4,1.57-.36,3-.72,4.57-1l-.72.72a13.31,13.31,0,0,1-4.09,2.64,29.17,29.17,0,0,0-4.45,1.8,14.6,14.6,0,0,0-5.16,4.93,16.41,16.41,0,0,1,4.2-6.73Zm-3,7.81a11.55,11.55,0,0,1,9.61-6.25c-1.08,1.69-2.16,3.37-3.24,5.17a104.29,104.29,0,0,0-7.21,10.82c-.36-3.36-.49-6.85.84-9.74Zm5.29,11.18a34.13,34.13,0,0,1-4.93,1c.84-1.33,1.8-2.65,2.64-4s1.57-3.13,2.41-4.69a30.35,30.35,0,0,1,1.56-2.64c.12-.12.12-.25.24-.36a38.65,38.65,0,0,1,3.49-3,2.64,2.64,0,0,0,.12,1,21.35,21.35,0,0,1-1.33,7.81c-.12.25-.24.37-.24.61-1.08,1.8-2.16,3.48-4,4.32ZM31.9,95.43c-.12.12-.12.24-.24.36-1.81,3.84-5.17,8.53-9.38,10.09a9,9,0,0,0,1.92-1.8,7.48,7.48,0,0,0,1.08-1.44v-.12a25.31,25.31,0,0,0,2.77-7.09c.72-2.89,1.32-5.89,2.28-8.78a12.59,12.59,0,0,1,4.33-6.13,1.52,1.52,0,0,0,.12.72c0,1.69,0,3.37-.12,5.05-.12,1-.36,2-.48,3,0,.12,0,.24-.12.24a39.68,39.68,0,0,1-1.8,5.29,2.62,2.62,0,0,0-.36.6Zm1.8,4.44c.48-2,2.28-3.24,4.21-4.08l-.24.24a41.35,41.35,0,0,1-4,3.84Zm3.73-.12a44.38,44.38,0,0,0,3.36-3.36,7,7,0,0,1-3.36,3.36Zm2.76-7.33a27.41,27.41,0,0,1-3.48,2.65c-.61.36-1.21.6-1.93,1,.48-1.32.72-2.65,1.08-4,1.81-6.85,4.33-14.3,11.54-17a.12.12,0,0,0,.12-.12A38,38,0,0,1,43,88a34.75,34.75,0,0,1-2.77,4.45ZM53.05,85c-1.56,3.85-5,6.25-8.89,7.45.24-.24.36-.6.6-.84a23.76,23.76,0,0,0,3.36-6.49c1.09-3,2.05-6.49,4.09-8.9a10.36,10.36,0,0,1,3.73-2.4C54.5,77.4,54.5,81.36,53.05,85Zm3.61-13.83c0-.12.12-.24.12-.36.36-.36,1.2-.36,1.56-.48s.6-.12.84-.12.36.12.12.36a2.4,2.4,0,0,1-2.64.6Zm5.17,25.73A.12.12,0,0,0,62,97c-.12.12-.24.12-.36.24v-.12a36.91,36.91,0,0,1-2.77-7.69c-.24-1-.36-1.93-.6-2.89a53,53,0,0,1-.36-6.25c.12.12.36.24.48.36a41.75,41.75,0,0,0,3.49,16.23ZM59.3,76.55l-.36-.72a8.42,8.42,0,0,1-.36-3.48,3.8,3.8,0,0,0,1.93-1.44c-.24,1.8-.85,3.84-1.21,5.64Zm1.45-1.8c.12-.24.12-.48.24-.72a10.56,10.56,0,0,0,.6-1.8c1,2,.84,4.32.84,6.73a7.77,7.77,0,0,0,.24,2.4,6.83,6.83,0,0,1-1.92-6.61Zm6.85,9.62a3.58,3.58,0,0,1-3.13-2.77,21.38,21.38,0,0,1-.72-6.13c.36.36.84.72,1.2,1.08a8,8,0,0,1,2.65,4c.36,1.44.6,3.13,1.56,4.21-.48-.12-1-.24-1.56-.36Zm.84-3.73a1.3,1.3,0,0,1-.12-.6,3.75,3.75,0,0,0,1.32,1.08,4.7,4.7,0,0,1,1,1.2,9.79,9.79,0,0,1,.6,2.53,7.68,7.68,0,0,1-2.76-4.21Zm.36-3.12a10.28,10.28,0,0,1-4.09-2.89c-.24-.24-.36-.6-.6-.84,0-.12,0-.12-.12-.24,3.25-.84,6.73-.36,10.1.48a4.52,4.52,0,0,1,1.8,1.08,20.54,20.54,0,0,1,2.16,2.4c-2.28,0-4.56.48-6.85.48a15.65,15.65,0,0,1-2.4-.47Zm4.33,5.53a12.11,12.11,0,0,0,1.8.84c.48.24,1.08.48,1.68.72.36.12.6.24,1,.36s.61.24,1,.36a3.75,3.75,0,0,1,1.32,1.08c-2.53,0-6.13-.6-6.73-3.36Zm8.65,2.16a17,17,0,0,1-2.4-.48l-1.08-.36A4.36,4.36,0,0,0,77,83.89c-.36-.12-.6-.36-1-.48a23.28,23.28,0,0,1,2.89-.12,2.55,2.55,0,0,1,2.88,1.92Zm-1.32-4a10.34,10.34,0,0,1-7.09.6,20.76,20.76,0,0,1-2.05-1.32c3-.6,6.49-1,9.14.72Zm-4-10.58a22,22,0,0,1,1.69,2.77,1.56,1.56,0,0,1-.73-.12,64.5,64.5,0,0,0-6.73-1c-2.64-.24-5.77-.24-7.93-1.81,1.92-.24,3.85-.6,5.77-1a15.5,15.5,0,0,1,5.77-.48,4.56,4.56,0,0,1,2.16,1.56Zm2.17-3.36c-.48-.24-.85-.48-1.33-.72a29.49,29.49,0,0,1-3.48-1.69A14,14,0,0,0,69,63h-.12c.24-.12.48-.36.72-.48,1.81-.84,4-.48,6.13.24a26.39,26.39,0,0,0,4,1.44,24.58,24.58,0,0,0,2.88.6,20.24,20.24,0,0,0,6,.24c-2,2.77-6.61,3.13-10,2.29Zm14.66-5.41c-2.4,1-5.53.84-8,.84a28.34,28.34,0,0,1-7.7-1.56,11.83,11.83,0,0,0-4.92-.84l.24-.24.6-.61c.84-.6,1.8-1.2,2.76-1.8a24,24,0,0,1,8.66-1.56,14.77,14.77,0,0,1,2.4.24A19.33,19.33,0,0,0,99,56.72a11.76,11.76,0,0,1-5.65,5.17Zm14.91-13c-.84.84-1.69,1.68-2.53,2.4a36.86,36.86,0,0,1-3.72,2,22.58,22.58,0,0,1-2.53,1,60.85,60.85,0,0,1-6.61.24,50.3,50.3,0,0,1-6.25-.85,23,23,0,0,0-5.65-.84c-.12,0-.12,0-.24-.12h-.12A37.83,37.83,0,0,1,91.4,48.18c4.08-1.08,8.41-.72,12.62-.24a12.61,12.61,0,0,0,4.69.61c-.12,0-.36.24-.48.36Zm-1.44-4.33c-1.45,1.08-3.25,1.08-5.05.84A35.33,35.33,0,0,1,95.85,43c1-.36,1.8-.84,2.76-1.21.36-.12.6-.24,1-.36a31.51,31.51,0,0,1,9.5-1.56c-.48,1.68-.72,3.61-2.29,4.69Zm4.32,1.8c-.24-1.08-.72-2-1-3.12s-.36-2.65,1.08-3.13a6.09,6.09,0,0,1,1.57-.24c-1.45,1.92-1.45,4.21-1.69,6.49ZM110,38.69A13.85,13.85,0,0,1,107.75,37a30.76,30.76,0,0,0-3.37-2.17,27.76,27.76,0,0,1,8.54,4,23.2,23.2,0,0,1-2.89-.12ZM125.3,83.17h0v-.25a18.61,18.61,0,0,0,1.56-4.32c0-.12.12-.36.12-.48s.12-.48.12-.72v-.24a3.85,3.85,0,0,1,.36-1.69,6.54,6.54,0,0,0,1-2.28c.48-2.53-.24-6.73-2.4-8.42a6.62,6.62,0,0,0-4-1.08c-1.68.12-3.6,1.32-5.17.72a3.83,3.83,0,0,0-3.6.12c-1.81.84-3.49,2-5.17,3-.12,0-.12.12-.12.24h-.12c-2.77,2.64-8.18,3-11.06,5.77a27.71,27.71,0,0,0-4.09,3.36,23.36,23.36,0,0,0-3.36,3.49,3.47,3.47,0,0,0-1.21,1.44c-2.64,3.37-4.56,7.45-1.92,11.42-2.16.48-4,1.8-6.13,2.41a.26.26,0,0,0-.24.24.12.12,0,0,0-.12.12,2.51,2.51,0,0,0,2.16,3.24,7.82,7.82,0,0,0,2.53-.84,17.09,17.09,0,0,0,1.92-.6A6.47,6.47,0,0,0,87.91,97c.49-.24,1-.36,1.45-.6a11.07,11.07,0,0,0,1,.6c2.64,1.68,5.89,2.16,8.89,2.64A18.44,18.44,0,0,0,109.67,98c1.08-.48,2.17-1,3.25-1.56h1a3.82,3.82,0,0,0,2.52-1.57c.48-.48,1.09-1,1.57-1.44a3.18,3.18,0,0,1,.72-.6c.12-.12.36-.24.48-.36a20.36,20.36,0,0,0,6.13-9.25Zm-6.13-17.31a5.73,5.73,0,0,1,1.92-.85c1-.24,1.68-.72,2.64-.12h.12a6.85,6.85,0,0,1,3.37,3.25c.12.6.24,1.32.36,1.92a9.71,9.71,0,0,1-1,5.17c-2,2.41-4,4.09-7.33,3.73a34.18,34.18,0,0,0-4.93-.36q4.14-3.43,8.65-6.49c.12-.12.12-.12.12-.24a11.19,11.19,0,0,0,1.32-.85c.37-.24,0-.84-.36-.6a11.43,11.43,0,0,1-2,1.21h-.24c-2.28,1.44-4.57,3-6.73,4.44v-.24c.24-1.56-.12-2.88.6-4.44a24.91,24.91,0,0,1,3.49-5.53Zm-6.37-.24C114,65,115,64.53,116.28,65c.36.12.6.36,1,.48h.12a17.85,17.85,0,0,0-2,3.61c-.24.48-.48,1.08-.72,1.56a6.35,6.35,0,0,0-.48,2.53,17.9,17.9,0,0,0-.24,2.52v.12a5.71,5.71,0,0,1-.72,1.81c-1.69,1.08-3.49,2.28-5.17,3.36,1.2-4.33,0-9,1.32-13.34,1.2-.72,2.28-1.44,3.49-2Zm-5.29,4.56c-.48,3.73.48,7.46-.73,11.06l-1.08,1.08c-1.44,1-3,1.93-4.44,2.89-1,.6-2.05,1.2-3,1.92,1.56-3.84.6-8.29,2.4-12.14.12-.12.37-.24.49-.36,2.28-1.2,4.8-2.28,6.37-4.45ZM97.29,74a37.94,37.94,0,0,1,3.85-2,44.34,44.34,0,0,0,5.41-2.41c-2.77,3-7.1,4-10.58,6A15.2,15.2,0,0,1,97.29,74Zm-.12,3.49a16,16,0,0,0,2.28-1.69c-1.32,3.85-.36,8.3-2.4,12-.84.48-1.8,1.09-2.65,1.57.85-3.37-2.16-7.34-.24-10.46,1-.6,2-.84,3-1.44ZM93,80.4a8.94,8.94,0,0,0,0,2.53c.24,2.28,1.56,4.8.48,7-1.56,1-3.24,1.8-4.93,2.64.84-2.16,1.33-4.45,2-6.73.6-1.32,1.44-3.61,2.4-5.41Zm-3.24.48h0c.24-.12.24-.24.24-.36s.12-.24.24-.36a32.58,32.58,0,0,1,2.88-2.88,23.21,23.21,0,0,1,2.17-1.69c-.12.24-.12.36-.25.6s-.36.24-.6.36a6.62,6.62,0,0,0-1.32,1.21,19.27,19.27,0,0,0-4.45,7.33,6,6,0,0,1,1.09-4.21Zm-2,2.53a8.9,8.9,0,0,0,.6,3,42.49,42.49,0,0,0-1.56,6.49c-2.16-3.12-1.08-6.49,1-9.49ZM81.3,97.71a.12.12,0,0,0-.12.12,1,1,0,0,1-.6-1.08,95.47,95.47,0,0,0,20.56-10.58c1.56-1.08,3.24-2,4.8-3.12.12,0,.12,0,.24-.12l.12-.12c2.29-1.57,4.57-3,7-4.57A106.94,106.94,0,0,1,99.57,88.7a86.13,86.13,0,0,1-18.27,9Zm18.75-4.21a12.91,12.91,0,0,0-3.48-1.56c1.44-.72,2.88-1.56,4.21-2.4,2.76-.24,5.16,1.32,7.69,2.4a65.11,65.11,0,0,0-8.42,1.56Zm1.81-4.68c.48-.37,1.08-.73,1.56-1.09a5.22,5.22,0,0,0,.84-.72,46.34,46.34,0,0,1,10,.36c1.8.24,3.48.6,5.17.72-.36.24-.6.48-1,.73a9.57,9.57,0,0,1-1.92,1,25.49,25.49,0,0,1-6.61,1.68c-2.76-.6-5.17-2.4-8-2.64ZM91.28,94.71A13,13,0,0,0,92.6,94c.48-.24,1-.48,1.56-.84h.12a6.75,6.75,0,0,1,4.45.84,11.35,11.35,0,0,1-7.45.73Zm1.32,2.76a21.42,21.42,0,0,0,4.69-.84,20.9,20.9,0,0,1,2.64-.6A31.76,31.76,0,0,1,104,99a14.57,14.57,0,0,1-4.57,0,33.35,33.35,0,0,1-6.85-1.56Zm16.71-.12A15.31,15.31,0,0,1,105,98.79c-1.32-1-2.64-2.16-4-3h.48a.9.9,0,0,1,.6-.12l4.32-.72a30.58,30.58,0,0,0,3.73,2.16,1.73,1.73,0,0,0-.84.24Zm8.53-4.81a2.61,2.61,0,0,1-1,.6.12.12,0,0,0-.12.12c-1.2,1.09-2,2.65-4,2.41a19,19,0,0,1-3.49-1.21.12.12,0,0,1-.12-.12c.6-.11,1.08-.11,1.56-.24a16.23,16.23,0,0,0,8.3-3c.24-.12.36-.36.6-.48a8.83,8.83,0,0,1-1.81,1.92ZM122.17,87c-2.88.36-5.65-1.08-8.53-1.44a21.82,21.82,0,0,0-6.86-.36c1.81-1.44,3.49-3,5.29-4.57h4.21a13.72,13.72,0,0,0,4.45.24c2-.36,4.09-1,5.41-2.4a6.77,6.77,0,0,1-.48,1.44,10.31,10.31,0,0,0-1.45,3.61v.12a31.27,31.27,0,0,1-2,3.36Z"/></g></g></svg>