<svg xmlns="http://www.w3.org/2000/svg" viewBox="0 0 141.2 141.2"><defs><style>.cls-1{fill:none;}.cls-2{}</style></defs><g id="Calque_2" data-name="Calque 2"><g id="Layer_1" data-name="Layer 1"><rect class="cls-1" width="141.2" height="141.2" rx="70.6"/><path class="cls-2" d="M120.68,75.92a1,1,0,0,0,0-.23v0a1,1,0,0,0,0-.18,1.13,1.13,0,0,0,0-.18l-12.2-33.62a.57.57,0,0,0-.08-.13.54.54,0,0,0-.11-.18.8.8,0,0,0-.17-.15s-.06-.07-.11-.09L71.11,20.41l-.11,0a.73.73,0,0,0-.21-.06.58.58,0,0,0-.19,0,.68.68,0,0,0-.2,0,.76.76,0,0,0-.2.06l-.11,0L33.2,41.14a.33.33,0,0,0-.11.09l-.17.14a.93.93,0,0,0-.11.19.57.57,0,0,0-.08.13L20.53,75.31a1.13,1.13,0,0,0,0,.18,1,1,0,0,0,0,.18v0a.86.86,0,0,0,.05.23.85.85,0,0,0,0,.17.91.91,0,0,0,.11.16,1.11,1.11,0,0,0,.11.16l.15.1a1.32,1.32,0,0,0,.2.12h0a1.12,1.12,0,0,0,.35.06h4.81a1.15,1.15,0,0,0,.26,0v43.2a1,1,0,0,0,1,1h86a1,1,0,0,0,1-1V76.67a1.15,1.15,0,0,0,.26,0h4.81a1.07,1.07,0,0,0,.35-.06h0a1,1,0,0,0,.2-.12,1.7,1.7,0,0,0,.14-.1,1.83,1.83,0,0,0,.13-.16c0-.06.07-.1.1-.16a.85.85,0,0,0,0-.17Zm-5.06-1.29L104.86,45s0-.08-.07-.13a2,2,0,0,0-.12-.19l-.16-.13a.5.5,0,0,0-.11-.1L71.11,25.72l-.11,0-.21-.07H70.4l-.2.07-.11,0L36.8,44.43l-.11.1a.54.54,0,0,0-.16.14,1.22,1.22,0,0,0-.12.19s-.06.07-.07.12L25.58,74.63H23L34.55,42.76,70.6,22.5l36.05,20.26,11.56,31.87Zm-31.71,24L72.57,82H95.25ZM96.17,84.32v32.2l-11-16.1Zm-24.53,0,11,16.1-11,16.1Zm-2.08,32.2-11-16.1,11-16.1ZM57.29,98.58,46,82H68.63ZM56,100.42l-11,16.1V84.32Zm1.25,1.84,11.34,16.57H46Zm26.62,0,11.34,16.57H72.57ZM98.23,80.87a1.42,1.42,0,0,0,0-.2.75.75,0,0,0-.07-.18.91.91,0,0,0-.11-.16.54.54,0,0,0-.15-.15l-.06-.07-.09,0-.2-.08-.2,0-.1,0H44l-.1,0-.2,0-.2.08-.09,0-.06.06a.75.75,0,0,0-.15.16.91.91,0,0,0-.11.16.87.87,0,0,0-.07.17.78.78,0,0,0,0,.21A.29.29,0,0,0,43,81v37.87H28.64V72.27l9.52-26.22L70.6,27.82,103,46.05l9.52,26.22v46.56H98.25V81s0-.06,0-.09Z"/><path class="cls-2" d="M77.47,39.92a1.34,1.34,0,0,0-.07-.18.86.86,0,0,0-.1-.16,1.06,1.06,0,0,0-.15-.15s0,0-.05-.06-.07,0-.11,0a1.11,1.11,0,0,0-.19-.09l-.2,0-.11,0H64.71l-.11,0-.2,0-.2.09s-.07,0-.1,0,0,0,0,.06a.66.66,0,0,0-.14.15.57.57,0,0,0-.11.16,1.34,1.34,0,0,0-.07.18,1.55,1.55,0,0,0,0,.21s0,0,0,.08V56.37s0,.05,0,.08a1.18,1.18,0,0,0,0,.2,1.07,1.07,0,0,0,.07.19.72.72,0,0,0,.11.15.7.7,0,0,0,.14.16l0,.06.14.07.11,0a.94.94,0,0,0,.36.08H76.49a.94.94,0,0,0,.36-.08l.12,0,.13-.07.05-.06A1.14,1.14,0,0,0,77.3,57l.11-.15.06-.18a.78.78,0,0,0,0-.21.24.24,0,0,0,0-.08V40.2s0-.05,0-.07a1.55,1.55,0,0,0,0-.21Zm-8.15,8.37-3.57,4.89V43.39Zm-2.57-7h7.7L70.6,46.53Zm3.85,8.81,3.85,5.28h-7.7Zm1.28-1.76,3.57-4.9v9.79Z"/></g></g></svg>