<svg xmlns="http://www.w3.org/2000/svg" viewBox="0 0 57.84 117.84"><defs><style>.cls-1{}</style></defs><g id="Calque_2" data-name="Calque 2"><g id="Layer_1" data-name="Layer 1"><g id="features"><path class="cls-1" d="M35.79,110.8h0M19.7,45.19h0"/><path id="BJLI" class="cls-1" d="M57.83,33.91h0v-.45l-.09-.56-.17-.37-.25-.15-.25,0-.25-.07-.17-.22-.18-.63-.09-.2-.14-.16-.17-.14-.16-.16-.09-.23,0-.34.4-1,0-.57-.38-1.69v0l-.2-.32-.14-.35-.07-.39v-.42l.19-.73-.16-.16h-.17l-.18,0-.16,0-.45-.43-3.37-4.78-.27-.52,0-.44.37-1,.12-.3.23-.87L52.89,14l.42-.44-.13-.11L53,13.09,52.84,13l-.07-.16,0-.17-.08-.14-.09-.3-.08-.16L52.42,12l-.1-.07-.13-.11-.62-.9-.16-.15-.2-.15-.69-.24-.84-.52-.22-.08-.2-.12-.22,0-.27.16-.25.12-.26-.07L48,9.7l-.16-.16-.27-.31-.43-.73L47,8.15l-.09-.42,0-.42-.06-.1L46.58,7l0-.1-3.23-3-.77-1.13-.18-.35-.08-.1-.15,0-.62-.07-.22-.09-.21-.1-.16-.16-.11-.44-.15-.23L40.46,1,40.08.8l-.9-.8L39,.29H38.5l-.19,0-.38,0-.18,0-.21.15-.3.36L37.08,1l-.21.05-.2-.13-.2.08-.09.11-.07.13,0,.16-.06.14L36,2l-.18.09-.66-.17-.13,0-.22.17-.12.05h-.09L34.39,2l-.06,0-.68.18-.07.06-.19.16-.1.07h-.14l0-.09,0-.1L33,2.26h-.23l-.16,0-.13,0-.09.23-.11.21-.1,0-.11-.1-.14,0-.09.08-.15.21-.06,0-.23,0H31l-.25,0-.46.2-.16.34V3.9L30.3,5l.63,1.8L31,7l.13.16.2.17.21.09.18,0,.11.09,0,.23v.34l-.13,0L31.55,8l-.18,0-.13.13-.15.29L31,8.61l-.17.05-.18,0-.16,0-.1.25,0,.21.22.33,0,.2L30,11.51,29.7,12l-.73.8-.19.55v.54l-.07.18-.26.26-1,.57-1.37,1.13-2.48,2.53h0l-.07.09-.52.24-.66-.05-.81-.31-.48-.22-.23,0-.18.12-.33-.09-.36.06-.74.3-.35,0L18,18.65l-.3.1-.35.16-.86.2-.33.17-.37.13-.39-.74H15.1l0-.12,0-.27,0-.13L13.44,18l-.36-.08-.3-.17-.11.28-.2.1-.23.08-.25.18-.14.23,0,.16.17.41-.3.2-.42.18-.38.24-.17.37.12.32.18.27,0,.25-.34.27-.13-.15-.13-.06-.13.06-.13.15-.11-.21-.22-.24-.21-.11L9.55,21l.06.14.18.19,0,.19,0,.15-.25.44-.62-.3-.3-.09H8.27l-.15,0L8,21.79l-.09.05H7.75l0-.1-.14-.22-.19-.14-.19.29-.19.2L7,22.1l.35.59.08.64.09.34-.19-.06-.38-.18H6.73l-.09.09-.13.35-.11.07-.62.15-.09,0v.29l.08,0,.12-.1.17,0,0,.08,0,.24,0,.09.06,0,.17.09h0l0,.22v.22l0,.21.11.21.21.22v.31l-.07.08-.14-.13L6.39,26l0-.1-.2-.06-.57-.07-.07,0-.21.1H5.17l0,0L5,25.67l0,0-.1,0L4.8,25.5l-.13-.09-.42-.07-.09,0-.08,0L4,25.51l-.1.24L3.69,26l-.07,0,0,.2,0,.22.06.16.14.08.12.11V27l-.05.22-.08.1H3.49l-.25,0L2.67,27l-.49,1.18-.05.38.05.2.15.39,0,.21-.3.56,0,.2,0,.44-.06.2-.24.35-1,1-.27.64.16,1.72,0,.76L.27,36.26l-.27,2,0,.44L.17,39l1.42.94,1.79,1.21,1.08.72L6.07,42.9l2.68,1.8,2,1.33.25.65v.14h0l0,1.4,0,2.09,0,1.48.15.89,0,.24,0,.19v.38l0,.19-.11.25-.34.52-.08.24.07.39.18.47.28.28.31-.16.22.54.13,1.93.28.77.35.54.1.16L14,61.19l1.17,1.23.39.67.14.47.11.52,0,2.37,0,2.08,0,1.76,0,2.55h0v.57l0,.22.1.21.48.62.08.18-.07.34-.62,1,0,.17v.33l-.09.46,0,.08.1,0,.1.17.2,1.63,0,2.18,0,3v3l0,3.76v.32h0v1.64h0V97.5l0,2.75V103l-.34.11-1.41,0,.36,1.35.21.31,0,0,.28.21.17.2,0,.26-.14.79v.33l.08.32.14.39.12.46-.08.29-.14.2h0l-.29.37-.16.43.12.22.25.2.2.37V110l0,.16v.17l.05.2.11.15.15.16.17.11.14.1.18,0,.18,0,.13,0,0,.22.05.13.31.26.12.15,0,.2,0,.4,0,.17.12.1.4.21.17.11.48.78.36,1.43.36,1.39-.4,0-2.41.57-.39.21.15.39,5-1.14,1.94-.22v0l4.49-.52,1.51-.34,1-.09h0l2.33-.22h0l4.12-.39v-1.15l.15-.84.06-.39.07-.19h0l.35-1,0-.39-.17-.8v-.39l.22-.4.34-.31.23-.15.1-.22-.06-.87,0-.19-.1-.09H37.5l-.19-.07-.17-.12-.14-.19-.09-.36.05-.42.19-.79-.09-.79-.24-.72-.07-.69.48-.69.22-.1.25-.07.19-.1.07-.21-.11-.18-.49-.4-.17-.21-.06-.25V101l.09-.13.17-.36.16-.19,0-.17,0-.27-.4-4.66.05-.2.15-.1h.19L38,95l.06,0v-.12l0-.17.05-.79-.41-.69-.56-.67-.37-.7-.11-.74,0-.62h0L37,87.94l0-.27-.17-.28-.44-.5-.22-.54L36,86.12l0-.08V86l0-.14.2-.37.06-.17.08-1.19.23-1.2,0-1.13,0-.35.14-.33.2-.31.15-.35V80L37,79.6l-.38-.79-.14-.43-.07-.46,0-.36.15-.78V76.6l0-.35v-.17l.1-.23.38-.43.14-.22.16-.65L37.26,74l-.37-4.63h0v-.22L37,69l.31-.15.11-.09,0-.17-.1-.3,0-.17.08-.28.23-.55V67l-.06-.13-.09,0-.08,0,0-.16,0,0,.21-.31.06-.11.11-.54,0-1.2-.07-.49,1.45.11.25,0,.18-.13.17-.16.2-.13.2,0,.57,0,.21,0,.21.1.18.12.18.09h.22l1.28-.34.47-.31.29-.6.62-2,.39-.74.11-.4V58.28L44.88,58l-.23-.61-.13-.53.07-.52.37-.59.13-.11.31-.09.13-.13,1.15-1.5v-.1l-.09-.25,0-.12.14-.48.3-.09.37.07.33,0,.61-.35.14-.49-.16-.58-.23-.59L48,50.56l0-.43.16-.39.32-.22L49.88,49l.73-.19,1.14.12.32-.32.5-.9.61-.73.19-.38.12-1.63.11-.31.3-.28.27-.13.24-.17.17-.43v-.1l0-.34,0-.3-.17-.25L53.15,41.3l-.27-.44v-.35l.37-.87.48-.74.08-.22v-.37l0-.12L54,38l.37-.38.37-.11.39.07,1.21.64.29,0,.29-.37.12-.35,0-1,.17-.51.48-1,.14-.5v-.6"/></g></g></g></svg>