<svg xmlns="http://www.w3.org/2000/svg" viewBox="0 0 141.2 141.2"><defs><style>.cls-1{}.cls-2{fill:none;}</style></defs><g id="Calque_2" data-name="Calque 2"><g id="Layer_1" data-name="Layer 1"><path class="cls-1" d="M68.79,79.53a34.76,34.76,0,0,1,6.59,9.83,1.36,1.36,0,0,1-.71,1.78,1.4,1.4,0,0,1-.53.11,1.36,1.36,0,0,1-1.24-.82,32.21,32.21,0,0,0-6-9,1.35,1.35,0,0,1,1.91-1.91Zm-21-7.59a1.35,1.35,0,0,0-1.14,2.45,26.47,26.47,0,0,1,7.77,6,1.34,1.34,0,0,0,1,.47,1.31,1.31,0,0,0,.88-.32,1.36,1.36,0,0,0,.15-1.91A29.13,29.13,0,0,0,47.8,71.94ZM60.23,95.39a1.35,1.35,0,0,0-1.91,1.91,23.22,23.22,0,0,1,4.3,6.44,1.36,1.36,0,0,0,1.24.82,1.4,1.4,0,0,0,.53-.11,1.36,1.36,0,0,0,.71-1.78A25.92,25.92,0,0,0,60.23,95.39Zm6.09-18.33a1.4,1.4,0,0,0-1.91,0,1.37,1.37,0,0,0-.4,1,1.35,1.35,0,0,0,.4,1,1.35,1.35,0,0,0,2.3-1A1.36,1.36,0,0,0,66.32,77.06Zm-25,6.88a1.39,1.39,0,0,0-.4,1,1.35,1.35,0,1,0,2.7,0,1.38,1.38,0,0,0-.39-1A1.4,1.4,0,0,0,41.36,83.94ZM112,61.2a9.18,9.18,0,0,1-5,4.08,7.82,7.82,0,0,1,.09,4.17c-.5,2-2,4.62-6.42,6.14a11.11,11.11,0,0,1-3.67.59c-7.86,0-16.8-7-19.9-9.7l-2.45,2.45a29.5,29.5,0,0,1,7.92,17,22.79,22.79,0,0,1-7,18.52A29,29,0,0,1,69.77,109a26.42,26.42,0,0,1-25,.24c-2.87-1.48-4.63-1.47-7,0-.22.14-.56.4-1,.71-2.3,1.68-4.67,3.41-6.51,3.41a2.31,2.31,0,0,1-1.69-.69c-1.78-1.79.1-4.94,2.75-8.87.16-.25.3-.45.4-.6,1.55-2.42,1.6-4.08.18-6.84a26.39,26.39,0,0,1,.24-25,29.09,29.09,0,0,1,4.49-5.89,22.75,22.75,0,0,1,18.51-7,29.52,29.52,0,0,1,17.17,8l2.44-2.44c-3-3.51-12.15-15.06-9.18-23.64,1.52-4.4,4.18-5.92,6.15-6.43a8,8,0,0,1,4.16.09A9.38,9.38,0,0,1,88,28.45a8.87,8.87,0,0,1,4.43,3.72,9,9,0,0,1,6.83-.07,6.92,6.92,0,0,1,4.15,5.67,6.89,6.89,0,0,1,5.66,4.15,8.89,8.89,0,0,1-.07,6.83,8.8,8.8,0,0,1,3.73,4.43A9.25,9.25,0,0,1,112,61.2ZM98.63,49.65a1.7,1.7,0,0,1,.56-1.21c.7-.64,2.54-2.75,2.59-4.82a3.89,3.89,0,0,0-1.29-2.88,3.8,3.8,0,0,0-2.87-1.28c-2.06,0-4.16,1.9-4.79,2.6a1.7,1.7,0,0,1-1.22.57,1.76,1.76,0,0,1-1.25-.5c-1.46-1.45-2.94-1.9-4.16-1.27A3.07,3.07,0,0,0,84.61,44a1.7,1.7,0,0,1-2.88,1.48c-2-2-3.45-1.11-3.84-.79a1.33,1.33,0,0,1-.19.14c-3.47,2.24-1.17,12.52.7,17.91l.06.05.06.08c5.39,1.87,15.68,4.18,17.91.7l.17-.21c.3-.37,1.2-1.81-.81-3.82a1.7,1.7,0,0,1,1.48-2.88,3.08,3.08,0,0,0,3.13-1.59c.63-1.22.18-2.7-1.27-4.16A1.71,1.71,0,0,1,98.63,49.65ZM73.16,56.38C72.12,51,71.9,44.63,75.76,42a5.64,5.64,0,0,1,5.84-.74,6.56,6.56,0,0,1,3-3.46,6.42,6.42,0,0,1,6.87.82,10.27,10.27,0,0,1,6-2.59,6.36,6.36,0,0,1,1.74.18,3.4,3.4,0,0,0-1.3-1,5.81,5.81,0,0,0-5.4.7A1.69,1.69,0,0,1,90,35a5.3,5.3,0,0,0-3.29-3.45,5.88,5.88,0,0,0-5,.5,6,6,0,0,0-2.94,4.69,1.69,1.69,0,0,1-1.1,1.38,1.67,1.67,0,0,1-1.73-.33,4.15,4.15,0,0,0-3.34-.52c-1.65.42-3,1.89-3.77,4.24C67.31,45.8,70.09,51.72,73.16,56.38Zm6.08,29.88c-.49-5.68-3.37-11.42-8.11-16.16L71.06,70,71,70c-4.74-4.74-10.48-7.62-16.15-8.11-.59,0-1.18-.08-1.76-.08A19.57,19.57,0,0,0,39,67.84,25.42,25.42,0,0,0,35.09,73a20.42,20.42,0,0,0-1.87,4.38,25.17,25.17,0,0,1,7.08,4.25,1.37,1.37,0,0,1,.14,1.91,1.39,1.39,0,0,1-1,.46,1.36,1.36,0,0,1-.88-.33,22.55,22.55,0,0,0-5.94-3.63A23.64,23.64,0,0,0,34.92,94.8c2,3.83,1.87,6.79-.34,10.23l-.44.67c-1,1.52-1.7,2.62-2.13,3.41,1.05-.66,2.23-1.52,2.76-1.91s.89-.65,1.15-.82c3.36-2.16,6.47-2.22,10.38-.2A23,23,0,0,0,68.07,106a25.26,25.26,0,0,0,5.19-3.94A19.48,19.48,0,0,0,79.24,86.26Zm30.34-31.78a5.34,5.34,0,0,0-3.45-3.29,1.71,1.71,0,0,1-.91-2.58,5.73,5.73,0,0,0,.7-5.39A3.3,3.3,0,0,0,105,42a6.81,6.81,0,0,1,.19,1.75,10.35,10.35,0,0,1-2.58,6,6.38,6.38,0,0,1,.82,6.87,6.47,6.47,0,0,1-3.45,3,5.66,5.66,0,0,1-.75,5.85C97.58,68,94.42,68.76,91,68.76a32,32,0,0,1-6-.65c4.63,3,10.46,5.72,14.67,4.27,2.34-.81,3.81-2.12,4.24-3.78a4.06,4.06,0,0,0-.53-3.33,1.71,1.71,0,0,1-.33-1.73,1.69,1.69,0,0,1,1.38-1.1,6,6,0,0,0,4.7-2.95A5.9,5.9,0,0,0,109.58,54.48Z"/><rect class="cls-2" width="141.2" height="141.2" rx="70.6"/></g></g></svg>