<svg xmlns="http://www.w3.org/2000/svg" viewBox="0 0 141.2 141.2"><defs><style>.cls-1{fill:none;}.cls-2{fill:#8599c9;}.cls-3{}.cls-4{fill:#fff;}</style></defs><g id="Calque_2" data-name="Calque 2"><g id="Layer_1" data-name="Layer 1"><rect class="cls-1" width="141.2" height="141.2" rx="70.6"/><polygon class="cls-2" points="9.84 40.61 9.82 97.61 71.77 87.83 108.6 85.94 132.63 80.71 132.63 40.61 9.84 40.61"/><polygon class="cls-3" points="14.44 91.47 34.64 91 74.37 85.73 108.41 83.72 128.85 78.88 128.92 84.81 99.38 88.86 60.24 92.64 36.49 97.17 14.44 99.03 14.44 91.47"/><path class="cls-4" d="M30.18,80.21c-1.74-.26-4.82-1.46-6.13-3.65-.9-1.51,3.22-3.82,5.55-4.71.76-.28,1.28-.43,1.64.6A25.6,25.6,0,0,1,31.79,76a27.74,27.74,0,0,1,.15,3.07c0,1.53-1,1.26-1.76,1.15M36.7,54.94c-.36,0-6.39.13-7.42,2-.93,1.67,0,2.81,1.19,11-3.25.38-10.13,2.42-10.4,6.71-.22,3.4,5,8.94,10.57,9.74.82.12,3.38.16,4.35-2.17.92-1.49,1.83-23.46,2-26.39,0-.22-.08-.91-.25-.89"/><path class="cls-4" d="M60.12,73.44c.05-6.22-3.13-3.94-4.71-3.5v8.94c-.14,2.11-3.9,2.27-3.9,2.27V69.05a7.82,7.82,0,0,0-.4-2.65c.47,0,2-.76,3.39.32a7.88,7.88,0,0,1,4.21-1.42,7.13,7.13,0,0,1,4.21.74c.43-.49,1.29-1.38,4.45-1.61,2.32-.17,5,1.37,5.25,3.95,0,.31,0,8.73,0,8.73,0,2-3.87,2.27-3.87,2.27V72.59c0-6.16-2.69-4.24-4.57-3.47V78c-.14,2.11-4.05,2.28-4.05,2.28Z"/><path class="cls-4" d="M100,70.13c-1-.78-2.5-2.9-2.49-4,0-2.06,5.87-4,5.82-1.09,0,1.24-2.36,4.5-3.33,5.13m8.12,1.9a11.62,11.62,0,0,1-6.63-.84c.8-.72,6.1-5.65,6.37-8.95.18-2.13-3.07-2.2-3.28-2.21-2.83-.07-8.68.6-9.59,4.9-.69,3.27,2.26,10.27,8,10.4,2,0,4.18-1.87,5.21-3.08a.47.47,0,0,0,.06-.09c0-.07,0-.14-.14-.13"/><path class="cls-4" d="M78.6,72.81c-1-.77-2.5-2.89-2.48-4,0-2.06,5.87-4,5.82-1.09,0,1.25-2.37,4.5-3.34,5.13m8.13,1.91a11.74,11.74,0,0,1-6.64-.85c.8-.72,6.11-5.65,6.38-9,.17-2.13-3.07-2.2-3.29-2.21-2.82-.07-8.68.61-9.59,4.9-.69,3.27,2.27,10.27,8,10.41,2,0,4.18-1.88,5.21-3.09l0-.09c0-.06,0-.14-.13-.12"/><path class="cls-4" d="M42.41,77c-1-.77-2.5-2.89-2.49-4,0-2.07,5.88-4,5.83-1.1,0,1.25-2.37,4.5-3.34,5.13m8.13,1.9A11.66,11.66,0,0,1,43.9,78c.8-.71,6.11-5.64,6.38-9,.17-2.13-3.07-2.2-3.29-2.2-2.82-.08-8.68.6-9.58,4.89-.7,3.27,2.26,10.27,8,10.41,2,0,4.18-1.88,5.21-3.09a.16.16,0,0,0,.05-.09c0-.06,0-.14-.13-.13"/><path class="cls-4" d="M117.46,58.76a4.39,4.39,0,0,1,.14,1.08c0,3.88-3.78,2.72-3.94,4.51-.12,1.39,0,5.14,0,5.14,0,4,.24,4.33-3.32,5a.25.25,0,0,1-.2-.09c-.09-.08-.09-.15-.1-.28A105.67,105.67,0,0,0,109.5,62a21.5,21.5,0,0,0-.47-2.65,4.4,4.4,0,0,1,1.91,0,7.24,7.24,0,0,1,1.2.5c.36,0,1.43-1,3.76-1.23,0,0,1.37.12,1.56.15"/><path class="cls-4" d="M88.92,57.15c.09-1.59,2.76-2.45,3.66-2.63a.22.22,0,0,1,.28.21v4.42c0,.29.2.37.42.35l2.58-.28c0,.24.14,3-2.22,3.3-.42,0-.4.06-.57.23s-.2.36-.2.86c0,2.88,0,10.79,0,11.29-.08,1.6-2.7,2-3.6,2.17a.28.28,0,0,1-.33-.21v-13c0-.47-.29-.82-.78-.74s-1.19.09-1.47.11c.08-1.85.21-2.84,1.49-3.14.36-.09.55-.09.63-.21a1.19,1.19,0,0,0,.12-.56c0-.8,0-2.14,0-2.22"/><path class="cls-3" d="M17.75,105.74h0l-.4,0a3.58,3.58,0,0,0-.66,0c-.6.07-.92.28-.95.63s.28.56.95.47,1.07-.46,1.07-1.1m0-.86a.78.78,0,0,0-.35-.69,1.8,1.8,0,0,0-1.19-.11l-.18,0-.54.1-.71.15-.18-.79.88-.25.54-.14a10.11,10.11,0,0,1,1.19-.23c.81-.1,1.32.13,1.55.69a3.91,3.91,0,0,1,.23,1.42,3.6,3.6,0,0,1-.4,2,1.1,1.1,0,0,1-.52.38,8.16,8.16,0,0,1-1.65.35,2.94,2.94,0,0,1-1.43-.07c-.39-.17-.59-.56-.59-1.18a1.47,1.47,0,0,1,.31-1,3.07,3.07,0,0,1,1.72-.6,8.51,8.51,0,0,1,1.32-.05"/><path class="cls-3" d="M22.59,103.33a3.41,3.41,0,0,0-.52.12,1.19,1.19,0,0,0-.55.29,1.53,1.53,0,0,0-.24,1v.14a1.28,1.28,0,0,0,.25.93.88.88,0,0,0,.77.17,1.43,1.43,0,0,0,.84-.34,1.92,1.92,0,0,0,.26-1.24,1.88,1.88,0,0,0-.15-1q-.15-.18-.66-.12m2,2.71a8,8,0,0,1-.26,1.69,2.13,2.13,0,0,1-.3.58,1.66,1.66,0,0,1-.63.52,4.66,4.66,0,0,1-1.37.4c-.19,0-.43.07-.72.1h-.06a6.23,6.23,0,0,1-.76,0l-.11-.81,1.07-.22a5.49,5.49,0,0,0,1-.34,1.12,1.12,0,0,0,.36-.29,1.35,1.35,0,0,0,.28-.87,4.14,4.14,0,0,1-1,.25,2.33,2.33,0,0,1-1.48-.14.93.93,0,0,1-.34-.4,4.67,4.67,0,0,1-.28-1.9,3,3,0,0,1,.32-1.68,3.71,3.71,0,0,1,2.3-.79l.81-.09a1.76,1.76,0,0,1,.7.06.48.48,0,0,1,.29.27,4.15,4.15,0,0,1,.15,1.45c0,.94,0,1.66-.05,2.16"/><path class="cls-3" d="M28.86,102.31l-.55.16a4,4,0,0,0-.81.28.6.6,0,0,0-.29.42s0,.22-.08.51-.06.5-.09.81-.05,1.05-.07,1.83l-1.15.15c0-.86,0-1.48,0-1.87v-1.27q0-.52,0-1.2c.55-.17,1.06-.3,1.53-.41s1-.2,1.62-.29a5.15,5.15,0,0,1-.1.88"/><path class="cls-3" d="M30.72,100.2l-1.15.15c0-.42,0-.89.07-1.39l1-.24Zm.12,3.36c0,.61-.05,1.36-.11,2.27L29.6,106v-.35c-.05-1-.07-1.71-.07-2.23s0-1.19.07-2l1.22-.16v.45c0,.42,0,.75,0,1s0,.57,0,.87"/><path class="cls-3" d="M34.72,105.32l-1,.19a1.6,1.6,0,0,1-1.47-.34,2.57,2.57,0,0,1-.43-1.71,8.26,8.26,0,0,1,.08-1.29,1.46,1.46,0,0,1,.52-.9,2.84,2.84,0,0,1,1.37-.44l.27,0,.72,0c.31,0,.63,0,1,0l-.05.79-.31,0-.6.08a2.8,2.8,0,0,0-1.13.34,1.28,1.28,0,0,0-.53,1.19c0,.55.11.9.31,1a2.72,2.72,0,0,0,1.7.12,2,2,0,0,0,.3,0l.34,0c0,.06,0,.3,0,.73a6.12,6.12,0,0,1-1.09.34"/><path class="cls-3" d="M41.33,101.91c0,.19,0,.48-.07.84a5,5,0,0,1-.23,1.12,1,1,0,0,1-.68.68,6.23,6.23,0,0,1-1.37.31c-1,.13-1.65,0-1.82-.41a6.91,6.91,0,0,1-.34-1.86c0-.47-.06-1-.08-1.46,0-.19,0-.33,0-.42v-.28l1.07,0a2.23,2.23,0,0,0,0,.26l0,.31a10.4,10.4,0,0,0,.43,2.36,1,1,0,0,0,.22.35.49.49,0,0,0,.38.06,1.33,1.33,0,0,0,.89-.43,2.86,2.86,0,0,0,.36-1.3,13.23,13.23,0,0,0,.15-1.56v-.11a2.19,2.19,0,0,1,0-.29l1.06-.23v1.32c0,.23,0,.49,0,.76"/><path class="cls-3" d="M43.59,101.57l0,1.16c0,.48,0,1-.06,1.45l-1.14.15q-.09-2.35-.09-3.51c0-.59,0-1.43,0-2.54,0-.24,0-.56,0-1l1.13-.15c0,.19,0,.5,0,.93l.05,1.09c0,.18,0,.64,0,1.36,0,.3,0,.64,0,1"/><path class="cls-3" d="M47.29,99.78l-.84.26c0,.37,0,.63,0,.77,0,0,0,.08,0,.29s0,.49,0,.77v1.94l-1.18.15c0-.22,0-.54,0-1,0,0,0-.29,0-.93l0-1,0-.84h-.79c0-.16,0-.43.06-.79.17,0,.41-.11.74-.18.05-.61.08-1,.08-1.27l0-.83,1-.3s0,.1,0,.22l0,.61,0,.72.07.6L47.45,99c0,.18-.09.45-.16.81"/><path class="cls-3" d="M52.71,100.44c0,.19,0,.48-.08.84a5.11,5.11,0,0,1-.22,1.12,1,1,0,0,1-.68.68,6.23,6.23,0,0,1-1.37.31c-1,.14-1.65,0-1.82-.4a6.34,6.34,0,0,1-.34-1.87c0-.46-.06-1-.09-1.46V99l1.06,0a2.57,2.57,0,0,0,0,.27l0,.3a11.18,11.18,0,0,0,.42,2.36,1.05,1.05,0,0,0,.23.35.43.43,0,0,0,.38.06,1.31,1.31,0,0,0,.89-.43,2.86,2.86,0,0,0,.36-1.3A13.3,13.3,0,0,0,51.66,99v-.12a2.19,2.19,0,0,1,0-.29l1.06-.23v1.32c0,.23,0,.49,0,.76"/><path class="cls-3" d="M56.84,98.7c-.12,0-.3.08-.55.15a5.87,5.87,0,0,0-.81.28.61.61,0,0,0-.28.43s0,.22-.09.51-.06.49-.08.81-.05,1-.07,1.82l-1.16.15q0-1.27,0-1.86V99.72c0-.36,0-.76,0-1.21.54-.16,1.05-.3,1.52-.4A16.31,16.31,0,0,1,57,97.82a5.39,5.39,0,0,1-.11.88"/><path class="cls-3" d="M59.86,98.48a1,1,0,0,0-1,1.12v.1l.35,0,.44,0h0c.57-.07.86-.29.86-.65s-.22-.58-.66-.52m-1,2A.62.62,0,0,0,59,101a1.23,1.23,0,0,0,.38.21,2.82,2.82,0,0,0,1,0l.88-.19.38-.08v.84l-.37.12a10.52,10.52,0,0,1-1.52.34,2.9,2.9,0,0,1-1.63-.1c-.39-.2-.58-.85-.58-1.94a7,7,0,0,1,.1-1.17,1.94,1.94,0,0,1,.35-.91,1.54,1.54,0,0,1,.89-.46l.42-.08.51-.07q1.44-.2,1.77.3a2.11,2.11,0,0,1,.2,1.08,2.73,2.73,0,0,1-.09.74,1,1,0,0,1-.24.43,2.1,2.1,0,0,1-1.18.48,10,10,0,0,1-1.05.08l-.37,0"/><path class="cls-3" d="M68.32,97.35a2,2,0,0,0-1,.33.46.46,0,0,0-.17.2,2.82,2.82,0,0,0-.09.92,2.38,2.38,0,0,0,.14,1.09c.09.14.32.19.67.14a1.69,1.69,0,0,0,1.07-.44,2.06,2.06,0,0,0,.29-1.3A1.1,1.1,0,0,0,69,97.5a.81.81,0,0,0-.7-.15m1.57,3.11a2.54,2.54,0,0,1-1.33.58c-.28.06-.5.09-.65.11a7.14,7.14,0,0,1-1,.08,1.58,1.58,0,0,1-.66-.12.68.68,0,0,1-.39-.45,2.49,2.49,0,0,1-.07-.65V99l0-4.48c0-.1,0-.21,0-.35l1.1-.27c0,.09,0,.42.09,1,0,.2,0,.51.06.92l.07.69a9.06,9.06,0,0,1,1.22-.26,2.23,2.23,0,0,1,1.54.17c.41.3.61,1,.61,2a3,3,0,0,1-.63,2.11"/><path class="cls-3" d="M72.77,94.77l-1.16.15c0-.43,0-.89.08-1.39l1-.24Zm.12,3.36c0,.61,0,1.36-.12,2.27l-1.12.15v-.35c0-1-.08-1.71-.08-2.23s0-1.19.07-2l1.22-.15v.44c0,.42,0,.75,0,1s0,.57,0,.87"/><path class="cls-3" d="M77.67,97a1.35,1.35,0,0,0-.13-.5.52.52,0,0,0-.27-.26,1.17,1.17,0,0,0-.55,0h0a2,2,0,0,0-1.16.42,1.66,1.66,0,0,0-.35,1.21,1.45,1.45,0,0,0,.23,1c.16.15.5.18,1,.12a1.48,1.48,0,0,0,1-.44,1.62,1.62,0,0,0,.29-1.08c0-.18,0-.32,0-.44m.68,2.32a1.51,1.51,0,0,1-.64.41,5.68,5.68,0,0,1-1.19.27c-.39.05-.73.08-1,.09a1.77,1.77,0,0,1-.74-.12,1,1,0,0,1-.49-.35,3,3,0,0,1-.34-1.67,3.45,3.45,0,0,1,.43-2,3.29,3.29,0,0,1,2.07-.71l.13,0a6.49,6.49,0,0,1,1.24-.07.94.94,0,0,1,.55.17c.36.27.54.94.54,2a2.91,2.91,0,0,1-.55,2"/><path class="cls-3" d="M83.4,95.73q-.14-.26-1-.15a1.29,1.29,0,0,0-.86.4,1.56,1.56,0,0,0-.25,1v0q0,1.23.87,1.11a1.79,1.79,0,0,0,1.11-.39,2.29,2.29,0,0,0,.18-1.19,3,3,0,0,0-.06-.83m1.28,2.18a2.74,2.74,0,0,1,0,.37.76.76,0,0,1-.21.33,2.46,2.46,0,0,1-1.13.47l-.64.1c-.29.06-.51.09-.66.11a2.31,2.31,0,0,1-1.18-.06c-.53-.24-.79-.92-.79-2a3.7,3.7,0,0,1,.48-2,1.14,1.14,0,0,1,.66-.47,4.07,4.07,0,0,1,.79-.16,10.69,10.69,0,0,1,1.44-.09l0-.54L83.5,93c0-.17,0-.4,0-.7a2.23,2.23,0,0,1,0-.32l1.07-.29c0,.06,0,.2,0,.41v2.16l0,1.35Z"/><path class="cls-3" d="M88.39,98.51a4.1,4.1,0,0,1-.86,0,1.35,1.35,0,0,1-.71-.41,2.62,2.62,0,0,1-.54-1c-.07-.21-.17-.58-.29-1.11a12.23,12.23,0,0,1-.29-1.73,3.56,3.56,0,0,1,.58-.15c.32,0,.53.05.61.29,0,.07.07.29.17.67a5.61,5.61,0,0,0,.49,1.37c.31.59.66.86,1,.81A.61.61,0,0,0,89,97a2.59,2.59,0,0,0,.34-.86,7.51,7.51,0,0,0,.24-1.42l.08-1.06,1.15-.15c0-.07,0,.06,0,.39,0,.14,0,.33,0,.57a20,20,0,0,1-.27,2.36,5,5,0,0,1-.89,2l-.3.37c-.37.46-.81,1-1.33,1.55l-1.52.2.46-.53c.24-.28.57-.7,1-1.28.1-.14.26-.36.46-.66"/><path class="cls-3" d="M96.31,97.36l-1.17.15,0-1c0-.49,0-.83,0-1a1.84,1.84,0,0,0-.27-.91,1.1,1.1,0,0,0-1.06-.34l-.49.09,0,.29c0,.27-.07.72-.11,1.33,0,.4,0,1,0,1.85l-1.14.14c0-1.36-.06-2.28-.06-2.77s0-.93.05-1.71c.85-.18,1.53-.31,2-.37a5.23,5.23,0,0,1,.92-.07,1.36,1.36,0,0,1,.84.26,1.42,1.42,0,0,1,.5.9,10,10,0,0,1,.1,1.65c0,.48,0,1,0,1.55"/><path class="cls-3" d="M100.81,95h0l-.39,0a3.64,3.64,0,0,0-.67,0c-.6.07-.92.28-.94.63s.28.56.94.47,1.07-.46,1.07-1.1m0-.86a.79.79,0,0,0-.33-.69,1.88,1.88,0,0,0-1.21-.11l-.18,0c-.11,0-.29,0-.54.1l-.71.15c0-.18-.09-.44-.18-.79l.88-.25.55-.14a9.9,9.9,0,0,1,1.18-.23c.81-.1,1.33.13,1.55.69a3.91,3.91,0,0,1,.23,1.42,3.6,3.6,0,0,1-.4,2,1,1,0,0,1-.52.38,7.27,7.27,0,0,1-1.64.35A2.91,2.91,0,0,1,98.1,97c-.4-.17-.6-.56-.6-1.18a1.47,1.47,0,0,1,.32-1,2.93,2.93,0,0,1,1.71-.59,7.5,7.5,0,0,1,1.32-.06"/><path class="cls-3" d="M106.32,91.61l.14-.24.93-.14a2.68,2.68,0,0,1,1.66.15,1.67,1.67,0,0,1,.58,1.41c0,.64.05,1.26.05,1.85,0,.33,0,.66,0,1l-1.15.15v-1a12.07,12.07,0,0,0-.1-1.55.88.88,0,0,0-1-.85c-.06.46-.11.81-.12,1.06s0,.7,0,1.3V96l-1.18.15v-1s0-.14,0-.3,0-.31,0-.45c0-.31,0-.53,0-.65a2.84,2.84,0,0,0-.09-.61.5.5,0,0,0-.22-.26,1.62,1.62,0,0,0-.85-.11c0,.12,0,.24-.06.38,0,.3-.07,1.07-.12,2.3l0,.92-1.14.15,0-.88V93.7a15.88,15.88,0,0,1,.14-1.84,11.6,11.6,0,0,1,1.26-.25,3.65,3.65,0,0,1,.76,0,5.9,5.9,0,0,0,.71,0"/><path class="cls-3" d="M112.19,89.68l-1.16.15c0-.43,0-.89.07-1.39l1-.24ZM112.3,93c0,.6,0,1.36-.11,2.27l-1.12.14,0-.34c0-1-.07-1.71-.07-2.24s0-1.18.07-2l1.22-.16v.45c0,.42,0,.75,0,1s0,.57,0,.87"/><path class="cls-3" d="M116.63,91.55a.37.37,0,0,0-.21-.28,1.39,1.39,0,0,0-.59,0,1.58,1.58,0,0,0-1,.38,1.54,1.54,0,0,0-.25,1v.06a1.58,1.58,0,0,0,.22,1c.14.16.41.21.82.16a1.42,1.42,0,0,0,.86-.32,1.52,1.52,0,0,0,.23-1,3.87,3.87,0,0,0-.1-1m1.3.16,0,4.8-1.08.35c0-.38-.11-.9-.19-1.58l-.06-.53-.34.12a5.83,5.83,0,0,1-1,.21,2.31,2.31,0,0,1-.74,0,1.08,1.08,0,0,1-.6-.34,1.9,1.9,0,0,1-.41-.82,4,4,0,0,1-.15-1.15,3.26,3.26,0,0,1,.41-1.75,1.3,1.3,0,0,1,.66-.56,5.93,5.93,0,0,1,1.39-.3l.78-.08a1.79,1.79,0,0,1,1.1.1c.16.12.25.47.25,1.06v.23a2.2,2.2,0,0,0,0,.23"/><path class="cls-3" d="M123.68,91.27c0,.2,0,.48-.07.84a5.78,5.78,0,0,1-.22,1.12,1.09,1.09,0,0,1-.69.68,5.59,5.59,0,0,1-1.37.31c-1,.14-1.64,0-1.81-.4a6.34,6.34,0,0,1-.34-1.87c0-.46-.07-1-.09-1.46,0-.19,0-.33,0-.41v-.29l1.06,0a2.06,2.06,0,0,1,0,.27l0,.3a11.69,11.69,0,0,0,.43,2.36,1.06,1.06,0,0,0,.22.35.49.49,0,0,0,.38.07,1.42,1.42,0,0,0,.9-.43,3.14,3.14,0,0,0,.35-1.3,13.61,13.61,0,0,0,.15-1.56v-.12c0-.13,0-.23,0-.28l1.06-.24v1.32c0,.24,0,.49,0,.76"/><path class="cls-3" d="M127,89.8a1,1,0,0,0-1,1.13V91h.35l.45,0h0c.58-.08.87-.29.87-.66s-.23-.57-.67-.52m-1,2.06a.53.53,0,0,0,.15.41,1,1,0,0,0,.36.22,2.88,2.88,0,0,0,1,0l.88-.18s.17,0,.38-.09v.85l-.38.12a9.16,9.16,0,0,1-1.51.33,2.91,2.91,0,0,1-1.63-.09c-.39-.2-.58-.85-.58-1.94a7,7,0,0,1,.09-1.17,2.1,2.1,0,0,1,.36-.92,1.56,1.56,0,0,1,.89-.46l.42-.07.51-.08c1-.12,1.55,0,1.77.31a2.13,2.13,0,0,1,.19,1.08,2.73,2.73,0,0,1-.09.74.83.83,0,0,1-.24.43,2.07,2.07,0,0,1-1.17.48,10,10,0,0,1-1.06.08l-.36,0"/></g></g></svg>