<svg xmlns="http://www.w3.org/2000/svg" viewBox="0 0 141.2 141.2"><defs><style>.cls-1{fill:none;}.cls-2{}</style></defs><g id="Calque_2" data-name="Calque 2"><g id="Layer_1" data-name="Layer 1"><rect class="cls-1" width="141.2" height="141.2" rx="70.6"/><path class="cls-2" d="M40.42,42.14v8.65a1.89,1.89,0,0,0,1.89,1.89h7.54a1.89,1.89,0,0,0,1.89-1.89V42.14l1.33-1.33a1.84,1.84,0,0,0,.55-1.33V31.93A5.66,5.66,0,0,0,51,27.16a5.56,5.56,0,0,0,.76-2.77,5.66,5.66,0,0,0-11.32,0,5.56,5.56,0,0,0,.76,2.77,5.64,5.64,0,0,0-2.65,4.77v7.55a1.85,1.85,0,0,0,.56,1.33ZM46.08,22.5a1.89,1.89,0,1,1-1.89,1.89A1.89,1.89,0,0,1,46.08,22.5Zm-3.77,9.43a1.88,1.88,0,0,1,1.88-1.88H48a1.88,1.88,0,0,1,1.88,1.88V38.7L48.52,40A1.84,1.84,0,0,0,48,41.36v7.55H44.19V41.36A1.84,1.84,0,0,0,43.64,40L42.31,38.7Z"/><path class="cls-2" d="M64.94,80.66a5.16,5.16,0,0,0-1.71-3.94h0c-2.79-2.45-8.15-1.58-12.19,2a13.25,13.25,0,0,0-1.19,1.18,14.6,14.6,0,0,0-1.18-1.18c-4.05-3.54-9.4-4.4-12.19-2a5.13,5.13,0,0,0-1.72,3.94c0,2.47,1.48,5.23,4,7.4a13.46,13.46,0,0,0,1.48,1.13A6.31,6.31,0,0,0,39,92.8a5,5,0,0,0,1.69,3.77c2.37,2.07,6.41,1.78,9.2-.66l.27-.25.28.25a8.08,8.08,0,0,0,5.27,2,5.9,5.9,0,0,0,3.93-1.38,5,5,0,0,0,1.69-3.77,6.38,6.38,0,0,0-1.42-3.88c.38-.27.74-.56,1.09-.86C63.46,85.89,64.94,83.13,64.94,80.66ZM58.5,85.22a10.68,10.68,0,0,1-2.58,1.67,1.89,1.89,0,0,0-1.09,1.61,1.86,1.86,0,0,0,.91,1.71,4.3,4.3,0,0,1,.65.47,3,3,0,0,1,1.16,2.12,1.18,1.18,0,0,1-.41.93c-.82.72-2.76.63-4.23-.66a3.68,3.68,0,0,1-.76-.91,1.91,1.91,0,0,0-1.62-.91l-.32,0a4.06,4.06,0,0,1-.59,0,1.86,1.86,0,0,0-1.49.88,4,4,0,0,1-.74.88c-1.46,1.28-3.41,1.37-4.23.65a1.17,1.17,0,0,1-.4-.93,3,3,0,0,1,1.15-2.11,3.59,3.59,0,0,1,.33-.25,2.27,2.27,0,0,0,.7-2.16,1.9,1.9,0,0,0-1.07-1.36,10.8,10.8,0,0,1-2.67-1.69c-1.62-1.43-2.67-3.22-2.67-4.57a1.32,1.32,0,0,1,.43-1.1c1.18-1,4.51-.41,7.22,2a9.43,9.43,0,0,1,1.55,1.72,1.78,1.78,0,0,0,1.66.79c.24,0,.47,0,.71.07a1.86,1.86,0,0,0,1.82-.79,10,10,0,0,1,1.6-1.79c2.71-2.37,6-3,7.22-2a1.29,1.29,0,0,1,.43,1.1C61.17,82,60.12,83.8,58.5,85.22Z"/><path class="cls-2" d="M102.24,98.67A11,11,0,0,0,101,95.85a7.3,7.3,0,0,0-3.66-3.22,4.87,4.87,0,0,0-4.9.78,6.12,6.12,0,0,0-1.95,5.64,16.42,16.42,0,0,0,.39,1.65,9,9,0,0,1,.38,1.81,9,9,0,0,1-1,3.66c-.27.64-.53,1.28-.74,1.93a9.66,9.66,0,0,0-.3,5.78,6.67,6.67,0,0,0,4.53,4.62,5.06,5.06,0,0,0,1.44.2,5.35,5.35,0,0,0,4.93-3,7,7,0,0,0,.24-3.81,8.93,8.93,0,0,1-.11-1.26,8.75,8.75,0,0,1,1-3.26,23,23,0,0,0,.94-2.42,11.25,11.25,0,0,0,0-6.25Zm-3.65,5.17a18.91,18.91,0,0,1-.78,2,12.1,12.1,0,0,0-1.31,4.74,13.92,13.92,0,0,0,.15,1.8,3.92,3.92,0,0,1,0,1.84,1.76,1.76,0,0,1-1.9.66,2.92,2.92,0,0,1-1.9-2,6,6,0,0,1,.26-3.53c.18-.57.41-1.12.64-1.68a12.12,12.12,0,0,0,1.28-5.3,12.52,12.52,0,0,0-.51-2.63c-.12-.43-.24-.86-.32-1.29a2.4,2.4,0,0,1,.66-2.1.92.92,0,0,1,.63-.24,1.76,1.76,0,0,1,.57.12,3.78,3.78,0,0,1,1.72,1.63,7.32,7.32,0,0,1,.81,1.88A7.41,7.41,0,0,1,98.59,103.84Z"/><path class="cls-2" d="M97,48A6.59,6.59,0,0,0,83.9,47H80v3.77H83.8v5.66A9.39,9.39,0,0,0,87.58,64v9.48h3.77V65.69a9,9,0,0,0,1.88.19v7.55H97V65.28L104.86,64a1.88,1.88,0,0,0,1-3.19L97,51.9Zm3.62,12.88-7.54,1.26a5.66,5.66,0,0,1-5.51-5.66V48a2.83,2.83,0,1,1,5.65,0v4.71A1.85,1.85,0,0,0,93.79,54Z"/><path class="cls-2" d="M32.19,57.41a1.88,1.88,0,0,0,1.63.93H58.34A1.87,1.87,0,0,0,60,57.41L72.22,36.67a1.89,1.89,0,0,0,0-1.92L60,14a1.87,1.87,0,0,0-1.62-.93H33.82a1.88,1.88,0,0,0-1.63.93L19.93,34.75a1.89,1.89,0,0,0,0,1.92ZM34.9,16.84H57.26L68.41,35.71,57.26,54.57H34.9L23.75,35.71Z"/><path class="cls-2" d="M63.74,106.45,76,85.71a1.89,1.89,0,0,0,0-1.92L63.74,63a1.88,1.88,0,0,0-1.63-.93H37.59A1.87,1.87,0,0,0,36,63L23.71,83.79a1.89,1.89,0,0,0,0,1.92L36,106.45a1.87,1.87,0,0,0,1.62.93H62.11A1.88,1.88,0,0,0,63.74,106.45Zm-25.07-2.84L27.52,84.75,38.67,65.88H61L72.18,84.75,61,103.61Z"/><path class="cls-2" d="M109,127.2l12.26-20.75a1.89,1.89,0,0,0,0-1.92L109,83.79a1.88,1.88,0,0,0-1.63-.93H82.86a1.87,1.87,0,0,0-1.62.93L69,104.53a1.89,1.89,0,0,0,0,1.92L81.24,127.2a1.87,1.87,0,0,0,1.62.93h24.52A1.88,1.88,0,0,0,109,127.2Zm-25.07-2.84L72.79,105.49,83.94,86.63H106.3l11.15,18.86L106.3,124.36Z"/><path class="cls-2" d="M105.23,34.75a1.87,1.87,0,0,0-1.62-.93H79.09a1.88,1.88,0,0,0-1.63.93L65.2,55.49a1.89,1.89,0,0,0,0,1.92L77.46,78.16a1.88,1.88,0,0,0,1.63.93h24.52a1.87,1.87,0,0,0,1.62-.93l12.26-20.75a1.89,1.89,0,0,0,0-1.92Zm-2.7,40.57H80.16L69,56.45,80.16,37.59h22.37l11.15,18.86Z"/></g></g></svg>