<svg xmlns="http://www.w3.org/2000/svg" viewBox="0 0 141.2 141.2"><defs><style>.cls-1{}.cls-2{fill:none;}</style></defs><g id="Calque_2" data-name="Calque 2"><g id="Layer_1" data-name="Layer 1"><path class="cls-1" d="M101.85,39.33a7.45,7.45,0,0,1-.83,1.73c-.32.58-.77,1.31-1.32,2.23s-1.28,2-2.17,3.21c-.43.63-.92,1.28-1.45,2S95,49.93,94.33,50.71s-1.33,1.6-2.06,2.47l-1.18,1.31c-.4.44-.82.91-1.27,1.36A68.76,68.76,0,0,1,83.6,61.7a47.7,47.7,0,0,1-8.24,5.61c0,.12-.07.24-.1.36a7,7,0,0,1-2.73,3.21A7.83,7.83,0,0,1,69.61,72a3.49,3.49,0,0,1,.53.22l.52.26-.22.52-.24.56a8.39,8.39,0,0,1-1,1.8,6.11,6.11,0,0,1-1.38,1.4,5.36,5.36,0,0,1-1.9.86,13,13,0,0,0,4.18-.84,20.91,20.91,0,0,0,4.09-2.13,33.35,33.35,0,0,0,3.36-2.55c1-.87,2-1.74,2.82-2.59,1.73-1.7,3.17-3.3,4.44-4.75S87.12,62,88,60.92c1.84-2.24,3.1-3.79,3.95-4.76s1.24-1.35,1.28-1.31a6.8,6.8,0,0,1-1,1.53c-.76,1-2,2.63-3.73,4.93-.89,1.14-1.94,2.46-3.18,3.93s-2.68,3.11-4.41,4.85c-.87.87-1.81,1.76-2.85,2.65a33.52,33.52,0,0,1-3.43,2.63,21.61,21.61,0,0,1-4.26,2.23,13.38,13.38,0,0,1-4.6.89c0,.14,0,.27,0,.4a8.39,8.39,0,0,1-.18.84,7.2,7.2,0,0,1-3,3.86L62,84v.36a13.8,13.8,0,0,0,5.38-1.06A21,21,0,0,0,72,80.67,40.51,40.51,0,0,0,75.29,78c.47-.42.9-.82,1.3-1.2l1.12-1.06c1.37-1.33,2.3-2.27,2.93-2.83s.91-.8,1-.75-.16.34-.71,1-1.42,1.64-2.74,3c-.33.35-.69.72-1.09,1.11s-.81.81-1.28,1.25a35.74,35.74,0,0,1-3.33,2.8,21.74,21.74,0,0,1-4.72,2.73,14.46,14.46,0,0,1-5.88,1.13,4.66,4.66,0,0,1-.26.61,7,7,0,0,1-1.33,1.63h0v.46a2.51,2.51,0,0,1-.36,1.19,3.42,3.42,0,0,1-.71.85,5.78,5.78,0,0,1-1.62,1l-.13.06-.11.46c-.06.32-.11.64-.2,1a8.07,8.07,0,0,1-.33.94,9,9,0,0,1-1.19,2,9.16,9.16,0,0,1-1.55,1.5,9.44,9.44,0,0,1-1.15.75c.17,0,.34,0,.51-.09l.81-.18,0,.83a4.79,4.79,0,0,1-.58,2,7.13,7.13,0,0,1-1.38,1.8,8.81,8.81,0,0,1-1.66,1.25,7,7,0,0,1-3.36,1,4.45,4.45,0,0,1-1.26-.17c-1.09,3.71-3.17,7-4.16,10.75a.92.92,0,0,1,0,.16.49.49,0,0,1-.58.32,6.37,6.37,0,0,1-1.59-.49.41.41,0,0,1-.21-.3.39.39,0,0,1,0-.3c1.25-3.53,1.74-7.32,3.72-10.55a6.24,6.24,0,0,1-1.9-3.89,8.44,8.44,0,0,1-.2-.87,3.63,3.63,0,0,1,0-1.54,1.74,1.74,0,0,1,.22-.48,1.19,1.19,0,0,1,.52-.42,1.22,1.22,0,0,1,.26-.06,14.16,14.16,0,0,1-.1-2A11.81,11.81,0,0,1,42,92.86a5.08,5.08,0,0,1,.5-1.56,2.06,2.06,0,0,1,.6-.68,1.58,1.58,0,0,1,.94-.31,1.44,1.44,0,0,1,.46,0h0l.07,0h0l0,0,.07,0a1.69,1.69,0,0,1,.29.17,1.57,1.57,0,0,1,.32.31,6.25,6.25,0,0,1,.16-.62c.37-1.31,1-2.64,1.49-4,.13-.34.24-.68.35-1l.29-.86.36.28a17.84,17.84,0,0,1-.56-4.77,24.4,24.4,0,0,1,.64-5,43.2,43.2,0,0,1,2.87-8.21c1.07-2.37,2.16-4.41,3.16-6.2s1.91-3.31,2.71-4.63c1.59-2.63,2.72-4.42,3.44-5.57a8,8,0,0,1,1.09-1.61,6.79,6.79,0,0,1-.8,1.78c-.63,1.2-1.68,3-3.21,5.72-.76,1.33-1.64,2.87-2.6,4.66s-2,3.83-3.06,6.18a43.94,43.94,0,0,0-2.77,8.07,23.33,23.33,0,0,0-.6,4.86A16.11,16.11,0,0,0,49,84.84a8,8,0,0,1,.17-1.09,10.84,10.84,0,0,1,.71-2.15A12.86,12.86,0,0,1,51,79.5l.52-.68L52,78.3l.5.45c.11.1.2.2.3.3A6.28,6.28,0,0,1,53,77.91a10.2,10.2,0,0,1,1.66-3.1c.27-.35.55-.68.83-1l.19-.2a19.89,19.89,0,0,1,.37-4.55,32.89,32.89,0,0,1,1.23-4.55,60.79,60.79,0,0,1,3.2-7.42c2.2-4.31,4.18-7.51,5.68-10S68.77,43,69.45,42a7,7,0,0,1,1.06-1.47,6.15,6.15,0,0,1-.77,1.64c-.6,1.12-1.59,2.83-3,5.3s-3.35,5.7-5.49,10a62.21,62.21,0,0,0-3.11,7.33,25,25,0,0,0-1.54,8.9A9.9,9.9,0,0,1,57,72.6a14.4,14.4,0,0,1,1.95-3.15c.15-.2.32-.39.48-.57l.47-.56.38.44a7.71,7.71,0,0,1,.51-2A10.56,10.56,0,0,1,61.66,65,9.76,9.76,0,0,1,63,63.31a7,7,0,0,1,.77-.67l.1-.08a25.34,25.34,0,0,1,1.53-7.71,50.31,50.31,0,0,1,3-6.76,97,97,0,0,1,5.41-9c1.46-2.18,2.52-3.65,3.2-4.57s1-1.31,1.05-1.28a5.23,5.23,0,0,1-.77,1.46c-.6,1-1.58,2.51-3,4.73s-3.22,5.11-5.22,9a50.49,50.49,0,0,0-2.89,6.67,25.09,25.09,0,0,0-1.48,7.42c.09-.21.18-.4.28-.61a17.29,17.29,0,0,1,1.8-2.77c.3-.38.6-.74.91-1.09l.42-.47.46.4a4,4,0,0,1,.4.42,8.13,8.13,0,0,1,.7-2.36,12.77,12.77,0,0,1,2.19-3.34,5.24,5.24,0,0,1,.7-.63l.16-.12a16.12,16.12,0,0,1,1-5.91,28.64,28.64,0,0,1,2.72-5.56,51.28,51.28,0,0,1,5.27-7c1.46-1.63,2.53-2.69,3.23-3.36s1-.91,1.08-.87-.21.38-.83,1.11-1.62,1.85-3,3.52a58.8,58.8,0,0,0-5.06,7,29.75,29.75,0,0,0-2.6,5.43,15.47,15.47,0,0,0-.93,5.43l.08-.18a12.28,12.28,0,0,1,2-2.9,10.36,10.36,0,0,1,1-1l.47-.39.39.46a5.67,5.67,0,0,1,.5.68,14.11,14.11,0,0,1,.8-3.21A26.47,26.47,0,0,1,80.47,42a44.07,44.07,0,0,1,3.41-5.18,72.43,72.43,0,0,1,5.69-6.68c1.52-1.59,2.62-2.63,3.34-3.28S94,26,94,26s-1.08,1.29-4,4.54c-1.45,1.64-3.34,3.79-5.51,6.74a45.09,45.09,0,0,0-3.3,5.12,24.68,24.68,0,0,0-1.48,3.17c0,.08,0,.17-.08.25.07-.08.14-.17.22-.25a8.62,8.62,0,0,1,1.73-1.34l.68-.43c0-.13.11-.27.17-.4a8.18,8.18,0,0,1,1.08-1.58A12.42,12.42,0,0,1,85,40.49c.24-.2.49-.36.73-.54l.47-.35.38.47a3.64,3.64,0,0,1,.66,1.3,11.34,11.34,0,0,1,.94-3.81,18.12,18.12,0,0,1,1.94-3.43,41.14,41.14,0,0,1,3.52-4.27c1.89-2,2.65-2.73,2.74-2.66s-.51.95-2.28,3.06a53.43,53.43,0,0,0-3.32,4.32A19.08,19.08,0,0,0,89,37.89a11.17,11.17,0,0,0-.83,3.16A12.38,12.38,0,0,1,91,39.83l.65-.19.71-.2.09.72a7,7,0,0,1,0,1.88,5.81,5.81,0,0,1-.5,1.68A5.62,5.62,0,0,1,90.13,46l-.24.15h1.18l-.15.72c0,.24-.1.49-.16.74s-.16.5-.26.75a5.73,5.73,0,0,1-1,1.51,5.41,5.41,0,0,1-1.29,1,5.08,5.08,0,0,1-.81.4l-.06.48-.09.9c-.07.31-.15.61-.24.92a5.28,5.28,0,0,1-1.15,1.86,5.2,5.2,0,0,1-1.66,1.11,7,7,0,0,1-1.84.53v.12l0,.24a3.39,3.39,0,0,1,0,.78A31.75,31.75,0,0,0,87,54.62a41.17,41.17,0,0,0,3.86-4.17C93,47.81,94.51,45.6,95.72,44c2.37-3.34,3.37-4.54,3.47-4.47s-.72,1.39-3,4.81c-1.14,1.7-2.6,4-4.76,6.67a42.65,42.65,0,0,1-3.9,4.28,31.77,31.77,0,0,1-5.42,4.17,3.5,3.5,0,0,1-2.09,2l-.54.15-.06.31c0,.22-.07.44-.1.67a5.41,5.41,0,0,1-.79,1.83c1.55-1,3.06-2.16,4.5-3.35a74.69,74.69,0,0,0,6.18-5.75c.45-.45.87-.9,1.27-1.34s.81-.86,1.18-1.28c.74-.86,1.46-1.64,2.09-2.42s1.23-1.49,1.77-2.18,1-1.32,1.49-1.94C98,45,98.67,43.89,99.29,43s1.07-1.58,1.44-2.14A7.12,7.12,0,0,1,101.85,39.33ZM91.26,41.88a7,7,0,0,0,0-.79,10.18,10.18,0,0,0-2.94,1.25,3.46,3.46,0,0,0-.92.91c0,.16,0,.31,0,.46a8.08,8.08,0,0,1-.88,2.7l0,.07h0a6.55,6.55,0,0,1,1.18-.28c.28,0,.57,0,.86-.07a7.75,7.75,0,0,0,1.06-.83,5.58,5.58,0,0,0,1.34-2A5.44,5.44,0,0,0,91.26,41.88Zm-1.93,5.95c.07-.17.12-.34.18-.51-.64,0-1.22-.06-1.75,0a4.52,4.52,0,0,0-1.81.38,3.93,3.93,0,0,0-1,.72c-.21.24-.35.38-.42.34s-.07-.22,0-.55a2.69,2.69,0,0,1,.63-.93,6.22,6.22,0,0,0,1.1-2.67,5.54,5.54,0,0,0-.38-3.19l-.13.09a12.64,12.64,0,0,0-1.33,1.2,7.51,7.51,0,0,0-1,1.28,4.55,4.55,0,0,0-.6,2.16A9.41,9.41,0,0,1,83,47.3c.09.42.2.77.28,1.05.16.46.21.72.14.77s-.23-.1-.45-.37a9.51,9.51,0,0,1-.38,1.76,7.91,7.91,0,0,1-.28.78c-.11.24-.23.46-.34.67l-.09.19a6.2,6.2,0,0,1,1.49-.6c-.07,0-.12-.08-.12-.11,0-.19.91-.25,2.23-.61a7.46,7.46,0,0,0,2.12-.94,5.15,5.15,0,0,0,1-.87,5,5,0,0,0,.73-1.19ZM86,52.43s0,0,0,0c-.83,0-1.59.1-2.27.2a6.53,6.53,0,0,0-2.18.73c-.27.16-.51.33-.74.47s-.4.32-.57.43-.51.33-.57.28,0-.26.25-.59l.16-.23.12-.23.23-.35a3.61,3.61,0,0,0,.21-.44,8,8,0,0,0,.49-1.07L81.4,51a6.68,6.68,0,0,0,.18-.71,10.71,10.71,0,0,0,.24-1.59,11.23,11.23,0,0,0-.27-2.83,6,6,0,0,0-.78.64,5.5,5.5,0,0,0-1,1.35A8.46,8.46,0,0,0,79,50.69c-.1.88-.15,1.62-.23,2.13s-.16.79-.24.79a.05.05,0,0,1,0,0c-.35,1.1-.71,1.67-.84,1.64s0-.86.13-2.13a8,8,0,0,0,0-2.18,4.38,4.38,0,0,0-.35-1.17,5,5,0,0,0-.34-.59l-.42.43a13.74,13.74,0,0,0-1.94,2.55,4,4,0,0,0-.6,1.94q.12.39.21.78a2.61,2.61,0,0,0,.75.73l.41.29c.09.08.14.14.12.18s-.08.06-.2.06a1.6,1.6,0,0,1-.54-.07l-.29-.11a10,10,0,0,1,.13,1.54,6.15,6.15,0,0,1-.19,1.42,4.64,4.64,0,0,1-.92,1.81c-.31.35-.53.5-.59.44s.48-.93.66-2.42a5.52,5.52,0,0,0,0-1.22,8.66,8.66,0,0,0-.24-1.41,21.62,21.62,0,0,0-.76-2.36,14.24,14.24,0,0,0-2,2.85,7.19,7.19,0,0,0-.88,2.72,1.78,1.78,0,0,0,.62,1.57,4.35,4.35,0,0,0,.43.32q.16.12.15.18s-.1.06-.23.06a1.59,1.59,0,0,1-.61-.13l-.08,0A5.26,5.26,0,0,1,70,63a3.39,3.39,0,0,1-.74,1.37c-.25.27-.44.36-.49.31s.3-.72.42-1.85A5.09,5.09,0,0,0,69,60.91a4.17,4.17,0,0,0-.76-1.48c-.14.18-.28.34-.43.52A23.56,23.56,0,0,0,66,62.5a7,7,0,0,0-.79,1.77,9.35,9.35,0,0,1,.35,1.67l0,0,.18.16.17.12c.09.08.13.14.11.18s-.08.06-.2.07l-.23,0a6.9,6.9,0,0,1-.44,3.08A4,4,0,0,1,64,71.21c-.39.29-.64.37-.69.31s.71-.78,1.08-2.25a8.55,8.55,0,0,0-.48-5.07h0a8.35,8.35,0,0,0-1.19,1.46,11.58,11.58,0,0,0-.87,1.53,7,7,0,0,0-.7,2.83s0,.1,0,.15a5.39,5.39,0,0,1,.39,1.63s0,0,0,.07c.25.43.42.68.35.75s-.18,0-.37-.14A7.56,7.56,0,0,1,61,75.11c-.6,1.5-1.38,2.16-1.49,2.06s.34-.9.67-2.32a8.29,8.29,0,0,0,.22-2.48,4.68,4.68,0,0,0-.59-2c-1.48,1.86-2.52,3.84-2.6,5.3,0,.13,0,.26,0,.39a7.45,7.45,0,0,1,.14.8,3.41,3.41,0,0,0,.18.48c.22.39.38.63.31.69s-.2,0-.43-.16a6.11,6.11,0,0,1-.19,1.53,4.16,4.16,0,0,1-.72,1.48c-.25.3-.43.42-.5.37s.28-.78.39-2a8.37,8.37,0,0,0-.61-3.77l-.12.14a9.32,9.32,0,0,0-2,4.75,3.36,3.36,0,0,1,.2.43,6,6,0,0,1,.42,2.15A8.45,8.45,0,0,1,54,85.46a8.16,8.16,0,0,1,1.12-.62c.41-.17.85-.32,1.31-.47l-.05,0c-.54-.32-.78-.57-.73-.63s.37,0,.91.17a6.74,6.74,0,0,0,1.11.15c1.1-.26,2.27-.49,3.43-.84a6.86,6.86,0,0,0,.9-.57,6.45,6.45,0,0,0,2.42-3.25c0-.17.07-.34.11-.51-1.13.23-2.17.35-3.1.53a9.09,9.09,0,0,0-2.88.93,7.33,7.33,0,0,0-1.58,1.24c-.33.38-.54.59-.61.54s0-.32.22-.78a5.31,5.31,0,0,1,1.52-1.71,8.61,8.61,0,0,1,3.1-1.32c.83-.21,1.72-.36,2.63-.55-1.26-.12-1.94-.47-1.92-.58s1.13,0,2.75-.27a5.08,5.08,0,0,0,3.58-2.26,8.38,8.38,0,0,0,.82-1.5,5.39,5.39,0,0,0-1-.2,8.13,8.13,0,0,0-1.56,0,6.74,6.74,0,0,0-2.52.71,3.36,3.36,0,0,0-1.28,1.11.78.78,0,0,0-.16.24,2,2,0,0,1-.11.2c-.07.1-.12.15-.16.15s-.07-.09-.08-.21v-.22a1.13,1.13,0,0,1,0-.32,3.18,3.18,0,0,1,1.27-1.68,6.66,6.66,0,0,1,2.84-1.11,5,5,0,0,1,.56-.07c-.35-.17-.51-.32-.48-.39s.32,0,.8,0a6.41,6.41,0,0,0,2-.18,7.92,7.92,0,0,0,2.66-1.25,7.78,7.78,0,0,0,1.27-1.16A6.25,6.25,0,0,0,74,67.46c-1-.06-1.93-.13-2.79-.13a8.45,8.45,0,0,0-2.74.39,4,4,0,0,0-1.52,1c-.31.34-.48.56-.56.51s0-.31.15-.76a3.61,3.61,0,0,1,1.56-1.51,7.81,7.81,0,0,1,3.07-.73c.57,0,1.18,0,1.79,0a4,4,0,0,1-1-.49c-.39-.3-.55-.52-.51-.58s.32,0,.74.15a6.46,6.46,0,0,0,1.81.29,4.37,4.37,0,0,0,2.45-.73,4,4,0,0,0,1.61-2.36c-.92,0-1.78,0-2.56,0a10,10,0,0,0-2.55.36,4.86,4.86,0,0,0-1.5.73c-.34.24-.54.42-.61.36s0-.29.25-.67A3.7,3.7,0,0,1,72.62,62a8.71,8.71,0,0,1,2.79-.68c.43,0,.88-.06,1.34-.07-.15-.1-.23-.18-.21-.23.06-.2.92,0,2.15-.21a3.77,3.77,0,0,0,.93-.31,3.3,3.3,0,0,0,.87-.65,2.7,2.7,0,0,0,.54-1,4.26,4.26,0,0,0,.13-.94c-.81,0-1.57-.07-2.25-.06a7.52,7.52,0,0,0-2.16.31,2.72,2.72,0,0,0-1.14.71l-.09.09-.07.09-.11.15c-.08.08-.14.11-.18.1s-.06-.08-.06-.19a1.28,1.28,0,0,1,0-.19.58.58,0,0,1,.06-.26,2.48,2.48,0,0,1,1.22-1.31,6,6,0,0,1,2-.6c.34-.12,1.29-.2,2.6-.41a9.61,9.61,0,0,0,2.72-.82A4.4,4.4,0,0,0,85,54.57a4.32,4.32,0,0,0,.85-1.41c.07-.24.13-.48.19-.73ZM60.46,85.18a2.6,2.6,0,0,0,.23-.58c-1.26.3-2.44.47-3.49.69a15.77,15.77,0,0,0-1.76.47,8,8,0,0,0-1.39.65,5,5,0,0,0-.66.48,6.23,6.23,0,0,1-1,1.52c-.38.41-.66.57-.71.51s0-.19.14-.44a2.26,2.26,0,0,1,.21-.81,5.15,5.15,0,0,1,.6-1q.09-.27.18-.57A8.6,8.6,0,0,0,53.12,83a5.08,5.08,0,0,0-1-2.77s0,0,0,0A13.75,13.75,0,0,0,51,82.12a11.4,11.4,0,0,0-.71,1.9A8.8,8.8,0,0,0,50,87.41a9.7,9.7,0,0,0,.63,2.24c.25.52.37.83.3.88s-.33-.16-.71-.61l-.09-.13A8,8,0,0,1,49.68,92a5.45,5.45,0,0,1-1.07,1.89,1.67,1.67,0,0,1-.45.39c-.12.08-.19.1-.22.08s.58-.94.92-2.6a8.32,8.32,0,0,0,.15-2.9,4.9,4.9,0,0,0-.79-2.23s0,.05,0,.08c-.54,1.45-1.16,2.73-1.57,3.92a9.44,9.44,0,0,0-.5,2.3c0,.26.08.51.12.76s.07.68.08,1c0,.1.07.2.1.3a2.72,2.72,0,0,0,.19.47l.17.4c.29.48.41.77.35.82s-.33-.13-.74-.51c0,0,0,0-.06-.08,0,.25,0,.5,0,.73s0,.32-.07.48a1.31,1.31,0,0,1-.06.27l-.06.19A1.17,1.17,0,0,1,46,98a2,2,0,0,1-.09.22c-.05.13-.11.26-.17.39a6,6,0,0,1-.38.64c-.21.32-.43.64-.67.94-.4.48-.64.73-.72.69s0-.39.29-1c.14-.28.3-.61.48-1,.09-.19.18-.4.26-.62s.06-.22.1-.33l0-.16a1.55,1.55,0,0,0,0-.21,6.37,6.37,0,0,0,.05-1.69,19.09,19.09,0,0,0-.21-2,6.46,6.46,0,0,0-.58-2,.72.72,0,0,0-.21-.25s0,0,0,0l-.07,0v.1c-.06-.44-.12-.13-.16-.12s-.15-.09-.21,0a.77.77,0,0,0-.23.28,3.85,3.85,0,0,0-.36,1.15,10.88,10.88,0,0,0-.13,1.28,14.19,14.19,0,0,0,.09,2.44l.15,1-.91-.39-.22-.07c-.49,1.82.1,4.59,1.69,5.64a.57.57,0,0,1,.13.71c-2,3.12-2.51,6.82-3.69,10.29a5.15,5.15,0,0,0,.56.16c1-3.66,3.07-6.94,4.12-10.6l-.17-.11c-.46-.34-.61-.62-.56-.68s.33.08.79.24a4.25,4.25,0,0,0,2,.19,6.92,6.92,0,0,0,2.81-1.1,7.44,7.44,0,0,0,2.53-2.64,5.3,5.3,0,0,0,.28-.65c-.93.09-1.78.08-2.54.11a7.25,7.25,0,0,0-2.48.41,5.27,5.27,0,0,0-1.43.84c-.31.29-.51.43-.57.38s0-.28.22-.65a4.08,4.08,0,0,1,1.42-1.32l.43-.2c-.16-.06-.25-.11-.24-.15s.32-.15.84-.21a11.45,11.45,0,0,0,2.15-.53,9.25,9.25,0,0,0,4.07-3,8.21,8.21,0,0,0,1-1.72c.1-.26.2-.53.28-.8l0-.12A8.92,8.92,0,0,0,50.85,93a6,6,0,0,0-1.33,1.14c-.28.33-.45.53-.52.49s0-.29.13-.71a4.48,4.48,0,0,1,1.24-1.59,6.35,6.35,0,0,1,2.05-1.14c-.24-.12-.34-.23-.32-.28s.27,0,.68,0c.19,0,.42,0,.68,0A10,10,0,0,1,55,90.69,9.51,9.51,0,0,0,57.14,90a5.5,5.5,0,0,0,1.27-.87,2.14,2.14,0,0,0,.51-.69h-.05l-1.44-.26,1.06-.85A7.84,7.84,0,0,0,60.46,85.18Zm-11.55.32c0-.1,0-.19,0-.29l-.21.06C48.78,85.34,48.84,85.42,48.91,85.5Z"/><rect class="cls-2" width="141.2" height="141.2" rx="70.6"/></g></g></svg>