<svg xmlns="http://www.w3.org/2000/svg" viewBox="0 0 141.2 141.2"><defs><style>.cls-1{}.cls-2{fill:none;}</style></defs><g id="Calque_2" data-name="Calque 2"><g id="Layer_1" data-name="Layer 1"><path class="cls-1" d="M108,102.61a11.36,11.36,0,0,1,0-5.1c1.13-6.46-1.81-15.7-7.68-24.11-4.1-5.87-9.1-10.61-14.08-13.34a21.47,21.47,0,0,0-4.4-1.86,33.49,33.49,0,0,0-2.1-8.58A10.63,10.63,0,0,0,79,42.56a11.78,11.78,0,0,0-5.33-6.05c3.2-9.62,14-7.13,14.47-7a1,1,0,0,0,.48-1.94c-.13,0-13-3-16.82,8.22a11.87,11.87,0,0,0-7.75.65,10.61,10.61,0,0,0-5.47,4.52c-8.51,3.64-17.19,12.91-21.22,22.73C33.13,73.93,31.2,92.06,35,103c-.86,2.84,1.45,8.37,6.23,10.33A10,10,0,0,0,45,114c3.57,0,6.85-1.77,7.88-3.71C61.5,106.08,70.36,96.06,75.67,87c.52.83,1,1.65,1.62,2.47,5.87,8.41,13.52,14.36,20,15.53a11.34,11.34,0,0,1,4.77,1.79,5.36,5.36,0,0,0,3.07,1.15,3.09,3.09,0,0,0,1.78-.54C108.17,106.47,108.58,104.69,108,102.61ZM65.15,78.05c-6.36,15.49-16.62,30.65-21.93,33L72.71,39.22C74.65,44.35,72,61.32,65.15,78.05ZM48.93,71.39c6.36-15.49,16.64-30.64,21.94-33L41.36,110.26C39.19,104.92,42.53,87,48.93,71.39Zm-12,32.11.06-.13a1,1,0,0,0,0-.72c-3.78-10.43-1.9-28.19,2.23-38.22C43.1,54.92,51.54,46,59.71,42.63a1,1,0,0,0,.55-.54l0-.13c.59-1.34,2.38-2.81,4.5-3.69a11.24,11.24,0,0,1,3.93-.87c-7.08,4.61-16.61,21-21.65,33.23s-9.74,30.53-8,38.8C37.24,107.42,36.44,104.75,36.89,103.5Zm14.8,5.2a1,1,0,0,0-.52.57.29.29,0,0,0,0,.09c-.57,1.21-3,2.54-5.75,2.66C52.47,107.36,62,91,67,78.81c5.11-12.45,9.77-30.6,8-38.82a11.27,11.27,0,0,1,2.16,3.35c.89,2.11,1.13,4.42.6,5.78l-.06.13a1,1,0,0,0,0,.77c3.47,8.12,3.17,20.42-.73,29.92C72.85,90,61.7,103.93,51.69,108.7Zm54.05-3c-.53.37-1.52.14-2.52-.59A13.29,13.29,0,0,0,97.63,103c-5.87-1.06-13.21-6.84-18.7-14.71-.77-1.1-1.47-2.22-2.13-3.34.78-1.46,1.46-2.89,2-4.25A47.08,47.08,0,0,0,82,60.36a20.43,20.43,0,0,1,3.24,1.45c4.72,2.58,9.48,7.11,13.4,12.73C104.13,82.42,107,91.3,106,97.17a13.22,13.22,0,0,0,.07,6C106.4,104.35,106.27,105.35,105.74,105.73Z"/><rect class="cls-2" width="141.2" height="141.2" rx="70.6"/></g></g></svg>