<svg xmlns="http://www.w3.org/2000/svg" viewBox="0 0 141.2 141.2"><defs><style>.cls-1{fill:none;}.cls-2{}</style></defs><g id="Calque_2" data-name="Calque 2"><g id="Layer_1" data-name="Layer 1"><rect class="cls-1" width="141.2" height="141.2" rx="70.6"/><path class="cls-2" d="M93,42.41H86.06V39.32c0-1-1.09-1.46-2.09-1.46H78.6a8.13,8.13,0,0,0-8.09-5.46,8.29,8.29,0,0,0-8.1,5.46H57.14c-1,0-2,.45-2,1.46v3.09H48.23a7.72,7.72,0,0,0-7.64,7.36v52.12c0,4,3.63,6.91,7.64,6.91H93c4,0,7.64-2.91,7.64-6.91V49.77A7.72,7.72,0,0,0,93,42.41ZM58.78,41.5h5a2,2,0,0,0,1.73-1.64,5.27,5.27,0,0,1,5-4.09,5.18,5.18,0,0,1,4.91,4.09,2,2,0,0,0,1.82,1.64h5.18v7.27H58.78ZM97,101.89c0,2-2,3.28-4,3.28H48.23c-2,0-4-1.28-4-3.28V49.77a4.08,4.08,0,0,1,4-3.72h6.91v4.63a1.9,1.9,0,0,0,2,1.73H84a2,2,0,0,0,2.09-1.73V46.05H93a4.08,4.08,0,0,1,4,3.72Z"/><path class="cls-2" d="M61.05,73l-5.82,5.55L52.77,76a1.81,1.81,0,0,0-2.54-.09,1.9,1.9,0,0,0,0,2.64L54,82.34a1.6,1.6,0,0,0,1.27.54,1.82,1.82,0,0,0,1.27-.54l7.1-6.73a1.74,1.74,0,0,0,.1-2.45l-.1-.1A1.82,1.82,0,0,0,61.05,73Z"/><path class="cls-2" d="M89.7,77H68.78a1.82,1.82,0,0,0,0,3.64H89.7a1.82,1.82,0,0,0,0-3.64Z"/><path class="cls-2" d="M61.05,58.42,55.23,64l-2.46-2.54a1.81,1.81,0,0,0-2.54-.09,1.89,1.89,0,0,0,0,2.63L54,67.78a1.64,1.64,0,0,0,1.27.55,1.79,1.79,0,0,0,1.27-.55l7.1-6.73a1.72,1.72,0,0,0,.1-2.44l-.1-.1A1.82,1.82,0,0,0,61.05,58.42Z"/><path class="cls-2" d="M89.7,62.42H68.78a1.82,1.82,0,0,0,0,3.64H89.7a1.82,1.82,0,0,0,0-3.64Z"/><path class="cls-2" d="M61.05,87.52l-5.82,5.55-2.46-2.55a1.81,1.81,0,0,0-2.54-.09,1.9,1.9,0,0,0,0,2.64L54,96.89a1.6,1.6,0,0,0,1.27.54,1.78,1.78,0,0,0,1.27-.54l7.1-6.73a1.72,1.72,0,0,0,.1-2.44l-.1-.11A1.82,1.82,0,0,0,61.05,87.52Z"/><path class="cls-2" d="M89.7,91.52H68.78a1.82,1.82,0,0,0,0,3.64H89.7a1.82,1.82,0,0,0,0-3.64Z"/></g></g></svg>