<svg xmlns="http://www.w3.org/2000/svg" viewBox="0 0 141.2 141.2"><defs><style>.cls-1{}.cls-2{fill:none;}</style></defs><g id="Calque_2" data-name="Calque 2"><g id="Layer_1" data-name="Layer 1"><path class="cls-1" d="M91.51,42.89a1.53,1.53,0,1,1-3.05,0A1.53,1.53,0,1,1,91.51,42.89Z"/><path class="cls-1" d="M90.88,54.51l1.47,4.61a24.63,24.63,0,0,1,3.26,3.26,1.61,1.61,0,0,1-.18,2.21,1.52,1.52,0,0,1-2.16-.19c-2.26-2.8-3-2.48-3.67-3.85L87.45,53.8a1.56,1.56,0,0,1,1.41-2c2.1-.16,3.67-2,4.42-3.6a2,2,0,0,0,0-1.37,2.65,2.65,0,0,1,1.8-3.07A5.35,5.35,0,0,0,97,42.51c-1.33-1.93-4.42-4.85-10.33-3A5.88,5.88,0,0,0,83,42.69c-3.24,6.6,1.34,19.62,1.39,19.75A1.59,1.59,0,0,1,84,64.11a8.68,8.68,0,0,1-6.87,2c-3.56-.44-16-1.19-26.49,7.53-2.55,2-5.12,3.94-8,4.81a1.58,1.58,0,0,1-.61-3,29.67,29.67,0,0,0,6.7-4.23C60.1,61.69,73.6,62.5,77.47,63a6.15,6.15,0,0,0,3.64-.61C80,58.78,77,47.9,80.24,41.3a8.88,8.88,0,0,1,5.58-4.81c9.5-2.91,13.67,3.93,14.56,5.69l7.88,6.61a1.61,1.61,0,0,1,.46,1.77c-1.45,4.22-10.57,2.7-13.91,1a9.44,9.44,0,0,1-3.93,3Zm14-4.53-6-5a8.77,8.77,0,0,1-2.53,1.6,5.56,5.56,0,0,1-.09,2.25c1.72.78,6.1,1.77,8.57,1.15Z"/><path class="cls-1" d="M20.31,80.68a1.56,1.56,0,0,1,2.36-1.52c2.22.81,4,1.39,5.35,1.82-.67-.67-1.06-1.13-1.1-1.17a1.57,1.57,0,0,1,1.55-2.52A20.5,20.5,0,0,0,37,77.1a1.53,1.53,0,0,1,1.81,1.21,1.56,1.56,0,0,1-1.18,1.85,27.07,27.07,0,0,1-5.1.6c10.18,7.56,20.58,4.89,30-5.76,1.35-1.5,3.6.58,2.26,2.1C59.14,83.41,53.3,87,47.32,87.94c3.13,1.31,8.3,1.85,15.51-2.72a1.56,1.56,0,0,1,1.61,2.66,31.76,31.76,0,0,1-4,2.13c16.89,2.36,25.43-7.92,25.82-8.4a1.54,1.54,0,0,1,2.36,2c-4.28,5.6-18,13.4-34.57,8.25a16.74,16.74,0,0,1-2,.12A14.86,14.86,0,0,1,41.88,88a21.79,21.79,0,0,1-8.3-2.85,3.74,3.74,0,0,1-.63.06,20.38,20.38,0,0,1-5.29-1.09A58.1,58.1,0,0,0,57.55,97.8a37.26,37.26,0,0,0,3.86.29,1.51,1.51,0,0,1,2.94-.62c.25.75,1.24,2.76,2.75,3.09,1,.19,3.15-2,4.47-4.09A1.51,1.51,0,0,1,73.68,96a1.57,1.57,0,0,1,.34.34c13-4,27-14.32,22.09-27.29a1.58,1.58,0,0,1,.8-2,1.52,1.52,0,0,1,2,.83,16.4,16.4,0,0,1-.29,13.55c-3.72,8.17-14,15.54-25.69,18.49a12.77,12.77,0,0,1-3.52,3.19v6H79.64a1.57,1.57,0,0,1,0,3.13H45.07a1.57,1.57,0,0,1,0-3.13H57.13v-8.2C33.52,97.26,20.87,82.37,20.31,80.68Zm46,28.43v-5.52A6.34,6.34,0,0,1,63,101.25c-.93,0-1.86,0-2.78-.06v7.92Z"/><rect class="cls-2" width="141.2" height="141.2" rx="70.6"/></g></g></svg>