<svg xmlns="http://www.w3.org/2000/svg" viewBox="0 0 141.2 141.2"><defs><style>.cls-1{}.cls-2{fill:none;}</style></defs><g id="Calque_2" data-name="Calque 2"><g id="Layer_1" data-name="Layer 1"><path class="cls-1" d="M96.74,48a.84.84,0,0,0-1.62.13A4.63,4.63,0,0,1,92.63,51a14.61,14.61,0,0,1-3.36,1,23.19,23.19,0,0,0-2.58.7C80.82,55,77.33,57.52,73.82,62a27,27,0,0,0-2.21,3.37l.25-2v-.07h-.12l.12,0v-.06h0l-.76-6.32a11.49,11.49,0,0,1,0-2.87l.75-6.31a.82.82,0,0,0-.2-.65.84.84,0,0,0-.63-.28H67.61a.08.08,0,0,1,0,0c.66-1.39,1.18-2.65,1.68-3.88a34.13,34.13,0,0,1,3.2-6.4c.93-1.4,5-4.27,5.75-4.35a.84.84,0,0,0,.75-.91.82.82,0,0,0-.3-.57.81.81,0,0,0-.62-.18c-5.22.51-6.8,1.09-9.53,2.8A17.12,17.12,0,0,0,65,36.12a19.78,19.78,0,0,0-4.33,10.54v.07H60.6L58.52,35.14c-.47-2.62-3.74-2.41-5.49-2.3l-.26,0a8.49,8.49,0,0,0-3,1h0c-2.35,1.32-3.64,5.07-3.81,6.79-.08.81-.17,1.62-.24,2.42-.2,2.08-.32,3.68-.41,5.2-.09,1.78,0,5.11,1.58,7.5a.8.8,0,0,0,.69.37A.79.79,0,0,0,48,56a.83.83,0,0,0,.33-.93,5,5,0,0,1,.1-.56c0-.17.07-.31.09-.43l.07-.64c0-.36.09-.72.13-1.08.12-1,.27-2.13.45-3.29a34.65,34.65,0,0,1,1.52-6.38A7.23,7.23,0,0,1,52,40.34a170,170,0,0,1,6.25,16c.15.44.28,1,.42,1.58a20.13,20.13,0,0,0,.7,2.48l-.33,2.77v.07h.12l-.12,0v.08l.19,1.57L57.34,60.2c-.82-2.05-4.06-1.57-6.2-1.26l-.28,0a10.37,10.37,0,0,0-1.88.53,7.09,7.09,0,0,0-1.29.62l0,0c-2.44,1.48-3.43,5.1-3.43,6.7,0,.75,0,1.5,0,2.25,0,1.92.08,3.4.16,4.79.1,1.66.58,4.74,2.67,6.76a.85.85,0,0,0,1.18,0,.83.83,0,0,0,.16-.92c0-.13,0-.34.05-.44s0-.31,0-.43v-.51c0-.36,0-.73,0-1.09,0-.91,0-2,.11-3a27.33,27.33,0,0,1,.93-6,6.63,6.63,0,0,1,1.58-2.73,120.71,120.71,0,0,1,8.17,11.11l-.23,1.92a.86.86,0,0,0,0,.31,1,1,0,0,0,0,.34,12,12,0,0,0-4-.08h0a9.46,9.46,0,0,0-2.7.58l-.23.08c-2.07.7-2.93,3.23-3,5.18L49,86.65c-.07,1.44-.1,2.55-.1,3.62a8.14,8.14,0,0,0,1.74,5.33h0a.83.83,0,0,0,1.4-.82c0-.07,0-.18,0-.24l-.11,0h.12a1.47,1.47,0,0,0,0-.34l0-.39c0-.27,0-.54.07-.81.05-.72.12-1.49.21-2.27a20.26,20.26,0,0,1,1-4.38,4.4,4.4,0,0,1,1.09-1.73c1.74,2.4,3.36,4.88,4.82,7.37L59.1,94a.74.74,0,0,0,0,.36.72.72,0,0,0,0,.35l.71,6a11.57,11.57,0,0,1,0,2.88l-.75,6.3a.83.83,0,0,0,.83.94H71a.84.84,0,0,0,.62-.28.88.88,0,0,0,.21-.66l-.76-6.3a12.61,12.61,0,0,1,0-2.88l.71-5.88.07-.1a13.43,13.43,0,0,1,2.67-2.91,22.71,22.71,0,0,1,3-1.66,18.76,18.76,0,0,0,4.13-2.49,14.34,14.34,0,0,0,4.27-8,.81.81,0,0,0-.39-.9.83.83,0,0,0-1,.09A29.38,29.38,0,0,1,78,83.28l-.94.45c-2.09,1-4.44,2.1-6,4a11.89,11.89,0,0,1,0-2.53l.73-6c2.06-6.44,5.65-10.64,8.53-14,.72-.84,1.4-1.64,2-2.42a24.07,24.07,0,0,1,8.35-6.91c.38-.19.77-.37,1.17-.55a12,12,0,0,0,3.5-2.12A5.07,5.07,0,0,0,96.74,48ZM71.39,90.48c1-2.69,3.72-4,6.37-5.24l1-.46a30.51,30.51,0,0,0,4.86-2.94,10.93,10.93,0,0,1-3,4.55,17.13,17.13,0,0,1-3.78,2.26,25.07,25.07,0,0,0-3.22,1.79,10.34,10.34,0,0,0-2,1.91l-.22-1.87Zm-9.92,10-.62-5.19h9.21l-.62,5.19a13.84,13.84,0,0,0,0,3.28l.64,5.37H60.83l.64-5.37a13.84,13.84,0,0,0,0-3.28Zm8.6-20.73L69.44,85a13.76,13.76,0,0,0,0,3.27l.62,5.19H60.85l.62-5.19a12.78,12.78,0,0,0,0-3.27l-.62-5.23Zm-.63-7L70.07,78H60.85l.62-5.23a13.84,13.84,0,0,0,0-3.28l-.64-5.36h9.25l-.64,5.36a13.84,13.84,0,0,0,0,3.28Zm-7.1-26a18,18,0,0,1,3.92-9.52,16.26,16.26,0,0,1,3.19-2.61,13.06,13.06,0,0,1,4.7-2,15,15,0,0,0-3,2.85,35.49,35.49,0,0,0-3.35,6.7c-.49,1.2-1,2.45-1.65,3.79-.11.23-.22.5-.34.77ZM69.44,57l.64,5.37H60.83L61.47,57a13.76,13.76,0,0,0,0-3.27l-.64-5.37h9.25l-.64,5.37A13.76,13.76,0,0,0,69.44,57ZM71,70.35A33.14,33.14,0,0,1,75.14,63c3.34-4.28,6.52-6.56,12.14-8.72a21,21,0,0,1,2.37-.63,15.34,15.34,0,0,0,3.82-1.21c.24-.14.47-.28.68-.43a11.18,11.18,0,0,1-3,1.72c-.4.18-.82.37-1.22.58a25.85,25.85,0,0,0-8.92,7.36c-.59.76-1.26,1.54-2,2.38a44.29,44.29,0,0,0-7.63,11.36l-.35-2.93A11.29,11.29,0,0,1,71,70.34ZM59.81,72.53l-.18,1.53a123.53,123.53,0,0,0-8.07-10.68,11,11,0,0,0-2.31-2.18,8.45,8.45,0,0,1,1.84-.56l.3,0c1.11-.16,4.07-.59,4.4.24L59.89,71a10.88,10.88,0,0,1-.08,1.53ZM53.74,81a13.07,13.07,0,0,1,1.48-.24h.05c3.42-.34,3.73.17,3.73.17a20.12,20.12,0,0,1,.56,2.12l.25,2.13a11.57,11.57,0,0,1,0,2.88l-.14,1.2c-1.42-2.29-3-4.55-4.55-6.7h0A9.67,9.67,0,0,0,53.74,81Zm3.13-45.59,2.18,12.16v.07L59.81,54a12.24,12.24,0,0,1,.07,1.92l0-.09A168.93,168.93,0,0,0,53,38.5a12.18,12.18,0,0,0-2.07-3.35,5.42,5.42,0,0,1,1.92-.62l.27,0c1.79-.11,3.55-.14,3.74.92Zm-5.62,3.25a9.18,9.18,0,0,0-2.12,3.43,37.29,37.29,0,0,0-1.6,6.68c-.16,1-.29,2.07-.4,3A15.73,15.73,0,0,1,47,48.34c.08-1.49.2-3.07.39-5.13l.24-2.42a9.87,9.87,0,0,1,2-4.65l.07.07a9.19,9.19,0,0,1,1.61,2.47ZM50.07,64.21A8.35,8.35,0,0,0,48,67.78a28.61,28.61,0,0,0-1,6.31c-.07,1.11-.1,2.2-.12,3.12v.15a11.26,11.26,0,0,1-.78-3.57c-.09-1.37-.14-2.82-.16-4.72,0-.74,0-1.48,0-2.23a7.9,7.9,0,0,1,1.83-4.61l.18.11A8.13,8.13,0,0,1,50.07,64.21Zm3.45,19a6.33,6.33,0,0,0-1.66,2.53h0a21.14,21.14,0,0,0-1,4.74c0,.37-.09.77-.13,1.2a9,9,0,0,1-.12-1.45c0-1,0-2.12.1-3.53,0-.56,0-1.12.08-1.68A5.73,5.73,0,0,1,52,81.79l.19.13a5.78,5.78,0,0,1,1.37,1.32Z"/><rect class="cls-2" width="141.2" height="141.2" rx="70.6"/></g></g></svg>