<svg xmlns="http://www.w3.org/2000/svg" viewBox="0 0 141.2 141.2"><defs><style>.cls-1{}.cls-2{fill:none;}</style></defs><g id="Calque_2" data-name="Calque 2"><g id="Layer_1" data-name="Layer 1"><path class="cls-1" d="M74.49,64.29a1,1,0,1,0-1.72,1,1,1,0,0,0,.35.35l1.57,1.57a1,1,0,0,0,1.37,0,1,1,0,0,0,0-1.37Z"/><path class="cls-1" d="M73.9,70.9a1,1,0,0,0-1.37.35,1,1,0,0,0,0,1l1.57,1.58a1,1,0,0,0,1.37-1.38Z"/><path class="cls-1" d="M65.72,71.49a1,1,0,0,0-1.38,1.37l1.57,1.57a1,1,0,0,0,1.38,0,1,1,0,0,0,0-1.37Z"/><path class="cls-1" d="M57.53,82.82a1,1,0,0,0-1.37.35,1,1,0,0,0,0,1l1.57,1.57a1,1,0,0,0,1.37,0,1,1,0,0,0,0-1.37Z"/><path class="cls-1" d="M100.63,43.6c-.2,0-3.68-1.35-7.67,1.93A9.55,9.55,0,0,0,91.63,39,1,1,0,0,0,90,40.1c1.43,2.19,1.54,4.91.35,8.3-.22.3-.44.61-.66,1,0,0-.64.88-1.6,2.15a9.74,9.74,0,0,0-2.67-7,1,1,0,0,0-1.37,0,1,1,0,0,0,0,1.38c1.87,1.91,2.49,4.65,1.9,8.35-.88,1.1-1.85,2.26-2.85,3.39a9.94,9.94,0,0,0-2.67-7.2,1,1,0,0,0-1.37,0,1,1,0,0,0,0,1.38c1.83,1.87,2.47,4.52,2,8.09a23.37,23.37,0,0,1-2,1.81,10.57,10.57,0,0,0-14.82,2c-.21.28-.42.58-.61.88L40.33,99.6a2,2,0,0,0,.73,2.73,2,2,0,0,0,.93.27,2,2,0,0,0,1.07-.31l35-23.21A10.56,10.56,0,0,0,80.38,63c.67-.57,1.36-1.22,2.06-1.93v0c.67-.69,1.35-1.43,2-2.18a6.68,6.68,0,0,1,4.41,4.52,1,1,0,0,0,.92.65.63.63,0,0,0,.31,0,1,1,0,0,0,.61-1.23,8.82,8.82,0,0,0-3.88-5c3.61-.94,6.92,0,10.06,2.93a1,1,0,0,0,1.32-1.42,15.88,15.88,0,0,0-3.3-2.39A10.14,10.14,0,0,0,97,51.44a1,1,0,0,0-.93-1,1,1,0,0,0-1,.92,8.4,8.4,0,0,1-2,4.76,11.33,11.33,0,0,0-6-.36c2.24-2.76,3.92-5.1,4.07-5.31s.43-.63.65-.92l.08-.11c4-5.33,7.74-4,7.93-4a1,1,0,0,0,.8-1.82ZM81.14,71.09a8.55,8.55,0,0,1-4.07,6.35h0L69.71,82.3l-2-2a1,1,0,0,0-1.4,1.3l1.75,1.75L42,100.6l23.23-35a8.64,8.64,0,0,1,6.35-4.07,8.51,8.51,0,0,1,1-.06,8.63,8.63,0,0,1,8.62,8.66,8.26,8.26,0,0,1-.06,1Z"/><rect class="cls-2" width="141.2" height="141.2" rx="70.6"/></g></g></svg>