<svg xmlns="http://www.w3.org/2000/svg" viewBox="0 0 141.2 141.2"><defs><style>.cls-1{}.cls-2{fill:none;}</style></defs><g id="Calque_2" data-name="Calque 2"><g id="Layer_1" data-name="Layer 1"><path class="cls-1" d="M108.19,66.49s0,0,0,0a.49.49,0,0,0,0-.12,13.93,13.93,0,0,0-6.2-9.92c.29-.09.63-.17,1-.24a.58.58,0,0,0,.46-.44.59.59,0,0,0-.2-.61c-3.42-2.76-9.65-4.07-11.52-4.42a5,5,0,0,1,.4-.74.59.59,0,0,0,0-.6.58.58,0,0,0-.51-.32c-12-.5-16,4.8-17.19,7.06a17.49,17.49,0,0,0-5.65-4.33A21.86,21.86,0,0,0,63,41a.59.59,0,0,0-.67-.1.58.58,0,0,0-.34.59.37.37,0,0,1,0,.11c-2.51-3-5.51-4.46-8.18-5.72a27.17,27.17,0,0,1-3.69-2,.6.6,0,0,0-.62,0,.62.62,0,0,0-.32.53v1.28c-7.46-2.18-15.33-.3-15.67-.21l-.13.05-.05,0a.73.73,0,0,0-.16.14h0l0,0a.35.35,0,0,0-.06.14s0,.06,0,.08S33,36,33,36a49.69,49.69,0,0,0,1.52,12.55,6.25,6.25,0,0,1-.5-.4.6.6,0,0,0-1,.46c0,6,3.58,11.65,5,13.64a4.69,4.69,0,0,1-.81,0,.6.6,0,0,0-.53.27.59.59,0,0,0,0,.59c2.39,4.88,6.19,5.83,7.59,6a17.32,17.32,0,0,0,2.3,6.94A18.07,18.07,0,0,0,44,99.67c-.26.38-.49.75-.69,1.07a1.16,1.16,0,0,0,0,1.14,1.21,1.21,0,0,0,1,.65,17.3,17.3,0,0,1,1.77.25,6.57,6.57,0,0,0,.24,2,1.22,1.22,0,0,0,.7.77,1.24,1.24,0,0,0,1.08-.08,7.71,7.71,0,0,1,1.37-.58,9.48,9.48,0,0,0,1.79,2.21,1.22,1.22,0,0,0,.84.32,1,1,0,0,0,.24,0,1.09,1.09,0,0,0,.79-.62l.17-.43a16.79,16.79,0,0,0,4.86.73c8.9,0,14.79-4.19,16.66-11.8a30.35,30.35,0,0,0,4.76.41,11.56,11.56,0,0,0,5.35-1,5.27,5.27,0,0,0,.49.92,1.21,1.21,0,0,0,1,.51h0a1.21,1.21,0,0,0,1-.49A7.48,7.48,0,0,0,88,94.34c.12-.26.24-.52.37-.74a.59.59,0,0,1,.76-.25l1.18.58.19.09a1.18,1.18,0,0,0,1,0,1.15,1.15,0,0,0,.65-.82c.14-.6.24-1.37.29-1.77A.58.58,0,0,1,93,91a7.62,7.62,0,0,1,1-.09,1.19,1.19,0,0,0,1-.68,1.15,1.15,0,0,0-.09-1.2c-.17-.23-.35-.47-.55-.71l-.1-.12A24.8,24.8,0,0,0,96.9,79a7.79,7.79,0,0,0,6-4,.58.58,0,0,0,0-.5.6.6,0,0,0-.36-.34l-.53-.15a10.34,10.34,0,0,0,3.8-4.28A9.3,9.3,0,0,1,108,66.87a.79.79,0,0,0,.12-.15l0,0a.7.7,0,0,0,.06-.19ZM90.59,50.22a1.41,1.41,0,0,0,0,1.35.64.64,0,0,0,.4.24c.07,0,6.52,1.06,10.46,3.54a2.67,2.67,0,0,0-1.21.64.6.6,0,0,0-.11.5.61.61,0,0,0,.32.41,13.09,13.09,0,0,1,6.25,7.91c-4.9-3.5-18.41-7.62-28.94-4.13a.37.37,0,0,0-.12.07l-.36,0a16.83,16.83,0,0,0-2-3.61c.53-1.34,3.51-7.14,15.36-7Zm-5.41,38.6a1.16,1.16,0,0,1,.16-.59,5.13,5.13,0,0,1,4.13-2.57,1.16,1.16,0,0,1,.85.29c.43.38,1,.88,1.54,1.43a4.68,4.68,0,0,0-1.4-.09,1.09,1.09,0,0,0-.6.25A3.39,3.39,0,0,0,89,89.7a4.55,4.55,0,0,0-1.65-.39,1.11,1.11,0,0,0-.73.24,6.17,6.17,0,0,0-1.32,1.86,22.75,22.75,0,0,1-.13-2.59ZM53.05,102.39a14.29,14.29,0,0,0-.86-1.25l-.1-.13a1.19,1.19,0,0,0-1.58-.28,4.1,4.1,0,0,1-1,.43,5.44,5.44,0,0,0-.87-2,1.2,1.2,0,0,0-1.39-.41,6.51,6.51,0,0,1-1.4.38,9.63,9.63,0,0,1,1.79-1.78,2.34,2.34,0,0,1,2-.37,5.35,5.35,0,0,1,3.17,2.26,2.39,2.39,0,0,1,.38,1.19,12.11,12.11,0,0,1-.11,1.92ZM49.55,37a.61.61,0,0,0,.54-.08.58.58,0,0,0,.25-.48v-1c.91.53,1.9,1,2.92,1.47,3,1.4,6,2.85,8.49,6.37a.62.62,0,0,0,.57.25.61.61,0,0,0,.48-.38,3.94,3.94,0,0,0,.14-.44,21,21,0,0,1,4.47,8.5,17.17,17.17,0,0,0-15.64,1.83c-4.87-7.43-13.65-14.4-16.72-16.71,2.64-.46,8.86-1.19,14.5.69ZM38.18,63.46a4.6,4.6,0,0,0,1.1-.24.59.59,0,0,0,.36-.41.58.58,0,0,0-.11-.52c-.05-.06-4.65-6-5.23-12.43a2.22,2.22,0,0,0,1.26.46.59.59,0,0,0,.51-.79,44.06,44.06,0,0,1-1.85-12.32C37.13,39.4,46,46.37,50.8,53.75a17.26,17.26,0,0,0-6.66,13.59c0,.2,0,.4,0,.6a8.82,8.82,0,0,1-6-4.48Zm66.63,5.71a10,10,0,0,1-4.54,4.57.59.59,0,0,0-.29.6.57.57,0,0,0,.45.49l1,.26A6.47,6.47,0,0,1,97,77.77a16.28,16.28,0,0,0-5-12.11,18.29,18.29,0,0,0-9.84-4.8c10.34-1.55,21.73,2.91,24.61,5.55a10.63,10.63,0,0,0-1.94,2.76Z"/><rect class="cls-2" width="141.2" height="141.2" rx="70.6"/></g></g></svg>