<svg xmlns="http://www.w3.org/2000/svg" viewBox="0 0 141.2 141.2"><defs><style>.cls-1{}.cls-2{fill:none;}</style></defs><g id="Calque_2" data-name="Calque 2"><g id="Layer_1" data-name="Layer 1"><path class="cls-1" d="M65.4,87.29l2.22.95h0a3.88,3.88,0,0,1,1.94,1.83l.07.14v9.47h1.94V90.21l.07-.14a3.88,3.88,0,0,1,1.94-1.83l2.21-.95h0a5.85,5.85,0,0,0,2.57-2.15,5.78,5.78,0,0,0,1-3.2V75.45a1,1,0,0,0-.51-.86,1,1,0,0,0-1,0l-4.11,2.73a8.91,8.91,0,0,0-2.14,2.06v-.85l.07-.14h0a3.88,3.88,0,0,1,1.94-1.83l2.22-1h0a5.84,5.84,0,0,0,3.52-5.35V63.82a1,1,0,0,0-.51-.86,1,1,0,0,0-1,0l-4.11,2.73a8.91,8.91,0,0,0-2.14,2.06V67l.07-.14h0A3.88,3.88,0,0,1,73.58,65l2.22-1h0a5.84,5.84,0,0,0,3.52-5.35V47.34H77.38v4.33l-3.67,2.44h0a8.91,8.91,0,0,0-2.14,2.06v-.59l1.94-1.46a4.84,4.84,0,0,0,0-7.75l-1.94-1.45v-3.4H69.63v3.4l-1.94,1.45a4.84,4.84,0,0,0,0,7.75l1.94,1.46v.59a8.91,8.91,0,0,0-2.14-2.06l-3.67-2.44V47.34H61.88V58.68A5.81,5.81,0,0,0,65.4,64l2.22,1a3.93,3.93,0,0,1,1.94,1.83l.07.15v.85a8.77,8.77,0,0,0-2.15-2.06L63.38,63h0a1,1,0,0,0-1,0,1,1,0,0,0-.51.86v6.49a5.81,5.81,0,0,0,3.52,5.34l2.22.95a3.93,3.93,0,0,1,1.94,1.83l.07.15v.85a8.77,8.77,0,0,0-2.15-2.06l-4.1-2.73h0a1,1,0,0,0-1,0,1,1,0,0,0-.51.86v6.49a5.84,5.84,0,0,0,3.52,5.35Zm7.08-5.69h0A6.77,6.77,0,0,1,74.79,79l2.59-1.73v4.68a3.83,3.83,0,0,1-.64,2.13A3.79,3.79,0,0,1,75,85.5l-2.21,1h0a5.8,5.8,0,0,0-1.25.74V83.43Zm0-11.63h0a6.77,6.77,0,0,1,2.31-2.61l2.59-1.73v4.68a3.83,3.83,0,0,1-.64,2.13A3.79,3.79,0,0,1,75,73.87l-2.21.95h0a5.8,5.8,0,0,0-1.25.74V71.8Zm0-11.63h0a6.77,6.77,0,0,1,2.31-2.61L77.38,54v4.68a3.83,3.83,0,0,1-.64,2.13A3.79,3.79,0,0,1,75,62.24l-2.21.95h0a5.8,5.8,0,0,0-1.25.74V60.17Zm-4.79-8.09a2.89,2.89,0,0,1,1.17-2.33l1.74-1.31,1.74,1.31a2.9,2.9,0,0,1,0,4.65L70.6,53.88l-1.74-1.31A2.89,2.89,0,0,1,67.69,50.25Zm.69,13-2.22-1a4,4,0,0,1-1.71-1.43,3.88,3.88,0,0,1-.63-2.14V54l2.59,1.73h0a6.84,6.84,0,0,1,2.31,2.61l.91,1.83v3.76h0a5.39,5.39,0,0,0-1.25-.73Zm0,11.63-2.22-1a4,4,0,0,1-1.71-1.43,3.88,3.88,0,0,1-.63-2.14V65.63l2.59,1.73h0A6.84,6.84,0,0,1,68.72,70l.91,1.83v3.76h0a5.39,5.39,0,0,0-1.25-.73Zm-4.56,2.43L66.41,79h0a6.84,6.84,0,0,1,2.31,2.61l.91,1.83v3.76h0a5.39,5.39,0,0,0-1.25-.73l-2.21-.95a3.93,3.93,0,0,1-1.72-1.43,3.88,3.88,0,0,1-.63-2.14Z"/><path class="cls-1" d="M44.08,87.29l2.22.95h0a3.86,3.86,0,0,1,1.93,1.83l.08.14v9.47h1.94V90.21l.07-.14a3.84,3.84,0,0,1,1.94-1.83l2.21-.95h0A5.85,5.85,0,0,0,57,85.14a5.78,5.78,0,0,0,1-3.2V75.45a1,1,0,0,0-.51-.86,1,1,0,0,0-1,0l-4.1,2.73a8.73,8.73,0,0,0-2.14,2.06v-.85l.07-.14h0a3.88,3.88,0,0,1,1.94-1.83l2.22-1h0A5.88,5.88,0,0,0,57,73.51a5.78,5.78,0,0,0,1-3.2V63.82a1,1,0,0,0-.51-.86,1,1,0,0,0-1,0l-4.1,2.73a8.91,8.91,0,0,0-2.14,2.06V67l.07-.14h0A3.88,3.88,0,0,1,52.26,65l2.22-1h0A5.88,5.88,0,0,0,57,61.88a5.78,5.78,0,0,0,1-3.2V47.34H56.06v4.33l-3.67,2.44h0a8.91,8.91,0,0,0-2.14,2.06v-.59l1.94-1.46a4.86,4.86,0,0,0,0-7.75l-1.94-1.45v-3.4H48.31v3.4l-1.94,1.45a4.84,4.84,0,0,0,0,7.75l1.94,1.46v.59a8.77,8.77,0,0,0-2.15-2.06l-3.67-2.44V47.34H40.56V58.68a5.78,5.78,0,0,0,1,3.2A5.69,5.69,0,0,0,44.08,64l2.22,1a3.91,3.91,0,0,1,1.93,1.83l.08.15v.85a8.77,8.77,0,0,0-2.15-2.06L42.06,63a1,1,0,0,0-1,0,1,1,0,0,0-.51.86v6.49a5.78,5.78,0,0,0,1,3.2,5.69,5.69,0,0,0,2.56,2.14l2.22.95a3.91,3.91,0,0,1,1.93,1.83l.08.15v.85a8.77,8.77,0,0,0-2.15-2.06l-4.1-2.73a1,1,0,0,0-1,0,1,1,0,0,0-.51.86v6.49a5.77,5.77,0,0,0,.95,3.2,5.85,5.85,0,0,0,2.57,2.15Zm7.08-5.69h0A6.69,6.69,0,0,1,53.47,79l2.59-1.73v4.68a3.88,3.88,0,0,1-2.35,3.56l-2.21,1h0a5.8,5.8,0,0,0-1.25.74V83.43Zm0-11.63h0a6.69,6.69,0,0,1,2.31-2.61l2.59-1.73v4.68a3.88,3.88,0,0,1-2.35,3.56l-2.21.95h0a5.8,5.8,0,0,0-1.25.74V71.8Zm0-11.63h0a6.69,6.69,0,0,1,2.31-2.61L56.06,54v4.68a3.88,3.88,0,0,1-2.35,3.56l-2.21.95h0a5.8,5.8,0,0,0-1.25.74V60.17Zm-4.79-8.09a2.91,2.91,0,0,1,1.16-2.33l1.75-1.31L51,47.92a2.9,2.9,0,0,1,0,4.65l-1.74,1.31-1.75-1.31A2.91,2.91,0,0,1,46.37,50.25Zm.69,13-2.22-1a3.88,3.88,0,0,1-2.35-3.57V54l2.6,1.73h0a6.73,6.73,0,0,1,2.3,2.61l.92,1.83v3.76h0a5.6,5.6,0,0,0-1.25-.73Zm0,11.63-2.22-1a3.88,3.88,0,0,1-2.35-3.57V65.63l2.6,1.73h0A6.73,6.73,0,0,1,47.39,70l.92,1.83v3.76h0a5.6,5.6,0,0,0-1.25-.73Zm-4.57,2.43L45.09,79h0a6.73,6.73,0,0,1,2.3,2.61l.92,1.83v3.76h0a5.6,5.6,0,0,0-1.25-.73l-2.22-.95a3.88,3.88,0,0,1-2.35-3.57Z"/><path class="cls-1" d="M98.71,51.67,95,54.11h0a8.91,8.91,0,0,0-2.14,2.06v-.59l1.94-1.46a4.84,4.84,0,0,0,0-7.75l-1.94-1.45v-3.4H91v3.4L89,46.37a4.86,4.86,0,0,0,0,7.75L91,55.58v.59a8.91,8.91,0,0,0-2.14-2.06l-3.67-2.44V47.34H83.2V58.68A5.81,5.81,0,0,0,86.72,64l2.22,1a3.93,3.93,0,0,1,1.94,1.83L91,67v.85a8.91,8.91,0,0,0-2.14-2.06L84.7,63h0a1,1,0,0,0-1,0,1,1,0,0,0-.51.86v6.49a5.81,5.81,0,0,0,3.52,5.34l2.22.95a3.93,3.93,0,0,1,1.94,1.83l.07.15v.85a8.91,8.91,0,0,0-2.14-2.06L84.7,74.64h0a1,1,0,0,0-1,0,1,1,0,0,0-.51.86v6.49a5.81,5.81,0,0,0,3.52,5.34l2.22,1a3.93,3.93,0,0,1,1.94,1.83l.07.15v9.47h1.94V90.21l.07-.14a3.88,3.88,0,0,1,1.94-1.83l2.22-.95h0a5.84,5.84,0,0,0,3.52-5.35V75.45a1,1,0,0,0-.51-.86,1,1,0,0,0-1,0L95,77.37a8.77,8.77,0,0,0-2.15,2.06v-.85l.07-.14h0a3.88,3.88,0,0,1,1.94-1.83l2.22-1h0a5.77,5.77,0,0,0,2.56-2.15,5.7,5.7,0,0,0,1-3.2V63.82a1,1,0,0,0-.51-.86,1,1,0,0,0-1,0L95,65.74a8.77,8.77,0,0,0-2.15,2.06V67l.07-.14h0A3.88,3.88,0,0,1,94.9,65l2.22-1h0a5.77,5.77,0,0,0,2.56-2.15,5.7,5.7,0,0,0,1-3.2V47.34H98.71ZM89,50.25a3,3,0,0,1,1.17-2.33l1.74-1.31,1.75,1.31a2.91,2.91,0,0,1,0,4.65l-1.75,1.31-1.74-1.31A3,3,0,0,1,89,50.25Zm.69,13-2.21-1a3.88,3.88,0,0,1-2.35-3.57V54l2.59,1.73h0A6.84,6.84,0,0,1,90,58.34L91,60.17v3.76h0a5.39,5.39,0,0,0-1.25-.73Zm0,11.63-2.21-1a3.88,3.88,0,0,1-2.35-3.57V65.63l2.59,1.73h0A6.84,6.84,0,0,1,90,70L91,71.8v3.76h0a5.39,5.39,0,0,0-1.25-.73Zm0,11.63-2.21-.95a3.88,3.88,0,0,1-2.35-3.57V77.26L87.73,79h0A6.84,6.84,0,0,1,90,81.6L91,83.43v3.76h0a5.39,5.39,0,0,0-1.25-.73Zm4.11-4.86h0A6.66,6.66,0,0,1,96.11,79l2.6-1.73v4.68a3.88,3.88,0,0,1-2.35,3.56l-2.22,1h0a5.8,5.8,0,0,0-1.25.74V83.43Zm0-11.63h0a6.66,6.66,0,0,1,2.3-2.61l2.6-1.73v4.68a3.88,3.88,0,0,1-2.35,3.56l-2.22.95h0a5.8,5.8,0,0,0-1.25.74V71.8Zm2.55-7.72-2.22,1h0a5.39,5.39,0,0,0-1.25.73V60.17l.92-1.83a6.66,6.66,0,0,1,2.3-2.61L98.71,54v4.68a3.88,3.88,0,0,1-2.35,3.57Z"/><rect class="cls-2" width="141.2" height="141.2" rx="70.6"/></g></g></svg>