<svg xmlns="http://www.w3.org/2000/svg" viewBox="0 0 141.2 141.2"><defs><style>.cls-1{fill:none;}.cls-2{}</style></defs><g id="Calque_2" data-name="Calque 2"><g id="Layer_1" data-name="Layer 1"><rect class="cls-1" width="141.2" height="141.2" rx="70.6"/><path class="cls-2" d="M47.85,83.61l.94.11c.48-4.22,3.06-7.46,5.29-8.16l-.28-.9C51.28,75.45,48.36,79,47.85,83.61Z"/><path class="cls-2" d="M54.86,75.41a5.68,5.68,0,0,1,.81,0v-1a7.5,7.5,0,0,0-.93.06Z"/><path class="cls-2" d="M92.38,77a9.21,9.21,0,0,0-5.75-2.13,9,9,0,0,0-3.2.61c-.38-18.3-11-27.72-14.44-30.3-.4-.89-1.95-4-4.47-4.52A2.68,2.68,0,0,0,62,41.83a3.12,3.12,0,0,0-.42,3.28c.51,1,1.87,2.23,5.47,2.25l.44.33c1.25,2.29,6.8,14.16-5.74,26a9.81,9.81,0,0,0-2.3-1.41,9.61,9.61,0,0,0-5.66-.59c-4.25.79-8.09,5.87-8.73,11.56-.67,6,2.25,10.82,8,13.31l.28.12.09,0,.09,0,.28.12a14.72,14.72,0,0,0,5.8,1.28,11.86,11.86,0,0,0,8.92-4.06,15.3,15.3,0,0,0,1.31-1.67c2,5.16,6.44,8.1,12.36,8.1H83c6.1,0,10.66-3.13,12.51-8.6S95.93,79.81,92.38,77ZM67.12,46.41c-2.5,0-4.18-.61-4.74-1.72a2.21,2.21,0,0,1,.33-2.29,1.74,1.74,0,0,1,1.63-.8c2.23.44,3.67,3.71,3.82,4.08a.53.53,0,0,0,.16.2c3.28,2.42,13.94,11.71,14.17,30l-.2.1c-.27-.12-.55-.21-.82-.3A37.58,37.58,0,0,0,71.54,50.2a29.26,29.26,0,0,0-4.1-3.7.47.47,0,0,0-.28-.09ZM71,78.72a8.71,8.71,0,0,0-6.15-4C73,66.23,73.14,57.58,72,52.2a36.75,36.75,0,0,1,8.47,23.24,9.43,9.43,0,0,0-7.67,1.49A7.76,7.76,0,0,0,71,78.72ZM69.18,49.19c.47.43,1,.93,1.51,1.5,1.42,5,2.32,14.6-7.07,23.91-.31,0-.61,0-.93,0-.09-.1-.19-.18-.28-.27C73.25,64.05,71,53.71,69.18,49.19Zm-1.4,44.3c-3.51,3.86-8.49,4.78-13.64,2.55l-.34-.15-.07,0-.07,0-.26-.11C48.05,93.41,45.33,88.92,46,83.4c.6-5.3,4.1-10,8-10.73a8.64,8.64,0,0,1,5.1.52,9.54,9.54,0,0,1,3.14,2.25.44.44,0,0,0,.39.15,8.48,8.48,0,0,1,4.15.61,8.11,8.11,0,0,1,3.74,3.41,15.36,15.36,0,0,0-1,11.71h0A14.2,14.2,0,0,1,67.78,93.49Zm26.79-1.82c-1.71,5-5.94,8-11.61,8h-.81c-5.89,0-10.21-3.12-11.85-8.57-1.57-5.23-.22-11.09,3.08-13.34a8.62,8.62,0,0,1,4.94-1.58,9.33,9.33,0,0,1,3.8.84.48.48,0,0,0,.42,0,8.46,8.46,0,0,1,4.09-1.12,8.24,8.24,0,0,1,5.16,1.93C95.05,80.33,96.3,86.57,94.57,91.67Z"/><path class="cls-2" d="M74.62,79.17l.52.8a6.08,6.08,0,0,1,.74-.42l-.41-.86A8,8,0,0,0,74.62,79.17Z"/><path class="cls-2" d="M73.59,80.06c-1.7,2-2.75,6.17-1.46,10.44l.91-.27c-1.19-3.94-.26-7.79,1.27-9.55l.17-.18-.68-.67Z"/></g></g></svg>