<svg xmlns="http://www.w3.org/2000/svg" viewBox="0 0 141.2 141.2"><defs><style>.cls-1{}.cls-2{fill:none;}</style></defs><g id="Calque_2" data-name="Calque 2"><g id="Layer_1" data-name="Layer 1"><path class="cls-1" d="M69.74,106.55a51.83,51.83,0,0,1-15.27-2,31.13,31.13,0,0,1-11-5.9A23.7,23.7,0,0,1,35.17,76.5a31.49,31.49,0,0,1,4-10.77A45.12,45.12,0,0,1,46,56.85a46.74,46.74,0,0,1,7.7-6.34c11.14-7.21,15.86-15.22,15.91-15.3a1.13,1.13,0,0,1,2,0,35.79,35.79,0,0,0,3.74,4.93A59.21,59.21,0,0,0,87.48,50.51a46.74,46.74,0,0,1,7.7,6.34A45.21,45.21,0,0,1,102,65.73a31.44,31.44,0,0,1,4,10.77,24,24,0,0,1-1,11.88c-2.5,7.07-8.37,12.72-16.1,15.5a48.54,48.54,0,0,1-14.11,2.53h0c-.64,0-1.3.06-2,.09C71.74,106.53,70.72,106.55,69.74,106.55Zm.86-68.73c-.65.91-1.63,2.21-3,3.75A62,62,0,0,1,54.94,52.4C45.42,58.55,33.15,73,38.32,87.62c2.45,6.92,8.57,12.32,16.8,14.82,4.84,1.47,10.43,2,17.58,1.81l2-.08a46.62,46.62,0,0,0,13.47-2.41c7.09-2.56,12.46-7.71,14.74-14.14C108,73,95.76,58.55,86.25,52.4A61.48,61.48,0,0,1,73.57,41.57,47.41,47.41,0,0,1,70.6,37.82Z"/><path class="cls-1" d="M42.64,80.66h-.06a1.12,1.12,0,0,1-1.06-1.19,18.4,18.4,0,0,1,.29-2.41,1.14,1.14,0,0,1,1.31-.9,1.12,1.12,0,0,1,.9,1.31,15.82,15.82,0,0,0-.25,2.13A1.15,1.15,0,0,1,42.64,80.66Z"/><path class="cls-1" d="M44.59,73.22a1.09,1.09,0,0,1-.46-.1,1.13,1.13,0,0,1-.56-1.49c.39-.85.84-1.7,1.33-2.55a40.64,40.64,0,0,1,12.43-13A67.13,67.13,0,0,0,65,50.35a1.13,1.13,0,0,1,1.48,1.7A71.73,71.73,0,0,1,58.55,58a38,38,0,0,0-11.7,12.22c-.46.79-.87,1.59-1.23,2.36A1.13,1.13,0,0,1,44.59,73.22Z"/><path class="cls-1" d="M70.63,93.53a17.89,17.89,0,0,1-8.89-2.11,16.05,16.05,0,0,0-7.94-1.88,16,16,0,0,0-7.93,1.88,18,18,0,0,1-6.43,2,1.12,1.12,0,0,1-.24-2.23,16,16,0,0,0,5.71-1.78,18.07,18.07,0,0,1,8.89-2.1,18.08,18.08,0,0,1,8.9,2.1,15.89,15.89,0,0,0,7.93,1.89,15.93,15.93,0,0,0,7.94-1.89,19.87,19.87,0,0,1,17.78,0A15.8,15.8,0,0,0,102,91.16a1.12,1.12,0,1,1-.25,2.23,17.81,17.81,0,0,1-6.37-2,17.69,17.69,0,0,0-15.87,0A18,18,0,0,1,70.63,93.53Z"/><rect class="cls-2" width="141.2" height="141.2" rx="70.6"/></g></g></svg>