<svg xmlns="http://www.w3.org/2000/svg" viewBox="0 0 141.2 141.2"><defs><style>.cls-1{}.cls-2{fill:none;}</style></defs><g id="Calque_2" data-name="Calque 2"><g id="Layer_1" data-name="Layer 1"><path class="cls-1" d="M96.18,44.23s0-.06,0-.09a1,1,0,0,0-.11-.37c-1.34-5.16-24.44-5.24-25.45-5.24s-24.1.08-25.45,5.23a1,1,0,0,0-.11.38s0,.06,0,.09,0,0,0,.06,0,.06,0,.1l7.52,50.08c1.11,4.75,8.7,8.2,18,8.2S87.92,99,88.67,94.39l7.5-50s0-.06,0-.1A.14.14,0,0,0,96.18,44.23ZM91.85,58.91C86.79,56.13,72.53,56,70.6,56s-16.19.1-21.25,2.88L47.55,47c6.29,2.92,22.21,3,23,3s16.76,0,23-3ZM49.69,61.19c.74-1.12,8.2-3,20.91-3,12.5,0,19.93,1.87,20.88,3-.94,1.13-8.37,3-20.88,3s-20.09-1.91-20.9-2.84ZM70.6,40.65c14.61,0,22.84,2.27,23.45,3.58h0c-.61,1.31-8.84,3.58-23.45,3.58s-22.82-2.27-23.44-3.5v-.07C47.72,42.94,55.94,40.65,70.6,40.65Zm16,53.41c-.5,3.07-7.19,6.49-16,6.49-9,0-15.24-3.34-16-6.48L50.07,63.7c5.56,2.44,18.68,2.54,20.53,2.54s15-.1,20.53-2.54Z"/><path class="cls-1" d="M77.06,62.77c.82-.06,1.38-.43,1.41-.85s-.47-.87-1.27-1c-1.08-.24-2.28.08-2.33.78S76,62.84,77.06,62.77Z"/><path class="cls-1" d="M62.18,60.88c-1.07-.24-2.28.08-2.33.78s1.09,1.18,2.19,1.11c.82-.06,1.38-.43,1.41-.85S63,61.05,62.18,60.88Z"/><path class="cls-1" d="M72.79,60.51c.82-.06,1.38-.43,1.41-.85s-.46-.87-1.27-1c-1.07-.24-2.28.08-2.33.77S71.69,60.58,72.79,60.51Z"/><path class="cls-1" d="M67.06,59.66c0-.42-.46-.87-1.27-1-1.07-.24-2.28.08-2.33.77s1.09,1.19,2.19,1.12C66.47,60.45,67,60.08,67.06,59.66Z"/><path class="cls-1" d="M68.24,61.54c-1.07-.24-2.27.08-2.33.78S67,63.5,68.1,63.43c.83-.06,1.39-.43,1.42-.85S69.05,61.71,68.24,61.54Z"/><path class="cls-1" d="M55.69,59.89c-1.07-.23-2.28.08-2.33.78s1.1,1.18,2.19,1.11c.82-.06,1.38-.43,1.41-.85S56.5,60.07,55.69,59.89Z"/><path class="cls-1" d="M83.05,61.78c.82-.06,1.38-.43,1.41-.85s-.46-.86-1.27-1c-1.07-.23-2.28.08-2.33.78S82,61.85,83.05,61.78Z"/><path class="cls-1" d="M54.78,66.78c-.65-.76-1.6-1-2.14-.55A1.92,1.92,0,0,0,55,69,1.6,1.6,0,0,0,54.78,66.78Z"/><path class="cls-1" d="M63.46,68.54c-1,0-1.81.57-1.81,1.27s.81,1.27,1.81,1.27,1.8-.57,1.8-1.27S64.45,68.54,63.46,68.54Z"/><path class="cls-1" d="M67.87,81.66a1.92,1.92,0,1,0-2.18-.38A1.63,1.63,0,0,0,67.87,81.66Z"/><path class="cls-1" d="M78.53,93.68c-.7.06-1.19.92-1.11,1.91s.72,1.75,1.42,1.69S80,96.37,80,95.37,79.23,93.62,78.53,93.68Z"/><ellipse class="cls-1" cx="56.39" cy="78.82" rx="1.27" ry="1.81" transform="translate(-39.22 62.96) rotate(-45)"/><path class="cls-1" d="M73.26,70.53c-1-.1-1.85.39-1.92,1.09S72,73,73,73.06s1.85-.39,1.92-1.09S74.26,70.63,73.26,70.53Z"/><path class="cls-1" d="M58.81,87.41c.7,0,1.31-.73,1.37-1.73S59.72,83.84,59,83.8s-1.32.74-1.37,1.73S58.11,87.37,58.81,87.41Z"/><path class="cls-1" d="M70.44,87.08c0-.7-.73-1.32-1.73-1.37s-1.83.46-1.87,1.16.73,1.31,1.73,1.37S70.4,87.78,70.44,87.08Z"/><path class="cls-1" d="M57.64,91.13c-.5.49-.33,1.47.38,2.17a1.6,1.6,0,0,0,2.17.38c.5-.49.33-1.47-.38-2.17S58.13,90.63,57.64,91.13Z"/><path class="cls-1" d="M81.63,80.86a1.62,1.62,0,0,0-.07-2.21c-.6-.8-1.55-1.1-2.1-.68a1.62,1.62,0,0,0,.07,2.21C80.13,81,81.07,81.28,81.63,80.86Z"/><path class="cls-1" d="M70.76,93.69c-.86.49-1.28,1.39-.92,2s1.33.69,2.19.2,1.28-1.4.93-2A1.62,1.62,0,0,0,70.76,93.69Z"/><path class="cls-1" d="M82,87.51a1.62,1.62,0,0,0-2.2.19c-.35.61.07,1.51.93,2s1.85.41,2.2-.2S82.82,88,82,87.51Z"/><path class="cls-1" d="M84.54,70.56c-1-.23-1.89.14-2.05.82S83,72.8,84,73s1.89-.14,2.05-.82S85.51,70.79,84.54,70.56Z"/><rect class="cls-2" width="141.2" height="141.2" rx="70.6"/></g></g></svg>