<svg xmlns="http://www.w3.org/2000/svg" viewBox="0 0 141.2 141.2"><defs><style>.cls-1{}.cls-2{fill:none;}</style></defs><g id="Calque_2" data-name="Calque 2"><g id="Layer_1" data-name="Layer 1"><path class="cls-1" d="M105.28,44a4.3,4.3,0,0,1-.76-3.4c.34-1.48,1.64-2.9,3.76-4.11a1.52,1.52,0,0,0,.75-1.3,1.48,1.48,0,0,0-.75-1.3,12.82,12.82,0,0,0-10-.93,11.22,11.22,0,0,0-3.06,1.66,43.49,43.49,0,0,0-11.84-5.67h-.09a44.43,44.43,0,0,0-25.34,0c-6.49-5-13.92-1.77-14-1.73a1.52,1.52,0,0,0-.8.87,1.5,1.5,0,0,0,.08,1.19c2.28,4.41,1.09,6.15-.71,8C32,47.87,26.6,59.26,26.6,71a44,44,0,0,0,18.67,36l.24.17A43.76,43.76,0,0,0,67.68,115a1.15,1.15,0,0,0,.86,0c.69,0,1.37.06,2.06.06a44.06,44.06,0,0,0,44-44C114.6,62,111.55,53.17,105.28,44ZM82.8,31.89A40.3,40.3,0,0,1,93,36.69,20.94,20.94,0,0,0,89.8,42a43.49,43.49,0,0,0-10.07,1.64,13.2,13.2,0,0,0-4.79-5.84C76.85,33.33,81.59,32.13,82.8,31.89Zm-5.16-1.24a12.42,12.42,0,0,0-5.36,5.69,22.82,22.82,0,0,0-9.74-1.92,20.55,20.55,0,0,0-2.12-3.11,41.35,41.35,0,0,1,17.26-.66ZM29.6,71c0-11,5.06-21.66,15-31.76,2.21-2.24,3.93-5,2-9.86,2.91-.72,9.48-1.21,13.75,7.22a1.5,1.5,0,0,0,1.46.81c.12,0,11.53-.83,15.06,7.16-6,2.34-11.94,6.77-12.93,15.15-3.79.67-15.24,3.47-20.94,13.4-4.19,7.28-4.28,16.66-.29,27.93A40.91,40.91,0,0,1,29.6,71Zm43,41a107.2,107.2,0,0,0,9-8.44c2.54-.21,7.72-1.3,13.62-6.32a1.51,1.51,0,0,0-.12-2.12A1.49,1.49,0,0,0,93.26,95,25.1,25.1,0,0,1,85,99.86a80.59,80.59,0,0,0,7.12-9.63,20.15,20.15,0,0,0,11.75-5.85,1.51,1.51,0,0,0-2.06-2.2,18,18,0,0,1-7.62,4.53c4.24-7.76,6.37-15.49,6.23-22.84a1.48,1.48,0,0,0-1.48-1.48H98.8a1.49,1.49,0,0,0-1.47,1.53h0c.15,8-2.55,15.54-6.37,22.24a33.6,33.6,0,0,1-6.58-15.36,1.52,1.52,0,1,0-3,.49,35.71,35.71,0,0,0,7.9,17.59,83.33,83.33,0,0,1-9,11.6C78.5,99.13,71.8,93,69.2,75.13a1.52,1.52,0,1,0-3,.43c2.59,18.08,9.33,25,12,27.13A99.68,99.68,0,0,1,67.8,112a40.76,40.76,0,0,1-20.38-7.09c-5.48-12.59-6.1-22.75-1.82-30.21,6-10.42,19.77-12.1,19.91-12.11a1.51,1.51,0,0,0,1.29-1.4c.39-6.74,4.44-11.5,12-14.15l.27-.1h.06l.15-.06A40.25,40.25,0,0,1,90.8,45a1.59,1.59,0,0,0,1.41-1c1.73-4.44,4.1-7.23,7-8.28a9.06,9.06,0,0,1,5.08-.2,8.23,8.23,0,0,0-2.75,4.33,7.3,7.3,0,0,0,1.26,5.76c5.92,8.7,8.8,17,8.8,25.4a41.08,41.08,0,0,1-39,41Z"/><rect class="cls-2" width="141.2" height="141.2" rx="70.6"/></g></g></svg>