<svg xmlns="http://www.w3.org/2000/svg" viewBox="0 0 141.2 141.2"><defs><style>.cls-1{}.cls-2{fill:none;}</style></defs><g id="Calque_2" data-name="Calque 2"><g id="Layer_1" data-name="Layer 1"><path class="cls-1" d="M103.41,45.39a4.09,4.09,0,0,1-.72-3.21c.32-1.4,1.55-2.75,3.56-3.89a1.44,1.44,0,0,0,.71-1.23,1.41,1.41,0,0,0-.71-1.23A12.14,12.14,0,0,0,96.79,35a10.73,10.73,0,0,0-2.9,1.57,41.59,41.59,0,0,0-11.2-5.37h-.08a42.18,42.18,0,0,0-24,0c-6.14-4.73-13.17-1.67-13.24-1.63a1.43,1.43,0,0,0-.69,1.95c2.16,4.17,1,5.81-.67,7.56C34,49.09,29,59.87,29,71a41.62,41.62,0,0,0,17.66,34.06,1.6,1.6,0,0,0,.23.16,41.46,41.46,0,0,0,21,7.36,1.58,1.58,0,0,0,.49.1.87.87,0,0,0,.32-.06c.65,0,1.3.06,1.95.06a41.68,41.68,0,0,0,41.63-41.63C112.23,62.5,109.34,54.11,103.41,45.39ZM82.14,34a38.51,38.51,0,0,1,9.62,4.54,19.92,19.92,0,0,0-3,5.07,41,41,0,0,0-9.53,1.55,12.5,12.5,0,0,0-4.53-5.53C76.51,35.33,81,34.2,82.14,34ZM77.26,32.8a11.79,11.79,0,0,0-5.07,5.38A21.63,21.63,0,0,0,63,36.37a19.61,19.61,0,0,0-2-2.95A39.27,39.27,0,0,1,77.3,32.8ZM31.81,71C31.81,60.61,36.6,50.52,46,41c2.09-2.12,3.72-4.73,1.89-9.32,2.76-.69,9-1.15,13,6.83a1.41,1.41,0,0,0,1.38.76c.12,0,10.91-.78,14.25,6.78-5.67,2.21-11.29,6.4-12.23,14.33C60.71,61,49.88,63.62,44.49,73c-4,6.89-4.05,15.76-.28,26.42A38.67,38.67,0,0,1,31.81,71ZM72.49,109.8a100.41,100.41,0,0,0,8.52-8c2.4-.2,7.3-1.23,12.88-6A1.42,1.42,0,0,0,92,93.72a23.62,23.62,0,0,1-7.83,4.56A76.82,76.82,0,0,0,91,89.17a19,19,0,0,0,11.12-5.54,1.43,1.43,0,0,0-1.95-2.08,17,17,0,0,1-7.21,4.29c4-7.34,6-14.66,5.89-21.61a1.4,1.4,0,0,0-1.4-1.4h-.12a1.41,1.41,0,0,0-1.39,1.45h0c.14,7.57-2.41,14.7-6,21A31.74,31.74,0,0,1,83.64,70.8a1.44,1.44,0,0,0-2.84.46A33.79,33.79,0,0,0,88.27,87.9a78.6,78.6,0,0,1-8.51,11c-1.69-1.29-8-7.11-10.48-24a1.43,1.43,0,0,0-2.84.41C68.89,92.4,75.26,98.94,77.79,101A94.29,94.29,0,0,1,68,109.75,38.62,38.62,0,0,1,48.67,103C43.48,91.13,42.9,81.51,47,74.46,52.62,64.6,65.65,63,65.78,63A1.43,1.43,0,0,0,67,61.67c.37-6.37,4.21-10.88,11.41-13.38l.25-.1h.06l.14,0a38.09,38.09,0,0,1,10.85-1.73,1.5,1.5,0,0,0,1.34-.94c1.63-4.2,3.87-6.84,6.62-7.84a8.71,8.71,0,0,1,4.8-.19,7.83,7.83,0,0,0-2.6,4.1A7,7,0,0,0,101.06,47c5.61,8.23,8.33,16.09,8.33,24A38.85,38.85,0,0,1,72.48,109.8Z"/><rect class="cls-2" width="141.2" height="141.2" rx="70.6"/></g></g></svg>