<svg xmlns="http://www.w3.org/2000/svg" viewBox="0 0 141.2 141.2"><defs><style>.cls-1{fill:none;}.cls-2{}</style></defs><g id="Calque_2" data-name="Calque 2"><g id="Layer_1" data-name="Layer 1"><rect class="cls-1" width="141.2" height="141.2" rx="70.6"/><path class="cls-2" d="M111.36,111.81a13.14,13.14,0,0,1-1.7-2.61v-.06a14.35,14.35,0,0,0-1-1.65l-.07-.1-.13-.16-.56-1c-2.08-3.37-4-6.17-6.86-10.62-.94-2.12-1.9-4.37-3.07-6.82-5-11.18-8.31-19-11.46-25.43a210.94,210.94,0,0,0-16.2-27.52,5.15,5.15,0,0,0-.64-.76c-.2-.14-.4,0-.27.31a4.43,4.43,0,0,0,.41.7A225.66,225.66,0,0,1,86.53,64.6C89.68,71,92.21,77,97.11,88.51c-1-2-1.89-3.87-2.8-5.67A271.25,271.25,0,0,0,73.06,48a7.52,7.52,0,0,0-.83-1c-.26-.17-.5,0-.34.4h0a7.27,7.27,0,0,0,.54.89A287.39,287.39,0,0,1,94.37,84.42c.68,1.35,1.35,2.69,2,4L96.07,88c-3.93-6-7.29-11.17-10.28-15.74C83.2,67.5,81,63.55,78.91,60.06A210.35,210.35,0,0,0,60.43,34a6.6,6.6,0,0,0-.69-.71c-.21-.13-.4,0-.25.33h0a4.39,4.39,0,0,0,.47.66A226.84,226.84,0,0,1,79,61.35c1.09,1.83,2.13,3.64,3.2,5.55-2.08-3.12-4-6-5.83-8.57h0A270.46,270.46,0,0,0,50.23,27a6.81,6.81,0,0,0-.95-.83c-.28-.14-.5,0-.28.45a7.19,7.19,0,0,0,.66.8,287.69,287.69,0,0,1,27,32.53c3.12,4.38,5.93,8.63,9.48,14.13,1.45,2.73,3.1,5.83,5.06,9.56C87.52,78,84.4,73.3,81.44,69.14h0A271.15,271.15,0,0,0,55.28,37.79a6.74,6.74,0,0,0-1-.82c-.28-.14-.5,0-.28.44h0a5.73,5.73,0,0,0,.66.8,287.37,287.37,0,0,1,27,32.5C85.82,76.54,89.41,82,94.8,90.53l.5,1L93.85,89.7l-2.76-3.5C84.17,76.64,79,69.46,74.27,63.44c-2.1-2.66-4.42-5.49-7-8.52-1.12-2-2.23-4-3.36-6.16h0a6.23,6.23,0,0,0-.56-.88c-.3-.34-.56-.19-.51.11a6,6,0,0,0,.49,1.17c.58,1.11,1.16,2.18,1.73,3.24-5-5.57-11-11.84-18.44-18.91a6.88,6.88,0,0,0-1-.78c-.29-.12-.5.08-.26.46h0a8.53,8.53,0,0,0,.7.77A292.4,292.4,0,0,1,66.74,55.52c.59,1.06,1.17,2.09,1.75,3.1h0a273.75,273.75,0,0,0-26-25.38,6.27,6.27,0,0,0-1-.73c-.29-.12-.49.09-.23.46h0a6.38,6.38,0,0,0,.73.74,288.11,288.11,0,0,1,28.37,28q1.58,2.67,3.08,5.11c-5.24-5.69-11.57-12-19.56-19.17a6.38,6.38,0,0,0-1-.75c-.29-.12-.49.09-.24.46h0a6.38,6.38,0,0,0,.72.75A292.86,292.86,0,0,1,75.62,70.43C78.93,75.6,82,80,84.87,83.9c1.32,1.79,2.73,3.66,4.26,5.63L86.5,87c-6.77-8.16-12-14.39-16.71-19.63h0A256.72,256.72,0,0,0,51.53,49q-2.7-3.6-5.49-7.66h0a5.49,5.49,0,0,0-.52-.65c-.27-.23-.45-.09-.38.14a5.06,5.06,0,0,0,.49.88c1.32,1.91,2.59,3.72,3.83,5.44-2.84-2.53-5.92-5.17-9.32-7.94h0a7.44,7.44,0,0,0-1-.71c-.29-.1-.49.11-.22.48a5.77,5.77,0,0,0,.76.72C44,43.32,48,46.81,51.58,50.14h0A203.54,203.54,0,0,0,64.81,66.05,278.84,278.84,0,0,0,38.22,44.79a7.16,7.16,0,0,0-1.1-.64c-.3-.08-.48.14-.19.49a6.48,6.48,0,0,0,.81.66A288,288,0,0,1,70.37,72.22C75,76.73,79.3,81.11,85.29,87.49c-8.62-7.87-15.15-13.82-20.88-18.65A269.44,269.44,0,0,0,31.23,45.06a6.52,6.52,0,0,0-1.16-.56c-.31-.07-.47.17-.15.5a6.44,6.44,0,0,0,.84.61A286,286,0,0,1,65,70.25c3.41,2.85,6.59,5.67,10.3,9h0A282.59,282.59,0,0,0,48.79,60.94a6.25,6.25,0,0,0-1.17-.55c-.3-.07-.46.17-.15.5a6.38,6.38,0,0,0,.84.6,288.47,288.47,0,0,1,34.34,24.7l1,.87,6.08,5.66,1.85,1.75-1.85-1.4c-5.89-4.66-10-7.88-13.51-10.49h0a128.11,128.11,0,0,0-16.8-10.17,3.57,3.57,0,0,0-.57-.23c-.15,0-.23.11-.07.24a2.73,2.73,0,0,0,.43.26A137.07,137.07,0,0,1,76.65,83.25c3.49,2.57,6.63,5,12.59,9.88l3.89,3.17c4.43,5.6,8.29,10.44,11.53,14.54.5.76,1,1.53,1.38,2.33l.38.74a.24.24,0,0,0,.26.14.25.25,0,0,0,.12-.32l.27.48.37.74h0a.25.25,0,0,0,.27.14h.06a.24.24,0,0,0,.12-.14.21.21,0,0,0,0-.19l-.37-.76c-.25-.49-.52-1-.8-1.43.32.43.7.9,1.08,1.33a.25.25,0,1,0,.37-.33l-.51-.62a.18.18,0,0,0,.09-.1c.4.55,1,1.36,1.65,2.08a.24.24,0,0,0,.35,0,.25.25,0,0,0,0-.35c-.63-.74-1.23-1.52-1.61-2l.59.7a.25.25,0,0,0,.37-.33c-.26-.3-.52-.6-.75-.91h0a.28.28,0,0,0,.18,0,.22.22,0,0,0,.19-.16.25.25,0,0,0,0-.25l-.18-.22h0a.22.22,0,0,0,.13-.22,12.16,12.16,0,0,0,1.31,1.88.25.25,0,1,0,.37-.33,8.7,8.7,0,0,1-.69-.91.25.25,0,0,0,.13-.14.22.22,0,0,0,0-.18l-.17-.77-.29-.53h.13a.23.23,0,0,0,.12-.27,12.78,12.78,0,0,0,1.49,2.21.25.25,0,1,0,.37-.33ZM66.77,67.35c-3.59-3.87-7.93-8.82-12.65-14.92,6.57,6.18,11.93,11.78,16.15,16.45,3.79,4.18,7.22,8.24,11.66,13.67-6.88-6.66-11-10.64-15.16-15.2ZM71.43,62,71,61.42q-.89-1.5-1.77-3c2,2.33,3.81,4.66,5.44,6.66,2.44,3.09,4.66,6.11,7.25,9.58C78,69.76,74.61,65.62,71.44,62Zm1.63,2.95C78.19,70.92,82.91,77,91,87.4l3.28,4.66,1.65,2.33c-5.38-7-9.71-12.67-13.7-17.48q-2.72-3.27-6-6.92-1.55-2.43-3.17-5.08Zm19.37,29-.65-.67,1.16,1.09Zm-.09-1.32c-2.15-2.72-4.08-5.25-6-7.91-2.19-3-4.66-6.41-7.2-10.29,1.24,1.44,2.42,2.83,3.49,4.15C87.06,83.83,90.93,89,96.76,96.75Zm8.62,6-5-7.77-3.47-6.42L90.37,80.6l4.56,7.31c1.67,2.65,3.26,5.17,4.74,7.55L101.29,99Zm3.07,3.89-.11-.12v-.12Zm3.5,7.39c.14.25.29.5.42.75-.17-.28-.32-.57-.47-.77Z"/></g></g></svg>