<svg xmlns="http://www.w3.org/2000/svg" viewBox="0 0 141.2 141.2"><defs><style>.cls-1{}.cls-2{fill:none;}</style></defs><g id="Calque_2" data-name="Calque 2"><g id="Layer_1" data-name="Layer 1"><path class="cls-1" d="M68.36,53.84A25.59,25.59,0,0,1,50.75,47a1,1,0,0,1-.31-.73,1,1,0,0,1,.31-.72A25.94,25.94,0,0,1,86,45.5,1,1,0,0,1,86,47,25.59,25.59,0,0,1,68.36,53.84ZM52.93,46.22a24,24,0,0,0,30.86,0A24,24,0,0,0,52.93,46.22Z"/><path class="cls-1" d="M86.6,53.59a1,1,0,0,1-.62-.21,1,1,0,0,1-.17-1.4A115.74,115.74,0,0,0,93.73,40.1a1,1,0,0,1,1.36-.38,1,1,0,0,1,.38,1.37,118.48,118.48,0,0,1-8.08,12.12A1,1,0,0,1,86.6,53.59Z"/><path class="cls-1" d="M90.6,47.59h-31a1,1,0,1,1,0-2h31a1,1,0,0,1,0,2Z"/><path class="cls-1" d="M83,60.59a1,1,0,0,1-.7-.29l-1-1a1,1,0,0,1,0-1.41,1,1,0,0,1,1.41,0l1,1a1,1,0,0,1,0,1.41A1,1,0,0,1,83,60.59Z"/><path class="cls-1" d="M71.6,49.59a1,1,0,0,1-.71-.29,1,1,0,0,1,0-1.41l1.29-1.3L70.89,45.3a1,1,0,1,1,1.42-1.41l2,2a1,1,0,0,1,0,1.41l-2,2A1,1,0,0,1,71.6,49.59Z"/><path class="cls-1" d="M64.6,49.59a1,1,0,0,1-.71-.29,1,1,0,0,1,0-1.41l1.29-1.3L63.89,45.3a1,1,0,1,1,1.42-1.41l2,2a1,1,0,0,1,0,1.41l-2,2A1,1,0,0,1,64.6,49.59Z"/><path class="cls-1" d="M67.1,69.59a3,3,0,0,1,0-6,1,1,0,0,1,0,2,1,1,0,0,0,0,2,1,1,0,0,1,0,2Z"/><path class="cls-1" d="M61.1,72.59a3,3,0,1,1,0-6,1,1,0,0,1,0,2,1,1,0,1,0,0,2,1,1,0,0,1,0,2Z"/><path class="cls-1" d="M62.1,65.59a3,3,0,1,1,0-6,1,1,0,0,1,0,2,1,1,0,1,0,0,2,1,1,0,0,1,0,2Z"/><path class="cls-1" d="M78,102.59a23,23,0,0,1-23-23,1,1,0,0,1,1-1H99.6a1,1,0,0,1,1,1A22.58,22.58,0,0,1,78,102.59Zm-21-22a21,21,0,0,0,21,20,20.57,20.57,0,0,0,20.63-20Z"/><path class="cls-1" d="M91.69,85.9a3.91,3.91,0,0,1-1.34-.24l-3-.93a1,1,0,1,1,.58-1.91l3.11.94a1.79,1.79,0,0,0,2-.46,1,1,0,0,1,1.47,1.36A3.82,3.82,0,0,1,91.69,85.9Z"/><path class="cls-1" d="M63,85.94a3.85,3.85,0,0,1-2.8-1.25,1,1,0,1,1,1.46-1.36,1.77,1.77,0,0,0,2,.48l6.18-1.89a1,1,0,0,1,.58,1.91L64.28,85.7A3.4,3.4,0,0,1,63,85.94Z"/><path class="cls-1" d="M86.37,102.59l-7.36,0a1,1,0,0,1-1-1,1,1,0,0,1,1-1C90.1,100,98.54,91,98.6,79.59a1,1,0,0,1,.79-1,1,1,0,0,1,1.12.55,25.78,25.78,0,0,1,2.09,9.09C102.6,96.83,94.21,102.59,86.37,102.59ZM100.1,84.42a22.55,22.55,0,0,1-12.67,16.13c6.54-.47,13.17-5.29,13.17-12.29A18.5,18.5,0,0,0,100.1,84.42Z"/><path class="cls-1" d="M85.65,95.15A3.74,3.74,0,0,1,82.19,93l-1.48-2.78a1.42,1.42,0,0,1-.08-.18l-1.74-5.59a1,1,0,0,1,1.91-.6l1.72,5.51L84,92.08a1.8,1.8,0,0,0,1.75,1.07,2.28,2.28,0,0,0,1.53-.69l3.14-3.09a2.3,2.3,0,0,0,.69-1.5,1.68,1.68,0,0,0-1-1.68l-5.21-2.71a1,1,0,1,1,.93-1.77l5.14,2.68A3.66,3.66,0,0,1,93.1,88a4.24,4.24,0,0,1-1.29,2.83l-3.13,3.1a4.39,4.39,0,0,1-2.85,1.26Z"/><path class="cls-1" d="M75.12,97.63a4.34,4.34,0,0,1-2.92-1.1,3.7,3.7,0,0,1-1-4.11l1-3a.61.61,0,0,1,.07-.17l2.87-5.36a1,1,0,0,1,1.18-.49,4.29,4.29,0,0,0,1.33.2,1,1,0,0,1,0,2,6.92,6.92,0,0,1-1.11-.09L74,90.1l-.94,3a1.7,1.7,0,0,0,.46,2,2.34,2.34,0,0,0,1.57.58h4.43A2.44,2.44,0,0,0,81.13,95a1.68,1.68,0,0,0,.49-1.89l-2.73-8.74a1,1,0,0,1,1.91-.6l2.7,8.67a3.65,3.65,0,0,1-1,4,4.38,4.38,0,0,1-2.92,1.11Z"/><path class="cls-1" d="M69,95.17h-.18A4.29,4.29,0,0,1,66,93.9l-3.12-3.08A4.22,4.22,0,0,1,61.6,88a3.71,3.71,0,0,1,2.22-3.6l2.82-1.47a1,1,0,1,1,.93,1.77l-2.89,1.5a1.75,1.75,0,0,0-1.09,1.72,2.3,2.3,0,0,0,.69,1.49l3.13,3.09a2.32,2.32,0,0,0,1.53.68,1.74,1.74,0,0,0,1.72-1l4.43-8.28a1,1,0,0,1,1.77.95L72.46,93A3.72,3.72,0,0,1,69,95.17Z"/><path class="cls-1" d="M58,102.58a21.23,21.23,0,0,1-8.58-1.74,6.05,6.05,0,0,0-3.5-.3A5.28,5.28,0,0,1,41.32,99,5.44,5.44,0,0,1,40,93.84a6,6,0,0,0-.11-3.48c-3.27-9.31,0-20.79,8.36-29.27l1.53-1.56a33.66,33.66,0,0,1,12.79-8.25,1,1,0,0,1,.54,0,24.17,24.17,0,0,0,13.17-.73,1.08,1.08,0,0,1,.59,0c.62.17,1.2.34,1.75.55a5.58,5.58,0,0,0,3.41.11,5.25,5.25,0,0,1,5.14,1.39,5.39,5.39,0,0,1,1.48,4.67,6.32,6.32,0,0,0,.3,3.58c2.41,5.63,2.3,12.36-.3,18.95a1.15,1.15,0,0,1-.21.33l-.21.22a1,1,0,0,1-.72.3H56.94A21,21,0,0,0,68.85,98.42a1,1,0,0,1,0,1.82A27,27,0,0,1,58,102.58ZM47.3,98.42a7.31,7.31,0,0,1,3,.59A21.62,21.62,0,0,0,66,99.18,23,23,0,0,1,54.91,79.59a1,1,0,0,1,1-1h31c2.25-6,2.31-12,.16-17a8.31,8.31,0,0,1-.43-4.69,3.47,3.47,0,0,0-.93-3,3.26,3.26,0,0,0-3.19-.86,7.58,7.58,0,0,1-4.62-.16c-.41-.15-.84-.29-1.3-.42a26.25,26.25,0,0,1-13.68.76,31.8,31.8,0,0,0-11.76,7.68l-1.53,1.55c-7.81,7.94-10.91,18.62-7.9,27.21a7.87,7.87,0,0,1,.16,4.66,3.44,3.44,0,0,0,.85,3.27,3.22,3.22,0,0,0,2.88.94A9.89,9.89,0,0,1,47.3,98.42Z"/><rect class="cls-2" width="141.2" height="141.2" rx="70.6"/></g></g></svg>