<svg xmlns="http://www.w3.org/2000/svg" viewBox="0 0 141.2 141.2"><defs><style>.cls-1{}.cls-2{fill:none;}</style></defs><g id="Calque_2" data-name="Calque 2"><g id="Layer_1" data-name="Layer 1"><path class="cls-1" d="M94.21,32.22H91.87L70.17,67.47a1.22,1.22,0,0,1-.32.36L35.65,94.49a7.76,7.76,0,0,0-2.13,9.19,1.37,1.37,0,0,1-.16,1.38l-1.21,1.6L34.47,109l1.16-1.15a1.37,1.37,0,0,1,1.59-.26,7.79,7.79,0,0,0,9.59-2l3-3.61-.26.18a14.77,14.77,0,0,1-14.25,1.78l1-2.56A12,12,0,0,0,48,99.92l9.18-6.67v0L71.91,75.72l1.3-3.9a86.47,86.47,0,0,1,7.28-16.08Z"/><path class="cls-1" d="M85.49,52.66l-2.61,4.48c-.61,1-1.17,2.08-1.73,3.14l1-.35L108.47,33.6l-.85-.86Z"/><path class="cls-1" d="M77,69.62l32.1-14.81V53.49L79.4,63.8Q78.07,66.66,77,69.62Z"/><rect class="cls-2" width="141.2" height="141.2" rx="70.6"/></g></g></svg>