<svg xmlns="http://www.w3.org/2000/svg" viewBox="0 0 141.2 141.2"><defs><style>.cls-1{}.cls-2{fill:none;}</style></defs><g id="Calque_2" data-name="Calque 2"><g id="Layer_1" data-name="Layer 1"><path class="cls-1" d="M126.89,66.08,110.57,34.52a4.45,4.45,0,0,0-6-1.9l-9.12,4.72a4.45,4.45,0,0,0-1.94,5.9l-1.12.38a7.64,7.64,0,0,1-2.72.39L79,43.72a10.71,10.71,0,0,0-7.68,2.8l-4.38,3.89-17-6.36a4.44,4.44,0,0,0-1.46-5.92l-8.65-5.54a4.43,4.43,0,0,0-6.12,1.34L14.52,63.85A4.43,4.43,0,0,0,15.86,70l8.65,5.54a4.42,4.42,0,0,0,5.86-1l4,5-2,3.14A6.71,6.71,0,0,0,38,93.05a5.11,5.11,0,0,0,.78,0,7,7,0,0,0,.12,2.23,6.68,6.68,0,0,0,7.79,5.15,6.79,6.79,0,0,0,.15,1.49,6.7,6.7,0,0,0,6.53,5.28,7.17,7.17,0,0,0,1.46-.16,6.66,6.66,0,0,0,3.22-1.72,6.7,6.7,0,0,0,6.13,4,6.53,6.53,0,0,0,1.46-.16,6.66,6.66,0,0,0,4.22-2.93l.76-1.17,4.7,3a6.68,6.68,0,0,0,3.61,1.06,6.38,6.38,0,0,0,1.45-.16,6.71,6.71,0,0,0,5.25-7.4A6.75,6.75,0,0,0,92,98.51a6.65,6.65,0,0,0,1-4,6.71,6.71,0,0,0,8.23-4.77,6.49,6.49,0,0,0,.22-2.06,6.73,6.73,0,0,0,6.65-11.1L110,75.08a4.43,4.43,0,0,0,3.83,2.19,4.31,4.31,0,0,0,2-.5L125,72.06a4.45,4.45,0,0,0,1.9-6ZM68.26,53.41l0,0,5-4.5a7.61,7.61,0,0,1,5.5-2l10.74.3a10.39,10.39,0,0,0,3.79-.56l1.6-.52,13.53,26.15-3,2.46L89.15,64.2a10.5,10.5,0,0,0-2.83-1.29c-2.82-.84-4.71-3.33-5.17-6.84a1.59,1.59,0,0,0-1.77-1.36,1.4,1.4,0,0,0-.5.16,64.13,64.13,0,0,0-9.69,7.93,5.17,5.17,0,0,1-7.27-.87,5.12,5.12,0,0,1-1-2ZM26.21,72.86l-8.65-5.54a1.28,1.28,0,0,1-.39-1.76L36.34,35.63a1.31,1.31,0,0,1,.81-.55,1.27,1.27,0,0,1,.28,0,1.18,1.18,0,0,1,.68.2l8.64,5.54a1.28,1.28,0,0,1,.39,1.76L46.21,44h0l-17,26.62a1.54,1.54,0,0,0-.46.71L28,72.47A1.28,1.28,0,0,1,26.21,72.86Zm9.91,16.48A3.56,3.56,0,0,1,35,84.42L40,76.72a3.56,3.56,0,0,1,6,3.84L41,88.25A3.57,3.57,0,0,1,36.12,89.34Zm7.42,7.45a3.57,3.57,0,0,1-1.07-4.92l8.09-12.62a3.49,3.49,0,0,1,2.23-1.55,3.46,3.46,0,0,1,.78-.09,3.57,3.57,0,0,1,3,5.49l-2.76,4.29-5.33,8.32A3.56,3.56,0,0,1,43.54,96.79Zm10.62,7.13a3.56,3.56,0,0,1-3.75-5.4l.71-1.1h0L56,89.78l4.1-6.4a3.5,3.5,0,0,1,2.24-1.55,3.31,3.31,0,0,1,.77-.09,3.56,3.56,0,0,1,3,5.48l-3.82,6L58.56,99h0l-2.16,3.37A3.53,3.53,0,0,1,54.16,103.92ZM65,106.08a3.56,3.56,0,0,1-3.76-5.39l3.72-5.8.75-1.18a3.56,3.56,0,0,1,6,3.78l0,.07-4.47,7A3.56,3.56,0,0,1,65,106.08Zm41.25-22.93a3.58,3.58,0,0,1-4.94,1.08L98.4,82.38h0l-9.42-6a1.58,1.58,0,0,0-1.85,2.55l.15.1,9.42,6h0a3.58,3.58,0,0,1-3.88,6L90,89.21,83.58,85a1.58,1.58,0,0,0-1.73,2.64l6.38,4.18h0a3.58,3.58,0,0,1-3.85,6l-1.8-1.15h0L79.11,94.5a1.58,1.58,0,1,0-1.69,2.67l3.47,2.23a3.58,3.58,0,1,1-3.86,6h0l-4.71-3,2-3.14a6.7,6.7,0,0,0-5.58-10.33h0A6.71,6.71,0,0,0,60,79.35a6.7,6.7,0,0,0-8.27-4.63,6.59,6.59,0,0,0-2.57,1.37A6.71,6.71,0,0,0,37.32,75L36.2,76.77l-4-5,16-25,16,6-6,5.35a1.58,1.58,0,0,0-.53,1.31,8.34,8.34,0,0,0,13.53,5.79l.1-.09a87.54,87.54,0,0,1,7.23-6.23,10.15,10.15,0,0,0,6.87,7,7.42,7.42,0,0,1,2,.93l17.7,11.34A3.59,3.59,0,0,1,106.23,83.15Zm17.94-14.64a1.3,1.3,0,0,1-.63.75h0L114.41,74a1.28,1.28,0,0,1-1.72-.55l-.79-1.53h0L97.38,43.81c0-.05,0-.11,0-.17a1.57,1.57,0,0,0-.34-.57l-.62-1.2a1.29,1.29,0,0,1,.55-1.73L106,35.42a1.3,1.3,0,0,1,.58-.14,1.39,1.39,0,0,1,.4.06,1.26,1.26,0,0,1,.74.64l16.33,31.55a1.33,1.33,0,0,1,.08,1Z"/><rect class="cls-2" width="141.2" height="141.2" rx="70.6"/></g></g></svg>