<svg xmlns="http://www.w3.org/2000/svg" viewBox="0 0 141.2 141.2"><defs><style>.cls-1{}.cls-2{fill:none;}</style></defs><g id="Calque_2" data-name="Calque 2"><g id="Layer_1" data-name="Layer 1"><path class="cls-1" d="M68.2,57.91c.24.75.48,1.5.71,2.26a18.66,18.66,0,0,1,2.78,1.88,15.24,15.24,0,0,1,4.06,4.56l1.51-.87A28.88,28.88,0,0,1,68.2,57.91Z"/><path class="cls-1" d="M88.69,63.8c-.06.56-.15,1.09-.24,1.59a2.48,2.48,0,0,1,.35.13c.31-.5.63-1,.88-1.3A4.34,4.34,0,0,1,88.69,63.8Z"/><path class="cls-1" d="M78.06,66.2c-.67.36-1.33.74-2,1.11a1.34,1.34,0,0,0,.07.18,41,41,0,0,1,4.63.85,3.2,3.2,0,0,1,.76-.44A38.06,38.06,0,0,1,78.06,66.2Z"/><path class="cls-1" d="M60.88,83.79c-.39.12-.78.24-1.16.34a2.84,2.84,0,0,1,.5.48l1-.21C61.11,84.2,61,84,60.88,83.79Z"/><path class="cls-1" d="M86.82,71.71l.12-.15-.19,0a1.71,1.71,0,0,1,0,.32A.75.75,0,0,1,86.82,71.71Z"/><path class="cls-1" d="M54.57,86.44l-.18.07c.06.08.12.18.18.28a.86.86,0,0,1,0-.16C54.56,86.56,54.57,86.5,54.57,86.44Z"/><path class="cls-1" d="M114.71,60.76c-1.69-5.35-4.54-8.07-8.45-8.07a10.92,10.92,0,0,0-4,.85A6.09,6.09,0,0,0,99,52.72a11.4,11.4,0,0,0-4.36.93,12.31,12.31,0,0,0-2.72,1.57,5.78,5.78,0,0,1-1.76.89l-.38.14a5.77,5.77,0,0,0-1,.52,32.94,32.94,0,0,0-1-6.29c0-.18-.11-.35-.16-.53.36-.19.72-.4,1.07-.63,3.28-2.15,5-5.11,4-6.75h0a2.66,2.66,0,0,0-2.35-1,10.67,10.67,0,0,0-5.44,1.93l-.62.43a7.12,7.12,0,0,0-5-2,13.74,13.74,0,0,0-6.77,2.19c-3.93,2.25-6,4.87-6.23,7.8-.9-2.84-1.75-5.5-2.5-7.83.9-.94,1.75-1.85,2.57-2.74A43.85,43.85,0,0,1,72,35.87a2.74,2.74,0,0,0,2.4,1.29,3.48,3.48,0,0,0,1.31-.26l.23-.11a3.24,3.24,0,0,1,1.1-.37,7.73,7.73,0,0,0,1.87-.53,6.55,6.55,0,0,0,2.76-2,2.62,2.62,0,0,0,.53-2.6v0a3,3,0,0,0-2.89-1.44,7.07,7.07,0,0,0-2.71.58,7.4,7.4,0,0,0-1.69,1,3.54,3.54,0,0,1-1,.52,1.17,1.17,0,0,0-.24.09,3,3,0,0,0-1.91,3.2,43,43,0,0,0-5.88,5.69c-.73.78-1.48,1.59-2.27,2.42l-2-6.27a3.33,3.33,0,0,0,1.73-.55l.21-.15a3.34,3.34,0,0,1,1-.56,7.85,7.85,0,0,0,1.75-.85c2.25-1.48,3.3-3.72,2.42-5.13h0s0,0,0,0a2.57,2.57,0,0,0-2.24-1,6.62,6.62,0,0,0-3.46,1.15,7.57,7.57,0,0,0-1.48,1.26,2.7,2.7,0,0,1-.67.55l-.15-.08a3.26,3.26,0,0,1-1-.63,7.43,7.43,0,0,0-1.57-1.16,6.74,6.74,0,0,0-3.21-.92A2.7,2.7,0,0,0,52.39,30s0,0,0,0h0a2.64,2.64,0,0,0,.25,2.6A6.67,6.67,0,0,0,55.13,35a7.55,7.55,0,0,0,1.81.73,3.16,3.16,0,0,1,1,.5l.22.13a3.37,3.37,0,0,0,1.63.43,3,3,0,0,0,.42,0c.18,1.28.61,3.39,1.34,6.71a35.66,35.66,0,0,1-4.45-2.66,11.19,11.19,0,0,0-4.2-2,3,3,0,0,0-2.14-3l-.24-.07a3.55,3.55,0,0,1-1.07-.45,7.21,7.21,0,0,0-1.74-.85A7.32,7.32,0,0,0,45.4,34c-1.59,0-2.8.63-3.18,1.64v0c-.55,1.6,1,3.55,3.59,4.42a7.75,7.75,0,0,0,1.91.4,3.13,3.13,0,0,1,1.12.3l.24.09a3.47,3.47,0,0,0,1.1.18,2.71,2.71,0,0,0,2.58-1.58,10.53,10.53,0,0,1,4,1.91,37.33,37.33,0,0,0,5.1,3c.24,1.08.51,2.26.8,3.57,0,.15.07.3.1.45A52.9,52.9,0,0,0,55.6,47a3.5,3.5,0,0,0-.85-1.14,5.37,5.37,0,0,0-3-1.28l-.37,0a6.46,6.46,0,0,1-1.82-.32,13.33,13.33,0,0,0-2.82-.63,13,13,0,0,0-1.63-.1c-3.27,0-5.7,1.2-5.92,2.91h0c-.24,2.06,2.7,4,6.69,4.5a13.35,13.35,0,0,0,2.89,0,6.77,6.77,0,0,1,1.85.11l.37.06c.23,0,.47,0,.7,0h0c2.19,0,3.91-1.18,4.1-2.8a2.62,2.62,0,0,0,0-.56,55.65,55.65,0,0,1,7.08,1.46c.65,2.94,1.37,6.18,2.08,9.52a7.52,7.52,0,0,0-.82,0,7.12,7.12,0,0,0-4.42,1.54,32.22,32.22,0,0,0-5-1.39,4.09,4.09,0,0,0-1.07-2.35A5.09,5.09,0,0,0,50.52,55l-.4,0a5.89,5.89,0,0,1-1.94-.36,12.18,12.18,0,0,0-4.51-.84c-3.64,0-6.46,1.62-6.72,3.86v0h0a4.11,4.11,0,0,0,1.92,3.59A10.78,10.78,0,0,0,44,63.19a12.66,12.66,0,0,0,3.14,0,5.68,5.68,0,0,1,2,.09l.39.06a4.49,4.49,0,0,0,.64,0,4.42,4.42,0,0,0,4.58-3.64,30.14,30.14,0,0,1,4.28,1.19,17.84,17.84,0,0,0-4.19,7,37.87,37.87,0,0,0-2.08,12.44,2.21,2.21,0,0,0-.37.08,32.07,32.07,0,0,0-2.31-4.33c-3.46-5.5-9-11.37-14.34-11.37-3.37,0-6.19,2.3-8.41,6.82-2.08,4.18-2.31,7.62-.69,10.23C29.47,86.34,36.89,87,41.06,87a37.74,37.74,0,0,0,7-.64,3.18,3.18,0,0,0-.38.76c-5.83,2.07-13.58,6.68-15.3,12.09-1.18,3.73.55,7.26,5.15,10.49,2.63,1.87,5.08,2.83,7.26,2.83,4,0,7.07-3.08,9-8.91,1.68-5.18,2-11.87,1.33-15.29a2.9,2.9,0,0,0,.61.7,25.42,25.42,0,0,0,2.74,5.28c3.6,5.52,9.39,11.43,14.82,11.43,3.48,0,6.32-2.39,8.42-7.1,1.91-4.19,2-7.6.41-10.15A9.39,9.39,0,0,0,77.26,85a38.48,38.48,0,0,0,6.66-7.37,25.51,25.51,0,0,0,2.36-4.12,2.62,2.62,0,0,0,.07.62,1.05,1.05,0,0,0,.06.24c-1,3.5-.94,10.72.65,16.14,1.66,5.69,4.66,8.69,8.67,8.69a13.44,13.44,0,0,0,7-2.42c4.87-3,6.78-6.53,5.67-10.41-1.69-5.94-10.09-11.06-15.72-13.17a3.16,3.16,0,0,0-.14-.68,38.37,38.37,0,0,0,11.35,1.89c4.94,0,8.51-1.32,10.32-3.81C115.88,68.25,116.05,65,114.71,60.76ZM81.35,31.34a11.59,11.59,0,0,1-3.66,2.51.39.39,0,0,0-.27.48.38.38,0,0,0,.37.29l.1,0a12,12,0,0,0,3.64-2.35A2.51,2.51,0,0,1,81,33.38a5.84,5.84,0,0,1-2.44,1.8,6.61,6.61,0,0,1-1.68.47,4.15,4.15,0,0,0-1.34.45l-.18.09a2.67,2.67,0,0,1-1,.2,1.9,1.9,0,0,1-1.83-1.1,2.13,2.13,0,0,1,1.35-2.66l.18-.06a4.08,4.08,0,0,0,1.27-.65,6.93,6.93,0,0,1,1.51-.87,6.31,6.31,0,0,1,2.41-.52A2.46,2.46,0,0,1,81.35,31.34Zm-31.2,9a2.8,2.8,0,0,1-.85-.14l-.18-.07a3.83,3.83,0,0,0-1.37-.36A6.61,6.61,0,0,1,46,39.42c-1.67-.57-2.92-1.7-3.14-2.72a12.11,12.11,0,0,0,3.8,2.1h.07a.39.39,0,0,0,.38-.32.39.39,0,0,0-.31-.45A11.73,11.73,0,0,1,43,35.79a2.62,2.62,0,0,1,2.37-1,6.62,6.62,0,0,1,2.1.36,7.08,7.08,0,0,1,1.56.77,4.21,4.21,0,0,0,1.3.56l.19.05a2.12,2.12,0,0,1,1.53,2.56A1.94,1.94,0,0,1,50.15,40.35Zm4.9,8c-.14,1.2-1.58,2.11-3.33,2.11a4.3,4.3,0,0,1-.62,0l-.31,0a9.29,9.29,0,0,0-1.49-.14,5.49,5.49,0,0,0-.58,0,13.08,13.08,0,0,1-2.72,0c-3-.34-5.43-1.63-5.93-3a21.87,21.87,0,0,0,6.66,1.87h0a.4.4,0,0,0,.39-.39.39.39,0,0,0-.39-.39h0a21.34,21.34,0,0,1-6.69-2c.37-1.17,2.44-2,5.09-2a13.56,13.56,0,0,1,1.55.09,12.35,12.35,0,0,1,2.65.6,7.31,7.31,0,0,0,2,.36l.32,0a4.53,4.53,0,0,1,2.54,1.08A2.2,2.2,0,0,1,55.05,48.33ZM54,59.62a3.64,3.64,0,0,1-3.81,3,3.27,3.27,0,0,1-.54,0l-.34,0a8.05,8.05,0,0,0-1.47-.15,6.49,6.49,0,0,0-.77,0,11,11,0,0,1-2.93,0,9.94,9.94,0,0,1-4.8-1.78A3.49,3.49,0,0,1,37.7,58a19.27,19.27,0,0,1,7.57-.71.38.38,0,0,0,.47-.27.39.39,0,0,0-.27-.48c-1.49-.39-5.4-.06-7.58.58.66-1.5,2.93-2.53,5.77-2.53a10.75,10.75,0,0,1,1.38.08,11.25,11.25,0,0,1,2.84.7,6.43,6.43,0,0,0,2.2.42l.35,0a4.32,4.32,0,0,1,2.7,1.34A3.13,3.13,0,0,1,54,59.62ZM90.81,71.47a2.42,2.42,0,1,1-2.68,4,2.39,2.39,0,0,1-1-1.53,2.42,2.42,0,0,1,3.7-2.49ZM102.29,96.1a12.73,12.73,0,0,1-6.56,2.3c-4.59,0-6.85-4.42-7.93-8.13A35.55,35.55,0,0,1,87,75.45,3.18,3.18,0,0,0,92.62,74c5.41,2.1,13.43,7,15,12.56C108.62,90.07,106.83,93.28,102.29,96.1ZM81,98.34c-2,4.41-4.57,6.64-7.72,6.64-5.12,0-10.84-6-14.18-11.08a28,28,0,0,1-2.32-4.25,3.1,3.1,0,0,0,1,.17,3.19,3.19,0,0,0,3.19-3.19,3.1,3.1,0,0,0-.29-1.32,38.32,38.32,0,0,1,8.07-.86c3.67,0,10.19.58,12.7,4.48C82.9,91.24,82.75,94.4,81,98.34Zm-28,5.07c-1.23,3.81-3.66,8.36-8.21,8.36-2,0-4.31-.9-6.82-2.68-4.28-3-5.91-6.25-4.85-9.62,1.58-5,8.81-9.35,14.38-11.43a.91.91,0,0,0,0,.17,3.19,3.19,0,0,0,6.38,0,3.14,3.14,0,0,0-.33-1.4.49.49,0,0,1,.14.06C54.86,87.73,55.31,96.28,53,103.41ZM28.05,71.92c2.07-4.23,4.66-6.38,7.71-6.38,5,0,10.33,5.69,13.68,11a32,32,0,0,1,2.25,4.22A3.19,3.19,0,0,0,50.44,85l-.12,0a3.12,3.12,0,0,0-1,.27,35.77,35.77,0,0,1-8.3.93c-6.82,0-11.83-1.76-13.74-4.84C25.85,79,26.1,75.85,28.05,71.92ZM63.36,47.85c-.68-3-1.34-6-1.8-8.23,1.45,4.53,3.91,12.19,6.38,20.06A10.52,10.52,0,0,0,65.8,59C65,55,64.11,51.2,63.36,47.85ZM53,30.59a11.78,11.78,0,0,1,4.22,1.34.37.37,0,0,0,.24.08.39.39,0,0,0,.31-.15.38.38,0,0,0-.07-.54,12.15,12.15,0,0,0-4.09-1.43,2.58,2.58,0,0,1,1.28-.29,6,6,0,0,1,2.84.82,6.62,6.62,0,0,1,1.4,1,4.32,4.32,0,0,0,1.18.78.7.7,0,0,1,.17.09,2.12,2.12,0,0,1,1,2.79,1.89,1.89,0,0,1-1.68.9,2.55,2.55,0,0,1-1.25-.34,1,1,0,0,1-.17-.1,4.31,4.31,0,0,0-1.28-.6,6.58,6.58,0,0,1-1.62-.66,6,6,0,0,1-2.22-2.06A2.06,2.06,0,0,1,53,30.59Zm9,1a7,7,0,0,1,1.33-1.13,5.77,5.77,0,0,1,3-1,2.4,2.4,0,0,1,1,.21,12.12,12.12,0,0,0-4,1.71.38.38,0,0,0,0,.54.36.36,0,0,0,.29.13.43.43,0,0,0,.26-.09,11.47,11.47,0,0,1,4.12-1.63c.43,1.05-.55,2.77-2.27,3.9a7.08,7.08,0,0,1-1.57.76,4.2,4.2,0,0,0-1.24.69.91.91,0,0,1-.16.11,2.5,2.5,0,0,1-1.22.41,2.17,2.17,0,0,0,.57-.67,2.8,2.8,0,0,0-.73-3.42A3.38,3.38,0,0,0,62,31.58ZM79.3,42.68a6.35,6.35,0,0,1,4.39,1.71c-.34.28-.66.56-1,.86a6.49,6.49,0,0,1-1.45,1.07l-.31.19a5.1,5.1,0,0,0-2.22,2.93c-3.64,1.55-8.11,3.73-10.93,6.24a7.94,7.94,0,0,1-.52-1.43c-1-3.59.93-6.78,5.62-9.48A13.12,13.12,0,0,1,79.3,42.68Zm11.07-.36a2.71,2.71,0,0,1,1.2.24,21.73,21.73,0,0,0-6.11,2.79.39.39,0,0,0,.25.69A.38.38,0,0,0,86,46a21.79,21.79,0,0,1,6.22-2.75c.43,1.2-.92,3.56-3.85,5.47A12.68,12.68,0,0,1,86,49.9a7.5,7.5,0,0,0-1.75,1l-.26.18a4.64,4.64,0,0,1-2.49.8h0a2,2,0,0,1-1.79-.8c-.71-1.08.06-2.85,1.71-3.93l.27-.16a7.25,7.25,0,0,0,1.62-1.2,12.85,12.85,0,0,1,2.07-1.68A10,10,0,0,1,90.37,42.32ZM87.1,50.69a31.87,31.87,0,0,1,1,6.67,4.32,4.32,0,0,0-1.29,4,75,75,0,0,0-8.76,4c-3.87-2.21-8-5.4-9.89-8.91,2.61-2.39,6.88-4.52,10.47-6.07A2.27,2.27,0,0,0,79,51.51a2.8,2.8,0,0,0,2.44,1.16h0a5.46,5.46,0,0,0,2.92-.93l.29-.21a7.07,7.07,0,0,1,1.57-.91c.25-.09.49-.2.74-.31Zm.36,20.14a2.4,2.4,0,0,1-1.34-.41,2.36,2.36,0,0,1-1-1.53A2.41,2.41,0,0,1,87.47,66a2.37,2.37,0,0,1,1.33.41,2.4,2.4,0,0,1,.67,3.34,2.18,2.18,0,0,1-.57.6,3.17,3.17,0,0,0-1.16.46ZM59.72,84.13c.38-.1.77-.22,1.16-.34.11.21.22.41.34.61-.34.06-.68.14-1,.21A2.84,2.84,0,0,0,59.72,84.13Zm1.91-.59a38.8,38.8,0,0,0,7-3.18c.11,1.16.19,2.27.24,3.31h-.16a40,40,0,0,0-6.69.58C61.89,84,61.76,83.79,61.63,83.54Zm7.74-3.63a23.23,23.23,0,0,0,3.9-3c.91,3,1.66,5.63,2.14,7.46a27.68,27.68,0,0,0-5.76-.73C69.6,82.51,69.51,81.25,69.37,79.91Zm15.35-7.7a2.42,2.42,0,1,1-.67-3.34,1.76,1.76,0,0,1,.3.24,3.22,3.22,0,0,0,.75,1.44A2.37,2.37,0,0,1,84.72,72.21Zm-8.56-4.72c0-.06,0-.12-.07-.18.64-.37,1.3-.75,2-1.11a38.06,38.06,0,0,0,3.49,1.7,3.2,3.2,0,0,0-.76.44A39.29,39.29,0,0,0,76.16,67.49Zm-.41-.88a15.24,15.24,0,0,0-4.06-4.56,18.66,18.66,0,0,0-2.78-1.88c-.23-.76-.47-1.51-.71-2.27,2.1,3.09,5.63,5.83,9.06,7.84C76.75,66,76.24,66.31,75.75,66.61Zm12.7-1.22q.15-.75.24-1.59a4.34,4.34,0,0,0,1,.42c-.25.35-.57.8-.88,1.3A2.48,2.48,0,0,0,88.45,65.39Zm-1.37-3.31A3.8,3.8,0,0,0,88,63.29c-.07.71-.17,1.36-.28,1.95l-.22,0a3.2,3.2,0,0,0-2.66,1.43,3.1,3.1,0,0,0-.52,1.43l-.13,0a3.1,3.1,0,0,0-1-.32,31.7,31.7,0,0,1-4.31-2A75.86,75.86,0,0,1,87.08,62.08Zm15.67-7a19.47,19.47,0,0,1-6.25,4.34.39.39,0,0,0,.1.77l.09,0c1.49-.39,4.73-2.6,6.32-4.23.2,1.93-1.87,4.33-5,5.65a11.34,11.34,0,0,1-2.82.79,6.61,6.61,0,0,0-2.12.71c-.1.06-.21.1-.31.15a4.51,4.51,0,0,1-1.76.36,3.4,3.4,0,0,1-3.25-2A3.75,3.75,0,0,1,90.09,57a2.08,2.08,0,0,1,.32-.12,6.57,6.57,0,0,0,2-1A11.07,11.07,0,0,1,95,54.37a10.65,10.65,0,0,1,4-.88C100.81,53.49,102.19,54.09,102.75,55.1ZM71.2,62.66c4,3.19,5.48,6.45,4.36,9.68-1.93,5.52-10.93,9.84-16.82,11.26a3.21,3.21,0,0,0-1-.16,3.13,3.13,0,0,0-1.3.28c0-.06,0-.13,0-.19a3.2,3.2,0,0,0-2.91-3.18,37.07,37.07,0,0,1,2-12.14c1.41-3.95,4-8.65,8.58-8.65C66.28,59.56,68.65,60.6,71.2,62.66ZM53.27,81.11a2.42,2.42,0,0,1,2.41,2.42,2.46,2.46,0,0,1-.14.81,3.09,3.09,0,0,0-.72,1,2.37,2.37,0,0,1-1.55.57,2.42,2.42,0,1,1,0-4.83ZM50.68,85.8a2.56,2.56,0,0,1,.39,0,3.23,3.23,0,0,0,1.41.79,2.36,2.36,0,0,1,.61,1.59,2.42,2.42,0,1,1-2.41-2.41Zm4.66.83A2.41,2.41,0,1,1,57.75,89,2.42,2.42,0,0,1,55.34,86.63Zm20.93-2c-.49-1.93-1.33-4.85-2.37-8.32a10.76,10.76,0,0,0,2.39-3.72,7,7,0,0,0,.14-4.3,36,36,0,0,1,3.72.68l-.09.13a3.12,3.12,0,0,0-.48,2.39,3.16,3.16,0,0,0,1.36,2,3.17,3.17,0,0,0,4.42-.89,3.15,3.15,0,0,0,.51-1.35.5.5,0,0,1,.08.14c.19.49-.37,2.43-2.67,5.74a36.68,36.68,0,0,1-6.9,7.5Zm15-13.81A3.16,3.16,0,0,0,90,70.34l.12-.16a3.2,3.2,0,0,0-.67-4.26c.29-.45.63-.93,1-1.45a.86.86,0,0,1,.07-.1l.45,0A5.31,5.31,0,0,0,93,64l.36-.17a6,6,0,0,1,1.87-.64,11.66,11.66,0,0,0,3-.84c4-1.67,6.29-4.88,5.27-7.31a3,3,0,0,0-.59-.91,9.89,9.89,0,0,1,3.29-.64c3.54,0,6.13,2.54,7.71,7.54,1.26,3.93,1.12,7-.42,9.12-2.1,2.88-6.43,3.49-9.7,3.49A37.24,37.24,0,0,1,92,71.48,3,3,0,0,0,91.24,70.83ZM54.39,86.51l.18-.07c0,.06,0,.12,0,.19s0,.11,0,.16C54.51,86.69,54.45,86.59,54.39,86.51Zm32.36-15,.19,0-.12.15a.75.75,0,0,0-.07.12C86.76,71.72,86.75,71.62,86.75,71.52Z"/><rect class="cls-2" width="141.2" height="141.2" rx="70.6"/></g></g></svg>