<svg xmlns="http://www.w3.org/2000/svg" viewBox="0 0 141.2 141.2"><defs><style>.cls-1{fill:none;}.cls-2{}</style></defs><g id="Calque_2" data-name="Calque 2"><g id="Layer_1" data-name="Layer 1"><rect class="cls-1" width="141.2" height="141.2" rx="70.6"/><path class="cls-2" d="M42.13,95.45a.88.88,0,0,0-1.24,0l-1.4,1.4a.88.88,0,0,0,0,1.24L49,107.65a.88.88,0,0,0,1.24,0l1.4-1.4a.88.88,0,0,0,0-1.24Z"/><path class="cls-2" d="M60.31,89.1a.88.88,0,0,0-1.24,0l-9.55,9.56a.88.88,0,0,0,0,1.24l1.4,1.39a.86.86,0,0,0,1.24,0l9.55-9.55a.88.88,0,0,0,0-1.24Z"/><path class="cls-2" d="M49,94.94a.88.88,0,0,0,1.24,0l1.4-1.4a.88.88,0,0,0,0-1.24l-9.55-9.55a.88.88,0,0,0-1.24,0l-1.4,1.4a.88.88,0,0,0,0,1.24Z"/><path class="cls-2" d="M60.31,76.4a.88.88,0,0,0-1.24,0L49.52,86a.88.88,0,0,0,0,1.24l1.4,1.4a.88.88,0,0,0,1.24,0L61.71,79a.88.88,0,0,0,0-1.24Z"/><path class="cls-2" d="M61.71,65.09l-1.4-1.39a.86.86,0,0,0-1.24,0l-9.55,9.55a.87.87,0,0,0-.26.62.91.91,0,0,0,.26.62l1.4,1.39a.86.86,0,0,0,1.24,0l9.55-9.55a.87.87,0,0,0,.26-.62A.89.89,0,0,0,61.71,65.09Z"/><path class="cls-2" d="M39.49,72.68,49,82.24a.88.88,0,0,0,1.24,0l1.4-1.4a.87.87,0,0,0,0-1.24l-9.55-9.55a.86.86,0,0,0-1.24,0l-1.4,1.39a.89.89,0,0,0-.26.63A.87.87,0,0,0,39.49,72.68Z"/><path class="cls-2" d="M49,69.53a.86.86,0,0,0,1.24,0l1.4-1.4a.88.88,0,0,0,0-1.24l-9.55-9.55a.88.88,0,0,0-1.24,0l-1.4,1.4a.88.88,0,0,0,0,1.24Z"/><path class="cls-2" d="M60.31,51a.88.88,0,0,0-1.24,0l-9.55,9.55a.88.88,0,0,0,0,1.24l1.4,1.4a.88.88,0,0,0,1.24,0l9.55-9.55a.88.88,0,0,0,0-1.24Z"/><path class="cls-2" d="M39.49,47.28,49,56.83a.88.88,0,0,0,1.24,0l1.4-1.4a.82.82,0,0,0,.25-.63.84.84,0,0,0-.25-.64l-9.55-9.55a.88.88,0,0,0-1.24,0L39.49,46a.84.84,0,0,0-.25.63A.88.88,0,0,0,39.49,47.28Z"/><path class="cls-2" d="M61.71,39.66l-1.4-1.4a.88.88,0,0,0-1.24,0l-9.55,9.55a.87.87,0,0,0-.26.63.89.89,0,0,0,.26.64l1.4,1.4a.88.88,0,0,0,1.24,0l9.55-9.56a.92.92,0,0,0,0-1.26Z"/><path class="cls-2" d="M49,44.1a.88.88,0,0,0,1.24,0l1.4-1.4a.88.88,0,0,0,0-1.24l-9.55-9.55a.86.86,0,0,0-1.24,0l-1.4,1.39a.88.88,0,0,0,0,1.24Z"/><path class="cls-2" d="M60.31,25.55a.88.88,0,0,0-1.24,0l-9.55,9.56a.88.88,0,0,0,0,1.24l1.4,1.39a.86.86,0,0,0,1.24,0l9.55-9.55a.88.88,0,0,0,0-1.24Z"/><path class="cls-2" d="M82.13,103.45a.88.88,0,0,0-1.24,0l-1.4,1.4a.88.88,0,0,0,0,1.24L89,115.65a.88.88,0,0,0,1.24,0l1.4-1.4a.88.88,0,0,0,0-1.24Z"/><path class="cls-2" d="M100.31,97.1a.88.88,0,0,0-1.24,0l-9.55,9.56a.88.88,0,0,0,0,1.24l1.4,1.39a.86.86,0,0,0,1.24,0l9.55-9.55a.88.88,0,0,0,0-1.24Z"/><path class="cls-2" d="M89,102.94a.88.88,0,0,0,1.24,0l1.4-1.4a.88.88,0,0,0,0-1.24l-9.55-9.55a.88.88,0,0,0-1.24,0l-1.4,1.4a.88.88,0,0,0,0,1.24Z"/><path class="cls-2" d="M100.31,84.4a.88.88,0,0,0-1.24,0L89.52,94a.88.88,0,0,0,0,1.24l1.4,1.4a.88.88,0,0,0,1.24,0L101.71,87a.88.88,0,0,0,0-1.24Z"/><path class="cls-2" d="M101.71,73.09l-1.4-1.39a.86.86,0,0,0-1.24,0l-9.55,9.55a.87.87,0,0,0-.26.62.91.91,0,0,0,.26.62l1.4,1.39a.86.86,0,0,0,1.24,0l9.55-9.55a.87.87,0,0,0,.26-.62A.89.89,0,0,0,101.71,73.09Z"/><path class="cls-2" d="M79.49,80.68,89,90.24a.88.88,0,0,0,1.24,0l1.4-1.4a.87.87,0,0,0,0-1.24l-9.55-9.55a.86.86,0,0,0-1.24,0l-1.4,1.39a.89.89,0,0,0-.26.63A.87.87,0,0,0,79.49,80.68Z"/><path class="cls-2" d="M89,77.53a.86.86,0,0,0,1.24,0l1.4-1.4a.88.88,0,0,0,0-1.24l-9.55-9.55a.88.88,0,0,0-1.24,0l-1.4,1.4a.88.88,0,0,0,0,1.24Z"/><path class="cls-2" d="M100.31,59a.88.88,0,0,0-1.24,0l-9.55,9.55a.88.88,0,0,0,0,1.24l1.4,1.4a.88.88,0,0,0,1.24,0l9.55-9.55a.88.88,0,0,0,0-1.24Z"/><path class="cls-2" d="M79.49,55.28,89,64.83a.88.88,0,0,0,1.24,0l1.4-1.4a.82.82,0,0,0,.25-.63.84.84,0,0,0-.25-.64l-9.55-9.55a.88.88,0,0,0-1.24,0L79.49,54a.84.84,0,0,0-.25.63A.88.88,0,0,0,79.49,55.28Z"/><path class="cls-2" d="M101.71,47.66l-1.4-1.4a.88.88,0,0,0-1.24,0l-9.55,9.55a.87.87,0,0,0-.26.63.89.89,0,0,0,.26.64l1.4,1.4a.88.88,0,0,0,1.24,0l9.55-9.56a.92.92,0,0,0,0-1.26Z"/><path class="cls-2" d="M89,52.1a.88.88,0,0,0,1.24,0l1.4-1.4a.88.88,0,0,0,0-1.24l-9.55-9.55a.86.86,0,0,0-1.24,0l-1.4,1.39a.88.88,0,0,0,0,1.24Z"/><path class="cls-2" d="M100.31,33.55a.88.88,0,0,0-1.24,0l-9.55,9.56a.88.88,0,0,0,0,1.24l1.4,1.39a.86.86,0,0,0,1.24,0l9.55-9.55a.88.88,0,0,0,0-1.24Z"/></g></g></svg>