<svg xmlns="http://www.w3.org/2000/svg" viewBox="0 0 141.2 141.2"><defs><style>.cls-1{}.cls-2{fill:none;}</style></defs><g id="Calque_2" data-name="Calque 2"><g id="Layer_1" data-name="Layer 1"><path class="cls-1" d="M38.33,31.39c.17.22.22.47.1.56l-2.31,1.84c-.12.09-.36,0-.53-.23l-6-7.52c-.17-.22-.22-.47-.1-.57l2.32-1.83c.12-.1.35,0,.52.22Z"/><path class="cls-1" d="M99.5,99.64c-5,0-9,3.29-9,7.35s4,7.34,9,7.34,9-3.29,9-7.34S104.46,99.64,99.5,99.64Zm-.27,12.64c-4.51,0-8.17-2.71-8.17-6s3.66-6,8.17-6,8.16,2.71,8.16,6S103.73,112.28,99.23,112.28Z"/><path class="cls-1" d="M107.24,103.89a4.81,4.81,0,0,1,.12.76,5.71,5.71,0,0,1,3.29,4.85c0,3.34-3.65,6-8.16,6a9.06,9.06,0,0,1-6.94-2.87c-.45,0-.89-.08-1.32-.14,1.17,2.94,4.55,5.07,8.53,5.07,5,0,9-3.29,9-7.35A7.23,7.23,0,0,0,107.24,103.89Z"/><path class="cls-1" d="M97.75,89.23c-3.08-3.6-9.19-3.44-13.63.37S78.57,99.41,81.66,103a8.31,8.31,0,0,0,8.24,2.36,5.52,5.52,0,0,1,.15-1.07,7.19,7.19,0,0,1-7.21-1.6c-2.89-3-2.19-8.32,1.54-11.94s9.1-4.14,12-1.16c2.27,2.34,2.32,6.15.42,9.43a11.13,11.13,0,0,1,1.55-.23C100,95.49,99.92,91.77,97.75,89.23Z"/><path class="cls-1" d="M91,94.46c-.18.69-.59,1.26-.91,1.26s-.43-.57-.24-1.26.59-1.26.91-1.26S91.2,93.77,91,94.46Z"/><path class="cls-1" d="M91.59,96.27c.51.35.73.86.5,1.13s-.84.23-1.35-.12-.73-.86-.49-1.13S91.08,95.93,91.59,96.27Z"/><path class="cls-1" d="M88.11,96.27c-.69.35-1.18.86-1.1,1.13s.72.23,1.41-.12,1.19-.86,1.1-1.13S88.81,95.93,88.11,96.27Z"/><path class="cls-1" d="M99.85,104.49c-.15.57-.49,1-.76,1s-.35-.47-.2-1,.5-1,.76-1S100,103.91,99.85,104.49Z"/><path class="cls-1" d="M100.33,106c.42.29.6.71.41.94s-.69.18-1.11-.11-.61-.7-.41-.93S99.91,105.7,100.33,106Z"/><path class="cls-1" d="M97.45,106c-.58.29-1,.71-.91.94s.59.18,1.17-.11,1-.7.91-.93S98,105.7,97.45,106Z"/><path class="cls-1" d="M64.65,54.18c-6.09-8.74-12.37-18.66-21.06-25.07-2.88-2.11-8.8-4.06-11.5-.44l0,0c-1.47,2-.3,4.54,0,6.81,1.45,9.87,7.37,18,15,24.34C56.3,70.34,63.65,82.3,72.3,93.26c2.51,3.18,5.11,6.45,7.89,9.57a11.81,11.81,0,0,1-1.27-5.34,11.94,11.94,0,0,1,.94-4.64L51.49,60c2-.24,26.2,30.1,28.37,32.83a11.88,11.88,0,0,1,16.33-5.92C86,75.71,73.32,66.63,64.65,54.18Z"/><rect class="cls-2" width="141.2" height="141.2" rx="70.6"/></g></g></svg>