<svg xmlns="http://www.w3.org/2000/svg" viewBox="0 0 141.2 141.2"><defs><style>.cls-1{fill:none;}.cls-2{}</style></defs><g id="Calque_2" data-name="Calque 2"><g id="Layer_1" data-name="Layer 1"><rect class="cls-1" width="141.2" height="141.2" rx="70.6"/><path class="cls-2" d="M83.75,78.42l-1.34.44a13.43,13.43,0,0,0-2.48-3.41l.83-1.15-3.27-2.39-1,1.15a15.08,15.08,0,0,0-4.2-1.31V70.63H67.52v1.15A10.56,10.56,0,0,0,64,73.09l-.57-1.15L60.31,74.3l.9,1.15a12.88,12.88,0,0,0-2.44,3.41l-1.19-.4c-6.19-6.58-15.06-16-19.51-20.73a1.94,1.94,0,0,0-1.67-.93c-11.27-2-15.89,9.61-12.2,20.33a1.84,1.84,0,0,0,1.85,1.29,2,2,0,0,0,2-1.66V76A8.86,8.86,0,0,1,36,66.41a8.76,8.76,0,0,1,7.21,2.77l.37.37c-8.32,1.85-10.16,12-7.39,20.33a2.28,2.28,0,0,0,2,1.3,2,2,0,0,0,2-1.67v-.74a8.88,8.88,0,0,1,7.95-9.61,8.74,8.74,0,0,1,7.21,2.78l2,2.09a12.92,12.92,0,0,0,.14,2.91l-1.35.44,1.25,3.86,1.35-.43a13.19,13.19,0,0,0,2.48,3.41l-.84,1.14,3.29,2.39L64,96.61a10.76,10.76,0,0,0,3.48,1.3V99.6h4.72V97.91a14.8,14.8,0,0,0,4.21-1.3l.91,1.14,3.35-2.39-.81-1.14a13.47,13.47,0,0,0,2.49-3.41l1.35.43L85,87.38l-1.34-.44a13.12,13.12,0,0,0,0-4.21L85,82.29ZM27.53,66.6a6.82,6.82,0,0,1,6.84-6.1h.92L37,62.16l.18.19A11.67,11.67,0,0,0,27.53,66.6Zm12,12.56c.93-4.06,3.52-6.47,8-6.1l1.85,1.85A13.31,13.31,0,0,0,39.54,79.16Zm39.12,5.7v.47A8.27,8.27,0,0,1,76.84,90a8.12,8.12,0,0,1-6.23,3v0a8.14,8.14,0,0,1-6.24-3,8.26,8.26,0,0,1-1.81-4.65v-1a8.06,8.06,0,0,1,1.25-3.87,7.22,7.22,0,0,1,.56-.77,8,8,0,0,1,3.29-2.39,7.45,7.45,0,0,1,.91-.3,7.8,7.8,0,0,1,4.07,0,7.31,7.31,0,0,1,.9.3,8,8,0,0,1,5.12,7.06Z"/><path class="cls-2" d="M118.25,85.37l-6.89-18.89H101.23V59.13h-2V50.37H96.54V66.55H94l-5.9-20.9H86.12l3.69,13.48H85.62l-5-4.94,1.84-1.84a1,1,0,0,0-1.35-1.48l-.06.06-4.56,4.56a1,1,0,0,0,0,1.41h0a1,1,0,0,0,1.39,0h0L79.79,55l4.09,4.08H67.5V54.88c0-2.37-1.1-4.5-3.47-4.5H60.77V45.64h-2V66.23A22.26,22.26,0,0,0,55,69.47a2,2,0,0,0,1.47,3.31A2.06,2.06,0,0,0,58,72.16a17.93,17.93,0,0,1,30.7,15.6,2,2,0,0,0,1.55,2.31,2.29,2.29,0,0,0,.37,0,2.2,2.2,0,0,0,1.93-1.87,15.51,15.51,0,0,0,.33-2.8h7.59a8.64,8.64,0,0,0-2.14,5.78,8.2,8.2,0,0,0,8.09,8.31h.14a8.19,8.19,0,0,0,8.19-8.11v-.31a8.44,8.44,0,0,0-2.14-5.7ZM106.49,96A4.48,4.48,0,1,1,111,91.49,4.48,4.48,0,0,1,106.49,96Z"/><polygon class="cls-2" points="89.16 41.6 56.05 41.6 56.05 44.3 89.71 44.3 89.16 41.6"/></g></g></svg>