<svg xmlns="http://www.w3.org/2000/svg" viewBox="0 0 141.2 141.2"><defs><style>.cls-1{fill:none;}.cls-2{}</style></defs><g id="Calque_2" data-name="Calque 2"><g id="Layer_1" data-name="Layer 1"><rect class="cls-1" width="141.2" height="141.2" rx="70.6"/><path class="cls-2" d="M72.72,39.21a2.15,2.15,0,0,0-1-.71,2.11,2.11,0,0,0-1.22,0,.29.29,0,0,1-.22,0,.25.25,0,0,1-.11-.18,2.88,2.88,0,0,0-1-1.76,1.37,1.37,0,0,0-1.44-.18A4.78,4.78,0,0,0,65.15,42a4.66,4.66,0,0,0-2.13.75,2.29,2.29,0,0,0-1,1.63,2.32,2.32,0,0,0,.59,1.83,5.19,5.19,0,0,1,1,1.62.08.08,0,0,1,0,.08.11.11,0,0,1-.08,0,3.42,3.42,0,0,0-1.71.12,1.38,1.38,0,0,0-.9,1.59,12,12,0,0,0,3.13,5.84.09.09,0,0,1,0,.11.09.09,0,0,1-.11,0,65,65,0,0,0-5.6-3.38,1.16,1.16,0,0,0-1.1,0,1.2,1.2,0,0,0-.65.89,1.1,1.1,0,0,1-.23.57.24.24,0,0,1-.25.1,1.88,1.88,0,0,1-1.37-.93,1.18,1.18,0,0,0-1.1-.6,2,2,0,0,0-1.9,2,.27.27,0,0,1-.09.2.27.27,0,0,1-.2.07,3.53,3.53,0,0,0-.92,0,2.31,2.31,0,0,0-1.49,1,2.28,2.28,0,0,0-.32,1.76,5.33,5.33,0,0,0,1.11,2.23.31.31,0,0,1,.06.23.25.25,0,0,1-.15.18,2.59,2.59,0,0,0-.61.43A1.37,1.37,0,0,0,49,62.32a3.84,3.84,0,0,0,2,1.31.44.44,0,0,1,.33.45,3.37,3.37,0,0,1-.06.36A1.37,1.37,0,0,0,52.62,66a3.45,3.45,0,0,1,3.31,2.83.46.46,0,0,0,.53.37,15,15,0,0,1,15,6.58V90.47a14.48,14.48,0,0,1-8.95-8.36A24.36,24.36,0,0,0,51.73,70.78a2.28,2.28,0,0,0-3.21,2.79,9.62,9.62,0,0,1,.54,3.53.45.45,0,0,1-.27.4.43.43,0,0,1-.47-.08l-3.81-3.37h0A1.4,1.4,0,0,0,43,73.83a1.37,1.37,0,0,0-.81,1.25v.45a.08.08,0,0,1-.14.06L41.42,75a1.37,1.37,0,0,0-1.1-.32,1.34,1.34,0,0,0-1,.62,4.07,4.07,0,0,1-1,1.1.5.5,0,0,1-.26.08H35.62a3.3,3.3,0,0,0-3.25,3.8,3.31,3.31,0,0,0,1.52,2.29l2.69,1.67h0a.46.46,0,0,1,.2.5,3,3,0,0,0,2.86,3.77h5a.16.16,0,0,1,.15.12.15.15,0,0,1-.08.17l-1.19.61h0a2.76,2.76,0,0,0-.43,4.64.43.43,0,0,1,.18.41,4.23,4.23,0,0,0,.32,2.14,1.37,1.37,0,0,0,1,.81A1.39,1.39,0,0,0,45.84,97a4.53,4.53,0,0,1,2.6-1.28,9.22,9.22,0,0,0,.49,2,.76.76,0,0,0,1,.47,18,18,0,0,0,6.39-3.47,2.13,2.13,0,0,0,.51-.61,13.26,13.26,0,0,1,8.52-6.32,15.43,15.43,0,0,0,6.16,3.61v13.12a.47.47,0,0,0,.93,0V91.38a14.51,14.51,0,0,1,12.55-.58,24.29,24.29,0,0,0,15.62.4,2.29,2.29,0,0,0,.31-4.25A9.65,9.65,0,0,1,98,84.84a.43.43,0,0,1-.09-.47.43.43,0,0,1,.38-.28l5.08-.32a1.37,1.37,0,0,0,.89-2.34l-.32-.31a.09.09,0,0,1,0-.1.08.08,0,0,1,.08,0l.88-.06a1.33,1.33,0,0,0,1-.54,1.42,1.42,0,0,0,.25-1.13,3.88,3.88,0,0,1-.07-1.52.47.47,0,0,1,.13-.24l1.71-1.71a3.28,3.28,0,0,0-.38-5,3.27,3.27,0,0,0-2.69-.55l-3.09.72a.44.44,0,0,1-.5-.22,3,3,0,0,0-4.68-.64L93,73.65a.15.15,0,0,1-.18,0,.14.14,0,0,1-.07-.17l.41-1.27a2.75,2.75,0,0,0-.51-2.61,2.78,2.78,0,0,0-2.48-1,.43.43,0,0,1-.4-.16A4.3,4.3,0,0,0,88,67.18a1.38,1.38,0,0,0-1.29.14,1.39,1.39,0,0,0-.6,1.14,4.53,4.53,0,0,1-.93,2.74,9.37,9.37,0,0,0-1.77-1.07.76.76,0,0,0-1,.33,18,18,0,0,0-2.07,7,2.31,2.31,0,0,0,.08.79A13.26,13.26,0,0,1,78.9,88.72a15.42,15.42,0,0,0-6.52,1.61V75.78A20.51,20.51,0,0,1,85.15,65.61a2.5,2.5,0,0,0,.28-3.9.12.12,0,0,1,0-.1.12.12,0,0,1,.08,0,5.55,5.55,0,0,0,3.15-6.18,1.37,1.37,0,0,1,.13-.89A5.85,5.85,0,0,0,88.65,49a1.38,1.38,0,0,0-1.77-.56,4.62,4.62,0,0,0-1.69,1.31.45.45,0,0,1-.52.13,3,3,0,0,0-3.34.85s0,0-.06,0a.09.09,0,0,1-.07,0,2,2,0,0,0-3.14.46L76.73,53.4a.08.08,0,0,1-.11,0,.07.07,0,0,1-.05-.09,10.83,10.83,0,0,0-.46-4.16A1.37,1.37,0,0,1,76.29,48a3.66,3.66,0,0,0-2.48-5.69.08.08,0,0,1-.07-.07,6.76,6.76,0,0,0-1-3Z"/></g></g></svg>