<svg xmlns="http://www.w3.org/2000/svg" viewBox="0 0 141.2 141.2"><defs><style>.cls-1{fill-rule:evenodd;}.cls-2{fill:none;}</style></defs><g id="Calque_2" data-name="Calque 2"><g id="Layer_1" data-name="Layer 1"><path class="cls-1" d="M70.79,42.39c-7.67,6-12.11,5.3-15.9,2.46s-7.15-8.21-12.53-10.93c11.74-6.87,24.74-5.67,28.76,6.22a16.27,16.27,0,0,1,3.1-6.47.85.85,0,0,1,1.35,1A16.73,16.73,0,0,0,74,37.24a18.26,18.26,0,0,1,9.72,10.9c5-9.14,16.79-9.58,27.49-3.32C104.88,48,101.53,54.69,96.56,57a20,20,0,0,0-6.37-1.13,1.19,1.19,0,0,0-.46.1,1.21,1.21,0,0,0-.08-.35l.75-1.79a1,1,0,0,0-.94-1.42H87.54a2.56,2.56,0,0,0-.23-.27l-.28-.3c1.09-.46,2.17-.94,3.28-1.37a34.58,34.58,0,0,1,6.23-1.85,35.1,35.1,0,0,0-8.46,1.25c-.57.15-1.13.31-1.69.48-.27.09-.54.15-.8.24a14.65,14.65,0,0,0-1.43-.93l.09.33a.87.87,0,0,1-.2.79,12.68,12.68,0,0,1,2.52,2c.09.11.26.32.46.6h2.43l-.94,2.23.13.24a19.43,19.43,0,0,1,1.58,9.26c0,.08,0,.19,0,.32l2.09,1.8-2.38,1.18q0,.15,0,.24a60.64,60.64,0,0,1-3.51,12.75s0,.08,0,.14L87.91,84l-2.75.56c0,.12-.09.22-.13.3-.93,2.17-2,4.39-3.1,6.62-2,3.85-2.44,9.28-4.43,13.56l-.12.24,1.06,2.63-2.69,0c-.09.14-.17.24-.23.32a10.23,10.23,0,0,1-5.89,3.33c-3.73.2-8.31-5.39-12-13,0-.08-.09-.18-.14-.3l-3.37-.68,1.83-2.71-.11-.26a70.13,70.13,0,0,1-4.58-15.9c0-.09,0-.21,0-.36L48,76.9l2.74-2.56c0-.12,0-.23,0-.31-.39-7.22,1-14,4.87-18.78l.17-.19-.74-3,3.31.52c.1-.1.2-.17.27-.23a19.78,19.78,0,0,1,7.89-3.43c-3.39,3.5-4.68,8.83-4.37,14.67a.85.85,0,0,0,.89.81.87.87,0,0,0,.81-.9c-.34-6.36,1.28-12.11,5.92-15,.53-.05,1-.09,1.54-.11A19.62,19.62,0,0,1,70.79,42.39ZM51.14,61.51a34.79,34.79,0,0,0-1.42,12.41l-2.39,2.24a1,1,0,0,0-.31.91,1,1,0,0,0,.59.77L50.24,79a71.2,71.2,0,0,0,4.52,15.71L53.25,97a1,1,0,0,0-.1,1,1,1,0,0,0,.74.61l2.87.58.54,1.07c-2,2.39-3.73,5.53-6,7.78l-.16.15.06,2.34-2.08-.8a1.59,1.59,0,0,1-.27.17,8.32,8.32,0,0,1-5.53.87c-2.95-.92-4.87-6.59-5.56-13.52,0-.07,0-.17,0-.28l-2.41-1.5,2.21-1.57a2,2,0,0,1,0-.23A57.56,57.56,0,0,1,38.58,80c0-.07,0-.17.06-.29l-2-2,2.86-1.19.07-.25c1.8-5.7,4.82-10.56,9.24-13.13L49,63l.3-2.53Zm39-4.59,0,.1c4.12,2.26,6.31,6.26,6.7,11.89a.85.85,0,1,1-1.7.11c-.29-4.21-1.69-7.42-4.33-9.51a24.74,24.74,0,0,1,.39,5.55L93,66.54a1,1,0,0,1,.35.9,1,1,0,0,1-.56.78l-1.89,1a61.81,61.81,0,0,1-3.38,12.31l1.28,1.9A1,1,0,0,1,88.11,85l-2.22.45c-.92,2.14-1.94,4.31-3,6.49a15,15,0,0,0-.62,1.41l.72,1.1c2,3,3,7.57,5.13,11a2.12,2.12,0,0,0,.13.2l-.63,2.32,2.26-.3a2.8,2.8,0,0,0,.23.24,8.64,8.64,0,0,0,5.31,2.2c3.16-.21,6.45-5.39,8.81-12.14q0-.11.09-.27L107,96.7l-1.81-2.09c0-.09,0-.17.06-.23a59.69,59.69,0,0,0,2.24-13.87V80.2L110,78.68l-2.57-1.88a2.54,2.54,0,0,1,0-.26c-.42-6.13-2.25-11.7-6-15.33l-.17-.15.31-2.59-2.73.77-.25-.16A17.51,17.51,0,0,0,90.17,56.92ZM47,94.7l.76,4a.87.87,0,0,0,.51.62.84.84,0,0,0,.8-.07L52.41,97a.86.86,0,0,0,.24-1.19.85.85,0,0,0-1.18-.24l-2.32,1.53-.52-2.73A.86.86,0,0,0,47,94.7ZM94,92.47l-1.2,2.63-2-2.11a.85.85,0,0,0-1.21,0,.86.86,0,0,0,0,1.21l2.84,3A.85.85,0,0,0,93.85,97l1.73-3.79a.86.86,0,0,0-.43-1.13A.84.84,0,0,0,94,92.47Zm-26.91-.75,2.55,4.18a.84.84,0,0,0,.69.41.86.86,0,0,0,.73-.35L74,92a.85.85,0,1,0-1.38-1l-2.13,2.94-1.89-3.1a.85.85,0,1,0-1.45.89ZM42.05,83.45l.76,4a.89.89,0,0,0,.51.62.87.87,0,0,0,.8-.07l3.39-2.24a.85.85,0,1,0-.94-1.42l-2.32,1.53-.52-2.73a.86.86,0,1,0-1.68.32Zm59.58-1-1.19,2.62-2-2.11a.85.85,0,0,0-1.24,1.16l2.83,3a.85.85,0,0,0,1.4-.23l1.72-3.79a.85.85,0,0,0-.42-1.13A.86.86,0,0,0,101.63,82.44ZM56.8,81.06l2.55,4.19a.86.86,0,0,0,.69.41.83.83,0,0,0,.72-.35l2.89-4a.85.85,0,1,0-1.38-1l-2.13,2.93-1.89-3.09a.86.86,0,0,0-1.17-.29A.85.85,0,0,0,56.8,81.06Zm14.65-6.13L74,79.11a.85.85,0,0,0,1.42.06l2.88-4A.85.85,0,0,0,78.11,74a.86.86,0,0,0-1.19.19l-2.13,2.93L72.9,74a.85.85,0,1,0-1.45.89Zm-14-4.47.76,4a.84.84,0,0,0,1.3.55l3.39-2.23A.85.85,0,1,0,62,71.34l-2.32,1.53-.52-2.73a.85.85,0,1,0-1.67.32Zm-7.7-10.89a7.67,7.67,0,0,0-1.64-1.38,42.07,42.07,0,0,0-4.9-2.78A36.24,36.24,0,0,1,48.07,57c1.06.43,2.09.89,3.1,1.41.33.18.68.32,1,.52a20.9,20.9,0,0,1,2.42-4C50.62,47.33,40.58,45,30,48c6.5,5.72,7.38,15.43,14.45,17.2A17,17,0,0,1,48,62.35l.24-2a1,1,0,0,1,1.52-.76Zm19,.24L71.28,64a.85.85,0,0,0,1.42.06l2.88-4a.84.84,0,0,0-.19-1.19.85.85,0,0,0-1.19.19L72.07,62l-1.88-3.09A.87.87,0,0,0,69,58.64.86.86,0,0,0,68.73,59.81Zm4.56-21A15.83,15.83,0,0,0,73,48.09a.75.75,0,0,1,0,.2A22.43,22.43,0,0,1,82.47,50,16.81,16.81,0,0,0,73.29,38.81ZM71,40.59a11.29,11.29,0,0,0-1.33-.5c-.7-.24-1.41-.46-2.12-.66A42.33,42.33,0,0,0,57,37.75a43,43,0,0,1,7.88,2.12c1.69.62,3.34,1.34,5,2.07a5.44,5.44,0,0,0,.5.22.58.58,0,0,0,.18,0,.46.46,0,0,0,.2,0h0A14,14,0,0,1,71,40.59Z"/><rect class="cls-2" width="141.2" height="141.2" rx="70.6"/></g></g></svg>