<svg xmlns="http://www.w3.org/2000/svg" viewBox="0 0 141.2 141.2"><defs><style>.cls-1{}.cls-2{fill:none;}</style></defs><g id="Calque_2" data-name="Calque 2"><g id="Layer_1" data-name="Layer 1"><path class="cls-1" d="M53.16,108.15c-11.09,0-20.11-7.71-20.11-17.18,0-5.12,2.66-11.41,6.77-16a7.05,7.05,0,0,0,1.81-4.71v-15A11.38,11.38,0,0,1,45,47.14,11.54,11.54,0,0,1,64.7,55.26v15a7.07,7.07,0,0,0,1.81,4.71,27.61,27.61,0,0,1,2.39,3.11l2.24-1.49a31.92,31.92,0,0,0-2.63-3.41,4.42,4.42,0,0,1-1.13-2.92v-15a14.18,14.18,0,0,0-9.93-13.51,4.06,4.06,0,0,1,3.76-3.34,1.34,1.34,0,0,0,1.34-1.34V31.71a1.35,1.35,0,0,0-1.34-1.35,13.44,13.44,0,0,0-12.31,8.9l2.49,1a11,11,0,0,1,8.48-7.1v2.74a7,7,0,0,0-5,5.31,14.27,14.27,0,0,0-11.71,4.05,14.07,14.07,0,0,0-4.16,10v15a4.47,4.47,0,0,1-1.13,2.93c-4.6,5.16-7.46,12-7.46,17.81,0,11,10.23,19.87,22.8,19.87A25.48,25.48,0,0,0,64.92,108l-1.25-2.38A22.6,22.6,0,0,1,53.16,108.15Z"/><path class="cls-1" d="M61.37,58.11V55.26a23.21,23.21,0,0,0-.76-6L58,49.91a20.49,20.49,0,0,1,.67,5.35v2.85Z"/><path class="cls-1" d="M60.68,77.19l2.52-.94c-.37-1-.76-1.91-1.17-2.78a7.83,7.83,0,0,1-.66-3.24V61H58.69v9.19a10.54,10.54,0,0,0,.91,4.39C60,75.42,60.35,76.29,60.68,77.19Z"/><path class="cls-1" d="M42.61,77.72A44.2,44.2,0,0,0,40.38,91a28.7,28.7,0,0,0,1.89,10.47l2.5-1A26,26,0,0,1,43.06,91a41.59,41.59,0,0,1,2.1-12.41Z"/><rect class="cls-1" x="44.67" y="58.11" width="2.68" height="8.63"/><path class="cls-1" d="M47.51,52.57l-2.66-.32a25.2,25.2,0,0,0-.18,3h2.68A24.12,24.12,0,0,1,47.51,52.57Z"/><rect class="cls-1" x="54.68" y="86.69" width="2.68" height="2.85"/><rect class="cls-1" x="48.96" y="95.24" width="2.68" height="2.85"/><path class="cls-1" d="M94.07,77.31H91.69l0-.26a4.63,4.63,0,0,1,0-.65,4.47,4.47,0,0,1,4.47-4.46,1.34,1.34,0,0,0,1.34-1.34V65.24a1.34,1.34,0,0,0-1.34-1.35,14.76,14.76,0,0,0-14.27,11l2.6.68a12.06,12.06,0,0,1,10.33-8.93v2.73a7.17,7.17,0,0,0-5.82,7c0,.31,0,.61.06.91H78.65a16.77,16.77,0,1,0,0,33.53H94.07a16.77,16.77,0,1,0,0-33.53ZM78.65,108.15a14.08,14.08,0,1,1,0-28.16h.67a10.55,10.55,0,0,0-2.14,2.61L79.5,84a7.91,7.91,0,0,1,14.77,4v12.34a7.91,7.91,0,0,1-15.82,0V87.9a7.35,7.35,0,0,1,.11-1.32l-2.65-.44a10.37,10.37,0,0,0-.15,1.76v12.34a10.56,10.56,0,0,0,3.56,7.91Zm15.42,0h-.68A10.53,10.53,0,0,0,97,100.24V87.9A10.54,10.54,0,0,0,93.39,80h.68a14.08,14.08,0,1,1,0,28.16Z"/><path class="cls-1" d="M85.77,87.3l-1-.94-.95-1a6.55,6.55,0,0,0-1.94,4h2.69A4.06,4.06,0,0,1,85.77,87.3Z"/><rect class="cls-1" x="81.93" y="92.53" width="2.68" height="9.25"/><path class="cls-1" d="M104.64,89.18l-2.63.53c.39,2,.93,7.48-1.18,9.58l1.9,1.9c1.54-1.54,2.32-4.07,2.32-7.51A25.19,25.19,0,0,0,104.64,89.18Z"/><rect class="cls-2" width="141.2" height="141.2" rx="70.6"/></g></g></svg>