<svg xmlns="http://www.w3.org/2000/svg" viewBox="0 0 141.2 141.2"><defs><style>.cls-1{fill:none;}.cls-2{}</style></defs><g id="Calque_2" data-name="Calque 2"><g id="Layer_1" data-name="Layer 1"><rect class="cls-1" width="141.2" height="141.2" rx="70.6"/><path class="cls-2" d="M54.1,27.31a4.59,4.59,0,0,0-1.66.33c-8,4.66,5.9,10.09.16,14.78-3.21,2.95-9.46-7-13-2a5,5,0,0,0-.84,2.16c0,1.53,2.33,1.62,6.35,4.08,3.68,2.8,7,2.79,9.52,1.33a59.06,59.06,0,0,1,8.12,13.66c-4,10.21-5,21-6.59,31.66-.92-7.54-2.06-15-5.36-21.88q2.48-3.57,5.36-7.09a56.18,56.18,0,0,0-6.38,5.11,36.82,36.82,0,0,0-6.82-8.81c1.57,3.75,3,7.52,4.27,11.34a50,50,0,0,0-7.58,10.51,40.56,40.56,0,0,0-3.86-5,10.34,10.34,0,0,0,2.51-11.15c-3-7.2-2.41-9.42-6.07-8.16-8.06,4.66,5.9,10.1.16,14.78-3.21,3-9.46-7-13-2a4.9,4.9,0,0,0-.84,2.16c0,1.53,2.33,1.62,6.35,4.08,3.38,2.58,6.48,2.79,8.91,1.68A32.07,32.07,0,0,1,38.31,85,66.32,66.32,0,0,0,33,103H32.4c-1.85-4.69-3.57-9.45-8.94-12.39,3.81,3.78,5.55,8,6.89,12.39H28.6v10.94h80.94V103H107.1c.68-14.8,2.37-29.5,15.63-43.12-9,7.58-18.49,14.58-20.43,30.89-.52-8.46-2.1-15.51-4.66-21.24,3.56-9.15,9.37-18.76,19.78-29.28-8.86,6.88-17.79,13.72-23.74,22.45a30.09,30.09,0,0,0-10.85-9.1A34.47,34.47,0,0,1,91.74,65.8a38.41,38.41,0,0,0-4.89,15.27c-.47-10.57-5.57-19.22-11.1-27.68C80,63,83.33,72.59,83.31,82.2,81.24,88.7,77.59,92,74,95.39c-.85-5.34-1.6-10.71-2.58-16a23.15,23.15,0,0,1,2.74-3,28.46,28.46,0,0,0-3,1.62,95.9,95.9,0,0,0-4.49-16.4,50.41,50.41,0,0,1,9.49-15.28,10.26,10.26,0,0,0,9.22.29c7-3.51,9.24-3,7.73-6.6-5.18-7.73-9.67,6.56-14.73,1.14-3.16-3,6.37-9.9,1.14-13.14a5,5,0,0,0-2.21-.7c-1.53.08-1.46,2.44-3.65,6.62-2.83,4.25-2.27,7.89-.16,10.33a52.38,52.38,0,0,0-8.8,12.79,56.11,56.11,0,0,0-7.37-11.62,10.34,10.34,0,0,0,1.19-9.65C56.05,30,56,27.39,54.1,27.31Zm30,3.52c-1.77-.06-1.85,3.46-2.69,4.54C80.32,36.81,78.51,39,80,40.15s4.55-1.79,5.63-3.3,5.15-.41.91-4.55A4,4,0,0,0,84.13,30.83ZM47,32c-.52,0-1.33.47-2.71,1.7A4.15,4.15,0,0,0,42.66,36C42.48,37.75,46,38.06,47,39c1.37,1.21,3.4,3.16,4.68,1.73S50.21,36,48.77,34.86C47.78,34.05,48.12,31.92,47,32ZM26.74,62.44c-.51,0-1.32.47-2.7,1.71-1.11,1-1.58,1.73-1.63,2.32-.18,1.77,3.33,2.08,4.35,3,1.37,1.21,3.39,3.16,4.68,1.74S30,66.54,28.52,65.36C27.53,64.55,27.87,62.41,26.74,62.44Zm38,4.63a86.72,86.72,0,0,1,3.15,13.35A28.41,28.41,0,0,0,59.5,94.26C61.3,85.2,62.11,76,64.76,67.07ZM48.21,75.3a78,78,0,0,1,3.08,17,10.45,10.45,0,0,0-3.7-6A42.43,42.43,0,0,0,50,103H46.75A51.55,51.55,0,0,0,42.17,87,77,77,0,0,1,48.21,75.3ZM95,77.67c1.27,8.34,1.15,17,2.72,25.28H90.17C91.72,94.53,92.64,86.24,95,77.67ZM68.47,84.31c.83,6.29,1.27,12.55,1.85,18.64H64.05C65.13,96.55,65.89,90,68.47,84.31ZM40.85,90.59A94.58,94.58,0,0,1,44,103H38.09A57.69,57.69,0,0,1,40.85,90.59Z"/></g></g></svg>