<svg xmlns="http://www.w3.org/2000/svg" viewBox="0 0 141.2 141.2"><defs><style>.cls-1{fill:none;}.cls-2{}</style></defs><g id="Calque_2" data-name="Calque 2"><g id="Layer_1" data-name="Layer 1"><rect class="cls-1" width="141.2" height="141.2" rx="70.6"/><path class="cls-2" d="M104.68,77.63c0-.17,0-.36,0-.6s0-.55-.07-1.14c-.11-1.57-.32-4.48-.26-5.56a25.34,25.34,0,0,0-.9-7.53h0a1.07,1.07,0,0,0,.41-2,5,5,0,0,1-1.22-1h0A1.33,1.33,0,0,0,102.7,58a7.23,7.23,0,0,0-.88-.87,9.15,9.15,0,0,1-1-.91A24.67,24.67,0,0,0,93,46.92a.92.92,0,0,0,.09-.56C93,45.52,91.78,45,91,44.83l-.66-.11a1,1,0,0,0,.08-.44.91.91,0,0,0-.52-.77,1.74,1.74,0,0,0-1.16,0,7.65,7.65,0,0,1-2,.11,1,1,0,0,0,0-.56c-.09-.25-.43-.83-1.68-.71a17,17,0,0,1-2.33-.15C82,42.11,81.15,42,80.25,42h0a74.94,74.94,0,0,0-15.84-.4h0a26.15,26.15,0,0,0-4.42.32c-5.43.91-10.94,4.27-13.08,5.9a1.05,1.05,0,0,0-.4-.19c-.71-.13-1.41.55-1.79,1.17h0A6.59,6.59,0,0,0,44,50.34a1.21,1.21,0,0,0-.75-.29h0c-1.35,0-1.68,1.56-1.86,2.4h0a5.79,5.79,0,0,0-.15,1.31,1.11,1.11,0,0,0-.82.05c-.87.38-.95,1.54-.91,2.38a1.36,1.36,0,0,0-.7.26c-.71.51-1,1.7-.81,3.63v.07a8.8,8.8,0,0,1-.4,2.88c-.15.56-.33,1.27-.51,2.23,0,.1,0,.22-.07.34a19.84,19.84,0,0,0-.11,8.12,25,25,0,0,0,1.07,3.81,1.25,1.25,0,0,0-.6.6,1.52,1.52,0,0,0,.12,1.45,3.55,3.55,0,0,0,.76.88,1.26,1.26,0,0,0-.25.47c-.26.9.43,2.19,1.37,3.1a.92.92,0,0,0-.21.39c-.28,1,1.12,2,1.58,2.29A9.68,9.68,0,0,1,43,88.78a30.34,30.34,0,0,0,6.46,5.84c4.64,3,9.13,3.94,14.44,4.34a8.55,8.55,0,0,0,.88,0,.92.92,0,0,0,.16.48,1.12,1.12,0,0,0,1,.42,2,2,0,0,0,.83-.18,6.35,6.35,0,0,1,2.08-.61.79.79,0,0,0,.26.47c.61.59,2.19.21,3.17-.17l.1.1c.59.52,1.77.42,2.86-.22a75.88,75.88,0,0,0,12.65-2.22h0a1.23,1.23,0,0,0,.56.52,1.27,1.27,0,0,0,1.51-.31,10,10,0,0,1,2.28-1.73c.33-.21.65-.41.92-.6a1.05,1.05,0,0,0,.27.2,1.8,1.8,0,0,0,2.06-.89c.36-.6,1.3-2,2.78-4.1,0-.06,1.22-1.68,1.71-2.37a13.74,13.74,0,0,0,1.72-4h0a1.4,1.4,0,0,0,.45.1,1.11,1.11,0,0,0,.91-.43,1.72,1.72,0,0,0,.1-1.56,1.4,1.4,0,0,0,.65-.25,1,1,0,0,0,.45-1c0-.32-.18-1-.31-1.63l.11,0c.79-.16.74-.89.7-1.37Zm-31.46,21a.59.59,0,0,0-.29-.6.63.63,0,0,0-.67,0,6.41,6.41,0,0,1-2.14.63.64.64,0,0,0-.06-.57.61.61,0,0,0-.5-.26h0a7.27,7.27,0,0,0-3.31.74l0,0a.61.61,0,0,0,0-.6.6.6,0,0,0-.53-.29l-.24,0h0a7.79,7.79,0,0,1-1.45,0c-5.13-.39-9.46-1.24-13.89-4.15l0,0A28.43,28.43,0,0,1,43.91,88a11.36,11.36,0,0,0-2.53-2.31,3.32,3.32,0,0,1-1.05-.94l.16,0A.61.61,0,0,0,41,84.3a.61.61,0,0,0-.26-.66,3.31,3.31,0,0,1-1.66-2.39.52.52,0,0,1,.21,0A.66.66,0,0,0,40,80.7a.65.65,0,0,0-.36-.74,2.8,2.8,0,0,1-1.13-1,.38.38,0,0,1-.07-.31s0-.05.09-.06a.82.82,0,0,0,.62-.41.88.88,0,0,0,.06-.76,23.12,23.12,0,0,1-1.13-3.92,18.7,18.7,0,0,1,.1-7.67c0-.12.05-.24.07-.34.18-.93.35-1.59.5-2.16a10.27,10.27,0,0,0,.43-3.21,1,1,0,0,0,0-.14c-.19-2.13.26-2.53.32-2.56s.32,0,.44,0h0a.59.59,0,0,0,.57-.06.61.61,0,0,0,.26-.5,1.11,1.11,0,0,0,0-.19c-.19-1.6.13-1.81.13-1.81s.46.35.83,1.23a.6.6,0,0,0,.76.38.61.61,0,0,0,.38-.76,4.79,4.79,0,0,1-.3-3.06c.16-.74.35-1.43.68-1.45a1.54,1.54,0,0,1,.43,1.08h0a.6.6,0,0,0,.59.53h0a.59.59,0,0,0,.59-.52,6.65,6.65,0,0,1,.91-2.94,2.38,2.38,0,0,1,.44-.51.58.58,0,0,0,.41.38.57.57,0,0,0,.55-.12,32.13,32.13,0,0,1,13-6.07c5.28-.89,13.75.13,18.8,3.36l.39.25a17.19,17.19,0,0,0,3.52,1.92c1.4.46,2.14.88,2.23,1.25,0,.2-.21.48-.36.63a.61.61,0,0,0,0,.82,1.33,1.33,0,0,0,.52.31A7.11,7.11,0,0,1,88.33,54l-.52-.11a.66.66,0,0,0-.84.27h0a.61.61,0,0,0,.13.73l.26.22c.49.44,1.41,1.25,2.19,2.08,1.06,1.13,1.19,1.62,1.21,1.75a1.36,1.36,0,0,1-.29.06.57.57,0,0,0-.45.27.59.59,0,0,0-.06.52l.5,1.41a32.27,32.27,0,0,1,1.38,4.51,34.41,34.41,0,0,1,.82,9.14h0A20,20,0,0,0,93,80.34a3.91,3.91,0,0,1,.13,1.18.6.6,0,0,1-.09.15,2.05,2.05,0,0,1-.6-.48h0a.76.76,0,0,0-.89-.16.78.78,0,0,0-.45.79A11.18,11.18,0,0,1,91,84.44a7.6,7.6,0,0,0-.1,1.07,1,1,0,0,1-.14-.22.63.63,0,0,0-.54-.32.59.59,0,0,0-.53.32C86.59,91.16,84,94.45,78.37,96.15a10.18,10.18,0,0,0-3,1.55l-.72.48a2.36,2.36,0,0,1-1.42.43Zm30.2-20.94a.59.59,0,0,0-.69,0,.62.62,0,0,0-.26.64c.21.9.44,2,.5,2.43a.51.51,0,0,1-.34,0,.72.72,0,0,0-.8.14.69.69,0,0,0-.15.8,3.46,3.46,0,0,1,.33,1h0a.69.69,0,0,1-.24-.18.63.63,0,0,0-.59-.24.61.61,0,0,0-.47.42l-.09.31a14,14,0,0,1-1.71,4.11c-.47.69-1.68,2.34-1.7,2.36-1.5,2.09-2.46,3.57-2.84,4.19h0a.81.81,0,0,1-.29.29v0a.59.59,0,0,0-.31-.76.6.6,0,0,0-.78.28,5.6,5.6,0,0,1-1.48,1.11,11.26,11.26,0,0,0-2.55,2s0,0-.08,0,0,0,0-.07v0a.62.62,0,0,0-.2-.58.6.6,0,0,0-.59-.11,56.75,56.75,0,0,1-10.59,2.1,7.84,7.84,0,0,1,1.24-.5c5.79-1.75,8.55-5,11.6-10.69a1.29,1.29,0,0,0,1.08.19,1.08,1.08,0,0,0,.67-1.28,7,7,0,0,1,.09-.92,17.93,17.93,0,0,0,.18-1.94,1.3,1.3,0,0,0,.92.2,1.34,1.34,0,0,0,1-.86,3.44,3.44,0,0,0-.06-1.91h0a18.3,18.3,0,0,1-.3-5.12A36,36,0,0,0,93,65.5a31.83,31.83,0,0,0-1.44-4.68c-.09-.27-.19-.53-.28-.78a1.13,1.13,0,0,0,.6-.67c.3-.9-.48-2.12-2.73-4.21a1,1,0,0,0,.39-.3,1.13,1.13,0,0,0-.11-1.31,7.83,7.83,0,0,0-3.34-2.85h0a1.54,1.54,0,0,0,.18-1.11c-.28-1.21-2.06-1.8-3-2.12A17,17,0,0,1,80,45.69l-.4-.26a23.36,23.36,0,0,0-7.09-2.88,61.89,61.89,0,0,1,7.53.6h.08c.89.06,1.72.14,2.45.22a16.52,16.52,0,0,0,2.56.14h.16a.61.61,0,0,0-.18.56.59.59,0,0,0,.38.44l.13.06h0a1.76,1.76,0,0,0,.49.16,7.46,7.46,0,0,0,2.58,0,.59.59,0,0,0,.32,1c.56.14,1.12.25,1.75.36a2.33,2.33,0,0,1,1,.42l0,0a.59.59,0,0,0-.36.51.61.61,0,0,0,.29.55,22.94,22.94,0,0,1,8.15,9.32l.09.13A13.9,13.9,0,0,0,101,58a5.74,5.74,0,0,1,.75.73.14.14,0,0,1,0,.14s0,.06-.09.07h-.06a.61.61,0,0,0-.45.28.62.62,0,0,0,0,.53l.08.21h0a.53.53,0,0,0,.13.2,11,11,0,0,0,1.5,1.41l-.19,0h0a.57.57,0,0,0-.53.21.61.61,0,0,0-.12.55,24.25,24.25,0,0,1,1.08,7.92c-.06,1.15.14,4,.26,5.7,0,.54.07,1,.07,1.1s0,.47,0,.65l-.06,0Z"/><path class="cls-2" d="M57.64,51.27a1.68,1.68,0,0,1,0,.2h0a.73.73,0,0,0,.4.74.72.72,0,0,0,.82-.14,6.93,6.93,0,0,1,1.42-1l.24-.15h0a.56.56,0,0,0,.25.4.58.58,0,0,0,.46.1,30.71,30.71,0,0,1,3.17-.49.59.59,0,0,0,.41-.21.63.63,0,0,0,.14-.44.6.6,0,0,0-.22-.41.58.58,0,0,0-.44-.13,25.48,25.48,0,0,0-2.53.36,1,1,0,0,0-.41-.59.91.91,0,0,0-1.2.21,5.14,5.14,0,0,1-.49.32c-.26.16-.58.35-.9.58h0a1,1,0,0,0-.27-.41,1.1,1.1,0,0,0-1-.18c-.1,0-.43.1-1.09.9h0a12.23,12.23,0,0,1-2.55,2.32.6.6,0,0,0,.68,1,13.48,13.48,0,0,0,2.8-2.53,4.89,4.89,0,0,1,.37-.41Z"/><path class="cls-2" d="M45.62,75.26a11,11,0,0,1-.34-1.8c0-.1,0-.21,0-.32a11.6,11.6,0,0,0-.49-2.73c-.43-1.17-.37-1.46-.32-1.53h0a.58.58,0,0,1,.32,0,.61.61,0,0,0,.66-.49,1,1,0,0,0-.06-.49,5.1,5.1,0,0,1-.16-2.08.58.58,0,0,0,.64.3.59.59,0,0,0,.48-.56s0-.14,0-.23a9.82,9.82,0,0,1,.43-3.17h0a.6.6,0,0,0,.84-.85,1.12,1.12,0,0,0-1.23-.39c-.66.25-1,1.14-1.17,3.17H45c-.26,0-.61.15-.82.74a5.5,5.5,0,0,0-.13,2.92,1.2,1.2,0,0,0-.59.4c-.54.69-.22,1.75.13,2.69a11.09,11.09,0,0,1,.43,2.45l0,.32h0a13.31,13.31,0,0,0,.38,2,.6.6,0,0,0,.73.43.62.62,0,0,0,.43-.74Z"/><path class="cls-2" d="M72.53,86.84c-.57.3-1,.49-1.35.65a7,7,0,0,0-1.94,1.17l-.08.07c-.81.78-1.2.87-1.29.88h0a.61.61,0,0,1-.05-.12h0l0-.07s0,0,0,0l0-.05,0,0h0l0,0h0s-.06-.06-.1-.09l0,0-.06,0,0,0-.06,0h-.17l-.08,0h0l-.07,0,0,0s0,0,0,0l-.06,0h0l-.11.1h0a3.32,3.32,0,0,1-.67.57,2.66,2.66,0,0,1,.26-.6.61.61,0,0,0-1-.65c-.67,1-.89,1.14-1.42,1.41a3.34,3.34,0,0,1-.76.3h0a1.22,1.22,0,0,1,.31-.43.61.61,0,0,0,0-.8.59.59,0,0,0-.78-.14,4.35,4.35,0,0,1-1.87.75h-.19a.59.59,0,0,0-.36-.61.6.6,0,0,0-.69.16.91.91,0,0,0-.19,1.08,1.54,1.54,0,0,0,1.57.55,5.13,5.13,0,0,0,1-.21,1.2,1.2,0,0,0,.18.38,1.18,1.18,0,0,0,1,.46,3.26,3.26,0,0,0,1.37-.43h0c.21-.11.42-.23.62-.36a1,1,0,0,0,.34.29,1.6,1.6,0,0,0,1.74-.45,1.2,1.2,0,0,0,.39.2,1.12,1.12,0,0,0,.32,0A3.48,3.48,0,0,0,70,89.6l0,0a5.93,5.93,0,0,1,1.65-1c.36-.16.82-.37,1.41-.68h0a.6.6,0,0,0-.56-1.06Z"/><path class="cls-2" d="M82.7,73.86a.67.67,0,0,0-.46.08.6.6,0,0,0-.26.38,8,8,0,0,0-.15,2.39,4,4,0,0,1,0,.6.63.63,0,0,0-.61,0,.61.61,0,0,0-.24.56,2.59,2.59,0,0,1-.37,1.63.63.63,0,0,0-.77-.13.64.64,0,0,0-.33.71,1.66,1.66,0,0,1,0,.91.74.74,0,0,0-.54-.12.76.76,0,0,0-.57.38,15.41,15.41,0,0,1-1.58,2.25.63.63,0,0,0-.14.44.6.6,0,0,0,1,.34,16.22,16.22,0,0,0,1.51-2.08,1.06,1.06,0,0,0,.53,0,1.23,1.23,0,0,0,.86-.81,2.44,2.44,0,0,0,.15-.66l.25-.07a2.59,2.59,0,0,0,1.16-2l.2-.06c.8-.35.69-1.6.65-2h0a6.9,6.9,0,0,1,.13-2,.61.61,0,0,0-.45-.72Z"/><path class="cls-2" d="M71.66,52.73a7,7,0,0,0,2.16,1l.56.18a1.55,1.55,0,0,1,.63.37.63.63,0,0,0-.1.56.6.6,0,0,0,.43.39,4,4,0,0,1,1,.66.59.59,0,0,0,0,.81A5,5,0,0,0,77.9,58a.59.59,0,0,0,0,.78l.12.13a4.72,4.72,0,0,1,.61.73,29.18,29.18,0,0,1,1.78,2.87.6.6,0,1,0,1-.57,32.7,32.7,0,0,0-1.84-3,3.75,3.75,0,0,0-.27-.36,1.34,1.34,0,0,0,.12-.24,1.15,1.15,0,0,0-.72-1.27,4.35,4.35,0,0,1-1.06-.71.75.75,0,0,0,.09-.29c0-.66-.79-1.34-1.44-1.73,0-.64-.64-1.32-1.57-1.64l-.59-.18a6.08,6.08,0,0,1-1.83-.81.61.61,0,0,0-.83.16.59.59,0,0,0,.15.83Z"/><path class="cls-2" d="M56.09,87a3.54,3.54,0,0,1-2.26-.18.6.6,0,0,0-.84.73.59.59,0,0,0,.31.35,4.22,4.22,0,0,0,1.88.41,5.11,5.11,0,0,0,1.23-.15.6.6,0,0,0,.41-.74.6.6,0,0,0-.73-.42Z"/><path class="cls-2" d="M53.59,85.4a.59.59,0,0,0-.3-.34.57.57,0,0,0-.46,0,2.87,2.87,0,0,1-2.13-.49h0a.6.6,0,1,0-.6,1,4.62,4.62,0,0,0,2.32.69h0a2.44,2.44,0,0,0,.81-.11.6.6,0,0,0,.36-.77Z"/><path class="cls-2" d="M50.61,84a.6.6,0,0,0-.42-1.12,2.18,2.18,0,0,1-1.59-.55.64.64,0,0,0-.44-.11.61.61,0,0,0-.39.25.59.59,0,0,0,.13.83A3.63,3.63,0,0,0,50,84.1a2,2,0,0,0,.59-.09Z"/><path class="cls-2" d="M75,87a.63.63,0,0,0,.45,0,.61.61,0,0,0,.29-.36A5.46,5.46,0,0,0,76,84.79a.59.59,0,0,0-.23-.4.61.61,0,0,0-.45-.12.59.59,0,0,0-.4.23.6.6,0,0,0-.11.45,4.46,4.46,0,0,1-.18,1.29h0a.57.57,0,0,0,0,.46A.63.63,0,0,0,75,87Z"/><path class="cls-2" d="M67.65,52.16A.62.62,0,0,0,68,52a4,4,0,0,1,1.84-.73h0a.59.59,0,0,0,.53-.66.58.58,0,0,0-.65-.53,5.07,5.07,0,0,0-2.5,1h0a.61.61,0,0,0-.17.67.6.6,0,0,0,.56.39Z"/><path class="cls-2" d="M51.71,57.65a.58.58,0,0,0,.45-.2.61.61,0,0,0,.15-.48,2.24,2.24,0,0,1,.36-1.83l-.81-.89a3.26,3.26,0,0,0-.74,2.88h0a.59.59,0,0,0,.59.52Z"/><path class="cls-2" d="M49.46,59.83h0a.6.6,0,0,0,.6-.57,4.78,4.78,0,0,1,.36-1.81.6.6,0,0,0-.05-.84.61.61,0,0,0-.85,0,5.13,5.13,0,0,0-.66,2.55h0a.56.56,0,0,0,.16.43.58.58,0,0,0,.41.2Z"/><path class="cls-2" d="M47.26,78.34A3.91,3.91,0,0,1,46,77.85a.6.6,0,1,0-.61,1,5.39,5.39,0,0,0,1.64.64.61.61,0,0,0,.68-.5.61.61,0,0,0-.49-.69Z"/><path class="cls-2" d="M61.67,66.24a.6.6,0,0,0-.13.84.58.58,0,0,0,.83.13c.13-.09.61,0,1,.4a.9.9,0,0,1-.1,1.34.59.59,0,0,0,0,.83.59.59,0,0,0,.83,0,2.09,2.09,0,0,0,.12-3,2,2,0,0,0-2.55-.57Z"/><path class="cls-2" d="M62.53,74.52a.6.6,0,0,0,.69-.46.6.6,0,0,0-.45-.71s-3.34-.75-2.93-2.8h0a.62.62,0,0,0-.47-.71.61.61,0,0,0-.71.48c-.51,2.57,2.3,3.87,3.87,4.2Z"/><path class="cls-2" d="M60.59,67.28a.56.56,0,0,0-.43.16.62.62,0,0,0-.2.42c0,.77.28,2.29,1.68,2.5a.6.6,0,0,0,.18-1.19c-.68-.1-.66-1.26-.66-1.27h0a.59.59,0,0,0-.57-.62Z"/><path class="cls-2" d="M64.63,73.79a.6.6,0,0,0,.76.37,6.83,6.83,0,0,0,3.83-4c.54-1.51.79-3.94-1-7a.6.6,0,1,0-1,.63,6.86,6.86,0,0,1,1,5.94A5.61,5.61,0,0,1,65,73h0a.6.6,0,0,0-.37.77Z"/><path class="cls-2" d="M63.7,61.14a.6.6,0,0,0,.3.36.59.59,0,0,0,.84-.72A3.73,3.73,0,0,0,63.42,59h0a.6.6,0,0,0-.64,1,2.51,2.51,0,0,1,.92,1.16Z"/><path class="cls-2" d="M58.76,59a.56.56,0,0,0-.35.29.57.57,0,0,0,0,.46.59.59,0,0,0,.77.39s.7-.22,1.25.71a.6.6,0,0,0,.82.22.61.61,0,0,0,.21-.83A2.32,2.32,0,0,0,58.76,59Z"/><path class="cls-2" d="M56.61,78.7c-4.27-3.17-4.81-7-4.51-9.59.41-3.68,2.59-6.5,4-7.12h0a.6.6,0,0,0-.48-1.1c-1.93.85-4.27,4.18-4.72,8.09-.47,4.15,1.3,7.94,5,10.68a.6.6,0,0,0,.84-.12.65.65,0,0,0,.11-.45.61.61,0,0,0-.23-.39Z"/><path class="cls-2" d="M61.37,79.94a.56.56,0,0,0-.41-.22.6.6,0,0,0-.44.13,2.92,2.92,0,0,1-2.4.62.59.59,0,0,0-.47,0,.63.63,0,0,0-.32.34.61.61,0,0,0,0,.46.58.58,0,0,0,.34.31,2.8,2.8,0,0,0,1,.18,4.54,4.54,0,0,0,2.6-1,.56.56,0,0,0,.22-.4.58.58,0,0,0-.13-.44Z"/><path class="cls-2" d="M62.24,82.24h0a4.17,4.17,0,0,0,2.83-1.55.6.6,0,0,0-1-.73A2.92,2.92,0,0,1,62.21,81h0a.6.6,0,0,0,0,1.2Z"/><path class="cls-2" d="M75.62,70.13a.6.6,0,0,0-.67.52c-.51,3.78-3.68,8.58-7,9.08a.61.61,0,0,0-.51.64.6.6,0,0,0,.6.55h.09a8.64,8.64,0,0,0,5.33-3.77,14.68,14.68,0,0,0,2.67-6.34h0a.61.61,0,0,0-.12-.45.63.63,0,0,0-.4-.23Z"/><path class="cls-2" d="M81.34,66.22a.58.58,0,0,0-.1.44.59.59,0,0,0,.23.4,2.66,2.66,0,0,1,.84,1.07.6.6,0,1,0,1.09-.5,3.91,3.91,0,0,0-1.22-1.54.6.6,0,0,0-.84.13Z"/><path class="cls-2" d="M82.2,69.61a.65.65,0,0,0-.45-.11.56.56,0,0,0-.39.24.6.6,0,0,0,.13.84,2.53,2.53,0,0,1,.8,1,.6.6,0,0,0,1.09-.5,3.76,3.76,0,0,0-1.18-1.5Z"/></g></g></svg>