<svg xmlns="http://www.w3.org/2000/svg" viewBox="0 0 141.2 141.2"><defs><style>.cls-1{fill:none;}.cls-2{}</style></defs><g id="Calque_2" data-name="Calque 2"><g id="Layer_1" data-name="Layer 1"><rect class="cls-1" width="141.2" height="141.2" rx="70.6"/><path class="cls-2" d="M70.48,52.54,22.32,74v38.42h96.85V74.22Zm27.38,49.24v-.71a7.59,7.59,0,0,0,4.93-1.85c2-2,1.83-5.55,1.83-5.55s-3.47-.19-5.49,1.85a5.84,5.84,0,0,0-1.27,2V88a7.54,7.54,0,0,0,4.93-1.85c2-2,1.83-5.54,1.83-5.54s-3.47-.19-5.49,1.85a5.84,5.84,0,0,0-1.27,2V77.57c0-1-1.94-1-1.94,0V89.91a6.06,6.06,0,0,0-1.32-2.24c-2-2-5.5-1.84-5.5-1.84s-.19,3.51,1.83,5.54a7.6,7.6,0,0,0,5,1.85v8.56H71.71V93.66a7.62,7.62,0,0,0,5.05-1.84c2-2,1.83-5.55,1.83-5.55s-3.47-.19-5.49,1.85a5.92,5.92,0,0,0-1.39,2.38V80.6a7.69,7.69,0,0,0,5.05-1.85c2-2,1.83-5.55,1.83-5.55s-3.47-.2-5.49,1.85a5.86,5.86,0,0,0-1.39,2.38V70.79c0-1.93-1.94-1.93-1.94,0V82.2a5.4,5.4,0,0,0-1.22-1.92c-2-2-5.48-1.85-5.48-1.85s-.19,3.5,1.83,5.54a7.48,7.48,0,0,0,4.87,1.85v9.45a5.49,5.49,0,0,0-1.22-1.92c-2-2-5.48-1.85-5.48-1.85S62.88,95,64.9,97a7.55,7.55,0,0,0,4.88,1.85v2.89H26.19V76.54L70.48,56.78l44.81,20v25H97.86"/><path class="cls-2" d="M44.53,102.12v-.71a7.58,7.58,0,0,0,4.93-1.85c2-2,1.84-5.55,1.84-5.55s-3.47-.19-5.5,1.85a5.9,5.9,0,0,0-1.27,2V88.33a7.58,7.58,0,0,0,4.93-1.85c2-2,1.84-5.54,1.84-5.54s-3.47-.19-5.5,1.85a5.9,5.9,0,0,0-1.27,2V77.91c0-1-1.93-1-1.93,0V90.25A5.88,5.88,0,0,0,41.27,88c-2-2-5.49-1.84-5.49-1.84s-.19,3.51,1.83,5.54a7.57,7.57,0,0,0,5,1.85v8.56h1.93"/><path class="cls-2" d="M35.09,31.7A11.11,11.11,0,0,1,24,42.8,12.62,12.62,0,0,1,22,42.63V28.76H34.7a11,11,0,0,1,.39,2.94Z"/><path class="cls-2" d="M39.92,32.68H54.44c1.81,0,1.81-3.92,0-3.92H39.92C38.11,28.76,38.11,32.68,39.92,32.68Z"/><path class="cls-2" d="M22,46.43V61c0,1.8,3.92,1.8,3.92,0V46.43C26,44.63,22,44.63,22,46.43Z"/><path class="cls-2" d="M34.48,42.64,44.75,52.91c1.28,1.27,4-1.5,2.77-2.77L37.25,39.87C36,38.59,33.2,41.36,34.48,42.64Z"/></g></g></svg>