<svg xmlns="http://www.w3.org/2000/svg" viewBox="0 0 141.2 141.2"><defs><style>.cls-1{}.cls-2{fill:none;}</style></defs><g id="Calque_2" data-name="Calque 2"><g id="Layer_1" data-name="Layer 1"><path class="cls-1" d="M101.77,90.75a49.29,49.29,0,0,1-33.39,12.49,58.2,58.2,0,0,1-14.67-2.1,2.18,2.18,0,0,0-1.11,4.21h0a62.3,62.3,0,0,0,15.77,2.25A53.61,53.61,0,0,0,104.71,94a2.18,2.18,0,0,0-2.94-3.22Z"/><path class="cls-1" d="M25.19,75.89a2.18,2.18,0,1,0,3.67-2.34c-.56-.89-1.09-1.8-1.55-2.71a2.21,2.21,0,0,1,.52-2.78,2.1,2.1,0,0,1,2.71-.13c8.68,6.13,24.24,10.42,37.84,10.42,12.39,0,25.28-5.27,36.29-14.83a2.18,2.18,0,1,0-2.83-3.31l0,0C91.59,69.1,79.72,74,68.38,74c-12.58,0-27.44-4-35.33-9.62a6.47,6.47,0,0,0-8.07.39,6.56,6.56,0,0,0-1.55,8A35.25,35.25,0,0,0,25.19,75.89Z"/><path class="cls-1" d="M120,44.34A2.18,2.18,0,0,0,122.73,43a2.37,2.37,0,0,0,.11-.69V31.39a2.17,2.17,0,0,0-1.71-2.12l-19.6-4.36a2.17,2.17,0,0,0-2.59,1.65,2,2,0,0,0-.06.48V37.92a2.18,2.18,0,0,0,1.71,2.13l4.83,1.07v4.51c-10,8.47-21.62,13.12-32.68,13.12-12.52,0-27.29-4-35.21-9.53A6.52,6.52,0,0,0,31,48.43a6.63,6.63,0,0,0-3.42,8.73c.06.14.12.28.19.41a35.37,35.37,0,0,0,1.77,3.08,2.18,2.18,0,0,0,3.67-2.34c-.57-.89-1.09-1.8-1.56-2.72a2.21,2.21,0,0,1,.53-2.77,2.1,2.1,0,0,1,2.71-.13C43.57,58.82,59.14,63.1,72.74,63.1,85.13,63.1,98,57.84,109,48.27a2.18,2.18,0,0,0,.74-1.64V39.37a2.17,2.17,0,0,0-1.7-2.12l-4.83-1.07V29.75l15.24,3.39v6.12l-1.49-.5a2.18,2.18,0,0,0-2.75,1.38,2,2,0,0,0-.11.69V59.9a7.23,7.23,0,0,0-4.74,3.73c-8.22,15.72-26,25.88-45.36,25.88-12.52,0-27.29-4-35.21-9.53a6.52,6.52,0,0,0-6.52-.79,6.63,6.63,0,0,0-3.42,8.73c.06.14.12.28.19.41,8.26,16.21,29.91,28,51.49,28,28.83,0,52.28-22.12,52.28-49.31v-.22a7,7,0,0,0-4.36-6.55V43.85ZM118.48,67c0,24.79-21.49,45-47.92,45C50.85,112,30.39,101,23,86.35a2.19,2.19,0,0,1,.53-2.77,2.1,2.1,0,0,1,2.71-.14C34.86,89.58,50.42,93.86,64,93.86c20.93,0,40.26-11.07,49.22-28.21a2.86,2.86,0,0,1,3.21-1.52c2,.35,2,2.87,2,2.87Z"/><rect class="cls-2" width="141.2" height="141.2" rx="70.6"/></g></g></svg>