<svg xmlns="http://www.w3.org/2000/svg" viewBox="0 0 141.2 141.2"><defs><style>.cls-1{}.cls-2{fill:none;}</style></defs><g id="Calque_2" data-name="Calque 2"><g id="Layer_1" data-name="Layer 1"><path class="cls-1" d="M92.76,49.93a3.36,3.36,0,1,0,3.36,3.35A3.36,3.36,0,0,0,92.76,49.93Zm0,4.21a.86.86,0,0,1-.85-.86.85.85,0,1,1,.85.86Z"/><path class="cls-1" d="M104.16,48.75C99.31,43,92.53,40,86.19,40.51a46.11,46.11,0,0,0-3.47-11c-3.18-7.12-7.19-12.47-10.21-13.63a3.06,3.06,0,0,0-2.41,0c-2.41,1.08-2.25,5-1.58,8.46C64.14,20.57,59.46,18,57,20.09c-1.1.93-2,3.06.16,7.91a46.64,46.64,0,0,0,7.18,10.94,45,45,0,0,0,10.3,9.26,18.22,18.22,0,0,0-.89,13,29.26,29.26,0,0,0-3.09-.18H67.84A36.52,36.52,0,0,0,42.67,71a7.39,7.39,0,1,0-7.92,10.74A36.59,36.59,0,0,0,31,97.91a20.17,20.17,0,0,0,20.12,20.17l24.73.37a5.4,5.4,0,0,0,3.78-1.55,5.8,5.8,0,0,0,1.23-2,5.47,5.47,0,0,0,.31-1.78,5.31,5.31,0,0,0-5.3-5.3h-4.4l7.93-2.7c.91,1.38,2.87,4.26,4.91,6.9,3.55,4.62,5.06,5.6,5.88,5.93a10.15,10.15,0,0,0,3.74.63,18.69,18.69,0,0,0,4.5-.58,1.23,1.23,0,0,0,.91-1c0-.15.47-3.62-1.41-5.88a5,5,0,0,0-2.77-1.68l.17-8.51A29.27,29.27,0,0,0,98.07,88.5a27,27,0,0,0-1.8-9.8,14.31,14.31,0,0,0,8.55-3.34c7-6,6.72-17.89-.67-26.56Zm-33-30.55a1.11,1.11,0,0,1,.49.07c2,.75,5.67,5.23,8.82,12.31a44.16,44.16,0,0,1,3.29,10.36,1.31,1.31,0,0,0-.28.09l-.31.08a13.47,13.47,0,0,0-1.39.49,46,46,0,0,0-7.3-11.23c-.44-.51-.88-1-1.32-1.49l-.45-.47c-.25-.27-.5-.54-.76-.79-2-6.45-1.27-9.18-.78-9.4Zm32.09,55.21a12.1,12.1,0,0,1-8.76,2.73,1.26,1.26,0,0,0-1.22,1.79,24.45,24.45,0,0,1,2.32,10.52A26.78,26.78,0,0,1,93,100.06a1.8,1.8,0,0,0-.13.52l-.2,9.88a1.27,1.27,0,0,0,1.19,1.28,2.85,2.85,0,0,1,2.17.94,5.19,5.19,0,0,1,.9,3.11,11.5,11.5,0,0,1-5.78-.15c-.29-.13-1.54-.85-4.82-5.14C83.57,107,81,103,81,103a1.26,1.26,0,0,0-1-.58,1.34,1.34,0,0,0-.4.06l-11,3.75A16.91,16.91,0,0,0,54.75,79.37a1.26,1.26,0,0,0,0,2.51,14.45,14.45,0,0,1,8.43,26.18s0,0,0,0l-.13.09,0,0a.71.71,0,0,0-.1.14l0,.06a.93.93,0,0,0-.05.1c0,.06,0,.13-.07.2a.51.51,0,0,0,0,.2s0,.1,0,.15a.3.3,0,0,0,0,.1.12.12,0,0,0,0,.08,1.26,1.26,0,0,0,.51.84l.07,0a1.32,1.32,0,0,0,.29.13.12.12,0,0,1,.08,0,1.36,1.36,0,0,0,.29.06h12a2.8,2.8,0,0,1,2.8,2.79,2.52,2.52,0,0,1-.17.94,2.61,2.61,0,0,1-.64,1,2.79,2.79,0,0,1-2,.81l-24.74-.37A17.67,17.67,0,0,1,33.54,97.88a34.06,34.06,0,0,1,4.35-16.69,1.26,1.26,0,0,0,0-1.32,1.24,1.24,0,0,0-1.19-.54,3.48,3.48,0,0,1-.47,0A4.89,4.89,0,1,1,41,73.5a1.25,1.25,0,0,0,.89,1,1.26,1.26,0,0,0,1.27-.35c.15-.16.31-.34.47-.5A34.12,34.12,0,0,1,67.88,63.54h2.83A25.44,25.44,0,0,1,75.4,64a1.26,1.26,0,0,0,1.4-1.68c-1.93-5-1.68-10.21.65-14a1.23,1.23,0,0,0,.15-1,1.19,1.19,0,0,0-.62-.78C73.86,45,69.86,41.51,66.3,37.31A45,45,0,0,1,59.51,27c-1.33-3-1.23-4.65-.83-5,.85-.72,5.34,1,11.28,7.15.85.86,1.73,1.83,2.6,2.86,3.47,4,6.22,8.43,7.35,11.71a1.25,1.25,0,0,0,1.18.85h.12a1.11,1.11,0,0,0,.47-.14,12.08,12.08,0,0,1,3.67-1.25c5.76-1,12.4,1.86,16.94,7.22,6.49,7.61,6.91,18,.95,23Z"/><rect class="cls-2" width="141.2" height="141.2" rx="70.6"/></g></g></svg>