<?xml version="1.0" encoding="UTF-8" standalone="no"?>
<svg
   version="1.0"
   width="68.5"
   height="44.34375"
   id="svg2"
   xmlns="http://www.w3.org/2000/svg"
   xmlns:svg="http://www.w3.org/2000/svg"
   xmlns:rdf="http://www.w3.org/1999/02/22-rdf-syntax-ns#"
   xmlns:cc="http://creativecommons.org/ns#"
   xmlns:dc="http://purl.org/dc/elements/1.1/">
  <defs
     id="defs4">
    <clipPath
       id="clipPath3345">
      <rect
         width="109"
         height="80"
         x="222"
         y="101"
         id="rect2227" />
    </clipPath>
  </defs>
  <metadata
     id="metadata2027">
    <rdf:RDF>
      <cc:Work
         rdf:about="">
        <cc:license
           rdf:resource="http://web.resource.org/cc/PublicDomain" />
        <dc:format>image/svg+xml</dc:format>
        <dc:type
           rdf:resource="http://purl.org/dc/dcmitype/StillImage" />
        <dc:title>Departements of France</dc:title>
      </cc:Work>
      <cc:License
         rdf:about="http://web.resource.org/cc/PublicDomain">
        <cc:permits
           rdf:resource="http://web.resource.org/cc/Reproduction" />
        <cc:permits
           rdf:resource="http://web.resource.org/cc/Distribution" />
        <cc:permits
           rdf:resource="http://web.resource.org/cc/DerivativeWorks" />
      </cc:License>
    </rdf:RDF>
  </metadata>
  <style
     type="text/css"
     id="style6"><![CDATA[
.land
{
	stroke:white;
	stroke-width:0;
}
]]></style>
  <g
     id="complete_map"
     transform="translate(-15.749999,-27.828124)">
    <path
       d="m 206.84375,124.65625 -3.96875,0.875 -1.28125,-0.78125 -3.71875,0.625 -0.15625,1.46875 -1.28125,0.3125 -0.46875,-2.09375 -1.625,0.3125 -2.4375,2.75 -3.6875,2.75 -4.03125,1.28125 -3.21875,-1.78125 -3.71875,0.65625 -2.25,-2.25 -2.125,0.78125 -3.53125,2.4375 -4.03125,-1.125 -2.90625,3.375 -3.9375,1.1875 2.15625,1.40625 1.9375,1.9375 -0.46875,1.90625 0.3125,1.625 -1.125,3.71875 -3.34375,2.84375 1.3125,2.21875 2.15625,1.5625 2.9375,-1.96875 1.9375,1.375 5.28125,-3.125 5.28125,0.78125 2.90625,-1.1875 0.8125,-1.9375 1.9375,-0.1875 1.75,1.5625 0.78125,4.28125 2.53125,0.96875 1,3.53125 3.3125,0.1875 5.28125,-4.875 5.28125,-0.1875 L 204,154 l 0.96875,7.03125 3.3125,1.1875 1.96875,2.9375 h 4.09375 l 0.1875,1.34375 0.1875,-1.9375 H 215.5 l 2.75,4.09375 2.125,0.34375 v -4.625 l -1.34375,-1.78125 -0.40625,-1.5625 2.9375,-1.75 2.9375,-0.59375 1.9375,-2.34375 -0.375,-7.21875 -4.125,-3.5 -0.1875,-3.34375 -3.5,-2.34375 1.375,-1.9375 -0.8125,-2.9375 -2.71875,-0.96875 -1.96875,-1.96875 -1.15625,-2.71875 -5.46875,-0.1875 -1.5625,-1.96875 z"
       class="land departement61"
       id="departement"
       transform="translate(-142.1875,-96.828125)" />
    <rect
       x="0"
       y="0"
       width="100"
       height="100"
       style="fill:none"
       id="rect9" />
  </g>
</svg>
