<?xml version="1.0" encoding="UTF-8" standalone="no"?>
<svg
   version="1.0"
   width="6.593751"
   height="12.750001"
   id="svg2"
   xmlns="http://www.w3.org/2000/svg"
   xmlns:svg="http://www.w3.org/2000/svg"
   xmlns:rdf="http://www.w3.org/1999/02/22-rdf-syntax-ns#"
   xmlns:cc="http://creativecommons.org/ns#"
   xmlns:dc="http://purl.org/dc/elements/1.1/">
  <defs
     id="defs4">
    <clipPath
       id="clipPath3345">
      <rect
         width="109"
         height="80"
         x="222"
         y="101"
         id="rect2227" />
    </clipPath>
  </defs>
  <metadata
     id="metadata2027">
    <rdf:RDF>
      <cc:Work
         rdf:about="">
        <cc:license
           rdf:resource="http://web.resource.org/cc/PublicDomain" />
        <dc:format>image/svg+xml</dc:format>
        <dc:type
           rdf:resource="http://purl.org/dc/dcmitype/StillImage" />
        <dc:title>Departements of France</dc:title>
      </cc:Work>
      <cc:License
         rdf:about="http://web.resource.org/cc/PublicDomain">
        <cc:permits
           rdf:resource="http://web.resource.org/cc/Reproduction" />
        <cc:permits
           rdf:resource="http://web.resource.org/cc/Distribution" />
        <cc:permits
           rdf:resource="http://web.resource.org/cc/DerivativeWorks" />
      </cc:License>
    </rdf:RDF>
  </metadata>
  <style
     type="text/css"
     id="style6"><![CDATA[
.land
{
	stroke:white;
	stroke-width:0;
}
]]></style>
  <g
     id="complete_map"
     transform="translate(-46.703124,-43.624999)">
    <path
       d="m 277.3125,125.78125 -3.5,1.875 -0.375,0.0625 -1.71875,3.75 1.09375,2.96875 1.75,1.96875 v 0.21875 l 2.71875,1.90625 0.65625,-0.34375 -0.5,-0.9375 0.5,-1.46875 -0.3125,-0.53125 0.34375,-1.21875 h -0.0625 L 276,133.0625 l -1.5625,-0.4375 -0.21875,-0.6875 -0.0312,-0.59375 0.9375,-1.0625 1.03125,-0.0625 0.46875,-0.625 1.125,-0.5 -0.375,-0.90625 0.53125,-0.0937 0.40625,-0.875 -0.40625,-0.625 -0.4375,-0.0937 z"
       class="land departement92"
       id="departement"
       transform="translate(-225.01562,-82.15625)" />
    <rect
       x="0"
       y="0"
       width="100"
       height="100"
       style="fill:none"
       id="rect9" />
  </g>
</svg>
