<?xml version="1.0" encoding="UTF-8" standalone="no"?>
<svg
   version="1.0"
   width="40.5625"
   height="53.875"
   id="svg2"
   xmlns="http://www.w3.org/2000/svg"
   xmlns:svg="http://www.w3.org/2000/svg"
   xmlns:rdf="http://www.w3.org/1999/02/22-rdf-syntax-ns#"
   xmlns:cc="http://creativecommons.org/ns#"
   xmlns:dc="http://purl.org/dc/elements/1.1/">
  <defs
     id="defs4">
    <clipPath
       id="clipPath3345">
      <rect
         width="109"
         height="80"
         x="222"
         y="101"
         id="rect2227" />
    </clipPath>
  </defs>
  <metadata
     id="metadata2027">
    <rdf:RDF>
      <cc:Work
         rdf:about="">
        <cc:license
           rdf:resource="http://web.resource.org/cc/PublicDomain" />
        <dc:format>image/svg+xml</dc:format>
        <dc:type
           rdf:resource="http://purl.org/dc/dcmitype/StillImage" />
        <dc:title>Departements of France</dc:title>
      </cc:Work>
      <cc:License
         rdf:about="http://web.resource.org/cc/PublicDomain">
        <cc:permits
           rdf:resource="http://web.resource.org/cc/Reproduction" />
        <cc:permits
           rdf:resource="http://web.resource.org/cc/Distribution" />
        <cc:permits
           rdf:resource="http://web.resource.org/cc/DerivativeWorks" />
      </cc:License>
    </rdf:RDF>
  </metadata>
  <style
     type="text/css"
     id="style6"><![CDATA[
.land
{
	stroke:white;
	stroke-width:0;
}
]]></style>
  <g
     id="complete_map"
     transform="translate(-29.718749,-23.0625)">
    <path
       d="m 179.21875,428.53125 -1.9375,1.03125 0.34375,0.0312 3.3125,5.46875 -2.15625,1.96875 1.5625,2.34375 2.34375,3.5 -1.9375,2.53125 -3.125,7.03125 -5.28125,4.5 1.375,2.75 -1.1875,0.78125 -2.90625,-0.59375 -0.8125,6.4375 -1.5625,1.1875 -0.3125,4.03125 0.5,-0.28125 3.3125,1.96875 3.90625,2.9375 0.375,2.34375 3.125,2.53125 h 2.5625 l 6.4375,-2.75 2.71875,3.125 3.71875,1 1.375,-2.34375 1.75,0.78125 3.78125,0.25 -0.25,-10.5 h 1.96875 l 1.75,0.875 1.25,-1.21875 -0.1875,-1.9375 2.46875,-1.4375 -0.875,-3.6875 -1.0625,-0.90625 -2.125,0.71875 1.0625,-1.78125 -0.53125,-2.28125 -3.1875,-2.3125 0.1875,-1.59375 1.78125,-3 2.28125,-0.875 v -1.25 l 1.40625,-2.125 0.9375,-1.3125 -3.5625,-1.84375 h -4.78125 l -0.71875,-1.4375 h -2.46875 L 195.125,441.5937 h -2.28125 l -0.71875,0.71875 h -2.65625 l -0.15625,-1.59375 -2.125,-1.40625 0.71875,-0.71875 0.34375,-1.75 -0.53125,-0.53125 -1.0625,-2.84375 -2.3125,-0.34375 -2.28125,-1.25 0.15625,-3.34375 z"
       class="land departement65"
       id="departement"
       transform="translate(-137.21875,-405.46875)" />
    <rect
       x="0"
       y="0"
       width="100"
       height="100"
       style="fill:none"
       id="rect9" />
  </g>
</svg>
