<?xml version="1.0" encoding="UTF-8" standalone="no"?>
<svg
   version="1.0"
   width="48.8125"
   height="44.40625"
   id="svg2"
   xmlns="http://www.w3.org/2000/svg"
   xmlns:svg="http://www.w3.org/2000/svg"
   xmlns:rdf="http://www.w3.org/1999/02/22-rdf-syntax-ns#"
   xmlns:cc="http://creativecommons.org/ns#"
   xmlns:dc="http://purl.org/dc/elements/1.1/">
  <defs
     id="defs4">
    <clipPath
       id="clipPath3345">
      <rect
         width="109"
         height="80"
         x="222"
         y="101"
         id="rect2227" />
    </clipPath>
  </defs>
  <metadata
     id="metadata2027">
    <rdf:RDF>
      <cc:Work
         rdf:about="">
        <cc:license
           rdf:resource="http://web.resource.org/cc/PublicDomain" />
        <dc:format>image/svg+xml</dc:format>
        <dc:type
           rdf:resource="http://purl.org/dc/dcmitype/StillImage" />
        <dc:title>Departements of France</dc:title>
      </cc:Work>
      <cc:License
         rdf:about="http://web.resource.org/cc/PublicDomain">
        <cc:permits
           rdf:resource="http://web.resource.org/cc/Reproduction" />
        <cc:permits
           rdf:resource="http://web.resource.org/cc/Distribution" />
        <cc:permits
           rdf:resource="http://web.resource.org/cc/DerivativeWorks" />
      </cc:License>
    </rdf:RDF>
  </metadata>
  <style
     type="text/css"
     id="style6"><![CDATA[
.land
{
	stroke:white;
	stroke-width:0;
}
]]></style>
  <g
     id="complete_map"
     transform="translate(-25.593749,-27.796874)">
    <path
       d="m 256.125,267.875 -1.15625,3.125 -3.53125,-0.1875 -0.78125,-0.40625 -2.34375,0.21875 -1.75,-1.1875 -3.375,3.875 0.0625,2.875 -2.34375,4.65625 0.4375,2.34375 2.53125,0.625 1.71875,4.25 1.6875,1.71875 -0.625,8.0625 3.59375,-1.0625 1.5,1.90625 -2.34375,1.90625 v 1.9375 l 1.90625,0.1875 3.40625,-0.1875 1.0625,-1.5 h 0.84375 l -0.40625,2.5625 2.75,1.25 2.5625,1.71875 v 1.0625 h -1.5 l 0.4375,2.53125 1,0.625 0.25,-0.40625 3.1875,-0.625 0.84375,-2.125 h 1.5 l 1.0625,1.46875 h 4.875 l 0.875,1.28125 1.90625,1.90625 h 2.34375 l 1.25,-1.90625 h 3.84375 l 1.96875,-1.53125 -4.0625,-4.0625 -0.375,-1.75 3.71875,-2.15625 2.15625,-1.15625 0.5625,-2.75 2.34375,-1.75 L 288.9375,291.5 287.375,289.5625 287,283.5 l -2.15625,-5.0625 -2.15625,-0.78125 -1.5625,-2.75 -1.375,1.75 -1.34375,-1.75 v -2.34375 l -2.34375,-3.3125 -6.4375,0.78125 -3.71875,-0.96875 z"
       class="land departement23"
       id="departement"
       transform="translate(-215.3125,-240.07812)" />
    <rect
       x="0"
       y="0"
       width="100"
       height="100"
       style="fill:none"
       id="rect9" />
  </g>
</svg>
