<?xml version="1.0" encoding="UTF-8" standalone="no"?>
<svg
   version="1.0"
   width="57.09375"
   height="61.03125"
   id="svg2"
   xmlns="http://www.w3.org/2000/svg"
   xmlns:svg="http://www.w3.org/2000/svg"
   xmlns:rdf="http://www.w3.org/1999/02/22-rdf-syntax-ns#"
   xmlns:cc="http://creativecommons.org/ns#"
   xmlns:dc="http://purl.org/dc/elements/1.1/">
  <defs
     id="defs4">
    <clipPath
       id="clipPath3345">
      <rect
         width="109"
         height="80"
         x="222"
         y="101"
         id="rect2227" />
    </clipPath>
  </defs>
  <metadata
     id="metadata2027">
    <rdf:RDF>
      <cc:Work
         rdf:about="">
        <cc:license
           rdf:resource="http://web.resource.org/cc/PublicDomain" />
        <dc:format>image/svg+xml</dc:format>
        <dc:type
           rdf:resource="http://purl.org/dc/dcmitype/StillImage" />
        <dc:title>Departements of France</dc:title>
      </cc:Work>
      <cc:License
         rdf:about="http://web.resource.org/cc/PublicDomain">
        <cc:permits
           rdf:resource="http://web.resource.org/cc/Reproduction" />
        <cc:permits
           rdf:resource="http://web.resource.org/cc/Distribution" />
        <cc:permits
           rdf:resource="http://web.resource.org/cc/DerivativeWorks" />
      </cc:License>
    </rdf:RDF>
  </metadata>
  <style
     type="text/css"
     id="style6"><![CDATA[
.land
{
	stroke:white;
	stroke-width:0;
}
]]></style>
  <g
     id="complete_map"
     transform="translate(-21.453124,-19.484374)">
    <path
       d="m 318.4375,157.34375 -1.75,1.34375 -7.625,-0.375 -3.5,1.75 -1.375,2.9375 1.5625,1.75 -2.34375,2.75 -1.78125,2.125 3.53125,3.34375 0.96875,3.125 2.5625,2.71875 v 3.53125 l -5.09375,4.28125 1.75,1.96875 -0.375,2.90625 -2.75,1.96875 h -3.90625 l 0.59375,2.15625 2.53125,3.5 0.59375,3.125 0.59375,2.15625 -1.15625,0.34375 2.46875,0.5625 h 1.84375 L 306.75,203.78125 H 308 l 1.40625,1.25 -0.28125,1.5625 1.28125,0.84375 h 1.8125 l 2.53125,1.6875 1.125,-0.5625 1.125,0.96875 1.125,-0.28125 1.9375,-1.25 1.84375,0.5625 1.25,-0.28125 v -3.5 l 0.6875,0.125 0.4375,1.8125 2.25,1.40625 v 2.125 l 3.21875,0.125 4.21875,3.9375 2.65625,0.125 -0.15625,-1.25 1.125,-1.6875 1,1.25 -0.84375,1.40625 0.40625,1.28125 1.53125,-1 h 1.84375 l -0.15625,2.8125 1.6875,1.125 1.28125,-0.5625 3.125,-2.125 -0.1875,-0.40625 -1.84375,-1.125 -0.125,-1.96875 1.96875,-0.96875 0.84375,-1.125 -0.5625,-0.96875 v -2.25 l 1.53125,-2.25 2.25,-4.78125 0.40625,-2.09375 1.40625,-0.5625 0.15625,-0.40625 -0.71875,-0.5625 v -1.6875 l 2.25,-1.6875 0.5625,-2.8125 -0.96875,-1.65625 h -1.5625 l -0.40625,-0.4375 v -2.375 L 354.4375,184.15625 354.28125,182.75 354,181.34375 353,183.5 l -1.375,-0.1875 -1.15625,-2.15625 -3.90625,1.96875 -7.8125,-0.40625 -0.96875,-2.15625 -2.15625,-2.90625 -0.375,-3.53125 -3.125,-3.71875 -1.96875,1.375 -3.53125,-2.71875 0.59375,-5.28125 -5.0625,-5.28125 h -2.34375 z"
       class="land departement89"
       id="departement"
       transform="translate(-276.85937,-137.85937)" />
    <rect
       x="0"
       y="0"
       width="100"
       height="100"
       style="fill:none"
       id="rect9" />
  </g>
</svg>
