<?xml version="1.0" encoding="UTF-8" standalone="no"?>
<svg
   version="1.0"
   width="65.4375"
   height="69.1875"
   id="svg2"
   xmlns="http://www.w3.org/2000/svg"
   xmlns:svg="http://www.w3.org/2000/svg"
   xmlns:rdf="http://www.w3.org/1999/02/22-rdf-syntax-ns#"
   xmlns:cc="http://creativecommons.org/ns#"
   xmlns:dc="http://purl.org/dc/elements/1.1/">
  <defs
     id="defs4">
    <clipPath
       id="clipPath3345">
      <rect
         width="109"
         height="80"
         x="222"
         y="101"
         id="rect2227" />
    </clipPath>
  </defs>
  <metadata
     id="metadata2027">
    <rdf:RDF>
      <cc:Work
         rdf:about="">
        <cc:license
           rdf:resource="http://web.resource.org/cc/PublicDomain" />
        <dc:format>image/svg+xml</dc:format>
        <dc:type
           rdf:resource="http://purl.org/dc/dcmitype/StillImage" />
        <dc:title>Departements of France</dc:title>
      </cc:Work>
      <cc:License
         rdf:about="http://web.resource.org/cc/PublicDomain">
        <cc:permits
           rdf:resource="http://web.resource.org/cc/Reproduction" />
        <cc:permits
           rdf:resource="http://web.resource.org/cc/Distribution" />
        <cc:permits
           rdf:resource="http://web.resource.org/cc/DerivativeWorks" />
      </cc:License>
    </rdf:RDF>
  </metadata>
  <style
     type="text/css"
     id="style6"><![CDATA[
.land
{
	stroke:white;
	stroke-width:0;
}
]]></style>
  <g
     id="complete_map"
     transform="translate(-17.281249,-15.406249)">
    <path
       d="m 245,412.4375 -2.84375,1.0625 -0.875,1.40625 -1.0625,-1.21875 -1.9375,-0.1875 -0.375,1.78125 -1.21875,0.5 1.75,0.90625 -1.21875,1.9375 -4.4375,1.25 -1.9375,-2.3125 h -1.75 l -1.4375,0.875 h -5.125 L 222,418.65625 l 0.53125,1.90625 3,3 -0.15625,1.59375 2.28125,2.3125 h 1.4375 l 0.6875,1.75 1.78125,0.1875 0.53125,1.59375 -1.78125,0.71875 -3.71875,1.59375 -1.75,4.0625 -1.40625,4.21875 -0.90625,1.25 -2.8125,-1.9375 -6.5625,-0.53125 -3.53125,4.59375 -1.9375,1.0625 -1.25,1.75 -1.40625,2.125 v 1.25 l -2.28125,0.875 -1.78125,3 -0.1875,1.59375 3.1875,2.3125 0.53125,2.28125 -1.0625,1.78125 2.125,-0.71875 1.0625,0.90625 0.875,3.6875 -2.46875,1.4375 0.1875,1.9375 -1.25,1.21875 -1.75,-0.875 H 200.25 l 0.25,10.5 7.9375,0.53125 0.40625,-9.59375 2.71875,0.40625 4.03125,2.34375 1.65625,-1.53125 -0.71875,-1.0625 v -3.53125 l 1.75,-2.125 4.625,-1.25 0.6875,-2.625 -1.0625,-0.71875 -0.15625,-3.375 4.0625,-2.46875 2.28125,-0.15625 2.3125,0.6875 1.9375,1.78125 1.25,0.15625 1.0625,-1.75 -0.90625,-1.25 -1.59375,-0.53125 -0.15625,-0.53125 1.21875,-1.75 4.25,-0.375 0.53125,-1.03125 -0.71875,-1.25 -2.46875,-1.78125 0.53125,-1.0625 1.25,-0.875 1.21875,0.34375 1.96875,2.65625 0.15625,1.78125 3.375,0.34375 0.6875,-1.59375 -1.59375,-1.9375 1.0625,0.34375 3.90625,1.78125 2.125,-0.34375 1.5625,-0.65625 -0.375,-0.40625 2.5,-1.125 0.53125,-3.03125 3.0625,-1.375 -0.84375,-1.9375 2.78125,-2.5 1.375,2.5 4.125,-1.375 0.78125,-0.125 0.0625,-1.28125 v -2.5 l -2.125,0.375 -2.65625,-0.71875 -2.3125,-2.8125 -0.875,-1.25 -4.59375,-1.9375 -1.0625,-1.59375 1.40625,-0.53125 v -1.9375 l -1.40625,-1.59375 -1.78125,-2.84375 -0.15625,-2.46875 -0.53125,-0.34375 -2.125,-2.5 -0.875,-2.625 z"
       class="land departement31"
       id="departement"
       transform="translate(-182.96875,-397.03125)" />
    <rect
       x="0"
       y="0"
       width="100"
       height="100"
       style="fill:none"
       id="rect9" />
  </g>
</svg>
