<?xml version="1.0" encoding="UTF-8" standalone="no"?>
<svg
   version="1.0"
   width="66.03125"
   height="67.6875"
   id="svg2"
   xmlns="http://www.w3.org/2000/svg"
   xmlns:svg="http://www.w3.org/2000/svg"
   xmlns:rdf="http://www.w3.org/1999/02/22-rdf-syntax-ns#"
   xmlns:cc="http://creativecommons.org/ns#"
   xmlns:dc="http://purl.org/dc/elements/1.1/">
  <defs
     id="defs4">
    <clipPath
       id="clipPath3345">
      <rect
         width="109"
         height="80"
         x="222"
         y="101"
         id="rect2227" />
    </clipPath>
  </defs>
  <metadata
     id="metadata2027">
    <rdf:RDF>
      <cc:Work
         rdf:about="">
        <cc:license
           rdf:resource="http://web.resource.org/cc/PublicDomain" />
        <dc:format>image/svg+xml</dc:format>
        <dc:type
           rdf:resource="http://purl.org/dc/dcmitype/StillImage" />
        <dc:title>Departements of France</dc:title>
      </cc:Work>
      <cc:License
         rdf:about="http://web.resource.org/cc/PublicDomain">
        <cc:permits
           rdf:resource="http://web.resource.org/cc/Reproduction" />
        <cc:permits
           rdf:resource="http://web.resource.org/cc/Distribution" />
        <cc:permits
           rdf:resource="http://web.resource.org/cc/DerivativeWorks" />
      </cc:License>
    </rdf:RDF>
  </metadata>
  <style
     type="text/css"
     id="style6"><![CDATA[
.land
{
	stroke:white;
	stroke-width:0;
}
]]></style>
  <g
     id="complete_map"
     transform="translate(-16.984374,-16.15625)">
    <path
       d="m 401.59375,88.4375 -2.34375,2.15625 -3.3125,0.1875 -1.15625,1.1875 h -0.25 l -0.125,2.34375 1.15625,1.90625 -0.40625,1.15625 -0.375,1.34375 0.1875,0.75 0.96875,-0.75 L 396.875,97 l 1.9375,-0.1875 3.25,-0.96875 1.71875,1.34375 0.75,1.53125 0.59375,1.71875 v 1.71875 l 0.9375,0.78125 v 1.3125 l -0.9375,1.15625 -0.1875,2.5 0.75,1.15625 0.1875,1.53125 0.1875,2.46875 1.15625,0.96875 1.71875,0.75 -0.75,1.53125 2.09375,1.9375 -1.90625,2.09375 0.375,1.34375 1.90625,0.9375 v 0.96875 H 408.375 l -0.96875,1.34375 0.1875,0.96875 1.53125,1.53125 -1.3125,3.625 -1.53125,3.4375 0.75,2.125 v 3.4375 l 0.78125,1.71875 h 1.125 l 0.59375,0.96875 h -1.71875 l -1.53125,0.75 v 1.15625 l 1.90625,1.71875 v 2.6875 l 1.90625,-0.59375 2.875,0.1875 0.1875,3.0625 1.15625,0.40625 -1.34375,0.9375 -0.1875,0.96875 2.09375,0.375 1.34375,1.71875 6.3125,-0.375 1.34375,-2.5 h 2.875 l 1.15625,-0.9375 1.90625,1.15625 1.71875,-0.59375 2.5,0.1875 2.09375,-0.75 2.09375,-1.53125 1.15625,1.15625 0.1875,-2.6875 1.53125,-0.59375 0.78125,2.5 2.28125,0.1875 2.3125,0.59375 0.9375,0.1875 3.28125,-1.53125 1.71875,-1.15625 1.53125,-1.90625 3.0625,-1.15625 2,-0.4375 -1.125,-1.09375 2.15625,0.1875 0.40625,-0.40625 -2.3125,-0.75 -3.25,-2.28125 -2.875,-2.125 h -3.4375 l -3.625,-2.09375 -2.875,-0.1875 v -0.78125 l -4.40625,-2.65625 -4.96875,-2.125 h -2.5 l -0.9375,-2.65625 -3.84375,-4.8125 h -3.8125 L 420.0625,122.0625 H 417 l 0.1875,-3.0625 -4.03125,-2.5 0.1875,-2.46875 h 2.125 v -2.125 l 0.75,-1.53125 L 414.5,108.65625 416.03125,106 l -1.15625,-3.0625 -0.9375,-0.78125 -2.5,-5.34375 0.96875,-1.53125 c 0,0 -0.0791,-1.25724 -0.15625,-2.9375 h -2.625 l -3.53125,-3.90625 z"
       class="land departement54"
       id="departement"
       transform="translate(-377.42187,-72.28125)" />
    <rect
       x="0"
       y="0"
       width="100"
       height="100"
       style="fill:none"
       id="rect9" />
  </g>
</svg>
