<?xml version="1.0" encoding="UTF-8" standalone="no"?>
<svg
   version="1.0"
   width="64.90625"
   height="56.0625"
   id="svg2"
   xmlns="http://www.w3.org/2000/svg"
   xmlns:svg="http://www.w3.org/2000/svg"
   xmlns:rdf="http://www.w3.org/1999/02/22-rdf-syntax-ns#"
   xmlns:cc="http://creativecommons.org/ns#"
   xmlns:dc="http://purl.org/dc/elements/1.1/">
  <defs
     id="defs4">
    <clipPath
       id="clipPath3345">
      <rect
         width="109"
         height="80"
         x="222"
         y="101"
         id="rect2227" />
    </clipPath>
  </defs>
  <metadata
     id="metadata2027">
    <rdf:RDF>
      <cc:Work
         rdf:about="">
        <cc:license
           rdf:resource="http://web.resource.org/cc/PublicDomain" />
        <dc:format>image/svg+xml</dc:format>
        <dc:type
           rdf:resource="http://purl.org/dc/dcmitype/StillImage" />
        <dc:title>Departements of France</dc:title>
      </cc:Work>
      <cc:License
         rdf:about="http://web.resource.org/cc/PublicDomain">
        <cc:permits
           rdf:resource="http://web.resource.org/cc/Reproduction" />
        <cc:permits
           rdf:resource="http://web.resource.org/cc/Distribution" />
        <cc:permits
           rdf:resource="http://web.resource.org/cc/DerivativeWorks" />
      </cc:License>
    </rdf:RDF>
  </metadata>
  <style
     type="text/css"
     id="style6"><![CDATA[
.land
{
	stroke:white;
	stroke-width:0;
}
]]></style>
  <g
     id="complete_map"
     transform="translate(-17.546874,-21.968749)">
    <path
       d="m 346.1875,381.03125 -0.96875,1.875 -1.21875,1.0625 -2.3125,0.375 2.8125,3 v 4.0625 l 1.25,0.34375 -1.40625,1.59375 v 3 l -2.3125,3.53125 -5.125,-0.53125 -3,-2.8125 -2.125,0.53125 0.71875,1.75 -0.875,1.25 -5.15625,1.0625 -6.03125,-4.03125 -1.15625,1.03125 v 2.78125 l -2.21875,0.53125 0.5625,2.21875 2.75,0.5625 h 3.03125 l 0.84375,3.84375 -3.59375,1.65625 v 1.75 l 2.8125,0.96875 v 1.59375 l 1.25,0.71875 1.0625,-0.90625 h 1.40625 l 0.71875,1.59375 h 2.125 l 1.0625,-3.71875 h 1.75 L 335.5,408.375 l 3.1875,0.34375 0.53125,4.59375 1.21875,1.4375 1.96875,-1.0625 3.34375,1.75 1.25,2.125 5.8125,3.53125 2.125,4.96875 v 2.625 l -3.71875,2.125 -2.40625,2.15625 3,0.21875 v 3.90625 l 4.46875,-0.21875 2.40625,0.125 1.75,-4.0625 6.34375,-3.875 -1.375,-1.9375 1.65625,-4.40625 5.78125,0.8125 1.40625,-10.5 7.71875,-4.40625 v -2.5 l -5.8125,-5.78125 v -4.4375 l -3.3125,-5.5 -6.90625,-3.875 -0.53125,3.03125 -2.78125,0.28125 -0.8125,-3.03125 -2.78125,0.53125 -0.53125,3.875 -2.21875,-0.8125 -4.6875,-3.0625 -2.21875,1.125 v -5.53125 z"
       class="land departement30"
       id="departement"
       transform="translate(-299.51562,-359.0625)" />
    <rect
       x="0"
       y="0"
       width="100"
       height="100"
       style="fill:none"
       id="rect9" />
  </g>
</svg>
