<?xml version="1.0" encoding="UTF-8" standalone="no"?>
<svg
   version="1.0"
   width="52.0625"
   height="48.4375"
   id="svg2"
   xmlns="http://www.w3.org/2000/svg"
   xmlns:svg="http://www.w3.org/2000/svg"
   xmlns:rdf="http://www.w3.org/1999/02/22-rdf-syntax-ns#"
   xmlns:cc="http://creativecommons.org/ns#"
   xmlns:dc="http://purl.org/dc/elements/1.1/">
  <defs
     id="defs4">
    <clipPath
       id="clipPath3345">
      <rect
         width="109"
         height="80"
         x="222"
         y="101"
         id="rect2227" />
    </clipPath>
  </defs>
  <metadata
     id="metadata2027">
    <rdf:RDF>
      <cc:Work
         rdf:about="">
        <cc:license
           rdf:resource="http://web.resource.org/cc/PublicDomain" />
        <dc:format>image/svg+xml</dc:format>
        <dc:type
           rdf:resource="http://purl.org/dc/dcmitype/StillImage" />
        <dc:title>Departements of France</dc:title>
      </cc:Work>
      <cc:License
         rdf:about="http://web.resource.org/cc/PublicDomain">
        <cc:permits
           rdf:resource="http://web.resource.org/cc/Reproduction" />
        <cc:permits
           rdf:resource="http://web.resource.org/cc/Distribution" />
        <cc:permits
           rdf:resource="http://web.resource.org/cc/DerivativeWorks" />
      </cc:License>
    </rdf:RDF>
  </metadata>
  <style
     type="text/css"
     id="style6"><![CDATA[
.land
{
	stroke:white;
	stroke-width:0;
}
]]></style>
  <g
     id="complete_map"
     transform="translate(-23.968749,-25.781249)">
    <path
       d="m 285.84375,323.71875 -0.59375,2.15625 0.96875,2.34375 -1.1875,1.375 h -1.9375 l -1.96875,-2.15625 -1.75,-0.96875 -0.1875,5.46875 -3.53125,2.15625 -2.53125,3.5 0.59375,3.53125 -0.78125,1.5625 -1,3.125 h -1.5625 l -1.5625,1.9375 1.1875,1.1875 0.78125,1.9375 -2.53125,1.78125 1.03125,6.53125 3.3125,2.46875 -2.5,5.8125 2.5,1.09375 -1.09375,3.3125 2.1875,0.28125 1.65625,-2.75 h 2.78125 l 0.53125,0.8125 H 284.75 l 1.09375,-2.46875 1.375,-0.5625 0.5625,-4.40625 h 1.375 v -4.6875 l 5.53125,-4.71875 0.5625,0.84375 0.53125,3.59375 3.875,-0.5625 0.84375,5.53125 h 1.90625 l 0.5625,5.53125 1.71875,2.125 2.8125,-6.46875 2.75,-8.59375 3.5,2.34375 1.5625,-3.5 5,-1.8125 V 350.75 l -1.0625,-1.59375 -2.125,-1.25 1.0625,-1.59375 -0.90625,-0.875 1.0625,-0.34375 1.25,-1.0625 -2.125,-0.1875 -1.0625,-1.40625 -0.34375,-3.71875 -1.25,-1.25 -0.875,-3.15625 H 309.5 l -0.875,-2.5 -1.40625,-0.15625 -0.71875,1.40625 -2.8125,-0.1875 -2.65625,-4.0625 -1.0625,-0.15625 -2.125,-1.0625 -1.25,1.21875 h -3.15625 l -1.59375,-3.34375 z"
       class="land departement15"
       id="departement"
       transform="translate(-244.28125,-297.9375)" />
    <rect
       x="0"
       y="0"
       width="100"
       height="100"
       style="fill:none"
       id="rect9" />
  </g>
</svg>
