<?xml version="1.0" encoding="UTF-8" standalone="no"?>
<svg
   version="1.0"
   width="35.5"
   height="47.375"
   id="svg2"
   xmlns="http://www.w3.org/2000/svg"
   xmlns:svg="http://www.w3.org/2000/svg"
   xmlns:rdf="http://www.w3.org/1999/02/22-rdf-syntax-ns#"
   xmlns:cc="http://creativecommons.org/ns#"
   xmlns:dc="http://purl.org/dc/elements/1.1/">
  <defs
     id="defs4">
    <clipPath
       id="clipPath3345">
      <rect
         width="109"
         height="80"
         x="222"
         y="101"
         id="rect2227" />
    </clipPath>
  </defs>
  <metadata
     id="metadata2027">
    <rdf:RDF>
      <cc:Work
         rdf:about="">
        <cc:license
           rdf:resource="http://web.resource.org/cc/PublicDomain" />
        <dc:format>image/svg+xml</dc:format>
        <dc:type
           rdf:resource="http://purl.org/dc/dcmitype/StillImage" />
        <dc:title>Departements of France</dc:title>
      </cc:Work>
      <cc:License
         rdf:about="http://web.resource.org/cc/PublicDomain">
        <cc:permits
           rdf:resource="http://web.resource.org/cc/Reproduction" />
        <cc:permits
           rdf:resource="http://web.resource.org/cc/Distribution" />
        <cc:permits
           rdf:resource="http://web.resource.org/cc/DerivativeWorks" />
      </cc:License>
    </rdf:RDF>
  </metadata>
  <style
     type="text/css"
     id="style6"><![CDATA[
.land
{
	stroke:white;
	stroke-width:0;
}
]]></style>
  <g
     id="complete_map"
     transform="translate(-32.249999,-26.312499)">
    <path
       d="m 371.75,275.3125 -2.125,0.1875 -1.78125,1.75 -1.15625,-1.5625 -1.75,1.5625 -2.375,-1.5625 h -1.9375 l -0.78125,0.59375 -0.40625,2.25 1.0625,0.84375 v 1.90625 l 1.28125,2.125 -1.0625,1.28125 h -4.03125 l -0.21875,3.8125 -1.28125,1.28125 0.84375,3.1875 v 1.90625 l 1.71875,1.6875 v 2.34375 l 2.53125,2.34375 V 304 l -1.25,1.90625 1.46875,0.875 V 308.25 l -1.28125,1.0625 v 1.71875 l 5.53125,5.09375 6.59375,1.0625 0.625,1.90625 -2.125,2.53125 1.71875,1.0625 2.125,-0.84375 2.28125,0.34375 4.09375,-2.03125 -0.65625,-1.28125 -2.75,-2.75 4.25,-1.5 5.53125,-1.28125 4.25,-5.5 -2.78125,-2.34375 0.15625,-2.03125 -3.96875,-1.15625 -2.5625,0.84375 -0.40625,-3.40625 -2.34375,-2.125 -1.5,-0.21875 -3.8125,-2.3125 0.625,-1.5 V 287 l 1.0625,-1.46875 0.375,-4.5625 -0.65625,1.5625 -1.375,-0.1875 -0.75,-3.90625 z"
       class="land departement69"
       id="departement"
       transform="translate(-322.9375,-249)" />
    <rect
       x="0"
       y="0"
       width="100"
       height="100"
       style="fill:none"
       id="rect9" />
  </g>
</svg>
