<?xml version="1.0" encoding="UTF-8" standalone="no"?>
<svg
   version="1.0"
   width="63.21875"
   height="45.53125"
   id="svg2"
   xmlns="http://www.w3.org/2000/svg"
   xmlns:svg="http://www.w3.org/2000/svg"
   xmlns:rdf="http://www.w3.org/1999/02/22-rdf-syntax-ns#"
   xmlns:cc="http://creativecommons.org/ns#"
   xmlns:dc="http://purl.org/dc/elements/1.1/">
  <defs
     id="defs4">
    <clipPath
       id="clipPath3345">
      <rect
         width="109"
         height="80"
         x="222"
         y="101"
         id="rect2227" />
    </clipPath>
  </defs>
  <metadata
     id="metadata2027">
    <rdf:RDF>
      <cc:Work
         rdf:about="">
        <cc:license
           rdf:resource="http://web.resource.org/cc/PublicDomain" />
        <dc:format>image/svg+xml</dc:format>
        <dc:type
           rdf:resource="http://purl.org/dc/dcmitype/StillImage" />
        <dc:title>Departements of France</dc:title>
      </cc:Work>
      <cc:License
         rdf:about="http://web.resource.org/cc/PublicDomain">
        <cc:permits
           rdf:resource="http://web.resource.org/cc/Reproduction" />
        <cc:permits
           rdf:resource="http://web.resource.org/cc/Distribution" />
        <cc:permits
           rdf:resource="http://web.resource.org/cc/DerivativeWorks" />
      </cc:License>
    </rdf:RDF>
  </metadata>
  <style
     type="text/css"
     id="style6"><![CDATA[
.land
{
	stroke:white;
	stroke-width:0;
}
]]></style>
  <g
     id="complete_map"
     transform="translate(-18.390624,-27.234374)">
    <path
       d="m 56,160.59375 -3.25,1.5625 h -2.28125 l -2.40625,1.9375 0.15625,1.4375 1.4375,3.71875 0.8125,2.90625 5,0.8125 2.4375,1.9375 0.96875,-1.15625 1.59375,2.125 -0.8125,0.96875 -0.15625,2.875 H 58.0625 L 56.9375,181.5 h -2.28125 l -0.9375,3.84375 2.1875,3.5 3.125,0.78125 1.15625,-1.75 -0.5625,2.125 2.71875,1.1875 3.53125,3.5 1.15625,2.15625 -0.375,2.53125 -0.40625,2.5625 2.34375,1.75 1.1875,-1.375 -1.1875,-1.5625 v -3.5 l 2.34375,0.5625 0.78125,-2.34375 0.59375,1.375 2.53125,2.15625 1.1875,-1.96875 -1.1875,-2.71875 L 77,197.25 l 2.71875,-0.40625 -0.5625,-1.375 2.53125,0.59375 1.9375,2.34375 -0.96875,1.5625 -2.53125,-0.78125 -2.9375,-1.375 -1.5625,1.96875 2.34375,0.78125 1.75,2.71875 10.5625,-0.96875 2.71875,0.59375 -1.34375,1.15625 0.1875,1.78125 0.375,0.28125 0.84375,-0.15625 1.75,-1.75 1.15625,1.34375 h 3.125 l 3.71875,-1.9375 5.46875,-2.15625 0.1875,-5.46875 1.15625,-0.625 -2.0625,-3.875 1.78125,-1.4375 -0.3125,-0.96875 -1.125,-0.65625 1.75,-0.8125 1.625,-1.9375 -0.15625,-1.9375 h -2.09375 l -0.5,-1.90625 L 110,179.90625 108.375,177 l -2.40625,-1.46875 h -2.75 l -0.96875,-0.3125 v -1.28125 l 1.4375,-1.3125 0.8125,-3.21875 -0.46875,-2.09375 -0.65625,0.8125 -3.875,-0.3125 -1.78125,-3.25 h -1.4375 l -2.25,0.8125 v 2.09375 l -3.0625,1.9375 -2.4375,-0.96875 -0.96875,-2.09375 -0.78125,1.125 H 84.5 l -1.125,-1.4375 H 82.25 l -2.40625,-2.4375 -2.75,0.65625 -2.90625,-2.59375 -2.59375,0.1875 -0.78125,1.59375 -3.0625,1.625 -3.71875,-1.625 -0.96875,-0.96875 -1.625,1.125 -1.9375,-0.15625 -0.3125,-1.59375 -3.0625,-0.8125 z"
       class="land departement56"
       id="departement"
       transform="translate(-29.671875,-133.35937)" />
    <rect
       x="0"
       y="0"
       width="100"
       height="100"
       style="fill:none"
       id="rect9" />
  </g>
</svg>
