<?xml version="1.0" encoding="UTF-8" standalone="no"?>
<svg
   version="1.0"
   width="41.5"
   height="48.875"
   id="svg2"
   xmlns="http://www.w3.org/2000/svg"
   xmlns:svg="http://www.w3.org/2000/svg"
   xmlns:rdf="http://www.w3.org/1999/02/22-rdf-syntax-ns#"
   xmlns:cc="http://creativecommons.org/ns#"
   xmlns:dc="http://purl.org/dc/elements/1.1/">
  <defs
     id="defs4">
    <clipPath
       id="clipPath3345">
      <rect
         width="109"
         height="80"
         x="222"
         y="101"
         id="rect2227" />
    </clipPath>
  </defs>
  <metadata
     id="metadata2027">
    <rdf:RDF>
      <cc:Work
         rdf:about="">
        <cc:license
           rdf:resource="http://web.resource.org/cc/PublicDomain" />
        <dc:format>image/svg+xml</dc:format>
        <dc:type
           rdf:resource="http://purl.org/dc/dcmitype/StillImage" />
        <dc:title>Departements of France</dc:title>
      </cc:Work>
      <cc:License
         rdf:about="http://web.resource.org/cc/PublicDomain">
        <cc:permits
           rdf:resource="http://web.resource.org/cc/Reproduction" />
        <cc:permits
           rdf:resource="http://web.resource.org/cc/Distribution" />
        <cc:permits
           rdf:resource="http://web.resource.org/cc/DerivativeWorks" />
      </cc:License>
    </rdf:RDF>
  </metadata>
  <style
     type="text/css"
     id="style6"><![CDATA[
.land
{
	stroke:white;
	stroke-width:0;
}
]]></style>
  <g
     id="complete_map"
     transform="translate(-29.249999,-25.562499)">
    <path
       d="m 320.78125,352.25 -5.46875,1.96875 -1.5625,3.5 -3.5,-2.34375 -2.75,8.59375 -2.8125,6.46875 4.09375,5.03125 -0.28125,3.875 2.75,1.9375 v 4.6875 l 0.84375,6.625 3.3125,1.40625 -0.28125,2.1875 4.6875,-0.8125 1.65625,0.8125 -1.03125,0.90625 6.03125,4.03125 5.15625,-1.0625 0.875,-1.25 -0.71875,-1.75 2.125,-0.53125 3,2.8125 5.125,0.53125 2.3125,-3.53125 v -3 L 345.75,391.75 344.5,391.40625 v -4.0625 l -2.8125,-3 2.3125,-0.375 1.21875,-1.0625 0.96875,-1.875 -0.96875,-0.59375 0.5625,-4.125 -3.3125,-3.59375 -1.375,-7.1875 -4.96875,-6.34375 -3.625,0.875 -0.78125,-2.71875 H 329.75 l -0.375,2.34375 -5.0625,1.5625 z"
       class="land departement48"
       id="departement"
       transform="translate(-275.4375,-326.6875)" />
    <rect
       x="0"
       y="0"
       width="100"
       height="100"
       style="fill:none"
       id="rect9" />
  </g>
</svg>
