<?xml version="1.0" encoding="UTF-8" standalone="no"?>
<svg
   version="1.0"
   width="56.71875"
   height="38.59375"
   id="svg2"
   xmlns="http://www.w3.org/2000/svg"
   xmlns:svg="http://www.w3.org/2000/svg"
   xmlns:rdf="http://www.w3.org/1999/02/22-rdf-syntax-ns#"
   xmlns:cc="http://creativecommons.org/ns#"
   xmlns:dc="http://purl.org/dc/elements/1.1/">
  <defs
     id="defs4">
    <clipPath
       id="clipPath3345">
      <rect
         width="109"
         height="80"
         x="222"
         y="101"
         id="rect2227" />
    </clipPath>
  </defs>
  <metadata
     id="metadata2027">
    <rdf:RDF>
      <cc:Work
         rdf:about="">
        <cc:license
           rdf:resource="http://web.resource.org/cc/PublicDomain" />
        <dc:format>image/svg+xml</dc:format>
        <dc:type
           rdf:resource="http://purl.org/dc/dcmitype/StillImage" />
        <dc:title>Departements of France</dc:title>
      </cc:Work>
      <cc:License
         rdf:about="http://web.resource.org/cc/PublicDomain">
        <cc:permits
           rdf:resource="http://web.resource.org/cc/Reproduction" />
        <cc:permits
           rdf:resource="http://web.resource.org/cc/Distribution" />
        <cc:permits
           rdf:resource="http://web.resource.org/cc/DerivativeWorks" />
      </cc:License>
    </rdf:RDF>
  </metadata>
  <style
     type="text/css"
     id="style6"><![CDATA[
.land
{
	stroke:white;
	stroke-width:0;
}
]]></style>
  <g
     id="complete_map"
     transform="translate(-21.640624,-30.703124)">
    <path
       d="m 317.8125,326.34375 -1.40625,0.71875 v 1.21875 l -2.125,0.1875 -1.9375,1.59375 -3.53125,0.53125 L 308,331.75 l 0.625,0.0625 0.875,2.5 h 4.4375 l 0.875,3.15625 1.25,1.25 0.34375,3.71875 1.0625,1.40625 2.125,0.1875 -1.25,1.0625 -1.0625,0.34375 0.90625,0.875 -1.0625,1.59375 2.125,1.25 1.0625,1.59375 v 1.65625 l 0.46875,-0.15625 3.53125,9 5.0625,-1.5625 0.375,-2.34375 h 1.96875 l 0.78125,2.71875 3.625,-0.875 4.5,5.75 2.8125,-4.46875 L 348.5,356.75 h 4.6875 l 1.5625,-4.875 3.125,-0.21875 0.21875,-3.6875 H 361 l -0.5625,-1.375 -0.78125,-2.53125 1.15625,-1.96875 2.75,-1.15625 1.15625,-4.6875 -2.53125,-2.9375 -3.125,0.1875 0.375,-3.71875 -6.25,-2.71875 -2.125,0.1875 -4.3125,3.53125 -3.9375,-1.28125 -0.78125,0.75 -2.46875,-0.71875 -1.75,-1.78125 -1.0625,2.125 -3.03125,-0.15625 -1.40625,-1.25 -1.0625,2.46875 -1.9375,-0.875 -1.25,-2.3125 h -1.59375 l -1.40625,-1.21875 -2.125,0.875 -2.46875,0.1875 -1.40625,-0.90625 -0.875,0.53125 z"
       class="land departement43"
       id="departement"
       transform="translate(-286.35937,-295.64062)" />
    <rect
       x="0"
       y="0"
       width="100"
       height="100"
       style="fill:none"
       id="rect9" />
  </g>
</svg>
