<?xml version="1.0" encoding="UTF-8" standalone="no"?>
<svg
   version="1.0"
   width="49.1875"
   height="47.4375"
   id="svg2"
   xmlns="http://www.w3.org/2000/svg"
   xmlns:svg="http://www.w3.org/2000/svg"
   xmlns:rdf="http://www.w3.org/1999/02/22-rdf-syntax-ns#"
   xmlns:cc="http://creativecommons.org/ns#"
   xmlns:dc="http://purl.org/dc/elements/1.1/">
  <defs
     id="defs4">
    <clipPath
       id="clipPath3345">
      <rect
         width="109"
         height="80"
         x="222"
         y="101"
         id="rect2227" />
    </clipPath>
  </defs>
  <metadata
     id="metadata2027">
    <rdf:RDF>
      <cc:Work
         rdf:about="">
        <cc:license
           rdf:resource="http://web.resource.org/cc/PublicDomain" />
        <dc:format>image/svg+xml</dc:format>
        <dc:type
           rdf:resource="http://purl.org/dc/dcmitype/StillImage" />
        <dc:title>Departements of France</dc:title>
      </cc:Work>
      <cc:License
         rdf:about="http://web.resource.org/cc/PublicDomain">
        <cc:permits
           rdf:resource="http://web.resource.org/cc/Reproduction" />
        <cc:permits
           rdf:resource="http://web.resource.org/cc/Distribution" />
        <cc:permits
           rdf:resource="http://web.resource.org/cc/DerivativeWorks" />
      </cc:License>
    </rdf:RDF>
  </metadata>
  <style
     type="text/css"
     id="style6"><![CDATA[
.land
{
	stroke:white;
	stroke-width:0;
}
]]></style>
  <g
     id="complete_map"
     transform="translate(-25.406249,-26.281249)">
    <path
       d="m 247.46875,347.3125 -4.15625,1.9375 -0.59375,0.0937 0.125,0.1875 -1.34375,1.15625 v 2.15625 l 1.75,1.9375 -1.75,3.125 -1.5625,1 -0.21875,1.9375 -3.3125,0.40625 0.1875,2.125 1.1875,0.40625 -2.75,3.90625 -4.28125,0.375 -0.1875,2.9375 -1.78125,1.75 -0.96875,2.5625 -3.90625,0.1875 1.5625,5.84375 1.65625,3.625 2.5,-0.0937 0.15625,1.03125 -1.40625,1.59375 1.0625,2.125 h 1.59375 l 1.75,1.9375 h 1.59375 l 1.25,-1.40625 0.34375,0.375 v 1.75 l 0.53125,2.3125 3.71875,0.15625 3,-3.1875 1.59375,-0.15625 0.53125,0.875 0.875,1.9375 h 1.4375 l 0.53125,-3.53125 3,0.375 1.75,-2.125 2.84375,0.6875 4.25,-1.9375 0.0312,0.375 1.375,-1.4375 -1.78125,-2.65625 -0.6875,-3.53125 2.28125,-1.9375 1.0625,0.34375 3.1875,-3.53125 1.75,0.1875 0.71875,-0.90625 H 271.5 l 1.25,-1.40625 0.34375,-1.09375 -1.59375,-0.21875 1.09375,-3.3125 -2.5,-1.09375 2.5,-5.8125 -3.3125,-2.46875 -1.125,-7.1875 -3.03125,-0.8125 -2.21875,2.1875 -1.09375,-1.9375 -3.3125,3.3125 -2.21875,0.28125 -3.84375,-5.5 z"
       class="land departement46"
       id="departement"
       transform="translate(-198.5,-321.03125)" />
    <rect
       x="0"
       y="0"
       width="100"
       height="100"
       style="fill:none"
       id="rect9" />
  </g>
</svg>
