<?xml version="1.0" encoding="UTF-8" standalone="no"?>
<svg
   version="1.0"
   width="61.75"
   height="73.03125"
   id="svg2"
   xmlns="http://www.w3.org/2000/svg"
   xmlns:svg="http://www.w3.org/2000/svg"
   xmlns:rdf="http://www.w3.org/1999/02/22-rdf-syntax-ns#"
   xmlns:cc="http://creativecommons.org/ns#"
   xmlns:dc="http://purl.org/dc/elements/1.1/">
  <defs
     id="defs4">
    <clipPath
       id="clipPath3345">
      <rect
         width="109"
         height="80"
         x="222"
         y="101"
         id="rect2227" />
    </clipPath>
  </defs>
  <metadata
     id="metadata2027">
    <rdf:RDF>
      <cc:Work
         rdf:about="">
        <cc:license
           rdf:resource="http://web.resource.org/cc/PublicDomain" />
        <dc:format>image/svg+xml</dc:format>
        <dc:type
           rdf:resource="http://purl.org/dc/dcmitype/StillImage" />
        <dc:title>Departements of France</dc:title>
      </cc:Work>
      <cc:License
         rdf:about="http://web.resource.org/cc/PublicDomain">
        <cc:permits
           rdf:resource="http://web.resource.org/cc/Reproduction" />
        <cc:permits
           rdf:resource="http://web.resource.org/cc/Distribution" />
        <cc:permits
           rdf:resource="http://web.resource.org/cc/DerivativeWorks" />
      </cc:License>
    </rdf:RDF>
  </metadata>
  <style
     type="text/css"
     id="style6"><![CDATA[
.land
{
	stroke:white;
	stroke-width:0;
}
]]></style>
  <g
     id="complete_map"
     transform="translate(-19.124999,-13.484374)">
    <path
       d="m 149.3125,270.625 -2.75,0.1875 -5.96875,3.625 1.4375,1.3125 -3.125,2.53125 -0.375,1.96875 -2.9375,0.375 -1.5625,-1.75 -3.90625,-0.375 -0.40625,-1.96875 -2.34375,-1.5625 -3.3125,1.1875 2.15625,3.125 h 2.71875 l 2.75,1.75 2.15625,1.75 4.09375,-0.1875 0.78125,1.75 2.71875,0.59375 1,2.71875 1.75,0.78125 -0.1875,2.15625 -2.34375,-0.375 -0.78125,1.15625 1.75,2.53125 -0.96875,4.3125 -2.34375,-0.1875 0.1875,2.71875 0.59375,0.96875 h -2.75 l -0.375,-1.5625 1.75,-2.34375 -0.59375,-1.34375 -0.96875,-0.78125 L 136.75,291 l -3.3125,-0.40625 -2.71875,-3.3125 -0.40625,6.84375 4.5,3.3125 0.375,3.71875 0.78125,4.28125 0.40625,4.3125 2.34375,-0.21875 4.09375,3.34375 2.75,1.5625 0.1875,1.9375 2.15625,0.40625 6.25,6.25 1.46875,6.75 h 5.78125 l 0.96875,-0.96875 0.1875,2.9375 5.09375,0.59375 0.78125,6.25 2.75,0.1875 4.46875,4.5 2.34375,0.375 2.75,-1.375 1.9375,1.375 1.5625,-3.3125 1.5625,-2.71875 -4.15625,-2.8125 -1.28125,-1.71875 -1.71875,-1.90625 -4.03125,0.65625 -1.28125,-0.65625 -0.1875,-1.0625 2.125,-0.84375 V 328.875 l -1.5,-0.4375 -1.0625,-0.84375 2.5625,-2.125 v -1.5 L 174,322.6875 l 0.84375,-0.84375 0.4375,-2.125 -1.5,-1.46875 -1.28125,-2.125 -2.3125,-2.125 -1.71875,-1.0625 1.5,-1.71875 -0.84375,-0.1875 -0.21875,-4.46875 -1.71875,-0.65625 2.34375,-1.25 h 2.78125 l 1.25,-1.0625 h 2.34375 l 0.4375,1.0625 2.125,0.1875 1.46875,-0.625 0.4375,-4.03125 1.6875,-6.15625 0.0625,-0.0312 -1.53125,-1.46875 -0.4375,-2.125 -2.75,-1.28125 -3.625,-2.53125 -4.46875,0.40625 -2.75,-3.59375 -4.03125,-0.21875 -3.1875,-2.34375 v -1.28125 l -2.125,-2.3125 -0.0937,-2.875 -2.9375,-2.1875 -3.71875,1.5625 z"
       class="land departement17"
       id="departement"
       transform="translate(-104.9375,-257.14062)" />
    <rect
       x="0"
       y="0"
       width="100"
       height="100"
       style="fill:none"
       id="rect9" />
  </g>
</svg>
