<?xml version="1.0" encoding="UTF-8" standalone="no"?>
<svg
   version="1.0"
   width="50.71875"
   height="69"
   id="svg2"
   xmlns="http://www.w3.org/2000/svg"
   xmlns:svg="http://www.w3.org/2000/svg"
   xmlns:rdf="http://www.w3.org/1999/02/22-rdf-syntax-ns#"
   xmlns:cc="http://creativecommons.org/ns#"
   xmlns:dc="http://purl.org/dc/elements/1.1/">
  <defs
     id="defs4">
    <clipPath
       id="clipPath3345">
      <rect
         width="109"
         height="80"
         x="222"
         y="101"
         id="rect2227" />
    </clipPath>
  </defs>
  <metadata
     id="metadata2027">
    <rdf:RDF>
      <cc:Work
         rdf:about="">
        <cc:license
           rdf:resource="http://web.resource.org/cc/PublicDomain" />
        <dc:format>image/svg+xml</dc:format>
        <dc:type
           rdf:resource="http://purl.org/dc/dcmitype/StillImage" />
        <dc:title>Departements of France</dc:title>
      </cc:Work>
      <cc:License
         rdf:about="http://web.resource.org/cc/PublicDomain">
        <cc:permits
           rdf:resource="http://web.resource.org/cc/Reproduction" />
        <cc:permits
           rdf:resource="http://web.resource.org/cc/Distribution" />
        <cc:permits
           rdf:resource="http://web.resource.org/cc/DerivativeWorks" />
      </cc:License>
    </rdf:RDF>
  </metadata>
  <style
     type="text/css"
     id="style6"><![CDATA[
.land
{
	stroke:white;
	stroke-width:0;
}
]]></style>
  <g
     id="complete_map"
     transform="translate(-24.640624,-15.499999)">
    <path
       d="m 275.53125,200.84375 -2.84375,1.40625 -2.53125,2.09375 0.125,0.84375 2.53125,0.6875 1,2.125 1.53125,0.5625 -0.5625,1.25 v 2.09375 l -2.375,1 -1.84375,3.34375 -0.125,1.84375 0.6875,0.84375 0.28125,0.96875 -2.5,1.40625 -3.9375,0.40625 L 264,220.625 l -1.125,0.125 -1.125,1.25 0.125,2.53125 -2.5,0.15625 -0.15625,2.21875 -2.25,1.84375 0.28125,0.84375 1.40625,1.125 2.8125,0.40625 2.09375,-0.84375 2.65625,-0.125 1.28125,0.96875 -0.4375,2.65625 2.25,2.96875 V 238 l -0.96875,1.6875 v 0.6875 l 1.125,1.28125 h 1.8125 l 0.125,0.8125 -2.21875,1.84375 0.125,1.25 -1.40625,0.71875 0.5625,0.96875 1.8125,1.53125 v 1.125 l -1.9375,1.125 v 1.6875 L 271,254.125 l 0.5625,1.96875 1.6875,1.53125 -0.15625,0.5625 -0.6875,0.84375 -0.15625,2.53125 -0.40625,0.84375 1.125,2.21875 0.40625,1.6875 -1.96875,1.96875 -0.0937,1.5625 4.59375,-0.5625 0.9375,-2 2.53125,-2.90625 4.875,-1 2.5625,0.78125 2.71875,-2.125 -0.1875,-1.5625 -0.96875,-0.78125 v -3.125 l 5.25,-5.28125 1.96875,2.15625 1.75,-1.78125 1.5625,-0.1875 2.71875,-3.5 4.5,0.375 0.0625,1.0625 1.5,-4.78125 -0.96875,-1.75 0.1875,-2.53125 0.59375,-5.09375 -2.15625,-2.125 0.40625,-4.6875 -1.96875,-4.125 -0.1875,-2.71875 -3.53125,-2.75 L 299.5,216.5 l 1.75,-2.53125 V 210.25 l -2.03125,-2.375 -2,0.8125 -0.96875,-0.40625 -1.40625,-1.84375 -0.84375,-0.125 -0.5625,0.28125 -0.15625,2.8125 -1.25,0.125 -0.96875,-0.84375 -2.25,-3.09375 L 287.96875,204.5 284.75,204.34375 283.1875,202.375 h -1.25 l -0.5625,0.71875 -2.09375,0.28125 -1.6875,-1.5625 -1.96875,-0.84375 z"
       class="land departement18"
       id="departement"
       transform="translate(-232.32812,-185.34375)" />
    <rect
       x="0"
       y="0"
       width="100"
       height="100"
       style="fill:none"
       id="rect9" />
  </g>
</svg>
