<?xml version="1.0" encoding="UTF-8" standalone="no"?>
<svg
   version="1.0"
   width="36.375"
   height="18.031252"
   id="svg2"
   xmlns="http://www.w3.org/2000/svg"
   xmlns:svg="http://www.w3.org/2000/svg"
   xmlns:rdf="http://www.w3.org/1999/02/22-rdf-syntax-ns#"
   xmlns:cc="http://creativecommons.org/ns#"
   xmlns:dc="http://purl.org/dc/elements/1.1/">
  <defs
     id="defs4">
    <clipPath
       id="clipPath3345">
      <rect
         width="109"
         height="80"
         x="222"
         y="101"
         id="rect2227" />
    </clipPath>
  </defs>
  <metadata
     id="metadata2027">
    <rdf:RDF>
      <cc:Work
         rdf:about="">
        <cc:license
           rdf:resource="http://web.resource.org/cc/PublicDomain" />
        <dc:format>image/svg+xml</dc:format>
        <dc:type
           rdf:resource="http://purl.org/dc/dcmitype/StillImage" />
        <dc:title>Departements of France</dc:title>
      </cc:Work>
      <cc:License
         rdf:about="http://web.resource.org/cc/PublicDomain">
        <cc:permits
           rdf:resource="http://web.resource.org/cc/Reproduction" />
        <cc:permits
           rdf:resource="http://web.resource.org/cc/Distribution" />
        <cc:permits
           rdf:resource="http://web.resource.org/cc/DerivativeWorks" />
      </cc:License>
    </rdf:RDF>
  </metadata>
  <style
     type="text/css"
     id="style6"><![CDATA[
.land
{
	stroke:white;
	stroke-width:0;
}
]]></style>
  <g
     id="complete_map"
     transform="translate(-31.812499,-40.984374)">
    <path
       d="M 255.5625,109.6875 254,111.625 l -1.1875,4.3125 -1.3125,2.21875 4.75,2.125 3.625,-0.65625 4.5,2.875 4.8125,0.21875 3.40625,2.0625 0.875,2.875 -0.0312,0.0625 0.375,-0.0625 3.5,-1.875 5.25,-0.34375 2.875,-1.3125 1.84375,-1.3125 0.59375,-3.84375 -1.28125,-1.28125 -4.28125,-2.53125 -4.125,-2.15625 -2.125,0.96875 -2.34375,0.59375 -1.5625,-1.1875 -3.125,-1.9375 -2.53125,1.9375 -3.71875,0.40625 -5.28125,-0.40625 -1.1875,-1.9375 z"
       class="land departement95"
       id="departement"
       transform="translate(-219.6875,-68.703125)" />
    <rect
       x="0"
       y="0"
       width="100"
       height="100"
       style="fill:none"
       id="rect9" />
  </g>
</svg>
