<?xml version="1.0" encoding="UTF-8" standalone="no"?>
<svg
   version="1.0"
   width="59.28125"
   height="55.90625"
   id="svg2"
   xmlns="http://www.w3.org/2000/svg"
   xmlns:svg="http://www.w3.org/2000/svg"
   xmlns:rdf="http://www.w3.org/1999/02/22-rdf-syntax-ns#"
   xmlns:cc="http://creativecommons.org/ns#"
   xmlns:dc="http://purl.org/dc/elements/1.1/">
  <defs
     id="defs4">
    <clipPath
       id="clipPath3345">
      <rect
         width="109"
         height="80"
         x="222"
         y="101"
         id="rect2227" />
    </clipPath>
  </defs>
  <metadata
     id="metadata2027">
    <rdf:RDF>
      <cc:Work
         rdf:about="">
        <cc:license
           rdf:resource="http://web.resource.org/cc/PublicDomain" />
        <dc:format>image/svg+xml</dc:format>
        <dc:type
           rdf:resource="http://purl.org/dc/dcmitype/StillImage" />
        <dc:title>Departements of France</dc:title>
      </cc:Work>
      <cc:License
         rdf:about="http://web.resource.org/cc/PublicDomain">
        <cc:permits
           rdf:resource="http://web.resource.org/cc/Reproduction" />
        <cc:permits
           rdf:resource="http://web.resource.org/cc/Distribution" />
        <cc:permits
           rdf:resource="http://web.resource.org/cc/DerivativeWorks" />
      </cc:License>
    </rdf:RDF>
  </metadata>
  <style
     type="text/css"
     id="style6"><![CDATA[
.land
{
	stroke:white;
	stroke-width:0;
}
]]></style>
  <g
     id="complete_map"
     transform="translate(-249.78125,-8.6562494)">
    <path
       d="m 269.25,8.65625 -10.8125,2.0625 -8.59375,6.625 v 26.375 l -0.0625,0.78125 3.03125,0.71875 0.96875,2.15625 2.34375,-0.59375 1.375,-1.75 1.75,0.59375 3.71875,2.90625 1.375,-0.5625 0.96875,2.34375 3.5,1.5625 v 1.9375 l 2.5625,0.96875 2.53125,-0.96875 4.875,-0.59375 1.1875,1 2.34375,-1 1.15625,1.96875 -2.90625,1.9375 v 2.75 l 0.96875,0.96875 0.78125,-0.1875 0.5625,-1.5625 1.78125,-1.1875 1.75,1.375 4.09375,1.375 h 1.75 V 58.6875 l 2.5625,1.78125 0.1875,1.5625 -1.1875,1.75 2.15625,-1.1875 1.78125,-0.78125 0.75,1.375 v 1.375 L 301.4375,63 h 4.6875 l 0.1875,0.1875 1.15625,-2.21875 -0.59375,-1 -1.78125,-0.375 H 303.125 L 301.9375,59.1875 303.90625,58 305.6875,58.1875 307.46875,58 l 0.21875,-3.1875 1.1875,-0.78125 0.1875,-1.78125 -2.1875,-1.40625 -2.5625,-0.1875 -0.59375,-0.40625 1.59375,-1.1875 0.375,-1.1875 -1.375,-0.96875 -2,-2.40625 0.21875,-1.1875 2.5625,-1.1875 0.40625,-1.375 -1.78125,-0.8125 -1,-2.5625 -3.5625,-0.40625 L 295.59375,36 295.1875,32.03125 297.75,30.4375 l -0.96875,-2 h -2 l -1.375,2.1875 -6.15625,-0.375 -4.96875,-1.21875 -2.75,-2.96875 v -2.375 l 2.15625,-1 -1.78125,-1.375 -4.34375,-0.1875 -2.59375,-6.5625 z"
       class="land departement62"
       id="departement" />
    <rect
       x="0"
       y="0"
       width="100"
       height="100"
       style="fill:none"
       id="rect9" />
  </g>
</svg>
