<?xml version="1.0" encoding="UTF-8" standalone="no"?>
<svg
   version="1.0"
   width="59.28125"
   height="37.65625"
   id="svg2"
   xmlns="http://www.w3.org/2000/svg"
   xmlns:svg="http://www.w3.org/2000/svg"
   xmlns:rdf="http://www.w3.org/1999/02/22-rdf-syntax-ns#"
   xmlns:cc="http://creativecommons.org/ns#"
   xmlns:dc="http://purl.org/dc/elements/1.1/">
  <defs
     id="defs4">
    <clipPath
       id="clipPath3345">
      <rect
         width="109"
         height="80"
         x="222"
         y="101"
         id="rect2227" />
    </clipPath>
  </defs>
  <metadata
     id="metadata2027">
    <rdf:RDF>
      <cc:Work
         rdf:about="">
        <cc:license
           rdf:resource="http://web.resource.org/cc/PublicDomain" />
        <dc:format>image/svg+xml</dc:format>
        <dc:type
           rdf:resource="http://purl.org/dc/dcmitype/StillImage" />
        <dc:title>Departements of France</dc:title>
      </cc:Work>
      <cc:License
         rdf:about="http://web.resource.org/cc/PublicDomain">
        <cc:permits
           rdf:resource="http://web.resource.org/cc/Reproduction" />
        <cc:permits
           rdf:resource="http://web.resource.org/cc/Distribution" />
        <cc:permits
           rdf:resource="http://web.resource.org/cc/DerivativeWorks" />
      </cc:License>
    </rdf:RDF>
  </metadata>
  <style
     type="text/css"
     id="style6"><![CDATA[
.land
{
	stroke:white;
	stroke-width:0;
}
]]></style>
  <g
     id="complete_map"
     transform="translate(-20.359374,-31.171874)">
    <path
       d="m 202.65625,97.78125 -4.5625,0.8125 -7.4375,4.3125 -8.375,3.3125 -6.65625,-3.71875 -16,-2.34375 -3.71875,-1.9375 -5.78125,1.46875 0.34375,2.15625 -1.125,1.125 0.15625,1.59375 3.71875,3.71875 2.25,1.28125 1.625,-2.09375 1.28125,1.625 -1.625,2.09375 1.46875,2.40625 -0.65625,0.8125 1.125,2.28125 -0.625,2.5625 -1.625,2.59375 -2.59375,1.59375 -1.4375,-1.125 -1.4375,1.28125 1.59375,1.46875 -1.28125,2.40625 -3.0625,1.125 3.71875,4.6875 3.6875,0.3125 2.84375,1.84375 3.9375,-1.1875 2.90625,-3.375 4.03125,1.125 3.53125,-2.4375 2.125,-0.78125 2.25,2.25 3.71875,-0.65625 3.21875,1.78125 4.03125,-1.28125 3.6875,-2.75 2.4375,-2.75 1.625,-0.3125 0.46875,2.09375 1.28125,-0.3125 0.15625,-1.46875 3.71875,-0.625 1.28125,0.78125 3.96875,-0.875 L 207.5,122.75 207.3125,121 l -1.96875,-0.78125 -0.1875,-1.375 1.75,-1.15625 0.21875,-1.96875 -1.1875,-4.6875 -2.34375,-3.3125 1.96875,-1.15625 v -0.78125 l -1.96875,-0.59375 z"
       class="land departement14"
       id="departement"
       transform="translate(-127.85938,-66.609375)" />
    <rect
       x="0"
       y="0"
       width="100"
       height="100"
       style="fill:none"
       id="rect9" />
  </g>
</svg>
