<?xml version="1.0" encoding="UTF-8" standalone="no"?>
<svg
   version="1.0"
   width="67.71875"
   height="47.84375"
   id="svg2"
   xmlns="http://www.w3.org/2000/svg"
   xmlns:svg="http://www.w3.org/2000/svg"
   xmlns:rdf="http://www.w3.org/1999/02/22-rdf-syntax-ns#"
   xmlns:cc="http://creativecommons.org/ns#"
   xmlns:dc="http://purl.org/dc/elements/1.1/">
  <defs
     id="defs4">
    <clipPath
       id="clipPath3345">
      <rect
         width="109"
         height="80"
         x="222"
         y="101"
         id="rect2227" />
    </clipPath>
  </defs>
  <metadata
     id="metadata2027">
    <rdf:RDF>
      <cc:Work
         rdf:about="">
        <cc:license
           rdf:resource="http://web.resource.org/cc/PublicDomain" />
        <dc:format>image/svg+xml</dc:format>
        <dc:type
           rdf:resource="http://purl.org/dc/dcmitype/StillImage" />
        <dc:title>Departements of France</dc:title>
      </cc:Work>
      <cc:License
         rdf:about="http://web.resource.org/cc/PublicDomain">
        <cc:permits
           rdf:resource="http://web.resource.org/cc/Reproduction" />
        <cc:permits
           rdf:resource="http://web.resource.org/cc/Distribution" />
        <cc:permits
           rdf:resource="http://web.resource.org/cc/DerivativeWorks" />
      </cc:License>
    </rdf:RDF>
  </metadata>
  <style
     type="text/css"
     id="style6"><![CDATA[
.land
{
	stroke:white;
	stroke-width:0;
}
]]></style>
  <g
     id="complete_map"
     transform="translate(-16.140624,-26.078124)">
    <path
       d="m 301.625,247.96875 -2.71875,3.5 -1.5625,0.1875 -1.75,1.78125 -1.96875,-2.15625 -5.25,5.28125 v 3.125 l 0.96875,0.78125 0.1875,1.5625 -2.71875,2.125 -2.5625,-0.78125 -4.875,1 -2.53125,2.90625 -0.9375,2 0.15625,-0.0312 2.34375,3.3125 v 2.34375 l 1.34375,1.75 1.375,-1.75 1.5625,2.75 2.15625,0.78125 L 287,283.5 l 0.0937,1.46875 2.96875,2.3125 1.59375,-0.71875 1.25,-3 1.21875,-0.34375 V 281.625 l 2.125,-0.1875 0.1875,1.0625 2.65625,-3 h 3 l 0.53125,1.0625 -1.40625,1.9375 2.09375,2.3125 0.375,1.40625 4.9375,2.84375 6,0.875 1.78125,-0.1875 2.65625,0.53125 2.28125,-1.40625 1.78125,0.875 0.34375,2.46875 2.3125,0.53125 3,-0.15625 0.875,2.125 2.75,1.09375 0.0937,-0.96875 4.6875,-0.21875 -0.375,-11.125 -1.375,-2.71875 0.5625,-2.15625 3.25,-0.5625 0.0937,-0.21875 4.09375,-3.125 0.1875,-7.625 -1.375,-1.9375 h -3.125 l -1.15625,-1.5625 h -3.3125 l -0.96875,-1.1875 v -2.9375 l -3.9375,-7.40625 -1.9375,-1.375 -3.71875,5.09375 -1.5625,0.375 -0.59375,-2.53125 -1.75,-0.78125 -0.78125,1.5625 H 316.5 l -0.40625,-1.75 L 314.125,253.8125 312,255 l -2.34375,-2.5625 -3.34375,-1.5625 -0.1875,-2.53125 z"
       class="land departement03"
       id="departement"
       transform="translate(-259.76562,-221.89062)" />
    <rect
       x="0"
       y="0"
       width="100"
       height="100"
       style="fill:none"
       id="rect9" />
  </g>
</svg>
