<?xml version="1.0" encoding="UTF-8" standalone="no"?>
<svg
   version="1.0"
   width="65.59375"
   height="56.125"
   id="svg2"
   xmlns="http://www.w3.org/2000/svg"
   xmlns:svg="http://www.w3.org/2000/svg"
   xmlns:rdf="http://www.w3.org/1999/02/22-rdf-syntax-ns#"
   xmlns:cc="http://creativecommons.org/ns#"
   xmlns:dc="http://purl.org/dc/elements/1.1/">
  <defs
     id="defs4">
    <clipPath
       id="clipPath3345">
      <rect
         width="109"
         height="80"
         x="222"
         y="101"
         id="rect2227" />
    </clipPath>
  </defs>
  <metadata
     id="metadata2027">
    <rdf:RDF>
      <cc:Work
         rdf:about="">
        <cc:license
           rdf:resource="http://web.resource.org/cc/PublicDomain" />
        <dc:format>image/svg+xml</dc:format>
        <dc:type
           rdf:resource="http://purl.org/dc/dcmitype/StillImage" />
        <dc:title>Departements of France</dc:title>
      </cc:Work>
      <cc:License
         rdf:about="http://web.resource.org/cc/PublicDomain">
        <cc:permits
           rdf:resource="http://web.resource.org/cc/Reproduction" />
        <cc:permits
           rdf:resource="http://web.resource.org/cc/Distribution" />
        <cc:permits
           rdf:resource="http://web.resource.org/cc/DerivativeWorks" />
      </cc:License>
    </rdf:RDF>
  </metadata>
  <style
     type="text/css"
     id="style6"><![CDATA[
.land
{
	stroke:white;
	stroke-width:0;
}
]]></style>
  <g
     id="complete_map"
     transform="translate(-17.203124,-21.937499)">
    <path
       d="m 447.34375,339.15625 -1.75,0.78125 -0.40625,2.9375 -3.5,0.40625 -0.59375,-2.75 -1.15625,-1.15625 -3.53125,0.375 -1.375,1.1875 -0.78125,4.09375 0.59375,0.96875 4.09375,0.40625 0.78125,2.53125 1.5625,0.78125 V 354 l -3.71875,-0.1875 -1.5625,1.75 -4.46875,-0.78125 -2.53125,2.15625 -1.78125,-0.78125 -2.53125,1.96875 0.96875,1.75 -1.5625,1.5625 h -4.875 v 2.34375 l 1.5625,0.78125 -0.59375,1.375 -3.3125,1.34375 -4.09375,0.40625 -1.1875,3.71875 -0.1875,2.34375 2.15625,1.75 -2.15625,2.53125 -2.71875,-1.375 -3.125,-0.1875 -0.40625,1.75 1.96875,1.375 -2.375,1.5625 0.8125,3.3125 6.625,1.78125 1.1875,2.53125 1.9375,0.375 -0.65625,6.09375 0.0312,0.0312 3,-2.8125 h 3.5625 l 1.40625,0.875 1.9375,-0.71875 -3,-3.34375 -0.53125,-1.59375 1.0625,-0.1875 1.9375,1.78125 h 1.25 l -0.1875,-2.84375 -1.25,-0.34375 0.53125,-1.75 2.125,-3.5625 3.375,-1.9375 L 431.5,378.5 v -1.78125 h 1.0625 l 1.9375,1.59375 v 1.25 l 3.34375,2.125 0.90625,-0.375 -0.53125,-3.34375 h -0.90625 l 0.90625,-1.25 3.6875,0.1875 1.96875,-1.40625 3,1.59375 6.34375,0.15625 1.0625,-2.65625 0.71875,-1.0625 v -1.9375 l 2.65625,-0.15625 1.0625,-2.125 3,-1.78125 2.125,-3.1875 2.53125,0.125 1.84375,-2 2.125,0.1875 v -1.75 l -2.71875,-1.375 -0.59375,-5.65625 -2.15625,-0.78125 -2.71875,0.40625 -5.09375,-2.5625 -0.78125,-5.84375 -2.90625,-0.96875 -1,-1.96875 -1.28125,-2.8125 z"
       class="land departement05"
       id="departement"
       transform="translate(-387.54687,-317.21875)" />
    <rect
       x="0"
       y="0"
       width="100"
       height="100"
       style="fill:none"
       id="rect9" />
  </g>
</svg>
