<?xml version="1.0" encoding="UTF-8" standalone="no"?>
<svg
   version="1.0"
   width="64.875"
   height="79.53125"
   id="svg2"
   xmlns="http://www.w3.org/2000/svg"
   xmlns:svg="http://www.w3.org/2000/svg"
   xmlns:rdf="http://www.w3.org/1999/02/22-rdf-syntax-ns#"
   xmlns:cc="http://creativecommons.org/ns#"
   xmlns:dc="http://purl.org/dc/elements/1.1/">
  <defs
     id="defs4">
    <clipPath
       id="clipPath3345">
      <rect
         width="109"
         height="80"
         x="222"
         y="101"
         id="rect2227" />
    </clipPath>
  </defs>
  <metadata
     id="metadata2027">
    <rdf:RDF>
      <cc:Work
         rdf:about="">
        <cc:license
           rdf:resource="http://web.resource.org/cc/PublicDomain" />
        <dc:format>image/svg+xml</dc:format>
        <dc:type
           rdf:resource="http://purl.org/dc/dcmitype/StillImage" />
        <dc:title>Departements of France</dc:title>
      </cc:Work>
      <cc:License
         rdf:about="http://web.resource.org/cc/PublicDomain">
        <cc:permits
           rdf:resource="http://web.resource.org/cc/Reproduction" />
        <cc:permits
           rdf:resource="http://web.resource.org/cc/Distribution" />
        <cc:permits
           rdf:resource="http://web.resource.org/cc/DerivativeWorks" />
      </cc:License>
    </rdf:RDF>
  </metadata>
  <style
     type="text/css"
     id="style6"><![CDATA[
.land
{
	stroke:white;
	stroke-width:0;
}
]]></style>
  <g
     id="complete_map"
     transform="translate(-17.562499,-10.234374)">
    <path
       d="m 141.25,315.21875 -3.125,4.6875 -0.96875,16.40625 -2.53125,16.59375 -1.78125,12.875 -0.1875,3.34375 1.375,-4.5 2.71875,-3.53125 3.90625,3.53125 0.40625,1.15625 1.15625,1.5625 -4.875,0.21875 -0.78125,-1.1875 -1.9375,0.78125 -0.40625,2.9375 -2.15625,2.9375 V 377.5 l -0.0312,0.1875 1.59375,-0.0625 6.1875,-3.1875 3.34375,1.21875 -0.15625,2.3125 -1.4375,1.75 1.59375,1.0625 3.375,-1.40625 2.28125,1.59375 1.4375,-0.1875 2.09375,-1.75 3.5625,-0.53125 1.21875,1.0625 1.0625,0.875 V 381.5 l -0.875,1.0625 3.1875,0.875 1.9375,1.25 0.1875,1.59375 1.75,0.15625 2.46875,2.65625 0.71875,4.4375 3.53125,1.21875 3.375,-0.15625 v -1.0625 L 174.0938,390 l 1.0625,0.34375 2,2.4375 3.125,-0.5 1.4375,-1.40625 -0.1875,-1.9375 -1.25,-1.0625 0.375,-1.96875 h 1.9375 l 1.9375,-1.21875 -0.875,-1.78125 -0.53125,-2.65625 1.40625,-2.46875 3,-4.59375 1.78125,-2.125 1.59375,-0.53125 0.34375,-1.75 -2.125,-0.1875 -0.875,-1.9375 0.6875,-1.9375 2.5,-0.53125 1.75,-0.53125 2.0625,-0.28125 -0.125,-0.0937 -0.15625,-3.875 1.9375,-1.40625 -2.46875,-1.59375 -2.46875,3 -6.03125,0.1875 -0.53125,-1.4375 -1.75,-0.875 1.40625,-1.78125 v -1.9375 L 184.34375,352.5 v -1.0625 l 1.78125,-1.0625 0.53125,-3.15625 1.0625,-2.84375 -1.0625,-1.59375 h -1.9375 l -1.03125,-1.21875 -1,2.09375 -1.9375,-1.375 -2.75,1.375 -2.34375,-0.375 -4.46875,-4.5 -2.75,-0.1875 -0.78125,-6.25 -5.09375,-0.59375 -0.1875,-2.9375 -0.96875,0.96875 H 155.625 l 0.28125,1.25 1.375,5.65625 0.375,5.65625 -0.96875,1.5625 -0.96875,-4.6875 -2.75,-10.71875 -9.96875,-9 0.21875,-4.09375 z"
       class="land departement33"
       id="departement"
       transform="translate(-114.46875,-304.98437)" />
    <rect
       x="0"
       y="0"
       width="100"
       height="100"
       style="fill:none"
       id="rect9" />
  </g>
</svg>
