<?xml version="1.0" encoding="UTF-8" standalone="no"?>
<svg
   version="1.0"
   width="47.1875"
   height="42.21875"
   id="svg2"
   xmlns="http://www.w3.org/2000/svg"
   xmlns:svg="http://www.w3.org/2000/svg"
   xmlns:rdf="http://www.w3.org/1999/02/22-rdf-syntax-ns#"
   xmlns:cc="http://creativecommons.org/ns#"
   xmlns:dc="http://purl.org/dc/elements/1.1/">
  <defs
     id="defs4">
    <clipPath
       id="clipPath3345">
      <rect
         width="109"
         height="80"
         x="222"
         y="101"
         id="rect2227" />
    </clipPath>
  </defs>
  <metadata
     id="metadata2027">
    <rdf:RDF>
      <cc:Work
         rdf:about="">
        <cc:license
           rdf:resource="http://web.resource.org/cc/PublicDomain" />
        <dc:format>image/svg+xml</dc:format>
        <dc:type
           rdf:resource="http://purl.org/dc/dcmitype/StillImage" />
        <dc:title>Departements of France</dc:title>
      </cc:Work>
      <cc:License
         rdf:about="http://web.resource.org/cc/PublicDomain">
        <cc:permits
           rdf:resource="http://web.resource.org/cc/Reproduction" />
        <cc:permits
           rdf:resource="http://web.resource.org/cc/Distribution" />
        <cc:permits
           rdf:resource="http://web.resource.org/cc/DerivativeWorks" />
      </cc:License>
    </rdf:RDF>
  </metadata>
  <style
     type="text/css"
     id="style6"><![CDATA[
.land
{
	stroke:white;
	stroke-width:0;
}
]]></style>
  <g
     id="complete_map"
     transform="translate(-26.406249,-28.890624)">
    <path
       d="m 387,381.34375 -2.75,0.21875 -2.125,3.3125 0.5625,3.5 3.3125,0.40625 -0.5625,1.5625 -2.5625,0.1875 -2.90625,2.9375 -0.78125,-0.96875 0.5625,-3.90625 -1.15625,-1.375 -5.28125,0.78125 -1.03125,2.09375 0.5625,0.3125 3.3125,5.5 v 4.4375 l 5.8125,5.78125 v 2.5 l -2.25,1.28125 0.15625,0.0625 7.0625,3 3,3.34375 1.4375,1.96875 3.875,1.75 4.59375,-0.15625 7.59375,3.15625 4.25,0.53125 5.3125,-1.21875 2.1875,-1.71875 0.28125,-1.46875 -4.0625,-4.59375 h -4.4375 v -1.59375 l 1.59375,-1.78125 V 409.25 l -3.53125,-1.75 -0.34375,-2.84375 1.9375,-0.875 v -2.46875 l -2.125,-0.375 -0.15625,-2.65625 -0.0312,-0.1875 -1.78125,-0.125 -2.9375,-2.15625 -0.78125,-2.53125 -5.46875,-0.40625 -4.09375,-0.375 -0.40625,-2.34375 1.375,-2.9375 -2.53125,2.15625 -3.90625,-0.40625 -0.78125,-1.375 2.71875,-3.6875 z"
       class="land departement84"
       id="departement"
       transform="translate(-345.875,-352.45312)" />
    <rect
       x="0"
       y="0"
       width="100"
       height="100"
       style="fill:none"
       id="rect9" />
  </g>
</svg>
