<?xml version="1.0" encoding="UTF-8" standalone="no"?>
<svg
   version="1.0"
   width="46.21875"
   height="68.875"
   id="svg2"
   xmlns="http://www.w3.org/2000/svg"
   xmlns:svg="http://www.w3.org/2000/svg"
   xmlns:rdf="http://www.w3.org/1999/02/22-rdf-syntax-ns#"
   xmlns:cc="http://creativecommons.org/ns#"
   xmlns:dc="http://purl.org/dc/elements/1.1/">
  <defs
     id="defs4">
    <clipPath
       id="clipPath3345">
      <rect
         width="109"
         height="80"
         x="222"
         y="101"
         id="rect2227" />
    </clipPath>
  </defs>
  <metadata
     id="metadata2027">
    <rdf:RDF>
      <cc:Work
         rdf:about="">
        <cc:license
           rdf:resource="http://web.resource.org/cc/PublicDomain" />
        <dc:format>image/svg+xml</dc:format>
        <dc:type
           rdf:resource="http://purl.org/dc/dcmitype/StillImage" />
        <dc:title>Departements of France</dc:title>
      </cc:Work>
      <cc:License
         rdf:about="http://web.resource.org/cc/PublicDomain">
        <cc:permits
           rdf:resource="http://web.resource.org/cc/Reproduction" />
        <cc:permits
           rdf:resource="http://web.resource.org/cc/Distribution" />
        <cc:permits
           rdf:resource="http://web.resource.org/cc/DerivativeWorks" />
      </cc:License>
    </rdf:RDF>
  </metadata>
  <style
     type="text/css"
     id="style6"><![CDATA[
.land
{
	stroke:white;
	stroke-width:0;
}
]]></style>
  <g
     id="complete_map"
     transform="translate(-26.890624,-15.562499)">
    <path
       d="m 384.9375,329.28125 -2.75,1.90625 -2.34375,0.84375 L 377.5,331.3125 v 7.96875 l 1.5,5.9375 1.0625,3.40625 1.6875,4.25 -1.0625,2.75 -1.90625,3.625 -0.4375,2.125 -1.90625,0.40625 1.0625,4.90625 v 4.21875 l -2.5625,3 -0.625,3.8125 1.0625,1.6875 -0.625,1.5 v 1.5 l 0.84375,0.1875 0.625,0.875 -0.21875,4.125 2.59375,-0.375 1.15625,1.375 -0.5625,3.90625 0.78125,0.96875 2.90625,-2.9375 2.5625,-0.1875 0.5625,-1.5625 -3.3125,-0.40625 -0.5625,-3.5 2.125,-3.3125 2.75,-0.21875 2.71875,2.5625 -2.71875,3.6875 0.78125,1.375 3.90625,0.40625 2.53125,-2.15625 -1.375,2.9375 0.40625,2.34375 4.09375,0.375 5.46875,0.40625 0.78125,2.53125 2.9375,2.15625 2.53125,0.1875 1.75,-1.5625 1,-2.9375 1.5625,1.375 1.15625,1.375 0.78125,-7.25 -1.9375,-0.375 -1.1875,-2.53125 -6.625,-1.78125 -0.8125,-3.3125 2.375,-1.5625 -1.96875,-1.375 0.40625,-1.75 3.125,0.1875 2.71875,1.375 2.15625,-2.53125 -2.15625,-1.75 0.1875,-2.34375 1.1875,-3.71875 4.09375,-0.40625 3.3125,-1.34375 0.34375,-0.78125 L 417,364.75 415.75,363.6875 413.8125,363.5 411.90625,362 409.375,360.5 h -2.78125 l -1.0625,-1.0625 -0.1875,-15.90625 H 404.6875 L 403.84375,345 401.9375,346.28125 397.46875,345 l -3.40625,-1.0625 -1.46875,0.4375 -0.4375,-1.0625 1.0625,-2.96875 -0.4375,-3 0.875,-2.125 -2.125,-2.96875 h -2.96875 z"
       class="land departement26"
       id="departement"
       transform="translate(-347.42187,-313.71875)" />
    <rect
       x="0"
       y="0"
       width="100"
       height="100"
       style="fill:none"
       id="rect9" />
  </g>
</svg>
