<?xml version="1.0" encoding="UTF-8" standalone="no"?>
<svg
   version="1.0"
   width="51.4375"
   height="43.96875"
   id="svg2"
   xmlns="http://www.w3.org/2000/svg"
   xmlns:svg="http://www.w3.org/2000/svg"
   xmlns:rdf="http://www.w3.org/1999/02/22-rdf-syntax-ns#"
   xmlns:cc="http://creativecommons.org/ns#"
   xmlns:dc="http://purl.org/dc/elements/1.1/">
  <defs
     id="defs4">
    <clipPath
       id="clipPath3345">
      <rect
         width="109"
         height="80"
         x="222"
         y="101"
         id="rect2227" />
    </clipPath>
  </defs>
  <metadata
     id="metadata2027">
    <rdf:RDF>
      <cc:Work
         rdf:about="">
        <cc:license
           rdf:resource="http://web.resource.org/cc/PublicDomain" />
        <dc:format>image/svg+xml</dc:format>
        <dc:type
           rdf:resource="http://purl.org/dc/dcmitype/StillImage" />
        <dc:title>Departements of France</dc:title>
      </cc:Work>
      <cc:License
         rdf:about="http://web.resource.org/cc/PublicDomain">
        <cc:permits
           rdf:resource="http://web.resource.org/cc/Reproduction" />
        <cc:permits
           rdf:resource="http://web.resource.org/cc/Distribution" />
        <cc:permits
           rdf:resource="http://web.resource.org/cc/DerivativeWorks" />
      </cc:License>
    </rdf:RDF>
  </metadata>
  <style
     type="text/css"
     id="style6"><![CDATA[
.land
{
	stroke:white;
	stroke-width:0;
}
]]></style>
  <g
     id="complete_map"
     transform="translate(-24.281249,-28.015624)">
    <path
       d="m 195.25,363.375 -2.0625,0.28125 -1.75,0.53125 -2.5,0.53125 -0.6875,1.9375 0.875,1.9375 2.125,0.1875 -0.34375,1.75 -1.59375,0.53125 -1.78125,2.125 -3,4.59375 -1.40625,2.46875 0.53125,2.65625 0.875,1.78125 -1.9375,1.21875 h -1.9375 l -0.375,1.96875 1.25,1.0625 0.1875,1.9375 -1.4375,1.40625 -3.125,0.5 0.46875,0.5625 0.71875,4.25 3.875,-0.34375 2.65625,1.03125 2.3125,0.1875 1.0625,1.25 -2.125,2.125 -0.53125,3.875 0.46875,1.21875 0.75,-1.5625 2.3125,1.96875 3.125,-3.125 1.375,1.9375 3.3125,-0.59375 3.53125,-0.375 1.5625,-2.75 5.84375,-0.5625 2.9375,2.90625 1,-0.96875 1.9375,-0.59375 -0.78125,-2.71875 2.9375,-0.78125 3.71875,-0.78125 -0.8125,-2.34375 1.1875,-1.375 0.96875,-3.71875 -2.15625,-2.34375 1.375,-4.46875 2.9375,1.75 4.3125,-0.78125 -1.96875,-4.3125 -1.5625,-5.84375 3.90625,-0.1875 0.78125,-2.0625 -3.0625,-1.28125 L 224.125,370.375 H 222 l -2.46875,2.28125 -1.9375,-0.15625 -0.53125,-1.25 1.40625,-0.875 v -1.25 l -1.59375,-1.75 -1.40625,-0.1875 -0.875,1.0625 h -3.90625 l -0.34375,-1.40625 -1.25,-0.1875 -2.125,1.75 h -3.875 L 201.3125,370 l -3,-1.0625 -0.34375,-3.6875 z"
       class="land departement47"
       id="departement"
       transform="translate(-152.875,-335.35937)" />
    <rect
       x="0"
       y="0"
       width="100"
       height="100"
       style="fill:none"
       id="rect9" />
  </g>
</svg>
