<?xml version="1.0" encoding="UTF-8" standalone="no"?>
<svg
   version="1.0"
   width="70.21875"
   height="56.25"
   id="svg2"
   xmlns="http://www.w3.org/2000/svg"
   xmlns:svg="http://www.w3.org/2000/svg"
   xmlns:rdf="http://www.w3.org/1999/02/22-rdf-syntax-ns#"
   xmlns:cc="http://creativecommons.org/ns#"
   xmlns:dc="http://purl.org/dc/elements/1.1/">
  <defs
     id="defs4">
    <clipPath
       id="clipPath3345">
      <rect
         width="109"
         height="80"
         x="222"
         y="101"
         id="rect2227" />
    </clipPath>
  </defs>
  <metadata
     id="metadata2027">
    <rdf:RDF>
      <cc:Work
         rdf:about="">
        <cc:license
           rdf:resource="http://web.resource.org/cc/PublicDomain" />
        <dc:format>image/svg+xml</dc:format>
        <dc:type
           rdf:resource="http://purl.org/dc/dcmitype/StillImage" />
        <dc:title>Departements of France</dc:title>
      </cc:Work>
      <cc:License
         rdf:about="http://web.resource.org/cc/PublicDomain">
        <cc:permits
           rdf:resource="http://web.resource.org/cc/Reproduction" />
        <cc:permits
           rdf:resource="http://web.resource.org/cc/Distribution" />
        <cc:permits
           rdf:resource="http://web.resource.org/cc/DerivativeWorks" />
      </cc:License>
    </rdf:RDF>
  </metadata>
  <style
     type="text/css"
     id="style6"><![CDATA[
.land
{
	stroke:white;
	stroke-width:0;
}
]]></style>
  <g
     id="complete_map"
     transform="translate(-14.890624,-21.874999)">
    <path
       d="m 351.46875,227.84375 v 0.1875 h -2.9375 l -2.375,1.40625 -1.40625,1.96875 1.125,1.6875 0.96875,0.5625 -0.6875,1.6875 -1,0.5625 -1.09375,1.53125 1.25,0.84375 -0.15625,1.96875 0.28125,2.09375 1.84375,1.125 v 0.84375 l -1.96875,1.125 v 1.25 l 1.40625,1.25 -0.15625,0.71875 L 343.5,248.5 l -0.28125,1 -1.40625,0.28125 -1.40625,1.8125 h -1.8125 L 337.1875,253 l -1.84375,0.28125 -0.96875,-2.375 -1.25,-0.15625 -3.0625,1.90625 3.625,6.8125 v 2.9375 l 0.96875,1.1875 h 3.3125 l 1.15625,1.5625 h 3.125 l 1.375,1.9375 -0.1875,7.625 -4.09375,3.125 -0.0937,0.21875 0.28125,-0.0312 0.59375,0.1875 0.1875,3.125 2.9375,0.59375 0.375,1.375 h 1.5625 l 2.34375,-1.375 6.25,0.96875 1.1875,1.1875 1.5625,-1.5625 h 2.15625 l 1.15625,-6.25 0.78125,-0.59375 h 1.9375 l 2.375,1.5625 1.75,-1.5625 1.15625,1.5625 1.78125,-1.75 2.125,-0.1875 1,3.125 0.75,3.90625 1.375,0.1875 1.1875,-2.75 3.6875,-14.4375 1.375,-2.53125 2.15625,-0.21875 2.15625,1.78125 1.5625,-0.40625 1.9375,-1.375 1.96875,0.40625 1.15625,2.53125 1.125,0.4375 5.125,-0.625 1.96875,-1.5625 -0.78125,-1.1875 -2.34375,-0.78125 -0.21875,-2.71875 1.96875,-1.375 0.78125,-3.3125 -1.75,-3.125 -1.1875,-1.5625 0.59375,-0.59375 v -1.9375 l -1.5625,-1 -0.40625,-1.5625 4.5,-0.5625 0.40625,-1.5625 h -1.375 L 397.75,241.125 h -2.15625 L 393.8125,238.1875 392.25,238 l 0.1875,-2.34375 -1.6875,-0.1875 -2.25,1.53125 -2.25,0.5625 -1.53125,-0.96875 -1.96875,-0.125 -0.5625,0.8125 -1.8125,0.28125 -4.0625,1.28125 -5.90625,2.09375 -2.25,-1.8125 -2.65625,-0.5625 -0.125,-2.375 -2.53125,-1.84375 -3.5,-2.65625 -3.9375,0.125 -3.78125,-3.90625 z"
       class="land departement71"
       id="departement"
       transform="translate(-315.17187,-205.96875)" />
    <rect
       x="0"
       y="0"
       width="100"
       height="100"
       style="fill:none"
       id="rect9" />
  </g>
</svg>
