<?xml version="1.0" encoding="UTF-8" standalone="no"?>
<svg
   version="1.0"
   width="62.46875"
   height="45.03125"
   id="svg2"
   xmlns="http://www.w3.org/2000/svg"
   xmlns:svg="http://www.w3.org/2000/svg"
   xmlns:rdf="http://www.w3.org/1999/02/22-rdf-syntax-ns#"
   xmlns:cc="http://creativecommons.org/ns#"
   xmlns:dc="http://purl.org/dc/elements/1.1/">
  <defs
     id="defs4">
    <clipPath
       id="clipPath3345">
      <rect
         width="109"
         height="80"
         x="222"
         y="101"
         id="rect2227" />
    </clipPath>
  </defs>
  <metadata
     id="metadata2027">
    <rdf:RDF>
      <cc:Work
         rdf:about="">
        <cc:license
           rdf:resource="http://web.resource.org/cc/PublicDomain" />
        <dc:format>image/svg+xml</dc:format>
        <dc:type
           rdf:resource="http://purl.org/dc/dcmitype/StillImage" />
        <dc:title>Departements of France</dc:title>
      </cc:Work>
      <cc:License
         rdf:about="http://web.resource.org/cc/PublicDomain">
        <cc:permits
           rdf:resource="http://web.resource.org/cc/Reproduction" />
        <cc:permits
           rdf:resource="http://web.resource.org/cc/Distribution" />
        <cc:permits
           rdf:resource="http://web.resource.org/cc/DerivativeWorks" />
      </cc:License>
    </rdf:RDF>
  </metadata>
  <style
     type="text/css"
     id="style6"><![CDATA[
.land
{
	stroke:white;
	stroke-width:0;
}
]]></style>
  <g
     id="complete_map"
     transform="translate(-18.765624,-27.484375)">
    <path
       d="m 274.25,438.46875 -0.28125,3.59375 -3.59375,-1.125 H 266.5 l 0.28125,-1.375 -1.9375,0.28125 -4.125,1.375 -1.375,-2.5 -2.78125,2.5 0.84375,1.9375 -3.0625,1.375 -0.53125,3.03125 -2.5,1.125 2.21875,2.46875 -0.5625,1.65625 9.6875,4.6875 0.8125,6.65625 V 467.75 l 0.5625,4.6875 h -4.96875 l -1.375,1.9375 6.34375,5.25 3.59375,-1.9375 4.40625,5.25 -0.65625,0.0625 0.84375,0.5 7.9375,-3.875 -1.9375,-2.84375 -0.15625,-3.34375 h 18.53125 l -0.34375,-2.5 4.25,-2.28125 4.9375,3.875 2.5625,1.1875 -0.15625,-5.59375 0.21875,-6.4375 -2.34375,0.1875 -1.96875,-2.90625 1.5625,-2.5625 3.3125,3.125 2.9375,-2.34375 1.96875,-1.9375 0.25,-2.0625 -2.5,-0.0937 -0.875,-2.8125 -2.46875,-0.1875 -2.3125,-3.375 -1.78125,0.1875 -2.09375,-1.25 -0.375,-3 -1.0625,0.53125 0.53125,2.125 H 298.375 l -0.1875,3.53125 -3.6875,1.25 -1.78125,-3.71875 -2.46875,1.59375 -2.125,-1.59375 -1.0625,-2.46875 1.78125,-2.125 L 288,439.5 l -0.21875,0.0625 h -5.8125 l -6.0625,-1.09375 z"
       class="land departement11"
       id="departement"
       transform="translate(-232.54687,-410.98437)" />
    <rect
       x="0"
       y="0"
       width="100"
       height="100"
       style="fill:none"
       id="rect9" />
  </g>
</svg>
