<?xml version="1.0" encoding="UTF-8" standalone="no"?>
<svg
   version="1.0"
   width="58.28125"
   height="45.1875"
   id="svg2"
   xmlns="http://www.w3.org/2000/svg"
   xmlns:svg="http://www.w3.org/2000/svg"
   xmlns:rdf="http://www.w3.org/1999/02/22-rdf-syntax-ns#"
   xmlns:cc="http://creativecommons.org/ns#"
   xmlns:dc="http://purl.org/dc/elements/1.1/">
  <defs
     id="defs4">
    <clipPath
       id="clipPath3345">
      <rect
         width="109"
         height="80"
         x="222"
         y="101"
         id="rect2227" />
    </clipPath>
  </defs>
  <metadata
     id="metadata2027">
    <rdf:RDF>
      <cc:Work
         rdf:about="">
        <cc:license
           rdf:resource="http://web.resource.org/cc/PublicDomain" />
        <dc:format>image/svg+xml</dc:format>
        <dc:type
           rdf:resource="http://purl.org/dc/dcmitype/StillImage" />
        <dc:title>Departements of France</dc:title>
      </cc:Work>
      <cc:License
         rdf:about="http://web.resource.org/cc/PublicDomain">
        <cc:permits
           rdf:resource="http://web.resource.org/cc/Reproduction" />
        <cc:permits
           rdf:resource="http://web.resource.org/cc/Distribution" />
        <cc:permits
           rdf:resource="http://web.resource.org/cc/DerivativeWorks" />
      </cc:License>
    </rdf:RDF>
  </metadata>
  <style
     type="text/css"
     id="style6"><![CDATA[
.land
{
	stroke:white;
	stroke-width:0;
}
]]></style>
  <g
     id="complete_map"
     transform="translate(-20.859374,-27.406249)">
    <path
       d="m 270.8125,396.875 -3.375,0.1875 -2.28125,2.28125 -0.71875,-1.59375 -1.59375,0.90625 -0.15625,-0.375 -0.90625,0.90625 -2.8125,1.0625 -2.3125,1.40625 -6,0.71875 -0.71875,3 h 2.3125 l -2.3125,2.125 -1.0625,1.9375 h -3.34375 l 1.75,1.9375 -1,1.65625 0.3125,0.125 0.875,2.625 2.125,2.5 0.53125,0.34375 0.15625,2.46875 1.78125,2.84375 1.40625,1.59375 v 1.9375 L 252.0625,428 l 1.0625,1.59375 4.59375,1.9375 0.875,1.25 2.3125,2.8125 2.65625,0.71875 2.125,-0.375 v 2.5 l -0.0625,1.28125 1.15625,-0.15625 -0.28125,1.375 h 3.875 l 3.59375,1.125 0.28125,-3.59375 h 1.65625 l 6.0625,1.09375 h 5.8125 l 4.40625,-1.375 1.125,-3.59375 -3.03125,-2.78125 0.8125,-2.75 1.65625,-2.46875 2.75,1.90625 7.1875,-2.46875 1.125,-2.21875 -3.65625,-2.34375 -1.59375,-0.375 -1.0625,1.40625 -2.125,0.53125 -3.375,-1.75 -3.53125,-4.59375 V 414.75 l -1.9375,-3.5625 0.1875,-1.59375 -1.59375,-4.0625 -3,-1.40625 -2.125,-3.71875 -5.84375,-1.0625 z"
       class="land departement81"
       id="departement"
       transform="translate(-224.67187,-369.46875)" />
    <rect
       x="0"
       y="0"
       width="100"
       height="100"
       style="fill:none"
       id="rect9" />
  </g>
</svg>
