<?xml version="1.0" encoding="UTF-8" standalone="no"?>
<svg
   version="1.0"
   width="43.656254"
   height="58.125"
   id="svg2"
   xmlns="http://www.w3.org/2000/svg"
   xmlns:svg="http://www.w3.org/2000/svg"
   xmlns:rdf="http://www.w3.org/1999/02/22-rdf-syntax-ns#"
   xmlns:cc="http://creativecommons.org/ns#"
   xmlns:dc="http://purl.org/dc/elements/1.1/">
  <defs
     id="defs4">
    <clipPath
       id="clipPath3345">
      <rect
         width="109"
         height="80"
         x="222"
         y="101"
         id="rect2227" />
    </clipPath>
  </defs>
  <metadata
     id="metadata2027">
    <rdf:RDF>
      <cc:Work
         rdf:about="">
        <cc:license
           rdf:resource="http://web.resource.org/cc/PublicDomain" />
        <dc:format>image/svg+xml</dc:format>
        <dc:type
           rdf:resource="http://purl.org/dc/dcmitype/StillImage" />
        <dc:title>Departements of France</dc:title>
      </cc:Work>
      <cc:License
         rdf:about="http://web.resource.org/cc/PublicDomain">
        <cc:permits
           rdf:resource="http://web.resource.org/cc/Reproduction" />
        <cc:permits
           rdf:resource="http://web.resource.org/cc/Distribution" />
        <cc:permits
           rdf:resource="http://web.resource.org/cc/DerivativeWorks" />
      </cc:License>
    </rdf:RDF>
  </metadata>
  <style
     type="text/css"
     id="style6"><![CDATA[
.land
{
	stroke:white;
	stroke-width:0;
}
]]></style>
  <g
     id="complete_map"
     transform="translate(-28.171874,-20.937499)">
    <path
       d="M 339.53125,278.03125 336,278.625 l -0.5625,2.15625 1.375,2.71875 0.375,11.125 -4.6875,0.21875 -0.1875,1.75 3.125,2.53125 -1.75,1.75 -0.59375,4.3125 2.34375,3.125 2.125,5.0625 5.09375,3.34375 1.75,6.4375 -3.71875,3.5 0.59375,2.34375 5.46875,1.78125 4.3125,-3.53125 2.125,-0.1875 6.25,2.71875 -0.375,3.71875 3.125,-0.1875 2.46875,2.84375 1.8125,-0.5 3.375,-0.625 0.875,-3.84375 4.65625,-2.75 0.4375,-6.15625 0.15625,-0.0937 -2.28125,-0.34375 -2.125,0.84375 -1.71875,-1.0625 2.125,-2.53125 -0.625,-1.90625 -6.59375,-1.0625 -5.53125,-5.09375 v -1.7188 L 360.5,308.25 v -1.46875 l -1.46875,-0.875 1.25,-1.90625 v -2.75 L 357.75,298.90625 v -2.34375 l -1.71875,-1.6875 v -1.90625 l -0.84375,-3.1875 1.28125,-1.28125 0.21875,-3.8125 h 4.03125 l 1.0625,-1.28125 -1.28125,-2.125 V 279.375 l -1.0625,-0.84375 -0.75,4 h -2.15625 l -1.5625,1.5625 -1.1875,-1.1875 -6.25,-0.96875 -2.34375,1.375 h -1.5625 l -0.375,-1.375 -2.9375,-0.59375 -0.1875,-3.125 z"
       class="land departement42"
       id="departement"
       transform="translate(-304.14062,-257.09375)" />
    <rect
       x="0"
       y="0"
       width="100"
       height="100"
       style="fill:none"
       id="rect9" />
  </g>
</svg>
