<svg xmlns="http://www.w3.org/2000/svg" viewBox="0 0 68.22 93.06"><defs><style>.cls-1,.cls-2{}.cls-1{fill-rule:evenodd;}</style></defs><g id="Calque_2" data-name="Calque 2"><g id="Layer_1" data-name="Layer 1"><g id="_1484080122688" data-name=" 1484080122688"><path class="cls-1" d="M41.81,87.73c-.81,0-1.46.06-1.85.87-.47,1-1.37,0-1.93-.22a1.78,1.78,0,0,0-2.29,1.19c-.19.39-.08.75-.2,1.17s-.73.42-.76-.1c-.07-1.83.13-3.74-2-4.26s-3.12.48-2.68,2.57a3.4,3.4,0,0,1,.1,1.1.93.93,0,0,0-.81.32c-.31.41-.19,1-.56,1.43a3.83,3.83,0,0,1-2,1c-1,.07-1-1.61-1.39-2.22a1.61,1.61,0,0,0-2.11-.48c-.38.29-.24,1.12-.93.85a19.81,19.81,0,0,1-.5-2.59c-.25-.81-1.43-1.14-2.24-1.14s-1.47,2.26-2.5,2.83c-.27.19-.55-1.6-.14-2,.8-.74.38-1.21.44-2.35s1.21-4.54-1.28-3.85c-.69.19-.8.92-1.48,1.13a4,4,0,0,1-2.51.2c-.63-.26-.4-1-1.4-.92s-1.11-.39-.23-.89a8.78,8.78,0,0,1,2.2-1c1-.24,1.22-1,1.91-1.61a4.83,4.83,0,0,0,.94-4.58c-.22-.57-.37-1.39-1.11-1.49-.51,0-2.36,1.9-2.36.21,0-1.08-.25-1-1-1.54A4.23,4.23,0,0,1,10,69.12c-.22-.69-.14-1.81-.79-2.25s-1.59-.35-1.41-1.23a25,25,0,0,1,3.45-.31c.45,0,.83.25,1.28.29a4.72,4.72,0,0,0,1.28-.27c.44-.1,1.49.65,1.67,1s.07,1,.1,1.46c.06.71.23,1.36.27,2.06,0,.93.76,1.36,1.24,2.06s1.48.72,2.32,1.12a15.9,15.9,0,0,0,2.54,1c1,.31,1.77,1.19,2.89,1.27A3.36,3.36,0,0,0,27,74.73c.42-.45,1.48-1.45,1.46-2s0-.88,0-1.33c.15-.33.48,0,.4-.56-.17-1-1.22-1.63-1.53-2.56-.1-.31.09-.66-.28-.86s-.71-.13-.79-.61c-.17-1.08,0-1.12-.82-1.75-.68-.5-.47-1.41-.94-2-.26-.3-.61-.23-.93-.43a18.13,18.13,0,0,1-1.41-1.24c-1.39-1.09-3.36-1.86-3.72-3.84-.13-.73-.18-1.49-1.16-1.5a3.48,3.48,0,0,1-2.58-1.39c-.3-.42-1.26-.8-1-1.48.12-.33.64-.28.89-.43s.38-.52.52-.89c.56-1.48,4.16-.84,4.3-1.68s-.56-.81-1.12-.91c-.79-.14-1.38-.66-2.22-.74s-.48-1.16-.13-1.65a5.31,5.31,0,0,0,.63-3.12c0-1.59-2.35-2.59-1.35-4.54.46-.88,1.51-.16,2-.81,1-1.33-1.52-.78-2-.82-.83-.08-1.12-1.18-1-1.86S15,34.66,15.34,34c.26-.44.86-1.84.68-2.3-.35-.91-.74-1.37-1.58-.69-1.66,1.32-2.71-1.68-4.23-.86a1.33,1.33,0,0,1-2-.61c-.22-.45-.57-.38-.91-.66a8.51,8.51,0,0,1-.91-1A3,3,0,0,0,4.53,26.8c-.64-.06-1.61.87-2.19.58-.35-.17-.42-.65-.69-.91s-.78-.35-1.19-.54c-1.08-.48.49-1.74.78-2.09.9-1,2.21-2.12,2.7-3.33.83-2.11-3-1.14-3.82-1.63s1.86-2.38,2-3-.24-1.61.13-2.33c.46-.88.83-.43,1.58-.26s1.88.24,2.27-.57a7.24,7.24,0,0,1,1.24-1.79c.49-.35,1.2-1.23.59-1.85-.94-.93-.47-.76.74-.93.53-.07,1.75,0,1.83-.69s0-2.09.53-2.5,1-1,1.58-1.42a3.26,3.26,0,0,0,.84-.68c.27-.44-.21-1.13.55-1.22s.88.28,1.52-.53c.23-.3,1.67-1.8,1.61-.61,0,.57-1.47,1.05-.67,1.64s-.17.74-.66.88c-1.36.33-4.53,1.52-2.11,2.85a8.21,8.21,0,0,0,2.38.78c1.33.27-1,1.11.53,1.4.49.1.63,0,.89.37a2.73,2.73,0,0,0,.52.78c.77.49.47,1.14.86,1.86a5.16,5.16,0,0,0,1.95,1.49,3.14,3.14,0,0,0,1.56.54c.46,0,1.16-.17,1.43.36s-2.44,1.44-1.58,2.8c.46.72,1.37,1.09,1.71,1.92s-.19,2.14.83,2c.39-.07.88-.28,1.26,0s.32.39.76.42c1,0,1-.65,1.83.27,1.91,2,2.91-1.07,4.35-1.64.94-.35,1-.16,1.63.5.35.38.89,1.42,1.58,1.12.9-.4,1.59.14,2.41,0a2.28,2.28,0,0,1,2.11.43c.58.37,1.64-.12,2.33.2.29.14.78.12,1,.41s0,.45.38.45.61-.69.88.17c.09.27.31.34.11.59s.55.95.72,1.16c.53.73,1.47.67,2.31.76.66.06,1.3,1,1.6,1.52s.61.41.89.74a6.93,6.93,0,0,1,1.19,1.73c.53,1.5-2.74,3-1.49,4.9.46.67,1,.94,1.11,1.87.13,1.34-1.2.2-1.72.5-1.14.68-3.46,1.5-3.7,3s-1,1.36-1.9,2.22c-.53.5-1.86,1.12-1.85,2,0,1.1,0,1.35-1,2s-1.38.5-1.75,1.46c-.14.34.12.55.34.77.42.45,0,.5-.12.93-.22.87-.66,1.72-.06,2.58a4.18,4.18,0,0,1,.45,1.09c.11.31-.14.63.07.9a8.93,8.93,0,0,0,.77.86c.27.22.91.14,1.07.46.47,1,0,1.37,1.29,1.56.46,0,2.12.74.91.9A1.6,1.6,0,0,0,45.92,59c.3,0,.63-.16.93-.06s-.42.72-.47.83c-.35,1,0,2.13-.83,2.89a16,16,0,0,1-2.65,1.6A6.18,6.18,0,0,0,41,66.08c-.42.72.08,2.7.14,3.55,0,.4,1.55,2.14-.22,1.41-1.5-.61-2.22-.1-2.85,1.16-.4.76-1.44.63-2.13,1.2s-.28,2.13,0,2.74c.58,1.12.22,1.29-1,1.24s-1.5,1.73-1.16,2.59c.41,1,1.51,1.27,1.58,2.48s1.15,1.51,2,1.93a7.23,7.23,0,0,1,1.64.83c.34.24.62.68,1.06.74s1.11-.16,1.55.19c.75.57.2.8.31,1.54l-.13.06Z"/><path class="cls-1" d="M67,39.61c-.09.21-.49.14-.65.21a2.31,2.31,0,0,0-1.3.6,1.87,1.87,0,0,0-.27.57,7.16,7.16,0,0,1-.44,1c-.17.4,0,1-.42,1.28a1.09,1.09,0,0,1-.61.15c-.35,0-.39.07-.62-.19a.84.84,0,0,1-.3-.62,7.84,7.84,0,0,1,0-.84c0-.26,0-.4-.19-.59s-.44-.3-.64-.45a2.9,2.9,0,0,1-.6-.5,6.81,6.81,0,0,1-.35-.79c-.32-.59-.46-1.11-1.08-1.35-.29-.12-.46-.33-.73-.47a5.11,5.11,0,0,1-1-.54c-.53-.44-1.08-.89-1-1.66.55-.27.76.2,1.18.43a7.79,7.79,0,0,1,1.16.67c.47.31.91.39,1-.26a3.24,3.24,0,0,0-.06-.71c0-.13,0-.29,0-.41a1.81,1.81,0,0,0-.18-.27,1.29,1.29,0,0,1-.15-.64c0-.29.39-.31.59-.48a3.1,3.1,0,0,0,.47-.56,2.89,2.89,0,0,1,.64-.5c.22-.15.49-.16.71-.34a4.29,4.29,0,0,0,.61-.6c.12-.16.31-.26.45-.43a7,7,0,0,0,.45-.77,2.38,2.38,0,0,1,.65-.79c.42-.26.61.13.78.43.09.14.22.27.3.42.19.31.22.44.59.44a.71.71,0,0,1,.8.64A10.4,10.4,0,0,1,67,32.9a1.32,1.32,0,0,0,.22.52,1.2,1.2,0,0,1,.17.65,2.54,2.54,0,0,0,.32,1c.12.21.32.23.45.42a.91.91,0,0,1,.08.62c-.71,0-1,.69-1,1.29a14.08,14.08,0,0,1,.19,2.15.68.68,0,0,1-.39.07l.06-.06Z"/><path class="cls-2" d="M42.49,88c-.81,0-1.46.05-1.85.87-.47,1-1.37,0-1.92-.22a1.78,1.78,0,0,0-2.3,1.19c-.19.39-.08.75-.21,1.17s-.72.41-.75-.11c-.08-1.83.13-3.73-2-4.26s-3.12.49-2.68,2.57a3.21,3.21,0,0,1,.09,1.11.91.91,0,0,0-.79.31c-.32.42-.21,1-.57,1.43a3.69,3.69,0,0,1-2,1c-1,.08-1-1.6-1.39-2.21a1.6,1.6,0,0,0-2.11-.48c-.38.29-.24,1.12-.93.85a20.14,20.14,0,0,1-.5-2.59c-.25-.81-1.44-1.14-2.23-1.14s-1.48,2.26-2.51,2.83c-.27.19-.54-1.61-.14-2,.8-.73.38-1.2.44-2.34s1.2-4.54-1.28-3.85c-.69.19-.8.91-1.47,1.12a4.06,4.06,0,0,1-2.52.21c-.63-.26-.39-1-1.4-.92s-1.11-.39-.23-.89a8.78,8.78,0,0,1,2.2-1c1-.24,1.22-1,1.91-1.62a4.81,4.81,0,0,0,.94-4.57c-.22-.58-.37-1.39-1.11-1.49-.51,0-2.36,1.9-2.36.21,0-1.08-.25-.95-1-1.54a4.35,4.35,0,0,1-1.21-2.32c-.21-.69-.14-1.81-.78-2.25s-1.59-.36-1.41-1.23a23.52,23.52,0,0,1,3.44-.31c.46,0,.84.25,1.29.29a4.8,4.8,0,0,0,1.28-.27c.44-.1,1.49.64,1.67,1s.07,1,.1,1.45c.06.71.23,1.36.26,2.07.05.92.77,1.35,1.26,2.06s1.47.72,2.31,1.12a14.65,14.65,0,0,0,2.54,1c1,.32,1.77,1.19,2.89,1.28A3.36,3.36,0,0,0,27.64,75c.42-.44,1.48-1.44,1.46-1.94s0-.89,0-1.33c.16-.33.49,0,.41-.56-.17-1-1.22-1.64-1.53-2.57-.1-.31.09-.65-.28-.86s-.71-.12-.79-.61c-.17-1.07,0-1.11-.82-1.74-.68-.5-.48-1.41-.94-2-.26-.3-.62-.23-.93-.43-.52-.35-.92-.85-1.41-1.25-1.39-1.08-3.37-1.85-3.72-3.83-.13-.73-.18-1.49-1.16-1.51a3.45,3.45,0,0,1-2.58-1.38c-.3-.43-1.26-.8-1-1.48.12-.34.64-.28.89-.44s.38-.51.52-.88c.56-1.48,4.16-.84,4.3-1.68s-.56-.81-1.13-.91c-.78-.14-1.37-.66-2.22-.75s-.47-1.16-.12-1.64A5.32,5.32,0,0,0,17.21,44c0-1.6-2.35-2.59-1.35-4.54.46-.88,1.5-.16,2-.81,1-1.33-1.52-.78-2-.82-.83-.08-1.12-1.19-1.05-1.86s.78-1.09,1.16-1.73c.26-.44.86-1.84.68-2.31-.35-.9-.74-1.37-1.58-.69-1.66,1.33-2.71-1.67-4.23-.85a1.32,1.32,0,0,1-2-.62c-.23-.44-.57-.37-.91-.65a8.51,8.51,0,0,1-.91-1,3.06,3.06,0,0,0-1.86-1.13c-.64-.05-1.61.88-2.19.59-.35-.17-.42-.66-.69-.92s-.78-.34-1.19-.53c-1.08-.49.49-1.74.78-2.09.9-1,2.21-2.13,2.7-3.33.83-2.11-3-1.14-3.82-1.63s1.86-2.38,2-3.05-.24-1.61.13-2.33c.46-.88.83-.43,1.58-.26s1.88.23,2.27-.57A6.87,6.87,0,0,1,8,11.13c.48-.34,1.2-1.22.59-1.84-.94-.94-.47-.76.73-.94.54-.06,1.76.05,1.84-.68s0-2.09.53-2.51,1-1,1.58-1.42a3.18,3.18,0,0,0,.84-.67c.27-.45-.22-1.14.55-1.22s.87.27,1.52-.53c.23-.3,1.67-1.8,1.61-.61,0,.57-1.47,1.05-.68,1.64s-.16.74-.65.88c-1.36.32-4.54,1.52-2.11,2.85a8.11,8.11,0,0,0,2.38.78c1.33.27-1,1.1.53,1.4.49.1.63,0,.89.37a2.87,2.87,0,0,0,.52.78c.77.48.47,1.14.86,1.85a5.19,5.19,0,0,0,2,1.5,3.11,3.11,0,0,0,1.55.54c.47,0,1.16-.18,1.44.36s-2.44,1.44-1.58,2.8c.46.72,1.36,1.08,1.71,1.91s-.19,2.15.83,2c.39-.07.88-.28,1.26,0s.32.39.76.41c1,0,1-.64,1.83.27,1.91,2,2.91-1.07,4.35-1.63.94-.35,1-.17,1.63.49.34.39.89,1.43,1.58,1.13.9-.4,1.59.14,2.41,0a2.3,2.3,0,0,1,2.11.43c.57.38,1.64-.11,2.33.21.29.13.78.12,1,.41s0,.45.38.45.6-.69.87.16c.1.27.32.35.11.6s.55.95.72,1.16c.54.73,1.47.67,2.32.76.66.06,1.3,1,1.6,1.52s.61.41.89.74a7,7,0,0,1,1.19,1.73c.53,1.5-2.74,3.05-1.49,4.9.45.67,1,.93,1.11,1.87.12,1.34-1.2.2-1.72.49-1.14.69-3.46,1.5-3.7,3s-1,1.36-1.9,2.22c-.53.5-1.86,1.13-1.85,2,0,1.09,0,1.35-1,2s-1.38.5-1.76,1.46c-.14.34.13.54.35.77.42.44,0,.5-.12.93-.22.87-.66,1.72-.07,2.58a4.29,4.29,0,0,1,.46,1.08c.11.32-.15.64.07.9a7.87,7.87,0,0,0,.77.86c.27.23.91.15,1.07.47.46,1,0,1.36,1.29,1.55.46.06,2.12.75.91.9a1.61,1.61,0,0,0,1.36,2.08c.3,0,.63-.16.93-.06s-.43.71-.47.83c-.35.95,0,2.13-.84,2.89a15.85,15.85,0,0,1-2.64,1.6,5.93,5.93,0,0,0-1.92,1.81c-.42.73.08,2.71.14,3.56,0,.39,1.55,2.14-.22,1.41-1.5-.62-2.22-.11-2.85,1.16-.41.76-1.44.62-2.13,1.2s-.28,2.13,0,2.73c.57,1.13.22,1.3-1,1.25s-1.5,1.72-1.16,2.59S35.94,81.5,36,82.7s1.14,1.52,2,1.93a8,8,0,0,1,1.65.83c.34.25.62.69,1.06.75s1.11-.16,1.55.19c.75.57.2.79.31,1.54"/><path class="cls-2" d="M67,39.15c-.09.21-.49.14-.65.21a2.28,2.28,0,0,0-1.3.6,1.87,1.87,0,0,0-.27.57,7.16,7.16,0,0,1-.44,1c-.17.4,0,1-.42,1.28a1,1,0,0,1-.61.15c-.35,0-.39.07-.63-.19a.85.85,0,0,1-.29-.62,7.84,7.84,0,0,1,0-.84c0-.26,0-.4-.19-.59s-.44-.29-.64-.45a2.9,2.9,0,0,1-.6-.5c-.17-.24-.21-.55-.35-.79-.32-.59-.46-1.1-1.08-1.35a7.44,7.44,0,0,1-.72-.47,4.53,4.53,0,0,1-1-.53c-.54-.45-1.08-.9-1-1.67.55-.27.76.2,1.18.43a7.84,7.84,0,0,1,1.16.68c.47.31.91.38,1-.27a2.76,2.76,0,0,0-.06-.71c0-.13,0-.29,0-.41s-.13-.18-.18-.26a1.49,1.49,0,0,1-.16-.65c0-.28.4-.3.6-.47a4,4,0,0,0,.47-.56,2.5,2.5,0,0,1,.65-.5c.21-.16.48-.17.7-.35a3.82,3.82,0,0,0,.61-.6c.12-.15.31-.26.45-.43s.3-.53.46-.76a2.39,2.39,0,0,1,.64-.8c.42-.26.61.14.79.44a4.27,4.27,0,0,1,.29.41c.19.31.22.44.59.44a.71.71,0,0,1,.8.65,10,10,0,0,1,.11,1.23,1.28,1.28,0,0,0,.22.51,1.23,1.23,0,0,1,.17.66,2.54,2.54,0,0,0,.32,1c.12.22.33.23.45.42a.93.93,0,0,1,.08.63c-.71,0-1,.69-1,1.29a13.84,13.84,0,0,1,.19,2.14.68.68,0,0,1-.39.07"/></g></g></g></svg>