<?xml version="1.0" encoding="UTF-8" standalone="no"?>
<svg
   version="1.0"
   width="47.9375"
   height="41.65625"
   id="svg2"
   xmlns="http://www.w3.org/2000/svg"
   xmlns:svg="http://www.w3.org/2000/svg"
   xmlns:rdf="http://www.w3.org/1999/02/22-rdf-syntax-ns#"
   xmlns:cc="http://creativecommons.org/ns#"
   xmlns:dc="http://purl.org/dc/elements/1.1/">
  <defs
     id="defs4">
    <clipPath
       id="clipPath3345">
      <rect
         width="109"
         height="80"
         x="222"
         y="101"
         id="rect2227" />
    </clipPath>
  </defs>
  <metadata
     id="metadata2027">
    <rdf:RDF>
      <cc:Work
         rdf:about="">
        <cc:license
           rdf:resource="http://web.resource.org/cc/PublicDomain" />
        <dc:format>image/svg+xml</dc:format>
        <dc:type
           rdf:resource="http://purl.org/dc/dcmitype/StillImage" />
        <dc:title>Departements of France</dc:title>
      </cc:Work>
      <cc:License
         rdf:about="http://web.resource.org/cc/PublicDomain">
        <cc:permits
           rdf:resource="http://web.resource.org/cc/Reproduction" />
        <cc:permits
           rdf:resource="http://web.resource.org/cc/Distribution" />
        <cc:permits
           rdf:resource="http://web.resource.org/cc/DerivativeWorks" />
      </cc:License>
    </rdf:RDF>
  </metadata>
  <style
     type="text/css"
     id="style6"><![CDATA[
.land
{
	stroke:white;
	stroke-width:0;
}
]]></style>
  <g
     id="complete_map"
     transform="translate(-26.031249,-29.171875)">
    <path
       d="m 446.125,266.1875 -4.46875,0.78125 -4.3125,3.5 -1.15625,-1.75 -2.15625,0.1875 -1.96875,4.3125 0.21875,1.75 2.125,1.75 -3.90625,2.5625 -2.53125,2.34375 h -4.3125 l -1.96875,1.5625 -1.90625,0.625 -1.0625,1.9375 -1.90625,-1.0625 -0.4375,5.5 1.0625,1.9375 0.0625,2.09375 1.625,1.28125 v 5.53125 l 3.84375,0.625 1.46875,2.78125 3.40625,0.40625 0.625,-1.25 h 1.71875 l 2.96875,3.1875 1.0625,1.0625 3.40625,-0.65625 0.84375,-1.6875 0.84375,-3.40625 1.90625,-1.5 1.5,-4.4375 1.90625,-1.28125 1.5,0.40625 0.40625,1.28125 -1.0625,1.28125 1.90625,2.34375 h 3.1875 l 1.9375,3.1875 -0.4375,1.0625 1.90625,-1.28125 1.5,-1.6875 1.3125,0.15625 0.0937,-3.40625 6.65625,-2.75 0.78125,-1.9375 -0.40625,-4.3125 -4.28125,-4.46875 -1.375,0.78125 V 283.75 280.84375 l -3.71875,-1.78125 -0.1875,-1.5625 2.15625,-2.34375 v -2.71875 l -3.53125,-3.71875 -0.1875,-2.53125 z"
       class="land departement74"
       id="departement"
       transform="translate(-390.34375,-237.01562)" />
    <rect
       x="0"
       y="0"
       width="100"
       height="100"
       style="fill:none"
       id="rect9" />
  </g>
</svg>
