<svg xmlns="http://www.w3.org/2000/svg" viewBox="0 0 71.36 90.97"><defs><style>.cls-1,.cls-2{}.cls-1{fill-rule:evenodd;}</style></defs><g id="Calque_2" data-name="Calque 2"><g id="Layer_1" data-name="Layer 1"><g id="_1484080121120" data-name=" 1484080121120"><path class="cls-1" d="M19.73,0S10.33.27,9.19.82,3.44,5.28,3.44,5.28l-.7.24L0,10.56l.93,6.56,8,9.76L7.57,29.54v5.28L11,40.62,22,52.76H32.82l2.74-.29H36l-.45,2.38v1.87l3.24,1,1.34,1s-.44,4.5.7,4.77l-3.43.24L32.58,62l-3.2-.8-4.13,2.09-2.32,3.41-1.12,4,.89,4,2.31,4,3,2.07s3-1,4.12-1.56,2.08-2.9,2.08-2.9,3.41-.26,5-.53,3.25,2.39,3.25,2.39L50,79.35l3.44,2.38,2-.23V78.84l1.86-1.29,1.85,1.29L58.29,82,56.2,84.41l.92,4.71L59.87,91l3.25-.24,3.2-3.2.93-4.17,3.21-4.23-2.1-5.28L67,69.08l-1.62-6.32-1.61-4.47s-3.91-4.75-3.91-5.82-3.67-3.42-3.67-3.42l-.45-4.23A6.44,6.44,0,0,1,57.83,43c1.15-.53-.71-2.89-.71-2.89l-2.26.51-3.48,1-.89-1.34-1.38-1.86.22-2.37,2.51.58,2.09-2.92-3-2.89-2.33-.81L48,28.5V26.64l2.54-1.34,1.81,1.85,3.21,1.59,1.61-2.38V23.73l1.4-2.09L57.37,20l-2.51-1.28-1.63,1.81-6.4.8-2.09,1.86-2.74-1-3.2-6.33-7.38-9L27.3,4.75,19.73,0Z"/><path class="cls-2" d="M20.63,0S11.24.27,10.09.82,4.34,5.28,4.34,5.28l-.7.24-2.74,5,.93,6.56,8,9.76L8.47,29.54v5.28l3.44,5.8,11,12.14H33.72l2.74-.29h.45l-.45,2.38v1.87l3.24,1,1.34,1s-.44,4.5.7,4.77l-3.43.24L33.48,62l-3.2-.8-4.13,2.09-2.32,3.41-1.12,4,.89,4,2.31,4,3,2.07s3-1,4.12-1.56,2.08-2.9,2.08-2.9,3.42-.26,5-.53,3.25,2.39,3.25,2.39l7.56,1.27,3.44,2.38,2.05-.23V78.84l1.85-1.29,1.85,1.29L59.2,82l-2.1,2.38L58,89.12,60.77,91,64,90.73l3.2-3.2.93-4.17,3.21-4.23-2.1-5.28-1.34-4.77-1.63-6.32-1.61-4.47s-3.91-4.75-3.91-5.82-3.67-3.42-3.67-3.42l-.45-4.23A6.57,6.57,0,0,1,58.73,43c1.15-.53-.71-2.89-.71-2.89l-2.26.51-3.48,1-.89-1.34L50,38.48l.22-2.37,2.51.58,2.09-2.92-3-2.89-2.32-.81-.68-1.57V26.64l2.54-1.34,1.81,1.85,3.21,1.59L58,26.36V23.73l1.4-2.09L58.27,20l-2.51-1.28-1.63,1.81-6.4.8-2.09,1.86-2.75-1L39.7,15.84l-7.38-9L28.2,4.75,20.63,0Z"/></g></g></g></svg>