<?xml version="1.0" encoding="UTF-8" standalone="no"?>
<svg
   version="1.0"
   width="55.875"
   height="50.125"
   id="svg2"
   xmlns="http://www.w3.org/2000/svg"
   xmlns:svg="http://www.w3.org/2000/svg"
   xmlns:rdf="http://www.w3.org/1999/02/22-rdf-syntax-ns#"
   xmlns:cc="http://creativecommons.org/ns#"
   xmlns:dc="http://purl.org/dc/elements/1.1/">
  <defs
     id="defs4">
    <clipPath
       id="clipPath3345">
      <rect
         width="109"
         height="80"
         x="222"
         y="101"
         id="rect2227" />
    </clipPath>
  </defs>
  <metadata
     id="metadata2027">
    <rdf:RDF>
      <cc:Work
         rdf:about="">
        <cc:license
           rdf:resource="http://web.resource.org/cc/PublicDomain" />
        <dc:format>image/svg+xml</dc:format>
        <dc:type
           rdf:resource="http://purl.org/dc/dcmitype/StillImage" />
        <dc:title>Departements of France</dc:title>
      </cc:Work>
      <cc:License
         rdf:about="http://web.resource.org/cc/PublicDomain">
        <cc:permits
           rdf:resource="http://web.resource.org/cc/Reproduction" />
        <cc:permits
           rdf:resource="http://web.resource.org/cc/Distribution" />
        <cc:permits
           rdf:resource="http://web.resource.org/cc/DerivativeWorks" />
      </cc:License>
    </rdf:RDF>
  </metadata>
  <style
     type="text/css"
     id="style6"><![CDATA[
.land
{
	stroke:white;
	stroke-width:0;
}
]]></style>
  <g
     id="complete_map"
     transform="translate(-22.062499,-24.937499)">
    <path
       d="m 383.28125,262.59375 -2.15625,0.21875 -1.375,2.53125 -3.6875,14.4375 -0.53125,1.1875 -0.375,4.5625 -1.0625,1.46875 v 6.59375 l -0.625,1.5 3.8125,2.3125 1.5,0.21875 2.34375,2.125 0.40625,3.40625 2.5625,-0.84375 3.96875,1.15625 0.0625,-0.75 h 1.90625 l 2.75,2.5625 2.5625,-1.28125 1.28125,-3.8125 1.28125,-1.5 1.6875,0.21875 1.6875,1.5 0.875,2.75 7.84375,9.5625 2.34375,-1.6875 0.40625,-3.625 2.5625,-0.4375 v -6.375 l 1.28125,-1.0625 0.40625,-5.71875 0.5,0.40625 -0.0625,-2.09375 -1.0625,-1.9375 0.4375,-5.5 1.90625,1.0625 1.0625,-1.9375 1.90625,-0.625 1.96875,-1.5625 h -2.125 v -3.71875 l 2.34375,-1.375 3.5,-0.375 0.21875,-1.96875 -1.1875,-0.78125 2.9375,-3.71875 -0.40625,-1.15625 -3.34375,-1.78125 -8.125,8.9375 h -5.65625 v -2.34375 l -3.125,-1.5625 -3.71875,4.09375 -2.9375,0.40625 v -2.75 L 399.5,272.375 l -3.90625,-5.46875 -3.53125,-1.375 -1.15625,-2.53125 -1.96875,-0.40625 -1.9375,1.375 -1.5625,0.40625 z"
       class="land departement01"
       id="departement"
       transform="translate(-351.40625,-237.65625)" />
    <rect
       x="0"
       y="0"
       width="100"
       height="100"
       style="fill:none"
       id="rect9" />
  </g>
</svg>
