<?xml version="1.0" encoding="UTF-8" standalone="no"?>
<svg
   version="1.0"
   width="60.75"
   height="49.09375"
   id="svg2"
   xmlns="http://www.w3.org/2000/svg"
   xmlns:svg="http://www.w3.org/2000/svg"
   xmlns:rdf="http://www.w3.org/1999/02/22-rdf-syntax-ns#"
   xmlns:cc="http://creativecommons.org/ns#"
   xmlns:dc="http://purl.org/dc/elements/1.1/">
  <defs
     id="defs4">
    <clipPath
       id="clipPath3345">
      <rect
         width="109"
         height="80"
         x="222"
         y="101"
         id="rect2227" />
    </clipPath>
  </defs>
  <metadata
     id="metadata2027">
    <rdf:RDF>
      <cc:Work
         rdf:about="">
        <cc:license
           rdf:resource="http://web.resource.org/cc/PublicDomain" />
        <dc:format>image/svg+xml</dc:format>
        <dc:type
           rdf:resource="http://purl.org/dc/dcmitype/StillImage" />
        <dc:title>Departements of France</dc:title>
      </cc:Work>
      <cc:License
         rdf:about="http://web.resource.org/cc/PublicDomain">
        <cc:permits
           rdf:resource="http://web.resource.org/cc/Reproduction" />
        <cc:permits
           rdf:resource="http://web.resource.org/cc/Distribution" />
        <cc:permits
           rdf:resource="http://web.resource.org/cc/DerivativeWorks" />
      </cc:License>
    </rdf:RDF>
  </metadata>
  <style
     type="text/css"
     id="style6"><![CDATA[
.land
{
	stroke:white;
	stroke-width:0;
}
]]></style>
  <g
     id="complete_map"
     transform="translate(-19.624999,-25.453124)">
    <path
       d="m 337.375,99.3125 -2.34375,1 0.40625,1.9375 h -4.125 L 327.625,105 v 5.25 l 2.71875,1.78125 0.78125,1.75 -4.5,0.375 -0.5625,1.78125 1.75,1.15625 -0.78125,1.1875 -1.75,0.78125 0.375,1.34375 h 2.53125 l 1,1.375 -1.75,1.1875 -1.5625,4.09375 -2.9375,1.375 -1,2.125 -0.96875,1.1875 0.21875,1.15625 -1.5625,1 -0.40625,2.71875 1.5625,0.96875 0.78125,2.9375 -0.96875,1.75 0.59375,1.375 2.90625,-0.1875 v 0.96875 l 0.84375,-0.1875 3.375,3.5625 4.75,-0.78125 5.5625,-3.78125 h 3.34375 l 3.375,-2.375 3.96875,-2.1875 2.96875,0.21875 0.40625,3.96875 3.5625,5.34375 h 3.96875 l 5.5625,-1.1875 3.96875,1.375 4.15625,-2.96875 L 374.5,140.5 379.09375,139.71875 379,136.625 l -3.71875,-2.9375 -0.40625,-1.5625 1.375,-2.34375 -1.1875,-0.96875 1.1875,-2.9375 2.15625,-0.96875 1.5625,-4.875 -3.125,0.1875 1.75,-1.9375 -1.375,-4.3125 -1.34375,-2.9375 1.75,-1.5625 -1,-0.1875 -0.25,-1.34375 c -0.0404,0.006 -0.28125,0.0312 -0.28125,0.0312 l -1.78125,-1.59375 -2,2 h -0.59375 l -0.78125,-1 -4.75,-0.1875 -0.8125,1.1875 H 364 l -1.1875,-2.59375 h -2.59375 l -0.59375,0.59375 -2.5625,-0.1875 -3.1875,-2.375 -2.1875,-0.59375 -0.78125,-1.1875 -4.15625,-2.59375 -4.75,-0.125 0.0625,1.78125 -1.375,0.375 z"
       class="land departement51"
       id="departement"
       transform="translate(-299.59375,-73.859375)" />
    <rect
       x="0"
       y="0"
       width="100"
       height="100"
       style="fill:none"
       id="rect9" />
  </g>
</svg>
