<?xml version="1.0" encoding="UTF-8" standalone="no"?>
<svg
   version="1.0"
   width="55.9375"
   height="63.6875"
   id="svg2"
   xmlns="http://www.w3.org/2000/svg"
   xmlns:svg="http://www.w3.org/2000/svg"
   xmlns:rdf="http://www.w3.org/1999/02/22-rdf-syntax-ns#"
   xmlns:cc="http://creativecommons.org/ns#"
   xmlns:dc="http://purl.org/dc/elements/1.1/">
  <defs
     id="defs4">
    <clipPath
       id="clipPath3345">
      <rect
         width="109"
         height="80"
         x="222"
         y="101"
         id="rect2227" />
    </clipPath>
  </defs>
  <metadata
     id="metadata2027">
    <rdf:RDF>
      <cc:Work
         rdf:about="">
        <cc:license
           rdf:resource="http://web.resource.org/cc/PublicDomain" />
        <dc:format>image/svg+xml</dc:format>
        <dc:type
           rdf:resource="http://purl.org/dc/dcmitype/StillImage" />
        <dc:title>Departements of France</dc:title>
      </cc:Work>
      <cc:License
         rdf:about="http://web.resource.org/cc/PublicDomain">
        <cc:permits
           rdf:resource="http://web.resource.org/cc/Reproduction" />
        <cc:permits
           rdf:resource="http://web.resource.org/cc/Distribution" />
        <cc:permits
           rdf:resource="http://web.resource.org/cc/DerivativeWorks" />
      </cc:License>
    </rdf:RDF>
  </metadata>
  <style
     type="text/css"
     id="style6"><![CDATA[
.land
{
	stroke:white;
	stroke-width:0;
}
]]></style>
  <g
     id="complete_map"
     transform="translate(-22.031249,-18.15625)">
    <path
       d="m 363.375,177.25 -0.40625,2.53125 -2.53125,1.375 -6.4375,0.1875 0.28125,1.40625 0.15625,1.40625 -1.96875,1.40625 v 2.375 l 0.40625,0.4375 h 1.5625 l 0.96875,1.65625 -0.5625,2.8125 -2.25,1.6875 v 1.6875 l 0.71875,0.5625 -0.15625,0.40625 -1.40625,0.5625 -0.40625,2.09375 -2.25,4.78125 -1.53125,2.25 v 2.25 l 0.5625,0.96875 -0.84375,1.125 -1.96875,0.96875 0.125,1.96875 1.84375,1.125 0.6875,1.53125 -0.28125,2.125 -0.40625,1.53125 0.96875,1.6875 2.8125,0.5625 1.25,1.96875 v 0.84375 l -0.84375,0.28125 v 2.03125 l 0.15625,0.0625 3.78125,3.90625 3.9375,-0.125 3.5,2.65625 2.53125,1.84375 0.125,2.375 2.65625,0.5625 2.25,1.8125 5.90625,-2.09375 4.0625,-1.28125 1.8125,-0.28125 0.5625,-0.8125 1.96875,0.125 1.53125,0.96875 2.25,-0.5625 2.25,-1.53125 1.6875,0.1875 0.0312,-0.1875 1.34375,-0.78125 -0.1875,-1 -0.375,-1.15625 0.96875,-1.5625 3.3125,-1.5625 v -1.5625 l 1.1875,-1.5625 1.15625,-1.5625 -0.375,-1.375 0.5625,-2.15625 0.40625,-3.125 h 0.7813 l -0.1875,-1.15625 -0.78125,-0.78125 -0.21875,-3.90625 -1.75,-0.1875 -0.375,-3.125 -2.15625,-1 0.78125,-0.96875 1.1875,-0.375 2.53125,-2.9375 -0.21875,-1.5625 -1.5625,-3.125 -2.3125,-0.40625 -0.8125,1.96875 -4.28125,0.96875 -0.40625,-0.96875 -3.125,-3.90625 -1.75,0.96875 -2.34375,-0.1875 -0.78125,-1.5625 -3.125,0.1875 -0.1875,-3.3125 -1.75,-1.1875 2.53125,-2.71875 -4.5,-6.0625 -3.5,-3.71875 -3.125,-1.75 z"
       class="land departement21"
       id="departement"
       transform="translate(-323.28125,-159.09375)" />
    <rect
       x="0"
       y="0"
       width="100"
       height="100"
       style="fill:none"
       id="rect9" />
  </g>
</svg>
