<?xml version="1.0" encoding="UTF-8" standalone="no"?>
<svg
   version="1.0"
   width="62.3125"
   height="46.59375"
   id="svg2"
   xmlns="http://www.w3.org/2000/svg"
   xmlns:svg="http://www.w3.org/2000/svg"
   xmlns:rdf="http://www.w3.org/1999/02/22-rdf-syntax-ns#"
   xmlns:cc="http://creativecommons.org/ns#"
   xmlns:dc="http://purl.org/dc/elements/1.1/">
  <defs
     id="defs4">
    <clipPath
       id="clipPath3345">
      <rect
         width="109"
         height="80"
         x="222"
         y="101"
         id="rect2227" />
    </clipPath>
  </defs>
  <metadata
     id="metadata2027">
    <rdf:RDF>
      <cc:Work
         rdf:about="">
        <cc:license
           rdf:resource="http://web.resource.org/cc/PublicDomain" />
        <dc:format>image/svg+xml</dc:format>
        <dc:type
           rdf:resource="http://purl.org/dc/dcmitype/StillImage" />
        <dc:title>Departements of France</dc:title>
      </cc:Work>
      <cc:License
         rdf:about="http://web.resource.org/cc/PublicDomain">
        <cc:permits
           rdf:resource="http://web.resource.org/cc/Reproduction" />
        <cc:permits
           rdf:resource="http://web.resource.org/cc/Distribution" />
        <cc:permits
           rdf:resource="http://web.resource.org/cc/DerivativeWorks" />
      </cc:License>
    </rdf:RDF>
  </metadata>
  <style
     type="text/css"
     id="style6"><![CDATA[
.land
{
	stroke:white;
	stroke-width:0;
}
]]></style>
  <g
     id="complete_map"
     transform="translate(-18.843749,-26.703124)">
    <path
       d="m 138.53125,229.5625 -1.125,2.09375 h -3.21875 l 1.28125,1.3125 -0.96875,3.21875 -2.90625,0.96875 -1.125,-0.8125 0.5,-3.21875 -0.8125,-1.78125 H 128.375 l -1.28125,1.4375 0.625,4.53125 1.46875,2.09375 -1.46875,1.625 -2.71875,-0.5 -4.03125,-0.96875 -1.125,-3.0625 -2.59375,-0.3125 -3.375,-1.46875 -0.8125,-1.9375 -3.6875,-2.40625 -5.8125,7.5 -0.1875,4.6875 6.03125,5.84375 -0.1875,1.75 h 1.75 l 3.71875,11.15625 3.90625,1.9375 3.90625,3.90625 h 4.5 l 1.75,3.90625 h 4.3125 L 135,274 l 4.3125,2.15625 0.1875,-2.75 1.09375,1.03125 5.96875,-3.625 2.75,-0.1875 1.15625,3.125 3.71875,-1.5625 3.125,2.34375 2.53125,-1.1875 L 162,272.75 l 0.96875,-1.15625 2.71875,-1.75 -1.9375,-1.96875 -1.5625,1.1875 L 162,267.5 l 1.375,-2.5625 -1.375,-2.34375 1.15625,-1.5625 -0.59375,-5.46875 -1.9375,-2.90625 1.375,-1.78125 -3.125,-3.5 1.15625,-2.53125 -4.6875,-3.90625 v -2.34375 l -1.9375,-2.75 0.375,-0.15625 -2.65625,-2.25 h -5 l -1.625,-0.96875 -2.25,-0.3125 -2.59375,-2.4375 z"
       class="land departement85"
       id="departement"
       transform="translate(-84.53125,-202.85937)" />
    <rect
       x="0"
       y="0"
       width="100"
       height="100"
       style="fill:none"
       id="rect9" />
  </g>
</svg>
