<?xml version="1.0" encoding="UTF-8" standalone="no"?>
<svg
   version="1.0"
   width="56.4375"
   height="42.9375"
   id="svg2"
   xmlns="http://www.w3.org/2000/svg"
   xmlns:svg="http://www.w3.org/2000/svg"
   xmlns:rdf="http://www.w3.org/1999/02/22-rdf-syntax-ns#"
   xmlns:cc="http://creativecommons.org/ns#"
   xmlns:dc="http://purl.org/dc/elements/1.1/">
  <defs
     id="defs4">
    <clipPath
       id="clipPath3345">
      <rect
         width="109"
         height="80"
         x="222"
         y="101"
         id="rect2227" />
    </clipPath>
  </defs>
  <metadata
     id="metadata2027">
    <rdf:RDF>
      <cc:Work
         rdf:about="">
        <cc:license
           rdf:resource="http://web.resource.org/cc/PublicDomain" />
        <dc:format>image/svg+xml</dc:format>
        <dc:type
           rdf:resource="http://purl.org/dc/dcmitype/StillImage" />
        <dc:title>Departements of France</dc:title>
      </cc:Work>
      <cc:License
         rdf:about="http://web.resource.org/cc/PublicDomain">
        <cc:permits
           rdf:resource="http://web.resource.org/cc/Reproduction" />
        <cc:permits
           rdf:resource="http://web.resource.org/cc/Distribution" />
        <cc:permits
           rdf:resource="http://web.resource.org/cc/DerivativeWorks" />
      </cc:License>
    </rdf:RDF>
  </metadata>
  <style
     type="text/css"
     id="style6"><![CDATA[
.land
{
	stroke:white;
	stroke-width:0;
}
]]></style>
  <g
     id="complete_map"
     transform="translate(-21.781249,-28.531249)">
    <path
       d="m 237.21875,446.375 -1.25,0.875 -0.53125,1.0625 2.46875,1.78125 0.71875,1.25 -0.53125,1.03125 -4.25,0.375 -1.21875,1.75 0.15625,0.53125 1.59375,0.53125 0.90625,1.25 -1.0625,1.75 -1.25,-0.15625 -1.9375,-1.78125 -2.3125,-0.6875 -2.28125,0.15625 -4.0625,2.46875 0.15625,3.375 1.0625,0.71875 -0.6875,2.625 -4.625,1.25 -1.75,2.125 v 3.53125 l 0.71875,1.0625 -1.65625,1.53125 1.0625,0.59375 6.03125,1.15625 h 2.5625 l 3.3125,4.3125 8.40625,-0.40625 3.3125,5.28125 2.9375,-1.1875 8.59375,1.1875 0.625,3.59375 6.0625,-1.40625 2.21875,-1.9375 3.3125,-0.84375 0.8125,-1.65625 7.1875,-0.53125 -4.40625,-5.25 -3.59375,1.9375 -6.34375,-5.25 1.375,-1.9375 h 4.96875 l -0.5625,-4.6875 v -3.59375 l -0.8125,-6.65625 -9.6875,-4.6875 0.5625,-1.65625 -1.84375,-2.0625 -1.5625,0.65625 -2.125,0.34375 -3.90625,-1.78125 -1.0625,-0.34375 1.59375,1.9375 -0.6875,1.59375 -3.375,-0.34375 -0.15625,-1.78125 -1.96875,-2.65625 z"
       class="land departement09"
       id="departement"
       transform="translate(-193.8125,-417.84375)" />
    <rect
       x="0"
       y="0"
       width="100"
       height="100"
       style="fill:none"
       id="rect9" />
  </g>
</svg>
