<?xml version="1.0" encoding="UTF-8" standalone="no"?>
<svg
   version="1.0"
   width="64.28125"
   height="46.53125"
   id="svg2"
   xmlns="http://www.w3.org/2000/svg"
   xmlns:svg="http://www.w3.org/2000/svg"
   xmlns:rdf="http://www.w3.org/1999/02/22-rdf-syntax-ns#"
   xmlns:cc="http://creativecommons.org/ns#"
   xmlns:dc="http://purl.org/dc/elements/1.1/">
  <defs
     id="defs4">
    <clipPath
       id="clipPath3345">
      <rect
         width="109"
         height="80"
         x="222"
         y="101"
         id="rect2227" />
    </clipPath>
  </defs>
  <metadata
     id="metadata2027">
    <rdf:RDF>
      <cc:Work
         rdf:about="">
        <cc:license
           rdf:resource="http://web.resource.org/cc/PublicDomain" />
        <dc:format>image/svg+xml</dc:format>
        <dc:type
           rdf:resource="http://purl.org/dc/dcmitype/StillImage" />
        <dc:title>Departements of France</dc:title>
      </cc:Work>
      <cc:License
         rdf:about="http://web.resource.org/cc/PublicDomain">
        <cc:permits
           rdf:resource="http://web.resource.org/cc/Reproduction" />
        <cc:permits
           rdf:resource="http://web.resource.org/cc/Distribution" />
        <cc:permits
           rdf:resource="http://web.resource.org/cc/DerivativeWorks" />
      </cc:License>
    </rdf:RDF>
  </metadata>
  <style
     type="text/css"
     id="style6"><![CDATA[
.land
{
	stroke:white;
	stroke-width:0;
}
]]></style>
  <g
     id="complete_map"
     transform="translate(-17.859374,-26.734374)">
    <path
       d="m 241.9375,61.5 -1.28125,1.5625 -8.375,6.4375 -14.84375,3.71875 -9.78125,3.5 -8,4.3125 -4.6875,7.03125 -0.96875,5.46875 3.90625,2.9375 5.65625,1.15625 -0.90625,0.15625 0.0312,0.15625 4.375,-0.5625 2.25,-2.40625 1.6875,-0.40625 1.9375,3.375 2.6875,-0.28125 1.125,1.9375 4.75,-0.28125 4.78125,3.375 -3.09375,0.96875 2.25,1.6875 h 1.40625 l 1.25,2.6875 h 2.25 l 0.6875,-1.6875 -1.6875,-1.125 4.78125,-1.40625 5.03125,-0.5625 1.28125,-3.65625 2.375,-2.09375 4.5,-0.125 5.1875,2.65625 3.09375,0.34375 0.53125,-1.625 1.375,-2.5625 0.78125,-1.34375 h -1.9687 V 91.5 l -1.15625,-1.9375 0.78125,-3.90625 0.78125,-1.96875 h -1.5625 l 0.78125,-1.9375 1.9375,-2.34375 -1.9375,-3.53125 -0.59375,-3.5 -8.59375,-8.40625 -0.96875,-1.9375 -2.15625,0.1875 z"
       class="land departement76"
       id="departement"
       transform="translate(-176.14062,-34.765625)" />
    <rect
       x="0"
       y="0"
       width="100"
       height="100"
       style="fill:none"
       id="rect9" />
  </g>
</svg>
