<?xml version="1.0" encoding="UTF-8" standalone="no"?>
<svg
   version="1.0"
   width="63.78125"
   height="42.656254"
   id="svg2"
   xmlns="http://www.w3.org/2000/svg"
   xmlns:svg="http://www.w3.org/2000/svg"
   xmlns:rdf="http://www.w3.org/1999/02/22-rdf-syntax-ns#"
   xmlns:cc="http://creativecommons.org/ns#"
   xmlns:dc="http://purl.org/dc/elements/1.1/">
  <defs
     id="defs4">
    <clipPath
       id="clipPath3345">
      <rect
         width="109"
         height="80"
         x="222"
         y="101"
         id="rect2227" />
    </clipPath>
  </defs>
  <metadata
     id="metadata2027">
    <rdf:RDF>
      <cc:Work
         rdf:about="">
        <cc:license
           rdf:resource="http://web.resource.org/cc/PublicDomain" />
        <dc:format>image/svg+xml</dc:format>
        <dc:type
           rdf:resource="http://purl.org/dc/dcmitype/StillImage" />
        <dc:title>Departements of France</dc:title>
      </cc:Work>
      <cc:License
         rdf:about="http://web.resource.org/cc/PublicDomain">
        <cc:permits
           rdf:resource="http://web.resource.org/cc/Reproduction" />
        <cc:permits
           rdf:resource="http://web.resource.org/cc/Distribution" />
        <cc:permits
           rdf:resource="http://web.resource.org/cc/DerivativeWorks" />
      </cc:License>
    </rdf:RDF>
  </metadata>
  <style
     type="text/css"
     id="style6"><![CDATA[
.land
{
	stroke:white;
	stroke-width:0;
}
]]></style>
  <g
     id="complete_map"
     transform="translate(-18.109374,-28.671874)">
    <path
       d="m 379.71875,409.90625 -5.46875,3.125 -1.40625,10.5 -5.78125,-0.8125 -1.65625,4.40625 1.375,1.9375 -6.34375,3.875 -1.75,4.0625 6.1875,0.28125 8.21875,0.59375 1.5625,1.5625 h -2.9375 l -1.9375,3.3125 8.375,1.75 6.65625,-1.15625 -3.53125,-3.34375 2.34375,-1.9375 3.71875,1.5625 1.75,3.71875 11.15625,0.1875 2.90625,-1.1875 0.59375,1.78125 -3.125,2.71875 4.3125,0.1875 -0.78125,1.96875 -1.1875,1.375 h 9.5625 l 4.6875,1.5625 0.46875,0.625 0.1875,-3.875 1.40625,-1.59375 1.78125,-1.0625 -0.1875,-1.0625 -1.40625,-1.40625 H 418.0625 L 417.15625,442.5 418.75,441.0625 v -0.53125 l -1.75,-0.875 V 438.25 l 3.875,0.1875 0.90625,-0.71875 -3.375,-3.1875 0.1875,-3.71875 -2.125,-1.75 1.75,-3.53125 4.25,-2.84375 -3.1875,-2.125 -2.28125,1.78125 -5.3125,1.21875 -4.25,-0.53125 -7.59375,-3.15625 -4.59375,0.15625 -3.875,-1.75 -1.4375,-1.96875 -3,-3.34375 -7.0625,-3 z"
       class="land departement13"
       id="departement"
       transform="translate(-340.57812,-381.23437)" />
    <rect
       x="0"
       y="0"
       width="100"
       height="100"
       style="fill:none"
       id="rect9" />
  </g>
</svg>
