<?xml version="1.0" encoding="UTF-8" standalone="no"?>
<svg
   version="1.0"
   width="42.9375"
   height="50.5"
   id="svg2"
   xmlns="http://www.w3.org/2000/svg"
   xmlns:svg="http://www.w3.org/2000/svg"
   xmlns:rdf="http://www.w3.org/1999/02/22-rdf-syntax-ns#"
   xmlns:cc="http://creativecommons.org/ns#"
   xmlns:dc="http://purl.org/dc/elements/1.1/">
  <defs
     id="defs4">
    <clipPath
       id="clipPath3345">
      <rect
         width="109"
         height="80"
         x="222"
         y="101"
         id="rect2227" />
    </clipPath>
  </defs>
  <metadata
     id="metadata2027">
    <rdf:RDF>
      <cc:Work
         rdf:about="">
        <cc:license
           rdf:resource="http://web.resource.org/cc/PublicDomain" />
        <dc:format>image/svg+xml</dc:format>
        <dc:type
           rdf:resource="http://purl.org/dc/dcmitype/StillImage" />
        <dc:title>Departements of France</dc:title>
      </cc:Work>
      <cc:License
         rdf:about="http://web.resource.org/cc/PublicDomain">
        <cc:permits
           rdf:resource="http://web.resource.org/cc/Reproduction" />
        <cc:permits
           rdf:resource="http://web.resource.org/cc/Distribution" />
        <cc:permits
           rdf:resource="http://web.resource.org/cc/DerivativeWorks" />
      </cc:License>
    </rdf:RDF>
  </metadata>
  <style
     type="text/css"
     id="style6"><![CDATA[
.land
{
	stroke:white;
	stroke-width:0;
}
]]></style>
  <g
     id="complete_map"
     transform="translate(-28.531249,-24.749999)">
    <path
       d="m 463.90625,381.875 -0.40625,0.15625 -2.65625,1.40625 -0.1875,2.46875 -1.9375,1.59375 -1.0625,2.5 -0.71875,4.59375 2.125,3.15625 0.1875,2.65625 1.21875,0.375 3.5625,3.34375 3.34375,3 -1.40625,0.90625 -2.125,-1.4375 -2.65625,1.4375 -0.71875,0.875 h -2.8125 L 458,410.3125 l -0.875,1.0625 0.71875,1.78125 -2.3125,1.40625 0.875,2.125 2.3125,0.15625 2.28125,1.0625 0.375,3.71875 2.125,2.125 h 1.21875 l 2.3125,0.875 0.34375,1.96875 -1.40625,1.21875 1.0625,1.0625 v 1.25 l 2.1875,2.25 0.15625,-0.1875 0.1875,-4.46875 3.90625,0.78125 1.375,-1.78125 1.96875,0.40625 0.1875,-6.0625 4.5,-0.375 3.90625,-3.53125 h 3.5 l 0.1875,-2.15625 3.53125,-2.125 -1.96875,-4.5 2.9375,-2.53125 -0.59375,-2.9375 4.3125,-1.375 1.15625,-4.28125 -0.5625,-2.9375 -1,-1.75 L 496.125,390 l -2.90625,0.21875 -9.1875,3.3125 h -2.9375 l -5.0625,-4.09375 -5.09375,-1.375 H 468 v -3.53125 L 463.90625,382 Z"
       class="land departement06"
       id="departement"
       transform="translate(-427,-357.125)" />
    <rect
       x="0"
       y="0"
       width="100"
       height="100"
       style="fill:none"
       id="rect9" />
  </g>
</svg>
