<?xml version="1.0" encoding="UTF-8" standalone="no"?>
<svg
   version="1.0"
   width="63.9375"
   height="53.375"
   id="svg2"
   xmlns="http://www.w3.org/2000/svg"
   xmlns:svg="http://www.w3.org/2000/svg"
   xmlns:rdf="http://www.w3.org/1999/02/22-rdf-syntax-ns#"
   xmlns:cc="http://creativecommons.org/ns#"
   xmlns:dc="http://purl.org/dc/elements/1.1/">
  <defs
     id="defs4">
    <clipPath
       id="clipPath3345">
      <rect
         width="109"
         height="80"
         x="222"
         y="101"
         id="rect2227" />
    </clipPath>
  </defs>
  <metadata
     id="metadata2027">
    <rdf:RDF>
      <cc:Work
         rdf:about="">
        <cc:license
           rdf:resource="http://web.resource.org/cc/PublicDomain" />
        <dc:format>image/svg+xml</dc:format>
        <dc:type
           rdf:resource="http://purl.org/dc/dcmitype/StillImage" />
        <dc:title>Departements of France</dc:title>
      </cc:Work>
      <cc:License
         rdf:about="http://web.resource.org/cc/PublicDomain">
        <cc:permits
           rdf:resource="http://web.resource.org/cc/Reproduction" />
        <cc:permits
           rdf:resource="http://web.resource.org/cc/Distribution" />
        <cc:permits
           rdf:resource="http://web.resource.org/cc/DerivativeWorks" />
      </cc:License>
    </rdf:RDF>
  </metadata>
  <style
     type="text/css"
     id="style6"><![CDATA[
.land
{
	stroke:white;
	stroke-width:0;
}
]]></style>
  <g
     id="complete_map"
     transform="translate(-18.031249,-23.312499)">
    <path
       d="m 222.5,172.25 -1.3125,1.6875 -1.5625,2.71875 1.9375,1.78125 -0.1875,4.09375 -0.78125,2.71875 H 218.625 v 3.71875 l -2.71875,3.53125 -2.9375,1.15625 -1.375,1.75 0.59375,1.46875 9.46875,0.3125 0.8125,0.71875 -0.125,0.6875 -1.40625,0.71875 0.28125,1.9375 1.25,0.84375 1.96875,-1.40625 H 225 l 2.25,1.6875 1.96875,0.15625 0.28125,5.03125 1.53125,4.0625 v 7.03125 l 1.125,1.6875 h 3.78125 l 2.9375,4.34375 1.09375,0.9375 0.0312,-0.0937 1.96875,-0.28125 1.6875,-1.40625 3.375,-0.15625 0.28125,0.5625 0.6875,-1.53125 2.9375,-1 2.53125,0.15625 1.25,-0.4375 1.6875,1.5625 2.96875,1.6875 2.5,-0.15625 L 261.75,222 l 1.125,-1.25 1.125,-0.125 0.96875,1.09375 3.9375,-0.40625 2.5,-1.40625 -0.28125,-0.96875 -0.6875,-0.84375 0.125,-1.84375 1.84375,-3.34375 2.375,-1 v -2.09375 l 0.5625,-1.25 -1.53125,-0.5625 -1,-2.125 -2.53125,-0.6875 -0.125,-0.84375 2.53125,-2.09375 2.84375,-1.40625 -1.59375,-2.375 -7.15625,-0.28125 -0.96875,1.125 h -1.96875 l -0.6875,-0.71875 -3.09375,-0.40625 -0.84375,1.8125 -1.96875,0.5625 -1.8125,-2.09375 -0.4375,-2.40625 -1.65625,-1.40625 -2.53125,-0.28125 -1.84375,-1.25 v -1.25 l -1.09375,-2.6875 2.21875,-2.21875 -0.28125,-1.125 -0.96875,-1.125 h -1.125 v -1 l 1.125,-1.9375 0.125,-1.125 h -1.65625 l -2.53125,-0.71875 -2.375,2.25 -2.6875,0.28125 -4.34375,-1.125 -1.25,-2.8125 -1.6875,-0.96875 -0.96875,-2.25 h -2.8125 l -1.125,-0.84375 1.6875,-0.96875 0.125,-0.84375 h -1.8125 l -3.09375,0.5625 z"
       class="land departement41"
       id="departement"
       transform="translate(-193.5625,-148.9375)" />
    <rect
       x="0"
       y="0"
       width="100"
       height="100"
       style="fill:none"
       id="rect9" />
  </g>
</svg>
