<?xml version="1.0" encoding="UTF-8" standalone="no"?>
<svg
   version="1.0"
   width="47.96875"
   height="61.75"
   id="svg2"
   xmlns="http://www.w3.org/2000/svg"
   xmlns:svg="http://www.w3.org/2000/svg"
   xmlns:rdf="http://www.w3.org/1999/02/22-rdf-syntax-ns#"
   xmlns:cc="http://creativecommons.org/ns#"
   xmlns:dc="http://purl.org/dc/elements/1.1/">
  <defs
     id="defs4">
    <clipPath
       id="clipPath3345">
      <rect
         width="109"
         height="80"
         x="222"
         y="101"
         id="rect2227" />
    </clipPath>
  </defs>
  <metadata
     id="metadata2027">
    <rdf:RDF>
      <cc:Work
         rdf:about="">
        <cc:license
           rdf:resource="http://web.resource.org/cc/PublicDomain" />
        <dc:format>image/svg+xml</dc:format>
        <dc:type
           rdf:resource="http://purl.org/dc/dcmitype/StillImage" />
        <dc:title>Departements of France</dc:title>
      </cc:Work>
      <cc:License
         rdf:about="http://web.resource.org/cc/PublicDomain">
        <cc:permits
           rdf:resource="http://web.resource.org/cc/Reproduction" />
        <cc:permits
           rdf:resource="http://web.resource.org/cc/Distribution" />
        <cc:permits
           rdf:resource="http://web.resource.org/cc/DerivativeWorks" />
      </cc:License>
    </rdf:RDF>
  </metadata>
  <style
     type="text/css"
     id="style6"><![CDATA[
.land
{
	stroke:white;
	stroke-width:0;
}
]]></style>
  <g
     id="complete_map"
     transform="translate(-26.015624,-19.124999)">
    <path
       d="M 379.09375,139.71875 374.5,140.5 l -0.59375,4.9375 -4.15625,2.96875 -2.15625,-0.75 -1.03125,2.15625 -0.1875,2.96875 3.5625,4.96875 3.375,1.1875 0.78125,4.15625 0.21875,7.125 -1.1875,1.78125 -3.375,0.21875 -2.1875,1.96875 1.59375,1 0.65625,2.5 2.34375,1.3125 3.5,3.71875 4.5,6.0625 -2.53125,2.71875 1.75,1.1875 0.1875,3.3125 3.125,-0.1875 0.78125,1.5625 2.34375,0.1875 1.75,-0.96875 3.125,3.90625 0.40625,0.96875 4.28125,-0.96875 0.8125,-1.96875 0.1875,0.0312 v -1.96875 l 2.71875,-1.1875 3.125,1.1875 2.9375,-1.1875 h 1.75 L 407.5,191.5 l 0.96875,-1.15625 -1.75,-0.1875 -0.1875,-2.34375 2.71875,-0.59375 0.1875,-1.5625 h 2.75 V 183.125 l 2.15625,-0.78125 -0.59375,-1.5625 0.59375,-0.375 L 412.5625,179 l -2.125,0.78125 v -4.09375 l -5.46875,-2.71875 1.15625,-5.28125 1.75,-1.1875 -0.5625,-1.75 -2.5625,-0.375 -0.5625,-2.5625 h -2.34375 l -2.75,-3.6875 -3.125,-0.21875 -1.34375,-1.9375 1.75,-1.75 -4.125,-4.5 -1.75,-0.59375 -4.6875,-2.34375 -2.53125,-2.71875 -4.09375,-0.59375 z"
       class="land departement52"
       id="departement"
       transform="translate(-340.35937,-120.59375)" />
    <rect
       x="0"
       y="0"
       width="100"
       height="100"
       style="fill:none"
       id="rect9" />
  </g>
</svg>
