<?xml version="1.0" encoding="UTF-8" standalone="no"?>
<svg
   version="1.0"
   width="56.125"
   height="52.75"
   id="svg2"
   xmlns="http://www.w3.org/2000/svg"
   xmlns:svg="http://www.w3.org/2000/svg"
   xmlns:rdf="http://www.w3.org/1999/02/22-rdf-syntax-ns#"
   xmlns:cc="http://creativecommons.org/ns#"
   xmlns:dc="http://purl.org/dc/elements/1.1/">
  <defs
     id="defs4">
    <clipPath
       id="clipPath3345">
      <rect
         width="109"
         height="80"
         x="222"
         y="101"
         id="rect2227" />
    </clipPath>
  </defs>
  <metadata
     id="metadata2027">
    <rdf:RDF>
      <cc:Work
         rdf:about="">
        <cc:license
           rdf:resource="http://web.resource.org/cc/PublicDomain" />
        <dc:format>image/svg+xml</dc:format>
        <dc:type
           rdf:resource="http://purl.org/dc/dcmitype/StillImage" />
        <dc:title>Departements of France</dc:title>
      </cc:Work>
      <cc:License
         rdf:about="http://web.resource.org/cc/PublicDomain">
        <cc:permits
           rdf:resource="http://web.resource.org/cc/Reproduction" />
        <cc:permits
           rdf:resource="http://web.resource.org/cc/Distribution" />
        <cc:permits
           rdf:resource="http://web.resource.org/cc/DerivativeWorks" />
      </cc:License>
    </rdf:RDF>
  </metadata>
  <style
     type="text/css"
     id="style6"><![CDATA[
.land
{
	stroke:white;
	stroke-width:0;
}
]]></style>
  <g
     id="complete_map"
     transform="translate(-21.937499,-23.624999)">
    <path
       d="m 206.28125,284.875 -1.6875,1.28125 0.21875,2.78125 -1.0625,0.84375 -3,-1.71875 -2.96875,1.0625 -3.40625,0.21875 -2.5625,-3.125 -0.8125,0.15625 -3.40625,1.6875 -2.5625,0.65625 v 1.46875 l -1.46875,1.71875 0.40625,1.0625 -1.90625,1.0625 -1.6875,6.15625 -0.4375,4.03125 -1.46875,0.625 -2.125,-0.1875 -0.4375,-1.0625 h -2.34375 l -1.25,1.0625 h -2.78125 l -2.34375,1.25 1.71875,0.65625 0.21875,4.46875 0.84375,0.1875 -1.5,1.71875 1.71875,1.0625 2.3125,2.125 1.28125,2.125 1.5,1.46875 -0.4375,2.125 -0.84375,0.84375 1.28125,1.28125 v 1.5 l -2.5625,2.125 1.0625,0.84375 1.5,0.4375 v 0.40625 l -2.125,0.84375 0.1875,1.0625 1.28125,0.65625 4.03125,-0.65625 1.71875,1.90625 1.28125,1.71875 4.15625,2.8125 0.59375,-1 3.90625,0.40625 1.9375,-1.78125 3.53125,-3.5 0.1875,-6.84375 9.1875,-6.25 0.1875,-4.6875 2.75,-0.375 1.75,-3.125 1.09375,0.0312 0.65625,-2.96875 1.5625,-0.1875 0.96875,-2.75 1.96875,-0.59375 2.34375,-1.5625 -0.375,-4.875 1.75,-0.59375 3.5,-0.78125 -0.1875,-1.75 -0.59375,-2.71875 -2.71875,-0.21875 -1.5625,-1.75 0.96875,-1.75 0.0625,-1.59375 -1.75,-0.875 h -3.375 l -1.5,1.6875 -3.625,1.5 -1.25,-1.28125 z"
       class="land departement16"
       id="departement"
       transform="translate(-145.25,-261.25)" />
    <rect
       x="0"
       y="0"
       width="100"
       height="100"
       style="fill:none"
       id="rect9" />
  </g>
</svg>
