<svg xmlns="http://www.w3.org/2000/svg" viewBox="0 0 104.47 92.58"><defs><style>.cls-1{}</style></defs><g id="Calque_2" data-name="Calque 2"><g id="Layer_1" data-name="Layer 1"><polygon class="cls-1" points="104.16 51.2 102.68 48.38 100.39 47.32 97.97 45.25 95.5 44.85 92.93 41.25 87.66 34.9 86.79 33.2 86.63 31.31 84.73 28.75 82.6 27.42 81.55 23.76 81.5 18.85 80.77 16.44 78.48 12.69 75.52 9.46 72.28 7.53 69.23 6.71 68 6.78 63.13 4.19 61.33 4.44 60.2 3.95 57.69 3.48 54.55 3.91 47.79 1.83 45.33 2.49 42.17 2.17 39.05 0 37.39 0.85 34.24 0.53 29.97 1.8 26.47 4.51 22.51 7.31 21.1 9.29 18.86 10.32 17.46 11.15 12.64 9.96 11.44 10.08 11.45 11.82 9.96 15.77 10.88 18.85 10.04 23.26 6.67 26.23 4.85 26.9 2.93 26.9 0.31 29.75 0.01 30.32 0 30.97 1.04 33.32 0.57 36.51 0.88 37.75 2.86 40.3 6.32 43.16 6.58 44.33 9.28 47.75 9.22 49.68 11.89 52.34 12.01 56.19 11.16 59.95 13.24 64.65 17.84 68.07 18.08 68.82 19.55 69.98 19.94 72.43 21.19 73.81 25.59 74.41 29.79 75.82 31.95 77.76 34.29 80.73 35.97 81.65 39.74 82.34 41.36 84.27 41.93 84.57 44.41 84.91 45.84 86.13 48.38 86.17 54.34 88.25 56.89 90.02 58.11 89.83 60.5 90.52 62.27 89.89 62.91 89.78 66.52 92.31 70.89 91.64 73.22 92.58 74.96 91.76 77.47 91.47 78.88 90.21 82.06 90.44 90.16 88.76 91.28 88.13 93.82 88.33 94.46 88.24 95.59 87.63 98.56 85.17 99.95 83 100.2 82.41 99.47 78.63 99.96 74.18 99.05 69.82 99.38 67.95 100.02 64.73 101.05 61.12 102.64 59.19 102.84 56.65 104.35 55.61 104.47 54.98 104.16 51.2"/></g></g></svg>