<?xml version="1.0" encoding="UTF-8" standalone="no"?>
<svg
   version="1.0"
   width="53.59375"
   height="52.375"
   id="svg2"
   xmlns="http://www.w3.org/2000/svg"
   xmlns:svg="http://www.w3.org/2000/svg"
   xmlns:rdf="http://www.w3.org/1999/02/22-rdf-syntax-ns#"
   xmlns:cc="http://creativecommons.org/ns#"
   xmlns:dc="http://purl.org/dc/elements/1.1/">
  <defs
     id="defs4">
    <clipPath
       id="clipPath3345">
      <rect
         width="109"
         height="80"
         x="222"
         y="101"
         id="rect2227" />
    </clipPath>
  </defs>
  <metadata
     id="metadata2027">
    <rdf:RDF>
      <cc:Work
         rdf:about="">
        <cc:license
           rdf:resource="http://web.resource.org/cc/PublicDomain" />
        <dc:format>image/svg+xml</dc:format>
        <dc:type
           rdf:resource="http://purl.org/dc/dcmitype/StillImage" />
        <dc:title>Departements of France</dc:title>
      </cc:Work>
      <cc:License
         rdf:about="http://web.resource.org/cc/PublicDomain">
        <cc:permits
           rdf:resource="http://web.resource.org/cc/Reproduction" />
        <cc:permits
           rdf:resource="http://web.resource.org/cc/Distribution" />
        <cc:permits
           rdf:resource="http://web.resource.org/cc/DerivativeWorks" />
      </cc:License>
    </rdf:RDF>
  </metadata>
  <style
     type="text/css"
     id="style6"><![CDATA[
.land
{
	stroke:white;
	stroke-width:0;
}
]]></style>
  <g
     id="complete_map"
     transform="translate(-23.203124,-23.8125)">
    <path
       d="m 306.75,203.78125 -0.96875,1.53125 h -1.84375 l -2.46875,-0.5625 -2.75,0.8125 0.1875,1.96875 2.34375,2.71875 v 3.71875 l -1.75,2.53125 0.5625,2.34375 3.53125,2.75 0.1875,2.71875 1.96875,4.125 -0.40625,4.6875 2.15625,2.125 -0.59375,5.09375 -0.1875,2.53125 0.96875,1.75 -1.5,4.78125 0.125,1.46875 3.34375,1.5625 L 312,255 l 2.125,-1.1875 1.96875,-1.15625 0.40625,1.75 h 2.90625 l 0.78125,-1.5625 1.75,0.78125 0.59375,2.53125 1.5625,-0.375 3.71875,-5.09375 1.9375,1.375 0.3125,0.59375 3.0625,-1.90625 1.25,0.15625 0.96875,2.375 1.84375,-0.28125 1.40625,-1.40625 h 1.8125 l 1.40625,-1.8125 1.40625,-0.28125 0.28125,-1 3.0625,0.15625 0.15625,-0.71875 -1.40625,-1.25 v -1.25 l 1.96875,-1.125 v -0.84375 l -1.84375,-1.125 -0.28125,-2.09375 0.15625,-1.96875 -1.25,-0.84375 1.09375,-1.53125 1,-0.5625 0.6875,-1.6875 -0.96875,-0.5625 -1.125,-1.6875 1.40625,-1.96875 2.375,-1.40625 h 2.9375 v -2.21875 l 0.84375,-0.28125 v -0.84375 l -1.25,-1.96875 -2.8125,-0.5625 -0.96875,-1.6875 0.40625,-1.53125 0.28125,-2.125 -0.5,-1.125 -3.125,2.125 -1.28125,0.5625 -1.6875,-1.125 0.15625,-2.8125 h -1.84375 l -1.53125,1 -0.40625,-1.28125 0.84375,-1.40625 -1,-1.25 -1.125,1.6875 0.15625,1.25 -2.65625,-0.125 -4.21875,-3.9375 -3.21875,-0.125 v -2.125 l -2.25,-1.40625 -0.4375,-1.8125 -0.6875,-0.125 v 3.5 l -1.25,0.28125 -1.84375,-0.5625 -1.9375,1.25 -1.125,0.28125 -1.125,-0.96875 -1.125,0.5625 -2.53125,-1.6875 h -1.8125 l -1.28125,-0.84375 0.28125,-1.5625 -1.40625,-1.25 z"
       class="land departement58"
       id="departement"
       transform="translate(-275.51562,-179.96875)" />
    <rect
       x="0"
       y="0"
       width="100"
       height="100"
       style="fill:none"
       id="rect9" />
  </g>
</svg>
