<?xml version="1.0" encoding="UTF-8" standalone="no"?>
<svg
   version="1.0"
   width="51.21875"
   height="52.5"
   id="svg2"
   xmlns="http://www.w3.org/2000/svg"
   xmlns:svg="http://www.w3.org/2000/svg"
   xmlns:rdf="http://www.w3.org/1999/02/22-rdf-syntax-ns#"
   xmlns:cc="http://creativecommons.org/ns#"
   xmlns:dc="http://purl.org/dc/elements/1.1/">
  <defs
     id="defs4">
    <clipPath
       id="clipPath3345">
      <rect
         width="109"
         height="80"
         x="222"
         y="101"
         id="rect2227" />
    </clipPath>
  </defs>
  <metadata
     id="metadata2027">
    <rdf:RDF>
      <cc:Work
         rdf:about="">
        <cc:license
           rdf:resource="http://web.resource.org/cc/PublicDomain" />
        <dc:format>image/svg+xml</dc:format>
        <dc:type
           rdf:resource="http://purl.org/dc/dcmitype/StillImage" />
        <dc:title>Departements of France</dc:title>
      </cc:Work>
      <cc:License
         rdf:about="http://web.resource.org/cc/PublicDomain">
        <cc:permits
           rdf:resource="http://web.resource.org/cc/Reproduction" />
        <cc:permits
           rdf:resource="http://web.resource.org/cc/Distribution" />
        <cc:permits
           rdf:resource="http://web.resource.org/cc/DerivativeWorks" />
      </cc:License>
    </rdf:RDF>
  </metadata>
  <style
     type="text/css"
     id="style6"><![CDATA[
.land
{
	stroke:white;
	stroke-width:0;
}
]]></style>
  <g
     id="complete_map"
     transform="translate(-24.390624,-23.749999)">
    <path
       d="m 254.71875,221.4375 -1.25,0.4375 -2.53125,-0.15625 -2.9375,1 -0.6875,1.53125 -0.28125,-0.5625 -3.375,0.15625 -1.6875,1.40625 -1.96875,0.28125 -0.28125,0.96875 1.5625,2.09375 -0.4375,1.84375 -1.8125,0.125 v 1.53125 l -1.40625,1.28125 -1.53125,2.53125 -1.40625,-1.28125 -2.09375,-0.40625 -3.09375,1.125 -0.71875,3.5 -0.96875,2.8125 -1.53125,7.96875 -2.125,1.96875 -1.71875,0.15625 0.5,0.5 v 3.71875 l -0.78125,2.34375 3.71875,2.9375 1.9375,1.9375 3.125,0.40625 1.1875,4.09375 2.125,1.15625 -0.375,2.9375 -1.5625,0.28125 0.5625,0.125 4.90625,0.375 1.75,-1.75 3.125,3.125 3.90625,-4.5 1.75,1.1875 2.34375,-0.21875 0.78125,0.40625 3.53125,0.1875 1.15625,-3.125 9.78125,1.1875 3.71875,0.96875 1.6875,-0.1875 0.0937,-1.5625 1.96875,-1.96875 -0.40625,-1.6875 -1.125,-2.21875 0.40625,-0.84375 0.15625,-2.53125 0.6875,-0.84375 0.15625,-0.5625 -1.6875,-1.53125 L 271,254.125 l -2.65625,-1.40625 v -1.6875 l 1.9375,-1.125 v -1.125 l -1.8125,-1.53125 -0.5625,-0.96875 1.40625,-0.71875 -0.125,-1.25 2.21875,-1.84375 -0.125,-0.8125 h -1.8125 l -1.125,-1.28125 v -0.6875 L 269.3125,238 v -1.25 l -2.25,-2.96875 0.4375,-2.65625 -1.28125,-0.96875 -2.65625,0.125 -2.09375,0.84375 -2.8125,-0.40625 -1.40625,-1.125 -0.28125,-0.84375 2.25,-1.84375 L 259.375,224.6875 256.40625,223 Z"
       class="land departement36"
       id="departement"
       transform="translate(-197.76562,-197.6875)" />
    <rect
       x="0"
       y="0"
       width="100"
       height="100"
       style="fill:none"
       id="rect9" />
  </g>
</svg>
