<?xml version="1.0" encoding="UTF-8" standalone="no"?>
<svg
   version="1.0"
   width="60.3125"
   height="34.84375"
   id="svg2"
   xmlns="http://www.w3.org/2000/svg"
   xmlns:svg="http://www.w3.org/2000/svg"
   xmlns:rdf="http://www.w3.org/1999/02/22-rdf-syntax-ns#"
   xmlns:cc="http://creativecommons.org/ns#"
   xmlns:dc="http://purl.org/dc/elements/1.1/">
  <defs
     id="defs4">
    <clipPath
       id="clipPath3345">
      <rect
         width="109"
         height="80"
         x="222"
         y="101"
         id="rect2227" />
    </clipPath>
  </defs>
  <metadata
     id="metadata2027">
    <rdf:RDF>
      <cc:Work
         rdf:about="">
        <cc:license
           rdf:resource="http://web.resource.org/cc/PublicDomain" />
        <dc:format>image/svg+xml</dc:format>
        <dc:type
           rdf:resource="http://purl.org/dc/dcmitype/StillImage" />
        <dc:title>Departements of France</dc:title>
      </cc:Work>
      <cc:License
         rdf:about="http://web.resource.org/cc/PublicDomain">
        <cc:permits
           rdf:resource="http://web.resource.org/cc/Reproduction" />
        <cc:permits
           rdf:resource="http://web.resource.org/cc/Distribution" />
        <cc:permits
           rdf:resource="http://web.resource.org/cc/DerivativeWorks" />
      </cc:License>
    </rdf:RDF>
  </metadata>
  <style
     type="text/css"
     id="style6"><![CDATA[
.land
{
	stroke:white;
	stroke-width:0;
}
]]></style>
  <g
     id="complete_map"
     transform="translate(-19.843749,-32.578124)">
    <path
       d="m 300.5,468.65625 -4.25,2.28125 0.34375,2.5 H 278.0625 l 0.15625,3.34375 1.9375,2.84375 -7.9375,3.875 -0.84375,-0.5 -6.53125,0.46875 -0.8125,1.65625 -3.3125,0.84375 -2.21875,1.9375 -6.0625,1.40625 0.34375,2.0625 2.9375,2.75 5.84375,1.5625 0.1875,3.5 3.125,2.75 2.34375,-0.40625 3.34375,-4.09375 4.09375,-0.78125 6.4375,2.15625 5.46875,4.6875 1.5625,-1.96875 h 1.375 l 1.375,0.96875 1.15625,-0.5625 0.1875,-2.75 5.875,-1.375 1.9375,-2.53125 2.9375,-0.96875 h 4.09375 l 2.5625,2.71875 3.125,0.21875 v -3.125 l -1.5625,-2.15625 -2.75,-1.1875 -0.4375,-17.0625 -2.5625,-1.1875 z"
       class="land departement66"
       id="departement"
       transform="translate(-232.59375,-436.07812)" />
    <rect
       x="0"
       y="0"
       width="100"
       height="100"
       style="fill:none"
       id="rect9" />
  </g>
</svg>
