<?xml version="1.0" encoding="UTF-8" standalone="no"?>
<svg
   version="1.0"
   width="51.5625"
   height="47.40625"
   id="svg2"
   xmlns="http://www.w3.org/2000/svg"
   xmlns:svg="http://www.w3.org/2000/svg"
   xmlns:rdf="http://www.w3.org/1999/02/22-rdf-syntax-ns#"
   xmlns:cc="http://creativecommons.org/ns#"
   xmlns:dc="http://purl.org/dc/elements/1.1/">
  <defs
     id="defs4">
    <clipPath
       id="clipPath3345">
      <rect
         width="109"
         height="80"
         x="222"
         y="101"
         id="rect2227" />
    </clipPath>
  </defs>
  <metadata
     id="metadata2027">
    <rdf:RDF>
      <cc:Work
         rdf:about="">
        <cc:license
           rdf:resource="http://web.resource.org/cc/PublicDomain" />
        <dc:format>image/svg+xml</dc:format>
        <dc:type
           rdf:resource="http://purl.org/dc/dcmitype/StillImage" />
        <dc:title>Departements of France</dc:title>
      </cc:Work>
      <cc:License
         rdf:about="http://web.resource.org/cc/PublicDomain">
        <cc:permits
           rdf:resource="http://web.resource.org/cc/Reproduction" />
        <cc:permits
           rdf:resource="http://web.resource.org/cc/Distribution" />
        <cc:permits
           rdf:resource="http://web.resource.org/cc/DerivativeWorks" />
      </cc:License>
    </rdf:RDF>
  </metadata>
  <style
     type="text/css"
     id="style6"><![CDATA[
.land
{
	stroke:white;
	stroke-width:0;
}
]]></style>
  <g
     id="complete_map"
     transform="translate(-24.218749,-26.296875)">
    <path
       d="m 265.75,307.625 -0.84375,2.125 -3.1875,0.625 -1.25,2.125 h -1.5 l -2.125,-0.625 -1.5,2.53125 -2.3125,0.21875 -1.5,2.75 H 249.625 l -1.5,1.5 -3.8125,-0.4375 -1.28125,2.125 -1.46875,-0.1875 -2.5625,3.1875 -2.34375,-0.875 -1.09375,2.21875 0.84375,2.15625 2.15625,1.75 -3.90625,3.53125 v 2.71875 l 1.5625,0.78125 -1.5625,1.96875 2.15625,1.75 -1.5625,1.9375 1.75,1.1875 4.28125,-0.1875 -0.1875,4.28125 1.625,2.5625 0.59375,-0.0937 4.15625,-1.9375 4.96875,2.21875 3.84375,5.5 2.21875,-0.28125 3.3125,-3.3125 1.09375,1.9375 2.21875,-2.1875 3.03125,0.8125 0.0937,0.65625 2.53125,-1.78125 -0.78125,-1.9375 -1.1875,-1.1875 1.5625,-1.9375 h 1.5625 l 1,-3.125 0.78125,-1.5625 -0.59375,-3.53125 2.53125,-3.5 3.53125,-2.15625 0.1875,-5.46875 1.75,0.96875 1.96875,2.15625 h 1.9375 l 1.1875,-1.375 -0.96875,-2.34375 0.96875,-3.5 -0.59375,-3.3125 -1.1875,-1.375 v -2.75 l 1.78125,-2.90625 -0.40625,-2.75 -0.4375,-0.4375 -1.96875,1.53125 h -3.84375 l -1.25,1.90625 h -2.34375 l -1.90625,-1.90625 -0.875,-1.28125 h -4.875 L 267.25,307.625 Z"
       class="land departement19"
       id="departement"
       transform="translate(-210.4375,-281.32812)" />
    <rect
       x="0"
       y="0"
       width="100"
       height="100"
       style="fill:none"
       id="rect9" />
  </g>
</svg>
