<?xml version="1.0" encoding="UTF-8" standalone="no"?>
<svg
   version="1.0"
   width="47.96875"
   height="68.84375"
   id="svg2"
   xmlns="http://www.w3.org/2000/svg"
   xmlns:svg="http://www.w3.org/2000/svg"
   xmlns:rdf="http://www.w3.org/1999/02/22-rdf-syntax-ns#"
   xmlns:cc="http://creativecommons.org/ns#"
   xmlns:dc="http://purl.org/dc/elements/1.1/">
  <defs
     id="defs4">
    <clipPath
       id="clipPath3345">
      <rect
         width="109"
         height="80"
         x="222"
         y="101"
         id="rect2227" />
    </clipPath>
  </defs>
  <metadata
     id="metadata2027">
    <rdf:RDF>
      <cc:Work
         rdf:about="">
        <cc:license
           rdf:resource="http://web.resource.org/cc/PublicDomain" />
        <dc:format>image/svg+xml</dc:format>
        <dc:type
           rdf:resource="http://purl.org/dc/dcmitype/StillImage" />
        <dc:title>Departements of France</dc:title>
      </cc:Work>
      <cc:License
         rdf:about="http://web.resource.org/cc/PublicDomain">
        <cc:permits
           rdf:resource="http://web.resource.org/cc/Reproduction" />
        <cc:permits
           rdf:resource="http://web.resource.org/cc/Distribution" />
        <cc:permits
           rdf:resource="http://web.resource.org/cc/DerivativeWorks" />
      </cc:License>
    </rdf:RDF>
  </metadata>
  <style
     type="text/css"
     id="style6"><![CDATA[
.land
{
	stroke:white;
	stroke-width:0;
}
]]></style>
  <g
     id="complete_map"
     transform="translate(-26.015624,-15.578124)">
    <path
       d="m 328.40625,62.21875 -3.125,2.15625 -1.5625,-1.375 h -1.375 l -3.125,2.15625 -2.34375,-1.375 -2.34375,1.375 -0.78125,0.1875 -0.59375,-1.1875 H 311 l -1.5625,1 h -0.0625 l 0.46875,2.75 -2.5625,2.78125 V 73.25 l -1.78125,2 0.40625,2.375 0.96875,3.96875 1.1875,6.75 -0.375,5.9375 -0.8125,1.78125 2.375,1.78125 -1.78125,0.8125 -1.1875,4.75 -3.375,0.78125 -1.1875,2 2.375,0.40625 0.40625,2.75 -1.78125,0.40625 0.1875,2.96875 0.59375,-0.1875 1,-1.59375 2.375,1.59375 1.40625,1.59375 -0.40625,2.65625 1.78125,1.28125 0.59375,4.3125 5.25,5.0625 1.75,0.59375 1,2.34375 3.28125,0.6875 0.40625,-0.5 1,-2.125 2.9375,-1.375 1.5625,-4.09375 1.75,-1.1875 -1,-1.375 h -2.53125 l -0.375,-1.34375 1.75,-0.78125 0.78125,-1.1875 -1.75,-1.15625 0.5625,-1.78125 4.5,-0.375 -0.78125,-1.75 L 327.625,110.25 V 105 l 3.6875,-2.75 h 4.125 l -0.40625,-1.9375 2.34375,-1 3.3125,2.15625 1.375,-0.375 -0.1875,-6.65625 0.59375,-2.34375 L 343.25,89.375 340.6875,88 341.28125,86.4375 345,85.65625 V 83.125 l 2.9375,-1.5625 0.78125,-2.34375 -0.96875,-1.5625 0.1875,-2.9375 1.75,-1.5625 -1.75,-3.3125 0.53125,-3.46875 H 344.5 l -1.0625,0.71875 -3.71875,-0.96875 -0.78125,-2.53125 h -1.15625 l -2.15625,1.9375 -0.375,-1.75 -4.3125,-0.40625 -1.1875,-0.96875 z"
       class="land departement02"
       id="departement"
       transform="translate(-275.70312,-46.640625)" />
    <rect
       x="0"
       y="0"
       width="100"
       height="100"
       style="fill:none"
       id="rect9" />
  </g>
</svg>
