<svg xmlns="http://www.w3.org/2000/svg" viewBox="0 0 96 84"><defs><style>.cls-1{fill-rule:evenodd;}</style></defs><g id="Calque_2" data-name="Calque 2"><g id="Layer_1" data-name="Layer 1"><path class="cls-1" d="M27.5,74.49a1,1,0,0,1,1.37.33l1.28,2.11a1,1,0,0,1,0,1.06l-1.89,2.82-1.6,2.7a1,1,0,0,1-1.24.41l-6.56-2.7a1,1,0,0,1-.5-1.37l1.6-3.06a1,1,0,0,1,1-.54l3.19.29Zm29.59-9a.94.94,0,0,1,.21-.45l3-3.66a1,1,0,0,1,.59-.34l1.76-.32a1,1,0,0,1,.65.1l5.43,2.86a1.11,1.11,0,0,1,.43.43l1.2,2.39,2.91,2.74a1,1,0,0,1,.29.92l-.8,4a1,1,0,0,1-.4.62l-4.08,2.86a.9.9,0,0,1-.24.12l-4.87,1.75a1,1,0,0,1-.66,0l-5.27-1.75a1,1,0,0,1-.66-.69l-1.91-7.31a1,1,0,0,1,.41-1.08l1.57-1ZM94.81,20l1.12,2.9a1,1,0,0,1-.44,1.22l-6.56,3.66a1.06,1.06,0,0,1-.46.13l-4.8.11a1,1,0,0,1-.88-1.49l1.6-2.71a.93.93,0,0,1,.44-.39l8.63-4A1,1,0,0,1,94.81,20ZM36.28,17.48l-3.05-2a1,1,0,0,1-.41-.52L31.06,9.73a1,1,0,0,1,.09-.81l1.76-3a.92.92,0,0,1,.24-.28L40,.21a1,1,0,0,1,1.2,0l6.23,4.45a.92.92,0,0,1,.37.5L49.75,11a1,1,0,0,1,0,.53l-.87,3.76,2.78,5,7.84,1.35a.83.83,0,0,1,.34.13l5.6,3.33a1,1,0,0,1,.37.4l1.71,3.26,7.56,1.92a1,1,0,0,1,.73,1.18l-.64,2.78a1,1,0,0,1-1.18.75L67.42,34l-10.28.42-8.08,2.84-8.15,2.22a1,1,0,0,1-.51,0l-5-1.28a1,1,0,0,1-.39-.19l-3.89-3.2-.64.71a1,1,0,0,1-.74.33h-2l-.37,3.81,2,5.51,0,.1,1.28,5.25,0,.11.64,5.08a1,1,0,0,1-.11.59l-1.92,3.65a.81.81,0,0,1-.17.24l-6.55,6.67a1,1,0,0,1-.72.3H19.39L16.77,69a.86.86,0,0,1-.35.16l-3.36.8a1,1,0,0,1-1.2-.75L11,65.4,7.18,61.79a1,1,0,0,1-.31-.72V59.48L4.66,56.41a1,1,0,0,1-.18-.58V52.47l-.77-2.73a1.24,1.24,0,0,1,0-.27V42.65l-.76-1a1,1,0,0,1-.2-.59v-5L.12,31.35A1,1,0,0,1,0,30.72l1-6a1.07,1.07,0,0,1,.09-.27l1.76-3.66a1,1,0,0,1,.49-.48l5.44-2.38a1,1,0,0,1,1.16.26L12.33,21h2.1a1,1,0,0,1,.44.1l5.82,2.82L25.06,25a1,1,0,0,1,.66,1.39l-.92,1.94.9.24L29.19,27l2.46-2.59V22a1,1,0,0,1,.62-.91l3.39-1.41ZM80,42.68a1,1,0,1,1,0-2h3a1,1,0,1,1,0,2Z"/></g></g></svg>