<?xml version="1.0" encoding="UTF-8" standalone="no"?>
<svg
   version="1.0"
   width="52.03125"
   height="56.281254"
   id="svg2"
   xmlns="http://www.w3.org/2000/svg"
   xmlns:svg="http://www.w3.org/2000/svg"
   xmlns:rdf="http://www.w3.org/1999/02/22-rdf-syntax-ns#"
   xmlns:cc="http://creativecommons.org/ns#"
   xmlns:dc="http://purl.org/dc/elements/1.1/">
  <defs
     id="defs4">
    <clipPath
       id="clipPath3345">
      <rect
         width="109"
         height="80"
         x="222"
         y="101"
         id="rect2227" />
    </clipPath>
  </defs>
  <metadata
     id="metadata2027">
    <rdf:RDF>
      <cc:Work
         rdf:about="">
        <cc:license
           rdf:resource="http://web.resource.org/cc/PublicDomain" />
        <dc:format>image/svg+xml</dc:format>
        <dc:type
           rdf:resource="http://purl.org/dc/dcmitype/StillImage" />
        <dc:title>Departements of France</dc:title>
      </cc:Work>
      <cc:License
         rdf:about="http://web.resource.org/cc/PublicDomain">
        <cc:permits
           rdf:resource="http://web.resource.org/cc/Reproduction" />
        <cc:permits
           rdf:resource="http://web.resource.org/cc/Distribution" />
        <cc:permits
           rdf:resource="http://web.resource.org/cc/DerivativeWorks" />
      </cc:License>
    </rdf:RDF>
  </metadata>
  <style
     type="text/css"
     id="style6"><![CDATA[
.land
{
	stroke:white;
	stroke-width:0;
}
]]></style>
  <g
     id="complete_map"
     transform="translate(-8.4374994,-129.0625)">
    <path
       d="m 40.65625,129.0625 -2.125,2.34375 -2.34375,-0.96875 -4.3125,0.40625 -0.78125,1.9375 -2.53125,0.59375 -0.40625,-2.15625 -4.46875,0.59375 v 1.375 l -3.125,0.1875 -1.375,-0.96875 -1.5625,0.78125 -0.40625,2.34375 -5.25,0.1875 -2.75,3.3125 2.34375,1.75 -3.125,2.5625 0.96875,1.75 -0.78125,4.28125 3.125,0.40625 1.1875,-1.1875 0.59375,0.78125 7.40625,-0.96875 4.875,-3.5 -4.28125,4.09375 0.375,1.9375 3.90625,-1.75 -0.78125,2.75 4.3125,0.1875 -0.1875,1.15625 -4.6875,-0.1875 -3.71875,-0.96875 -4.5,-2.15625 -2.71875,3.125 3.5,1.1875 -0.1875,5.25 0.96875,-0.78125 2.15625,-3.3125 4.09375,2.34375 1.96875,0.40625 0.78125,3.125 -1.1875,2.125 -2.53125,-0.1875 H 20.75 l -3.90625,0.59375 -6.65625,0.375 L 8.84375,166 l 1.9375,1.15625 2.15625,-0.1875 1.75,1.5625 2.53125,-0.1875 4.125,4.6875 0.96875,5.0625 -1.375,2.75 4.09375,0.78125 4.5,-0.21875 0.96875,-1.75 -1.75,-2.34375 1.75,0.78125 1.78125,-0.1875 3.125,1.75 1.9375,-0.375 v -3.34375 l 0.78125,3.34375 2.53125,4.09375 5.46875,0.375 0.21875,-1.15625 1.34375,1.9375 3.34375,0.59375 h 2.53125 l 0.15625,0.21875 0.9375,-3.84375 h 2.28125 l 1.125,-1.78125 H 59.5 l 0.15625,-2.875 0.8125,-0.96875 -1.59375,-2.125 -0.96875,1.15625 -2.4375,-1.9375 -5,-0.8125 -0.8125,-2.90625 -1.4375,-3.71875 -0.15625,-1.4375 2.40625,-1.9375 H 52.75 L 56,160.59375 55.3125,158.125 56.28125,157.15625 55.96875,151.5 54.5,149.5625 v -2.40625 l 2.28125,-0.65625 -2.4375,-0.8125 -0.15625,-1.90625 1.125,-0.8125 1.625,-1.625 -1.78125,-1.125 0.15625,-2.09375 -2.40625,-0.15625 1.125,-5.25 -3.21875,-1.875 -5.46875,0.1875 v 3.90625 h -1.5625 l -0.375,-1.75 -2.34375,0.375 z"
       class="land departement29"
       id="departement" />
    <rect
       x="0"
       y="0"
       width="100"
       height="100"
       style="fill:none"
       id="rect9" />
  </g>
</svg>
