<?xml version="1.0" encoding="UTF-8" standalone="no"?>
<svg
   version="1.0"
   width="10.750001"
   height="8.625001"
   id="svg2"
   xmlns="http://www.w3.org/2000/svg"
   xmlns:svg="http://www.w3.org/2000/svg"
   xmlns:rdf="http://www.w3.org/1999/02/22-rdf-syntax-ns#"
   xmlns:cc="http://creativecommons.org/ns#"
   xmlns:dc="http://purl.org/dc/elements/1.1/">
  <defs
     id="defs4">
    <clipPath
       id="clipPath3345">
      <rect
         width="109"
         height="80"
         x="222"
         y="101"
         id="rect2227" />
    </clipPath>
  </defs>
  <metadata
     id="metadata2027">
    <rdf:RDF>
      <cc:Work
         rdf:about="">
        <cc:license
           rdf:resource="http://web.resource.org/cc/PublicDomain" />
        <dc:format>image/svg+xml</dc:format>
        <dc:type
           rdf:resource="http://purl.org/dc/dcmitype/StillImage" />
        <dc:title>Departements of France</dc:title>
      </cc:Work>
      <cc:License
         rdf:about="http://web.resource.org/cc/PublicDomain">
        <cc:permits
           rdf:resource="http://web.resource.org/cc/Reproduction" />
        <cc:permits
           rdf:resource="http://web.resource.org/cc/Distribution" />
        <cc:permits
           rdf:resource="http://web.resource.org/cc/DerivativeWorks" />
      </cc:License>
    </rdf:RDF>
  </metadata>
  <style
     type="text/css"
     id="style6"><![CDATA[
.land
{
	stroke:white;
	stroke-width:0;
}
]]></style>
  <g
     id="complete_map"
     transform="translate(-44.624999,-45.687499)">
    <path
       d="m 282.9375,131.28125 -0.8125,0.65625 -0.8125,0.125 -0.0625,0.4375 -0.15625,0.40625 H 281.5 l 0.21875,-0.1875 -0.0937,-0.3125 1.25,-0.0625 0.3125,0.125 v 0.65625 l -0.3125,0.65625 -1.8125,-0.25 -0.28125,-0.25 -0.84375,0.59375 -0.8125,0.21875 -1.15625,-0.0625 -0.34375,1.21875 0.3125,0.53125 -0.5,1.46875 0.5,0.9375 0.875,-0.4375 2.09375,1.15625 h 3.625 l 2.15625,1 -0.0312,-0.21875 1.53125,-3.84375 v -1.75 l -0.96875,-0.25 -0.25,-0.46875 -0.40625,-0.1875 -0.875,-0.96875 -1.53125,-0.875 z"
       class="land departement94"
       id="departement"
       transform="translate(-232.8125,-85.59375)" />
    <rect
       x="0"
       y="0"
       width="100"
       height="100"
       style="fill:none"
       id="rect9" />
  </g>
</svg>
