<?xml version="1.0" encoding="UTF-8" standalone="no"?>
<svg
   version="1.0"
   width="43.78125"
   height="73.375"
   id="svg2"
   xmlns="http://www.w3.org/2000/svg"
   xmlns:svg="http://www.w3.org/2000/svg"
   xmlns:rdf="http://www.w3.org/1999/02/22-rdf-syntax-ns#"
   xmlns:cc="http://creativecommons.org/ns#"
   xmlns:dc="http://purl.org/dc/elements/1.1/">
  <defs
     id="defs4">
    <clipPath
       id="clipPath3345">
      <rect
         width="109"
         height="80"
         x="222"
         y="101"
         id="rect2227" />
    </clipPath>
  </defs>
  <metadata
     id="metadata2027">
    <rdf:RDF>
      <cc:Work
         rdf:about="">
        <cc:license
           rdf:resource="http://web.resource.org/cc/PublicDomain" />
        <dc:format>image/svg+xml</dc:format>
        <dc:type
           rdf:resource="http://purl.org/dc/dcmitype/StillImage" />
        <dc:title>Departements of France</dc:title>
      </cc:Work>
      <cc:License
         rdf:about="http://web.resource.org/cc/PublicDomain">
        <cc:permits
           rdf:resource="http://web.resource.org/cc/Reproduction" />
        <cc:permits
           rdf:resource="http://web.resource.org/cc/Distribution" />
        <cc:permits
           rdf:resource="http://web.resource.org/cc/DerivativeWorks" />
      </cc:License>
    </rdf:RDF>
  </metadata>
  <style
     type="text/css"
     id="style6"><![CDATA[
.land
{
	stroke:white;
	stroke-width:0;
}
]]></style>
  <g
     id="complete_map"
     transform="translate(-28.109374,-13.312499)">
    <path
       d="m 119.5625,77.5 -0.78125,1.96875 4.125,3.3125 v 4.3125 l -1.5625,1.9375 L 122.3125,90 122.90625,90.40625 122.5,94.125 l 1.375,3.125 4.5,5.0625 0.96875,4.5 0.96875,1.375 v 7.03125 l 2.34375,4.6875 v 5.46875 l -2.53125,5.0625 2.71875,7.03125 4.3125,0.96875 0.375,1.96875 -2.125,0.96875 h -3.6875 l 0.59375,2.46875 1.15625,3.71875 3.34375,2.9375 1.5625,0.375 1.5625,-2.125 1.75,-0.21875 2.125,-2.53125 1.96875,1.5625 h 2.34375 l 1.5625,0.78125 v 0.375 L 153,149.125 l 1.96875,-1.5625 2.90625,1.1875 0.0625,0.125 3.34375,-2.84375 1.125,-3.71875 -0.3125,-1.625 0.46875,-1.90625 -1.9375,-1.9375 -5,-3.25 -3.6875,-0.3125 -3.71875,-4.6875 3.0625,-1.125 1.28125,-2.40625 -1.59375,-1.46875 1.4375,-1.28125 1.4375,1.125 2.59375,-1.59375 1.625,-2.59375 0.625,-2.5625 -1.125,-2.28125 0.65625,-0.8125 -1.46875,-2.40625 1.625,-2.09375 -1.28125,-1.625 -1.625,2.09375 -2.25,-1.28125 -3.71875,-3.71875 -0.15625,-1.59375 1.125,-1.125 -0.34375,-2.15625 -1.84375,0.46875 -0.1875,-4.6875 L 143,89.4375 l 1.5625,-3.90625 h 2.15625 l -1.9375,-5.28125 -8.40625,-0.40625 -4.5,3.125 -5.0625,-3.3125 z"
       class="land departement50"
       id="departement"
       transform="translate(-90.671875,-64.1875)" />
    <rect
       x="0"
       y="0"
       width="100"
       height="100"
       style="fill:none"
       id="rect9" />
  </g>
</svg>
