<?xml version="1.0" encoding="UTF-8" standalone="no"?>
<svg
   version="1.0"
   width="67.875"
   height="44.8125"
   id="svg2"
   xmlns="http://www.w3.org/2000/svg"
   xmlns:svg="http://www.w3.org/2000/svg"
   xmlns:rdf="http://www.w3.org/1999/02/22-rdf-syntax-ns#"
   xmlns:cc="http://creativecommons.org/ns#"
   xmlns:dc="http://purl.org/dc/elements/1.1/">
  <defs
     id="defs4">
    <clipPath
       id="clipPath3345">
      <rect
         width="109"
         height="80"
         x="222"
         y="101"
         id="rect2227" />
    </clipPath>
  </defs>
  <metadata
     id="metadata2027">
    <rdf:RDF>
      <cc:Work
         rdf:about="">
        <cc:license
           rdf:resource="http://web.resource.org/cc/PublicDomain" />
        <dc:format>image/svg+xml</dc:format>
        <dc:type
           rdf:resource="http://purl.org/dc/dcmitype/StillImage" />
        <dc:title>Departements of France</dc:title>
      </cc:Work>
      <cc:License
         rdf:about="http://web.resource.org/cc/PublicDomain">
        <cc:permits
           rdf:resource="http://web.resource.org/cc/Reproduction" />
        <cc:permits
           rdf:resource="http://web.resource.org/cc/Distribution" />
        <cc:permits
           rdf:resource="http://web.resource.org/cc/DerivativeWorks" />
      </cc:License>
    </rdf:RDF>
  </metadata>
  <style
     type="text/css"
     id="style6"><![CDATA[
.land
{
	stroke:white;
	stroke-width:0;
}
]]></style>
  <g
     id="complete_map"
     transform="translate(-16.062499,-27.593749)">
    <path
       d="m 335.5,408.375 -2.65625,3.34375 h -1.75 l -1.0625,3.71875 h -2.125 l -0.71875,-1.59375 h -1.40625 l -1.0625,0.90625 -1.25,-0.71875 v -1.59375 l -2.8125,-0.96875 V 412.5 l -3.3125,0.53125 -1.65625,1.40625 0.53125,3.3125 h -3.03125 l -3.03125,-1.65625 H 308.5 v 1.9375 l 0.28125,5.78125 h -3.3125 -1.65625 l -1.125,2.21875 -7.1875,2.46875 -2.75,-1.90625 -1.65625,2.46875 -0.8125,2.75 3.03125,2.78125 -1.125,3.59375 L 288,439.5 l 0.84375,2.28125 -1.78125,2.125 1.0625,2.46875 2.125,1.59375 2.46875,-1.59375 1.78125,3.71875 3.6875,-1.25 0.1875,-3.53125 h 2.46875 l -0.53125,-2.125 1.0625,-0.53125 0.375,3 2.09375,1.25 1.78125,-0.1875 2.3125,3.375 2.46875,0.1875 0.875,2.8125 2.5,0.0937 0.125,-1.0625 7.03125,-2.15625 0.78125,-1.75 5.46875,-0.1875 1.75,-2.15625 10.5625,-8.40625 6.625,-4.6875 2.6875,0.1875 2.40625,-2.15625 3.71875,-2.125 v -2.625 l -2.125,-4.96875 -5.8125,-3.53125 -1.25,-2.125 -3.34375,-1.75 -1.96875,1.0625 -1.21875,-1.4375 -0.53125,-4.59375 z"
       class="land departement34"
       id="departement"
       transform="translate(-271,-380.78125)" />
    <rect
       x="0"
       y="0"
       width="100"
       height="100"
       style="fill:none"
       id="rect9" />
  </g>
</svg>
