<?xml version="1.0" encoding="UTF-8" standalone="no"?>
<svg
   version="1.0"
   width="41.125"
   height="62.71875"
   id="svg2"
   xmlns="http://www.w3.org/2000/svg"
   xmlns:svg="http://www.w3.org/2000/svg"
   xmlns:rdf="http://www.w3.org/1999/02/22-rdf-syntax-ns#"
   xmlns:cc="http://creativecommons.org/ns#"
   xmlns:dc="http://purl.org/dc/elements/1.1/">
  <defs
     id="defs4">
    <clipPath
       id="clipPath3345">
      <rect
         width="109"
         height="80"
         x="222"
         y="101"
         id="rect2227" />
    </clipPath>
  </defs>
  <metadata
     id="metadata2027">
    <rdf:RDF>
      <cc:Work
         rdf:about="">
        <cc:license
           rdf:resource="http://web.resource.org/cc/PublicDomain" />
        <dc:format>image/svg+xml</dc:format>
        <dc:type
           rdf:resource="http://purl.org/dc/dcmitype/StillImage" />
        <dc:title>Departements of France</dc:title>
      </cc:Work>
      <cc:License
         rdf:about="http://web.resource.org/cc/PublicDomain">
        <cc:permits
           rdf:resource="http://web.resource.org/cc/Reproduction" />
        <cc:permits
           rdf:resource="http://web.resource.org/cc/Distribution" />
        <cc:permits
           rdf:resource="http://web.resource.org/cc/DerivativeWorks" />
      </cc:License>
    </rdf:RDF>
  </metadata>
  <style
     type="text/css"
     id="style6"><![CDATA[
.land
{
	stroke:white;
	stroke-width:0;
}
]]></style>
  <g
     id="complete_map"
     transform="translate(-29.437499,-18.640624)">
    <path
       d="m 375.25,328.5 -4.53125,2.6875 -0.875,3.84375 -3.375,0.625 -1.8125,0.5 0.0625,0.0937 -1.15625,4.6875 -2.75,1.15625 -1.15625,1.96875 0.78125,2.53125 0.5625,1.375 h -2.90625 l -0.21875,3.6875 -3.125,0.21875 -1.5625,4.875 H 348.5 l -5.0625,3.71875 -2.8125,4.46875 0.46875,0.59375 1.375,7.1875 3.3125,3.59375 -0.5625,4.125 4.15625,2.5 v 5.53125 l 2.21875,-1.125 4.6875,3.0625 2.21875,0.8125 0.53125,-3.875 2.78125,-0.53125 0.8125,3.03125 2.78125,-0.28125 0.53125,-3.03125 6.34375,3.5625 L 373.3125,388 376,387.59375 l 0.21875,-4.125 -0.625,-0.875 -0.84375,-0.1875 v -1.5 l 0.625,-1.5 -1.0625,-1.6875 0.625,-3.8125 2.5625,-3 v -4.21875 l -1.0625,-4.90625 1.90625,-0.40625 0.4375,-2.125 1.90625,-3.625 1.0625,-2.75 -1.6875,-4.25 -1.0625,-3.40625 -1.5,-5.9375 v -7.96875 l -1.0625,-0.34375 z"
       class="land departement07"
       id="departement"
       transform="translate(-311.1875,-309.85937)" />
    <rect
       x="0"
       y="0"
       width="100"
       height="100"
       style="fill:none"
       id="rect9" />
  </g>
</svg>
