<?xml version="1.0" encoding="UTF-8" standalone="no"?>
<svg
   version="1.0"
   width="67.90625"
   height="44.8125"
   id="svg2"
   xmlns="http://www.w3.org/2000/svg"
   xmlns:svg="http://www.w3.org/2000/svg"
   xmlns:rdf="http://www.w3.org/1999/02/22-rdf-syntax-ns#"
   xmlns:cc="http://creativecommons.org/ns#"
   xmlns:dc="http://purl.org/dc/elements/1.1/">
  <defs
     id="defs4">
    <clipPath
       id="clipPath3345">
      <rect
         width="109"
         height="80"
         x="222"
         y="101"
         id="rect2227" />
    </clipPath>
  </defs>
  <metadata
     id="metadata2027">
    <rdf:RDF>
      <cc:Work
         rdf:about="">
        <cc:license
           rdf:resource="http://web.resource.org/cc/PublicDomain" />
        <dc:format>image/svg+xml</dc:format>
        <dc:type
           rdf:resource="http://purl.org/dc/dcmitype/StillImage" />
        <dc:title>Departements of France</dc:title>
      </cc:Work>
      <cc:License
         rdf:about="http://web.resource.org/cc/PublicDomain">
        <cc:permits
           rdf:resource="http://web.resource.org/cc/Reproduction" />
        <cc:permits
           rdf:resource="http://web.resource.org/cc/Distribution" />
        <cc:permits
           rdf:resource="http://web.resource.org/cc/DerivativeWorks" />
      </cc:License>
    </rdf:RDF>
  </metadata>
  <style
     type="text/css"
     id="style6"><![CDATA[
.land
{
	stroke:white;
	stroke-width:0;
}
]]></style>
  <g
     id="complete_map"
     transform="translate(-16.046874,-27.593749)">
    <path
       d="m 249.78125,44.5 -0.53125,6.4375 4.3125,3.90625 v 1.96875 l -5.28125,-3.125 -6.34375,7.8125 1.6875,0.71875 2.15625,-0.1875 0.96875,1.9375 8.59375,8.40625 0.59375,3.5 1.9375,3.53125 -0.65625,0.8125 h 2.46875 l 0.40625,0.59375 v 2.15625 l 1.1875,0.8125 2.5625,-1 h 3.59375 l 1.78125,1.375 6.71875,-0.59375 4.96875,1.40625 2.78125,2.78125 3.5625,0.375 3.5625,1.1875 4.375,-4.15625 5.15625,-1.375 2.78125,0.375 L 307.25,83.75 306.875,81.59375 305.90625,77.625 305.5,75.25 l 1.78125,-2 v -2.5625 l 2.5625,-2.78125 -0.46875,-2.75 -1.5,-0.40625 -1.75,-1.75 h -4.6875 L 298.5,64.5625 v -1.375 l -0.75,-1.375 -1.78125,0.78125 -2.15625,1.1875 1.1875,-1.75 -0.1875,-1.5625 -2.5625,-1.78125 v 1.96875 h -1.75 l -4.09375,-1.375 -1.75,-1.375 -1.78125,1.1875 -0.5625,1.5625 -0.78125,0.1875 -0.96875,-0.96875 v -2.75 l 2.90625,-1.9375 -1.15625,-1.96875 -2.34375,1 -1.1875,-1 -4.875,0.59375 -2.53125,0.96875 -2.5625,-0.96875 V 51.875 l -3.5,-1.5625 -0.96875,-2.34375 -1.375,0.5625 -3.71875,-2.90625 -1.75,-0.59375 -1.375,1.75 -2.34375,0.59375 -0.96875,-2.15625 z"
       class="land departement80"
       id="departement"
       transform="translate(-225.89062,-16.90625)" />
    <rect
       x="0"
       y="0"
       width="100"
       height="100"
       style="fill:none"
       id="rect9" />
  </g>
</svg>
