<?xml version="1.0" encoding="UTF-8" standalone="no"?>
<svg
   version="1.0"
   width="63.46875"
   height="53.5625"
   id="svg2"
   xmlns="http://www.w3.org/2000/svg"
   xmlns:svg="http://www.w3.org/2000/svg"
   xmlns:rdf="http://www.w3.org/1999/02/22-rdf-syntax-ns#"
   xmlns:cc="http://creativecommons.org/ns#"
   xmlns:dc="http://purl.org/dc/elements/1.1/">
  <defs
     id="defs4">
    <clipPath
       id="clipPath3345">
      <rect
         width="109"
         height="80"
         x="222"
         y="101"
         id="rect2227" />
    </clipPath>
  </defs>
  <metadata
     id="metadata2027">
    <rdf:RDF>
      <cc:Work
         rdf:about="">
        <cc:license
           rdf:resource="http://web.resource.org/cc/PublicDomain" />
        <dc:format>image/svg+xml</dc:format>
        <dc:type
           rdf:resource="http://purl.org/dc/dcmitype/StillImage" />
        <dc:title>Departements of France</dc:title>
      </cc:Work>
      <cc:License
         rdf:about="http://web.resource.org/cc/PublicDomain">
        <cc:permits
           rdf:resource="http://web.resource.org/cc/Reproduction" />
        <cc:permits
           rdf:resource="http://web.resource.org/cc/Distribution" />
        <cc:permits
           rdf:resource="http://web.resource.org/cc/DerivativeWorks" />
      </cc:License>
    </rdf:RDF>
  </metadata>
  <style
     type="text/css"
     id="style6"><![CDATA[
.land
{
	stroke:white;
	stroke-width:0;
}
]]></style>
  <g
     id="complete_map"
     transform="translate(-18.265624,-23.21875)">
    <path
       d="m 299.09375,279.5 -2.65625,3 -0.1875,-1.0625 -2.125,0.1875 v 1.59375 l -1.21875,0.34375 -1.25,3 -1.59375,0.71875 -2.96875,-2.3125 0.28125,4.59375 1.5625,1.9375 0.78125,3.71875 -2.34375,1.75 -0.5625,2.75 -2.15625,1.15625 -3.71875,2.15625 0.375,1.75 4.5,4.5 0.40625,2.75 -1.78125,2.90625 v 2.75 l 1.1875,1.375 0.59375,3.3125 -0.375,1.34375 6,1.75 1.59375,3.34375 h 3.15625 l 1.25,-1.21875 2.125,1.0625 1.0625,0.15625 2.65625,4.0625 2.8125,0.1875 0.71875,-1.40625 0.78125,0.0937 0.8125,-1.15625 3.53125,-0.53125 1.9375,-1.59375 2.125,-0.1875 v -1.21875 l 1.40625,-0.71875 0.375,0.875 0.875,-0.53125 1.40625,0.90625 2.46875,-0.1875 2.125,-0.875 1.40625,1.21875 h 1.59375 l 1.25,2.3125 1.9375,0.875 1.0625,-2.46875 1.40625,1.25 3.03125,0.15625 1.0625,-2.125 1.75,1.78125 2.46875,0.71875 0.78125,-0.75 -1.53125,-0.5 -0.59375,-2.34375 3.71875,-3.5 -1.75,-6.4375 -5.09375,-3.34375 -2.125,-5.0625 -2.34375,-3.125 0.59375,-4.3125 1.75,-1.75 -3.125,-2.53125 0.0937,-0.78125 -2.75,-1.09375 -0.875,-2.125 -3,0.15625 -2.3125,-0.53125 -0.34375,-2.46875 -1.78125,-0.875 -2.28125,1.40625 -2.65625,-0.53125 -1.78125,0.1875 -6,-0.875 -4.9375,-2.84375 -0.375,-1.40625 -2.09375,-2.3125 1.40625,-1.9375 -0.53125,-1.0625 z"
       class="land departement63"
       id="departement"
       transform="translate(-262.67187,-256.28125)" />
    <rect
       x="0"
       y="0"
       width="100"
       height="100"
       style="fill:none"
       id="rect9" />
  </g>
</svg>
