<?xml version="1.0" encoding="UTF-8" standalone="no"?>
<svg
   version="1.0"
   width="39.46875"
   height="55.875"
   id="svg2"
   xmlns="http://www.w3.org/2000/svg"
   xmlns:svg="http://www.w3.org/2000/svg"
   xmlns:rdf="http://www.w3.org/1999/02/22-rdf-syntax-ns#"
   xmlns:cc="http://creativecommons.org/ns#"
   xmlns:dc="http://purl.org/dc/elements/1.1/">
  <defs
     id="defs4">
    <clipPath
       id="clipPath3345">
      <rect
         width="109"
         height="80"
         x="222"
         y="101"
         id="rect2227" />
    </clipPath>
  </defs>
  <metadata
     id="metadata2027">
    <rdf:RDF>
      <cc:Work
         rdf:about="">
        <cc:license
           rdf:resource="http://web.resource.org/cc/PublicDomain" />
        <dc:format>image/svg+xml</dc:format>
        <dc:type
           rdf:resource="http://purl.org/dc/dcmitype/StillImage" />
        <dc:title>Departements of France</dc:title>
      </cc:Work>
      <cc:License
         rdf:about="http://web.resource.org/cc/PublicDomain">
        <cc:permits
           rdf:resource="http://web.resource.org/cc/Reproduction" />
        <cc:permits
           rdf:resource="http://web.resource.org/cc/Distribution" />
        <cc:permits
           rdf:resource="http://web.resource.org/cc/DerivativeWorks" />
      </cc:License>
    </rdf:RDF>
  </metadata>
  <style
     type="text/css"
     id="style6"><![CDATA[
.land
{
	stroke:white;
	stroke-width:0;
}
]]></style>
  <g
     id="complete_map"
     transform="translate(-30.265625,-22.0625)">
    <path
       d="m 445.33847,488.9562 v 2.15625 l 1.96875,1.375 3.3125,1.9375 0.21875,1.5625 -1.96875,0.59375 -3.125,0.59375 v 1.34375 l 1.15625,1.1875 0.21875,3.90625 4.28125,1.375 1.5625,0.375 1.375,2.15625 -0.96875,1.375 -1.5625,0.5625 -1.1875,2.15625 -1.15625,1.375 0.5625,3.5 2.9375,-0.1875 0.78125,0.59375 2.75,-1.375 0.78125,0.78125 -1.375,2.9375 1.375,1.375 -2.34375,1.75 -1.5625,3.5 4.28125,1 6.0625,0.5625 -2.53125,2.9375 c 0,0 -1.18933,-0.45881 -1.71875,-0.21875 -0.0156,0.008 -0.0481,0.0222 -0.0625,0.0312 -0.004,0.003 -0.0269,0.0278 -0.0312,0.0312 -0.004,0.004 -0.0272,0.0274 -0.0312,0.0312 -0.004,0.004 -0.0277,0.0269 -0.0312,0.0312 -0.007,0.009 -0.0253,0.0215 -0.0312,0.0312 -0.003,0.005 0.003,0.026 0,0.0312 -0.005,0.0108 -0.0273,0.0509 -0.0312,0.0625 -0.002,0.006 0.002,0.0251 0,0.0312 -0.003,0.0128 -0.0294,0.0489 -0.0312,0.0625 -0.001,0.014 4.7e-4,0.0477 0,0.0625 10e-6,0.97656 -1.34375,3.34375 -1.34375,3.34375 l 1.9375,2.125 3.53125,2.15625 6.625,1.75 1.9375,0.78125 1.78125,0.78125 -1.1875,2.15625 3.125,-0.1875 0.59375,1.375 h 3.125 l 0.78125,-3.71875 -1.96875,-0.40625 2.75,-2.90625 -0.96875,-1 0.1875,-1.75 3.53125,-1.9375 0.1875,-2.15625 -2.34375,-0.1875 -1.5625,1.34375 v -1.9375 l 3.125,-0.1875 0.96875,-2.34375 0.78125,-6.84375 -0.59375,-2.9375 -0.0625,-2.8125 -3.40625,2.25 -4.0625,0.15625 -0.34375,-2.8125 0.53125,-0.71875 -1.25,-0.875 -0.34375,-4.78125 -0.53125,-0.875 h -2.125 l -1.0625,-0.875 v -3.375 l -1.40625,-0.875 -1.0625,-0.53125 -2.125,-2.65625 0.15625,-1.59375 h -2.625 l -0.90625,-2.65625 h -3.71875 l -1.9375,-2.65625 0.53125,-0.875 -1.21875,-0.71875 -2.84375,0.53125 -1.0625,-0.6875 h -3.875 l -0.375,-1.0625 -2.1875,-0.40625 z"
       class="land departement2a"
       id="departement"
       transform="translate(-415.07284,-466.8937)" />
    <rect
       x="0"
       y="0"
       width="100"
       height="100"
       style="fill:none"
       id="rect9" />
  </g>
</svg>
