<?xml version="1.0" encoding="UTF-8" standalone="no"?>
<svg
   version="1.0"
   width="54.09375"
   height="39.40625"
   id="svg2"
   xmlns="http://www.w3.org/2000/svg"
   xmlns:svg="http://www.w3.org/2000/svg"
   xmlns:rdf="http://www.w3.org/1999/02/22-rdf-syntax-ns#"
   xmlns:cc="http://creativecommons.org/ns#"
   xmlns:dc="http://purl.org/dc/elements/1.1/">
  <defs
     id="defs4">
    <clipPath
       id="clipPath3345">
      <rect
         width="109"
         height="80"
         x="222"
         y="101"
         id="rect2227" />
    </clipPath>
  </defs>
  <metadata
     id="metadata2027">
    <rdf:RDF>
      <cc:Work
         rdf:about="">
        <cc:license
           rdf:resource="http://web.resource.org/cc/PublicDomain" />
        <dc:format>image/svg+xml</dc:format>
        <dc:type
           rdf:resource="http://purl.org/dc/dcmitype/StillImage" />
        <dc:title>Departements of France</dc:title>
      </cc:Work>
      <cc:License
         rdf:about="http://web.resource.org/cc/PublicDomain">
        <cc:permits
           rdf:resource="http://web.resource.org/cc/Reproduction" />
        <cc:permits
           rdf:resource="http://web.resource.org/cc/Distribution" />
        <cc:permits
           rdf:resource="http://web.resource.org/cc/DerivativeWorks" />
      </cc:License>
    </rdf:RDF>
  </metadata>
  <style
     type="text/css"
     id="style6"><![CDATA[
.land
{
	stroke:white;
	stroke-width:0;
}
]]></style>
  <g
     id="complete_map"
     transform="translate(-22.953124,-30.296875)">
    <path
       d="m 257.21875,80.21875 -1.28125,1.53125 -0.78125,1.9375 h 1.5625 l -0.78125,1.96875 -0.78125,3.90625 1.15625,1.9375 v 3.34375 h 1.96875 L 257.5,96.1875 l -1.375,2.5625 -0.5625,1.75 1.75,1.5625 0.5625,4.5 1,1.5625 -1.375,0.375 -1.75,-0.96875 -0.3125,2.3125 0.125,-0.15625 0.75,1.75 1.1875,1.9375 5.28125,0.40625 3.71875,-0.40625 2.53125,-1.9375 3.125,1.9375 1.5625,1.1875 2.34375,-0.59375 2.125,-0.96875 4.125,2.15625 4.28125,2.53125 1.375,1.375 2.34375,-1.5625 1.9375,1.15625 1.1875,0.96875 1.75,-0.1875 1.1875,-1.5625 2.71875,1.5625 3.34375,-1.375 1.9375,0.59375 1.9375,-1.5625 1.1875,-0.59375 0.375,0.28125 0.40625,-2.65625 -1.40625,-1.59375 -2.375,-1.59375 -1,1.59375 -0.59375,0.1875 -0.1875,-2.96875 1.78125,-0.40625 -0.40625,-2.75 -2.375,-0.40625 1.1875,-2 3.375,-0.78125 1.1875,-4.75 1.78125,-0.8125 -2.375,-1.78125 0.8125,-1.78125 0.375,-5.9375 -0.8125,-4.59375 -4.125,0.40625 -2.78125,-0.375 -5.15625,1.375 -4.375,4.15625 -3.5625,-1.1875 -3.5625,-0.375 -2.78125,-2.78125 -4.96875,-1.40625 -6.71875,0.59375 -1.78125,-1.375 h -3.59375 l -2.5625,1 -1.1875,-0.8125 V 80.8125 l -0.40625,-0.59375 z"
       class="land departement60"
       id="departement"
       transform="translate(-232.20312,-49.921875)" />
    <rect
       x="0"
       y="0"
       width="100"
       height="100"
       style="fill:none"
       id="rect9" />
  </g>
</svg>
