<?xml version="1.0" encoding="UTF-8" standalone="no"?>
<svg
   version="1.0"
   width="47.1875"
   height="56.375"
   id="svg2"
   xmlns="http://www.w3.org/2000/svg"
   xmlns:svg="http://www.w3.org/2000/svg"
   xmlns:rdf="http://www.w3.org/1999/02/22-rdf-syntax-ns#"
   xmlns:cc="http://creativecommons.org/ns#"
   xmlns:dc="http://purl.org/dc/elements/1.1/">
  <defs
     id="defs4">
    <clipPath
       id="clipPath3345">
      <rect
         width="109"
         height="80"
         x="222"
         y="101"
         id="rect2227" />
    </clipPath>
  </defs>
  <metadata
     id="metadata2027">
    <rdf:RDF>
      <cc:Work
         rdf:about="">
        <cc:license
           rdf:resource="http://web.resource.org/cc/PublicDomain" />
        <dc:format>image/svg+xml</dc:format>
        <dc:type
           rdf:resource="http://purl.org/dc/dcmitype/StillImage" />
        <dc:title>Departements of France</dc:title>
      </cc:Work>
      <cc:License
         rdf:about="http://web.resource.org/cc/PublicDomain">
        <cc:permits
           rdf:resource="http://web.resource.org/cc/Reproduction" />
        <cc:permits
           rdf:resource="http://web.resource.org/cc/Distribution" />
        <cc:permits
           rdf:resource="http://web.resource.org/cc/DerivativeWorks" />
      </cc:License>
    </rdf:RDF>
  </metadata>
  <style
     type="text/css"
     id="style6"><![CDATA[
.land
{
	stroke:white;
	stroke-width:0;
}
]]></style>
  <g
     id="complete_map"
     transform="translate(-26.406249,-21.812499)">
    <path
       d="m 247.15625,126.09375 -1.1875,0.96875 v 3.125 l -3.90625,1.9375 v 2.9375 l -1.15625,1.375 H 236 l -2.3125,-0.96875 -7.0625,3.6875 h -2.71875 l -2.8125,2.6875 0.65625,0.4375 0.1875,3.34375 4.125,3.5 0.375,7.21875 -1.9375,2.34375 -2.9375,0.59375 -2.9375,1.75 0.40625,1.5625 1.34375,1.78125 V 169 l 0.40625,0.0625 L 223.5,171 l -1,1.25 1.9375,0.96875 3.09375,-0.5625 h 1.8125 l -0.125,0.84375 -1.6875,0.96875 1.125,0.84375 h 2.8125 l 0.96875,2.25 1.6875,0.96875 1.25,2.8125 4.34375,1.125 2.6875,-0.28125 2.375,-2.25 2.125,0.59375 0.53125,-1.15625 -0.125,-1.25 1.125,-0.84375 1.8125,1.125 1.125,-0.84375 v -1.53125 l 1.53125,-1 1.40625,0.5625 1.25,1.40625 2.25,-1.25 h 2.375 l 1.6875,-1.84375 1,-3.625 L 264.40625,170 264,166.34375 l 1.8125,-1.53125 -0.5625,-1.125 0.21875,-0.375 -0.53125,0.0625 -0.40625,-5.25 L 264.125,157.53125 263.75,155 l -4.09375,-0.78125 -1.78125,-2.15625 -0.5625,-4.3125 -2.34375,-0.375 -0.40625,-2.15625 -2.71875,-1.9375 -1.375,-3.34375 1.375,-2.34375 -1.375,-1.5625 v -1.9375 l 0.78125,-2.15625 -1.5625,-1.5625 -0.59375,-2.34375 z"
       class="land departement28"
       id="departement"
       transform="translate(-192.21875,-104.28125)" />
    <rect
       x="0"
       y="0"
       width="100"
       height="100"
       style="fill:none"
       id="rect9" />
  </g>
</svg>
