<?xml version="1.0" encoding="UTF-8" standalone="no"?>
<svg
   version="1.0"
   width="41.8125"
   height="67.5625"
   id="svg2"
   xmlns="http://www.w3.org/2000/svg"
   xmlns:svg="http://www.w3.org/2000/svg"
   xmlns:rdf="http://www.w3.org/1999/02/22-rdf-syntax-ns#"
   xmlns:cc="http://creativecommons.org/ns#"
   xmlns:dc="http://purl.org/dc/elements/1.1/">
  <defs
     id="defs4">
    <clipPath
       id="clipPath3345">
      <rect
         width="109"
         height="80"
         x="222"
         y="101"
         id="rect2227" />
    </clipPath>
  </defs>
  <metadata
     id="metadata2027">
    <rdf:RDF>
      <cc:Work
         rdf:about="">
        <cc:license
           rdf:resource="http://web.resource.org/cc/PublicDomain" />
        <dc:format>image/svg+xml</dc:format>
        <dc:type
           rdf:resource="http://purl.org/dc/dcmitype/StillImage" />
        <dc:title>Departements of France</dc:title>
      </cc:Work>
      <cc:License
         rdf:about="http://web.resource.org/cc/PublicDomain">
        <cc:permits
           rdf:resource="http://web.resource.org/cc/Reproduction" />
        <cc:permits
           rdf:resource="http://web.resource.org/cc/Distribution" />
        <cc:permits
           rdf:resource="http://web.resource.org/cc/DerivativeWorks" />
      </cc:License>
    </rdf:RDF>
  </metadata>
  <style
     type="text/css"
     id="style6"><![CDATA[
.land
{
	stroke:white;
	stroke-width:0;
}
]]></style>
  <g
     id="complete_map"
     transform="translate(-29.093749,-16.218749)">
    <path
       d="m 477.96347,449.8937 -2.9375,1.96875 0.40625,1.9375 1.5625,1.96875 -1.75,1.34375 0.78125,1.5625 -1.1875,1.375 v 1.75 l 1.96875,1.78125 v 2.71875 l -1.1875,2.53125 -1.34375,0.59375 -1.5625,-2.15625 -2.75,0.21875 -0.59375,-0.40625 h -2.34375 l -2.125,1.96875 -0.8125,3.3125 -5.0625,0.96875 -3.90625,3.3125 -0.78125,2.15625 -1.9375,-0.1875 -1,-1.1875 -0.5625,3.34375 -1.375,0.5625 -0.40625,3.125 0.59375,1.375 -2.15625,1.5625 -0.59375,1.5625 2.1875,0.40625 0.375,1.0625 h 3.875 l 1.0625,0.6875 2.84375,-0.53125 1.21875,0.71875 -0.53125,0.875 1.9375,2.65625 h 3.71875 l 0.90625,2.65625 h 2.625 l -0.15625,1.59375 2.125,2.65625 1.0625,0.53125 1.40625,0.875 v 3.375 l 1.0625,0.875 h 2.125 l 0.53125,0.875 0.34375,4.78125 1.25,0.875 -0.53125,0.71875 0.34375,2.8125 4.0625,-0.15625 3.40625,-2.25 -0.125,-5.78125 4.6875,-6.625 v -10.9375 l -1.9375,-3.71875 -0.59375,-11.71875 -1.375,-2.15625 -2.53125,-1.9375 -0.40625,-7.25 1.1875,-3.3125 -1.5625,-5.28125 -0.96875,-4.28125 -0.8125,-1.1875 z"
       class="land departement2b"
       id="departement"
       transform="translate(-417.80722,-433.67495)" />
    <rect
       x="0"
       y="0"
       width="100"
       height="100"
       style="fill:none"
       id="rect9" />
  </g>
</svg>
