<?xml version="1.0" encoding="UTF-8" standalone="no"?>
<svg
   version="1.0"
   width="56.1875"
   height="47.28125"
   id="svg2"
   xmlns="http://www.w3.org/2000/svg"
   xmlns:svg="http://www.w3.org/2000/svg"
   xmlns:rdf="http://www.w3.org/1999/02/22-rdf-syntax-ns#"
   xmlns:cc="http://creativecommons.org/ns#"
   xmlns:dc="http://purl.org/dc/elements/1.1/">
  <defs
     id="defs4">
    <clipPath
       id="clipPath3345">
      <rect
         width="109"
         height="80"
         x="222"
         y="101"
         id="rect2227" />
    </clipPath>
  </defs>
  <metadata
     id="metadata2027">
    <rdf:RDF>
      <cc:Work
         rdf:about="">
        <cc:license
           rdf:resource="http://web.resource.org/cc/PublicDomain" />
        <dc:format>image/svg+xml</dc:format>
        <dc:type
           rdf:resource="http://purl.org/dc/dcmitype/StillImage" />
        <dc:title>Departements of France</dc:title>
      </cc:Work>
      <cc:License
         rdf:about="http://web.resource.org/cc/PublicDomain">
        <cc:permits
           rdf:resource="http://web.resource.org/cc/Reproduction" />
        <cc:permits
           rdf:resource="http://web.resource.org/cc/Distribution" />
        <cc:permits
           rdf:resource="http://web.resource.org/cc/DerivativeWorks" />
      </cc:License>
    </rdf:RDF>
  </metadata>
  <style
     type="text/css"
     id="style6"><![CDATA[
.land
{
	stroke:white;
	stroke-width:0;
}
]]></style>
  <g
     id="complete_map"
     transform="translate(-21.906249,-26.359374)">
    <path
       d="m 211,94.5625 -1.6875,0.40625 -2.25,2.40625 -4.375,0.5625 0.90625,7.25 1.96875,0.59375 v 0.78125 l -1.96875,1.15625 2.34375,3.3125 1.1875,4.6875 -0.21875,1.96875 -1.75,1.15625 0.1875,1.375 1.96875,0.78125 0.1875,1.75 -1.5625,4.5 1.5625,1.96875 5.46875,0.1875 1.15625,2.71875 1.96875,1.96875 2.71875,0.96875 0.8125,2.9375 -1.375,1.9375 2.84375,1.90625 2.8125,-2.6875 h 2.71875 l 7.0625,-3.6875 2.3125,0.96875 h 4.90625 l 1.15625,-1.375 v -2.9375 l 3.90625,-1.9375 v -3.125 l 1.0625,-0.875 -0.0937,-0.875 1,-1 -1.75,-0.375 v -1.5625 l -1,-1.5625 0.78125,-0.96875 5.46875,-1.5625 1.375,-2.34375 1.1875,-4.3125 1.4375,-1.78125 0.3125,-2.3125 1.75,0.96875 1.375,-0.375 -1,-1.5625 -0.5625,-4.5 -1.75,-1.5625 0.0312,-0.125 -3.09375,-0.34375 -5.1875,-2.65625 -4.5,0.125 -2.375,2.09375 -1.28125,3.65625 -5.03125,0.5625 -4.78125,1.40625 1.6875,1.125 -0.6875,1.6875 h -2.25 l -1.25,-2.6875 h -1.40625 l -2.25,-1.6875 3.09375,-0.96875 -4.78125,-3.375 -4.75,0.28125 -1.125,-1.9375 -2.6875,0.28125 z"
       class="land departement27"
       id="departement"
       transform="translate(-180.78125,-68.203125)" />
    <rect
       x="0"
       y="0"
       width="100"
       height="100"
       style="fill:none"
       id="rect9" />
  </g>
</svg>
