<?xml version="1.0" encoding="UTF-8" standalone="no"?>
<svg
   version="1.0"
   width="52.75"
   height="45.96875"
   id="svg2"
   xmlns="http://www.w3.org/2000/svg"
   xmlns:svg="http://www.w3.org/2000/svg"
   xmlns:rdf="http://www.w3.org/1999/02/22-rdf-syntax-ns#"
   xmlns:cc="http://creativecommons.org/ns#"
   xmlns:dc="http://purl.org/dc/elements/1.1/">
  <defs
     id="defs4">
    <clipPath
       id="clipPath3345">
      <rect
         width="109"
         height="80"
         x="222"
         y="101"
         id="rect2227" />
    </clipPath>
  </defs>
  <metadata
     id="metadata2027">
    <rdf:RDF>
      <cc:Work
         rdf:about="">
        <cc:license
           rdf:resource="http://web.resource.org/cc/PublicDomain" />
        <dc:format>image/svg+xml</dc:format>
        <dc:type
           rdf:resource="http://purl.org/dc/dcmitype/StillImage" />
        <dc:title>Departements of France</dc:title>
      </cc:Work>
      <cc:License
         rdf:about="http://web.resource.org/cc/PublicDomain">
        <cc:permits
           rdf:resource="http://web.resource.org/cc/Reproduction" />
        <cc:permits
           rdf:resource="http://web.resource.org/cc/Distribution" />
        <cc:permits
           rdf:resource="http://web.resource.org/cc/DerivativeWorks" />
      </cc:License>
    </rdf:RDF>
  </metadata>
  <style
     type="text/css"
     id="style6"><![CDATA[
.land
{
	stroke:white;
	stroke-width:0;
}
]]></style>
  <g
     id="complete_map"
     transform="translate(-23.624999,-27.015624)">
    <path
       d="m 457.78125,413.1875 -2.96875,0.125 -1.40625,1.4375 -5.3125,-0.1875 -4.59375,3.34375 -3.15625,-2.125 -4.96875,1.59375 -0.875,1.78125 -3.53125,2.65625 -6.375,-4.25 -5.15625,1.6875 -0.25,1.375 0.0937,-0.0625 3.1875,2.125 -4.25,2.84375 -1.75,3.53125 2.125,1.75 -0.1875,3.71875 3.375,3.1875 -0.9062,0.71875 L 417,438.25 v 1.40625 l 1.75,0.875 v 0.53125 l -1.59375,1.4375 0.90625,1.0625 h 1.40625 l 1.40625,1.40625 0.1875,1.0625 -1.78125,1.0625 -1.40625,1.59375 -0.1875,3.875 0.53125,0.71875 3.5,1.5625 0.96875,3.90625 2.15625,0.40625 1.96875,-1.375 3.5,-2.15625 6.0625,0.59375 -0.1875,1.5625 -1.96875,0.96875 4.6875,0.21875 -1.15625,-1.1875 -0.40625,-2.53125 2.53125,-1.75 2.9375,0.96875 1.1875,0.375 0.96875,1.1875 1.375,-0.96875 0.375,-2.5625 1.5625,-1.34375 h 4.09375 l 1.1875,-1.78125 2.71875,0.78125 3.125,-1.34375 v -5.09375 l -4.09375,0.1875 3.125,-1.9375 1.5625,-2.15625 0.40625,-3.125 5.65625,-0.78125 3.15625,-3.53125 -2.1875,-2.25 v -1.25 l -1.0625,-1.0625 1.40625,-1.21875 -0.34375,-1.96875 -2.3125,-0.875 H 463.5 l -2.125,-2.125 -0.375,-3.71875 -2.28125,-1.0625 -2.3125,-0.15625 -0.875,-2.125 z"
       class="land departement83"
       id="departement"
       transform="translate(-392.84375,-386.17187)" />
    <rect
       x="0"
       y="0"
       width="100"
       height="100"
       style="fill:none"
       id="rect9" />
  </g>
</svg>
