<?xml version="1.0" encoding="UTF-8" standalone="no"?>
<svg
   version="1.0"
   width="61.78125"
   height="49.0625"
   id="svg2"
   xmlns="http://www.w3.org/2000/svg"
   xmlns:svg="http://www.w3.org/2000/svg"
   xmlns:rdf="http://www.w3.org/1999/02/22-rdf-syntax-ns#"
   xmlns:cc="http://creativecommons.org/ns#"
   xmlns:dc="http://purl.org/dc/elements/1.1/">
  <defs
     id="defs4">
    <clipPath
       id="clipPath3345">
      <rect
         width="109"
         height="80"
         x="222"
         y="101"
         id="rect2227" />
    </clipPath>
  </defs>
  <metadata
     id="metadata2027">
    <rdf:RDF>
      <cc:Work
         rdf:about="">
        <cc:license
           rdf:resource="http://web.resource.org/cc/PublicDomain" />
        <dc:format>image/svg+xml</dc:format>
        <dc:type
           rdf:resource="http://purl.org/dc/dcmitype/StillImage" />
        <dc:title>Departements of France</dc:title>
      </cc:Work>
      <cc:License
         rdf:about="http://web.resource.org/cc/PublicDomain">
        <cc:permits
           rdf:resource="http://web.resource.org/cc/Reproduction" />
        <cc:permits
           rdf:resource="http://web.resource.org/cc/Distribution" />
        <cc:permits
           rdf:resource="http://web.resource.org/cc/DerivativeWorks" />
      </cc:License>
    </rdf:RDF>
  </metadata>
  <style
     type="text/css"
     id="style6"><![CDATA[
.land
{
	stroke:white;
	stroke-width:0;
}
]]></style>
  <g
     id="complete_map"
     transform="translate(-19.109374,-25.468749)">
    <path
       d="m 273.71875,160.46875 -2.53125,2.34375 -5.71875,0.5 -0.21875,0.375 0.5625,1.125 -1.8125,1.53125 0.40625,3.65625 -1.53125,0.28125 -1,3.625 -1.6875,1.84375 h -2.375 l -2.25,1.25 -1.25,-1.40625 -1.40625,-0.5625 -1.53125,1 v 1.53125 l -1.125,0.84375 -1.8125,-1.125 -1.125,0.84375 0.125,1.25 -0.53125,1.15625 0.40625,0.125 h 1.65625 l -0.125,1.125 -1.125,1.9375 v 1 h 1.125 l 0.96875,1.125 0.28125,1.125 -2.21875,2.21875 1.09375,2.6875 v 1.25 l 1.84375,1.25 2.53125,0.28125 1.65625,1.40625 0.4375,2.40625 1.8125,2.09375 1.96875,-0.5625 0.84375,-1.8125 3.09375,0.40625 0.6875,0.71875 h 1.96875 l 0.96875,-1.125 7.15625,0.28125 1.6875,2.5 1.96875,0.84375 1.6875,1.5625 2.09375,-0.28125 0.5625,-0.71875 h 1.25 l 1.5625,1.96875 3.21875,0.15625 0.84375,1.09375 2.25,3.09375 0.96875,0.84375 1.25,-0.125 0.15625,-2.8125 0.5625,-0.28125 0.84375,0.125 1.40625,1.84375 0.96875,0.40625 2,-0.8125 -0.3125,-0.34375 -0.1875,-1.96875 3.90625,-1.15625 -0.59375,-2.15625 -0.59375,-3.125 -2.53125,-3.5 -0.59375,-2.15625 h 3.90625 l 2.75,-1.96875 0.375,-2.90625 -1.75,-1.96875 5.09375,-4.28125 v -3.53125 l -2.5625,-2.71875 -0.96875,-3.125 -3.53125,-3.34375 -4.875,2.75 -0.375,-1.5625 -2.15625,-0.1875 -0.59375,1.5625 -1.9375,0.375 -5.28125,-0.1875 -2.15625,1.375 -1.75,-1.5625 3.125,-2.15625 -0.1875,-3.3125 -2.34375,-1.1875 -1.96875,-2.9375 -5.25,-0.375 z"
       class="land departement45"
       id="departement"
       transform="translate(-227.79687,-135)" />
    <rect
       x="0"
       y="0"
       width="100"
       height="100"
       style="fill:none"
       id="rect9" />
  </g>
</svg>
