<?xml version="1.0" encoding="UTF-8" standalone="no"?>
<svg
   version="1.0"
   width="62.34375"
   height="49.46875"
   id="svg2"
   xmlns="http://www.w3.org/2000/svg"
   xmlns:svg="http://www.w3.org/2000/svg"
   xmlns:rdf="http://www.w3.org/1999/02/22-rdf-syntax-ns#"
   xmlns:cc="http://creativecommons.org/ns#"
   xmlns:dc="http://purl.org/dc/elements/1.1/">
  <defs
     id="defs4">
    <clipPath
       id="clipPath3345">
      <rect
         width="109"
         height="80"
         x="222"
         y="101"
         id="rect2227" />
    </clipPath>
  </defs>
  <metadata
     id="metadata2027">
    <rdf:RDF>
      <cc:Work
         rdf:about="">
        <cc:license
           rdf:resource="http://web.resource.org/cc/PublicDomain" />
        <dc:format>image/svg+xml</dc:format>
        <dc:type
           rdf:resource="http://purl.org/dc/dcmitype/StillImage" />
        <dc:title>Departements of France</dc:title>
      </cc:Work>
      <cc:License
         rdf:about="http://web.resource.org/cc/PublicDomain">
        <cc:permits
           rdf:resource="http://web.resource.org/cc/Reproduction" />
        <cc:permits
           rdf:resource="http://web.resource.org/cc/Distribution" />
        <cc:permits
           rdf:resource="http://web.resource.org/cc/DerivativeWorks" />
      </cc:License>
    </rdf:RDF>
  </metadata>
  <style
     type="text/css"
     id="style6"><![CDATA[
.land
{
	stroke:white;
	stroke-width:0;
}
]]></style>
  <g
     id="complete_map"
     transform="translate(-18.828124,-25.265624)">
    <path
       d="m 417,293.8125 -0.40625,5.71875 -1.28125,1.0625 v 6.375 l -2.5625,0.4375 -0.40625,3.625 -2.34375,1.6875 -0.0312,-0.0312 0.25,1.09375 2.34375,2.53125 v 1.71875 l 2.3125,4.25 4.90625,1.0625 1.6875,1.28125 0.65625,-0.65625 -0.875,-1.6875 1.28125,-2.78125 1.5,-0.1875 2.53125,3.375 1.0625,-1.46875 h 1.5 l 4.03125,4.03125 0.21875,2.75 -1.90625,1.0625 -0.875,4.03125 1.71875,1.71875 V 336.5 l -0.4375,1.71875 1.28125,-1.28125 2.125,1.28125 1.125,1.53125 3.53125,-0.375 1.15625,1.15625 0.59375,2.75 3.5,-0.40625 0.40625,-2.9375 1.75,-0.78125 3.75,0.1875 -0.0625,-0.125 5.84375,-2.34375 2.15625,1.375 h 2.15625 l 0.1875,-2.34375 2.53125,-1.375 0.96875,-1.15625 5.09375,-1.96875 0.59375,-3.3125 -1,-1.5625 2.75,-4.6875 -2.5313,-0.96875 L 469,318.125 463.71875,315 c 0,0 0.31502,-5.98725 -0.1875,-7.0625 -0.0158,-0.0269 -0.0497,-0.0773 -0.0625,-0.0937 -0.005,-0.005 -0.0261,-0.0266 -0.0312,-0.0312 -0.004,2.2e-4 -0.0284,-7e-5 -0.0312,0 -5e-5,-0.007 -1.7e-4,-0.0294 0,-0.0312 -0.004,1.2e-4 -0.0284,-4e-5 -0.0312,0 -0.003,-1.5e-4 -0.0283,-7e-5 -0.0312,0 -0.004,-8e-5 -0.0284,10e-6 -0.0312,0 -0.78125,0.19532 -3.6875,0.40625 -3.6875,0.40625 l -2.9375,-3.34375 0.0937,-3.21875 -1.3125,-0.15625 -1.5,1.6875 -1.90625,1.28125 0.4375,-1.0625 -1.9375,-3.1875 h -3.1875 l -1.90625,-2.34375 1.0625,-1.28125 -0.40625,-1.28125 -1.5,-0.40625 -1.90625,1.28125 -1.5,4.4375 -1.90625,1.5 -0.84375,3.40625 -0.84375,1.6875 -3.40625,0.65625 -1.0625,-1.0625 -2.96875,-3.1875 h -1.71875 l -0.625,1.25 -3.40625,-0.40625 -1.46875,-2.78125 -3.84375,-0.625 V 295.5 Z"
       class="land departement73"
       id="departement"
       transform="translate(-391.14062,-268.54687)" />
    <rect
       x="0"
       y="0"
       width="100"
       height="100"
       style="fill:none"
       id="rect9" />
  </g>
</svg>
