<?xml version="1.0" encoding="UTF-8" standalone="no"?>
<svg
   version="1.0"
   width="69.625"
   height="58.875"
   id="svg2"
   xmlns="http://www.w3.org/2000/svg"
   xmlns:svg="http://www.w3.org/2000/svg"
   xmlns:rdf="http://www.w3.org/1999/02/22-rdf-syntax-ns#"
   xmlns:cc="http://creativecommons.org/ns#"
   xmlns:dc="http://purl.org/dc/elements/1.1/">
  <defs
     id="defs4">
    <clipPath
       id="clipPath3345">
      <rect
         width="109"
         height="80"
         x="222"
         y="101"
         id="rect2227" />
    </clipPath>
  </defs>
  <metadata
     id="metadata2027">
    <rdf:RDF>
      <cc:Work
         rdf:about="">
        <cc:license
           rdf:resource="http://web.resource.org/cc/PublicDomain" />
        <dc:format>image/svg+xml</dc:format>
        <dc:type
           rdf:resource="http://purl.org/dc/dcmitype/StillImage" />
        <dc:title>Departements of France</dc:title>
      </cc:Work>
      <cc:License
         rdf:about="http://web.resource.org/cc/PublicDomain">
        <cc:permits
           rdf:resource="http://web.resource.org/cc/Reproduction" />
        <cc:permits
           rdf:resource="http://web.resource.org/cc/Distribution" />
        <cc:permits
           rdf:resource="http://web.resource.org/cc/DerivativeWorks" />
      </cc:License>
    </rdf:RDF>
  </metadata>
  <style
     type="text/css"
     id="style6"><![CDATA[
.land
{
	stroke:white;
	stroke-width:0;
}
]]></style>
  <g
     id="complete_map"
     transform="translate(-15.187499,-20.562499)">
    <path
       d="m 139.8125,374.4375 -6.1875,3.1875 -1.59375,0.0625 -3.46875,18.5625 -4.5,17.1875 -1.375,6.65625 -1.15625,4.6875 -2.90625,5 5.625,2.8125 5.125,-0.34375 3,-2.65625 2.46875,1.9375 -1.40625,1.40625 1.0625,0.375 0.875,-1.25 4.4375,0.34375 2.46875,-1.9375 4.59375,0.1875 1.78125,-0.90625 h 2.8125 l 0.71875,0.90625 2.28125,-0.71875 2.125,1.59375 2.84375,-0.875 3.71875,-1.25 0.53125,0.875 5.65625,0.1875 2.8125,-1.59375 -1.375,-2.40625 1.375,-3.71875 1.9375,-2.53125 -0.59375,-3.3125 1.5625,-1.5625 -2.3125,-3.90625 1.9375,-2.34375 2.15625,-0.40625 1.9375,0.78125 2.75,-2.34375 0.96875,2.9375 0.96875,1.375 2.15625,-0.59375 -0.1875,-2.53125 0.625,-1.375 -0.46875,-1.21875 0.53125,-3.875 2.125,-2.125 -1.0625,-1.25 -2.3125,-0.1875 -2.65625,-1.03125 -3.875,0.34375 -0.71875,-4.25 -2.46875,-3 -1.0625,-0.34375 0.375,3.53125 v 1.0625 l -3.375,0.15625 -3.53125,-1.21875 -0.71875,-4.4375 -2.46875,-2.65625 -1.75,-0.15625 -0.1875,-1.59375 -1.9375,-1.25 -3.1875,-0.875 0.875,-1.0625 v -1.0625 l -1.0625,-0.875 -1.21875,-1.0625 -3.5625,0.53125 -2.09375,1.75 -1.4375,0.1875 -2.28125,-1.59375 -3.375,1.40625 -1.59375,-1.0625 1.4375,-1.75 0.15625,-2.3125 z"
       class="land departement40"
       id="departement"
       transform="translate(-103.4375,-353.875)" />
    <rect
       x="0"
       y="0"
       width="100"
       height="100"
       style="fill:none"
       id="rect9" />
  </g>
</svg>
