<?xml version="1.0" encoding="UTF-8" standalone="no"?>
<svg
   version="1.0"
   width="29.375002"
   height="36.65625"
   id="svg2"
   xmlns="http://www.w3.org/2000/svg"
   xmlns:svg="http://www.w3.org/2000/svg"
   xmlns:rdf="http://www.w3.org/1999/02/22-rdf-syntax-ns#"
   xmlns:cc="http://creativecommons.org/ns#"
   xmlns:dc="http://purl.org/dc/elements/1.1/">
  <defs
     id="defs4">
    <clipPath
       id="clipPath3345">
      <rect
         width="109"
         height="80"
         x="222"
         y="101"
         id="rect2227" />
    </clipPath>
  </defs>
  <metadata
     id="metadata2027">
    <rdf:RDF>
      <cc:Work
         rdf:about="">
        <cc:license
           rdf:resource="http://web.resource.org/cc/PublicDomain" />
        <dc:format>image/svg+xml</dc:format>
        <dc:type
           rdf:resource="http://purl.org/dc/dcmitype/StillImage" />
        <dc:title>Departements of France</dc:title>
      </cc:Work>
      <cc:License
         rdf:about="http://web.resource.org/cc/PublicDomain">
        <cc:permits
           rdf:resource="http://web.resource.org/cc/Reproduction" />
        <cc:permits
           rdf:resource="http://web.resource.org/cc/Distribution" />
        <cc:permits
           rdf:resource="http://web.resource.org/cc/DerivativeWorks" />
      </cc:License>
    </rdf:RDF>
  </metadata>
  <style
     type="text/css"
     id="style6"><![CDATA[
.land
{
	stroke:white;
	stroke-width:0;
}
]]></style>
  <g
     id="complete_map"
     transform="translate(-35.312499,-31.671874)">
    <path
       d="m 251.5,118.15625 -0.0625,0.125 -5.46875,1.5625 -0.78125,0.96875 1,1.5625 v 1.5625 l 1.75,0.375 -1,1 0.0937,0.875 0.125,-0.0937 1.9375,1.9375 0.59375,2.34375 1.5625,1.5625 -0.78125,2.15625 v 1.9375 l 1.375,1.5625 -1.375,2.34375 1.375,3.34375 2.71875,1.9375 0.40625,2.15625 2.34375,0.375 0.5625,4.3125 1.78125,2.15625 3.15625,0.59375 0.46875,-3.09375 1.34375,-1.53125 -1.125,-1.71875 h 2.84375 l 1.9375,-2.65625 -1.34375,-2.3125 0.375,-2.09375 2.875,-1.34375 0.375,-2.125 1.90625,-0.75 1.75,-0.78125 0.34375,0.21875 v -0.21875 l -1.75,-1.96875 -1.09375,-2.96875 1.75,-3.8125 -0.875,-2.875 -3.40625,-2.0625 -4.8125,-0.21875 -4.5,-2.875 -3.625,0.65625 z"
       class="land departement78"
       id="departement"
       transform="translate(-209.875,-86.484375)" />
    <rect
       x="0"
       y="0"
       width="100"
       height="100"
       style="fill:none"
       id="rect9" />
  </g>
</svg>
