<?xml version="1.0" encoding="UTF-8" standalone="no"?>
<svg
   version="1.0"
   width="63.3125"
   height="55.1875"
   id="svg2"
   xmlns="http://www.w3.org/2000/svg"
   xmlns:svg="http://www.w3.org/2000/svg"
   xmlns:rdf="http://www.w3.org/1999/02/22-rdf-syntax-ns#"
   xmlns:cc="http://creativecommons.org/ns#"
   xmlns:dc="http://purl.org/dc/elements/1.1/">
  <defs
     id="defs4">
    <clipPath
       id="clipPath3345">
      <rect
         width="109"
         height="80"
         x="222"
         y="101"
         id="rect2227" />
    </clipPath>
  </defs>
  <metadata
     id="metadata2027">
    <rdf:RDF>
      <cc:Work
         rdf:about="">
        <cc:license
           rdf:resource="http://web.resource.org/cc/PublicDomain" />
        <dc:format>image/svg+xml</dc:format>
        <dc:type
           rdf:resource="http://purl.org/dc/dcmitype/StillImage" />
        <dc:title>Departements of France</dc:title>
      </cc:Work>
      <cc:License
         rdf:about="http://web.resource.org/cc/PublicDomain">
        <cc:permits
           rdf:resource="http://web.resource.org/cc/Reproduction" />
        <cc:permits
           rdf:resource="http://web.resource.org/cc/Distribution" />
        <cc:permits
           rdf:resource="http://web.resource.org/cc/DerivativeWorks" />
      </cc:License>
    </rdf:RDF>
  </metadata>
  <style
     type="text/css"
     id="style6"><![CDATA[
.land
{
	stroke:white;
	stroke-width:0;
}
]]></style>
  <g
     id="complete_map"
     transform="translate(-18.343749,-22.406249)">
    <path
       d="M 132.875,185.84375 132.6875,188 l -4.28125,0.59375 -1.96875,1.9375 -0.78125,2.15625 -12.09375,0.59375 -5.09375,2.71875 -0.1875,5.46875 -5.46875,2.15625 -3.71875,1.9375 h -3.125 l -1.15625,-1.34375 -1.75,1.75 -0.84375,0.15625 1,0.6875 -3.71875,3.3125 0.78125,0.78125 0.78125,1.5625 -1.96875,2.75 2.15625,1.15625 3.71875,0.78125 0.375,-1.5625 2.15625,2.75 h 3.53125 l 2.53125,-2.75 h 3.3125 l -3.5,1.75 0.1875,1.96875 0.78125,1.75 -2.15625,2.15625 h -2.34375 l 0.40625,2.9375 4.28125,-0.78125 5.09375,4.6875 -0.25,0.3125 3.6875,2.40625 0.8125,1.9375 3.375,1.46875 2.59375,0.3125 1.125,3.0625 4.03125,0.96875 2.71875,0.5 1.46875,-1.625 -1.46875,-2.09375 -0.625,-4.53125 1.28125,-1.4375 h 1.78125 l 0.8125,1.78125 -0.5,3.21875 1.125,0.8125 2.90625,-0.96875 0.96875,-3.21875 -1.28125,-1.3125 h 3.21875 l 1.125,-2.09375 1.125,0.15625 2.59375,2.4375 1.875,0.25 0.0625,-2.03125 -1.625,-2.09375 h -1.4375 l -0.5,0.15625 -0.96875,-0.46875 0.8125,-0.8125 v -1.46875 l 1.625,-0.46875 0.96875,-2.25 -0.8125,-0.8125 -0.15625,-2.75 H 140 l -2.09375,-2.59375 v -1.90625 l 2.25,-1.15625 4.03125,-0.78125 6.28125,0.15625 1.9375,-1.3125 -0.65625,-4.03125 -2.90625,-2.71875 -3.53125,0.46875 -0.96875,-0.8125 -0.15625,-2.875 2.5625,-2.28125 -1.9375,-2.40625 -1.28125,-3.40625 -2.09375,-1.28125 v -2.25 l -0.21875,-0.71875 -3.65625,-0.90625 -1.75,-2.34375 z"
       class="land departement44"
       id="departement"
       transform="translate(-70.75,-163.4375)" />
    <rect
       x="0"
       y="0"
       width="100"
       height="100"
       style="fill:none"
       id="rect9" />
  </g>
</svg>
