<?xml version="1.0" encoding="UTF-8" standalone="no"?>
<svg
   version="1.0"
   width="59.4375"
   height="47"
   id="svg2"
   xmlns="http://www.w3.org/2000/svg"
   xmlns:svg="http://www.w3.org/2000/svg"
   xmlns:rdf="http://www.w3.org/1999/02/22-rdf-syntax-ns#"
   xmlns:cc="http://creativecommons.org/ns#"
   xmlns:dc="http://purl.org/dc/elements/1.1/">
  <defs
     id="defs4">
    <clipPath
       id="clipPath3345">
      <rect
         width="109"
         height="80"
         x="222"
         y="101"
         id="rect2227" />
    </clipPath>
  </defs>
  <metadata
     id="metadata2027">
    <rdf:RDF>
      <cc:Work
         rdf:about="">
        <cc:license
           rdf:resource="http://web.resource.org/cc/PublicDomain" />
        <dc:format>image/svg+xml</dc:format>
        <dc:type
           rdf:resource="http://purl.org/dc/dcmitype/StillImage" />
        <dc:title>Departements of France</dc:title>
      </cc:Work>
      <cc:License
         rdf:about="http://web.resource.org/cc/PublicDomain">
        <cc:permits
           rdf:resource="http://web.resource.org/cc/Reproduction" />
        <cc:permits
           rdf:resource="http://web.resource.org/cc/Distribution" />
        <cc:permits
           rdf:resource="http://web.resource.org/cc/DerivativeWorks" />
      </cc:License>
    </rdf:RDF>
  </metadata>
  <style
     type="text/css"
     id="style6"><![CDATA[
.land
{
	stroke:white;
	stroke-width:0;
}
]]></style>
  <g
     id="complete_map"
     transform="translate(-20.28125,-26.499999)">
    <path
       d="m 141.9375,188.6875 -0.4375,0.875 -0.28125,-0.0625 0.21875,0.71875 v 2.25 l 2.09375,1.28125 1.28125,3.40625 1.9375,2.40625 -2.5625,2.28125 0.15625,2.875 0.96875,0.8125 3.53125,-0.46875 2.90625,2.71875 0.65625,4.03125 -1.9375,1.3125 -6.28125,-0.15625 -4.03125,0.78125 -2.25,1.15625 v 1.90625 L 140,219.40625 h 2.09375 l 0.15625,2.75 0.8125,0.8125 -0.96875,2.25 -1.625,0.46875 v 1.46875 l -0.8125,0.8125 0.96875,0.46875 0.5,-0.15625 h 1.4375 l 1.625,2.09375 -0.0625,2.03125 0.375,0.0625 1.625,0.96875 h 5 l 2.65625,2.25 3.71875,-1.59375 6.0625,1.375 2.71875,-1.78125 v -2.71875 l 5.28125,-0.40625 4.875,-0.96875 5.28125,-0.1875 0.59375,1.375 1.375,1.15625 1.34375,-2.34375 3.71875,-3.90625 h 1.5 l 2.21875,-8 3.125,-3.71875 -0.21875,-4.28125 1.96875,-2.5625 v -1.15625 L 196.375,204.78125 197,203.5 l -2.65625,-1.03125 -8.21875,-5 -7.59375,-2.25 -2.90625,-0.15625 v -1.9375 l -1.78125,-1.46875 h -1.90625 l -3.5625,-1.125 -2.25,2.25 -5.15625,0.1875 -2.28125,-1.3125 -5.78125,-1.75 -1.3125,1.59375 -3.21875,-2.09375 h -2.90625 z"
       class="land departement49"
       id="departement"
       transform="translate(-117.625,-162.1875)" />
    <rect
       x="0"
       y="0"
       width="100"
       height="100"
       style="fill:none"
       id="rect9" />
  </g>
</svg>
