<?xml version="1.0" encoding="UTF-8" standalone="no"?>
<svg
   version="1.0"
   width="51.84375"
   height="57.28125"
   id="svg2"
   xmlns="http://www.w3.org/2000/svg"
   xmlns:svg="http://www.w3.org/2000/svg"
   xmlns:rdf="http://www.w3.org/1999/02/22-rdf-syntax-ns#"
   xmlns:cc="http://creativecommons.org/ns#"
   xmlns:dc="http://purl.org/dc/elements/1.1/">
  <defs
     id="defs4">
    <clipPath
       id="clipPath3345">
      <rect
         width="109"
         height="80"
         x="222"
         y="101"
         id="rect2227" />
    </clipPath>
  </defs>
  <metadata
     id="metadata2027">
    <rdf:RDF>
      <cc:Work
         rdf:about="">
        <cc:license
           rdf:resource="http://web.resource.org/cc/PublicDomain" />
        <dc:format>image/svg+xml</dc:format>
        <dc:type
           rdf:resource="http://purl.org/dc/dcmitype/StillImage" />
        <dc:title>Departements of France</dc:title>
      </cc:Work>
      <cc:License
         rdf:about="http://web.resource.org/cc/PublicDomain">
        <cc:permits
           rdf:resource="http://web.resource.org/cc/Reproduction" />
        <cc:permits
           rdf:resource="http://web.resource.org/cc/Distribution" />
        <cc:permits
           rdf:resource="http://web.resource.org/cc/DerivativeWorks" />
      </cc:License>
    </rdf:RDF>
  </metadata>
  <style
     type="text/css"
     id="style6"><![CDATA[
.land
{
	stroke:white;
	stroke-width:0;
}
]]></style>
  <g
     id="complete_map"
     transform="translate(-24.078124,-21.359374)">
    <path
       d="m 447.40625,199.71875 -0.1875,0.21875 h -2.25 l -1.15625,1.59375 -1.46875,0.84375 v 1.96875 l -3.65625,0.4375 -1.96875,-1.40625 -2.65625,0.40625 -2.53125,1.96875 -1.8125,3.09375 -1.8125,0.5625 -0.84375,2.09375 -2.25,0.40625 -3.09375,2.53125 -4.0625,-0.125 -1.25,0.96875 h -1.125 l -3.9375,3.21875 -1.78125,-0.0625 -0.0312,1.1875 0.28125,2.09375 2.53125,1.6875 1.40625,1.84375 -0.4375,1.9375 -1.25,2.96875 -0.84375,1.9375 5.46875,1.84375 3.5,-0.28125 0.28125,2.9375 v 3.9375 l 4.34375,1.40625 1.96875,0.53125 2.8125,2.6875 -0.28125,2.25 -1.28125,1.8125 -3.5,1.125 0.84375,1.96875 0.40625,1.53125 -1.53125,1.53125 0.15625,1.40625 2.375,0.21875 0.0312,-0.1875 12.09375,-11.34375 -0.375,-9.375 4.28125,-2.125 2.9375,-1.375 2.71875,-2.53125 0.21875,-3.71875 2.71875,-1.375 6.25,-7.21875 -0.96875,-2.34375 2.15625,-0.96875 2.53125,-3.125 -1.375,-1.375 -4.6875,0.96875 -0.1875,-0.78125 4.3125,-4.96875 z"
       class="land departement25"
       id="departement"
       transform="translate(-385.45312,-178.35937)" />
    <rect
       x="0"
       y="0"
       width="100"
       height="100"
       style="fill:none"
       id="rect9" />
  </g>
</svg>
