<svg xmlns="http://www.w3.org/2000/svg" viewBox="0 0 82.95 96.48"><defs><style>.cls-1,.cls-2{}.cls-1{fill-rule:evenodd;}</style></defs><g id="Calque_2" data-name="Calque 2"><g id="Layer_1" data-name="Layer 1"><g id="_1484080120192" data-name=" 1484080120192"><path class="cls-1" d="M17.53.92A.88.88,0,0,0,17,1.1l-4.74,6L8.16,11.83,3.41,16.59l.68,12.7L3.74,41l4.14,5.71,4,7.27,2.35,4.46-2.35,2.87L9.19,68.89l.34,10.49-3.38,6L.72,89.84l1.66,1.88L6.5,94.23l3.71,2.25,5.44-1.62,5.77-3.49,11.89-.28,4.46,3.14,4.75.35,4.75,1,6.79-5.44L61.9,76.51,67.68,64.8l5.77-8.59,6.12-7.88L83,42.26,80.26,36.9l-2.05-7.61-4.42-1.62-5-3.42-4.18-3.83-5.43-3.49-3.72-1.26L44.58,8.08,37.43,5.49l-6.81-.9s-3-1.26-4.74-1.89C24.4,2.13,19.25.81,17.53.92Z"/><path class="cls-2" d="M16.81,0a.88.88,0,0,0-.52.17l-4.74,6L7.43,10.92,2.69,15.67l.68,12.7L3,40.08,7.16,45.8l4,7.27,2.35,4.45L11.2,60.39,8.47,68l.34,10.48-3.38,6L0,88.93l1.66,1.88,4.11,2.51,3.71,2.24L14.93,94l5.77-3.49,11.89-.29,4.46,3.15,4.74.34,4.76,1,6.79-5.43L61.18,75.6,67,63.88l5.76-8.58,6.12-7.88,3.39-6.07L79.53,36l-2-7.6-4.41-1.62-5-3.42L63.87,19.5,58.44,16l-3.72-1.26L43.86,7.16,36.71,4.57l-6.81-.9s-3-1.26-4.74-1.89C23.68,1.22,18.53-.11,16.81,0Z"/></g></g></g></svg>