<?xml version="1.0" encoding="UTF-8" standalone="no"?>
<svg
   version="1.0"
   width="24.218752"
   height="27.312502"
   id="svg2"
   xmlns="http://www.w3.org/2000/svg"
   xmlns:svg="http://www.w3.org/2000/svg"
   xmlns:rdf="http://www.w3.org/1999/02/22-rdf-syntax-ns#"
   xmlns:cc="http://creativecommons.org/ns#"
   xmlns:dc="http://purl.org/dc/elements/1.1/">
  <defs
     id="defs4">
    <clipPath
       id="clipPath3345">
      <rect
         width="109"
         height="80"
         x="222"
         y="101"
         id="rect2227" />
    </clipPath>
  </defs>
  <metadata
     id="metadata2027">
    <rdf:RDF>
      <cc:Work
         rdf:about="">
        <cc:license
           rdf:resource="http://web.resource.org/cc/PublicDomain" />
        <dc:format>image/svg+xml</dc:format>
        <dc:type
           rdf:resource="http://purl.org/dc/dcmitype/StillImage" />
        <dc:title>Departements of France</dc:title>
      </cc:Work>
      <cc:License
         rdf:about="http://web.resource.org/cc/PublicDomain">
        <cc:permits
           rdf:resource="http://web.resource.org/cc/Reproduction" />
        <cc:permits
           rdf:resource="http://web.resource.org/cc/Distribution" />
        <cc:permits
           rdf:resource="http://web.resource.org/cc/DerivativeWorks" />
      </cc:License>
    </rdf:RDF>
  </metadata>
  <style
     type="text/css"
     id="style6"><![CDATA[
.land
{
	stroke:white;
	stroke-width:0;
}
]]></style>
  <g
     id="complete_map"
     transform="translate(-37.890624,-36.343749)">
    <path
       d="m 274.21875,136.40625 -1.75,0.78125 -1.90625,0.75 -0.375,2.125 -2.875,1.34375 -0.375,2.09375 1.34375,2.3125 -1.9375,2.65625 H 263.5 l 1.125,1.71875 -1.34375,1.53125 -0.46875,3.09375 0.9375,0.1875 0.375,2.53125 0.40625,0.59375 0.40625,5.25 6.25,-0.5625 2.53125,-2.34375 2.15625,1.75 5.25,0.375 0.75,1.125 v -3.9375 l 4.375,-2.875 -1.3125,-1.71875 L 285.5,150 l 0.75,-1.125 -0.9375,-5.1875 1.71875,-1.34375 -0.34375,-2.4375 -2.15625,-1 h -3.625 l -2.09375,-1.15625 -1.53125,0.78125 z"
       class="land departement91"
       id="departement"
       transform="translate(-224.92187,-100.0625)" />
    <rect
       x="0"
       y="0"
       width="100"
       height="100"
       style="fill:none"
       id="rect9" />
  </g>
</svg>
