<?xml version="1.0" encoding="UTF-8" standalone="no"?>
<svg
   version="1.0"
   width="65.28125"
   height="70.4375"
   id="svg2"
   xmlns="http://www.w3.org/2000/svg"
   xmlns:svg="http://www.w3.org/2000/svg"
   xmlns:rdf="http://www.w3.org/1999/02/22-rdf-syntax-ns#"
   xmlns:cc="http://creativecommons.org/ns#"
   xmlns:dc="http://purl.org/dc/elements/1.1/">
  <defs
     id="defs4">
    <clipPath
       id="clipPath3345">
      <rect
         width="109"
         height="80"
         x="222"
         y="101"
         id="rect2227" />
    </clipPath>
  </defs>
  <metadata
     id="metadata2027">
    <rdf:RDF>
      <cc:Work
         rdf:about="">
        <cc:license
           rdf:resource="http://web.resource.org/cc/PublicDomain" />
        <dc:format>image/svg+xml</dc:format>
        <dc:type
           rdf:resource="http://purl.org/dc/dcmitype/StillImage" />
        <dc:title>Departements of France</dc:title>
      </cc:Work>
      <cc:License
         rdf:about="http://web.resource.org/cc/PublicDomain">
        <cc:permits
           rdf:resource="http://web.resource.org/cc/Reproduction" />
        <cc:permits
           rdf:resource="http://web.resource.org/cc/Distribution" />
        <cc:permits
           rdf:resource="http://web.resource.org/cc/DerivativeWorks" />
      </cc:License>
    </rdf:RDF>
  </metadata>
  <style
     type="text/css"
     id="style6"><![CDATA[
.land
{
	stroke:white;
	stroke-width:0;
}
]]></style>
  <g
     id="complete_map"
     transform="translate(-17.359374,-14.781249)">
    <path
       d="m 294.6875,353.375 -5.53125,4.71875 v 4.6875 h -1.375 l -0.5625,4.40625 -1.375,0.5625 -1.09375,2.46875 h -6.09375 l -0.53125,-0.8125 h -2.78125 l -1.65625,2.75 -0.59375,-0.0625 -0.34375,1.09375 -1.25,1.40625 h -3.53125 L 267.25,375.5 l -1.75,-0.1875 -3.1875,3.53125 -1.0625,-0.34375 -2.28125,1.9375 0.6875,3.53125 1.78125,2.65625 -1.375,1.4375 0.3125,4.03125 2.8125,0.1875 -1.59375,3.1875 1.25,3.1875 1.59375,-0.90625 0.71875,1.59375 2.28125,-2.28125 3.375,-0.1875 3.34375,2.46875 5.84375,1.0625 2.125,3.71875 3,1.40625 1.59375,4.0625 -0.1875,1.59375 1.9375,3.5625 v 1.9375 l 3.53125,4.59375 3.375,1.75 2.125,-0.53125 1.0625,-1.40625 1.59375,0.375 3.65625,2.34375 h 0.0312 1.625 3.3125 L 308.5,418.03125 v -1.9375 h 1.65625 l 3.03125,1.65625 h 3.03125 l -0.53125,-3.3125 1.65625,-1.40625 3.3125,-0.53125 v -2.78125 l 3.59375,-1.65625 -0.84375,-3.84375 H 320.375 l -2.75,-0.5625 -0.5625,-2.21875 2.21875,-0.53125 V 398.125 l 2.1875,-1.9375 -1.65625,-0.8125 -4.6875,0.8125 0.28125,-2.1875 -3.3125,-1.40625 -0.84375,-6.625 v -4.6875 l -2.75,-1.9375 0.28125,-3.875 -5.8125,-7.15625 -0.5625,-5.53125 H 300.5 l -0.84375,-5.53125 -3.875,0.5625 -0.53125,-3.59375 z"
       class="land departement12"
       id="departement"
       transform="translate(-241.60937,-338.59375)" />
    <rect
       x="0"
       y="0"
       width="100"
       height="100"
       style="fill:none"
       id="rect9" />
  </g>
</svg>
