<?xml version="1.0" encoding="UTF-8" standalone="no"?>
<svg
   version="1.0"
   width="49.65625"
   height="51.75"
   id="svg2"
   xmlns="http://www.w3.org/2000/svg"
   xmlns:svg="http://www.w3.org/2000/svg"
   xmlns:rdf="http://www.w3.org/1999/02/22-rdf-syntax-ns#"
   xmlns:cc="http://creativecommons.org/ns#"
   xmlns:dc="http://purl.org/dc/elements/1.1/">
  <defs
     id="defs4">
    <clipPath
       id="clipPath3345">
      <rect
         width="109"
         height="80"
         x="222"
         y="101"
         id="rect2227" />
    </clipPath>
  </defs>
  <metadata
     id="metadata2027">
    <rdf:RDF>
      <cc:Work
         rdf:about="">
        <cc:license
           rdf:resource="http://web.resource.org/cc/PublicDomain" />
        <dc:format>image/svg+xml</dc:format>
        <dc:type
           rdf:resource="http://purl.org/dc/dcmitype/StillImage" />
        <dc:title>Departements of France</dc:title>
      </cc:Work>
      <cc:License
         rdf:about="http://web.resource.org/cc/PublicDomain">
        <cc:permits
           rdf:resource="http://web.resource.org/cc/Reproduction" />
        <cc:permits
           rdf:resource="http://web.resource.org/cc/Distribution" />
        <cc:permits
           rdf:resource="http://web.resource.org/cc/DerivativeWorks" />
      </cc:License>
    </rdf:RDF>
  </metadata>
  <style
     type="text/css"
     id="style6"><![CDATA[
.land
{
	stroke:white;
	stroke-width:0;
}
]]></style>
  <g
     id="complete_map"
     transform="translate(-25.171874,-24.124999)">
    <path
       d="m 202.4375,151.875 -5.28125,0.1875 -5.28125,4.875 -2.75,-0.15625 -3.65625,1.1875 -1.125,1.9375 -0.5,4.1875 0.34375,2.5625 -2.90625,2.4375 -0.8125,1.59375 0.65625,1.46875 -0.8125,1.9375 0.3125,0.8125 -3.21875,0.3125 -0.46875,1.4375 1.4375,3.5625 -0.15625,0.96875 -1.28125,1.125 -2.75,0.15625 -0.34375,0.96875 0.65625,0.96875 v 5.8125 l -0.625,1.46875 1.75,1.4375 v 1.9375 l 2.90625,0.15625 7.59375,2.25 8.21875,5 L 197,203.5 l 1.3125,-2.625 3.90625,2.75 h 2.15625 l -1.1875,-3.90625 2.375,1.5625 1.34375,-1.96875 5.65625,-1.5625 -0.96875,-2.34375 1.375,-1.75 2.9375,-1.15625 2.71875,-3.53125 V 185.25 h 1.96875 l 0.78125,-2.71875 0.1875,-4.09375 -1.9375,-1.78125 1.5625,-2.71875 L 223.5,171 220.78125,169.0625 218.25,168.65625 215.5,164.5625 h -0.78125 l -0.1875,1.9375 -0.1875,-1.34375 H 210.25 l -1.96875,-2.9375 -3.3125,-1.1875 L 204,154 Z"
       class="land departement72"
       id="departement"
       transform="translate(-148.67187,-127.75)" />
    <rect
       x="0"
       y="0"
       width="100"
       height="100"
       style="fill:none"
       id="rect9" />
  </g>
</svg>
