<?xml version="1.0" encoding="UTF-8" standalone="no"?>
<svg
   version="1.0"
   width="78.65625"
   height="63.03125"
   id="svg2"
   xmlns="http://www.w3.org/2000/svg"
   xmlns:svg="http://www.w3.org/2000/svg"
   xmlns:rdf="http://www.w3.org/1999/02/22-rdf-syntax-ns#"
   xmlns:cc="http://creativecommons.org/ns#"
   xmlns:dc="http://purl.org/dc/elements/1.1/">
  <defs
     id="defs4">
    <clipPath
       id="clipPath3345">
      <rect
         width="109"
         height="80"
         x="222"
         y="101"
         id="rect2227" />
    </clipPath>
  </defs>
  <metadata
     id="metadata2027">
    <rdf:RDF>
      <cc:Work
         rdf:about="">
        <cc:license
           rdf:resource="http://web.resource.org/cc/PublicDomain" />
        <dc:format>image/svg+xml</dc:format>
        <dc:type
           rdf:resource="http://purl.org/dc/dcmitype/StillImage" />
        <dc:title>Departements of France</dc:title>
      </cc:Work>
      <cc:License
         rdf:about="http://web.resource.org/cc/PublicDomain">
        <cc:permits
           rdf:resource="http://web.resource.org/cc/Reproduction" />
        <cc:permits
           rdf:resource="http://web.resource.org/cc/Distribution" />
        <cc:permits
           rdf:resource="http://web.resource.org/cc/DerivativeWorks" />
      </cc:License>
    </rdf:RDF>
  </metadata>
  <style
     type="text/css"
     id="style6"><![CDATA[
.land
{
	stroke:white;
	stroke-width:0;
}
]]></style>
  <g
     id="complete_map"
     transform="translate(-269.25,-4.0624993)">
    <path
       d="m 285.78125,4.0625 -6.25,2.9375 -9.75,1.5625 -0.53125,0.09375 3.71875,5.90625 2.59375,6.5625 4.34375,0.1875 1.78125,1.375 -2.15625,1 v 2.375 l 2.75,2.96875 4.96875,1.21875 6.15625,0.375 1.375,-2.1875 h 2 l 0.96875,2 -2.5625,1.59375 0.40625,3.96875 3.5625,0.96875 3.5625,0.40625 1,2.5625 1.78125,0.8125 -0.40625,1.375 -2.5625,1.1875 -0.21875,1.1875 2,2.40625 1.375,0.96875 -0.375,1.1875 -1.59375,1.1875 0.59375,0.40625 2.5625,0.1875 2.1875,1.40625 -0.1875,1.78125 -1.1875,0.78125 L 307.46875,58 305.6875,58.1875 303.90625,58 l -1.96875,1.1875 1.1875,0.40625 h 1.96875 l 1.78125,0.375 0.59375,1 -1.15625,2.21875 1.5625,1.5625 1.5625,0.40625 1.5625,-1 h 2.15625 l 0.59375,1.1875 0.78125,-0.1875 2.34375,-1.375 2.34375,1.375 3.125,-2.15625 h 1.375 l 1.5625,1.375 3.125,-2.15625 1.34375,0.1875 1.1875,0.96875 4.3125,0.40625 0.375,1.75 2.15625,-1.9375 h 1.15625 l 0.78125,2.53125 3.71875,0.96875 L 344.5,66.375 h -0.3125 L 344,64.4375 l 3.90625,-2.34375 -0.59375,-3.71875 -3.71875,-0.96875 0.96875,-1 V 53.6875 l 2.9375,-2.15625 -0.78125,-1.5625 -6.25,-4.875 -10.9375,0.59375 -1.15625,1.9375 H 327 l 0.1875,-6.84375 -3.125,-3.6875 -2.34375,0.375 -1.375,-1.5625 -3.90625,1.75 -1.34375,-1.34375 -2.75,-0.40625 -0.78125,-2.53125 -0.1875,-7.8125 -1.75,-0.78125 -0.21875,-1.1875 H 308.25 l -0.40625,-2.34375 -2.53125,0.21875 -4.875,1.5625 -2.34375,2.90625 H 295.75 L 294.1875,24 l -0.59375,-2.15625 -1.9375,-2.15625 h -2.75 L 287.75,17.5625 v -3.34375 l 1.34375,-2.125 -0.78125,-2.9375 z"
       class="land departement59"
       id="departement" />
    <rect
       x="0"
       y="0"
       width="100"
       height="100"
       style="fill:none"
       id="rect9" />
  </g>
</svg>
