<?xml version="1.0" encoding="UTF-8" standalone="no"?>
<svg
   version="1.0"
   width="59.59375"
   height="62.78125"
   id="svg2"
   xmlns="http://www.w3.org/2000/svg"
   xmlns:svg="http://www.w3.org/2000/svg"
   xmlns:rdf="http://www.w3.org/1999/02/22-rdf-syntax-ns#"
   xmlns:cc="http://creativecommons.org/ns#"
   xmlns:dc="http://purl.org/dc/elements/1.1/">
  <defs
     id="defs4">
    <clipPath
       id="clipPath3345">
      <rect
         width="109"
         height="80"
         x="222"
         y="101"
         id="rect2227" />
    </clipPath>
  </defs>
  <metadata
     id="metadata2027">
    <rdf:RDF>
      <cc:Work
         rdf:about="">
        <cc:license
           rdf:resource="http://web.resource.org/cc/PublicDomain" />
        <dc:format>image/svg+xml</dc:format>
        <dc:type
           rdf:resource="http://purl.org/dc/dcmitype/StillImage" />
        <dc:title>Departements of France</dc:title>
      </cc:Work>
      <cc:License
         rdf:about="http://web.resource.org/cc/PublicDomain">
        <cc:permits
           rdf:resource="http://web.resource.org/cc/Reproduction" />
        <cc:permits
           rdf:resource="http://web.resource.org/cc/Distribution" />
        <cc:permits
           rdf:resource="http://web.resource.org/cc/DerivativeWorks" />
      </cc:License>
    </rdf:RDF>
  </metadata>
  <style
     type="text/css"
     id="style6"><![CDATA[
.land
{
	stroke:white;
	stroke-width:0;
}
]]></style>
  <g
     id="complete_map"
     transform="translate(-20.203124,-18.609374)">
    <path
       d="m 209.84375,310.46875 -1.75,3.125 -2.75,0.375 -0.1875,4.6875 -9.1875,6.25 -0.1875,6.84375 -3.53125,3.5 -1.9375,1.78125 -3.90625,-0.40625 -2.15625,3.71875 -0.5625,1.21875 1.03125,1.21875 h 1.9375 l 1.0625,1.59375 -1.0625,2.84375 -0.53125,3.15625 -1.78125,1.0625 V 352.5 l 0.71875,1.0625 V 355.5 l -1.40625,1.78125 1.75,0.875 0.53125,1.4375 6.03125,-0.1875 2.46875,-3 2.46875,1.59375 -1.9375,1.40625 0.15625,3.875 2.84375,1.96875 0.34375,3.6875 3,1.0625 1.78125,-1.59375 h 3.875 l 2.125,-1.75 1.25,0.1875 0.34375,1.40625 h 3.90625 l 0.875,-1.0625 1.40625,0.1875 1.59375,1.75 v 1.25 l -1.40625,0.875 0.53125,1.25 1.9375,0.15625 L 222,370.375 h 2.125 l 1.40625,1.59375 3.0625,1.28125 0.1875,-0.5 1.78125,-1.75 0.1875,-2.9375 4.28125,-0.375 2.75,-3.90625 -1.1875,-0.40625 -0.1875,-2.125 3.3125,-0.40625 0.21875,-1.9375 1.5625,-1 1.75,-3.125 -1.75,-1.9375 v -2.15625 l 1.34375,-1.15625 -1.75,-2.75 0.1875,-4.28125 -4.28125,0.1875 -1.75,-1.1875 1.5625,-1.9375 -2.15625,-1.75 1.5625,-1.96875 -1.5625,-0.78125 v -2.71875 l 3.90625,-3.53125 -2.15625,-1.75 -1.15625,-2.9375 -4.125,-0.59375 -1.375,-0.96875 2.9375,-1.375 -0.96875,-1.34375 -4.28125,-0.59375 -1,-3.90625 -6.25,-0.59375 -1.375,1.96875 -1.34375,0.375 -1.78125,-2.34375 0.8125,-2.15625 -1,-1.9375 z"
       class="land departement24"
       id="departement"
       transform="translate(-163.45312,-291.85937)" />
    <rect
       x="0"
       y="0"
       width="100"
       height="100"
       style="fill:none"
       id="rect9" />
  </g>
</svg>
