<?xml version="1.0" encoding="UTF-8" standalone="no"?>
<svg
   version="1.0"
   width="75.40625"
   height="46.09375"
   id="svg2"
   xmlns="http://www.w3.org/2000/svg"
   xmlns:svg="http://www.w3.org/2000/svg"
   xmlns:rdf="http://www.w3.org/1999/02/22-rdf-syntax-ns#"
   xmlns:cc="http://creativecommons.org/ns#"
   xmlns:dc="http://purl.org/dc/elements/1.1/">
  <defs
     id="defs4">
    <clipPath
       id="clipPath3345">
      <rect
         width="109"
         height="80"
         x="222"
         y="101"
         id="rect2227" />
    </clipPath>
  </defs>
  <metadata
     id="metadata2027">
    <rdf:RDF>
      <cc:Work
         rdf:about="">
        <cc:license
           rdf:resource="http://web.resource.org/cc/PublicDomain" />
        <dc:format>image/svg+xml</dc:format>
        <dc:type
           rdf:resource="http://purl.org/dc/dcmitype/StillImage" />
        <dc:title>Departements of France</dc:title>
      </cc:Work>
      <cc:License
         rdf:about="http://web.resource.org/cc/PublicDomain">
        <cc:permits
           rdf:resource="http://web.resource.org/cc/Reproduction" />
        <cc:permits
           rdf:resource="http://web.resource.org/cc/Distribution" />
        <cc:permits
           rdf:resource="http://web.resource.org/cc/DerivativeWorks" />
      </cc:License>
    </rdf:RDF>
  </metadata>
  <style
     type="text/css"
     id="style6"><![CDATA[
.land
{
	stroke:white;
	stroke-width:0;
}
]]></style>
  <g
     id="complete_map"
     transform="translate(-12.296875,-26.953124)">
    <path
       d="m 172.15625,428.875 -2.8125,1.59375 -5.65625,-0.1875 -0.53125,-0.875 -3.71875,1.25 -2.84375,0.875 -2.125,-1.59375 -2.28125,0.71875 -0.71875,-0.90625 h -2.8125 l -1.78125,0.90625 -4.59375,-0.1875 -2.46875,1.9375 -4.4375,-0.34375 -0.875,1.25 -1.0625,-0.375 1.40625,-1.40625 -2.46875,-1.9375 -3,2.65625 -5.125,0.34375 -5.625,-2.8125 -0.8125,1.4375 -4.5,5.46875 -3.5,1.375 -2.53125,0.375 v 2.15625 l 2.34375,2.15625 3.5,0.1875 0.1875,2.53125 2.75,0.21875 0.78125,-1.78125 3.71875,1.5625 2.34375,0.59375 0.5625,2.34375 -1.34375,1.1875 v 3.6875 l -2.75,1.375 -0.1875,1.75 1.75,1.96875 3.125,0.96875 0.59375,-2.9375 1.75,-1.9375 -0.1875,2.53125 1.375,1.96875 h 3.5 l 1.5625,2.125 4.6875,0.78125 4.5,2.75 H 149.25 l 0.40625,4.09375 5.0625,3.90625 1.96875,2.34375 2.15625,-1.15625 1.9375,-0.40625 0.96875,0.96875 1.78125,-0.96875 3.40625,-1.875 0.3125,-4.03125 1.5625,-1.1875 0.8125,-6.4375 2.90625,0.59375 1.1875,-0.78125 -1.375,-2.75 5.28125,-4.5 3.125,-7.03125 1.9375,-2.53125 -2.34375,-3.5 -1.5625,-2.34375 2.15625,-1.96875 -3.3125,-5.46875 -5.28125,-0.375 z"
       class="land departement64"
       id="departement"
       transform="translate(-94.984375,-401.92187)" />
    <rect
       x="0"
       y="0"
       width="100"
       height="100"
       style="fill:none"
       id="rect9" />
  </g>
</svg>
