<?xml version="1.0" encoding="UTF-8" standalone="no"?>
<svg
   version="1.0"
   width="50.59375"
   height="54.093754"
   id="svg2"
   xmlns="http://www.w3.org/2000/svg"
   xmlns:svg="http://www.w3.org/2000/svg"
   xmlns:rdf="http://www.w3.org/1999/02/22-rdf-syntax-ns#"
   xmlns:cc="http://creativecommons.org/ns#"
   xmlns:dc="http://purl.org/dc/elements/1.1/">
  <defs
     id="defs4">
    <clipPath
       id="clipPath3345">
      <rect
         width="109"
         height="80"
         x="222"
         y="101"
         id="rect2227" />
    </clipPath>
  </defs>
  <metadata
     id="metadata2027">
    <rdf:RDF>
      <cc:Work
         rdf:about="">
        <cc:license
           rdf:resource="http://web.resource.org/cc/PublicDomain" />
        <dc:format>image/svg+xml</dc:format>
        <dc:type
           rdf:resource="http://purl.org/dc/dcmitype/StillImage" />
        <dc:title>Departements of France</dc:title>
      </cc:Work>
      <cc:License
         rdf:about="http://web.resource.org/cc/PublicDomain">
        <cc:permits
           rdf:resource="http://web.resource.org/cc/Reproduction" />
        <cc:permits
           rdf:resource="http://web.resource.org/cc/Distribution" />
        <cc:permits
           rdf:resource="http://web.resource.org/cc/DerivativeWorks" />
      </cc:License>
    </rdf:RDF>
  </metadata>
  <style
     type="text/css"
     id="style6"><![CDATA[
.land
{
	stroke:white;
	stroke-width:0;
}
]]></style>
  <g
     id="complete_map"
     transform="translate(-24.703124,-22.953124)">
    <path
       d="m 239.53125,270.8125 -1.75,1.75 -4.90625,-0.375 -0.5625,-0.125 -3.71875,0.6875 -2.15625,1.78125 v 2.34375 l -4.28125,0.1875 -2.53125,2.9375 -1.5625,1.15625 1.34375,1.5625 -0.1875,5.28125 -0.96875,1.75 1.5625,1.75 2.71875,0.21875 0.59375,2.71875 0.1875,1.75 -3.5,0.78125 -1.75,0.59375 0.375,4.875 -2.34375,1.5625 -1.96875,0.59375 -0.96875,2.75 -1.5625,0.1875 -0.65625,2.96875 4.5625,0.15625 1,1.9375 -0.8125,2.15625 1.78125,2.34375 1.34375,-0.375 1.375,-1.96875 6.25,0.59375 1,3.90625 4.28125,0.59375 0.96875,1.34375 -2.9375,1.375 1.375,0.96875 4.125,0.59375 0.3125,0.78125 1.09375,-2.21875 2.34375,0.875 2.5625,-3.1875 1.46875,0.1875 1.28125,-2.125 3.8125,0.4375 1.5,-1.5 h 1.90625 l 1.5,-2.75 2.3125,-0.21875 1.5,-2.53125 2.125,0.625 h 1.5 l 1,-1.71875 -1,-0.625 -0.4375,-2.53125 h 1.5 v -1.0625 l -2.5625,-1.71875 -2.75,-1.25 0.40625,-2.5625 h -0.84375 l -1.0625,1.5 -3.40625,0.1875 -1.90625,-0.1875 v -1.9375 l 2.34375,-1.90625 -1.5,-1.90625 -3.59375,1.0625 0.625,-8.0625 -1.6875,-1.71875 -1.71875,-4.25 -2.53125,-0.625 -0.4375,-2.34375 2.34375,-4.65625 -0.0625,-2.875 -0.53125,0.625 z"
       class="land departement87"
       id="departement"
       transform="translate(-186.23437,-247.85937)" />
    <rect
       x="0"
       y="0"
       width="100"
       height="100"
       style="fill:none"
       id="rect9" />
  </g>
</svg>
