<?xml version="1.0" encoding="UTF-8" standalone="no"?>
<svg
   version="1.0"
   width="47.625"
   height="54.34375"
   id="svg2"
   xmlns="http://www.w3.org/2000/svg"
   xmlns:svg="http://www.w3.org/2000/svg"
   xmlns:rdf="http://www.w3.org/1999/02/22-rdf-syntax-ns#"
   xmlns:cc="http://creativecommons.org/ns#"
   xmlns:dc="http://purl.org/dc/elements/1.1/">
  <defs
     id="defs4">
    <clipPath
       id="clipPath3345">
      <rect
         width="109"
         height="80"
         x="222"
         y="101"
         id="rect2227" />
    </clipPath>
  </defs>
  <metadata
     id="metadata2027">
    <rdf:RDF>
      <cc:Work
         rdf:about="">
        <cc:license
           rdf:resource="http://web.resource.org/cc/PublicDomain" />
        <dc:format>image/svg+xml</dc:format>
        <dc:type
           rdf:resource="http://purl.org/dc/dcmitype/StillImage" />
        <dc:title>Departements of France</dc:title>
      </cc:Work>
      <cc:License
         rdf:about="http://web.resource.org/cc/PublicDomain">
        <cc:permits
           rdf:resource="http://web.resource.org/cc/Reproduction" />
        <cc:permits
           rdf:resource="http://web.resource.org/cc/Distribution" />
        <cc:permits
           rdf:resource="http://web.resource.org/cc/DerivativeWorks" />
      </cc:License>
    </rdf:RDF>
  </metadata>
  <style
     type="text/css"
     id="style6"><![CDATA[
.land
{
	stroke:white;
	stroke-width:0;
}
]]></style>
  <g
     id="complete_map"
     transform="translate(-26.1875,-22.828124)">
    <path
       d="M 480.71875,112.28125 477,113.3125 l -1.71875,3 v 2.9375 l -1.5625,1.375 h -1.375 l -2.53125,-1.78125 -1.96875,1.375 H 465.5 l -1.9375,-1.9375 -3.71875,-0.59375 -2.15625,-0.96875 -0.78125,-2.9375 -1.75,1.9375 -0.96875,4.5 L 451.625,121 v 2.53125 l 2.5625,1.1875 1.9375,1.375 -0.78125,1.75 1.78125,1.15625 3.125,-2.34375 5.4375,3.125 -2.3125,4.3125 0.1875,1.375 1.5625,1.5625 -1.1875,4.09375 -3.90625,3.90625 -2.15625,-0.1875 1.375,1.34375 -0.78125,3.53125 L 459.25,155 l 3.71875,0.96875 -0.3125,0.71875 2.9375,-0.15625 1.71875,2.09375 1.53125,1.90625 3.84375,-0.1875 1.71875,4.96875 3,1.3125 -0.0312,-0.625 5.09375,-9.96875 -0.59375,-5.65625 2.34375,-7.625 0.59375,-6.65625 5.0625,-3.6875 V 130.0625 L 491.8438,127.5 h 1.5625 l 1.75,-1.75 -0.375,-3.3125 1.75,-4.6875 2.71875,-0.59375 L 496.5313,115 l -4.875,-0.5625 -4.3125,-2.15625 -2.9375,1.75 -1.5625,-1.75 z"
       class="land departement67"
       id="departement"
       transform="translate(-425.4375,-89.453125)" />
    <rect
       x="0"
       y="0"
       width="100"
       height="100"
       style="fill:none"
       id="rect9" />
  </g>
</svg>
