<?xml version="1.0" encoding="UTF-8" standalone="no"?>
<svg
   version="1.0"
   width="65.5625"
   height="54.21875"
   id="svg2"
   xmlns="http://www.w3.org/2000/svg"
   xmlns:svg="http://www.w3.org/2000/svg"
   xmlns:rdf="http://www.w3.org/1999/02/22-rdf-syntax-ns#"
   xmlns:cc="http://creativecommons.org/ns#"
   xmlns:dc="http://purl.org/dc/elements/1.1/">
  <defs
     id="defs4">
    <clipPath
       id="clipPath3345">
      <rect
         width="109"
         height="80"
         x="222"
         y="101"
         id="rect2227" />
    </clipPath>
  </defs>
  <metadata
     id="metadata2027">
    <rdf:RDF>
      <cc:Work
         rdf:about="">
        <cc:license
           rdf:resource="http://web.resource.org/cc/PublicDomain" />
        <dc:format>image/svg+xml</dc:format>
        <dc:type
           rdf:resource="http://purl.org/dc/dcmitype/StillImage" />
        <dc:title>Departements of France</dc:title>
      </cc:Work>
      <cc:License
         rdf:about="http://web.resource.org/cc/PublicDomain">
        <cc:permits
           rdf:resource="http://web.resource.org/cc/Reproduction" />
        <cc:permits
           rdf:resource="http://web.resource.org/cc/Distribution" />
        <cc:permits
           rdf:resource="http://web.resource.org/cc/DerivativeWorks" />
      </cc:License>
    </rdf:RDF>
  </metadata>
  <style
     type="text/css"
     id="style6"><![CDATA[
.land
{
	stroke:white;
	stroke-width:0;
}
]]></style>
  <g
     id="complete_map"
     transform="translate(-17.218749,-22.890624)">
    <path
       d="m 423.09375,90.40625 -2.9375,0.1875 -2.34375,1.96875 -0.59375,0.96875 h -3.3125 L 412.75,92.34375 h -0.5 c 0.0771,1.68026 0.15625,2.9375 0.15625,2.9375 l -0.96875,1.53125 2.5,5.34375 0.9375,0.78125 1.15625,3.0625 -1.53125,2.65625 1.71875,1.71875 -0.75,1.53125 v 2.125 h -2.125 L 413.15625,116.5 417.1875,119 417,122.0625 h 3.0625 l 1.53125,2.09375 h 3.8125 l 3.84375,4.8125 0.9375,2.65625 h 2.5 l 4.96875,2.125 4.40625,2.65625 v 0.78125 l 2.875,0.1875 3.625,2.09375 H 452 l 2.875,2.125 3.25,2.28125 2.3125,0.75 3.5,-3.5 1.1875,-4.09375 -1.5625,-1.5625 -0.1875,-1.375 2.3125,-4.3125 -5.4375,-3.125 -3.125,2.34375 -1.78125,-1.15625 0.78125,-1.75 -1.9375,-1.375 -2.5625,-1.1875 V 121 l 2.5625,-0.78125 0.96875,-4.5 1.75,-1.9375 0.78125,2.9375 2.15625,0.96875 3.71875,0.59375 1.9375,1.9375 h 2.34375 l 1.96875,-1.375 2.53125,1.78125 h 1.375 l 1.5625,-1.375 v -2.9375 l 1.71875,-3 -0.40625,0.125 -1.34375,-1.9375 -3.90625,-2.34375 -1.375,-2.15625 -4.6875,0.40625 -2.75,2.53125 -6.625,0.1875 -1.96875,-1.375 c -0.13199,-0.23943 -1.09313,-1.93562 -1.9375,-2.40625 -0.0327,-0.0174 -0.0865,-0.0457 -0.125,-0.0625 -0.0285,-0.0117 -0.0699,-0.0243 -0.0937,-0.0312 -0.0107,-0.005 -0.0512,-0.0255 -0.0625,-0.0312 -0.003,1e-5 -0.0278,-1.4e-4 -0.0312,0 -0.025,-0.001 -0.0737,0 -0.0937,0 -0.91552,1e-5 -2.6881,-1.0275 -2.90625,-1.15625 l -2.75,1.15625 -0.1875,2.34375 -3.3125,0.40625 -1.96875,-3.71875 -1.15625,-0.40625 V 102.125 l -2.75,-1.1875 -0.1875,-4.6875 -1.96875,-1.9375 -4.09375,-1.96875 H 428.375 L 427.78125,92.75 h -1.96875 z"
       class="land departement57"
       id="departement"
       transform="translate(-394.21875,-67.515625)" />
    <rect
       x="0"
       y="0"
       width="100"
       height="100"
       style="fill:none"
       id="rect9" />
  </g>
</svg>
