<?xml version="1.0" encoding="UTF-8" standalone="no"?>
<svg
   version="1.0"
   width="41.84375"
   height="64.59375"
   id="svg2"
   xmlns="http://www.w3.org/2000/svg"
   xmlns:svg="http://www.w3.org/2000/svg"
   xmlns:rdf="http://www.w3.org/1999/02/22-rdf-syntax-ns#"
   xmlns:cc="http://creativecommons.org/ns#"
   xmlns:dc="http://purl.org/dc/elements/1.1/">
  <defs
     id="defs4">
    <clipPath
       id="clipPath3345">
      <rect
         width="109"
         height="80"
         x="222"
         y="101"
         id="rect2227" />
    </clipPath>
  </defs>
  <metadata
     id="metadata2027">
    <rdf:RDF>
      <cc:Work
         rdf:about="">
        <cc:license
           rdf:resource="http://web.resource.org/cc/PublicDomain" />
        <dc:format>image/svg+xml</dc:format>
        <dc:type
           rdf:resource="http://purl.org/dc/dcmitype/StillImage" />
        <dc:title>Departements of France</dc:title>
      </cc:Work>
      <cc:License
         rdf:about="http://web.resource.org/cc/PublicDomain">
        <cc:permits
           rdf:resource="http://web.resource.org/cc/Reproduction" />
        <cc:permits
           rdf:resource="http://web.resource.org/cc/Distribution" />
        <cc:permits
           rdf:resource="http://web.resource.org/cc/DerivativeWorks" />
      </cc:License>
    </rdf:RDF>
  </metadata>
  <style
     type="text/css"
     id="style6"><![CDATA[
.land
{
	stroke:white;
	stroke-width:0;
}
]]></style>
  <g
     id="complete_map"
     transform="translate(-29.078124,-17.703124)">
    <path
       d="m 181.71875,229.40625 -5.28125,0.1875 -4.875,0.96875 -5.28125,0.40625 v 2.71875 l -2.71875,1.78125 -6.0625,-1.375 -4.09375,1.75 1.9375,2.75 v 2.34375 l 4.6875,3.90625 -1.15625,2.53125 3.125,3.5 -1.375,1.78125 1.9375,2.90625 0.59375,5.46875 -1.15625,1.5625 1.375,2.34375 -1.375,2.5625 0.1875,1.5625 1.5625,-1.1875 1.9375,1.96875 -2.71875,1.75 L 162,272.75 l -2.15625,0.59375 -2.53125,1.1875 -0.1875,-0.15625 0.0937,2.875 2.125,2.3125 v 1.28125 l 3.1875,2.34375 4.03125,0.21875 2.75,3.59375 4.46875,-0.40625 3.625,2.53125 2.75,1.28125 0.4375,2.125 1.53125,1.46875 1.84375,-1.03125 -0.40625,-1.0625 1.46875,-1.71875 v -1.46875 l 2.5625,-0.65625 3.40625,-1.6875 3.59375,-0.625 0.65625,-1.9375 -3,-0.84375 -1.46875,-2.34375 1.0625,-2.53125 1.28125,-1.5 v -3.1875 l -1.28125,-0.84375 -1.6875,0.84375 v 1.0625 l -0.875,1.28125 -1.6875,-1.90625 -0.21875,-1.28125 0.65625,-1.46875 -1.5,-1.0625 v -4.46875 l -0.84375,-0.21875 v -1.5 l 1.28125,-2.125 0.1875,-1.0625 0.875,-2.3125 -0.65625,-1.5 L 185.25,256 l 2.125,-3.1875 0.65625,-1.6875 v -1.0625 l -1.5,-1.71875 v -0.625 l 0.84375,-1.5 -0.625,-1.0625 1.28125,-1.46875 -1.0625,-2.34375 -0.65625,-3.40625 -0.21875,-2.125 -1.6875,0.21875 -0.3125,-4.8125 -0.40625,0.71875 -1.375,-1.15625 z"
       class="land departement79"
       id="departement"
       transform="translate(-124.32813,-211.70312)" />
    <rect
       x="0"
       y="0"
       width="100"
       height="100"
       style="fill:none"
       id="rect9" />
  </g>
</svg>
