<?xml version="1.0" encoding="UTF-8" standalone="no"?>
<svg
   version="1.0"
   width="37.34375"
   height="58.75"
   id="svg2"
   xmlns="http://www.w3.org/2000/svg"
   xmlns:svg="http://www.w3.org/2000/svg"
   xmlns:rdf="http://www.w3.org/1999/02/22-rdf-syntax-ns#"
   xmlns:cc="http://creativecommons.org/ns#"
   xmlns:dc="http://purl.org/dc/elements/1.1/">
  <defs
     id="defs4">
    <clipPath
       id="clipPath3345">
      <rect
         width="109"
         height="80"
         x="222"
         y="101"
         id="rect2227" />
    </clipPath>
  </defs>
  <metadata
     id="metadata2027">
    <rdf:RDF>
      <cc:Work
         rdf:about="">
        <cc:license
           rdf:resource="http://web.resource.org/cc/PublicDomain" />
        <dc:format>image/svg+xml</dc:format>
        <dc:type
           rdf:resource="http://purl.org/dc/dcmitype/StillImage" />
        <dc:title>Departements of France</dc:title>
      </cc:Work>
      <cc:License
         rdf:about="http://web.resource.org/cc/PublicDomain">
        <cc:permits
           rdf:resource="http://web.resource.org/cc/Reproduction" />
        <cc:permits
           rdf:resource="http://web.resource.org/cc/Distribution" />
        <cc:permits
           rdf:resource="http://web.resource.org/cc/DerivativeWorks" />
      </cc:License>
    </rdf:RDF>
  </metadata>
  <style
     type="text/css"
     id="style6"><![CDATA[
.land
{
	stroke:white;
	stroke-width:0;
}
]]></style>
  <g
     id="complete_map"
     transform="translate(-31.328124,-20.624999)">
    <path
       d="m 401.15625,217.53125 0.0937,0.53125 h -0.78125 l -0.40625,3.125 -0.5625,2.15625 0.375,1.375 -1.15625,1.5625 -1.1875,1.5625 v 1.5625 l -3.3125,1.5625 -0.96875,1.5625 0.375,1.15625 0.1875,1 -1.34375,0.78125 L 392.25,238 l 1.5625,0.1875 1.78125,2.9375 H 397.75 l 1.15625,1.375 h 1.375 l -0.40625,1.5625 -4.5,0.5625 0.40625,1.5625 1.5625,1 v 1.9375 l -0.59375,0.59375 1.1875,1.5625 1.75,3.125 -0.78125,3.3125 -1.96875,1.375 0.21875,2.71875 2.34375,0.78125 0.78125,1.1875 -1.96875,1.5625 -5.125,0.625 2.40625,0.9375 3.90625,5.46875 2.53125,1.15625 v 2.75 l 2.9375,-0.40625 3.71875,-4.09375 3.125,1.5625 v 2.34375 h 5.65625 l 8.125,-8.9375 -0.34375,-0.1875 0.375,-4.09375 2.9375,-3.5 -1.96875,-0.78125 0.1875,-1.1875 -2.375,-0.21875 -0.15625,-1.40625 1.53125,-1.53125 -0.40625,-1.53125 -0.84375,-1.96875 3.5,-1.125 1.28125,-1.8125 0.28125,-2.25 -2.8125,-2.6875 -1.96875,-0.53125 -4.34375,-1.40625 v -3.9375 l -0.28125,-2.9375 -3.5,0.28125 -5.46875,-1.84375 0.84375,-1.9375 1.25,-2.96875 0.4375,-1.9375 -1.40625,-1.84375 -2.53125,-1.6875 -0.28125,-2.09375 0.0312,-1.1875 -1.71875,-0.0625 -0.96875,0.96875 h -2.53125 l -1.6875,-1.40625 z"
       class="land departement39"
       id="departement"
       transform="translate(-360.92187,-196.90625)" />
    <rect
       x="0"
       y="0"
       width="100"
       height="100"
       style="fill:none"
       id="rect9" />
  </g>
</svg>
