<?xml version="1.0" encoding="UTF-8" standalone="no"?>
<svg
   version="1.0"
   width="68.34375"
   height="39.65625"
   id="svg2"
   xmlns="http://www.w3.org/2000/svg"
   xmlns:svg="http://www.w3.org/2000/svg"
   xmlns:rdf="http://www.w3.org/1999/02/22-rdf-syntax-ns#"
   xmlns:cc="http://creativecommons.org/ns#"
   xmlns:dc="http://purl.org/dc/elements/1.1/">
  <defs
     id="defs4">
    <clipPath
       id="clipPath3345">
      <rect
         width="109"
         height="80"
         x="222"
         y="101"
         id="rect2227" />
    </clipPath>
  </defs>
  <metadata
     id="metadata2027">
    <rdf:RDF>
      <cc:Work
         rdf:about="">
        <cc:license
           rdf:resource="http://web.resource.org/cc/PublicDomain" />
        <dc:format>image/svg+xml</dc:format>
        <dc:type
           rdf:resource="http://purl.org/dc/dcmitype/StillImage" />
        <dc:title>Departements of France</dc:title>
      </cc:Work>
      <cc:License
         rdf:about="http://web.resource.org/cc/PublicDomain">
        <cc:permits
           rdf:resource="http://web.resource.org/cc/Reproduction" />
        <cc:permits
           rdf:resource="http://web.resource.org/cc/Distribution" />
        <cc:permits
           rdf:resource="http://web.resource.org/cc/DerivativeWorks" />
      </cc:License>
    </rdf:RDF>
  </metadata>
  <style
     type="text/css"
     id="style6"><![CDATA[
.land
{
	stroke:white;
	stroke-width:0;
}
]]></style>
  <g
     id="complete_map"
     transform="translate(-15.828124,-30.171874)">
    <path
       d="m 459,145.9375 -2,0.4375 -3.0625,1.15625 -1.53125,1.90625 -1.71875,1.15625 -3.28125,1.53125 -0.9375,-0.1875 -2.3125,-0.59375 -2.28125,-0.1875 -0.78125,-2.5 -1.53125,0.59375 -0.1875,2.6875 -1.15625,-1.15625 -2.09375,1.53125 -2.09375,0.75 -2.5,-0.1875 -1.71875,0.59375 -1.90625,-1.15625 -1.15625,0.9375 h -2.875 l -1.34375,2.5 -6.3125,0.375 -1.34375,-1.71875 -2.09375,-0.375 0.1875,-0.96875 1.34375,-0.9375 -1.15625,-0.40625 -0.1875,-3.0625 -2.875,-0.1875 -1.6875,0.53125 -1.1875,1.59375 -3.0625,0.9375 v -1.125 h -0.9375 v 1.3125 L 399.375,152.5 v 1.71875 l -3.4375,0.4375 -1.3125,1.3125 1.34375,1.9375 3.125,0.21875 2.75,3.6875 h 2.34375 l 0.5625,2.5625 2.5625,0.375 0.5625,1.75 -1.75,1.1875 -1.15625,5.28125 5.46875,2.71875 v 4.09375 l 2.125,-0.78125 1.78125,1.40625 1.34375,-0.8125 -0.75,-1.15625 0.96875,-0.59375 1.34375,1.5625 1.96875,-1.375 0.59375,-1.9375 3.6875,-0.59375 1,0.78125 -0.1875,2.15625 2.53125,1.9375 1.5625,-0.1875 1.75,-1.375 H 434.25 l 2.9375,3.3125 h 0.96875 l 1.5625,-0.96875 0.21875,-1.15625 1.5625,-0.78125 1.75,1.15625 1.75,1.96875 6.15625,3.25 2.4375,-2.09375 0.1875,-7.625 3.34375,-2.90625 1.9375,-4.5 -0.59375,-2.9375 2.34375,-4.6875 2.15625,-4.875 L 459.25,155 458.46875,149.71875 459.25,146.1875 Z"
       class="land departement88"
       id="departement"
       transform="translate(-378.79687,-115.76563)" />
    <rect
       x="0"
       y="0"
       width="100"
       height="100"
       style="fill:none"
       id="rect9" />
  </g>
</svg>
