<?xml version="1.0" encoding="UTF-8" standalone="no"?>
<svg
   version="1.0"
   width="51.03125"
   height="54.875"
   id="svg2"
   xmlns="http://www.w3.org/2000/svg"
   xmlns:svg="http://www.w3.org/2000/svg"
   xmlns:rdf="http://www.w3.org/1999/02/22-rdf-syntax-ns#"
   xmlns:cc="http://creativecommons.org/ns#"
   xmlns:dc="http://purl.org/dc/elements/1.1/">
  <defs
     id="defs4">
    <clipPath
       id="clipPath3345">
      <rect
         width="109"
         height="80"
         x="222"
         y="101"
         id="rect2227" />
    </clipPath>
  </defs>
  <metadata
     id="metadata2027">
    <rdf:RDF>
      <cc:Work
         rdf:about="">
        <cc:license
           rdf:resource="http://web.resource.org/cc/PublicDomain" />
        <dc:format>image/svg+xml</dc:format>
        <dc:type
           rdf:resource="http://purl.org/dc/dcmitype/StillImage" />
        <dc:title>Departements of France</dc:title>
      </cc:Work>
      <cc:License
         rdf:about="http://web.resource.org/cc/PublicDomain">
        <cc:permits
           rdf:resource="http://web.resource.org/cc/Reproduction" />
        <cc:permits
           rdf:resource="http://web.resource.org/cc/Distribution" />
        <cc:permits
           rdf:resource="http://web.resource.org/cc/DerivativeWorks" />
      </cc:License>
    </rdf:RDF>
  </metadata>
  <style
     type="text/css"
     id="style6"><![CDATA[
.land
{
	stroke:white;
	stroke-width:0;
}
]]></style>
  <g
     id="complete_map"
     transform="translate(-24.484374,-22.562499)">
    <path
       d="m 212.1875,196.875 0.375,0.875 -5.65625,1.5625 -1.34375,1.96875 -2.375,-1.5625 1.1875,3.90625 h -2.15625 l -3.90625,-2.75 -1.9375,3.90625 0.96875,1.1875 v 1.15625 l -1.96875,2.5625 0.21875,4.28125 -3.125,3.71875 -2.21875,8 h 0.25 l 0.78125,3.125 3.71875,0.78125 v 2.34375 l 4.6875,1.375 v 3.71875 L 199.5,239.375 h 5.84375 l 5.09375,-1.1875 -0.40625,-2.15625 1.5625,-0.96875 1.5625,2.15625 1.375,0.59375 1.15625,4.6875 3.34375,3.5 0.375,2.75 3.03125,3 1.71875,-0.15625 2.125,-1.96875 1.53125,-7.96875 0.96875,-2.8125 0.71875,-3.5 3.09375,-1.125 2.09375,0.40625 1.40625,1.28125 1.53125,-2.53125 1.40625,-1.28125 v -1.53125 l 1.8125,-0.125 0.4375,-1.84375 -1.5625,-2.09375 0.25,-0.875 -1.09375,-0.9375 -2.9375,-4.34375 h -3.78125 l -1.125,-1.6875 V 211.625 L 229.5,207.5625 229.21875,202.53125 227.25,202.375 225,200.6875 h -0.5625 l -1.96875,1.40625 -1.25,-0.84375 -0.28125,-1.9375 1.40625,-0.71875 0.125,-0.6875 -0.8125,-0.71875 z"
       class="land departement37"
       id="departement"
       transform="translate(-165.76562,-174.3125)" />
    <rect
       x="0"
       y="0"
       width="100"
       height="100"
       style="fill:none"
       id="rect9" />
  </g>
</svg>
