<?xml version="1.0" encoding="UTF-8" standalone="no"?>
<svg
   version="1.0"
   width="49.4375"
   height="52.53125"
   id="svg2"
   xmlns="http://www.w3.org/2000/svg"
   xmlns:svg="http://www.w3.org/2000/svg"
   xmlns:rdf="http://www.w3.org/1999/02/22-rdf-syntax-ns#"
   xmlns:cc="http://creativecommons.org/ns#"
   xmlns:dc="http://purl.org/dc/elements/1.1/">
  <defs
     id="defs4">
    <clipPath
       id="clipPath3345">
      <rect
         width="109"
         height="80"
         x="222"
         y="101"
         id="rect2227" />
    </clipPath>
  </defs>
  <metadata
     id="metadata2027">
    <rdf:RDF>
      <cc:Work
         rdf:about="">
        <cc:license
           rdf:resource="http://web.resource.org/cc/PublicDomain" />
        <dc:format>image/svg+xml</dc:format>
        <dc:type
           rdf:resource="http://purl.org/dc/dcmitype/StillImage" />
        <dc:title>Departements of France</dc:title>
      </cc:Work>
      <cc:License
         rdf:about="http://web.resource.org/cc/PublicDomain">
        <cc:permits
           rdf:resource="http://web.resource.org/cc/Reproduction" />
        <cc:permits
           rdf:resource="http://web.resource.org/cc/Distribution" />
        <cc:permits
           rdf:resource="http://web.resource.org/cc/DerivativeWorks" />
      </cc:License>
    </rdf:RDF>
  </metadata>
  <style
     type="text/css"
     id="style6"><![CDATA[
.land
{
	stroke:white;
	stroke-width:0;
}
]]></style>
  <g
     id="complete_map"
     transform="translate(-25.281249,-23.734375)">
    <path
       d="m 367.625,55.84375 -1.96875,2.90625 -1.75,1.78125 v 1.75 2.34375 l -2.34375,1.5625 -4.28125,1.375 -2.34375,0.96875 -2.75,-2.15625 h -3.71875 l -0.53125,3.46875 1.75,3.3125 -1.75,1.5625 -0.1875,2.9375 0.96875,1.5625 L 347.9375,81.5625 345,83.125 v 2.53125 L 341.28125,86.4375 340.6875,88 l 2.5625,1.375 -0.78125,2.71875 -0.59375,2.34375 0.125,4.875 4.75,0.125 4.15625,2.59375 0.78125,1.1875 2.1875,0.59375 3.1875,2.375 2.5625,0.1875 0.59375,-0.59375 h 2.59375 L 364,108.375 h 1.375 l 0.8125,-1.1875 4.75,0.1875 0.78125,1 h 0.59375 l 2,-2 1.78125,1.59375 c 0,0 0.24086,-0.0252 0.28125,-0.0312 l -0.125,-0.8125 2.34375,-1.15625 1.15625,-1.1875 -0.75,-1.9375 -0.21875,-1.375 2.15625,-1.75 0.78125,-3.90625 -2.34375,-2.9375 0.78125,-1.375 1.96875,-3.6875 0.5625,0.78125 h 2.9375 l 1.375,1.34375 1.75,-1.15625 1.375,-2.25 -1.40625,-0.21875 -0.78125,-3.90625 -1.5625,-1.1875 -5.46875,-0.59375 -0.96875,-2.53125 -1.78125,-1.15625 -6.25,-0.78125 -0.375,-4.5 0.78125,-0.78125 v -1.75 l -3.125,-1.96875 0.59375,-2.15625 0.78125,-1.9375 -1.375,-1.1875 2.15625,-1.9375 V 56.4063 l -0.78125,-0.5625 z"
       class="land departement08"
       id="departement"
       transform="translate(-315.40625,-32.109375)" />
    <rect
       x="0"
       y="0"
       width="100"
       height="100"
       style="fill:none"
       id="rect9" />
  </g>
</svg>
