<?xml version="1.0" encoding="UTF-8" standalone="no"?>
<svg
   version="1.0"
   width="65.15625"
   height="46.1875"
   id="svg2"
   xmlns="http://www.w3.org/2000/svg"
   xmlns:svg="http://www.w3.org/2000/svg"
   xmlns:rdf="http://www.w3.org/1999/02/22-rdf-syntax-ns#"
   xmlns:cc="http://creativecommons.org/ns#"
   xmlns:dc="http://purl.org/dc/elements/1.1/">
  <defs
     id="defs4">
    <clipPath
       id="clipPath3345">
      <rect
         width="109"
         height="80"
         x="222"
         y="101"
         id="rect2227" />
    </clipPath>
  </defs>
  <metadata
     id="metadata2027">
    <rdf:RDF>
      <cc:Work
         rdf:about="">
        <cc:license
           rdf:resource="http://web.resource.org/cc/PublicDomain" />
        <dc:format>image/svg+xml</dc:format>
        <dc:type
           rdf:resource="http://purl.org/dc/dcmitype/StillImage" />
        <dc:title>Departements of France</dc:title>
      </cc:Work>
      <cc:License
         rdf:about="http://web.resource.org/cc/PublicDomain">
        <cc:permits
           rdf:resource="http://web.resource.org/cc/Reproduction" />
        <cc:permits
           rdf:resource="http://web.resource.org/cc/Distribution" />
        <cc:permits
           rdf:resource="http://web.resource.org/cc/DerivativeWorks" />
      </cc:License>
    </rdf:RDF>
  </metadata>
  <style
     type="text/css"
     id="style6"><![CDATA[
.land
{
	stroke:white;
	stroke-width:0;
}
]]></style>
  <g
     id="complete_map"
     transform="translate(-17.421874,-26.906249)">
    <path
       d="m 69.78125,123.21875 -1.78125,1.375 -4.46875,0.5625 -1,1.375 -3.125,-2.34375 -4.09375,2.75 1.5625,2.125 -2.71875,3.71875 -0.125,-0.0625 -1.125,5.25 2.40625,0.15625 -0.15625,2.09375 1.78125,1.125 -1.625,1.625 -1.125,0.8125 0.15625,1.90625 2.4375,0.8125 -2.28125,0.65625 v 2.40625 l 1.46875,1.9375 0.3125,5.65625 -0.96875,0.96875 0.8125,2.90625 3.0625,0.8125 0.3125,1.59375 1.9375,0.15625 1.625,-1.125 0.96875,0.96875 3.71875,1.625 3.0625,-1.625 0.78125,-1.59375 2.59375,-0.1875 2.90625,2.59375 2.75,-0.65625 2.40625,2.4375 h 1.125 l 1.125,1.4375 h 2.28125 l 0.78125,-1.125 0.96875,2.09375 2.4375,0.96875 3.0625,-1.9375 V 165.375 l 2.25,-0.8125 h 1.4375 l 1.78125,3.25 3.875,0.3125 1.9375,-2.4375 2.09375,-4.5 2.75,-0.96875 1.4375,-2.09375 1.46875,1.4375 3.0625,-0.625 0.96875,-8.875 0.96875,-3.5625 -0.96875,-1.9375 -1.625,-0.625 -1.09375,-5.90625 -1.25,1.40625 -3.71875,-0.40625 -0.375,2.15625 -2.34375,0.1875 -0.1875,-2.71875 -1.96875,-0.59375 -1.375,1.5625 v -3.90625 l -2.34375,1.75 -3.5,-0.59375 -1.1875,2.34375 -7.21875,3.90625 v 1.96875 h -1.5625 V 141.5625 L 83.25,139.625 83.625,136.09375 79.9375,133.375 v -3.3125 l -2.75,-0.59375 0.1875,-3.125 -2.125,-0.1875 L 75.4375,124 h -3.90625 l -0.59375,1.9375 z"
       class="land departement22"
       id="departement"
       transform="translate(-35.484375,-96.3125)" />
    <rect
       x="0"
       y="0"
       width="100"
       height="100"
       style="fill:none"
       id="rect9" />
  </g>
</svg>
