<?xml version="1.0" encoding="UTF-8" standalone="no"?>
<svg
   version="1.0"
   width="55.71875"
   height="44.8125"
   id="svg2"
   xmlns="http://www.w3.org/2000/svg"
   xmlns:svg="http://www.w3.org/2000/svg"
   xmlns:rdf="http://www.w3.org/1999/02/22-rdf-syntax-ns#"
   xmlns:cc="http://creativecommons.org/ns#"
   xmlns:dc="http://purl.org/dc/elements/1.1/">
  <defs
     id="defs4">
    <clipPath
       id="clipPath3345">
      <rect
         width="109"
         height="80"
         x="222"
         y="101"
         id="rect2227" />
    </clipPath>
  </defs>
  <metadata
     id="metadata2027">
    <rdf:RDF>
      <cc:Work
         rdf:about="">
        <cc:license
           rdf:resource="http://web.resource.org/cc/PublicDomain" />
        <dc:format>image/svg+xml</dc:format>
        <dc:type
           rdf:resource="http://purl.org/dc/dcmitype/StillImage" />
        <dc:title>Departements of France</dc:title>
      </cc:Work>
      <cc:License
         rdf:about="http://web.resource.org/cc/PublicDomain">
        <cc:permits
           rdf:resource="http://web.resource.org/cc/Reproduction" />
        <cc:permits
           rdf:resource="http://web.resource.org/cc/Distribution" />
        <cc:permits
           rdf:resource="http://web.resource.org/cc/DerivativeWorks" />
      </cc:License>
    </rdf:RDF>
  </metadata>
  <style
     type="text/css"
     id="style6"><![CDATA[
.land
{
	stroke:white;
	stroke-width:0;
}
]]></style>
  <g
     id="complete_map"
     transform="translate(-22.140624,-27.593749)">
    <path
       d="m 349.3125,138.6875 -3.96875,2.1875 -3.375,2.375 H 338.625 l -5.5625,3.78125 -4.75,0.78125 -3.375,-3.5625 -0.84375,0.1875 v 0.59375 l -2.71875,1.15625 -0.1875,2.34375 -1.375,1.78125 -0.78125,3.90625 -0.4375,3.28125 1.21875,1 h 2.34375 l 5.0625,5.28125 -0.59375,5.28125 3.53125,2.71875 1.96875,-1.375 3.125,3.71875 0.375,3.53125 2.15625,2.90625 0.96875,2.15625 7.8125,0.40625 3.90625,-1.96875 1.15625,2.15625 1.375,0.1875 1,-2.15625 6.4375,-0.1875 2.53125,-1.375 0.40625,-2.53125 h 5.65625 l 0.78125,0.4375 -0.65625,-2.5 -1.59375,-1 2.1875,-1.96875 3.375,-0.21875 1.1875,-1.78125 -0.21875,-7.125 -0.78125,-4.15625 -3.375,-1.1875 -3.5625,-4.96875 0.1875,-2.96875 1.03125,-2.15625 -1.8125,-0.625 -5.5625,1.1875 H 356.25 l -3.5625,-5.34375 -0.40625,-3.96875 z"
       class="land departement10"
       id="departement"
       transform="translate(-296.45312,-111.09375)" />
    <rect
       x="0"
       y="0"
       width="100"
       height="100"
       style="fill:none"
       id="rect9" />
  </g>
</svg>
