<?xml version="1.0" encoding="UTF-8" standalone="no"?>
<svg
   version="1.0"
   width="50.15625"
   height="64.09375"
   id="svg2"
   xmlns="http://www.w3.org/2000/svg"
   xmlns:svg="http://www.w3.org/2000/svg"
   xmlns:rdf="http://www.w3.org/1999/02/22-rdf-syntax-ns#"
   xmlns:cc="http://creativecommons.org/ns#"
   xmlns:dc="http://purl.org/dc/elements/1.1/">
  <defs
     id="defs4">
    <clipPath
       id="clipPath3345">
      <rect
         width="109"
         height="80"
         x="222"
         y="101"
         id="rect2227" />
    </clipPath>
  </defs>
  <metadata
     id="metadata2027">
    <rdf:RDF>
      <cc:Work
         rdf:about="">
        <cc:license
           rdf:resource="http://web.resource.org/cc/PublicDomain" />
        <dc:format>image/svg+xml</dc:format>
        <dc:type
           rdf:resource="http://purl.org/dc/dcmitype/StillImage" />
        <dc:title>Departements of France</dc:title>
      </cc:Work>
      <cc:License
         rdf:about="http://web.resource.org/cc/PublicDomain">
        <cc:permits
           rdf:resource="http://web.resource.org/cc/Reproduction" />
        <cc:permits
           rdf:resource="http://web.resource.org/cc/Distribution" />
        <cc:permits
           rdf:resource="http://web.resource.org/cc/DerivativeWorks" />
      </cc:License>
    </rdf:RDF>
  </metadata>
  <style
     type="text/css"
     id="style6"><![CDATA[
.land
{
	stroke:white;
	stroke-width:0;
}
]]></style>
  <g
     id="complete_map"
     transform="translate(-24.921874,-17.953125)">
    <path
       d="m 188.75,225.6875 -3.71875,3.90625 -0.9375,1.625 0.3125,4.8125 1.6875,-0.21875 0.21875,2.125 0.65625,3.40625 1.0625,2.34375 -1.28125,1.46875 0.625,1.0625 -0.84375,1.5 v 0.625 l 1.5,1.71875 v 1.0625 l -0.65625,1.6875 -2.125,3.1875 2.125,0.84375 0.65625,1.5 -0.875,2.3125 -0.1875,1.0625 -1.28125,2.125 v 1.5 l 0.84375,0.21875 v 4.46875 l 1.5,1.0625 -0.65625,1.46875 0.21875,1.28125 1.6875,1.90625 0.875,-1.28125 v -1.0625 l 1.6875,-0.84375 1.28125,0.84375 v 3.1875 l -1.28125,1.5 -1.0625,2.53125 1.46875,2.34375 3,0.84375 -0.65625,1.9375 -2.78125,0.46875 2.5625,3.125 3.40625,-0.21875 2.96875,-1.0625 3,1.71875 1.0625,-0.84375 -0.21875,-2.78125 1.6875,-1.28125 1.5,2.5625 1.25,1.28125 3.625,-1.5 1.5,-1.6875 h 3.375 l 1.75,0.875 0.125,-3.6875 -1.34375,-1.5625 1.5625,-1.15625 2.53125,-2.9375 4.28125,-0.1875 v -2.34375 l 2.15625,-1.78125 5.28125,-0.96875 0.375,-2.9375 -2.125,-1.15625 -1.1875,-4.09375 -3.125,-0.40625 -1.9375,-1.9375 -3.71875,-2.9375 0.78125,-2.34375 V 252.25 l -3.53125,-3.5 -0.375,-2.75 -3.34375,-3.5 -1.15625,-4.6875 -1.375,-0.59375 -1.5625,-2.15625 -1.5625,0.96875 0.40625,2.15625 -5.09375,1.1875 H 199.5 l 0.1875,-2.34375 V 233.3125 L 195,231.9375 v -2.34375 l -3.71875,-0.78125 -0.78125,-3.125 z"
       class="land departement86"
       id="departement"
       transform="translate(-159.17187,-207.73437)" />
    <rect
       x="0"
       y="0"
       width="100"
       height="100"
       style="fill:none"
       id="rect9" />
  </g>
</svg>
