<?xml version="1.0" encoding="UTF-8" standalone="no"?>
<svg
   version="1.0"
   width="61.3125"
   height="44.59375"
   id="svg2"
   xmlns="http://www.w3.org/2000/svg"
   xmlns:svg="http://www.w3.org/2000/svg"
   xmlns:rdf="http://www.w3.org/1999/02/22-rdf-syntax-ns#"
   xmlns:cc="http://creativecommons.org/ns#"
   xmlns:dc="http://purl.org/dc/elements/1.1/">
  <defs
     id="defs4">
    <clipPath
       id="clipPath3345">
      <rect
         width="109"
         height="80"
         x="222"
         y="101"
         id="rect2227" />
    </clipPath>
  </defs>
  <metadata
     id="metadata2027">
    <rdf:RDF>
      <cc:Work
         rdf:about="">
        <cc:license
           rdf:resource="http://web.resource.org/cc/PublicDomain" />
        <dc:format>image/svg+xml</dc:format>
        <dc:type
           rdf:resource="http://purl.org/dc/dcmitype/StillImage" />
        <dc:title>Departements of France</dc:title>
      </cc:Work>
      <cc:License
         rdf:about="http://web.resource.org/cc/PublicDomain">
        <cc:permits
           rdf:resource="http://web.resource.org/cc/Reproduction" />
        <cc:permits
           rdf:resource="http://web.resource.org/cc/Distribution" />
        <cc:permits
           rdf:resource="http://web.resource.org/cc/DerivativeWorks" />
      </cc:License>
    </rdf:RDF>
  </metadata>
  <style
     type="text/css"
     id="style6"><![CDATA[
.land
{
	stroke:white;
	stroke-width:0;
}
]]></style>
  <g
     id="complete_map"
     transform="translate(-19.343749,-27.703124)">
    <path
       d="m 207.875,401.875 -5.84375,0.5625 -1.5625,2.75 -3.53125,0.375 -3.3125,0.59375 -1.375,-1.9375 -3.125,3.125 -2.3125,-1.96875 -1.375,2.9375 0.1875,2.53125 -2.15625,0.59375 -0.96875,-1.375 -0.96875,-2.9375 -2.75,2.34375 -1.9375,-0.78125 -2.15625,0.40625 -1.9375,2.34375 2.3125,3.90625 -1.5625,1.5625 0.59375,3.3125 -1.9375,2.53125 -1.375,3.71875 1.5625,2.75 4.9375,0.34375 1.9375,-1.03125 h 3 l -0.15625,3.34375 2.28125,1.25 2.3125,0.34375 1.0625,2.84375 0.53125,0.53125 -0.34375,1.75 -0.71875,0.71875 2.125,1.40625 0.15625,1.59375 h 2.65625 l 0.71875,-0.71875 h 2.28125 l 0.71875,1.59375 h 2.46875 l 0.71875,1.4375 h 4.78125 l 3.5625,1.84375 0.3125,-0.4375 1.9375,-1.0625 3.53125,-4.59375 6.5625,0.53125 2.8125,1.9375 0.90625,-1.25 1.40625,-4.21875 1.75,-4.0625 3.71875,-1.59375 1.78125,-0.71875 -0.53125,-1.59375 -1.78125,-0.1875 -0.6875,-1.75 h -1.4375 l -2.28125,-2.3125 0.15625,-1.59375 -3,-3 L 222,418.65625 220.0625,419.5 l -0.53125,-1.0625 1.25,-1.9375 -1.4375,-1.40625 V 412.625 l -1.21875,-1.25 -3.90625,-0.1875 v -2.28125 l 2.125,-1.59375 v -1.78125 l 2.3125,-1.0625 -1.25,-0.6875 -1.40625,0.6875 h -2.84375 l -0.875,-0.8125 -0.46875,0.15625 -1,0.96875 z"
       class="land departement32"
       id="departement"
       transform="translate(-151.4375,-374.17187)" />
    <rect
       x="0"
       y="0"
       width="100"
       height="100"
       style="fill:none"
       id="rect9" />
  </g>
</svg>
