<?xml version="1.0" encoding="UTF-8" standalone="no"?>
<svg
   version="1.0"
   width="47.1875"
   height="46.5625"
   id="svg2"
   xmlns="http://www.w3.org/2000/svg"
   xmlns:svg="http://www.w3.org/2000/svg"
   xmlns:rdf="http://www.w3.org/1999/02/22-rdf-syntax-ns#"
   xmlns:cc="http://creativecommons.org/ns#"
   xmlns:dc="http://purl.org/dc/elements/1.1/">
  <defs
     id="defs4">
    <clipPath
       id="clipPath3345">
      <rect
         width="109"
         height="80"
         x="222"
         y="101"
         id="rect2227" />
    </clipPath>
  </defs>
  <metadata
     id="metadata2027">
    <rdf:RDF>
      <cc:Work
         rdf:about="">
        <cc:license
           rdf:resource="http://web.resource.org/cc/PublicDomain" />
        <dc:format>image/svg+xml</dc:format>
        <dc:type
           rdf:resource="http://purl.org/dc/dcmitype/StillImage" />
        <dc:title>Departements of France</dc:title>
      </cc:Work>
      <cc:License
         rdf:about="http://web.resource.org/cc/PublicDomain">
        <cc:permits
           rdf:resource="http://web.resource.org/cc/Reproduction" />
        <cc:permits
           rdf:resource="http://web.resource.org/cc/Distribution" />
        <cc:permits
           rdf:resource="http://web.resource.org/cc/DerivativeWorks" />
      </cc:License>
    </rdf:RDF>
  </metadata>
  <style
     type="text/css"
     id="style6"><![CDATA[
.land
{
	stroke:white;
	stroke-width:0;
}
]]></style>
  <g
     id="complete_map"
     transform="translate(-26.406249,-26.718749)">
    <path
       d="m 182.5,146.40625 -1.9375,0.1875 -0.8125,1.9375 -2.90625,1.1875 -5.28125,-0.78125 -5.28125,3.125 -1.9375,-1.375 -2.9375,1.96875 -2.15625,-1.5625 -1.375,-2.34375 -2.90625,-1.1875 -1.96875,1.5625 -3.3125,-0.40625 -0.1875,5.09375 0.96875,0.78125 V 158.5 L 148.5,160.46875 v 3.125 l 0.59375,1.9375 v 5.65625 l 1.375,1.375 v 5.28125 l -3.3125,-0.40625 -1.375,0.78125 -2.53125,6.25 -1,3.53125 -0.3125,0.6875 3.53125,0.71875 h 2.90625 l 3.21875,2.09375 1.3125,-1.59375 5.78125,1.75 2.28125,1.3125 5.15625,-0.1875 2.25,-2.25 3.5625,1.125 h 1.90625 l 0.0312,0.0312 0.625,-1.46875 v -5.8125 l -0.65625,-0.96875 0.34375,-0.96875 2.75,-0.15625 1.28125,-1.125 0.15625,-0.96875 -1.4375,-3.5625 0.46875,-1.4375 3.21875,-0.3125 -0.3125,-0.8125 0.8125,-1.9375 -0.65625,-1.46875 0.8125,-1.59375 2.90625,-2.4375 -0.34375,-2.5625 0.5,-4.1875 1.125,-1.9375 3.65625,-1.1875 -0.5625,-0.0312 -1,-3.53125 -2.53125,-0.96875 -0.78125,-4.28125 z"
       class="land departement53"
       id="departement"
       transform="translate(-115.53125,-119.6875)" />
    <rect
       x="0"
       y="0"
       width="100"
       height="100"
       style="fill:none"
       id="rect9" />
  </g>
</svg>
