<svg xmlns="http://www.w3.org/2000/svg" viewBox="0 0 141.2 141.2"><defs><style>.cls-1{fill:none;}.cls-2{}</style></defs><g id="Calque_2" data-name="Calque 2"><g id="Layer_1" data-name="Layer 1"><rect class="cls-1" width="141.2" height="141.2" rx="70.6"/><path class="cls-2" d="M72.7,56.63a2.05,2.05,0,0,1-.93-3.89c10.76-5.12,22.75-9.84,30.34-11.89a2.08,2.08,0,1,1,1.12,4c-7.48,2-19.06,6.56-29.71,11.68-.21,0-.52.1-.82.1Z"/><path class="cls-2" d="M42.06,75.69a2.25,2.25,0,0,1-1.54-.61,2,2,0,0,1,.1-2.87c5-4.71,12.61-9.84,22.65-15.06a2,2,0,1,1,1.95,3.58c-9.54,5-17.12,10.05-21.73,14.45a2.42,2.42,0,0,1-1.43.51Z"/><path class="cls-2" d="M68.29,71.7A6.43,6.43,0,0,1,64,70l-.21-.21a6.2,6.2,0,0,1,0-8.61l1.64-1.53a2,2,0,0,1,2.87,0l5.94,5.94a2,2,0,0,1,0,2.87L72.7,70a6.92,6.92,0,0,1-4.41,1.74Zm-1.43-7.79-.21.1A1.86,1.86,0,0,0,66,65.45a2,2,0,0,0,.61,1.43l.21.21a2.05,2.05,0,0,0,2.76,0l.1-.11Z"/><path class="cls-2" d="M75.77,70.26a6.38,6.38,0,0,1-4.3-1.74l-11-11C58.25,58.79,54.05,61,50.77,61a16.92,16.92,0,0,1-11.07-4.2,4.29,4.29,0,0,0-2.66-1H26.79a2,2,0,1,1,0-4.09H37a8.12,8.12,0,0,1,5.43,2.05,12.62,12.62,0,0,0,8.4,3.17c2.36,0,6.76-2.25,8.91-3.69a2,2,0,0,1,2.57.31L74.44,65.65a2,2,0,0,0,2.77,0l.2-.2a2,2,0,0,0,0-2.87l-.2-.21a2.21,2.21,0,0,1-.11-3l3.59-3.59,3.69-3.68a1,1,0,0,0,0-1.44L73.31,39.62a.79.79,0,0,0-.51-.2H44.21a2.05,2.05,0,0,1,0-4.1H72.8a4.82,4.82,0,0,1,3.38,1.43L87.25,47.92a5.14,5.14,0,0,1,0,7.18l-3.69,3.69L81.2,61.14A5.75,5.75,0,0,1,81.92,64a6.09,6.09,0,0,1-1.74,4.31l-.11.2a6.38,6.38,0,0,1-4.3,1.74ZM72.7,57a2,2,0,0,1-1.44-.61l-5.94-5.94a2,2,0,0,1,0-2.87L68.9,44a2,2,0,0,1,1.44-.62,2,2,0,0,1,1.43.62l6,5.94a2,2,0,0,1,0,2.87l-3.59,3.59A2,2,0,0,1,72.7,57Zm-3-7.89,3,3,.61-.62-3-3Z"/><path class="cls-2" d="M62.35,65.75A6,6,0,0,1,58,64l-.2-.2a6.2,6.2,0,0,1,0-8.61l1.64-1.54a2,2,0,0,1,2.87,0l5.94,6A2,2,0,0,1,68.91,61a2,2,0,0,1-.62,1.44L66.65,64a6,6,0,0,1-4.3,1.74ZM60.91,58l-.1.1a1.86,1.86,0,0,0-.62,1.43,2,2,0,0,0,.62,1.44l.2.2a1.87,1.87,0,0,0,1.44.62,2,2,0,0,0,1.43-.62L64,61Z"/><path class="cls-2" d="M78.64,63a2,2,0,0,1-1.43-.62l-5.95-5.94a2,2,0,1,1,2.87-2.87l5.94,5.94a2,2,0,0,1,0,2.87,2,2,0,0,1-1.43.62Z"/><path class="cls-2" d="M66.86,63a2,2,0,0,1-1.44-.62,2,2,0,1,1,2.87,0,2,2,0,0,1-1.43.62Z"/><path class="cls-2" d="M85.4,110.74H60.81a2,2,0,0,1,0-4.1H85.4a2,2,0,0,1,0,4.1Z"/><path class="cls-2" d="M73.21,109.2a2.05,2.05,0,0,1-2-2V92a2.05,2.05,0,0,1,4.1,0v15.16a2.05,2.05,0,0,1-2.05,2Z"/><path class="cls-2" d="M77.72,93.32a6.52,6.52,0,0,1-4.61-1.95A6.64,6.64,0,0,1,71.36,85a20.86,20.86,0,0,1,5.44-9.84c6.45-6.45,16.49-6.35,16.9-6.35a2.05,2.05,0,0,1,2,2c0,.41,0,10.55-6.35,16.91a22.37,22.37,0,0,1-9.84,5.43c-.71,0-1.33.1-1.84.1ZM91.45,72.93c-3,.31-8.2,1.43-11.79,5a18.19,18.19,0,0,0-4.3,8A2.62,2.62,0,0,0,76,88.4a2.39,2.39,0,0,0,2.46.62,17.65,17.65,0,0,0,8-4.31c3.58-3.48,4.71-8.81,5-11.78Z"/><path class="cls-2" d="M70,99.47a6.42,6.42,0,0,1-1.43-.21,15.2,15.2,0,0,1-7.18-4.51C56.81,89.53,56.81,81.33,56.81,81a2.06,2.06,0,0,1,2-2c.31,0,7.69,0,12.4,5.33a19.52,19.52,0,0,1,3.9,8A5.89,5.89,0,0,1,73.52,98,5.45,5.45,0,0,1,70,99.47ZM61,83.28c.31,2.35,1.13,6.15,3.39,8.71a11.23,11.23,0,0,0,5.32,3.28,1,1,0,0,0,.82-.21,2.34,2.34,0,0,0,.52-1.84,14.14,14.14,0,0,0-3-6.25A12.47,12.47,0,0,0,61,83.28Z"/><path class="cls-2" d="M102.62,44.75a.85.85,0,0,1-.51-.11,2,2,0,0,1-1.44-2.45c.1-.31,2-7.59,8.4-10.66a2.06,2.06,0,1,1,1.85,3.69c-4.71,2.25-6.25,7.89-6.25,8a2.19,2.19,0,0,1-2,1.54Z"/><path class="cls-2" d="M96.78,45h-.21a2.07,2.07,0,0,1-1.84-2.25c0-.31.82-7.79,6.66-11.89a2.06,2.06,0,0,1,2.36,3.38c-4.31,3-4.92,8.82-4.92,8.82a2,2,0,0,1-2,1.94Z"/><path class="cls-2" d="M90.42,46.9a2.06,2.06,0,0,1-2-2c0-.31,0-7.79,5.44-12.4a2,2,0,1,1,2.66,3.07c-4,3.39-4,9.23-4,9.33a2.05,2.05,0,0,1-2,2Z"/><path class="cls-2" d="M113.17,49.77c-6.35,0-11.06-4.41-11.27-4.61a2,2,0,0,1,2.77-3c.1.11,4.41,4,9.53,3.49a2.06,2.06,0,0,1,.41,4.1Z"/><path class="cls-2" d="M108.67,54.28h0c-7.18-.31-11.79-6.25-12-6.56A2,2,0,1,1,100,45.26c.11.1,3.69,4.71,8.82,4.92a2,2,0,0,1,1.94,2.15,2.1,2.1,0,0,1-2,2Z"/><path class="cls-2" d="M101.59,57h-.3C94.22,56,90.22,49.67,90,49.36A2.08,2.08,0,0,1,93.5,47.1c.1.11,3.18,5,8.3,5.74a2.07,2.07,0,0,1,1.74,2.36,2,2,0,0,1-2,1.84Z"/><path class="cls-2" d="M46,78.67h-.2a2.08,2.08,0,0,1-1.85-2.26c.31-3.58,2.56-8.3,2.56-8.5a2,2,0,1,1,3.69,1.64c-.51,1.23-2,4.81-2.25,7.17a2,2,0,0,1-1.95,2Z"/><path class="cls-2" d="M38.16,84.51a3,3,0,0,1,0-6,2.89,2.89,0,0,1,3,2.87,3.07,3.07,0,0,1-3,3.08Z"/><path class="cls-2" d="M43.7,90.35a2.46,2.46,0,1,1,2.46-2.46A2.49,2.49,0,0,1,43.7,90.35Z"/></g></g></svg>