<svg xmlns="http://www.w3.org/2000/svg" viewBox="0 0 141.2 141.2"><defs><style>.cls-1{fill:none;}.cls-2,.cls-3{}.cls-3{fill-rule:evenodd;}</style></defs><g id="Calque_2" data-name="Calque 2"><g id="Layer_1" data-name="Layer 1"><rect class="cls-1" width="141.2" height="141.2" rx="70.6"/><path class="cls-2" d="M50.94,101.38,66.42,71.1H57.13a1,1,0,0,1-1-1,.91.91,0,0,1,.16-.54l16-30.73.89.46-.89-.47a1,1,0,0,1,1-.53l16.1.36,0,1,0-1a1,1,0,0,1,1,1,1,1,0,0,1-.21.6L77.6,59.69l11.3.48,0,1,0-1a1,1,0,0,1,1,1.06,1,1,0,0,1-.31.67l-37,40.71h0a1,1,0,0,1-1.43.07A1,1,0,0,1,50.94,101.38ZM69,70.55,56.12,95.66,86.66,62.09l-10.83-.46a1,1,0,0,1-.58-.16,1,1,0,0,1-.3-1.4l.85.55L75,60.07,87.58,40.61,73.82,40.3l-15,28.78h9.27a1.12,1.12,0,0,1,.47.11A1,1,0,0,1,69,70.55Z"/><path class="cls-2" d="M83.82,48.3a26.06,26.06,0,0,1,9.3,9.47A25.92,25.92,0,0,1,70.6,96.52a26.05,26.05,0,0,1-5.75-.64A26.55,26.55,0,0,1,59.41,94l.43-.91L59.4,94a1,1,0,0,1-.47-1.35,1,1,0,0,1,.21-.29L86.66,62.09l-10.9-.46,0-1,0,1a1,1,0,0,1-1-1.05A1,1,0,0,1,75,60l7.4-11.41h0a1,1,0,0,1,1.4-.3Zm7.55,10.46a24.07,24.07,0,0,0-7.81-8.24l-6,9.17,11.22.47a1,1,0,0,1,.78,1.69l-.74-.68.74.68L61.52,92.72a24,24,0,0,0,3.77,1.19,24.34,24.34,0,0,0,5.31.59A23.91,23.91,0,0,0,91.37,58.76ZM56.5,92.35A26.08,26.08,0,0,1,47.83,83a25.92,25.92,0,0,1,22-38.28h0a1,1,0,0,1,1,1,1.12,1.12,0,0,1-.16.58L58.79,69.08h9.28a1,1,0,0,1,1,1,1,1,0,0,1-.16.55L58,92l-.9-.45L58,92a1,1,0,0,1-1.36.44ZM49.6,82a23.94,23.94,0,0,0,7.13,8l9.69-19H57.14a.92.92,0,0,1-.48-.11,1,1,0,0,1-.43-1.36h0L68.15,46.82A23.91,23.91,0,0,0,49.6,82Z"/><path class="cls-3" d="M40.52,24.3h60.16A16.27,16.27,0,0,1,116.9,40.52v60.16a16.27,16.27,0,0,1-16.22,16.22H40.52A16.27,16.27,0,0,1,24.3,100.68V40.52A16.27,16.27,0,0,1,40.52,24.3Zm0,4.05h60.16a12.21,12.21,0,0,1,12.17,12.17v60.16a12.21,12.21,0,0,1-12.17,12.17H40.52a12.21,12.21,0,0,1-12.17-12.17V40.52A12.21,12.21,0,0,1,40.52,28.35Z"/></g></g></svg>