<svg xmlns="http://www.w3.org/2000/svg" viewBox="0 0 141.2 141.2"><defs><style>.cls-1{fill:none;}.cls-2{}</style></defs><g id="Calque_2" data-name="Calque 2"><g id="Layer_1" data-name="Layer 1"><rect class="cls-1" width="141.2" height="141.2" rx="70.6"/><path class="cls-2" d="M36.93,116.5a1,1,0,0,1-1-1c0-3.78,3.14-5.64,5.91-7.28s4.93-2.91,4.93-5.55-2.28-4-4.93-5.56-5.91-3.5-5.91-7.28,3.14-5.63,5.92-7.27,4.92-2.92,4.92-5.56-2.28-4-4.92-5.55-5.92-3.5-5.92-7.28,3.14-5.63,5.92-7.27,4.92-2.92,4.92-5.55-2.28-4-4.92-5.55-5.92-3.5-5.92-7.27,3.14-5.64,5.92-7.28,4.92-2.91,4.92-5.55a1,1,0,1,1,2,0c0,3.78-3.14,5.63-5.91,7.27s-4.93,2.92-4.93,5.56,2.29,4,4.93,5.55,5.91,3.5,5.91,7.27S45.63,57,42.86,58.62s-4.93,2.92-4.93,5.55,2.29,4,4.93,5.56,5.91,3.5,5.91,7.27-3.14,5.64-5.91,7.28-4.93,2.92-4.93,5.55,2.29,4,4.93,5.56,5.91,3.5,5.91,7.28-3.14,5.64-5.91,7.28-4.93,2.91-4.93,5.55A1,1,0,0,1,36.93,116.5Z"/><path class="cls-2" d="M106.76,116.5a1,1,0,0,1-1-1c0-3.78,3.14-5.64,5.91-7.28s4.93-2.91,4.93-5.55-2.29-4-4.93-5.56-5.91-3.5-5.91-7.28,3.14-5.63,5.91-7.27,4.93-2.92,4.93-5.56-2.29-4-4.93-5.55-5.91-3.5-5.91-7.28,3.14-5.63,5.91-7.27,4.93-2.91,4.93-5.55-2.29-4-4.93-5.55-5.91-3.5-5.91-7.27,3.14-5.64,5.91-7.28,4.93-2.91,4.93-5.55a1,1,0,1,1,2,0c0,3.78-3.14,5.64-5.91,7.28s-4.93,2.91-4.93,5.55,2.28,4,4.93,5.55,5.91,3.5,5.91,7.27-3.14,5.64-5.91,7.28-4.93,2.91-4.93,5.55,2.28,4,4.93,5.55,5.91,3.5,5.91,7.28-3.14,5.63-5.91,7.27-4.93,2.92-4.93,5.55,2.28,4,4.93,5.56,5.91,3.5,5.91,7.28-3.14,5.64-5.91,7.28-4.93,2.92-4.93,5.55A1,1,0,0,1,106.76,116.5Z"/><path class="cls-2" d="M61.37,97.25a1,1,0,0,1-1-1c0-3.09,2.52-4.58,4.75-5.9s3.77-2.36,3.77-4.18-1.43-2.8-3.77-4.18-4.75-2.82-4.75-5.9,2.52-4.59,4.75-5.9,3.77-2.36,3.77-4.18-1.43-2.79-3.77-4.18-4.75-2.81-4.75-5.9,2.52-4.58,4.75-5.9,3.77-2.36,3.77-4.18-1.43-2.79-3.77-4.17-4.75-2.81-4.75-5.9,2.52-4.59,4.75-5.9,3.77-2.36,3.77-4.18a1,1,0,0,1,2,0c0,3.09-2.53,4.58-4.75,5.9S62.37,34,62.37,35.78s1.42,2.79,3.77,4.17,4.75,2.81,4.75,5.9-2.53,4.58-4.75,5.9-3.77,2.36-3.77,4.18,1.43,2.79,3.77,4.17,4.75,2.81,4.75,5.9-2.53,4.58-4.75,5.9-3.77,2.36-3.77,4.18,1.42,2.79,3.77,4.18,4.75,2.81,4.75,5.9-2.53,4.59-4.75,5.9-3.77,2.36-3.77,4.18a1,1,0,0,1-1,1Z"/><path class="cls-2" d="M85.2,88.13a1,1,0,0,1-1-1c0-2.76,2.23-4.08,4.2-5.25s3.22-2,3.22-3.53S90.4,76,88.4,74.82s-4.2-2.48-4.2-5.25,2.23-4.08,4.2-5.25,3.22-2,3.22-3.52-1.22-2.34-3.22-3.53S84.2,54.79,84.2,52s2.23-4.08,4.2-5.25,3.22-2,3.22-3.52S90.4,40.9,88.4,39.72s-4.2-2.48-4.2-5.25,2.23-4.08,4.2-5.24,3.22-2,3.22-3.53a1,1,0,0,1,2,0c0,2.76-2.23,4.08-4.2,5.25s-3.22,2-3.22,3.52,1.22,2.35,3.22,3.53,4.2,2.48,4.2,5.25-2.23,4.08-4.2,5.24-3.22,2-3.22,3.53,1.22,2.34,3.22,3.53,4.2,2.48,4.2,5.25-2.23,4.08-4.2,5.25-3.22,2-3.22,3.52,1.22,2.35,3.22,3.53,4.2,2.49,4.2,5.25-2.23,4.09-4.2,5.25-3.22,2-3.22,3.53a1,1,0,0,1-1,1Z"/><path class="cls-2" d="M33.49,83.3a1.72,1.72,0,0,1-.8-.2L30,81.69,27.32,83.1A1.75,1.75,0,0,1,25,82.36a1.84,1.84,0,0,1-.17-1.11l.51-3-2.17-2.12a1.74,1.74,0,0,1,0-2.47,1.71,1.71,0,0,1,1-.5l3-.44L28.43,70a1.74,1.74,0,0,1,3.13,0l1.34,2.71,3,.43a1.75,1.75,0,0,1,1,3L34.7,78.28l.51,3a1.76,1.76,0,0,1-1.43,2Zm-3.61-1.67Zm.25,0h0Zm-.14-2a1.71,1.71,0,0,1,.83.21l2.33,1.22-.45-2.6a1.72,1.72,0,0,1,.51-1.55l1.89-1.85-2.62-.38a1.72,1.72,0,0,1-1.31-.94L30,71.39l-1.17,2.37a1.74,1.74,0,0,1-1.33.95l-2.6.38,1.89,1.85a1.75,1.75,0,0,1,.5,1.55l-.44,2.6,2.33-1.23a1.66,1.66,0,0,1,.81-.21Zm2.77-6.93Z"/><path class="cls-2" d="M66.2,116.5a1.72,1.72,0,0,1-.8-.2l-2.69-1.41L60,116.3a1.74,1.74,0,0,1-2.53-1.85l.51-3-2.18-2.12a1.75,1.75,0,0,1,0-2.47,1.82,1.82,0,0,1,1-.51l3-.43,1.34-2.71a1.74,1.74,0,0,1,3.13,0L65.6,106l3,.43a1.75,1.75,0,0,1,1.4,1.18,1.73,1.73,0,0,1-.43,1.79l-2.18,2.13.51,3a1.76,1.76,0,0,1-1.43,2Zm-3.61-1.67Zm.25,0h0Zm-.14-2a1.72,1.72,0,0,1,.83.22l2.33,1.22-.45-2.61a1.72,1.72,0,0,1,.51-1.55l1.89-1.84-2.62-.38a1.75,1.75,0,0,1-1.31-.94l-1.17-2.38L61.54,107a1.74,1.74,0,0,1-1.32,1l-2.62.38,1.9,1.85a1.72,1.72,0,0,1,.5,1.55l-.44,2.6,2.33-1.23A1.66,1.66,0,0,1,62.7,112.85Z"/><path class="cls-2" d="M93.78,106.62a1.72,1.72,0,0,1-.8-.2L90.29,105l-2.68,1.41a1.73,1.73,0,0,1-2.35-.74,1.78,1.78,0,0,1-.18-1.11l.51-3-2.17-2.12a1.74,1.74,0,0,1,0-2.46,1.7,1.7,0,0,1,1-.51l3-.44,1.33-2.71a1.74,1.74,0,0,1,3.13,0l1.34,2.71,3,.44a1.72,1.72,0,0,1,1.4,1.17,1.74,1.74,0,0,1-.42,1.79L95,101.59l.51,3a1.75,1.75,0,0,1-1.43,2A1.43,1.43,0,0,1,93.78,106.62Zm-3.61-1.68h0Zm.25,0h0Zm-.14-2a1.77,1.77,0,0,1,.84.21l2.32,1.22L93,101.8a1.7,1.7,0,0,1,.51-1.55L95.4,98.4,92.78,98a1.72,1.72,0,0,1-1.31-.94L90.29,94.7l-1.17,2.37a1.72,1.72,0,0,1-1.32,1l-2.61.38,1.89,1.85a1.75,1.75,0,0,1,.5,1.55l-.44,2.6,2.33-1.23A1.55,1.55,0,0,1,90.28,103Z"/><path class="cls-2" d="M54.51,44.45a1.89,1.89,0,0,1-.8-.2L51,42.83l-2.68,1.41A1.73,1.73,0,0,1,46,43.5a1.71,1.71,0,0,1-.17-1.11l.51-3L44.15,37.3a1.74,1.74,0,0,1,0-2.46,1.7,1.7,0,0,1,1-.51l3-.44,1.34-2.71a1.7,1.7,0,0,1,1.56-1h0a1.7,1.7,0,0,1,1.56,1l1.34,2.71,3,.44a1.72,1.72,0,0,1,1.4,1.17,1.75,1.75,0,0,1-.43,1.79l-2.18,2.13.51,3a1.74,1.74,0,0,1-1.43,2A2.58,2.58,0,0,1,54.51,44.45ZM50.9,42.77h0Zm.25,0h0Zm-.14-2a1.75,1.75,0,0,1,.84.22l2.32,1.22-.44-2.6a1.67,1.67,0,0,1,.51-1.55l1.89-1.85-2.62-.38a1.75,1.75,0,0,1-1.32-.94L51,32.53,49.86,34.9a1.76,1.76,0,0,1-1.33,1l-2.61.38,1.9,1.85a1.77,1.77,0,0,1,.5,1.55l-.44,2.6L50.2,41a1.66,1.66,0,0,1,.81-.21Z"/><path class="cls-2" d="M103.85,58.7a1.72,1.72,0,0,1-.8-.2l-2.69-1.41L97.68,58.5a1.74,1.74,0,0,1-2.35-.74,1.71,1.71,0,0,1-.17-1.11l.5-3-2.17-2.12a1.75,1.75,0,0,1,0-2.47,1.82,1.82,0,0,1,1-.51l3-.43,1.34-2.71a1.74,1.74,0,0,1,3.13,0l1.33,2.71,3,.43a1.75,1.75,0,0,1,1.47,2,1.71,1.71,0,0,1-.5,1l-2.18,2.13.51,3a1.74,1.74,0,0,1-1.43,2ZM100.24,57h0Zm.25,0h0Zm-.14-2a1.78,1.78,0,0,1,.84.22l2.32,1.22-.44-2.6a1.7,1.7,0,0,1,.51-1.55l1.89-1.84-2.62-.38a1.74,1.74,0,0,1-1.32-.95l-1.17-2.38L99.2,49.16a1.74,1.74,0,0,1-1.33,1l-2.61.38,1.9,1.85a1.77,1.77,0,0,1,.5,1.55l-.45,2.6,2.34-1.23a1.59,1.59,0,0,1,.8-.21Z"/><path class="cls-2" d="M78.27,40.67a1.58,1.58,0,0,1-.73-.18l-2-1.07-2,1.07a1.58,1.58,0,0,1-2.14-.68,1.6,1.6,0,0,1-.16-1l.39-2.25-1.65-1.61a1.58,1.58,0,0,1,0-2.24,1.64,1.64,0,0,1,.91-.47l2.28-.33,1-2a1.58,1.58,0,0,1,2.85,0l1,2,2.28.33a1.59,1.59,0,0,1,.89,2.7l-1.65,1.62.38,2.26a1.6,1.6,0,0,1-1.31,1.84l-.26,0Zm-3-1.35h0Zm.4,0h0Zm-.21-2a1.54,1.54,0,0,1,.76.2l1.47.78-.28-1.66a1.58,1.58,0,0,1,.47-1.41l1.2-1.17-1.67-.24a1.57,1.57,0,0,1-1.2-.87l-.74-1.51L74.77,33a1.61,1.61,0,0,1-1.21.87l-1.66.24,1.2,1.17a1.62,1.62,0,0,1,.46,1.41l-.28,1.65,1.48-.78A1.6,1.6,0,0,1,75.5,37.36Zm2.23-5.49h0Z"/><path class="cls-2" d="M30.57,56a1.53,1.53,0,0,1-1.11-.46,1.56,1.56,0,0,1-.38-1.6l.72-2.36-.65-2.33a1.63,1.63,0,0,1,1.14-2,1.75,1.75,0,0,1,.85,0l2.33.64,2.37-.72a1.58,1.58,0,0,1,2,1,1.62,1.62,0,0,1,0,.95l-.72,2.36.65,2.34a1.59,1.59,0,0,1-.41,1.55,1.65,1.65,0,0,1-1.57.44l-2.35-.65L31.05,56A1.61,1.61,0,0,1,30.57,56Zm-.12-2Zm.81-4.64.55,2a1,1,0,0,1,0,.56l-.58,1.89,1.88-.58a1,1,0,0,1,.56,0l2,.55-.55-2a1,1,0,0,1,0-.56l.58-1.89-1.89.58a1,1,0,0,1-.56,0Z"/><path class="cls-2" d="M50,71.06A1.56,1.56,0,0,1,48.5,69l.73-2.35-.66-2.34a1.62,1.62,0,0,1,1.14-2,1.54,1.54,0,0,1,.85,0l2.33.64,2.38-.73a1.58,1.58,0,0,1,2,1,1.54,1.54,0,0,1,0,1l-.72,2.35.65,2.34a1.59,1.59,0,0,1-.41,1.55,1.62,1.62,0,0,1-1.56.45l-2.36-.66L50.47,71A1.59,1.59,0,0,1,50,71.06Zm.42-1.47h0Zm.28-5.15.54,2a1,1,0,0,1,0,.57l-.58,1.88,1.88-.58a1,1,0,0,1,.56,0l2,.55-.55-2a1,1,0,0,1,0-.57l.58-1.88L53.2,65a1.18,1.18,0,0,1-.56,0Z"/><path class="cls-2" d="M50,92.7a1.57,1.57,0,0,1-1.11-.46,1.6,1.6,0,0,1-.38-1.6l.73-2.35L48.57,86a1.63,1.63,0,0,1,1.14-2,1.75,1.75,0,0,1,.85,0l2.33.64,2.38-.73a1.58,1.58,0,0,1,2,1,1.54,1.54,0,0,1,0,1l-.72,2.35.65,2.34a1.59,1.59,0,0,1-.41,1.55,1.62,1.62,0,0,1-1.56.45l-2.36-.65-2.36.73A1.59,1.59,0,0,1,50,92.7Zm.42-1.47h0Zm-.53-.51h0Zm.81-4.65.54,2a1,1,0,0,1,0,.56l-.58,1.89,1.88-.58a1,1,0,0,1,.56,0l2,.55-.55-2a1,1,0,0,1,0-.56L55.09,86l-1.89.58a1,1,0,0,1-.56,0Z"/><path class="cls-2" d="M71,80.63a1.53,1.53,0,0,1-1.1-.46,1.58,1.58,0,0,1-.39-1.6l.73-2.36-.65-2.33a1.62,1.62,0,0,1,1.13-2,1.75,1.75,0,0,1,.85,0l2.34.65,2.37-.73a1.57,1.57,0,0,1,2,1,1.54,1.54,0,0,1,0,1l-.73,2.36.65,2.34a1.59,1.59,0,0,1-.4,1.55,1.64,1.64,0,0,1-1.57.45l-2.36-.66-2.36.73A1.51,1.51,0,0,1,71,80.63Zm-.11-2h0ZM71.69,74l.54,2a1,1,0,0,1,0,.56l-.58,1.89,1.87-.58a1,1,0,0,1,.57,0l2,.55-.55-2a1,1,0,0,1,0-.56L76.1,74l-1.89.58a1,1,0,0,1-.56,0Z"/><path class="cls-2" d="M98.34,80.63a1.53,1.53,0,0,1-1.1-.46,1.58,1.58,0,0,1-.39-1.6l.73-2.35-.65-2.34a1.62,1.62,0,0,1,1.13-2,1.75,1.75,0,0,1,.85,0l2.34.65,2.37-.73a1.57,1.57,0,0,1,2,1,1.54,1.54,0,0,1,0,1l-.73,2.36.65,2.34a1.59,1.59,0,0,1-.4,1.55,1.64,1.64,0,0,1-1.57.45l-2.36-.66-2.36.73A1.51,1.51,0,0,1,98.34,80.63Zm-.11-2h0ZM99,74l.54,2a1,1,0,0,1,0,.56L99,78.41l1.88-.58a1,1,0,0,1,.56,0l2,.55-.55-2a1,1,0,0,1,0-.56l.58-1.89-1.89.58a1,1,0,0,1-.56,0Z"/><path class="cls-2" d="M74.66,62.15a1.53,1.53,0,0,1-1.1-.46,1.56,1.56,0,0,1-.38-1.6l.72-2.36-.65-2.33a1.61,1.61,0,0,1,1.14-2,1.5,1.5,0,0,1,.84,0l2.34.64,2.37-.73a1.58,1.58,0,0,1,2,2l-.73,2.35L81.84,60a1.61,1.61,0,0,1-.41,1.55,1.64,1.64,0,0,1-1.57.45l-2.36-.66-2.36.73A1.51,1.51,0,0,1,74.66,62.15Zm.7-6.63.55,2a1.06,1.06,0,0,1,0,.56l-.58,1.89,1.88-.58a1,1,0,0,1,.56,0l2,.55-.55-2a1,1,0,0,1,0-.56l.58-1.89-1.89.58a1,1,0,0,1-.56,0Z"/></g></g></svg>