<svg xmlns="http://www.w3.org/2000/svg" viewBox="0 0 141.2 141.2"><defs><style>.cls-1{fill:none;}.cls-2{}</style></defs><g id="Calque_2" data-name="Calque 2"><g id="Layer_1" data-name="Layer 1"><rect class="cls-1" width="141.2" height="141.2" rx="70.6"/><path class="cls-2" d="M39.28,56.93a48,48,0,0,0-5.58-9.35,48,48,0,0,0-8.13-8.31,1.28,1.28,0,0,1,1.17-2.22h0c.59.18,1.19.38,1.78.59s1.2.43,1.76.65a50.1,50.1,0,0,1,10,5.28,50.36,50.36,0,0,1,8,6.79,37.71,37.71,0,0,1,4.17-1.92c.43-.17.89-.35,1.39-.52s.93-.32,1.39-.46h0a1.26,1.26,0,0,1,1.37.43,1.27,1.27,0,0,1-.2,1.79,36.76,36.76,0,0,0-4.76,4.57q1.64,2.11,3.06,4.4c.9,1.46,1.73,3,2.48,4.51.6-1.64,1.26-3.26,2-4.85.82-1.78,1.73-3.54,2.72-5.26l-.2-.3a44.26,44.26,0,0,0-9.18-10,1.28,1.28,0,0,1,1.17-2.22h0c.56.17,1.11.35,1.66.55s1.12.4,1.63.6a46.83,46.83,0,0,1,9.23,4.86,63.72,63.72,0,0,1,27.72-21c.71-.28,1.46-.56,2.24-.83s1.5-.51,2.25-.74h0a1.27,1.27,0,0,1,1.17,2.21A61.64,61.64,0,0,0,78.48,58.75a46.31,46.31,0,0,1,3.22,5.42,1.28,1.28,0,0,1-2.29,1.16A44,44,0,0,0,59.15,45.4a48.09,48.09,0,0,1,4.68,5.92A47.43,47.43,0,0,1,69.9,64.39a1.28,1.28,0,1,1-2.46.72,44.51,44.51,0,0,0-4-9.55c-.68,1.24-1.32,2.52-1.92,3.82q-1.29,2.82-2.31,5.79a1.29,1.29,0,0,1-1.63.79,1.14,1.14,0,0,1-.31-.16l-.2.11a1.28,1.28,0,0,1-1.69-.63A47.23,47.23,0,0,0,52.53,60c-.78-1.26-1.63-2.5-2.54-3.7l-.29.39A37.43,37.43,0,0,0,45,65.22a1.28,1.28,0,0,1-2.38-.94,39.71,39.71,0,0,1,5-9.11c.69-.94,1.42-1.86,2.2-2.74a36.77,36.77,0,0,0-14.21,13,1.27,1.27,0,0,1-1.76.39,1.29,1.29,0,0,1-.39-1.77,40.31,40.31,0,0,1,5.8-7.13Zm75.9,16.76a1.28,1.28,0,0,1,0-2.56h1.43a1.28,1.28,0,1,1,0,2.56Zm-7,0a1.28,1.28,0,1,1,0-2.56h1.44a1.28,1.28,0,0,1,0,2.56Zm-7,0a1.28,1.28,0,1,1,0-2.56h1.44a1.28,1.28,0,0,1,0,2.56Zm-7,0a1.28,1.28,0,0,1,0-2.56h1.44a1.28,1.28,0,1,1,0,2.56Zm-7,0a1.28,1.28,0,1,1,0-2.56h1.44a1.28,1.28,0,0,1,0,2.56Zm-7,0a1.28,1.28,0,0,1,0-2.56h1.44a1.28,1.28,0,1,1,0,2.56Zm-7,0a1.28,1.28,0,1,1,0-2.56H74.8a1.28,1.28,0,0,1,0,2.56Zm-7,0a1.28,1.28,0,0,1,0-2.56h1.43a1.28,1.28,0,1,1,0,2.56Zm-7,0a1.28,1.28,0,0,1,0-2.56h1.44a1.28,1.28,0,1,1,0,2.56Zm-7,0a1.28,1.28,0,0,1,0-2.56H53.9a1.28,1.28,0,1,1,0,2.56Zm-7,0a1.28,1.28,0,0,1,0-2.56h1.44a1.28,1.28,0,1,1,0,2.56Zm-7,0a1.28,1.28,0,0,1,0-2.56H40a1.28,1.28,0,1,1,0,2.56Zm-7,0a1.28,1.28,0,1,1,0-2.56H33a1.28,1.28,0,1,1,0,2.56Zm-7,0a1.28,1.28,0,1,1,0-2.56H26a1.28,1.28,0,0,1,0,2.56Zm15.75,25a39.26,39.26,0,0,1-.28-9.55,39.89,39.89,0,0,1,2.56-10.83,1.29,1.29,0,0,1,1.66-.73A1.28,1.28,0,0,1,45,79.27c0,.14-.1.28-.16.42A1,1,0,0,1,45,80a50,50,0,0,1,1.16,10.11,49.86,49.86,0,0,1-.62,8.6H59.75a47.3,47.3,0,0,0-1-9.29,48,48,0,0,0-3.34-10.09,1.29,1.29,0,0,1,.63-1.7,1.27,1.27,0,0,1,1.69.64A50.33,50.33,0,0,1,61.21,88.9a50.93,50.93,0,0,1,1.1,9.82h6.27a44,44,0,0,0-1.14-19.56,1.28,1.28,0,0,1,2.46-.71A47.14,47.14,0,0,1,71.69,89.3a46.66,46.66,0,0,1-.51,9.42h13a44.4,44.4,0,0,0-4.78-19.34,1.28,1.28,0,1,1,2.29-1.15,47.39,47.39,0,0,1,3.84,10.61,46.44,46.44,0,0,1,1.2,9.88h7.81a51.08,51.08,0,0,1-.62-8.88,50.57,50.57,0,0,1,1.25-10.23c0-.11-.09-.22-.13-.34a1.28,1.28,0,1,1,2.38-.93,39.67,39.67,0,0,1,2.28,20.38h10.53a37,37,0,0,0-1.41-9.39,37.54,37.54,0,0,0-4.41-9.84,1.27,1.27,0,0,1,2.15-1.37,39.83,39.83,0,0,1,6.23,20.6h3.81a1.28,1.28,0,1,1,0,2.56h-92a1.28,1.28,0,1,1,0-2.56h2.66a39.59,39.59,0,0,1,1.51-10.09,40,40,0,0,1,4.72-10.51,1.27,1.27,0,0,1,2.15,1.37,37.87,37.87,0,0,0-4.41,9.84,37.48,37.48,0,0,0-1.41,9.39Zm2.9-13.54a39.77,39.77,0,0,0-.64,4.22,36.89,36.89,0,0,0,.32,9.25,48,48,0,0,0,.65-8.5,45.91,45.91,0,0,0-.33-5Zm53.57,0c-.18,1.56-.29,3.12-.32,4.7a47.34,47.34,0,0,0,.64,8.77,36.89,36.89,0,0,0,.32-9.25A37.36,37.36,0,0,0,96.81,85.18Zm8.42,29.68a1.28,1.28,0,0,1,1.61-.82,1.26,1.26,0,0,1,.82,1.6,3.13,3.13,0,0,1-.24.6,5.88,5.88,0,0,1-.32.56,1.28,1.28,0,0,1-2.11-1.46,1.18,1.18,0,0,0,.14-.23,2.6,2.6,0,0,0,.1-.25Zm-39.53-4a1.28,1.28,0,0,1,1.61-.83,1.29,1.29,0,0,1,.83,1.61,6.07,6.07,0,0,1-.24.59,3.76,3.76,0,0,1-.33.56,1.28,1.28,0,1,1-2.1-1.46,1.86,1.86,0,0,0,.13-.23,1.22,1.22,0,0,0,.1-.24Zm20.81-2a1.29,1.29,0,0,1-1.56-2,1.26,1.26,0,0,1,.42-.27,4.23,4.23,0,0,1,3.19-.23,4.29,4.29,0,0,1,2.49,2,1.63,1.63,0,0,1,.09.19,4.32,4.32,0,0,1-1.9,5.74,4.37,4.37,0,0,1-2.62.43,4.31,4.31,0,0,1-2.38-1.18A1.28,1.28,0,1,1,86,111.73a1.79,1.79,0,0,0,1,.48,1.77,1.77,0,0,0,1.08-.18,1.73,1.73,0,0,0,.87-1,1.77,1.77,0,0,0-.11-1.35h0a1.76,1.76,0,0,0-1-.87,1.73,1.73,0,0,0-1.28.09Zm-56.66,5.62a1.29,1.29,0,0,1,.83-1.61,1.26,1.26,0,0,1,1.6.83,2.44,2.44,0,0,0,.1.24,2,2,0,0,0,.14.23,1.28,1.28,0,1,1-2.1,1.46,3.76,3.76,0,0,1-.33-.56,5.19,5.19,0,0,1-.24-.59ZM49,112.58a1.28,1.28,0,0,1,2.51.35,1.11,1.11,0,0,1-.08.44,4.31,4.31,0,0,1-5.34,2.78l-.13,0a4.33,4.33,0,0,1-2.76-5.4h0a4.34,4.34,0,0,1,1.54-2.16,4.29,4.29,0,0,1,2.52-.85,1.28,1.28,0,0,1,0,2.55,1.74,1.74,0,0,0-1.65,1.24,1.75,1.75,0,0,0,1.15,2.21,1.73,1.73,0,0,0,1.34-.12,1.76,1.76,0,0,0,.86-1ZM46,51.67a47.28,47.28,0,0,0-13.79-9.76A49.08,49.08,0,0,1,35.73,46a50.57,50.57,0,0,1,5.53,9.1l.46-.39A41,41,0,0,1,46,51.67Zm30.55,4.46A64.29,64.29,0,0,1,92.91,28.67,61.1,61.1,0,0,0,68.29,48c1.09.83,2.13,1.7,3.13,2.61a45.92,45.92,0,0,1,5.13,5.5Zm22.24-1a50,50,0,0,1,9-13.22,46.81,46.81,0,0,0-6.63,3.78,47.7,47.7,0,0,0-7.16,6,41,41,0,0,1,4.28,3.07Zm-7-4.77a49.72,49.72,0,0,1,8-6.78,50.65,50.65,0,0,1,10-5.29c.56-.22,1.15-.44,1.76-.65s1.19-.41,1.78-.59h0a1.28,1.28,0,0,1,1.17,2.22,47.28,47.28,0,0,0-8.12,8.31,48,48,0,0,0-5.59,9.35,39.87,39.87,0,0,1,5.8,7.13,1.28,1.28,0,1,1-2.15,1.38,36.77,36.77,0,0,0-14.21-13c.78.88,1.51,1.8,2.21,2.74a40.05,40.05,0,0,1,5,9.11,1.28,1.28,0,1,1-2.38.94,37,37,0,0,0-4.7-8.54l-.29-.39Q88.7,58.09,87.51,60a48.7,48.7,0,0,0-2.83,5.28,1.28,1.28,0,0,1-2.32-1.06,51.18,51.18,0,0,1,3-5.56,50.25,50.25,0,0,1,3.07-4.41,36.84,36.84,0,0,0-4.77-4.57,1.27,1.27,0,0,1-.2-1.79,1.26,1.26,0,0,1,1.37-.43h0l1.41.46,1.38.52a39.48,39.48,0,0,1,4.17,1.92Z"/></g></g></svg>