<svg xmlns="http://www.w3.org/2000/svg" viewBox="0 0 141.2 141.2"><defs><style>.cls-1{fill:none;}.cls-2{}</style></defs><g id="Calque_2" data-name="Calque 2"><g id="Layer_1" data-name="Layer 1"><rect class="cls-1" width="141.2" height="141.2" rx="70.6"/><path class="cls-2" d="M117.29,52l-1.2.06s-58.54-8.45-60.91-8.85c-3.2-.55-6.49.94-8.83,4-1.56,2-19.73,22-19.73,22a11.68,11.68,0,0,0-1.83,1.05c-1.35,1.3-2.27,2.73-2.11,6.25.24,5.08,2.66,8.51,7.11,9.45,6.1,1.28,64.53,11,70.55,12,3.2.5,6.1,0,8.44-2.11,1.6-1.44,3-5.19,3-7.93,0-2.39,1.52-2.15,1.52-2.15s4.68-26.37,5-29.37C118.52,54.86,119,52.87,117.29,52ZM48.8,48.38a7,7,0,0,1,7-2.66c2.34.35,47.64,6.6,56.47,7.91L29.94,69C33.54,65.06,47.24,50.31,48.8,48.38Zm52.73,47.86C93.3,95.09,37.6,85.48,31.12,84.31a7.69,7.69,0,0,1-5.94-4.6,14.56,14.56,0,0,0,7,3.2c11.08,1.93,58.87,10.47,69,11.82a16.33,16.33,0,0,0,6.51-.36S106,96.85,101.53,96.24Zm-.17-3C93.13,92.2,38.3,82.67,31.82,81.51c-4.63-.84-6.09-3.29-6.09-3.29a38.56,38.56,0,0,0,7.19,1.88C44,82,90.83,90.41,100.94,91.76c3.75.51,7.34.74,7.34.74S106.66,94,101.36,93.26ZM27.92,77.6a47.25,47.25,0,0,1,6.83.46c11.18,1.76,56.49,9.46,66.09,11a14.59,14.59,0,0,1,5.62,1.87,27.69,27.69,0,0,1-5.38-.51C92.76,89.1,39.76,80.09,33.26,79A24.09,24.09,0,0,1,27.92,77.6Zm74.27,10.57c-10.61-2-58.91-10.31-69-11.66a74.36,74.36,0,0,0-7.71-.57S28,74.38,32.4,75c8.24,1.14,65.47,10.79,70.85,11.8,6.18,1.17,6.18,4,6.18,4S107.19,89.11,102.19,88.17Zm8,.4s-1.81-2.27-6.81-3.21c-10.6-2-60.26-10.31-70.36-11.67a23.22,23.22,0,0,0-6.83.11s2.19-2.34,6.63-1.73C41,73.22,99,83,104.4,84,110.57,85.17,110.14,88.57,110.14,88.57Zm5.75-30.92c-.51,3.12-3.44,20.21-4.38,25.79,0,0-63.79-11-77.76-13.21l82-15.25A5.54,5.54,0,0,1,115.89,57.65Z"/><path class="cls-2" d="M105.25,72.83c-2.36-.33-4.45.68-4.69,2.28s1.49,3.16,3.85,3.5,4.45-.68,4.68-2.26S107.6,73.17,105.25,72.83Zm-.71,4.92c-1.65-.24-2.86-1.34-2.7-2.45s1.64-1.84,3.27-1.6,2.87,1.33,2.7,2.46S106.19,78,104.54,77.75Z"/></g></g></svg>