<svg xmlns="http://www.w3.org/2000/svg" viewBox="0 0 141.2 141.2"><defs><style>.cls-1{fill:none;}.cls-2{}</style></defs><g id="Calque_2" data-name="Calque 2"><g id="Layer_1" data-name="Layer 1"><rect class="cls-1" width="141.2" height="141.2" rx="70.6"/><path class="cls-2" d="M24.72,115.79a.83.83,0,0,1-1.13-.27.8.8,0,0,1,.27-1.12c.22-.14.43-.28.63-.43a.83.83,0,0,1,1.14.19.81.81,0,0,1-.18,1.14Z"/><path class="cls-2" d="M40,115.79a.83.83,0,0,0,1.13-.27.8.8,0,0,0-.27-1.12c-.22-.14-.43-.28-.63-.43a.83.83,0,0,0-1.14.19.81.81,0,0,0,.18,1.14Z"/><path class="cls-2" d="M50.8,115.79a.82.82,0,0,1-1.12-.27.81.81,0,0,1,.26-1.12l.64-.43a.83.83,0,0,1,1.14.19.82.82,0,0,1-.19,1.14C51.3,115.47,51.05,115.63,50.8,115.79Z"/><path class="cls-2" d="M66.12,115.79a.82.82,0,0,0,1.12-.27A.81.81,0,0,0,67,114.4l-.64-.43a.84.84,0,0,0-1.14.19.82.82,0,0,0,.19,1.14Z"/><path class="cls-2" d="M76.89,115.79a.83.83,0,0,1-1.13-.27A.82.82,0,0,1,76,114.4c.22-.14.43-.28.63-.43a.83.83,0,0,1,1.14.19.81.81,0,0,1-.18,1.14Z"/><path class="cls-2" d="M92.21,115.79a.82.82,0,0,0,1.12-.27.8.8,0,0,0-.27-1.12c-.22-.14-.43-.28-.63-.43a.83.83,0,0,0-1.14.19.82.82,0,0,0,.19,1.14C91.71,115.47,92,115.63,92.21,115.79Z"/><path class="cls-2" d="M103,115.79a.82.82,0,0,1-1.12-.27.8.8,0,0,1,.27-1.12l.63-.43a.83.83,0,0,1,1.14.19.82.82,0,0,1-.19,1.14C103.47,115.47,103.23,115.63,103,115.79Z"/><path class="cls-2" d="M118.29,115.79a.83.83,0,0,0,1.13-.27.82.82,0,0,0-.27-1.12c-.22-.14-.43-.28-.63-.43a.83.83,0,0,0-1.14.19.81.81,0,0,0,.18,1.14Z"/><path class="cls-2" d="M33.09,116.05v1.81a.72.72,0,1,1-1.43,0v-1.81a.72.72,0,0,1,1.43,0Z"/><path class="cls-2" d="M33.09,120.94v1.81a.72.72,0,0,1-1.43,0v-1.81a.72.72,0,1,1,1.43,0Z"/><path class="cls-2" d="M59.18,116.05v1.81a.72.72,0,0,1-.72.72.71.71,0,0,1-.71-.72v-1.81a.71.71,0,0,1,.71-.71A.71.71,0,0,1,59.18,116.05Z"/><path class="cls-2" d="M59.18,120.94v1.81a.71.71,0,0,1-.72.71.71.71,0,0,1-.71-.71v-1.81a.71.71,0,0,1,.71-.72A.72.72,0,0,1,59.18,120.94Z"/><path class="cls-2" d="M85.26,116.05v1.81a.72.72,0,1,1-1.43,0v-1.81a.72.72,0,0,1,1.43,0Z"/><path class="cls-2" d="M85.26,120.94v1.81a.72.72,0,0,1-1.43,0v-1.81a.72.72,0,1,1,1.43,0Z"/><path class="cls-2" d="M111.35,116.05v1.81a.72.72,0,1,1-1.43,0v-1.81a.72.72,0,0,1,1.43,0Z"/><path class="cls-2" d="M58,21.92H83.22a2.09,2.09,0,1,0,0-4.18H58a2.09,2.09,0,0,0,0,4.18Z"/><path class="cls-2" d="M66.41,28.78a.43.43,0,0,0-.6,0l-2.66,2.66a.42.42,0,0,0,.6.6l2.66-2.66A.42.42,0,0,0,66.41,28.78Z"/><path class="cls-2" d="M69.2,29.21,64.9,33.5a.43.43,0,0,0,0,.6.42.42,0,0,0,.6,0l4.3-4.3a.42.42,0,0,0,0-.59A.42.42,0,0,0,69.2,29.21Z"/><path class="cls-2" d="M84.8,52.64V75.47h5L91.27,74a.9.9,0,0,1,1.19,0l1.46,1.45h5V52.64a3.38,3.38,0,0,0-3.39-3.38H88.18A3.39,3.39,0,0,0,84.8,52.64ZM96.6,72.36a.83.83,0,0,1-1.19,0l-3.54-3.46-3.53,3.46a.85.85,0,0,1-1.21,0,.81.81,0,0,1,0-1.18l4.12-4a.9.9,0,0,1,1.19,0l4.12,4A.83.83,0,0,1,96.6,72.36Zm0-6.88a.86.86,0,0,1-1.19,0L91.87,62l-3.53,3.45a.88.88,0,0,1-1.21,0,.85.85,0,0,1,0-1.21l4.12-4a.89.89,0,0,1,1.19,0l4.12,4A.86.86,0,0,1,96.6,65.48ZM92.46,53.36l4.12,4a.84.84,0,0,1-1.17,1.21l-3.54-3.45L88.34,58.6a.86.86,0,0,1-1.21,0,.82.82,0,0,1,0-1.19l4.12-4A.89.89,0,0,1,92.46,53.36Z"/><path class="cls-2" d="M59.62,52.64V66.32H62.9l-1.08-5.13a5.7,5.7,0,0,1,5.61-6.91h6.34a5.73,5.73,0,0,1,5.61,6.91L78.3,66.32h3.26V52.64A6.64,6.64,0,0,1,88.18,46H93.9a3.82,3.82,0,0,0-3.73-3H85.06L82.45,24.08H58.75L55.78,43H51a3.82,3.82,0,0,0-3.73,3H53A6.64,6.64,0,0,1,59.62,52.64ZM60.7,26.21H80.48l1.58,13.38H59.12Z"/><path class="cls-2" d="M48.74,74a.87.87,0,0,1,1.17,0l1.49,1.45h5V52.64A3.38,3.38,0,0,0,53,49.26H45.66a3.38,3.38,0,0,0-3.39,3.38V75.47h5ZM44.6,57.39l4.14-4a.84.84,0,0,1,1.17,0l4.14,4a.82.82,0,0,1,0,1.19.84.84,0,0,1-1.19,0l-3.53-3.45L45.79,58.6a.85.85,0,0,1-1.19-1.21Zm0,6.88,4.14-4a.86.86,0,0,1,1.17,0l4.14,4a.85.85,0,0,1,0,1.21.86.86,0,0,1-1.19,0L49.33,62l-3.54,3.45a.85.85,0,0,1-1.19-1.21Zm0,8.09a.83.83,0,0,1,0-1.18l4.14-4a.85.85,0,0,1,1.17,0l4.14,4a.81.81,0,0,1,0,1.18.83.83,0,0,1-1.19,0l-3.53-3.46-3.54,3.46A.83.83,0,0,1,44.6,72.36Z"/><path class="cls-2" d="M29.27,102a.8.8,0,0,0-.62,1,10.66,10.66,0,0,1,.21,1.36.82.82,0,0,0,.89.74.81.81,0,0,0,.74-.89,12.2,12.2,0,0,0-.25-1.57A.81.81,0,0,0,29.27,102Z"/><path class="cls-2" d="M29.7,106.45a.81.81,0,0,0-.94.67,10.44,10.44,0,0,1-.32,1.34.82.82,0,0,0,.54,1,.83.83,0,0,0,1-.54,13.91,13.91,0,0,0,.36-1.55A.8.8,0,0,0,29.7,106.45Z"/><path class="cls-2" d="M28.44,110.69a.82.82,0,0,0-1.13.27,10.87,10.87,0,0,1-.8,1.12.82.82,0,1,0,1.27,1,13.1,13.1,0,0,0,.92-1.29A.82.82,0,0,0,28.44,110.69Z"/><path class="cls-2" d="M37.44,111a.82.82,0,1,0-1.39.86,13.1,13.1,0,0,0,.92,1.29.82.82,0,1,0,1.27-1A10.87,10.87,0,0,1,37.44,111Z"/><path class="cls-2" d="M36.31,108.46a10.44,10.44,0,0,1-.32-1.34.82.82,0,0,0-1.61.27,12,12,0,0,0,.37,1.55.82.82,0,0,0,1.56-.48Z"/><path class="cls-2" d="M35,105.11a.82.82,0,0,0,.89-.74A10.66,10.66,0,0,1,36.1,103a.82.82,0,0,0-1.59-.36,12.2,12.2,0,0,0-.25,1.57A.81.81,0,0,0,35,105.11Z"/><path class="cls-2" d="M54.52,110.69a.8.8,0,0,0-1.12.27,10.87,10.87,0,0,1-.8,1.12.81.81,0,1,0,1.26,1,11.71,11.71,0,0,0,.93-1.29A.83.83,0,0,0,54.52,110.69Z"/><path class="cls-2" d="M55.79,106.45a.81.81,0,0,0-.94.67,10.44,10.44,0,0,1-.32,1.34.82.82,0,0,0,1.56.48,12,12,0,0,0,.37-1.55A.82.82,0,0,0,55.79,106.45Z"/><path class="cls-2" d="M55.35,102a.8.8,0,0,0-.61,1,10.66,10.66,0,0,1,.21,1.36.82.82,0,1,0,1.63-.15,12.2,12.2,0,0,0-.25-1.57A.82.82,0,0,0,55.35,102Z"/><path class="cls-2" d="M63.53,111a.82.82,0,1,0-1.39.86,10.45,10.45,0,0,0,.92,1.29.82.82,0,1,0,1.27-1A9.54,9.54,0,0,1,63.53,111Z"/><path class="cls-2" d="M62.39,108.46a10.4,10.4,0,0,1-.31-1.34.82.82,0,0,0-1.62.27,12,12,0,0,0,.37,1.55.82.82,0,0,0,1.56-.48Z"/><path class="cls-2" d="M62,104.37a9.17,9.17,0,0,1,.22-1.36.82.82,0,0,0-1.6-.36,12.2,12.2,0,0,0-.25,1.57.8.8,0,0,0,.39.77A.81.81,0,0,0,62,104.37Z"/><path class="cls-2" d="M81.87,106.45a.81.81,0,0,0-.94.67,10.4,10.4,0,0,1-.31,1.34.82.82,0,1,0,1.56.48,12,12,0,0,0,.36-1.55A.8.8,0,0,0,81.87,106.45Z"/><path class="cls-2" d="M81.44,102a.8.8,0,0,0-.62,1,12.83,12.83,0,0,1,.22,1.36.81.81,0,1,0,1.62-.15,12.16,12.16,0,0,0-.24-1.57A.82.82,0,0,0,81.44,102Z"/><path class="cls-2" d="M80.61,110.69a.82.82,0,0,0-1.13.27,10.87,10.87,0,0,1-.8,1.12.82.82,0,0,0,1.27,1,11.62,11.62,0,0,0,.92-1.29A.82.82,0,0,0,80.61,110.69Z"/><path class="cls-2" d="M88.48,108.46a10.44,10.44,0,0,1-.32-1.34.82.82,0,0,0-1.61.27,12,12,0,0,0,.37,1.55.79.79,0,0,0,.35.45.81.81,0,0,0,1.21-.93Z"/><path class="cls-2" d="M87.17,105.11a.82.82,0,0,0,.89-.74,10.66,10.66,0,0,1,.21-1.36.81.81,0,0,0-.61-1,.82.82,0,0,0-1,.61,12.2,12.2,0,0,0-.25,1.57A.81.81,0,0,0,87.17,105.11Z"/><path class="cls-2" d="M89.61,111a.81.81,0,0,0-1.12-.27.82.82,0,0,0-.27,1.13,13.1,13.1,0,0,0,.92,1.29.82.82,0,1,0,1.27-1A10.87,10.87,0,0,1,89.61,111Z"/><path class="cls-2" d="M108,106.45a.81.81,0,0,0-.94.67,10.44,10.44,0,0,1-.32,1.34.82.82,0,1,0,1.56.48,12,12,0,0,0,.37-1.55A.82.82,0,0,0,108,106.45Z"/><path class="cls-2" d="M107.52,102a.81.81,0,0,0-.61,1,10.66,10.66,0,0,1,.21,1.36.82.82,0,1,0,1.63-.15,12.2,12.2,0,0,0-.25-1.57A.82.82,0,0,0,107.52,102Z"/><path class="cls-2" d="M106.69,110.69a.8.8,0,0,0-1.12.27,10.87,10.87,0,0,1-.8,1.12.82.82,0,1,0,1.27,1,13.1,13.1,0,0,0,.92-1.29A.82.82,0,0,0,106.69,110.69Z"/><path class="cls-2" d="M115.7,111a.82.82,0,1,0-1.39.86,11.62,11.62,0,0,0,.92,1.29.82.82,0,1,0,1.27-1A10.87,10.87,0,0,1,115.7,111Z"/><path class="cls-2" d="M113.25,105.11a.82.82,0,0,0,.89-.74,10.69,10.69,0,0,1,.22-1.36.8.8,0,0,0-.62-1,.82.82,0,0,0-1,.61,14.23,14.23,0,0,0-.25,1.57A.82.82,0,0,0,113.25,105.11Z"/><path class="cls-2" d="M114.56,108.46a10.4,10.4,0,0,1-.31-1.34.81.81,0,0,0-.94-.67.8.8,0,0,0-.67.94,12,12,0,0,0,.36,1.55.82.82,0,0,0,1,.54A.81.81,0,0,0,114.56,108.46Z"/><path class="cls-2" d="M73.45,78.71v-5l2.76-13.16a2.49,2.49,0,0,0-2.44-3H67.43a2.47,2.47,0,0,0-2.44,3l2.76,13.16h0v5H20.33v5.22h10v6.49a2,2,0,0,0,.43,1.17.81.81,0,0,0-.28.62v.39a.86.86,0,0,0,.84.84.86.86,0,0,0-.84.87v.38a.86.86,0,0,0,.84.85.86.86,0,0,0-.84.86v.39a.85.85,0,0,0,.84.84h2a.83.83,0,0,0,.84-.84V96.4a.84.84,0,0,0-.84-.86.84.84,0,0,0,.84-.85v-.38a.85.85,0,0,0-.84-.87.84.84,0,0,0,.84-.84v-.39a.83.83,0,0,0-.26-.62,2,2,0,0,0,.41-1.17V83.93H56.45v6.49a2,2,0,0,0,.43,1.17.81.81,0,0,0-.28.62v.39a.86.86,0,0,0,.84.84.86.86,0,0,0-.84.87v.38a.86.86,0,0,0,.84.85.86.86,0,0,0-.84.86v.39a.85.85,0,0,0,.84.84h2a.83.83,0,0,0,.84-.84V96.4a.84.84,0,0,0-.84-.86.85.85,0,0,0,.84-.85v-.38a.85.85,0,0,0-.84-.87.85.85,0,0,0,.84-.84v-.39a.79.79,0,0,0-.26-.62,2,2,0,0,0,.41-1.17V83.93H82.53v6.49A2,2,0,0,0,83,91.59a.81.81,0,0,0-.28.62v.39a.86.86,0,0,0,.87.84.87.87,0,0,0-.87.87v.38a.87.87,0,0,0,.87.85.86.86,0,0,0-.87.86v.39a.85.85,0,0,0,.87.84h2a.83.83,0,0,0,.84-.84V96.4a.84.84,0,0,0-.84-.86.84.84,0,0,0,.84-.85v-.38a.85.85,0,0,0-.84-.87.84.84,0,0,0,.84-.84v-.39a.76.76,0,0,0-.26-.62,2.05,2.05,0,0,0,.44-1.17V83.93h22.05v6.49a2,2,0,0,0,.43,1.17.78.78,0,0,0-.28.62v.39a.86.86,0,0,0,.86.84.87.87,0,0,0-.86.87v.38a.86.86,0,0,0,.86.85.86.86,0,0,0-.86.86v.39a.85.85,0,0,0,.86.84h2a.83.83,0,0,0,.84-.84V96.4a.84.84,0,0,0-.84-.86.85.85,0,0,0,.84-.85v-.38a.85.85,0,0,0-.84-.87.85.85,0,0,0,.84-.84v-.39a.79.79,0,0,0-.26-.62,2,2,0,0,0,.43-1.17V83.93h8.22V78.71Z"/><path class="cls-2" d="M32.38,110.45a.72.72,0,0,0-.72.72V113a.72.72,0,0,0,1.43,0v-1.81A.71.71,0,0,0,32.38,110.45Z"/><path class="cls-2" d="M58.46,110.45a.71.71,0,0,0-.71.72V113a.71.71,0,0,0,.71.71.71.71,0,0,0,.72-.71v-1.81A.72.72,0,0,0,58.46,110.45Z"/><path class="cls-2" d="M84.55,110.45a.72.72,0,0,0-.72.72V113a.72.72,0,0,0,1.43,0v-1.81A.71.71,0,0,0,84.55,110.45Z"/><path class="cls-2" d="M110.63,110.45a.71.71,0,0,0-.71.72V113a.72.72,0,0,0,1.43,0v-1.81A.72.72,0,0,0,110.63,110.45Z"/><path class="cls-2" d="M111.35,120.94v1.81a.72.72,0,0,1-1.43,0v-1.81a.72.72,0,1,1,1.43,0Z"/></g></g></svg>