<svg xmlns="http://www.w3.org/2000/svg" viewBox="0 0 141.2 141.2"><defs><style>.cls-1,.cls-7{fill:none;}.cls-2{fill:#90838a;}.cls-3{fill:#0080c8;}.cls-4{fill:#3eb397;}.cls-5{fill:#e94c64;}.cls-6{fill:#d4e1dc;}.cls-7{stroke:#90838a;stroke-miterlimit:10;}</style></defs><g id="Calque_2" data-name="Calque 2"><g id="Layer_1" data-name="Layer 1"><rect class="cls-1" width="141.2" height="141.2" rx="70.6"/><path class="cls-2" d="M56.8,80.1v1.84h-.87V77.21h1.15a1.47,1.47,0,0,1,1.07.35,1.39,1.39,0,0,1,.35,1,1.35,1.35,0,0,1-.6,1.26l.91,2.07h-1l-.74-1.84Zm0-.76H57a.53.53,0,0,0,.45-.18.83.83,0,0,0,.13-.52.81.81,0,0,0-.14-.52A.61.61,0,0,0,57,78H56.8Z"/><path class="cls-2" d="M61.5,81.94H59.37V77.21H61.5V78H60.25V79.1h1.16v.76H60.25v1.31H61.5ZM60,76.83v-.08a5.07,5.07,0,0,0,.3-.49c.12-.21.2-.38.25-.49h1v.07a2.94,2.94,0,0,1-.38.45c-.21.2-.41.39-.6.54Z"/><path class="cls-2" d="M65.32,79.53a2.87,2.87,0,0,1-.47,1.79,1.64,1.64,0,0,1-1.37.62H62.32V77.21h1.26a1.52,1.52,0,0,1,1.29.61A2.85,2.85,0,0,1,65.32,79.53Zm-.9,0c0-1-.29-1.58-.87-1.58H63.2v3.2h.28a.77.77,0,0,0,.71-.4A2.47,2.47,0,0,0,64.42,79.55Z"/><path class="cls-2" d="M69.05,77.21v3.06a2,2,0,0,1-.38,1.29,1.38,1.38,0,0,1-1.1.44,1.35,1.35,0,0,1-1.08-.44,2,2,0,0,1-.36-1.3V77.21H67v3.11q0,.9.6.9A.48.48,0,0,0,68,81a1.18,1.18,0,0,0,.15-.65V77.21Z"/><path class="cls-2" d="M70.16,81.94V77.21H71v4.73Z"/><path class="cls-2" d="M73,80.1v1.84h-.88V77.21h1.15a1.47,1.47,0,0,1,1.07.35,1.39,1.39,0,0,1,.35,1,1.35,1.35,0,0,1-.6,1.26L75,81.94h-1l-.74-1.84Zm0-.76h.22a.53.53,0,0,0,.45-.18.83.83,0,0,0,.13-.52.75.75,0,0,0-.14-.52.61.61,0,0,0-.45-.15H73Z"/><path class="cls-2" d="M77.69,81.94H75.56V77.21h2.13V78H76.44V79.1H77.6v.76H76.44v1.31h1.25Z"/><path class="cls-2" d="M82.41,81.94H80.28V77.21h2.13V78H81.16V79.1h1.16v.76H81.16v1.31h1.25Z"/><path class="cls-2" d="M84.68,81.94H83.8V78h-.9v-.77h2.68V78h-.9Z"/><path class="cls-2" d="M90.23,81.94,90,80.74H88.72l-.27,1.2h-.88l1.17-4.75h1.19l1.18,4.75Zm-.44-2-.25-1.09c0-.07-.05-.24-.1-.51a5.18,5.18,0,0,1-.1-.53c0,.18-.06.38-.11.61s-.15.73-.33,1.52Z"/><path class="cls-2" d="M93.35,81.94l-.9-4h0a6.79,6.79,0,0,1,.06.86v3.17h-.81V77.21H93l.81,3.72h0l.8-3.72H96v4.73h-.83V78.73a7.65,7.65,0,0,1,0-.81h0l-.9,4Z"/><path class="cls-2" d="M99.11,81.94H97V77.21h2.13V78H97.86V79.1H99v.76H97.86v1.31h1.25Zm-1.46-5.11v-.08a4.86,4.86,0,0,0,.31-.49c.11-.21.2-.38.25-.49h1v.07a2.94,2.94,0,0,1-.38.45,7.12,7.12,0,0,1-.6.54Z"/><path class="cls-2" d="M99.93,81.94V77.21h.88v4H102v.77Z"/><path class="cls-2" d="M102.88,81.94V77.21h.83v4.73Z"/><path class="cls-2" d="M108.09,79.57a3.07,3.07,0,0,1-.44,1.8,1.57,1.57,0,0,1-2.51,0,3.92,3.92,0,0,1,0-3.61,1.45,1.45,0,0,1,1.26-.62,1.44,1.44,0,0,1,1.26.63A3.13,3.13,0,0,1,108.09,79.57Zm-2.49,0a2.86,2.86,0,0,0,.2,1.23.64.64,0,0,0,.6.42c.53,0,.79-.55.79-1.65s-.26-1.66-.79-1.66a.65.65,0,0,0-.6.42A2.94,2.94,0,0,0,105.6,79.57Z"/><path class="cls-2" d="M109.79,80.1v1.84h-.88V77.21h1.16a1.47,1.47,0,0,1,1.07.35,1.43,1.43,0,0,1,.35,1,1.35,1.35,0,0,1-.6,1.26l.9,2.07h-.94l-.74-1.84Zm0-.76H110a.53.53,0,0,0,.45-.18.83.83,0,0,0,.13-.52.81.81,0,0,0-.14-.52A.61.61,0,0,0,110,78h-.22Z"/><path class="cls-2" d="M114.49,81.94h-2.13V77.21h2.13V78h-1.25V79.1h1.16v.76h-1.16v1.31h1.25Z"/><path class="cls-2" d="M116.19,80.1v1.84h-.88V77.21h1.15a1.48,1.48,0,0,1,1.08.35,1.43,1.43,0,0,1,.34,1,1.35,1.35,0,0,1-.6,1.26l.91,2.07h-.94l-.75-1.84Zm0-.76h.22a.53.53,0,0,0,.45-.18.83.83,0,0,0,.14-.52.75.75,0,0,0-.15-.52.57.57,0,0,0-.44-.15h-.22Z"/><path class="cls-2" d="M55.93,88.19V83.46h.87v4H58v.77Z"/><path class="cls-2" d="M59.37,83.46l0,.07a8.94,8.94,0,0,1-.57,1.55h-.65c.14-.55.24-1.09.32-1.62Z"/><path class="cls-2" d="M62.94,83.46v3.06a1.91,1.91,0,0,1-.39,1.29,1.35,1.35,0,0,1-1.1.44,1.29,1.29,0,0,1-1.07-.44,2,2,0,0,1-.37-1.3V83.46h.87v3.11q0,.9.6.9a.48.48,0,0,0,.43-.22,1.24,1.24,0,0,0,.15-.66V83.46Z"/><path class="cls-2" d="M65.33,88.19h-.87v-4h-.91v-.78h2.69v.78h-.91Z"/><path class="cls-2" d="M67,88.19V83.46h.83v4.73Z"/><path class="cls-2" d="M69,88.19V83.46h.88v4h1.22v.77Z"/><path class="cls-2" d="M71.94,88.19V83.46h.83v4.73Z"/><path class="cls-2" d="M76.06,86.89a1.42,1.42,0,0,1-.34,1,1.23,1.23,0,0,1-1,.35A2.12,2.12,0,0,1,73.71,88v-.87a1.8,1.8,0,0,0,1,.35.51.51,0,0,0,.38-.14.56.56,0,0,0,.13-.38.64.64,0,0,0-.16-.43,2.09,2.09,0,0,0-.5-.44,2.39,2.39,0,0,1-.46-.4,1.64,1.64,0,0,1-.24-.43,1.57,1.57,0,0,1-.09-.56,1.37,1.37,0,0,1,.34-1A1.19,1.19,0,0,1,75,83.4a2,2,0,0,1,1,.3l-.29.7a3.18,3.18,0,0,0-.32-.16,1.16,1.16,0,0,0-.37-.07.39.39,0,0,0-.32.14.59.59,0,0,0-.12.39.68.68,0,0,0,.14.41,1.92,1.92,0,0,0,.48.41,1.83,1.83,0,0,1,.64.63A1.51,1.51,0,0,1,76.06,86.89Z"/><path class="cls-2" d="M79,88.19,78.74,87H77.5l-.27,1.19h-.88l1.17-4.75h1.2l1.17,4.75Zm-.44-2-.25-1.1c0-.07,0-.24-.1-.5s-.09-.45-.1-.54c0,.18-.06.39-.11.61s-.15.73-.33,1.53Z"/><path class="cls-2" d="M81.66,88.19h-.87v-4h-.91v-.78h2.69v.78h-.91Z"/><path class="cls-2" d="M83.36,88.19V83.46h.83v4.73Z"/><path class="cls-2" d="M88.57,85.82a3.07,3.07,0,0,1-.44,1.8,1.57,1.57,0,0,1-2.51,0,3.92,3.92,0,0,1,0-3.61,1.45,1.45,0,0,1,1.26-.62,1.44,1.44,0,0,1,1.26.63A3.15,3.15,0,0,1,88.57,85.82Zm-2.49,0a2.86,2.86,0,0,0,.2,1.23.63.63,0,0,0,.6.42c.53,0,.79-.55.79-1.65s-.26-1.66-.79-1.66a.65.65,0,0,0-.6.43A2.86,2.86,0,0,0,86.08,85.82Z"/><path class="cls-2" d="M92.7,88.19H91.63l-1.46-3.42h0a4.44,4.44,0,0,1,.08.84v2.58H89.4V83.46h1.07l1.45,3.39h0A4.7,4.7,0,0,1,91.9,86V83.46h.8Z"/><path class="cls-2" d="M98.45,85.78A2.87,2.87,0,0,1,98,87.57a1.64,1.64,0,0,1-1.37.62H95.44V83.46H96.7a1.55,1.55,0,0,1,1.29.61A2.85,2.85,0,0,1,98.45,85.78Zm-.91,0q0-1.59-.87-1.59h-.35v3.2h.28a.75.75,0,0,0,.71-.4A2.43,2.43,0,0,0,97.54,85.81Z"/><path class="cls-2" d="M101.4,88.19H99.27V83.46h2.13v.76h-1.25v1.13h1.16v.76h-1.16v1.31h1.25Z"/><path class="cls-2" d="M104.37,86.89a1.41,1.41,0,0,1-.33,1,1.27,1.27,0,0,1-1,.35,2.14,2.14,0,0,1-1-.24v-.87a1.83,1.83,0,0,0,1,.35.49.49,0,0,0,.38-.14.52.52,0,0,0,.13-.38.68.68,0,0,0-.15-.43,2.31,2.31,0,0,0-.5-.44,2.12,2.12,0,0,1-.46-.4,1.43,1.43,0,0,1-.25-.43,1.84,1.84,0,0,1-.08-.56,1.33,1.33,0,0,1,.34-1,1.15,1.15,0,0,1,.9-.35,2,2,0,0,1,1,.3l-.29.7-.33-.16a1,1,0,0,0-.36-.07.42.42,0,0,0-.33.14.58.58,0,0,0-.11.39.67.67,0,0,0,.13.41,1.92,1.92,0,0,0,.48.41,1.87,1.87,0,0,1,.65.63A1.5,1.5,0,0,1,104.37,86.89Z"/><path class="cls-2" d="M109.43,84.92a1.63,1.63,0,0,1-.38,1.15,1.45,1.45,0,0,1-1.1.41h-.22v1.71h-.88V83.46h1.2C109,83.46,109.43,84,109.43,84.92Zm-1.7.79h.17a.62.62,0,0,0,.48-.17,1.13,1.13,0,0,0,0-1.14.52.52,0,0,0-.44-.18h-.22Z"/><path class="cls-2" d="M113.07,88.19h-.87V86.12H111v2.07h-.88V83.46H111v1.88h1.16V83.46h.87Z"/><path class="cls-2" d="M115.18,85.33l.63-1.87h.92l-1.12,2.83v1.9h-.87V86.33l-1.12-2.87h.93Z"/><path class="cls-2" d="M118.73,88.19h-.87v-4H117v-.78h2.69v.78h-.91Z"/><path class="cls-2" d="M123.44,85.82a3.15,3.15,0,0,1-.44,1.8,1.46,1.46,0,0,1-1.26.63,1.44,1.44,0,0,1-1.26-.63,3.92,3.92,0,0,1,0-3.61,1.46,1.46,0,0,1,1.27-.62A1.43,1.43,0,0,1,123,84,3.15,3.15,0,0,1,123.44,85.82Zm-2.5,0a3,3,0,0,0,.2,1.23.65.65,0,0,0,.6.42c.53,0,.79-.55.79-1.65s-.26-1.66-.78-1.66a.67.67,0,0,0-.61.43A3,3,0,0,0,120.94,85.82Z"/><path class="cls-2" d="M126.41,86.89a1.41,1.41,0,0,1-.33,1,1.27,1.27,0,0,1-1,.35,2.14,2.14,0,0,1-1-.24v-.87a1.83,1.83,0,0,0,1,.35.49.49,0,0,0,.38-.14.52.52,0,0,0,.13-.38.68.68,0,0,0-.15-.43,2.31,2.31,0,0,0-.5-.44,2.12,2.12,0,0,1-.46-.4,1.22,1.22,0,0,1-.24-.43,1.57,1.57,0,0,1-.09-.56,1.33,1.33,0,0,1,.34-1,1.15,1.15,0,0,1,.9-.35,2,2,0,0,1,1,.3l-.29.7-.33-.16a1,1,0,0,0-.36-.07.42.42,0,0,0-.33.14.58.58,0,0,0-.11.39.67.67,0,0,0,.13.41,1.92,1.92,0,0,0,.48.41,1.87,1.87,0,0,1,.65.63A1.5,1.5,0,0,1,126.41,86.89Z"/><path class="cls-3" d="M25.74,54.83a2.44,2.44,0,0,0-2.19,1.63A10.39,10.39,0,0,0,22.74,61c0,4,1.06,6,3.16,6a5.7,5.7,0,0,0,2.89-.88v2.88a5.72,5.72,0,0,1-3.26.85A5.12,5.12,0,0,1,21,67.56,11.72,11.72,0,0,1,19.43,61a11.52,11.52,0,0,1,1.63-6.61A5.18,5.18,0,0,1,25.58,52a6.23,6.23,0,0,1,1.83.26,7.26,7.26,0,0,1,1.87.91l-1.07,2.64a10.72,10.72,0,0,0-1.14-.68A3,3,0,0,0,25.74,54.83Z"/><path class="cls-3" d="M43.41,60.93a11.56,11.56,0,0,1-1.62,6.65,5.32,5.32,0,0,1-4.63,2.32,5.32,5.32,0,0,1-4.65-2.32,11.57,11.57,0,0,1-1.62-6.67q0-4.33,1.62-6.63A5.36,5.36,0,0,1,37.18,52a5.27,5.27,0,0,1,4.62,2.32C42.88,55.83,43.41,58.05,43.41,60.93Zm-9.21,0A10.84,10.84,0,0,0,35,65.47,2.38,2.38,0,0,0,37.16,67q2.93,0,2.93-6.1t-2.91-6.1A2.4,2.4,0,0,0,35,56.39,10.77,10.77,0,0,0,34.2,60.93Z"/><path class="cls-4" d="M56,57.61a6,6,0,0,1-1.4,4.25,5.28,5.28,0,0,1-4,1.49h-.81v6.31H46.49V52.25h4.42C54.29,52.25,56,54,56,57.61Zm-6.25,2.93h.62a2.24,2.24,0,0,0,1.77-.66,4.13,4.13,0,0,0,.05-4.17,2,2,0,0,0-1.66-.66h-.78Z"/><path class="cls-4" d="M69.47,69.66H66.23V62H62v7.63H58.71V52.25H62v6.92h4.28V52.25h3.24Z"/><path class="cls-4" d="M77.27,59.12l2.32-6.87H83L78.86,62.68v7h-3.2V62.81L71.54,52.25H75Z"/><path class="cls-4" d="M91,69.66H87.72V55.09H84.39V52.25h9.9v2.84H91Z"/><path class="cls-5" d="M105.34,51.59a2,2,0,0,0,0,3.91,5.43,5.43,0,1,1-5.43,5.42,5.25,5.25,0,0,1,.24-1.57l3,1-3.07-6.34-6.34,3.07,2.74,1A9.14,9.14,0,0,0,96,60.92a9.33,9.33,0,1,0,9.33-9.33Z"/><rect class="cls-6" x="20.25" y="43.13" width="112.91" height="1.61"/><rect class="cls-6" x="131.55" y="43.13" width="1.61" height="54.93"/><rect class="cls-6" x="8.04" y="96.45" width="125.12" height="1.61"/><polygon class="cls-3" points="8.04 69.66 16.84 69.66 16.84 66.84 11.34 66.84 11.34 60.53 16.44 60.53 16.44 57.73 11.34 57.73 11.34 52.23 16.84 52.23 16.84 49.45 8.04 49.45 8.04 69.66"/><path class="cls-3" d="M11,47.23h2.28a34,34,0,0,0,2.51-2.31,12.2,12.2,0,0,0,1.57-1.79h-4c-.22.49-.57,1.16-1,2A17.83,17.83,0,0,1,11,47.22Z"/><path class="cls-2" d="M16.2,82.57a7.77,7.77,0,0,1-1.28,4.8A4.36,4.36,0,0,1,11.24,89H8.13V76.35h3.39A4.06,4.06,0,0,1,15,78,7.5,7.5,0,0,1,16.2,82.57Zm-2.42.07c0-2.84-.78-4.25-2.34-4.25h-.95V87h.77a2,2,0,0,0,1.9-1.08A6.71,6.71,0,0,0,13.78,82.64Z"/><path class="cls-2" d="M23.14,89H17.43V76.35h5.71v2H19.78v3H22.9v2H19.78V87h3.36Z"/><path class="cls-2" d="M31.46,80.25a4.34,4.34,0,0,1-1,3.1,3.86,3.86,0,0,1-3,1.08H26.9V89H24.54V76.35h3.22Q31.47,76.35,31.46,80.25ZM26.9,82.38h.45a1.66,1.66,0,0,0,1.3-.47,2.35,2.35,0,0,0,.42-1.56,2.32,2.32,0,0,0-.39-1.48,1.46,1.46,0,0,0-1.2-.48H26.9Z"/><path class="cls-2" d="M40.44,89H38.08V83.47H35V89H32.61V76.35H35v5h3.11v-5h2.36Z"/><path class="cls-2" d="M45.29,81.35l1.69-5h2.47l-3,7.6V89H44.12V84l-3-7.69h2.49Z"/><line class="cls-7" x1="52.73" y1="76.36" x2="52.73" y2="89.01"/></g></g></svg>