<svg xmlns="http://www.w3.org/2000/svg" viewBox="0 0 141.2 141.2"><defs><style>.cls-1{fill:none;}.cls-2{}</style></defs><g id="Calque_2" data-name="Calque 2"><g id="Layer_1" data-name="Layer 1"><rect class="cls-1" width="141.2" height="141.2" rx="70.6"/><path class="cls-2" d="M37.62,39.89c.78-.26,8.59-2.21,14.7,0,.26,0,3.51.65,4.55,2.34l.13.13c.52.13,3.77.65,5.46,2.47.4.13,4.56,2,7.42,2.08,3.12.26,7.15.65,16.65-.91a50.15,50.15,0,0,1,16.77.13h.13a25.35,25.35,0,0,1,15.87,0c.52,0,7.8.26,9.36,6.64.26.26,2.73,3.51.91,11.57-1.82,8.45-3.12,13.27-1.3,18.86,1.69,4.81.52,5.85.13,6l-.13.13L128.4,91v.13a4.26,4.26,0,0,0,0,4.16c.13.13,0,.26-.26.26a5.09,5.09,0,0,1-3.51-4.68v-.39c0-.13-.13-.26-.26-.13s-.26,0-.26-.13.13-.39.26-.65a1.86,1.86,0,0,0,.13-1.43A3.52,3.52,0,0,1,124,89.7l-.26.26c-.13.13-.26.13-.26-.13a3.32,3.32,0,0,1,.13-1.56v-.13a14.76,14.76,0,0,1,1.69-7.41V76.57c0-.13-.26-.26-.26-.13a34.25,34.25,0,0,0-3.9,10.14c0,.26.13,3.77.91,4.81a2.7,2.7,0,0,1-.26,3.52c-.91.51-3.51,6.37-3.51,9.75a11.07,11.07,0,0,0,0,3.12c.39,1.69.39,3.38,0,3.9s-.39,1.3-1.17,1.56a.13.13,0,0,0-.13.13v1s.13.91-1.17,1a17.29,17.29,0,0,1-5.21,0c-2.08-.39-2.21-.52-1.82-1.43a11,11,0,0,1,1-2,2.67,2.67,0,0,0,0-1.43c-.13-.13.65-1.69,1.3-1.82a4.85,4.85,0,0,0,2.22-3.51c.13-1.69.26-2.73-.13-3.64a2.12,2.12,0,0,0-.39-.78c-.13-.13-.26-.13-.26,0a3.54,3.54,0,0,1-1.57,1.82c-1.69,1-5.07,5.2-5.46,7v.91s.13.52-1.17,1.3l-.13.13v1.43a1.06,1.06,0,0,1-.91,1,31.07,31.07,0,0,1-6,.13,8.88,8.88,0,0,1-1.69-.52c-.13,0-.13-.13-.13-.26a27.67,27.67,0,0,1,2.08-3.25l.26-.39v-.13c0-.26.13-1.17,1.43-1.3h.13c.39-.39,5.07-3.9,5.85-5.85a3.67,3.67,0,0,0-.13-3.9,42.7,42.7,0,0,1-2.73-6.51c-.65-2.47-3.12-3.9-4.42-3.64a22,22,0,0,0-7.81,4.55c-2.21,2.22-3.64,5.21-4,5.47s-.78,1.3-1.82,0A13.88,13.88,0,0,0,80,95.69a30.05,30.05,0,0,0-6.5-.92,17.72,17.72,0,0,0-5.72.52,16.73,16.73,0,0,1-7.16.13c-1.69-.39-3,2.48-3.25,3.13s-1.43,4.29-.39,6.5a2.38,2.38,0,0,1-.91,3.25s-.78.26-.91,1.69c0,.13.13.65-.65.91l-.13.13-.13.91c0,.13-.26,1-.78,1.17a29.08,29.08,0,0,1-4.94.26c-.13,0-.13,0-.26.13a1,1,0,0,1-.78,1c-.78.13-6.5.39-7.81,0s1.43-3.38,1.82-3.77v-.13a2.45,2.45,0,0,1,1.18-2.21l.26-.26V108a3.3,3.3,0,0,1,.78-2.08,4.63,4.63,0,0,0,1-4.29,18.81,18.81,0,0,1-1.43-5.59V96a10,10,0,0,0-3.65-2.47c-2.21-.78-2.73-4.82-2.86-5.21s.65-4.42-.91-6.5l-1.69-2.21s-2.47-3.25-2.08-6.76v-.13c0-.26-.39-1.31-.91-1.31a2.41,2.41,0,0,1-1.69-1.17l-.13-.13a7.92,7.92,0,0,1-2.86-.39A5.33,5.33,0,0,1,24,66.42c-.13-.13-.65-1.17-1.69-1.3a4.94,4.94,0,0,1-2.21-.91h-.13a3.11,3.11,0,0,1-1.17.39c-.52,0-2.08.39-2.74-.13s-.52-.91-.39-1,0-.13-.13-.13c-.39-.13-1.3-.52-1.3-.78s.13-.91.39-.91h-.13s.65-.26.13-1.69c0-.13-.65-3.12,1.7-2.86h.12l.52-.26.13-.13c.13-.52,1.31-4.68,2.09-5.2l.26-.26v-.13c-.13-.39-.65-1.56,0-2.21a.18.18,0,0,0,0-.26l-.78-.13c-.13,0-.13-.13-.13-.26a16.6,16.6,0,0,0,.78-1.57,2.29,2.29,0,0,0-.78.13h-.13a2.46,2.46,0,0,1-2.61.92.13.13,0,0,1-.13-.13v-.26a.13.13,0,0,0-.13-.14,5.3,5.3,0,0,1-1.95-.12c-.52-.27.65-1,.65-1s1.56-.91,1.56-1.43-2.34.78-3.64,2.48-1.17.39-1.17.26a12.18,12.18,0,0,1,9.11-7.42s3.77-.65,4.42-.65h.13c.39-.39,2.73-2.73,7.28-1.17,4.94,1.69,1.56-.26,5.46,2a.4.4,0,0,1,.26-.13ZM35,74.62h-2V73.31h2ZM94.85,85.54c-1.17-.65-2.34-1.43-3.64-2.08l-.52,1.17q1.95,1,3.51,2Zm-6.12-3.12q-1.76-.78-3.9-1.56L84.44,82c1.3.52,2.6.91,3.77,1.43ZM82.36,80l-3.9-1.17-.39,1.3L82,81.25Zm-6.63-1.82c-1.3-.26-2.6-.65-4-.91l-.26,1.3c1.3.26,2.6.52,3.9.91ZM69,76.7c-1.3-.26-2.74-.52-4-.65l-.26,1.3c1.31.26,2.74.39,4,.65Zm-6.64-1c-1.43-.26-2.73-.39-4-.52l-.13,1.3c1.3.13,2.73.39,4,.52Zm-6.89-.91-4-.39-.13,1.3,4,.39Zm-6.76-.65c-1.43-.13-2.73-.26-4-.26l-.13,1.3c1.3.13,2.6.13,4,.26Zm-6.77-.52c-1.56-.13-2.86-.13-4.16-.13v1.3c1.17,0,2.6.13,4,.13ZM98.62,88.4c-.52-.39-1-.91-1.56-1.3l-.78,1a13.82,13.82,0,0,1,1.43,1.17ZM35.15,68.76,34,68.24a31.33,31.33,0,0,1-1.43,3.65l1.17.52a30.39,30.39,0,0,0,1.43-3.65Zm2.08-6.24-1.3-.39c-.39,1.17-.78,2.47-1.17,3.64l1.17.39a23.73,23.73,0,0,0,1.3-3.64Zm1.43-6.37-1.3-.26c-.26,1.17-.39,2.47-.78,3.77l1.3.26C38.14,58.75,38.4,57.45,38.66,56.15Zm.65-6.5H38c0,1.17-.13,2.47-.26,3.77l1.3.13c.13-1.3.13-2.73.26-3.9Zm-.13-2.74a31.58,31.58,0,0,0-.52-3.9l-1.3.26A33,33,0,0,1,37.88,47ZM56.87,70.06l-1.17-.52c-1,2.09-1.82,3.39-1.82,3.39l1.17.65a30.67,30.67,0,0,1,1.82-3.52ZM59.47,64l-1.17-.52c-.52,1.17-.91,2.34-1.43,3.51l1.17.52C58.43,66.42,59,65.25,59.47,64Zm2.08-6.24-1.3-.39A19.73,19.73,0,0,1,59.08,61l1.17.39A23.73,23.73,0,0,0,61.55,57.71Zm1.3-6.37-1.3-.26c-.26,1.3-.39,2.6-.65,3.9l1.3.26C62.46,53.94,62.59,52.51,62.85,51.34Zm.26-5h-1.3a12.73,12.73,0,0,1-.13,2.22l1.3.12a14.07,14.07,0,0,0,.13-2.34Zm7.68,46.43-1-.65L69,93.34l1,.78A3.46,3.46,0,0,1,70.79,92.82Zm2.73-6-1.17-.39c-.52,1.3-.91,2.47-1.43,3.51l1.17.52c.52-1.17.91-2.34,1.43-3.64Zm1.82-6.37L74,80.21A31.91,31.91,0,0,1,73,84l1.3.39a34.15,34.15,0,0,0,1-3.9Zm1.3-6.37-1.3-.26c-.26,1.3-.39,2.6-.65,3.77l1.3.26C76.25,76.7,76.38,75.4,76.64,74.1Zm.91-6.51-1.3-.13c-.13,1.3-.26,2.6-.52,3.91l1.3.12C77.29,70.19,77.42,68.89,77.55,67.59Zm.65-6.5L76.9,61l-.39,3.9,1.3.13Zm.39-6.5h-1.3c0,1.17-.13,2.47-.26,3.9l1.3.13c.13-1.56.26-2.86.26-4ZM78.72,48h-1.3s0,1.43-.13,3.9h1.3C78.72,49.52,78.72,48,78.72,48Zm21.59,39.92-.78-2.73-1.3.26c.26.91.52,2,.78,2.86ZM99,82.68a37.51,37.51,0,0,1-.52-3.77l-1.3.13c.13,1.3.39,2.6.65,3.9Zm-.78-6.37c0-1-.13-2-.13-3v-.91H96.8v.91a25,25,0,0,0,.13,3.12ZM98.62,66l-1.3-.13-.39,3.91,1.3.13Zm1-6.37-1.3-.26-.78,3.9,1.3.26Zm1.69-6.24-1.3-.39c-.39,1.3-.78,2.47-1,3.77l1.3.39C100.57,55.89,101,54.72,101.35,53.42Zm2.21-6-1.17-.52s-.65,1.43-1.43,3.64l1.17.39c.91-2.21,1.43-3.51,1.43-3.51Zm12.62,20.67c-1.31,0-2.61-.13-3.91-.13l-.13,1.3c1.3.13,2.6.13,3.91.13Zm6.5.91-.13-1.3c-1.3.13-2.6.26-3.9.26v1.3a39.37,39.37,0,0,0,4-.26ZM109.8,67.59a32.49,32.49,0,0,1-3.77-.65l-.26,1.3c1.3.26,2.6.52,3.9.65Zm17.69.65-.26-1.3-2.21.39.26,1.3A6.07,6.07,0,0,0,127.49,68.24Zm-24.06-1.95c-2.34-.65-3.64-1.17-3.64-1.17l-.52,1.17a28.35,28.35,0,0,0,3.77,1.3Zm16.26,33.56-.39-1.3a15.21,15.21,0,0,1-3.64.52v1.3a19.31,19.31,0,0,0,4-.52Zm-6.38-1c-.13,0-.13-.13-.26-.13l-.52,1.17c.13,0,.26.13.39.13Zm-4,4.68v-1.3l-3.9.13v1.3ZM58.17,95a4,4,0,0,0-1.3-2.22l-.91.92a3.6,3.6,0,0,1,.91,1.43Zm-3.51-3.91a17.67,17.67,0,0,0-3.51-1.82l-.52,1.17A26.48,26.48,0,0,1,54,92.3Zm-5.85-2.86c-1.17-.52-2.34-.91-3.64-1.43l-.52,1.3c1.3.39,2.47.91,3.64,1.3Zm-6.25-2.21c-2.21-.65-3.77-1.17-3.77-1.17l-.39,1.3s1.56.39,3.77,1.17Z"/></g></g></svg>