<svg xmlns="http://www.w3.org/2000/svg" viewBox="0 0 141.2 141.2"><defs><style>.cls-1{fill:none;}.cls-2{}</style></defs><g id="Calque_2" data-name="Calque 2"><g id="Layer_1" data-name="Layer 1"><rect class="cls-1" width="141.2" height="141.2" rx="70.6"/><path class="cls-2" d="M118.47,35.26A11.32,11.32,0,0,0,108.64,31,11.31,11.31,0,0,0,89.8,31,11.31,11.31,0,0,0,78.05,45.77a11.31,11.31,0,0,0,4.2,18.37A11.27,11.27,0,0,0,93.44,73.9,11.48,11.48,0,0,0,97.9,73v41.86H46.13V64.08a12.54,12.54,0,0,0,17.6-9.8A12.54,12.54,0,0,0,68.4,33.8,12.53,12.53,0,0,0,55.31,17.39a12.53,12.53,0,0,0-21,0A12.53,12.53,0,0,0,21.22,33.8a12.54,12.54,0,0,0,4.67,20.48,12.53,12.53,0,0,0,17.6,9.79v50.78H19a1.33,1.33,0,1,0,0,2.65H122.17a1.33,1.33,0,0,0,0-2.65H100.54V73a11.29,11.29,0,0,0,15.66-8.84,11.31,11.31,0,0,0,4.19-18.37A11.29,11.29,0,0,0,118.47,35.26ZM34,61.57a9.91,9.91,0,0,1-5.59-8.36,1.31,1.31,0,0,0-1-1.19,9.89,9.89,0,0,1-3.85-16.88A1.32,1.32,0,0,0,24,33.65,9.88,9.88,0,0,1,33.13,20a10.07,10.07,0,0,1,1.64.13,1.33,1.33,0,0,0,1.38-.66,9.9,9.9,0,0,1,17.32,0,1.32,1.32,0,0,0,1.37.66,9.9,9.9,0,0,1,10.8,13.54A1.31,1.31,0,0,0,66,35.14,9.89,9.89,0,0,1,62.12,52a1.33,1.33,0,0,0-.95,1.19,9.87,9.87,0,0,1-15,7.86V50.59l9-9a1.33,1.33,0,0,0,0-1.87,1.32,1.32,0,0,0-1.87,0l-7.11,7.1V33.16a1.32,1.32,0,0,0-2.64,0V46.85l-7.11-7.1a1.32,1.32,0,0,0-1.87,1.87l9,9V61.07A9.91,9.91,0,0,1,34,61.57Zm86.62-6.08a8.68,8.68,0,0,1-6.05,6.4,1.31,1.31,0,0,0-.95,1.19A8.64,8.64,0,0,1,100.54,70V60.82l7.95-8A1.32,1.32,0,1,0,106.62,51l-6.08,6.08V45.24a1.32,1.32,0,0,0-2.64,0V57.08L91.82,51A1.32,1.32,0,1,0,90,52.87l8,8V70a8.64,8.64,0,0,1-13.1-6.92,1.33,1.33,0,0,0-1-1.19,8.66,8.66,0,0,1-3.38-14.78,1.31,1.31,0,0,0,.34-1.49,8.66,8.66,0,0,1,8-12,9,9,0,0,1,1.45.12,1.32,1.32,0,0,0,1.37-.66,8.66,8.66,0,0,1,15.16,0,1.32,1.32,0,0,0,1.38.66,8.66,8.66,0,0,1,9.45,11.86,1.34,1.34,0,0,0,.34,1.49A8.67,8.67,0,0,1,120.65,55.49Z"/><path class="cls-2" d="M60.1,101.38l1.3,2.43L58.82,114.9h-2.5l1.74-13.52ZM33.15,104.9l2.45,10h2.5l-1.29-10h2.28v2.24a.77.77,0,0,0,.77.76.76.76,0,0,0,.76-.76v-2.24h2v2.24a.77.77,0,0,0,1.54,0v-2.27l3-3.66-10.6-2.3-3.44,4.45ZM66.37,76.83H28.08a4,4,0,0,0-4,4v19h2v-19a2,2,0,0,1,2-2v9.08l1,7-1,6,1,14h2.51v-12l4.34-5.66,12.19,2.66H61.21l2.63,5,1.06,10h2.5v-15l14.28,15h2.08a1.66,1.66,0,0,0,1.67-1.67v-9.6l2.76-2.75-6.26,0L70.81,79.52A5,5,0,0,0,66.37,76.83Z"/></g></g></svg>