<svg xmlns="http://www.w3.org/2000/svg" viewBox="0 0 141.2 141.2"><defs><style>.cls-1{fill:none;}.cls-2{}</style></defs><g id="Calque_2" data-name="Calque 2"><g id="Layer_1" data-name="Layer 1"><rect class="cls-1" width="141.2" height="141.2" rx="70.6"/><path class="cls-2" d="M121.48,77.28c-.72-.12-3.1-2.12-4.12-3a22,22,0,0,0-1.76-1.39,14.76,14.76,0,0,1-1.32-4h0a17,17,0,0,0,3.06-7.49,1.22,1.22,0,0,0-.36-1,1.24,1.24,0,0,0-1-.33,16.26,16.26,0,0,0-5.85,2.44,1.24,1.24,0,0,0-.65-.56c-1.09-.38-26.95-9.4-43.18-10.22l-2.85-.14c-5.07-.27-10.33-.55-15.52-.43s-11.68.26-16.24,4a14.86,14.86,0,0,0-3.05,3.5c-.35-.09-.71-.18-1.09-.3l.12-.22.09-.17c.48-.88,1.59-2.94-.32-4.54a3.5,3.5,0,0,0-3.46-.93A3.85,3.85,0,0,0,21.6,55.4,3.05,3.05,0,0,0,22,57.76a5.17,5.17,0,0,0,1.65,1.52,5.06,5.06,0,0,1-.47.37,2.73,2.73,0,0,1-2.77.18,1.22,1.22,0,1,0-1,2.2,5.48,5.48,0,0,0,2.32.52,5,5,0,0,0,2.91-.92A8.4,8.4,0,0,0,26,60.38c.48.18.94.32,1.34.43A24.4,24.4,0,0,0,25.1,71c0,2.35.47,9.88,5.45,12.47-.21,1.61-.6,4.77-.6,5.75a11.15,11.15,0,0,0,.81,3.64,11.59,11.59,0,0,1,.65,2.41,34.52,34.52,0,0,0,1.44,7.55,1.24,1.24,0,0,0,1.16.82,1.07,1.07,0,0,0,.39-.07,1.21,1.21,0,0,0,.76-1.54,31.58,31.58,0,0,1-1.33-7,13.67,13.67,0,0,0-.77-2.94,9.13,9.13,0,0,1-.68-2.84c0-.83.42-4.24.7-6.33a1.21,1.21,0,0,0-.79-1.31C27.93,80,27.55,73.11,27.54,71c0-4.5,1.72-10.81,5.65-14s9.92-3.34,14.75-3.45c5.09-.11,10.3.17,15.34.43l2.85.15C81,54.87,105,63,108.25,64.08a8.93,8.93,0,0,0-2,3.51,1.22,1.22,0,0,0,2.34.69c.91-3.07,3.94-4.62,5.94-5.33-.58,2.09-1.87,5.28-4.42,6a1.22,1.22,0,0,0,.36,2.39,1.12,1.12,0,0,0,.35-.06,6.36,6.36,0,0,0,1.4-.63c.62,2.4,1.33,3.85,2.12,4.29.2.11.91.71,1.47,1.18a24.77,24.77,0,0,0,4.35,3.19,4.64,4.64,0,0,1-.6,2.11,9.55,9.55,0,0,1-1.76.24,12.43,12.43,0,0,0-2.53.38c-.27.07-.51.15-.75.23-1.17.37-2.27.72-8.14.72-4.58,0-5.55-.6-7.31-1.68L98.46,81a1.22,1.22,0,0,0-1.25,2.09l.24.15a24.82,24.82,0,0,1-3.09.39c.53-1.09,1.07-2.18,1.63-3.25a1.22,1.22,0,1,0-2.15-1.14C93.19,80.47,92.57,81.71,92,83a23.89,23.89,0,0,0-2,6.24c-.1.54-.23,1.08-.35,1.63a13.7,13.7,0,0,0-.51,5.36,11.23,11.23,0,0,0,2.19,4.94H90.14a1.22,1.22,0,0,0,0,2.44h3.94a1.17,1.17,0,0,0,.49-.11l.1-.06a1.7,1.7,0,0,0,.3-.23s0,0,0,0,0-.1.09-.16a2,2,0,0,0,.11-.2,1.31,1.31,0,0,0,.06-.27c0-.06,0-.1,0-.16s0,0,0,0a1,1,0,0,0-.06-.29.85.85,0,0,0,0-.17,1.13,1.13,0,0,0-.12-.18,1.49,1.49,0,0,0-.15-.2s0,0,0,0a10.05,10.05,0,0,1-3.36-5.66A11.63,11.63,0,0,1,92,91.38c.14-.59.27-1.17.38-1.75A23.23,23.23,0,0,1,93.34,86c.22,0,.44,0,.69,0a33.17,33.17,0,0,0,6.56-1,1,1,0,0,0,.29-.13,20,20,0,0,0,5.48.55c6.25,0,7.52-.4,8.87-.83.21-.07.42-.14.66-.2a10.13,10.13,0,0,1,2.07-.3,12.6,12.6,0,0,0,2.17-.3c2.26-.57,2.48-4.22,2.5-5.33A1.19,1.19,0,0,0,121.48,77.28ZM25.57,56.77l-.1.18-.24.42a3.24,3.24,0,0,1-1.15-.94A.53.53,0,0,1,24,56c.16-.71.49-1.12.73-1.2l.12,0a1.81,1.81,0,0,1,1,.51C26.09,55.47,26.19,55.62,25.57,56.77Z"/><path class="cls-2" d="M86.36,97.84c-.52-2.5-2.18-7.65-3.32-9.36-1.58-2.36-2.16-5.65-1.73-9.76a1.22,1.22,0,0,0-2.43-.25,22.4,22.4,0,0,0,.19,6.46c-4.51.78-21.1,3.25-33.48-.43.64-.79,1.28-1.54,1.92-2.24a1.22,1.22,0,1,0-1.79-1.65,64.88,64.88,0,0,0-7.37,10c-2.27,3.69-.93,7.31.57,10.56H37.38a1.22,1.22,0,0,0,0,2.44h3.45a1.21,1.21,0,0,0,1-.56,1.19,1.19,0,0,0,.08-1.17l-.37-.81c-1.51-3.22-2.94-6.25-1.14-9.18Q42.21,89,44,86.54a58.06,58.06,0,0,0,17.61,2.39,107.12,107.12,0,0,0,18.12-1.64A12.59,12.59,0,0,0,81,89.83a38.1,38.1,0,0,1,3,8.5,24.69,24.69,0,0,0,1.61,4.85,1.22,1.22,0,0,0,1.63.57,1.22,1.22,0,0,0,.57-1.62A22.34,22.34,0,0,1,86.36,97.84Z"/><circle class="cls-2" cx="110.37" cy="73.9" r="1.4"/></g></g></svg>