<svg xmlns="http://www.w3.org/2000/svg" viewBox="0 0 141.2 141.2"><defs><style>.cls-1{fill:none;}.cls-2{}</style></defs><g id="Calque_2" data-name="Calque 2"><g id="Layer_1" data-name="Layer 1"><rect class="cls-1" width="141.2" height="141.2" rx="70.6"/><path class="cls-2" d="M14.35,86.12c-.8.61-2.47.61-5,0l-1.6-.39.15,1.65C8.3,91.29,13,95.3,18.1,96a11.69,11.69,0,0,0,1.56.11,8.87,8.87,0,0,0,8.57-6h0c1.45-3.78,1.45-7.86,1.45-11.4,0-5.63,0-10.19,5.08-12.48A32.2,32.2,0,0,0,35,73.52c.22,3.55-.08,12.63-3.85,15.42l-.4.3-.07.49a30.54,30.54,0,0,0-.24,4.1c-.15,4.48-.37,10.62-2.72,13.64l-1,1.27,1.51.56c.76.29,1.94,2.4,2.58,4.2l.21.81h10l-.25-1.39c-.12-.61-1.1-5.6-3.8-7.2.23-3,1.67-14.23,10.61-17.45A19.8,19.8,0,0,1,50.11,97v.4l8.25,9.44-.75,7.45H70.26l-.5-1.55c-.48-1.59-4.71-14.34-8.85-18.26a33.83,33.83,0,0,0,3.23-10.94,19.5,19.5,0,0,0,7.59,1.38A39.71,39.71,0,0,0,82.4,83.26h0c0,5.2-1.56,16.69-2.83,24.34l-.15.81.69.41c1.79,1.09,3.69,2.9,3.69,3.68l-.1,1.26h8.68l-.13-1.3c0-.2-.53-4.83-4.32-6.53-.59-2,.46-9.34,8.09-25.84,3.79.71,9,.23,12.89-.12,1.2-.11,2.3-.25,3.06-.25a14.21,14.21,0,0,1-1.54,8.82h0c-.34.47-.69.74-.93.74l-1.44-.07.22,1.43c.1.6-.08.79-.14.86a2.56,2.56,0,0,1-1.67.46l-1.34-.07.12,1.33a14.82,14.82,0,0,0,2.67,6.92h0l.49.7.81-.25c5.84-1.8,12.35-8.06,10.13-27.66l-.07-.62L119,72c-4.53-4.08-14.51-5.5-18-5.89a35,35,0,0,0-.12-10.9,24.92,24.92,0,0,1,0-9.35s.05-.14.52-.14a4.59,4.59,0,0,1,3.54,3.92,8.09,8.09,0,0,0,2.58,5.95,5.32,5.32,0,0,0,4.34,1h0c2.5-.4,4.6-.73,5.52-2.26a3.64,3.64,0,0,0,.12-3.09,82,82,0,0,1-1.82-13.13,18.94,18.94,0,0,0-.77-4.79h0c-.7-2.78-1.19-4.62,1.45-7.9L117.44,24l-1.7-.5c-4.26-1.23-6.75.42-7.88,1.9-3.66-1.46-16.24-5.46-25.22,4.36C72.46,40.89,71.11,40.92,68.36,39.35L65.63,37.8l1,3a16.32,16.32,0,0,1,.53,2.3c.63,3.29,1.61,8.32,6.89,9.58a23.1,23.1,0,0,1-6.91,1H66.1c-14.88-.54-26.17-.27-29.88,6.63-5.61-1.55-15.55-1.6-18.93,8a36.57,36.57,0,0,0-1.76,12h0c-.12,2.85-.17,5.12-1.18,5.89Zm70-54.75C89.55,25.7,96,25.19,100.8,25.89a13,13,0,0,0-9.31,6.48c-.51,1-1.1,2.14-1.69,3.32-2.54,5.22-5.54,11.2-11.1,14.78-7.52,1-8.44-3.69-9.24-7.83v-.26c3.36.78,6.57-1.88,14.91-11Zm24.3,46.25a55.81,55.81,0,0,1-11.63.2,47,47,0,0,0,3.43-9.49c3.08.37,12.37,1.55,16.6,5.08,1.47,13.57-1.2,22-7.78,24.64a13,13,0,0,1-1.55-3.85,3.91,3.91,0,0,0,2.11-1.11,3,3,0,0,0,.79-1.76,4.11,4.11,0,0,0,1.73-1.52c2-2.84,2.76-8.91,1.51-11.79l-.28-.66h-.72a34.86,34.86,0,0,0-4.21.26ZM52.47,96.47c-.12-2.06-1-10.54-7.53-14.17-6.1-3.35-8.54-6.46-7.8-17C37.72,56.49,47,55.28,66,56c16.07.6,21.78-10.87,25.94-19.24.57-1.15,1.11-2.24,1.65-3.24,3.93-7.27,14.43-5.43,14.54-5.43l1,.17.34-.94c.09-.24,1-2.15,3.91-1.9-2.09,3.37-1.45,5.84-.79,8.42a17.42,17.42,0,0,1,.71,4.24,84,84,0,0,0,1.9,13.68h0v.13c.1.32.27.89.1,1.18-.35.62-2.18.92-3.8,1.18a3.1,3.1,0,0,1-2.52-.52,6,6,0,0,1-1.69-4.28,6.93,6.93,0,0,0-5.69-6.08,2.63,2.63,0,0,0-3,1.87,26.58,26.58,0,0,0-.11,10.25h0c.68,5.37,1.4,10.91-3.62,21.52-3.59,7.6-11.66,25.75-8.81,30.47l.23.36.4.14a5.16,5.16,0,0,1,3,3.45H85.91c-.65-1.75-2.67-3.33-3.92-4.16.73-4.47,3.63-22.93,2.45-26.87a38,38,0,0,1-1.37-6.69l-2.36.19a39,39,0,0,0,1.42,7h0c-2.94.89-12,3.24-17.93.11A8.91,8.91,0,0,0,63,76.48l-2,1.28c2.5,3.91-1.2,14.39-2.66,16.33l-.8,1,1.18.67c2.51,1.5,6.18,10.11,8.26,16.13H60.21l.59-5.89-8.35-9.56ZM33,90.47c2.9-2.51,3.94-7.44,4.3-11.41a18.77,18.77,0,0,0,6.55,5.35,9.76,9.76,0,0,1,2.35,1.84h0c-11.36,4.65-11.5,20-11.5,20.17v1l.88.22c1.09.26,2.08,2.36,2.63,4.32H32.74a12.46,12.46,0,0,0-2.46-4h0c2.18-3.75,2.38-9.61,2.52-14,0-1.32.08-2.5.17-3.4Zm-14.6,3.19a10.63,10.63,0,0,1-7.66-4.92h0c2.29.39,3.82.08,5-.79,1.91-1.47,2-4.17,2.05-7.71A34.54,34.54,0,0,1,19.4,69c3.12-8.91,12.51-7.38,15.82-6.55-.1.32-.17.66-.24,1-7.72,2.73-7.72,9-7.72,15.16,0,3.54,0,7.24-1.29,10.61a6.62,6.62,0,0,1-7.6,4.45h0Z"/><path class="cls-2" d="M107.53,37a1.29,1.29,0,1,1,1.28,1.28A1.28,1.28,0,0,1,107.53,37"/></g></g></svg>