<svg xmlns="http://www.w3.org/2000/svg" viewBox="0 0 141.2 141.2"><defs><style>.cls-1{fill:none;}.cls-2{}</style></defs><g id="Calque_2" data-name="Calque 2"><g id="Layer_1" data-name="Layer 1"><rect class="cls-1" width="141.2" height="141.2" rx="70.6"/><path class="cls-2" d="M77.41,82.93c2.77,6.56,3.94,19.07,4,19.2l1.92,17.74a.82.82,0,0,0,.82.74h.54l.87,1.47A4.15,4.15,0,0,0,88.84,124h4a1.19,1.19,0,0,0,.92-.42,1.44,1.44,0,0,0,.24-1.25,9.58,9.58,0,0,0-1-3,11.37,11.37,0,0,0-2.55-1.79,5.2,5.2,0,0,1-.78-2.42v-9.77a26.75,26.75,0,0,1,1-6.35h0c2.17-7.07,4.79-18.57,4.81-18.69a.83.83,0,1,0-1.61-.37c0,.12-2.63,11.57-4.78,18.57A28.41,28.41,0,0,0,88,105.32v9.77a6.58,6.58,0,0,0,1.21,3.55.75.75,0,0,0,.25.22,14,14,0,0,1,2.21,1.45,8.5,8.5,0,0,1,.61,2H88.85a2.57,2.57,0,0,1-1.9-1.06h0l-1.12-1.88a.84.84,0,0,0-.71-.41h-.27L83,102c0-.51-1.2-12.88-4.07-19.67a.83.83,0,1,0-1.53.64Z"/><path class="cls-2" d="M30.41,88.36a10.21,10.21,0,0,1-2.35,5,4.7,4.7,0,0,0-1.41,3.32l1.73,22.81a.83.83,0,0,0,.65.75h0l1.47.31.87,1.53A3.92,3.92,0,0,0,34.56,124h3.78a1.14,1.14,0,0,0,.89-.41,1.41,1.41,0,0,0,.25-1.24,9.58,9.58,0,0,0-.93-3h0a8.71,8.71,0,0,0-3.3-1.73,30.9,30.9,0,0,1-.9-4.58h0c-.15-3.35-.37-12.52.47-15.57,2.28-.9,12.85-6,14.38-24.11a.83.83,0,1,0-1.65-.14C46,92,34,96,33.9,96a.85.85,0,0,0-.53.5h0c-1.28,3.47-.69,16.11-.66,16.65.19,1.45.69,4.75,1.29,5.58a.76.76,0,0,0,.38.28,15.21,15.21,0,0,1,2.87,1.32,9.9,9.9,0,0,1,.55,1.93H34.56a2.35,2.35,0,0,1-1.75-1l-1.05-1.86a.83.83,0,0,0-.55-.4L30,118.75,28.3,96.55a3.12,3.12,0,0,1,.95-2A11.89,11.89,0,0,0,32,88.7a8.07,8.07,0,0,0-.37-3.65,43.26,43.26,0,0,1-1.84-13.71,18.71,18.71,0,0,1,2.33-7.61.83.83,0,0,0-.13-1,28.49,28.49,0,0,1-7.25-11.45,29.25,29.25,0,0,0,8.67,9.48.84.84,0,0,0,1.07-.1c7.9-8,23.51-5.42,23.67-5.4,7.43,1.68,22.75.08,23.4,0C88.43,54,96.26,40.63,97.24,38.91a8.93,8.93,0,0,0,1.14-.16.83.83,0,0,0,.64-1,.84.84,0,0,0-1-.64,11.54,11.54,0,0,1-3.16.13h0c-7.11-1.16-10.28-4.18-11.56-5.94,5.49.38,15.53-1.39,16.29-1.81a.84.84,0,0,0,.43-.62.83.83,0,0,0-.25-.7,30.4,30.4,0,0,0-16.57-8.45c9.54-.53,17.57,4.55,21.94,8.08a.81.81,0,0,0,.45.18,6.34,6.34,0,0,1,3.75,1.52c3,3.47,10.84,10.79,13.17,13a1.38,1.38,0,0,1,.34.78v3.47l-.28-.1a.83.83,0,0,0-.56,1.56l.84.3v.23a1.42,1.42,0,0,1-.27.8,2.61,2.61,0,0,1-3.06.13,1,1,0,0,0-.23-.08,19.42,19.42,0,0,0-4.57-.36c-.88,0-1.75.18-2.59.3a17.21,17.21,0,0,1-3.51.29h0c-2.14-.11-5.91-.76-7.13-3.77a.83.83,0,1,0-1.53.62c1.14,2.84,3.87,4,6.25,4.51a65.05,65.05,0,0,0-3.56,8.8A50.16,50.16,0,0,0,101,68.78c-.69,5.35-1.41,10.82-4.48,14.58-.21.86-.45,1.89-.73,3,5.11-4.07,6-11.08,6.85-17.38a48.52,48.52,0,0,1,1.6-8.54,63.09,63.09,0,0,1,3.64-9,2.09,2.09,0,0,1,.66-.07,19,19,0,0,0,3.84-.3h0a23.79,23.79,0,0,1,2.44-.29,17.94,17.94,0,0,1,4.07.32,4.18,4.18,0,0,0,2.44.56,4.23,4.23,0,0,0,2.33-.95,2.87,2.87,0,0,0,.85-2.07V43.25a3,3,0,0,0-.87-2h0c-2.3-2.14-10.07-9.41-13.07-12.85a7.76,7.76,0,0,0-4.58-2c-5.64-4.51-16.83-11.23-29.71-7-.91.3-.72,1.86.31,1.78a27.82,27.82,0,0,1,20.93,7.18c-3.34.64-12,1.93-15.57,1.13a.83.83,0,0,0-1,1.08h0c.1.27,2.28,6.12,12.56,8.15l.09,0c.52.1,1.06.19,1.62.28-2,3.37-8.6,13.64-13.92,14.62-.1,0-15.63,1.63-22.84,0-.7-.12-16-2.62-24.66,5.36A27.56,27.56,0,0,1,23.68,44.55c-.29-1-1.82-.58-1.76.37a28.43,28.43,0,0,0,8.49,18.54,20.65,20.65,0,0,0-2.24,7.76,43.93,43.93,0,0,0,1.92,14.36,6.4,6.4,0,0,1,.32,2.78Z"/><path class="cls-2" d="M103.26,34.09A.83.83,0,0,0,104,35h0l.92.08a.67.67,0,0,0-.06.15.82.82,0,0,0,1.5.61l.49.5A.83.83,0,0,0,108,35.16l-.81-.83a3.34,3.34,0,0,0-1.93-.9l-1.15-.1a.83.83,0,0,0-.89.76Z"/><path class="cls-2" d="M38.4,97.44c.42,2.93.61,5,.62,5.1l1.85,17.4a.82.82,0,0,0,.82.74h.5L43,122.1A4,4,0,0,0,46.25,124h3.84a1.15,1.15,0,0,0,.9-.42,1.43,1.43,0,0,0,.25-1.23,9.77,9.77,0,0,0-1-2.93,11.26,11.26,0,0,0-2.46-1.76,5.07,5.07,0,0,1-.74-2.36v-9.57a26.22,26.22,0,0,1,1-6.23c.77-2.58,2.18-8,3.09-11.65a15.54,15.54,0,0,0-1.65-.22h0c-.91,3.61-2.27,8.88-3,11.39a28.65,28.65,0,0,0-1.07,6.71v9.57a6.56,6.56,0,0,0,1.17,3.48.92.92,0,0,0,.25.23A13,13,0,0,1,49,120.37a8.11,8.11,0,0,1,.58,1.93h-3.3a2.44,2.44,0,0,1-1.8-1h0l-1.07-1.84a.84.84,0,0,0-.71-.41h-.23l-1.77-16.64c0-.22-.25-2.72-.74-6-.54.41-1,.76-1.53,1.07Z"/><path class="cls-2" d="M47.86,85.94a19.44,19.44,0,0,1,6.43.87h0l.27.07C59,88,63.48,89.2,68.11,89.2a23.93,23.93,0,0,0,5-.5h0c.75-.16,1.54-.38,2.3-.59.6-.18,1.22-.35,1.83-.49-.15-.55-.3-1.08-.46-1.6-.63.15-1.24.33-1.83.49-.76.22-1.48.43-2.18.57-6,1.26-12-.3-17.78-1.8l-.28-.07a23.23,23.23,0,0,0-6.15-1h0c-.22.59-.45,1.15-.69,1.7Z"/><path class="cls-2" d="M71.38,100.26s-.26-4.2-1.08-9.5c-.56,0-1.12.07-1.67.08.84,5.3,1.1,9.49,1.1,9.54l1.76,19.2a.84.84,0,0,0,.83.76h.41l.79,1.57a3.82,3.82,0,0,0,3.14,2h3.66a1.15,1.15,0,0,0,.86-.4,1.52,1.52,0,0,0,.27-1.3,11.68,11.68,0,0,0-.88-3.17,10.94,10.94,0,0,0-2.34-1.94,6.41,6.41,0,0,1-.73-2.71V103.87a33.06,33.06,0,0,1,1-6.93h0c.12-.47.24-1,.37-1.48-.2-1.3-.45-2.69-.73-4.08-.45,2-.87,3.69-1.24,5.14a35.08,35.08,0,0,0-1,7.35v10.56a8,8,0,0,0,1.09,3.75.69.69,0,0,0,.24.24,12.15,12.15,0,0,1,2,1.56,10.42,10.42,0,0,1,.6,2.32H76.66A2.22,2.22,0,0,1,75,121.17h0l-1-2a.82.82,0,0,0-.74-.46h-.17l-1.69-18.42Z"/></g></g></svg>