<svg xmlns="http://www.w3.org/2000/svg" viewBox="0 0 141.2 141.2"><defs><style>.cls-1{}.cls-2{fill:none;}</style></defs><g id="Calque_2" data-name="Calque 2"><g id="Layer_1" data-name="Layer 1"><path class="cls-1" d="M128,72.49c-.76-.13-3.26-2.23-4.32-3.12a19.13,19.13,0,0,0-1.85-1.46,15.94,15.94,0,0,1-1.38-4.21h0a17.9,17.9,0,0,0,3.22-7.85,1.29,1.29,0,0,0-.38-1.09,1.24,1.24,0,0,0-1.1-.34A16.73,16.73,0,0,0,116.05,57a1.19,1.19,0,0,0-.68-.58C114.23,56,87.12,46.51,70.1,45.66l-3-.15c-5.33-.28-10.84-.57-16.28-.45s-12.25.27-17,4.19a15.41,15.41,0,0,0-3.2,3.66c-.36-.09-.74-.19-1.14-.31l.13-.23.09-.18c.5-.92,1.67-3.09-.33-4.76a3.68,3.68,0,0,0-3.63-1,4,4,0,0,0-2.44,3.1A3.15,3.15,0,0,0,23.74,52a5.54,5.54,0,0,0,1.73,1.59A4.52,4.52,0,0,1,25,54a2.88,2.88,0,0,1-2.9.18A1.28,1.28,0,1,0,21,56.5a5.67,5.67,0,0,0,2.43.55,5.22,5.22,0,0,0,3-1,8.83,8.83,0,0,0,1.46-1.31c.5.18,1,.33,1.41.45A25.54,25.54,0,0,0,27,65.94c0,2.46.5,10.35,5.72,13.07-.22,1.69-.64,5-.64,6a11.87,11.87,0,0,0,.85,3.81,12.17,12.17,0,0,1,.69,2.53,35.46,35.46,0,0,0,1.51,7.91,1.3,1.3,0,0,0,1.21.87,1.54,1.54,0,0,0,.42-.07,1.28,1.28,0,0,0,.79-1.62,32.6,32.6,0,0,1-1.39-7.37A14.24,14.24,0,0,0,35.3,88a9.52,9.52,0,0,1-.71-3c0-.87.44-4.45.73-6.64A1.26,1.26,0,0,0,34.49,77c-4.57-1.65-5-8.92-5-11.11,0-4.71,1.81-11.33,5.92-14.7s10.4-3.5,15.47-3.61c5.34-.12,10.8.17,16.08.45l3,.15c15.57.78,40.73,9.26,44.16,10.44A9.32,9.32,0,0,0,112,62.33a1.28,1.28,0,0,0,2.45.72c1-3.21,4.14-4.84,6.23-5.59-.61,2.2-2,5.54-4.63,6.35a1.28,1.28,0,0,0,.37,2.5,1.19,1.19,0,0,0,.37-.06,6.73,6.73,0,0,0,1.47-.66c.65,2.52,1.39,4,2.22,4.5.21.12,1,.74,1.54,1.23a25.3,25.3,0,0,0,4.56,3.35,4.82,4.82,0,0,1-.62,2.21,9.13,9.13,0,0,1-1.85.25,12.36,12.36,0,0,0-2.65.4l-.8.24c-1.22.39-2.37.75-8.52.75-4.81,0-5.82-.62-7.67-1.75l-.62-.38a1.28,1.28,0,1,0-1.31,2.19l.26.16a24.07,24.07,0,0,1-3.25.4c.55-1.14,1.12-2.28,1.72-3.4a1.29,1.29,0,0,0-.54-1.73,1.27,1.27,0,0,0-1.72.54c-.68,1.28-1.34,2.58-2,3.89A25.82,25.82,0,0,0,95,85c-.1.57-.24,1.14-.37,1.72a14.2,14.2,0,0,0-.53,5.61,11.85,11.85,0,0,0,2.3,5.19H95.15a1.28,1.28,0,0,0,0,2.55h4.13a1.26,1.26,0,0,0,.51-.11s.07,0,.11-.07a1.18,1.18,0,0,0,.31-.24l0,0c0-.06.06-.12.09-.17a1,1,0,0,0,.13-.22,1.26,1.26,0,0,0,0-.28,1.24,1.24,0,0,0,0-.16s0,0,0,0a1.07,1.07,0,0,0-.06-.3,1.21,1.21,0,0,0,0-.18,1.22,1.22,0,0,0-.12-.19,1.06,1.06,0,0,0-.16-.21s0,0,0,0a10.58,10.58,0,0,1-3.53-5.94,12.38,12.38,0,0,1,.5-4.63c.14-.61.28-1.22.39-1.83a25.61,25.61,0,0,1,1-3.77c.23,0,.47,0,.72,0a35.19,35.19,0,0,0,6.89-1.07,1.3,1.3,0,0,0,.29-.14,21,21,0,0,0,5.76.58c6.55,0,7.88-.43,9.3-.88l.69-.21a11.12,11.12,0,0,1,2.16-.31,12.28,12.28,0,0,0,2.29-.32c2.36-.59,2.6-4.42,2.61-5.58A1.24,1.24,0,0,0,128,72.49ZM27.44,51l-.1.19c-.08.15-.16.3-.25.44a3.48,3.48,0,0,1-1.21-1,.6.6,0,0,1-.1-.5c.17-.74.51-1.17.76-1.25a.27.27,0,0,1,.13,0,1.94,1.94,0,0,1,1,.53C28,49.62,28.09,49.78,27.44,51Z"/><path class="cls-1" d="M91.19,94c-.55-2.62-2.29-8-3.49-9.81-1.65-2.48-2.26-5.92-1.81-10.23a1.28,1.28,0,0,0-2.55-.27,23.88,23.88,0,0,0,.2,6.78c-4.73.82-22.12,3.41-35.11-.45.68-.83,1.35-1.62,2-2.35A1.28,1.28,0,0,0,48.57,76a68.86,68.86,0,0,0-7.72,10.44c-2.39,3.87-1,7.66.59,11.08H39.82a1.28,1.28,0,0,0,0,2.55h3.62a1.27,1.27,0,0,0,1.16-1.81l-.39-.85C42.63,94,41.13,90.83,43,87.76c1.24-2,2.49-3.87,3.75-5.56a61.09,61.09,0,0,0,18.46,2.5,111.74,111.74,0,0,0,19-1.72,12.51,12.51,0,0,0,1.34,2.66c.9,1.36,2.57,6.34,3.11,8.92a24.44,24.44,0,0,0,1.69,5.08,1.28,1.28,0,0,0,1.15.73,1.28,1.28,0,0,0,1.16-1.83A22.17,22.17,0,0,1,91.19,94Z"/><circle class="cls-1" cx="116.36" cy="68.94" r="1.47"/><rect class="cls-2" width="141.2" height="141.2" rx="70.6"/></g></g></svg>