<svg xmlns="http://www.w3.org/2000/svg" viewBox="0 0 141.2 141.2"><defs><style>.cls-1{fill:none;}.cls-2{}</style></defs><g id="Calque_2" data-name="Calque 2"><g id="Layer_1" data-name="Layer 1"><rect class="cls-1" width="141.2" height="141.2" rx="70.6"/><path class="cls-2" d="M34.72,57.41c-1.36,3-6,13.85-3.95,16.7a3.08,3.08,0,0,0,2.58,1.36,4.93,4.93,0,0,0,2.09-.53A8.49,8.49,0,0,0,37,77.72c-.42.88-1.13,2.82,0,4.34l-1.34,2.68a.73.73,0,0,0-.06.48l3.85,15.51a.71.71,0,0,0,.68.53h.27l-.7,2.32a.72.72,0,0,0,.11.62.72.72,0,0,0,.56.28H47.1a.7.7,0,0,0,.55-.28.66.66,0,0,0,.11-.62l-.69-2.32h0a.67.67,0,0,0,.55-.28.64.64,0,0,0,.11-.61L43.68,86.81l1.52-2.35,5.11,16.31a.71.71,0,0,0,.31.39l-.73,2.42a.72.72,0,0,0,.11.62.72.72,0,0,0,.56.28h6.76a.72.72,0,0,0,.56-.28.72.72,0,0,0,.11-.62l-.71-2.36a.68.68,0,0,0,.44-.89l-5.63-15.9a3.54,3.54,0,0,0,.78-1.11A3.2,3.2,0,0,0,55,82.64a3.13,3.13,0,0,0,2.65,1.65A5.75,5.75,0,0,0,61,82.94a4.94,4.94,0,0,0,3.56,1.37h.09A5.49,5.49,0,0,0,68.3,83a5.38,5.38,0,0,0,3.64,1.33,3.8,3.8,0,0,0,3.48-1.74,7.38,7.38,0,0,0,3.74,0,2.27,2.27,0,0,0,.31-.17l-.78,18.1a.69.69,0,0,0,.19.51.67.67,0,0,0,.5.21h.2l-.69,2.32a.69.69,0,0,0,.11.62.72.72,0,0,0,.56.28h6.75a.72.72,0,0,0,.56-.28.72.72,0,0,0,.11-.62l-.7-2.32h.07a.69.69,0,0,0,.69-.65l1.22-19.44a3.11,3.11,0,0,0,.85.12h.2l2.14,19.37a.67.67,0,0,0,.51.58l-.57,2.39a.7.7,0,0,0,.68.86h5.44a.68.68,0,0,0,.54-.27.69.69,0,0,0,.14-.59l-.58-2.38A.64.64,0,0,0,98,101a.67.67,0,0,0,.18-.52L96.73,79.09a3.17,3.17,0,0,0,.47-3,3,3,0,0,0,2.2-1.48,3.35,3.35,0,0,0-.76-3.78,4.39,4.39,0,0,0,2-2.78,5.59,5.59,0,0,0-.37-3.14,2.41,2.41,0,0,1,0-2.05l1-2a1.59,1.59,0,0,1,.91-.81A3.19,3.19,0,0,0,104,58.72a3.41,3.41,0,0,0-.15-3.18,2,2,0,0,0,1.51-1.27,2.39,2.39,0,0,0,0-1.67,49.2,49.2,0,0,0,7.09.77,4.73,4.73,0,0,0,1.28-.12c3.15-.73,4.27-2.44,4.27-3.8,0-3.86-7.5-14.55-11.94-16A20.23,20.23,0,0,0,99,32.26a.74.74,0,0,1-.22-.1C98,31.53,96.42,30.52,95,31a5,5,0,0,0-2,1.29,3.15,3.15,0,0,0-2.34-1.07,3.47,3.47,0,0,0-2.55,1.22,3.56,3.56,0,0,0-3-.22,4.13,4.13,0,0,0-2.33,2.28A3.67,3.67,0,0,0,79.57,36a4.27,4.27,0,0,0-.44,3.45,3.28,3.28,0,0,0-2.26,1,4.37,4.37,0,0,0-3-.93c-2.17,0-4.22,1.87-5.12,2.82-.93-.77-2.86-2.16-4.57-2.09a4.81,4.81,0,0,0-3.39,1.84,6.23,6.23,0,0,0-3.8-.89,5.2,5.2,0,0,0-3.12,1.47,4.75,4.75,0,0,0-3.19-.88A4.46,4.46,0,0,0,48,42.94a6.52,6.52,0,0,0-3.91-.73,3.91,3.91,0,0,0-2.56,2c-.95-.14-2.87-.21-4,1.15A5.7,5.7,0,0,0,36.5,49.6a5.15,5.15,0,0,0-2.45,3,5.62,5.62,0,0,0,.67,4.85Zm78.61-5.51c-.6.14-2.63.2-9.3-.91-3.13-.53-6.12-1.12-7.34-1.36A2.76,2.76,0,0,0,96,47.76a2.7,2.7,0,0,0-1.8-.74,3.06,3.06,0,0,0-.51-2.21,2.5,2.5,0,0,0-.83-.66c2.43-1.45,4.34-4,5.79-7.65A.69.69,0,1,0,97.33,36c-1.65,4.17-3.89,6.69-6.83,7.71l-.75.23a.55.55,0,0,1-.55-.17.63.63,0,0,1-.14-.63c.8-2.43,2.45-6.87,4.48-9.31a4.76,4.76,0,0,1,1.92-1.51c.67-.23,1.77.38,2.52,1a2.19,2.19,0,0,0,.89.38h.18a18.57,18.57,0,0,1,6.5,1.12c3.89,1.27,11,11.36,11,14.68,0,.79-.83,1.9-3.19,2.45Zm-22.66,29a3,3,0,0,0,1-1.07c.27-.41.39-.57.64-.62a2.21,2.21,0,0,1,.95.29,3.48,3.48,0,0,0,2.15.4l1.37,20h-4Zm-5,19H80.11l.83-19.1a2.29,2.29,0,0,0,.64.08,3.62,3.62,0,0,0,2-.84,6.63,6.63,0,0,0,3.11,1.08h.18Zm-39-15.32a6.52,6.52,0,0,0,3,.82,3.72,3.72,0,0,0,1.22-.2l5.19,14.7H51.48Zm-9.7.59L38.05,83a4.2,4.2,0,0,0,3.68-.07,4.49,4.49,0,0,0,2.25.85l-1.64,2.54a.74.74,0,0,0-.09.58l3.91,13H40.64ZM31.89,73.3c-1.24-1.71,1.75-10.2,4.26-15.68a.68.68,0,0,0-.12-.76A4.16,4.16,0,0,1,35.38,53a3.81,3.81,0,0,1,2.13-2.34.69.69,0,0,0,.43-.82,4.54,4.54,0,0,1,.72-3.6c.75-.93,2.5-.73,3.11-.57a.71.71,0,0,0,.84-.45,2.66,2.66,0,0,1,1.8-1.64,5.69,5.69,0,0,1,3.41.85.7.7,0,0,0,.53.07.68.68,0,0,0,.42-.32,2.77,2.77,0,0,1,2.06-1,3.52,3.52,0,0,1,2.63.93.75.75,0,0,0,.57.21.73.73,0,0,0,.51-.31,3.72,3.72,0,0,1,2.61-1.43,5.27,5.27,0,0,1,3.38,1,.67.67,0,0,0,.55.13.72.72,0,0,0,.47-.31,3.89,3.89,0,0,1,2.68-1.76c1.38,0,3.44,1.57,4.11,2.19a.7.7,0,0,0,.52.19.72.72,0,0,0,.49-.26c.64-.79,2.71-2.84,4.52-2.84a2.73,2.73,0,0,1,2.23.73,4,4,0,0,0,.75,3.81.69.69,0,0,0,.53.24.65.65,0,0,0,.45-.17.69.69,0,0,0,.07-1,2.54,2.54,0,0,1-.4-2.63,2.1,2.1,0,0,1,2.44-1,.68.68,0,0,0,.73-.22.7.7,0,0,0,.09-.75s-.91-1.9-.05-3.16a2.56,2.56,0,0,1,2.48-.88A.69.69,0,0,0,84,35.4a2.89,2.89,0,0,1,1.66-1.88,2.26,2.26,0,0,1,2.19.37.72.72,0,0,0,.58.17.66.66,0,0,0,.49-.33,2.37,2.37,0,0,1,1.79-1.12,1.84,1.84,0,0,1,1.42.73c-1.92,2.52-3.44,6.44-4.41,9.36a2,2,0,0,0,.45,2,2,2,0,0,0,1.91.57l.72-.22a2.62,2.62,0,0,1,1.75.61,2.43,2.43,0,0,1,.09,1.86.69.69,0,0,0,.78.9c.28,0,1.16-.1,1.53.29a1.75,1.75,0,0,1,.31,1.35.33.33,0,0,1,0,.1,1,1,0,0,0,0,.17s0,0,0,0a.66.66,0,0,0,.09.19s0,0,0,0a.65.65,0,0,0,.17.16h0a.56.56,0,0,0,.21.09s3.72.77,7.72,1.44c.26.34.65,1,.47,1.47s-1.23.45-1.24.45a.71.71,0,0,0-.68.32.7.7,0,0,0,0,.75c.49.75,1.05,2.11.69,2.65a1.73,1.73,0,0,1-1,.74,3,3,0,0,0-1.73,1.5l-1,2a3.78,3.78,0,0,0-.1,3.22,4.17,4.17,0,0,1,.29,2.33,3.32,3.32,0,0,1-2,2.25.67.67,0,0,0-.46.56.69.69,0,0,0,.28.66c.08,0,1.83,1.34,1.13,2.75-.42.83-1.91.8-1.92.79a.71.71,0,0,0-.63.33.7.7,0,0,0,0,.71s.92,1.68,0,2.54c-.48.43-.86.32-1.73-.07A3,3,0,0,0,92,77.86a2.3,2.3,0,0,0-1.54,1.24c-.26.41-.41.63-.74.71a2.19,2.19,0,0,1-1,0,3.59,3.59,0,0,0,.19-2.38,8.07,8.07,0,0,0,2.28-1.4c1.11-1,1.23-2.87,1.22-3.74a5.67,5.67,0,0,0,2.53-4.4.69.69,0,1,0-1.38-.16,4.23,4.23,0,0,1-2.18,3.55A.69.69,0,0,0,91,72c0,.58,0,2.38-.75,3a7.23,7.23,0,0,1-2.41,1.35.72.72,0,0,0-.43.37.71.71,0,0,0,0,.57s.64,1.54-.22,2.23c-.59.48-2.3-.31-3.28-1a.7.7,0,0,0-.91.09c-.13.14-1.3,1.34-2.23.48s.25-2.93.26-3a.69.69,0,0,0-.61-1.08h0c-.14,0-.92-.07-1.1-1.33a3.76,3.76,0,0,1,.89-2.86.7.7,0,0,0,.19-.54.71.71,0,0,0-.28-.5,2.86,2.86,0,0,1-1-1.84.7.7,0,1,0-1.37.25,4.64,4.64,0,0,0,1,2.23A5.07,5.07,0,0,0,77.93,74a2.8,2.8,0,0,0,1.49,2.28,3.48,3.48,0,0,0,.13,3.62,1.91,1.91,0,0,1-.91,1.44,7.36,7.36,0,0,1-3.45-.23.69.69,0,0,0-.54.07.75.75,0,0,0-.32.44c0,.13-.43,1.33-2.37,1.32a3.75,3.75,0,0,1-3.08-1.34.62.62,0,0,0-.57-.31.7.7,0,0,0-.58.3,3.85,3.85,0,0,1-3.08,1.35,3.33,3.33,0,0,1-3-1.32.66.66,0,0,0-.5-.32.69.69,0,0,0-.57.18,5.48,5.48,0,0,1-3,1.44h0c-1.29,0-1.82-1.68-1.82-1.69a.7.7,0,0,0-1.28-.14,1.85,1.85,0,0,1-2,.83,1.67,1.67,0,0,1-1.27-1.55,3.3,3.3,0,0,0,.43-2.8,3.27,3.27,0,0,0,2.81-.6c1.4-1.3.79-3.71.72-4a.7.7,0,0,0-.86-.49.69.69,0,0,0-.49.85c.14.51.35,2-.31,2.59s-2.12.2-2.75-.06a.7.7,0,0,0-.79.19.68.68,0,0,0-.08.8s1,1.82.1,2.78-2.43-.19-2.44-.2a.7.7,0,0,0-.75,0,.69.69,0,0,0-.35.67,2.29,2.29,0,0,1-1.38,2.15,2.76,2.76,0,0,1-2.84-.6.71.71,0,0,0-.85-.09c-.08,0-1.92,1.15-3.16-.06s.13-3.44.14-3.47a.69.69,0,0,0-.09-.84,6.44,6.44,0,0,1-1.69-3.31,3.12,3.12,0,0,1,1-2.43.67.67,0,0,0,.24-.54.71.71,0,0,0-.27-.54,3.09,3.09,0,0,1-1.2-2c0-.94,1.22-1.5,1.23-1.5A.7.7,0,0,0,38,66.2V62.63a.7.7,0,1,0-1.39,0v3.16A3.12,3.12,0,0,0,35,68.34a3.93,3.93,0,0,0,1.2,2.59,4.43,4.43,0,0,0-.92,2.54c-1.52.86-2.65.81-3.36-.17Z"/></g></g></svg>