<svg xmlns="http://www.w3.org/2000/svg" viewBox="0 0 141.2 141.2"><defs><style>.cls-1{}.cls-2{fill:none;}</style></defs><g id="Calque_2" data-name="Calque 2"><g id="Layer_1" data-name="Layer 1"><path class="cls-1" d="M123.52,91.62c-1-.75-1-2.94-1.14-5.7a35.53,35.53,0,0,0-1.7-11.58c-3.27-9.28-12.89-9.23-18.32-7.73-3.59-6.67-14.52-6.94-28.9-6.41h-1a22.22,22.22,0,0,1-6.68-1C70.85,58,71.79,53.15,72.4,50a16.76,16.76,0,0,1,.51-2.23l1-2.87-2.64,1.5c-2.66,1.52-4,1.49-13.81-9.29-8.7-9.5-20.87-5.64-24.4-4.22-1.1-1.44-3.5-3-7.63-1.84l-1.65.48,1.08,1.33c2.55,3.17,2.08,5,1.4,7.65a18.57,18.57,0,0,0-.74,4.63,80,80,0,0,1-1.76,12.7,3.52,3.52,0,0,0,.11,3c.89,1.49,2.92,1.8,5.34,2.19a5.13,5.13,0,0,0,4.2-1,7.8,7.8,0,0,0,2.5-5.76,4.44,4.44,0,0,1,3.42-3.78c.46,0,.48.09.5.13a23.75,23.75,0,0,1,0,9.05,34.18,34.18,0,0,0-.11,10.54c-3.42.37-13.08,1.76-17.46,5.7l-.26.34-.06.61c-2.15,19,4.15,25,9.79,26.76l.79.24.48-.68a14.36,14.36,0,0,0,2.58-6.69l.11-1.29-1.29.07a2.55,2.55,0,0,1-1.62-.45c-.05-.07-.22-.25-.13-.83l.21-1.38-1.39.07c-.22,0-.57-.26-.9-.72a13.66,13.66,0,0,1-1.49-8.53c.74,0,1.8.14,3,.24,3.78.34,8.81.8,12.47.11,7.38,16,8.39,23.11,7.82,25-3.66,1.65-4.15,6.13-4.17,6.32L48,118.36h8.4l-.09-1.22c0-.75,1.83-2.5,3.57-3.56l.66-.4-.15-.78c-1.22-7.4-2.74-18.52-2.74-23.55A38.5,38.5,0,0,0,68,90.45a18.63,18.63,0,0,0,7.34-1.34A32.51,32.51,0,0,0,78.48,99.7c-4,3.78-8.1,16.13-8.57,17.67l-.48,1.49H81.67l-.73-7.21,8-9.12v-.39a19.1,19.1,0,0,1,2.39-8.44c8.66,3.11,10.05,14,10.27,16.88-2.62,1.55-3.56,6.38-3.68,7l-.24,1.34h9.68l.2-.78c.62-1.75,1.76-3.79,2.5-4.06l1.46-.55-1-1.22c-2.28-2.93-2.49-8.86-2.63-13.2a30.55,30.55,0,0,0-.23-4l-.07-.48-.39-.28c-3.65-2.71-3.93-11.49-3.73-14.92a30.77,30.77,0,0,0,.28-7.11c4.91,2.23,4.91,6.63,4.91,12.08,0,3.42,0,7.37,1.41,11a8.56,8.56,0,0,0,8.29,5.85,10.8,10.8,0,0,0,1.5-.1c5-.68,9.48-4.56,9.84-8.35l.14-1.6-1.55.38C125.92,92.2,124.3,92.2,123.52,91.62Zm-67.74-53C63.84,47.48,67,50.06,70.21,49.3v.26c-.78,4-1.67,8.53-8.95,7.57-5.38-3.47-8.28-9.25-10.74-14.3-.57-1.14-1.14-2.22-1.63-3.21a12.6,12.6,0,0,0-9-6.27C44.51,32.67,50.77,33.16,55.78,38.65ZM32.27,83.4a32.58,32.58,0,0,0-4.07-.25h-.7l-.27.64c-1.21,2.78-.46,8.65,1.46,11.4a4,4,0,0,0,1.68,1.47,2.89,2.89,0,0,0,.76,1.7,3.73,3.73,0,0,0,2,1.08,13,13,0,0,1-1.5,3.73c-6.37-2.53-9-10.72-7.53-23.84,4.09-3.43,13.08-4.57,16.06-4.92a46,46,0,0,0,3.32,9.18A54.23,54.23,0,0,1,32.27,83.4Zm54.39,18.25-8.08,9.25.57,5.7H72.56c2-5.83,5.55-14.15,8-15.6l1.14-.65-.76-1c-1.42-1.88-5-12-2.58-15.8l-1.9-1.24a8.6,8.6,0,0,0-1.15,4.37c-5.7,3-14.5.75-17.34-.11a37.47,37.47,0,0,0,1.36-6.79L57,79.58A35.6,35.6,0,0,1,55.71,86c-1.14,3.81,1.67,21.68,2.37,26-1.21.81-3.17,2.34-3.8,4H50.7a4.94,4.94,0,0,1,2.85-3.33l.39-.14.22-.36c2.76-4.56-5-22.12-8.52-29.47-4.86-10.26-4.17-15.63-3.5-20.83A25.82,25.82,0,0,0,42,52a2.55,2.55,0,0,0-2.92-1.81,6.67,6.67,0,0,0-5.49,5.88A5.79,5.79,0,0,1,32,60.24a3,3,0,0,1-2.43.51c-1.57-.26-3.34-.54-3.68-1.15-.16-.27,0-.83.1-1.14v-.12A80.85,80.85,0,0,0,27.8,45.11,16.9,16.9,0,0,1,28.48,41c.64-2.5,1.26-4.88-.76-8.14,2.86-.24,3.69,1.61,3.79,1.83l.33.92.94-.18c.11,0,10.27-1.77,14.07,5.26.52,1,1,2,1.59,3.14,4,8.1,9.57,19.2,25.1,18.61,18.44-.66,27.37.52,27.93,9.06.72,10.18-1.64,13.19-7.55,16.43-6.32,3.51-7.16,11.71-7.28,13.71Zm18.85-5.81c.08.88.13,2,.16,3.3.14,4.24.33,9.91,2.44,13.54a12.22,12.22,0,0,0-2.38,3.9h-5.28c.53-1.89,1.49-3.92,2.54-4.18l.85-.21v-.93c0-.16-.13-15-11.13-19.51A9.17,9.17,0,0,1,95,90a18.17,18.17,0,0,0,6.33-5.18c.36,3.84,1.36,8.61,4.17,11Zm14.12,3.08a6.42,6.42,0,0,1-7.36-4.3C111,91.36,111,87.78,111,84.36c0-5.94,0-12-7.47-14.67a9.18,9.18,0,0,0-.23-1c3.21-.8,12.29-2.28,15.31,6.34a33.66,33.66,0,0,1,1.56,10.87c.07,3.42.14,6,2,7.46,1.14.84,2.62,1.14,4.83.76a10.26,10.26,0,0,1-7.41,4.76Z"/><circle class="cls-1" cx="32.13" cy="44.1" r="1.24"/><path class="cls-1" d="M77.47,80l2.18.68a6.09,6.09,0,0,1,2.78-3.42l-.88-2.1A8.29,8.29,0,0,0,77.47,80Z"/><path class="cls-1" d="M96.53,68.41c1.54,2.28,1.06,3.56,1,3.58l2.07,1c.11-.24,1.06-2.49-1.23-5.84-2.75-4-12.62-3.68-13.69-3.63l.1,2.29C88.51,65.64,95,66.16,96.53,68.41Z"/><rect class="cls-2" width="141.2" height="141.2" rx="70.6"/></g></g></svg>