<svg xmlns="http://www.w3.org/2000/svg" viewBox="0 0 141.2 141.2"><defs><style>.cls-1{fill:none;}.cls-2{}</style></defs><g id="Calque_2" data-name="Calque 2"><g id="Layer_1" data-name="Layer 1"><rect class="cls-1" width="141.2" height="141.2" rx="70.6"/><path class="cls-2" d="M7.51,69.22A1.46,1.46,0,0,0,7,71.07a5.72,5.72,0,0,0,4.62,2.77,6.35,6.35,0,0,0,1.45-.27c4-1.32,7.66-8,7.26-18.48-.26-8.44,1.46-11.74,3-12.93a3.72,3.72,0,0,1,1.85-.79,17.71,17.71,0,0,0-1.59,13.2c.93,3.56-.39,14.12-3,18.48s-5.42,10.56-4.75,17.16c.52,5.94,3.16,15.18,3.3,15.84a1.57,1.57,0,0,0,1.32.92h6.46a1.19,1.19,0,0,0,1.06-.53,1.28,1.28,0,0,0,.13-1.18,34.48,34.48,0,0,1-2-12.15C28.37,100,31.4,106.84,31.4,107a1.15,1.15,0,0,0,1.19.79h7.13a1.39,1.39,0,0,0,1.19-.66,1.21,1.21,0,0,0,0-1.32c-2.78-4.48-4.62-12.27-5-15.44a12.8,12.8,0,0,1,1.45-5.68,8.06,8.06,0,0,0,2.51.93v1.85A2.15,2.15,0,0,0,42,89.81a2.31,2.31,0,0,0,1.85-.92,2.29,2.29,0,0,0,.4-1.32V85.72a9.62,9.62,0,0,0,2-.27l.92,2a2.38,2.38,0,0,0,3,1.06,2.87,2.87,0,0,0,1.18-1.32,2.5,2.5,0,0,0-.13-1.72L50.54,84a8.84,8.84,0,0,0,2.25-1.32,13.88,13.88,0,0,0,4.35.53h.4c4.09-.13,10.82-.4,17.42-.66l.8-.13v24a1.24,1.24,0,0,0,1.32,1.32h6.2a1.43,1.43,0,0,0,.92-.39,1.49,1.49,0,0,0,.4-1.06c-.26-2.51-.53-9.77.92-13.86A23.6,23.6,0,0,1,87.77,88c.66,1.72,1.71,4.23,2.64,6.73,1.85,4.49,3.56,9.24,4.75,11.62a1.26,1.26,0,0,0,1.19.79h6.73a1.39,1.39,0,0,0,1.19-.66,1.21,1.21,0,0,0,0-1.32c-3.57-5.54-6.73-18.08-6.6-23.5h.79c4.36,0,7.79.53,9.5,2.78-2.64,3.17-2.37,5.15,2.78,11.35a64.74,64.74,0,0,0,7.13,7.39,3.89,3.89,0,0,0,.66,2,6,6,0,0,0,5,2.64,7,7,0,0,0,3.17-.79c4.22-2,3.56-4.88,3.3-6.34a3,3,0,0,1-.13-.92,63.4,63.4,0,0,0-.4-7.79,82.09,82.09,0,0,1-.39-9.24c2-3.17,1.32-9.11,1.18-9.77a1.26,1.26,0,0,0-.92-1,1.23,1.23,0,0,0-1.32.26l-3.7,3.56c-1.32-4.22-4.35-10.42-7-16-1.06-2-2-4-2.78-5.67-2.9-6.34-8.44-18.22-24.81-18.35H36a12.54,12.54,0,0,0-8.84,3.43,6.58,6.58,0,0,0-5.42,1.19q-4.35,3.55-4,15c.4,8.58-2.5,14.91-5.41,15.84-1.05.39-2.11-.14-3-1.59a1.3,1.3,0,0,0-1.85-.39ZM89.75,85.45A10.77,10.77,0,0,1,95,81.89c0,4.88,2,13.2,4.49,19.27H96c-.92-2.24-2-5-2.9-7.52C91.73,90.2,90.54,87.17,89.75,85.45ZM28.5,91.39c-2.51-7.92-1.85-11.22.26-14,2.77-4.22,1.72-9.63-1.85-21.25-1.72-5.55-1.32-10.43,1.19-13.86a9.82,9.82,0,0,1,8-4H54.37c-.27,1.85,1.19,3.43,2.51,4.75a14.44,14.44,0,0,1,2.5,3.3,1,1,0,0,1,.14.4,8.36,8.36,0,0,1-2.64.52c-3.3.27-8.19.8-11.36,5.55a7.39,7.39,0,0,0-1.05,6.73C46.71,66.05,57.54,70.4,62,72a13.78,13.78,0,0,0,4.23.79,7.07,7.07,0,0,0,5.28-2.11c2.77-2.91,2.9-8.32,1.32-11.88-2.11-4.75,4.62-7.92,9.9-10.43l.39-.26c2-.93,3-2.51,2.78-4.49a9,9,0,0,0-3-5.28h7c7.26,0,12,2.51,15.44,5.81-4.22-1.85-9.77-2.91-13.73.52-3,2.51-4.48,4.76-4.62,6.74-.13,1.45.53,2.77,2,4.35s4,.27,5.94-1c1.59-1.06,3.17-2,4.23-1.72a1.77,1.77,0,0,1,1,.92c.93,1.59.4,5,0,8.06-.52,3.69-.92,6.86.66,8.05.93.66,2.12.66,3.7,0,4.22-1.72,6.86-.27,9,.79a7.06,7.06,0,0,0,2.9,1.06,1.67,1.67,0,0,0,.79-.13,4.46,4.46,0,0,0,2-2.12,52.06,52.06,0,0,1,3.17,8.58,1.5,1.5,0,0,0,.93,1.06A1.22,1.22,0,0,0,124.6,79l3.3-3.16c0,2-.14,4.35-1.06,5.54a1,1,0,0,0-.26.66c-.27,2.38.13,6.34.39,10a58.9,58.9,0,0,1,.4,7.4,3.56,3.56,0,0,0,.13,1.71c.39,1.32.53,2.25-1.85,3.43a3.71,3.71,0,0,1-4.49-.66,2.28,2.28,0,0,1-.39-.92,1.2,1.2,0,0,0-.53-1.72c-.13,0-2.24-1.32-7.26-7.39-4.75-5.68-4.36-6.2-2.25-8.58a1.41,1.41,0,0,0,.14-1.45C108.49,79.64,103.61,79,98.59,79H97.53c-8.84.53-12.93,9-14.25,12.54a30.88,30.88,0,0,0-1.32,9.9h-3.3V81a1.39,1.39,0,0,0-.4-.92,1.51,1.51,0,0,0-1.05-.4l-2.12.14c-6.46.39-13.2.66-17.29.66h-.4a16,16,0,0,1-9.24-2.78,9.26,9.26,0,0,0-5.28-2,6.06,6.06,0,0,0-4.48,2.51c-2.78,3.17-5.28,9.24-4.89,12.28a51,51,0,0,0,2.64,10.82H32.06C31,98.52,29.55,95,28.5,91.39ZM23,74.5c1.45-2.38,2.64-6.74,3.17-11.09,1.85,6.86,1.85,9.9.26,12.27-2.11,3.17-2.64,6.6-1.71,11.49-1.59,4.62-1.19,9.77-.27,14H20.71A104.23,104.23,0,0,1,18.6,89.94c-.66-5.81,2-11.62,4.35-15.44Zm98.74,13.59a1.46,1.46,0,1,0,1.45-1.45A1.32,1.32,0,0,0,121.69,88.09Zm-41-18.74A3.9,3.9,0,0,0,78,73.7c.26.8,1,2.78,5.41,2.78h.66c7.39-.4,7.92-5.55,8.32-8.58v-.53c.13-2-.13-4.49-1.45-6.08a4.09,4.09,0,0,0-4-1.18c-2.78.39-3.57,3-4.23,5.41-.53,1.71-1.06,3.3-2.11,3.83ZM30.48,45.06a11.42,11.42,0,0,0-1.19,9.64,7.33,7.33,0,0,0,6.6,4.48,4.41,4.41,0,0,0,3.69-1.58,4,4,0,0,0,.66-4c-.52-2.38,2.78-6.21,6.21-8.32,1.19-.66,1.32-1.45,1.19-2-.53-2.24-6.87-3.17-8.85-3.17h-.26a10.24,10.24,0,0,0-8,4.89Z"/></g></g></svg>