<svg xmlns="http://www.w3.org/2000/svg" viewBox="0 0 141.2 141.2"><defs><style>.cls-1{}.cls-2{fill:none;}</style></defs><g id="Calque_2" data-name="Calque 2"><g id="Layer_1" data-name="Layer 1"><path class="cls-1" d="M87.65,42.86c-1.5-4.19-9.36-15.36-13.93-17.4a3.16,3.16,0,0,0-2.5-.23,13.26,13.26,0,0,0-2.49,1.54,39,39,0,0,0-5.83-1.32l-.78-.14-.49.63a17.68,17.68,0,0,0-2,3.16A46.82,46.82,0,0,0,58,37.56,27.89,27.89,0,0,0,54.63,43C48.84,56.41,50.88,75,51.86,83.93v.68c1.76,16.16,10.6,30.31,11,30.91l.38.61h15l.39-.69C79,114.79,87.4,99.33,89,87,89.49,83.93,92.8,57.3,87.65,42.86ZM62.06,30.26a14.37,14.37,0,0,1,1.21-2c1,.19,2.07.4,2.93.6a59.14,59.14,0,0,0-4.93,4.7A18,18,0,0,1,62.06,30.26Zm-5,13.82c2.57-5.9,10.72-13.68,14.19-15.9,1.5,2.35,4,6.62,4,9,0,7.5-2.26,8.89-2.24,8.89l-.2.09-5.62,4.88a23.53,23.53,0,0,1-2-3.69l-.89-2L63,47.08a55,55,0,0,1-6.39,6.38,12.43,12.43,0,0,0-2.65,3.77A46.54,46.54,0,0,1,57.08,44.08ZM54.56,84.25l-.08-.68c-.37-3.44-1-8.88-1.08-15,.36-2.92,1.85-10.46,4.93-13.18,2.45-2.17,4.2-4,5.3-5.13a14.65,14.65,0,0,0,3.85,5c5.24,3.56,5.94,7.7,6.81,13l.23,1.33c.12.73.28,1.51.45,2.34,1.15,5.67,2.74,13.44-2.65,23-1.74,3.07-4,14.72-4.64,18.55H64.77C63.08,110.53,56.06,98,54.56,84.25Zm31.91,2.33C85.14,97,78.36,110.3,76.7,113.44H70.4c.94-5.13,2.93-14.92,4.25-17.23,5.84-10.4,4.07-19.06,2.9-24.8-.16-.81-.32-1.56-.44-2.27l-.22-1.32c-.9-5.41-1.76-10.52-8-14.71h0l5.3-4.62c1-.59,3.6-2.84,3.6-11.26a18,18,0,0,0-2.55-7.38C78.81,33.28,83.81,40,85.12,43.7,90.18,57.84,86.61,85.39,86.47,86.58Z"/><rect class="cls-2" width="141.2" height="141.2" rx="70.6"/></g></g></svg>