<svg xmlns="http://www.w3.org/2000/svg" viewBox="0 0 141.2 141.2"><defs><style>.cls-1{}.cls-2{fill:none;}</style></defs><g id="Calque_2" data-name="Calque 2"><g id="Layer_1" data-name="Layer 1"><path class="cls-1" d="M74,56.74a62.27,62.27,0,0,1-7.16,4.77c.24-2.34.59-4.64,1-6.8,3.71-1.17,6.68-5.3,7-5.82a1.47,1.47,0,0,0-2.43-1.67,16.59,16.59,0,0,1-3.89,3.9c1-4.79,2.09-8.2,2.11-8.29A1.48,1.48,0,1,0,67.82,42,114,114,0,0,0,64.57,56a61.36,61.36,0,0,1-4-5.24,1.48,1.48,0,0,0-2.45,1.66c.66,1,3.7,5.35,5.91,7.27-.16,1.31-.29,2.63-.37,4h0c0,.67-.07,1.34-.1,2A24.77,24.77,0,0,1,58,60a1.48,1.48,0,0,0-2.45,1.65c.16.24,3.68,5.36,8.07,7.47a28.11,28.11,0,0,0,1.52,8.82,1.49,1.49,0,0,0,1.38,1,1.61,1.61,0,0,0,.53-.1,1.5,1.5,0,0,0,.86-1.91c-1.26-3.32-1.53-7.62-1.31-12,2.82-1,7.21-4.21,9.21-5.74A1.47,1.47,0,1,0,74,56.74Z"/><path class="cls-1" d="M44.23,75.63a17.17,17.17,0,0,0,3.65-5.16,1.48,1.48,0,0,0-2.66-1.28,20.48,20.48,0,0,1-1.74,2.92c-.29-1.65-.52-3.29-.7-4.85,2.7-1.92,4.07-5.91,4.23-6.41a1.48,1.48,0,1,0-2.81-.91,14.56,14.56,0,0,1-1.77,3.5c-.26-3.76-.24-6.45-.24-6.52a1.48,1.48,0,0,0-1.46-1.5h0a1.49,1.49,0,0,0-1.48,1.46,97,97,0,0,0,.71,11.6c-1.33-.89-2.87-2-4-3a1.48,1.48,0,0,0-1.86,2.29,40.42,40.42,0,0,0,6.43,4.41q.27,1.58.63,3.15v0h0l.3,1.21A22,22,0,0,1,36,73.53a1.47,1.47,0,1,0-1.87,2.28c.18.15,4.2,3.38,8.25,4.09a23.53,23.53,0,0,0,3.33,6.65,1.47,1.47,0,0,0,1.17.58,1.5,1.5,0,0,0,.9-.3,1.48,1.48,0,0,0,.28-2.07,25.36,25.36,0,0,1-3.87-9.13Z"/><path class="cls-1" d="M113.58,48.52a2.92,2.92,0,0,1-.34-1.82c.94-5.53-2.47-12-7.15-13.54s-11.36,1.59-13.9,6.62c-.09.18-.17.28-.42.25-3.67-.22-6.09,1.45-7.12,4.84a2.6,2.6,0,0,1-1.18,1.46,12.23,12.23,0,0,0-3.36-5.65,3,3,0,0,1-.89-1.62c-.85-5.55-6.12-10.6-11-10.6S57.88,33.54,57.06,39.12a.41.41,0,0,1-.32.37c-3.52.93-5.33,3.3-5.23,6.83a2.94,2.94,0,0,1-1,2.23,5.66,5.66,0,0,0-1.82,3.8,2,2,0,0,1-.52-.63c-2.06-4.34-7.64-7.2-11.7-6s-7.22,6.7-6.58,11.63a5.62,5.62,0,0,0-2.67,7,2.23,2.23,0,0,1-.27,1.84C25.65,68.41,26,70.83,28,73a3,3,0,0,1,.79,2.62c-.91,3.74.91,7,5,8.87A4.65,4.65,0,0,1,36,86.9c1.64,3.45,5.06,5.37,7.66,6.37,2.44.94,5.29,2.64,6.17,4.32,2.74,5.18,3.05,13.16,3.05,13.24a1.49,1.49,0,0,0,.61,1.15,1.53,1.53,0,0,0,.87.28,1.23,1.23,0,0,0,.42-.07l6.49-1.94a1.43,1.43,0,0,0,.91-.77,1.47,1.47,0,0,0,0-1.18L56.09,92.69a16.72,16.72,0,0,1,.62-11.16l.1-.23a21.42,21.42,0,0,0,3.54,3.44c2.51,2,5.24,4.93,5.69,7.22,1.37,6.92-1,16.22-1.05,16.31a1.49,1.49,0,0,0,.27,1.27,1.44,1.44,0,0,0,1.16.58h8.09a1.47,1.47,0,0,0,1.47-1.6l-1.68-20A20.22,20.22,0,0,1,78,77.2a19.22,19.22,0,0,0,3,6.91c1.76,2.64,3.42,6.34,3.13,8.65-.89,7-6.08,15.07-6.13,15.15a1.46,1.46,0,0,0-.16,1.3,1.52,1.52,0,0,0,.93.91l7.67,2.54a1.5,1.5,0,0,0,.47.08,1.49,1.49,0,0,0,1.43-1.13L93,92.12a20.35,20.35,0,0,1,8.37-10.62l6.23-3.94c4.87-4.25,4.69-10.74,4.15-14.22a3.45,3.45,0,0,1,.85-2.79c2.86-3.22,3.22-7.6,1-12ZM58.89,107.88l-3.19,1c-.26-2.88-1-8.44-3.25-12.63-1.67-3.16-6.34-5.16-7.73-5.7-1.71-.66-4.77-2.17-6-4.88a7.69,7.69,0,0,0-3.62-3.77c-2.8-1.31-3.93-3.16-3.36-5.5a5.89,5.89,0,0,0-1.47-5.3c-1.64-1.82-1-2.92-.76-3.34A5.13,5.13,0,0,0,30,63.46c-.53-1.6-.13-2.64,1.4-3.57a3,3,0,0,0,1.43-3.08c-.53-3.67,2-7.51,4.45-8.24s6.61,1.08,8.19,4.42a5.14,5.14,0,0,0,2.28,2.31,9.4,9.4,0,0,1,1.82,1.31,3.74,3.74,0,0,1-.08,3.32c-2.24,3.83-1.29,8,2.6,11.48A5.86,5.86,0,0,1,53.89,75a11.73,11.73,0,0,0,1,3.22L54,80.39a19.81,19.81,0,0,0-.7,13.25ZM76.6,74a23.28,23.28,0,0,0-5.25,14.7l1.55,18.5H68.28c.67-3.23,1.78-10.07.66-15.77-.82-4.19-5.79-8.22-6.78-9-1.76-1.37-4.8-4.2-5.35-7.83a8.85,8.85,0,0,0-2.75-5.38c-2.87-2.55-3.54-5.17-2-7.78a6.76,6.76,0,0,0,.12-6.31c-1.34-2.83-.08-4,.34-4.4a5.85,5.85,0,0,0,2-4.47c-.06-2.15.85-3.31,3-3.89A3.35,3.35,0,0,0,60,39.56c.67-4.51,5-8.15,8.19-8.15s7.44,3.61,8.12,8.1A6,6,0,0,0,78,42.77c1.87,1.87,3.77,4.85,2.22,8.47a6.37,6.37,0,0,0,.15,5.43c1.34,2.6,3.19,7.6.75,11.77Zm33.76-15.37a6.4,6.4,0,0,0-1.56,5.2c.45,2.88.64,8.22-3,11.4l-6,3.81a23.33,23.33,0,0,0-9.62,12.3l-4.35,18-4.39-1.46c1.65-2.85,4.87-9,5.6-14.76.53-4.23-2.91-9.62-3.61-10.66-1.22-1.82-3.15-5.38-2.63-8.93l2.8-3.42c3.29-5.57,1.07-11.67-.54-14.8A3.4,3.4,0,0,1,83,52.41a9.81,9.81,0,0,0,.71-2.7,3.66,3.66,0,0,1,.54-.37,5.88,5.88,0,0,0,3.28-3.62c.62-2.06,1.85-2.89,4.11-2.74a3.43,3.43,0,0,0,3.23-1.87C96.88,37,102.15,35,105.15,36s5.93,5.77,5.17,10.24a5.9,5.9,0,0,0,.61,3.64c1.19,2.37,2,5.8-.57,8.75Z"/><path class="cls-1" d="M104.21,52.3a16.12,16.12,0,0,1-4.92,2.48c2.5-4.21,4.57-7.12,4.62-7.2a1.48,1.48,0,0,0-2.4-1.72A110.12,110.12,0,0,0,94,58.2,65.67,65.67,0,0,1,91.87,52a1.48,1.48,0,1,0-2.84.81c.32,1.11,1.82,6.24,3.31,8.75-.56,1.19-1.1,2.41-1.6,3.64h0c-.21.53-.41,1-.6,1.57a11,11,0,0,1-.41-5.64,1.48,1.48,0,0,0-1.13-1.75,1.46,1.46,0,0,0-1.76,1.12c-.06.26-1.25,6.15,2.13,9.76a27.93,27.93,0,0,0-1.34,8.89,1.47,1.47,0,0,0,1.47,1.42h.06A1.48,1.48,0,0,0,90.58,79c-.15-3.54.94-7.71,2.55-11.82,3-.07,8.17-1.73,10.55-2.55a1.48,1.48,0,0,0,.91-1.88,1.46,1.46,0,0,0-1.88-.91,59.11,59.11,0,0,1-8.3,2.26c1-2.13,2-4.19,3.07-6.11h.12c3.86,0,7.9-3,8.4-3.34a1.48,1.48,0,0,0-1.79-2.36Z"/><rect class="cls-2" width="141.2" height="141.2" rx="70.6"/></g></g></svg>