<svg xmlns="http://www.w3.org/2000/svg" viewBox="0 0 141.2 141.2"><defs><style>.cls-1{fill:none;}.cls-2{}</style></defs><g id="Calque_2" data-name="Calque 2"><g id="Layer_1" data-name="Layer 1"><rect class="cls-1" width="141.2" height="141.2" rx="70.6"/><path class="cls-2" d="M52.66,58.87H38.86V66.3H51.57a3,3,0,0,1,2.09.63,2.11,2.11,0,0,1,.7,1.66,2.22,2.22,0,0,1-.68,1.68,3,3,0,0,1-2.11.65H38.86v8.61H53.14a3.18,3.18,0,0,1,2.18.67A2.34,2.34,0,0,1,56.05,82a2.29,2.29,0,0,1-.73,1.74,3.13,3.13,0,0,1-2.18.67H36.48a3.91,3.91,0,0,1-2.88-.89,4,4,0,0,1-.87-2.86V57.9a5.15,5.15,0,0,1,.39-2.16,2.42,2.42,0,0,1,1.23-1.21,5,5,0,0,1,2.13-.39H52.66a3.16,3.16,0,0,1,2.18.65,2.43,2.43,0,0,1,0,3.43A3.16,3.16,0,0,1,52.66,58.87Z"/><path class="cls-2" d="M80.57,59.2H73.88v22A4.06,4.06,0,0,1,73,84a3.09,3.09,0,0,1-4.41,0,4,4,0,0,1-.86-2.81v-22H61.09a3.41,3.41,0,0,1-2.34-.69A2.34,2.34,0,0,1,58,56.68a2.3,2.3,0,0,1,.79-1.85,3.43,3.43,0,0,1,2.31-.69H80.57a3.4,3.4,0,0,1,2.36.71,2.34,2.34,0,0,1,.78,1.83,2.3,2.3,0,0,1-.79,1.83A3.45,3.45,0,0,1,80.57,59.2Z"/><path class="cls-2" d="M104,81l-1.45-3.8H90.29l-1.44,3.88a13.77,13.77,0,0,1-1.45,3.06,2.3,2.3,0,0,1-2,.8,2.85,2.85,0,0,1-2-.85,2.55,2.55,0,0,1-.89-1.92,4.23,4.23,0,0,1,.21-1.28c.13-.44.36-1.05.68-1.83l7.74-19.65.79-2a10.6,10.6,0,0,1,1-2,4.11,4.11,0,0,1,1.38-1.27,5,5,0,0,1,4.26,0,4.16,4.16,0,0,1,1.38,1.25,9,9,0,0,1,.89,1.64c.24.59.54,1.37.92,2.35l7.9,19.52a9.85,9.85,0,0,1,.93,3.24A2.66,2.66,0,0,1,109.7,84a2.85,2.85,0,0,1-2.11.88,2.74,2.74,0,0,1-1.24-.26,2.39,2.39,0,0,1-.87-.7,6.9,6.9,0,0,1-.75-1.36Q104.32,81.67,104,81ZM91.9,72.58h9L96.38,60.09Z"/></g></g></svg>