<svg xmlns="http://www.w3.org/2000/svg" viewBox="0 0 141.2 141.2"><defs><style>.cls-1{}.cls-2{fill:none;}</style></defs><g id="Calque_2" data-name="Calque 2"><g id="Layer_1" data-name="Layer 1"><path class="cls-1" d="M100.58,87.15a27.33,27.33,0,0,0-1-7.47A56.93,56.93,0,0,1,97.34,64v-21a1.61,1.61,0,0,0-1.62-1.62H89.24a1.61,1.61,0,0,0-1.62,1.62v5.84a28.6,28.6,0,0,1-3.46,13.65,28.88,28.88,0,0,1-1.41-8.91v-3.1l2.35-1.17a1.62,1.62,0,0,0-1.45-2.9l-.9.45V42.24l5.84-4.38a1.62,1.62,0,0,0-2-2.59l-3.89,2.91v-4.1l2.9-2.42,6.44,1.61a1.31,1.31,0,0,0,.39,0,1.62,1.62,0,0,0,.39-3.19l-4.13-1,3.16-2.63A1.62,1.62,0,0,0,89.82,24L86,27.16V22a1.62,1.62,0,0,0-3.24,0v7.88L80.1,32.08a1.6,1.6,0,0,0-.59,1.24v7.43l-3.24-3.24V32.37L80.66,28a1.62,1.62,0,0,0-2.29-2.29l-2.1,2.1V22A1.62,1.62,0,1,0,73,22v.95l-2.09-2.1a1.62,1.62,0,1,0-2.3,2.29L73,27.51v8.05l-3.24-1.62V28.46a1.62,1.62,0,0,0-3.24,0v3.86l-4.14-2.07A1.62,1.62,0,1,0,61,33.15l12.07,6V44l-3.72-3.72A1.62,1.62,0,1,0,67,42.57l6,6v7.31a29,29,0,0,1-1.49,9.2l0,.12a44.61,44.61,0,0,1-3.33-16.83v-.47a1.63,1.63,0,0,0-.65-1.3L61,41.75a1.63,1.63,0,0,0-2.6,1.3v5.33A44.28,44.28,0,0,1,57.14,59a17.85,17.85,0,0,1-2.37-5.6L51.92,41.06a1.63,1.63,0,0,0-1.58-1.26h-8.1a1.62,1.62,0,0,0-1.26.6,1.58,1.58,0,0,0-.33,1.34L44,58.69a74.88,74.88,0,0,1,1.44,14.56V86.81a27.58,27.58,0,0,0,14.59,24.3h0v8.1a1.62,1.62,0,0,0,1.63,1.62H84.38A1.62,1.62,0,0,0,86,119.22v-6.75a1.56,1.56,0,0,0-.41-1,27.21,27.21,0,0,0,15-24.28ZM82,66a28.61,28.61,0,0,1-5.14,5.35l-.52.42-3-1.6,1.34-4a32.27,32.27,0,0,0,1.66-10.22V53.77l3.24-1.62v1.48A32.19,32.19,0,0,0,82,66ZM79.51,45.34v3.19l-3.24,1.62v-8Zm-17.82,3V46.29l3.24,2.43A48,48,0,0,0,69.16,68l-5.29-2.77a17.92,17.92,0,0,1-4.23-3.11,47.55,47.55,0,0,0,2-13.72Zm-13,38.43V73.25a77.65,77.65,0,0,0-1.51-15.2l-3-15h4.84l2.56,11.1A21.08,21.08,0,0,0,62.37,68.08l15.29,8A18.56,18.56,0,0,1,72,110.86a18.84,18.84,0,0,0,8.95-25,1.62,1.62,0,0,0-2.94,1.37,15.64,15.64,0,0,1-9.26,21.44,18.81,18.81,0,0,0-8-25,1.62,1.62,0,1,0-1.53,2.85,15.62,15.62,0,0,1,8.22,13.76,15.44,15.44,0,0,1-3,9.11l-.32,0A24.35,24.35,0,0,1,48.72,86.81Zm34,30.79H63.31v-5a1.87,1.87,0,0,0,.41.09A27.37,27.37,0,0,0,73,114.36h.34a27.1,27.1,0,0,0,9.39-1.7Zm.87-8.78a21.87,21.87,0,0,0-4.18-35.45A31.93,31.93,0,0,0,90.86,48.89V44.67H94.1V64a60.15,60.15,0,0,0,2.32,16.56,24,24,0,0,1-12.79,28.26Z"/><path class="cls-1" d="M59.3,73.65l12,6.46a15.43,15.43,0,0,1,3.41,2.48,1.63,1.63,0,0,0,1.12.45,1.6,1.6,0,0,0,1.17-.5,1.62,1.62,0,0,0,0-2.29,19,19,0,0,0-4.12-3l-12-6.46a1.62,1.62,0,0,0-1.53,2.86Z"/><rect class="cls-2" width="141.2" height="141.2" rx="70.6"/></g></g></svg>