<svg xmlns="http://www.w3.org/2000/svg" viewBox="0 0 141.2 141.2"><defs><style>.cls-1{}.cls-2{fill:none;}</style></defs><g id="Calque_2" data-name="Calque 2"><g id="Layer_1" data-name="Layer 1"><path class="cls-1" d="M113.47,84.56a9.82,9.82,0,0,0-5.27-6.28c-3.09-1.61-6.69-1.51-10-.93A26.53,26.53,0,0,0,86.31,82.5c-.81.16-1.61.35-2.37.58a24.72,24.72,0,0,1,1-3.37v0a54.57,54.57,0,0,1,2.3-5.19A8.8,8.8,0,0,0,87,66.27c-2-3.15-5.7-3.35-8.35-2.21a7.29,7.29,0,0,0-.74.37,8.66,8.66,0,0,0-3.7,4.9c-1.47,4.61,1.16,11.1,4.37,15.08v1a29.24,29.24,0,0,0-9.21,8.43c0-1.22.06-2.41.09-3.58,0-3.26,0-6.53,0-9.79.18-8.68.81-18.11,5.07-25.88,4.25,8.25,14.21,9.56,14.71,9.62s.84,0,1.27.06a12.48,12.48,0,0,0,6.07-1.48A7.9,7.9,0,0,0,100.49,58c1.23-4.18.11-9.26-4.42-10.87-3.34-1.19-6.92.12-9.81,1.18-.51.19-1,.36-1.56.55A39,39,0,0,1,77,50.74c.24-.33.48-.66.74-1,.43-.53.89-1,1.37-1.53a1.27,1.27,0,0,0,.28,0h.08c7.38-.39,12.31-4.83,15-8.14l0,0a20,20,0,0,0,2.35-3.47C99.17,32,99.58,25.7,95.21,22.17c-3.73-3-9.59-4-13.11,0A9.13,9.13,0,0,0,80.86,24c-1.46,2.76-1.58,6.1-1.68,9.12l0,1c-.09,2-.1,3.94-.23,5.9a26.91,26.91,0,0,1-.62,4.55,26.94,26.94,0,0,0-2.09,2,37.16,37.16,0,0,1,.17-4.6c.08-.84.17-1.67.27-2.51.41-3.14.91-7-1.3-10.19-2.89-4.11-8.63-4.21-12.82-2.19a7.83,7.83,0,0,0-3.41,3.11c-1.65,2.8-1.54,6.53-.41,9.6a21.57,21.57,0,0,0,8.77,10.31l.06,0,0,0a19.36,19.36,0,0,0,4.59,2.13,38.06,38.06,0,0,0-3.55,8.43c-.18.65-.35,1.3-.5,2l0,.13a25.74,25.74,0,0,0-2.69-4.7,38.13,38.13,0,0,0-7.82-7.92c-.13-.3-.26-.6-.41-.9a23.9,23.9,0,0,0-4.31-6.05h0C48.45,38.82,42.21,36,35.66,37.48a10.53,10.53,0,0,0-5.74,3.43,9.6,9.6,0,0,0-1.21,1.82c-1.59,3.17-1.94,7.7.89,10.67a9.49,9.49,0,0,0,6.87,2.84,9.6,9.6,0,0,0,3.74-.74c11.2-4.73,15-2.93,15.17-2.84s.08,0,.11.05l1.22.95c.82.68,1.63,1.38,2.4,2.11.5.48,1,1,1.44,1.5a13,13,0,0,1-4.65.87,43.16,43.16,0,0,1-8.26-.59,10.29,10.29,0,0,0-7.22,1.63,8.34,8.34,0,0,0-1.79,1.62c-2.67,3.26-1.5,7.45.73,10a9.8,9.8,0,0,0,7.42,3,16,16,0,0,0,7.89-2.44A25.25,25.25,0,0,0,62,64.94a11.94,11.94,0,0,0,1.77-3.37c2.37,3.85,2.9,6.89,2.71,13.78-.08,1.61-.14,3.28-.17,5s0,3.38,0,5.23c0,2,0,4.19,0,6.38a16.07,16.07,0,0,1-2.49-3.51,44.32,44.32,0,0,1-3-6.77,9.55,9.55,0,0,0-7-6.2,6.48,6.48,0,0,0-3.35.28A8.55,8.55,0,0,0,45.54,81a9.78,9.78,0,0,0,.86,7.87c3,5.49,10.19,8.89,16.27,8.89A9.82,9.82,0,0,0,66,97.18c-.53,7.91-2.14,15.92-7,21.9a1.6,1.6,0,0,0,2.47,2c4.59-5.61,6.56-12.83,7.4-20l.11-.18a28.4,28.4,0,0,1,7.12-9.86.31.31,0,0,0,.09.07s1.62,2.36,1.92,11.32a8.89,8.89,0,0,0,3.5,6.75,6.5,6.5,0,0,0,3.82,1.31,7.78,7.78,0,0,0,5.89-3.06,8.68,8.68,0,0,0,1.47-7,12.84,12.84,0,0,0-4.1-6.57l0,0a21.81,21.81,0,0,0-2.54-2,23.24,23.24,0,0,0-5.9-3c-.13-.16-.27-.31-.4-.46a22.16,22.16,0,0,1,6.11-2.5L87,86c.27,0,3.46-.06,12.43,6.53a10.34,10.34,0,0,0,9.79,1.35C113.23,92.21,114.24,87.88,113.47,84.56Z"/><rect class="cls-2" width="141.2" height="141.2" rx="70.6"/></g></g></svg>