<svg xmlns="http://www.w3.org/2000/svg" viewBox="0 0 141.2 141.2"><defs><style>.cls-1{fill:none;}.cls-2{}</style></defs><g id="Calque_2" data-name="Calque 2"><g id="Layer_1" data-name="Layer 1"><rect class="cls-1" width="141.2" height="141.2" rx="70.6"/><path class="cls-2" d="M115.85,109a11.44,11.44,0,0,1-2.51-8.53,126.27,126.27,0,0,0-.68-34.24,6.59,6.59,0,0,0,3.28-5.33,6.71,6.71,0,0,0-.65-3.27,4.92,4.92,0,0,1,0-4.24,6.75,6.75,0,0,0,.65-3.28,6.87,6.87,0,0,0-7-6.36h-1.39A6.71,6.71,0,0,0,100.83,37a6.46,6.46,0,0,0-1,.07,13.51,13.51,0,0,0-2.14-3.62,1.68,1.68,0,0,0-2.59,2.15h0a10.34,10.34,0,0,1,2,3.94,1.69,1.69,0,0,0,2,1.22l.27-.1a3.36,3.36,0,0,1,4.74,3H58.85a1.68,1.68,0,1,0,0,3.36h50.09a3.55,3.55,0,0,1,3.64,3.18,3.22,3.22,0,0,1-.32,1.64,7.88,7.88,0,0,0-.64,1.9h-7.43a1.68,1.68,0,1,0,0,3.36h7.43a8,8,0,0,0,.63,1.9,3.31,3.31,0,0,1,.33,1.64,3.55,3.55,0,0,1-3.64,3.17H32.27a3.55,3.55,0,0,1-3.65-3.17A3.31,3.31,0,0,1,29,59.07a8.68,8.68,0,0,0,.64-1.9h5.75a1.68,1.68,0,1,0,0-3.36H29.59a7.85,7.85,0,0,0-.63-1.9,3.34,3.34,0,0,1-.34-1.64,3.57,3.57,0,0,1,3.65-3.18H52.13a1.68,1.68,0,0,0,0-3.36H37A6.69,6.69,0,0,1,47.19,38a1.68,1.68,0,0,0,2.3-.58l0-.09a6.66,6.66,0,0,1,6-3.67,3,3,0,0,1,.43,0l.2,0a1.71,1.71,0,0,0,1.8-1.11,13.42,13.42,0,0,1,24.88-1.2,1.67,1.67,0,0,0,2,.92,9.83,9.83,0,0,1,5.56.08,1.68,1.68,0,1,0,1-3.2,13.09,13.09,0,0,0-6.09-.42,16.77,16.77,0,0,0-30,1.5,10,10,0,0,0-7.79,4.08,9.94,9.94,0,0,0-3.69-.72A10.08,10.08,0,0,0,33.66,43.73H32.27a6.88,6.88,0,0,0-7,6.36,6.77,6.77,0,0,0,.67,3.28,4.92,4.92,0,0,1,0,4.24,6.72,6.72,0,0,0-.66,3.27,6.87,6.87,0,0,0,7,6.36H59A21.83,21.83,0,1,0,91.52,79.5a1.68,1.68,0,0,0-3.22,1,18.37,18.37,0,0,1-3.36,16.87A6.73,6.73,0,0,0,79.12,96a8.41,8.41,0,0,0-5.2-3.36,1.16,1.16,0,0,0,0-.18V89.07h1a9.63,9.63,0,0,0,8.82-5.17,3.21,3.21,0,0,0-.21-3.13A4,4,0,0,0,80.15,79a10,10,0,0,0-7.47,3.18,12.19,12.19,0,0,0-10.89-6.54,4.65,4.65,0,0,0-3.89,2.07,4.21,4.21,0,0,0-.4,4,12.13,12.13,0,0,0,11.29,7.34H70.6v3.36a1.16,1.16,0,0,0,0,.18A8.4,8.4,0,0,0,65.45,96a6.34,6.34,0,0,0-1.56-.19,6.71,6.71,0,0,0-5.83,3.44A18.45,18.45,0,1,1,83.13,72.16a18,18,0,0,1,2.45,2.78,1.68,1.68,0,0,0,2.73-2,21.79,21.79,0,0,0-6.17-5.74h26.8c.16,0,.31,0,.47,0a123,123,0,0,1,.6,32.86,14.83,14.83,0,0,0,3.25,11,4.05,4.05,0,0,1,.39,4.74,3.9,3.9,0,0,1-5.39,1.14l-.34-.25a10,10,0,0,0-8.27-2,150.64,150.64,0,0,1-58.1,0,10,10,0,0,0-8.26,2,3.9,3.9,0,0,1-5.48-.55c-.08-.11-.17-.23-.24-.34a4,4,0,0,1,.38-4.74,14.78,14.78,0,0,0,3.24-11,123.06,123.06,0,0,1-.1-27.6,1.68,1.68,0,1,0-3.34-.36,126.18,126.18,0,0,0,.11,28.35A11.45,11.45,0,0,1,25.35,109a7.41,7.41,0,0,0-.58,8.73,7.23,7.23,0,0,0,10,2.08,7,7,0,0,0,.62-.45A6.59,6.59,0,0,1,40.9,118a153.79,153.79,0,0,0,59.4,0,6.6,6.6,0,0,1,5.48,1.33,7.25,7.25,0,0,0,10.21-1c.15-.19.3-.39.44-.6A7.41,7.41,0,0,0,115.85,109ZM80.15,82.36c.34,0,.51.16.54.11a6.33,6.33,0,0,1-5.78,3.24h-.59A6.22,6.22,0,0,1,80.15,82.36ZM68.79,85.71a8.77,8.77,0,0,1-8.19-5.28.9.9,0,0,1,.1-.87A1.29,1.29,0,0,1,61.79,79a8.74,8.74,0,0,1,8.65,6.71ZM65.43,99.53a1.67,1.67,0,0,0,2.26-.72l0-.07a5,5,0,0,1,9.14,0,1.68,1.68,0,0,0,2.22.83l.07,0a3.35,3.35,0,0,1,3.44.22,18.35,18.35,0,0,1-21.81,1.57,3.35,3.35,0,0,1,4.34-1.92l.3.13Z"/><path class="cls-2" d="M42.06,55.49a1.68,1.68,0,0,0,1.68,1.68H68.92a1.68,1.68,0,0,0,0-3.36H43.74A1.68,1.68,0,0,0,42.06,55.49Z"/><path class="cls-2" d="M89.08,57.17a1.68,1.68,0,0,0,0-3.36H75.64a1.68,1.68,0,0,0,0,3.36Z"/><circle class="cls-2" cx="97.47" cy="55.49" r="1.68"/></g></g></svg>