<svg xmlns="http://www.w3.org/2000/svg" viewBox="0 0 141.2 141.2"><defs><style>.cls-1{}.cls-2{fill:none;}</style></defs><g id="Calque_2" data-name="Calque 2"><g id="Layer_1" data-name="Layer 1"><path class="cls-1" d="M56.31,101.57H85.14a1.92,1.92,0,0,1-.09-.59V98.29a8.58,8.58,0,0,1-9.13-4.13l-3-5.27A8.59,8.59,0,0,1,84.61,92l.44.75v-8.7A8.58,8.58,0,0,1,75.92,80l-3-5.27a8.59,8.59,0,0,1,11.73,3.15l.44.75v-8.7a8.58,8.58,0,0,1-9.13-4.13l-3-5.27a8.59,8.59,0,0,1,11.73,3.15l.44.75v-8.7a8.58,8.58,0,0,1-9.13-4.13l-3-5.27a8.6,8.6,0,0,1,10.38,1.37V44.42c0-1.36.88-3.5,2.66-6.42a1.09,1.09,0,0,1,1.48-.36,1.2,1.2,0,0,1,.35.36q2.67,4.38,2.67,6.42v3a8.58,8.58,0,0,1,10.12-1.13l-3,5.27a8.6,8.6,0,0,1-8.87,4.18V64l.18-.31a8.59,8.59,0,0,1,11.73-3.15l-3,5.27a8.6,8.6,0,0,1-8.87,4.18v8.21l.18-.31a8.59,8.59,0,0,1,11.73-3.15L97.5,80a8.6,8.6,0,0,1-8.87,4.18v8.21l.18-.31a8.59,8.59,0,0,1,11.73-3.15l-3,5.27a8.6,8.6,0,0,1-8.87,4.18V101a1.81,1.81,0,0,1-.1.58H99.37a1.08,1.08,0,0,1,0,2.15H41.73a1.08,1.08,0,0,1,0-2.15h11.2a1.57,1.57,0,0,1-.1-.58V98.29a8.58,8.58,0,0,1-9.13-4.13l-3-5.27A8.59,8.59,0,0,1,52.39,92l.44.75v-8.7A8.58,8.58,0,0,1,43.7,80l-3-5.27a8.59,8.59,0,0,1,11.73,3.15l.44.75v-8.7a8.58,8.58,0,0,1-9.13-4.13l-3-5.27a8.59,8.59,0,0,1,11.73,3.15l.44.75v-8.7a8.58,8.58,0,0,1-9.13-4.13l-3-5.27A8.6,8.6,0,0,1,51,47.66V44.42q0-2,2.66-6.42a1.09,1.09,0,0,1,1.48-.36,1.24,1.24,0,0,1,.36.36q2.66,4.38,2.66,6.42v3a8.58,8.58,0,0,1,10.12-1.13l-3,5.27a8.58,8.58,0,0,1-8.87,4.18V64l.18-.31a8.59,8.59,0,0,1,11.73-3.15l-3,5.27a8.58,8.58,0,0,1-8.87,4.18v8.21l.18-.31a8.59,8.59,0,0,1,11.73-3.15l-3,5.27a8.58,8.58,0,0,1-8.87,4.18v8.21l.18-.31a8.59,8.59,0,0,1,11.73-3.15l-3,5.27a8.58,8.58,0,0,1-8.87,4.18V101a1.57,1.57,0,0,1-.1.58Z"/><rect class="cls-2" width="141.2" height="141.2" rx="70.6"/></g></g></svg>