<svg xmlns="http://www.w3.org/2000/svg" viewBox="0 0 141.2 141.2"><defs><style>.cls-1{fill:none;}.cls-2{}</style></defs><g id="Calque_2" data-name="Calque 2"><g id="Layer_1" data-name="Layer 1"><rect class="cls-1" width="141.2" height="141.2" rx="70.6"/><path class="cls-2" d="M100.5,68.77C96.37,58.08,87.32,56.1,78.41,55l-.23,0c-3.68-.46-6.11-.76-7.93-3.45a25.21,25.21,0,0,1-1.3-2.8,26.59,26.59,0,0,0-1.44-3.11,3.93,3.93,0,0,0-1.43-2.86,2.76,2.76,0,0,0-2.35-.4l0-.05a3.54,3.54,0,0,0-3.41-.63,3.34,3.34,0,0,0-2.21,1.72,3.88,3.88,0,0,0-.26,2.55c-1.13,5.52-4.65,9.64-8.36,14C45.24,64.86,40.89,70,40,77.37c-.46,4,.26,12.09,4.18,16.48a8.5,8.5,0,0,0,6,3,1,1,0,0,0,.3.05l.23,0a12.8,12.8,0,0,0,3.89-1.56,1,1,0,0,0,.89.49h.09A1.1,1.1,0,0,0,56.43,94a21.84,21.84,0,0,0,3.07-3.1,1,1,0,0,0,0,.25v.06a1.1,1.1,0,0,0,2.19,0v-.06A1.1,1.1,0,0,0,60,90.23L60.2,90c.38-.52.74-1.07,1.09-1.63a1.08,1.08,0,0,0-.19.64v.06a1.09,1.09,0,0,0,2.18,0V89a1.11,1.11,0,0,0-2-.64,26.57,26.57,0,0,0,3.29-7.58,1.79,1.79,0,0,0,0,.23v.06a1.1,1.1,0,0,0,2.19,0V81a1.1,1.1,0,0,0-2.16-.26c.1-.4.19-.79.26-1.18a17.13,17.13,0,0,0,.29-2.5,1,1,0,0,0,.74-1V76a1,1,0,0,0-.75-1,22.32,22.32,0,0,0-.53-3.51,1.16,1.16,0,0,0,1.77.21c.15.38.29.75.42,1.14a1.1,1.1,0,0,0-.51,0,1.12,1.12,0,0,0-.77,1.34v.06a1.06,1.06,0,0,0,.76.76h.06a1.25,1.25,0,0,0,1-.26,16.12,16.12,0,0,1,.42,3,1.11,1.11,0,0,0-1.92.71v.06a1.11,1.11,0,0,0,2,.66,1.08,1.08,0,0,0,1,.86h0A1.1,1.1,0,0,0,70,79c.16-6.8-3.36-12.08-6.77-17.18-.71-1.07-1.45-2.18-2.15-3.29a1.08,1.08,0,0,0-1.29-.44,1.09,1.09,0,0,0-.72,1.16,42.49,42.49,0,0,0,2,7.77c1.3,4,2.53,7.72,1.67,12.13a23.91,23.91,0,0,1-7.4,12.92,14.1,14.1,0,0,1-4.72,1.09,4.81,4.81,0,0,1-3.73-1.78c-3-3.31-3.7-10-3.28-13.62.79-6.3,4.6-10.77,8.64-15.51,3.41-4,6.91-8.1,8.59-13.44.6,6.33,3.64,11.71,6.6,16.93,2.39,4.19,4.64,8.16,5.67,12.53,1.25,5.56-.44,11.81-4.13,15.2A9.5,9.5,0,0,1,65,95.73c3.75-2.94,5.63-7.13,5.5-12.38a1.81,1.81,0,0,0-1.82-1.78h0a1.81,1.81,0,0,0-1.78,1.86A12.41,12.41,0,0,1,66,88.65a1.06,1.06,0,0,0-1-1.32,1.1,1.1,0,0,0,0,2.19,1,1,0,0,0,.81-.37,10.42,10.42,0,0,1-1.68,2.48,1.13,1.13,0,0,0-.3-.7l-.06-.06a1.1,1.1,0,0,0-1.55,1.55l.06.06a1.05,1.05,0,0,0,.62.29,16.06,16.06,0,0,1-5.17,2.69,1.82,1.82,0,0,0,0,3.47,15.8,15.8,0,0,0,4.79.77,12.92,12.92,0,0,0,9-3.51,17.65,17.65,0,0,0,4.81-8,13.28,13.28,0,0,0,6.84,1.83A19.19,19.19,0,0,0,93.9,86.4C100.28,81.87,102.87,75,100.5,68.77ZM62.67,65a46.94,46.94,0,0,1,2.87,4.87,1,1,0,0,0-1.06,1v0c-.38-1.56-.87-3.07-1.36-4.56ZM91.79,83.43c-4.22,3-10.39,4.41-14.78.91a21.11,21.11,0,0,0-.38-6.85C75.48,72.6,73,68.22,70.58,64c-3.06-5.4-6-10.52-6.21-16.51a24.09,24.09,0,0,1,1.22,2.63,25.76,25.76,0,0,0,1.54,3.29l.06.09c2.75,4.12,6.53,4.59,10.54,5.09l.23,0c10,1.26,16,3.46,19.14,11.48C99.23,75.64,95.57,80.75,91.79,83.43Z"/><path class="cls-2" d="M92.59,66.91A1.09,1.09,0,0,0,92,68.33c.61,1.59,1.75,4.55,1.43,7.11,0,0,0,0,0,.08-.38-5.3-4.42-8.36-8-11.08a32.27,32.27,0,0,1-4.55-3.89A1.09,1.09,0,0,0,79.2,62a33.66,33.66,0,0,0,4.85,4.18c3.54,2.68,6.9,5.22,7.16,9.6a22.4,22.4,0,0,1-7.92.46l-1.73-.1a1.07,1.07,0,0,0-1.07.69,1.09,1.09,0,0,0,.31,1.23c1.6,1.38,4,1.59,5.87,1.76a15.09,15.09,0,0,1,1.93.26,10.05,10.05,0,0,1-1.87,2.19,1.09,1.09,0,0,0-.08,1.48,1.11,1.11,0,0,0,.84.4,1.12,1.12,0,0,0,.63-.2c.48-.34,1-.66,1.48-1,2.57-1.68,5.48-3.58,6-7.25C95.9,73,95,70.17,94,67.54A1.1,1.1,0,0,0,92.59,66.91ZM90.82,79.45a1.09,1.09,0,0,0,0-.17,1.74,1.74,0,0,0-.8-1,16.46,16.46,0,0,0,2.57-.66A8.29,8.29,0,0,1,90.82,79.45Z"/><path class="cls-2" d="M59.05,92.19a1.1,1.1,0,0,0,0,2.19A1.1,1.1,0,0,0,59.05,92.19Z"/><path class="cls-2" d="M51.89,67.3a1.09,1.09,0,0,0-1.52.29c-4,5.83-5.27,11.79-3.94,18.18.44,2.48,2.45,5.45,5,6.13a4.35,4.35,0,0,0,1,.13,4.77,4.77,0,0,0,3.74-2,1.1,1.1,0,0,0-.16-1.54,1.08,1.08,0,0,0-1.53.16A2.45,2.45,0,0,1,52,89.78c-1.63-.42-3.12-2.66-3.43-4.43-1.22-5.88-.08-11.14,3.6-16.53A1.09,1.09,0,0,0,51.89,67.3Z"/><path class="cls-2" d="M56.9,61a1.09,1.09,0,0,0-1.54,0c-.38.39-.75.8-1.13,1.22l-1.07,1.16A1.09,1.09,0,0,0,54.73,65c.37-.39.75-.8,1.12-1.22s.72-.79,1.08-1.16A1.08,1.08,0,0,0,56.9,61Z"/><path class="cls-2" d="M66.71,84.06V84a1.09,1.09,0,0,0-2.18,0v.06A1.09,1.09,0,0,0,66.71,84.06Z"/><path class="cls-2" d="M63,86v.07a1.1,1.1,0,0,0,2.19,0V86A1.1,1.1,0,0,0,63,86Z"/></g></g></svg>