<svg xmlns="http://www.w3.org/2000/svg" viewBox="0 0 141.2 141.2"><defs><style>.cls-1{}.cls-2{fill:none;}</style></defs><g id="Calque_2" data-name="Calque 2"><g id="Layer_1" data-name="Layer 1"><path class="cls-1" d="M117.28,88.26a6.8,6.8,0,0,0-8.92-2.05L90.3,96.32a7.48,7.48,0,0,0,.12-1.17,6.61,6.61,0,0,0-6.6-6.6H73.72a10.52,10.52,0,0,1-5.67-1.77,19.5,19.5,0,0,0-10.23-2.62C52.93,84.16,48.51,85.6,46,88a9.76,9.76,0,0,1-6.82,2.59H33.55V89a1.14,1.14,0,0,0-1.13-1.13H23.83A1.14,1.14,0,0,0,22.7,89v28.46a1.14,1.14,0,0,0,1.13,1.13h8.59a1.14,1.14,0,0,0,1.13-1.13v-1.33c14.24-4.19,31.44-.41,31.69-.36.56.09,1.12.16,1.66.22a44.42,44.42,0,0,0,27.66-5.91l5.43-3.18a1.14,1.14,0,0,0-1.15-2l-5.43,3.19a42.08,42.08,0,0,1-26.23,5.61c-.53-.06-1.06-.14-1.51-.2-.73-.16-17.47-3.84-32.12.23V92.88h5.64a12,12,0,0,0,8.39-3.23c2.06-2,6-3.23,10.24-3.23a17.27,17.27,0,0,1,9,2.26,12.83,12.83,0,0,0,6.89,2.13h10.1a4.35,4.35,0,0,1,0,8.69h-17a1.13,1.13,0,1,0,0,2.26h17a6.6,6.6,0,0,0,4.3-1.63l21.36-12A4.54,4.54,0,0,1,114,96.06l-12.24,7.17a1.13,1.13,0,0,0,.58,2.11,1.18,1.18,0,0,0,.57-.15L115.14,98a6.8,6.8,0,0,0,2.14-9.76Zm-86,28.05H25V90.11h6.32v26.2Z"/><path class="cls-1" d="M79.89,54.06a1.25,1.25,0,0,1,1.26,1.25,1.13,1.13,0,0,0,2.26,0A3.48,3.48,0,0,0,81,52v-.73a1.13,1.13,0,1,0-2.26,0V52a3.47,3.47,0,0,0-2.38,3.3,3.51,3.51,0,0,0,3.51,3.51,1.25,1.25,0,0,1,1.26,1.26,1.24,1.24,0,0,1-1.23,1.23h-.06a1.24,1.24,0,0,1-1.22-1.23,1.13,1.13,0,0,0-2.26,0,3.48,3.48,0,0,0,2.38,3.3v.69a1.13,1.13,0,1,0,2.26,0v-.69a3.48,3.48,0,0,0,2.39-3.3,3.53,3.53,0,0,0-3.52-3.52,1.25,1.25,0,1,1,0-2.5Z"/><path class="cls-1" d="M86.8,67.14a1.13,1.13,0,0,0-1.34-1.83,9.44,9.44,0,0,1-15-7.62,9.43,9.43,0,1,1,17.44,5,1.14,1.14,0,0,0,.37,1.56,1.12,1.12,0,0,0,1.55-.37,11.6,11.6,0,1,0-3,3.28Z"/><path class="cls-1" d="M59,81.94a1.14,1.14,0,0,0,1.13-1.13V74.89a.29.29,0,0,1,.29-.28H78.49a.29.29,0,0,1,.29.28v6.2a.29.29,0,0,1-.29.29H67.11a1.13,1.13,0,0,0,0,2.26H78.49a.29.29,0,0,1,.29.29v1.24a1.13,1.13,0,0,0,2.26,0V83.93c0-.11,0-.21,0-.32a1.73,1.73,0,0,0,.32,0H99.45a.28.28,0,0,1,.28.29v2.61a1.14,1.14,0,0,0,2.27,0V83.93a2.64,2.64,0,0,0-.43-1.42,2.56,2.56,0,0,0,.43-1.42v-6.2a2.56,2.56,0,0,0-2.55-2.55H89.76c5.07-2.73,7.94-7.87,7.94-14.86,0-6.17-2.16-10.71-5.47-15.42a3.64,3.64,0,0,0,1.39-2.86,3.7,3.7,0,0,0-3.71-3.71H85.1l3.08-6.75h1a1,1,0,0,1,.85.47.93.93,0,0,1,.06.89l-.88,1.42a1.12,1.12,0,0,0,.38,1.55,1.06,1.06,0,0,0,.59.17,1.14,1.14,0,0,0,1-.55L92,31.2a3.24,3.24,0,0,0-2.87-4.74h0a3.22,3.22,0,0,0-3.17-3.83H73.84A3.26,3.26,0,0,0,71.2,24a3.22,3.22,0,0,0-.51,2.47h-.06A3.22,3.22,0,0,0,67.85,28a3.27,3.27,0,0,0-.06,3.25l.88,1.41a1.14,1.14,0,0,0,1,.55,1.15,1.15,0,0,0,.59-.17,1.14,1.14,0,0,0,.38-1.55l-.83-1.36a1,1,0,0,1,0-1,1,1,0,0,1,.85-.46h1l3.09,6.74H69.89a3.71,3.71,0,0,0-3.71,3.71,3.66,3.66,0,0,0,1.39,2.87c-3.29,4.71-5.46,9.25-5.46,15.42,0,7,2.85,12.13,7.93,14.86H60.37a2.55,2.55,0,0,0-2.55,2.55v5.91A1.15,1.15,0,0,0,59,81.94ZM73.06,25.32a1,1,0,0,1,.8-.41H85.94a1,1,0,0,1,.8.41,1,1,0,0,1,.17.78l-.48,1.06h0l-3.81,8.31H77.19l-3.8-8.3s0,0,0,0L73,26.19A.91.91,0,0,1,73.06,25.32ZM99.72,74.89v6.2a.29.29,0,0,1-.29.29H81.31a.29.29,0,0,1-.29-.29v-6.2a.29.29,0,0,1,.29-.28H99.43A.29.29,0,0,1,99.72,74.89ZM64.37,57.48c0-5.81,2-9.94,5.37-14.59l.14,0H73a1.13,1.13,0,0,0,0-2.26H69.88a1.45,1.45,0,1,1,0-2.9h20a1.45,1.45,0,0,1,0,2.9H76.85a1.13,1.13,0,1,0,0,2.26H89.91l.14,0c3.32,4.65,5.37,8.78,5.37,14.59,0,13.4-10.86,14.83-15.53,14.83S64.37,70.86,64.37,57.48Z"/><rect class="cls-2" width="141.2" height="141.2" rx="70.6"/></g></g></svg>