<svg xmlns="http://www.w3.org/2000/svg" viewBox="0 0 141.2 141.2"><defs><style>.cls-1{}.cls-2{fill:none;}</style></defs><g id="Calque_2" data-name="Calque 2"><g id="Layer_1" data-name="Layer 1"><path class="cls-1" d="M101.6,50.49a1.55,1.55,0,0,0,1.56-1.55v-14a8.47,8.47,0,0,0-2.5-6,8.36,8.36,0,0,0-6-2.48h-62a8.47,8.47,0,0,0-8.5,8.5v8.49A1.55,1.55,0,0,0,25.71,45H38v61.32a8.5,8.5,0,0,0,8.45,8.49h62.05a8.54,8.54,0,0,0,8.5-8.49v-8.5a1.56,1.56,0,0,0-1.55-1.55H103.16V90.93a19.48,19.48,0,1,0-5.63.84,19,19,0,0,0,2.52-.18v4.65H53.49a1.52,1.52,0,0,0-1.1.46,1.56,1.56,0,0,0-.46,1.1v8.48a5.39,5.39,0,0,1-9.21,3.8,5.31,5.31,0,0,1-1.57-3.8V43.43s0,0,0,0v-8.5A8.79,8.79,0,0,0,41,33.46V33.4a8.36,8.36,0,0,0-.36-1.35l0-.08a8.54,8.54,0,0,0-1.39-2.44H94.66a5.3,5.3,0,0,1,3.8,1.56,5.42,5.42,0,0,1,1.59,3.83v14a1.56,1.56,0,0,0,1.55,1.55ZM81.13,72.26a16.4,16.4,0,1,1,16.4,16.4A16.42,16.42,0,0,1,81.13,72.26Zm32.8,34a5.45,5.45,0,0,1-5.39,5.4H53.11c0-.07.09-.15.14-.21a7.71,7.71,0,0,0,.52-.75l.21-.35a9.8,9.8,0,0,0,.46-1c.05-.13.1-.26.14-.39a7.58,7.58,0,0,0,.29-1.09c0-.12,0-.24.06-.36a9.81,9.81,0,0,0,.1-1.09c0-.06,0-.12,0-.17V99.35h58.89v6.94ZM27.27,41.85V34.91a5.4,5.4,0,0,1,1.57-3.81,5.33,5.33,0,0,1,3.79-1.57h0A5.39,5.39,0,0,1,38,34.92v6.93Z"/><path class="cls-1" d="M96.06,66.53H99a1.55,1.55,0,0,1,1.55,1.54,1.55,1.55,0,1,0,3.1,0,4.65,4.65,0,0,0-4.56-4.64V61.87a1.56,1.56,0,0,0-3.11,0v1.56a4.65,4.65,0,0,0-4.57,4.64v1.09a4.66,4.66,0,0,0,4.65,4.66H99a1.55,1.55,0,0,1,1.55,1.54v1.09A1.56,1.56,0,0,1,99,78H96.06a1.55,1.55,0,0,1-1.54-1.55,1.56,1.56,0,0,0-3.11,0A4.64,4.64,0,0,0,96,81.09v1.56a1.56,1.56,0,0,0,3.11,0V81.09a4.64,4.64,0,0,0,4.56-4.64V75.36A4.65,4.65,0,0,0,99,70.71H96.06a1.54,1.54,0,0,1-1.54-1.55V68.07A1.54,1.54,0,0,1,96.06,66.53Z"/><path class="cls-1" d="M91.6,36.77h-42a1.56,1.56,0,0,0,0,3.11h42a1.56,1.56,0,0,0,0-3.11Z"/><path class="cls-1" d="M93.15,47.13a1.55,1.55,0,0,0-1.55-1.56h-42a1.56,1.56,0,0,0,0,3.11h42a1.55,1.55,0,0,0,1.55-1.55Z"/><path class="cls-1" d="M77.68,55.93a1.55,1.55,0,0,0-1.56-1.55H49.6a1.55,1.55,0,0,0,0,3.1H76.12a1.55,1.55,0,0,0,1.56-1.55Z"/><path class="cls-1" d="M57.45,72.33v-2a4.7,4.7,0,1,0-9.4,0v2a4.7,4.7,0,1,0,9.4,0Zm-6.29,0v-2a1.59,1.59,0,0,1,3.18,0v2a1.59,1.59,0,0,1-3.18,0Z"/><path class="cls-1" d="M65.21,88.45a4.71,4.71,0,0,0,4.7-4.7v-2a4.7,4.7,0,0,0-9.4,0v2A4.71,4.71,0,0,0,65.21,88.45Zm-1.6-6.74a1.6,1.6,0,0,1,3.19,0v2a1.6,1.6,0,0,1-3.19,0Z"/><path class="cls-1" d="M52,86.87a1.54,1.54,0,0,0,1.19-.55L67.13,69.73a1.56,1.56,0,0,0-2.39-2L50.83,84.32A1.56,1.56,0,0,0,52,86.87Z"/><rect class="cls-2" width="141.2" height="141.2" rx="70.6"/></g></g></svg>