<svg xmlns="http://www.w3.org/2000/svg" viewBox="0 0 108.05 85.29"><defs><style>.cls-1,.cls-2{}.cls-2{stroke-miterlimit:10;stroke-width:0.62px;}</style></defs><g id="Calque_2" data-name="Calque 2"><g id="Layer_1" data-name="Layer 1"><path class="cls-1" d="M0,17.33c2.24-1.2,5.3-2.68,7.71-4.19a12.66,12.66,0,0,0,2.55-1.84c.4.14-.06-.21.22.24,1,.47-.13-.56.44-.53,1.77-.9,3.46-2.41,5.27-3.18.55-.3,1.72-.31,1.81-1.07.05-.12.46-.18.22-.28-.06.16-.5.77,0,.61.19-.17.34-.51.44,0,.17,0,.37-.17.46-.29A2.46,2.46,0,0,0,20,6.65c.85-.55,2.13-.67,3-1.12,0-.35-.44,0-.58.1l-1.9.54A2.54,2.54,0,0,1,19,6.62c-.26.3-.17.26-.36,0-.24-.08-.38.11-.5.29s-.12,0-.1.1.27-.46.32-.48c-.16-.41-.63.26-.63.51a7.18,7.18,0,0,1-1.05.42A7.23,7.23,0,0,0,13.9,9c-1,.7-2.55,1.44-3.41,2.07,0,0,.24.38.23.4a.31.31,0,0,1-.19-.24c0-.08-.08,0-.09,0,.1-.1-.22-.19-.27-.12s-.32.27-.21.35,0-.11-.05-.06C7,13.88,2.76,15.28,0,17.33Z"/><path class="cls-1" d="M47.3,6.44c.91-.63-1-1,.21-1-.2-.44-1.2,0-.14.51C47.46,6.17,47,6.32,47.3,6.44Z"/><path class="cls-1" d="M92.24,14.76c-.17-.25-.52-.2-.69-.35-.26,0-.47.16-.6,0s.06-.32-.15-.28a.31.31,0,0,0-.21-.41l-1.16-.5c-.51,0-1,.35-1.49.18a16,16,0,0,0-2.56-.56c-.82-1.47-1.59-.66-1.33-2.79,0-.53-1.66-1.19-2-1.53-.17.11-.34.51-.47.6a2.31,2.31,0,0,1-1.06.4c-.26.88-1.6,0-2.23,0-.15.36-.22.66-.67.51a17.2,17.2,0,0,0-2.46.15c-1.18-.81,1.28-1.55-.87-2.53-3.3.93-.64-.57-3.65-2.95a3.53,3.53,0,0,0,.09-3.21,1,1,0,0,1-.94-.19c0-1.06-.45-.27-.87.1-.07.18.32.59,0,.7-.21.63-2,1.91-2.44,2.43-1.34-1-.36-.72-2.18-.74a3.74,3.74,0,0,1-2.13-.13c-.48-1.22,1-.38,1.52-.27.07-.51-.57-.88-.33-1.41.3,0,.32-.38.26-.6,0,0,.31-.4.14-.44s-.36-.42-.43-.57A1.47,1.47,0,0,1,62.42,0c-.58,0-.84.7-1.32,1a.52.52,0,0,0-.15.47c-.34.33-.4.86-.73,1.14-.17.74-1.09.78-1.68.84-.78-.11-1.71-.62-2.43-.16-1-1.51.64-2.73-2-2.1-.25-.12-.36.14-.47.32-.79-.08-1.79.83-2.52,1.06.23.45.23,1.2.58,1.61s1.07,1.23.94,1.64c-.37.19-1.06.47-1.44.23-.63.16-.85-.37-1.16-.76-.83.08-2.23.1-3,.17-.18.26.55.42.48.69-1.74,2.25-4.11,4.68-7,5-1.46,2.17-1.77,0-2.33,1.3-.21,0-.79.21-.84-.11.6-.84-.21-.79-.53-.07a4.87,4.87,0,0,1-1.57,0c-1-.12-.28-1.45-.47-2-.5-.36-.49.11-1-.43A3.33,3.33,0,0,1,32,9.36c-.35.08-1.12-.25-1.42-.26C30,8.92,28.78,7.6,29,9c-.13.14-.37-.17-.51-.22-.43.08-.74.42-1.19,0-.06,0-.14,0-.14.12.29,1.72.55,2-1.4,2-.48,0-1.16,0-1.25-.57-.42-.4-1.89-1.43-1.62-1.89.59-.07-.77-.4.45-1.16.17-.32-.07-.73-.24-1S23,5.09,22.4,5.71c-1.1.16-2.25.94-3.34,1-.08.22-.49.45-.42.05-.17-.08-.39.12-.45.28-.34.19.11-.43.1-.5-.29,0-.44.38-.49.6-1.25.59-2.86.92-3.85,2a28.66,28.66,0,0,1-3.39,2,.77.77,0,0,1,.23.56.5.5,0,0,1-.35-.33c-.19-.16-.33.12-.48.23a34.12,34.12,0,0,1-3.58,2.37c-1.63,1-3.55,1.68-5.11,2.77-.29.28-1.65.41-1.17,1a12.52,12.52,0,0,1,.63,2.55,1,1,0,0,0,.17,1c1.42.49.4.49,1.18,1.43.49.76-.45,1.39-.91,1.92.74.4.26.07.64.8-.13.7.17,1.41-.31,2.05.6-.14.83,1,.94,1.45.8.19.6-.28,1-.33.35.25.45.49.94.32,1,0,.27.66.75,1,.11.53,1.26.8.93,1.52.54,0,.66.41.62.86.8,1.47,1.15.26,1.86.59.13.14.21.45.37.56.1-.17-.06-.4-.09-.54s-.77-.56-.32-.83c-.11-.34-.28-.75.21-.87.32,0,.29.39.68.11.23.33.83.25,1.1,0,.06-.08,0-.27.1-.24.34-.36,1.19-.26,1-.7-.14-.11-.59-.33-.48-.55.42-.22,1.09-.23,1.47-.56.73.08.46.2.41.67.11.19.15.47.44.51-.15.75.4,0,.78.06,1.18.6,1.08-.43,2.32-.52.49.27.46,1.45,1.29,1.44a1.81,1.81,0,0,0,1-.59,2.39,2.39,0,0,0,2.23.59c1,.41.32,1.62,1.67,1.77.41-.68.4-.36,1-.75a.66.66,0,0,1,.66-.53,9.48,9.48,0,0,0,.94-.62.87.87,0,0,1,1-.21c.43.13,1.14-.2,1.45,0,.15.46-.08,1.18.63,1.17.43.41,1,.07,1.47.12.26.31.29.56.82.29,0-.29,0-.62.3-.83a3,3,0,0,1,1.45-1.43c.28.19.18.56.7.44,1.46-.81.13-.21,1.32.82.33,0,1.07-.1,1.27.21.55.28,1.13-.6,1.75-.16s-.18,1.36.43,1.71c.38.61.5.53,1.12.75a3.26,3.26,0,0,0,1.91-.29c.32.3.86-.19,1.21-.16.24.27.37,0,.44-.26s.64-.19.88-.21c.6,0,1.1-.67,1.65-.68.25.08.42.53.48.75a4.29,4.29,0,0,1,1.92.83c.32-.75,1.18.06,1.66-.43.16-1.12.22-.45.79-.86.09-.3.08-.21-.17-.18.2-1,.61.14.81.43a.46.46,0,0,0,.48-.65,3.73,3.73,0,0,0,2.27-.89,2,2,0,0,0,1.23-.2c.21.13-.12.53-.17.67.35.29,1,.84,1,0,1.17.27,2-2.08,2-.07.76-.08,1.92,0,1-1.07,0-.37.29-.79.15-1.19,2.83.85,1.91-1.1,4.15.14a1.28,1.28,0,0,0,1.06.83c.08.74,1.49.49,1.86.1.39.36,0,1,.69,1.16a2.34,2.34,0,0,0,1.31-1,1.88,1.88,0,0,1,1.46.86c0-.37.46.18.52.26.25.71.78,1.59,1.59,1.54.18-.23.54-.2.82-.15a2.65,2.65,0,0,1,.74.49c.12,0,.76,0,.85-.18s.17-.49-.07-.55,0-.32.13-.31a.74.74,0,0,0,.72.05l.66,0s.23-.22.3-.16c.25.72.71.13,1-.16.33-.12.69.4,1,.32,0-.33.42-.57.67-.73a1.16,1.16,0,0,1,1.89.42c.26.28.87.2,1.21.26.17.05.27-.46.35-.52.2-.29.42.11.56.25a1.49,1.49,0,0,0,.78-.34c0-.06.46-.14.46-.24l0-.5c.23-.3.84-.27,1.19-.42.23-.4.84-.32,1.2-.53.08-.53.79-.31,1-.7.26-.77.82-.38,1.22-.71a6.49,6.49,0,0,0-1.2-1.2c-.09-.38-.27-1.26,0-1.55,0,0,.35-.35.38-.31a.44.44,0,0,0,.55-.28c.33-.83.13-.75,1.06-1a4.91,4.91,0,0,1,1-1.79c-.18-.67-.49-.09-.85-.19-.35-.57,1-1.17,1.09-1.75.21-.28.12-.87.26-1.17-.23-.08-.42-.18-.39-.4s.46-.73.41-1.06c.47-.23.41.42.72-.21,0-.32.21-.61-.06-.89-.09-.53.66-.19.94-.37,0-.06.14-.33,0-.34-.58-.16-.71-.37-.45-.91C91.81,15.66,92.35,15.3,92.24,14.76Z"/><path class="cls-1" d="M13.12,30.77c-.16-.21-.56.38-.85.32a1,1,0,0,1-.38.42,1.1,1.1,0,0,0-1.05.41c.17.46-.14.47-.29.79s0,.82-.31.82c-.58.28-.42,0-.84-.09-.33.15-.59-.49-.53,0,.11.24.43.2.65.2.23.44.71.07,1.06,0,0-1.23.56-.86.4-1.6.28-.49.93-.16,1.27-.58a.41.41,0,0,1,.38-.26,1.06,1.06,0,0,1,.82-.31c.16-.24-.31-.24-.33-.12s.25,0,.29,0-.06-.06-.06,0c.27-.11-.55,0-.77.27-.32,0-.42.36-.68.5a1.09,1.09,0,0,0-1,.41c.18.64-.42.5-.36,1.28,0,.28-.17.33-.4.38a.35.35,0,0,1-.53-.14.76.76,0,0,1-.64-.17c-.12.24.42.2.57.21.23.43.71.07,1.06,0A1.58,1.58,0,0,1,11,32.31a.55.55,0,0,1,.27-.65c.4,0,.9,0,1.07-.47A1.84,1.84,0,0,0,13.12,30.77Z"/><path class="cls-1" d="M13.43,30.38c.14-.17,0-.21-.17-.28-.27-.52.43-.84-.46-1.06-.39-.07-.82.4-1.25.36-1,.31-.69.54-.11,1.08,0,.09.16.25.09,0-.25-.08-.76.25-1,.37-.37.07,0,.45-.73.45-.09,0-.32-.22-.38-.27s-.42.1-.43.28c.33-.16-.12-.43-.33-.35a.63.63,0,0,0-.36,1c-.38.28.19.73.36,1,.2,1.23.31.44.87.92.35.19.74-.1,1.11-.17,0-.22.08-.66.1-.88.56-.34.12-.68.56-1,.4,0,.92-.05,1.09-.48.35,0,.6-.43,1-.36s.13-.43.22-.66c-.16-.12-.15.19-.36.09-.11.31.13.66.15.22a1.16,1.16,0,0,0-.88.33.48.48,0,0,0-.46.32c-.18.23-.57.18-.82.2s-.64.52-.47.83c-.69.42,0,1.14-.92,1.29a.81.81,0,0,0-.72-.23c0-.16,0-.46-.14-.6s-.63-.5-.28-.7c-.05-.26-.35-.69.1-.74a.38.38,0,0,0,.57.14c.22.33.78.15,1.09.1s.11-.79.08-.34c.07.05.68-.34.74-.36.41.07.61-.26.45-.62-.15-.05-.77-.69-.55-.28.43-.22,1.05-.22,1.43-.54.18,0,.39.23.49,0-.44-.07-.28.7-.13,1s.67.07.27,0Z"/><path class="cls-2 svgStrokeColor" d="M17.32,31.27c.23,1,1.36-.41,1.74-.11.59.81,1.61.23,2.23.63,1,3.68,3-.81,5-.54,2.3-.47.72,2,3.49,1.16.89,2,2.35-3.34,2.81-1.44.3.18,1.79-.39,1.14-.58-.18,1.81,2.24,1.72,3.39,1.35,1,3.43,2.17,2.49,5.32,2.25,2.2-2.57,4.32,1.13,6.88-.19,0-.74,1.41-1,.79-1.49,0,2.19,3-.92,4.57-.8-.72.06-.32.89.24,1.11,1,.16.13-.65,1.51-.62.62-.48.79-1.17.83.09,3.94-.07-.87-2.66,3.21-2.11,1.13-.83,1.83-.11,3.2.78,1,1.28,1.54-.46,2.66,1.32,1.76-.66,1.34-1.85,3,.18,0-.07-.18-1-.2-.44,1.61,3,1.83,1.09,3.57,2.25.61.13,1.48-.25,1.1-1-.79-.4.08.3.61,0,.24.06,1,.11.94-.3-.38.71.86.6,1.08,0,.92.5.91.25,1.68-.43,1.49-1.35,2.11,2.2,3.53.09.1,0,.23-.23,0,0,.2.64.88.3,1.25,0A6,6,0,0,1,84.84,31c-.31,0,1,0,1.18-.61.66-.23,2.33-1.26,1.74-1.1.34.66-.79,2.41,0,2.13-.66.12.73,1.24,1.39.34,1.09.32,3.37,2.94,4.6,1.18-.16.25.83-.46-.19-1.4.57.44,4.17-.82,3.63,1,1.49,1.28,2.18-.62,4,3.15.1,0,.61.3.56,0-2.07.74,1,1.64,2.12,1.35a5.61,5.61,0,0,0-.73,1.36c.5.31,0-.41-.37-.33-.49.88-2.67,2.39-.76,2.55-.23-.08-.19.22-.33.35,1,2,1.55,1.16,3.42,1.49,1.44.25.53.44.81,1.4,2.24,1.21-1.61,3.61,1.51,4.91.5,1.37-1.24.56-2.38.69-.79.65-.29,2.43-1.43,2.19a4.35,4.35,0,0,0-2.44,1.78c-.82.45.63.33.3,1.5.48.83-1.31-.1-1.27,1.07,0,.08.23.64.38.37-.16-.15-.92.64-.07.44-.06.82-.69.43-.62-.43.27-1-1.51-.88-1.59,0-1.24-.8-.92-1.33-2.63-.81-.71.09-.47,1.44-.16.94-.37-.36-.37.7-.42.89-1.9.42-2,2.06-2.82,3.35.27.23.36.5,0,.75-.48,1-1.65,1-.49,2.51-1.13-.14-2.13,1.18-2.16,2.52-1.79,1.25.05.92.64,1.93.54-.17-.87-.3-.94.06,0,.13.36.49,0,.54a2.42,2.42,0,0,0,0,1.92c-.06,2.2.91-.59,1.75,2.15.61.9.18,2.06,1.65,1.65.52,1.38-1.71,1.71,1.08,2.55.12-.73-.48.43-.21.73-.47.36-1.61,1.83-1.36,2.53,1.14,0,.41-.73.31.39-.14.29-1.87,1.18-1.13,1.06-.48-.38-2.05-1.42-2,0-.26.58-.13-.08-.82,0,.22.76-3.65-1.24-3,1.36-.2.35-1.77-1.69-2.23-.09-.45.42-2.35.17-1.63,1.11.22-.4-.6-1-1-1.17.15.86,1.77-.91.34-1.26.22-.51.65-.72-.19-.81-.24-1.92-2.8-3.53-3.82-1.74.83-.38.6-3.31-1.43-3.68-.48,1-2.47-.54-2.47.23.31-1.58-1.09-1.29-.69-.67.34-.53-.92-.34-.42-.26.16-.89-.73-2.41-1.77-2,.24.52,0-.8-.5-.32-3-2.51-2-.64-5.41-.93,1.1-.29.56-2.28-.09-2.87,2-.86.75-3.94-1.53-4.23a4.21,4.21,0,0,0,.81-2.65c1.43-.86-.41-1.58.09-1.05.49-.32.52-2.57,1-1.34.82-.51-.21-1.86,1.14-2.26-.78-.57-2.41-2-2.85-.76-1.49.4-1.41,2-2.9,2.33-1.25,1.54.24,2.32-.67,4.13-1.21.34-2.67.24-3.41,1.18-3.09,2.58-6.34-.77-9.93.49,0,.58.18-1.21-.54-.44.52-.41-.53-.36-.74-.3,1.12-1.51-.35-.55-.13-2,.54-1.26,4.22-1.59,1.67-3,.33-1.86-.51-1.78-2-1.46.34-.78,1.38-3.07.56-3.25.63-.3,2.21-1.42,1.7-2.38s-2.92-1.23-1.51.17c-1.28.33-.57-1.65-1.64-2.12-1,.07-1.72-2.51-2.61-1.56-1.17,0-2,.82-3.25.77a2.06,2.06,0,0,0-2.13-.81c0,.14-.16.54.11.29-.4-1.42-3.92.48-2.57,1.35-.34-.65-1.32,0-.6.3-2-1.59-.14-4.46-1.5-6.46-1.61-2.79-4.4-.51-4.25-1.6.21-.38.85-.68.27-1-2.25-1-1.21.76-2.59.79-1.14.62-4.48-.49-3.64-2.16-.27-1.16-.24-2.28-1.06-3.31.08-.73-.71-1.2.44-1.54.47-.88-.91-1.76-1.58-2.08-.36-.08,0-.37-.21-.62-.5-.1-.76-1.63-1.07-.77.38-.15-.29-.52-.74-.56,1.27.6,1.08,1.62,1.78,2.22s1.28.68,1.66,1.67c-.92-.63-1,2.24.1,2.93a12.56,12.56,0,0,1,.1,3,4.14,4.14,0,0,0,4.92,1.41c.54-1,2.27-1.44,1.28-.13-.48,1.6.79.6,1.65.59.69-.36.63.77,1.47,0a5,5,0,0,1,1.43,5.46c.07.57,1.42,3.58,1.7,1.79-.61-.4.44.91.6.08-.14-.35.09-1.62.6-1.19.12-.48,2,0,1.32-.49-.12.4.54.87.66.31.66-.37.93.78,1.52.5.23,1.06,2.65-.42,3.79-.43.2-.42,1.55,1.16,1.76,1.7,1.21-.89,1.3,4.1,2.67,1.41-1.3-.85.67-.16.91.45-.42,1.2-2.18,1.41-1.55,2.91-.17.88-1.16,1.9-.62,2.7,2.32-.47,1.49-.08,1.8,1.19,2.58,1.6-3.89,2.09-1.18,4.17-1.15,1.38.56,1,1,1.26-.15,1.3,2.15.07,2.87.13,1.8.13,3.62,1.75,5.43.87,1.73-.33,2.63-2,4.6-1.91,1.62-.32.84-.65,1.41-1.87.67-2.17-.91-.54-.09-2,1.2-1.12,2.22-2.11,3.44-3.2,0-.54.26.48,1,.45,1.56-.33-.74,2.09.44,2.37-.48-1.11-1.3-.23-1,.64-.51.25-.4.41-.58.94,1.06.55-.55,1.08-.13,2-1.53,2.85-.11,1.57,1.39,3.36,1.4,1.06-1,2.36-.29,3.59,1.25.11-1,3.49.72,2-.1.76,2,.52,2.08-.05.51-.36-.21-.2.4,0,1.14-.2,2,2,3.42,1.53.53.3.88,1.59,1,2.08.24-.11.45.11.67.19,0-.18.53-.67.12-.49.33.28-.06,1,.4,1.16.93-.3,1.83.79,2.64-.06,2.46,1.29.81,1.25,1.5,3.85,1.39-2.46,2.85.31,3.69,1.53l-.29.58c1.72,1.22-1.41.64,1.26,2.67.13-1.67.74,0,2.21-1.73.77-.08,1,.91,1.6,1,.06-2.77,2.42-1.23,3.93-1.5,0-1.31.46-.68,1.21-.39,1,.44,3.18-1.68,1.6-2.14-.51.06.53-.08.64-.3,0-1.46,2.39-2.56-.57-3.24.17.72,1.28-2,.14-2.08-1.3.94-1.41-3.72-2.44-2.87-.89.5-.59-2.25-1-1.49.46-.19.24-.82.7-1-.3-.88-.53-.33,0-.34,1.47,0-.09-1.21-.71-1.34,1.24-1.07.34-.65.88-1.3,0-1.13.41-1.09,1.26-1.45-.14-.73-.28-.05.08-.22.61-.08.88-1.43.16-1,.16-.06.16-.14,0-.3-.26-.75,2.07-1.53.9-2.5,1-.66.76-1.68,1.58-2.5,1.65-.46.93-.37,1.59-1.63-.92-.77,1.47-.43,1.37-1-.33.39.51,1.45.83,1,.14,1.37,1.55-1.51,1.67.32-.61,1.4,2,1.21,1.2-.17-.79-.16-.39.61,0-.07-.25-.19,0-1.25-.17-.7.2.24.45.06.62-.1.25.06.86.22.77-.34-.05-1.49-1-1.84-.66-1.53.27,0,.28-.59.09-.63.49.73.87-.67,1.33-.72,2-.27,1.85-1.11,2.52-2.58,2.7.85,3.41-1,.92-2.66,1.06-1.58,1.15-3,0-3.77.7-1.6-2.56-1.62-3.38-1.22.43.42-.31-.8-.47-.92-1.09-1.85-.38-1.28.7-2.93-.22.8.82.21.66-.45,2-1.31-2-1.66-2-1.09.15-1.19-1.72-5.05-4.19-4,.09.55.33-.91.16-1.08-.48-.45-1.22-.36-1.81-.39-.34-.71-3.64,0-2.1,1.18-.25.88-2.33.91-3.11-.46-.32-.28-1.17-.7-1.23-.1.42-.13-.23-.79-.53-.41s-1.15.14-.87-.43c-.36.09-.33.5-.13.2-.25-.32-.49.06-.16,0,.51-.64.85-2.7-.5-2.1-1.52,1.29-2.59,1.45-4.17,2.31.15,1-1,.9-1.54.62-1.08,1.9-2.12-1.5-3.58,0-1.13.81-.23.62-1.58.38-.64.89-.75-.08-1.36.33-3.12-.4-.48.83-2.17.95-.7-.75-1.49-.42-2.22-.42C70.19,33,69.4,30.62,69,31.77c.87,0-1.21-2-2-.32-1.55,1-.41-1.8-1.85-.57-1.64.45-2.83-2.92-4.5-1.26-.6.38-2.64-.88-2.16.56-.61.5.33,1.11,0,1.47-1.7.45-.29-1.06-1.5-.72-3.69,3.17-.7-1.49-4.61,1.11-2.24.1-.88,1.34-2.51,0-.8,1.23.51.9,0,.52-1.81,2-.83.47-2.39,1.35-1.68-1.22-3.59-2-5.18-.25.18-.38-2.55.58-3.38.3-2.37-1.32.57-2.77-3.5-2.5-1.92.68-.57-2.15-2.32-.8-.85-1.27-3,1.32-2.42,2-.42-.12-.88-.73-1.49-.36-1.71.25-.58-1.83-2.05-1.35a4.64,4.64,0,0,0-4.43,2.27c-1.2-1.27-1-2-3.24-2.11C18.45,30.11,18.5,31.35,17.32,31.27Z"/><path class="cls-1" d="M87.81,31.33c.19.05.31-.34.47-.16.57-.47.32.15.89,0-.07-.36.74-1.31,1-.9.26.91.38,0,.9,1,.21.14.9-.32,1.08-.4.25.24.08.5.47.14,1.17-.5.39-.07.91.44.15,0-.14.44.4.64.2.36-.49,1.17-.83,1.19-2.78-.53-1,.05-3-1.51-.38-.27-.69.38-.8-.26l-.18,0c-.11,0-.29.29-.35.37C88.46,31.82,87.81,31.77,87.81,31.33Z"/></g></g></svg>