<svg xmlns="http://www.w3.org/2000/svg" viewBox="0 0 141.2 141.2"><defs><style>.cls-1{fill:none;}.cls-2{}</style></defs><g id="Calque_2" data-name="Calque 2"><g id="Layer_1" data-name="Layer 1"><rect class="cls-1" width="141.2" height="141.2" rx="70.6"/><path class="cls-2" d="M61.34,71.36a1.15,1.15,0,0,0-2.29,0v1.31a1.15,1.15,0,0,0,2.29,0Z"/><path class="cls-2" d="M70.59,70.24a1.14,1.14,0,0,0-1.15,1.12v1.31a1.15,1.15,0,0,0,2.3,0V71.36A1.14,1.14,0,0,0,70.59,70.24Z"/><path class="cls-2" d="M81,70.24a1.14,1.14,0,0,0-1.15,1.12v1.31a1.15,1.15,0,0,0,2.3,0V71.36A1.14,1.14,0,0,0,81,70.24Z"/><path class="cls-2" d="M62.24,79a1.13,1.13,0,0,0-1.14,1.12V81.4a1.15,1.15,0,0,0,2.29,0V80.09A1.14,1.14,0,0,0,62.24,79Z"/><path class="cls-2" d="M70.59,79a1.14,1.14,0,0,0-1.15,1.12V81.4a1.15,1.15,0,0,0,2.3,0V80.09A1.14,1.14,0,0,0,70.59,79Z"/><path class="cls-2" d="M70.48,87.48a1.14,1.14,0,0,0-1.15,1.12v1.31a1.15,1.15,0,0,0,2.29,0V88.6A1.13,1.13,0,0,0,70.48,87.48Z"/><path class="cls-2" d="M78.94,79a1.14,1.14,0,0,0-1.15,1.12V81.4a1.15,1.15,0,0,0,2.29,0V80.09A1.13,1.13,0,0,0,78.94,79Z"/><path class="cls-2" d="M89.05,58.64a1.17,1.17,0,0,0,1-.84,1.14,1.14,0,0,0-.46-1.2,16.36,16.36,0,0,1-1.8-1.54,12.65,12.65,0,0,0-3.25-2.48c-3.68-1.63-7.7-1.16-10.84-.25a14.48,14.48,0,0,1,2.19-6.25,1.08,1.08,0,0,0,.17-.87,1.15,1.15,0,0,0-.54-.72l-3-1.71a1.16,1.16,0,0,0-1.49.28,22.42,22.42,0,0,0-3.92,9.15c-3.95-1.07-7.53-1-10.45.33A12.44,12.44,0,0,0,53.43,55a15.5,15.5,0,0,1-1.8,1.55A1.08,1.08,0,0,0,51.28,58a1.15,1.15,0,0,0,1.47.47A18.37,18.37,0,0,1,60.89,57C55.08,58.86,52,62.79,52,68.46,52,82.1,60.3,98.58,70.59,98.58S89.18,82.1,89.18,68.46A11,11,0,0,0,84,58.7a23,23,0,0,0,5-.06Zm-2.17,9.82c0,12.56-7.51,27.88-16.29,27.88S54.29,81,54.29,68.46a8.75,8.75,0,0,1,5.51-8.65,18.94,18.94,0,0,0-2.09,5.69,1.09,1.09,0,0,0,.76,1.26,1.15,1.15,0,0,0,1.39-.57A3.16,3.16,0,0,1,62,64.77a12.62,12.62,0,0,1,2.45-.31l.93-.07a8.27,8.27,0,0,0,4-1.19,4.8,4.8,0,0,0,1.28-1.26,14.51,14.51,0,0,0,3.62,2.82,35.48,35.48,0,0,0,6.38,2.57.91.91,0,0,0,.36.06,1.17,1.17,0,0,0,.85-.36A1.1,1.1,0,0,0,82,65.82a12.86,12.86,0,0,1-.57-1.91,15.49,15.49,0,0,0-1.77-4.77c4.87,1.55,7.24,4.61,7.24,9.32ZM81.69,56.12a12.31,12.31,0,0,0-5.8,0,1.11,1.11,0,0,0-.83.89,1.1,1.1,0,0,0,.5,1.11c2.51,1.65,3.1,4.12,3.63,6.31a.19.19,0,0,0,0,.08,25.42,25.42,0,0,1-3.88-1.69,10.46,10.46,0,0,1-4.26-4,1.13,1.13,0,0,0-1-.6,1.37,1.37,0,0,0-.39.06,1.1,1.1,0,0,0-.72,1.3A2,2,0,0,1,68,61.37a6.21,6.21,0,0,1-2.87.8l-.87.07a15.42,15.42,0,0,0-2.88.39l-.44.14a16.73,16.73,0,0,1,1.82-3.32,3.7,3.7,0,0,1,2.31-1.83,1.12,1.12,0,0,0,.14-2.2A20.39,20.39,0,0,0,57,55a4.09,4.09,0,0,1,.7-.39c3.39-1.52,7.35-.75,10.06.15a1.19,1.19,0,0,0,1-.11,1.13,1.13,0,0,0,.53-.82,20.94,20.94,0,0,1,3.1-8.56l1,.61a18,18,0,0,0-2.07,8.08,1.08,1.08,0,0,0,.5.91,1.16,1.16,0,0,0,1,.14c2.89-1.05,7.11-2,10.77-.34a10.66,10.66,0,0,1,2.5,2,27,27,0,0,1-4.44-.48Z"/></g></g></svg>