<svg xmlns="http://www.w3.org/2000/svg" viewBox="0 0 141.2 141.2"><defs><style>.cls-1{}.cls-2{fill:none;}</style></defs><g id="Calque_2" data-name="Calque 2"><g id="Layer_1" data-name="Layer 1"><path class="cls-1" d="M100.89,69.73a10.14,10.14,0,0,0-6-11.9,9,9,0,0,0-6.35-.2,7.06,7.06,0,0,0-.82.43c-5-3.41-3-12.54-3-12.64v-.13c.47-4.62,6-5.37,6.22-5.4l5.72-.69L91,37.79C84,36,80.39,41.18,79.34,44.56c-.16.54-.48,1.37-.82,2.25h0A45.78,45.78,0,0,0,68.46,24.23l-.7-.78-3.51,2.88.54.82h0a34.26,34.26,0,0,1,4.74,26c-3.71-2.4-5.64-11.29-6.11-14.81L63,35.41l-1.59,2.5c-3.58,5.54-1.3,12.51.25,16-.94-.06-2.06,0-3.28,0a21.58,21.58,0,0,0-2.56.1c-2,.21-4.38.48-6.78-5.32-3.46-8.29-7.67-7.37-8.15-7.24L38,42.26l2.8,1.23c.95.41,2.67,3.1,4.39,9.3h0a10.2,10.2,0,0,0,2.57,4.71,11.85,11.85,0,0,0-4.08,3.29l-.06.09a10,10,0,0,0,.1,11.2c-.85,1.44-2.53,4.89-1.83,8.38a8.24,8.24,0,0,0,3.39,5.11c-.5,2.19-1.43,8.19,2.76,11.2.39,2.73,2.09,7.09,6.22,7.87h0A8.23,8.23,0,0,0,61,112.32c.5,1.34,1.86,4.19,4.64,5.13a5.89,5.89,0,0,0,1.86.3,9.47,9.47,0,0,0,5.32-2c1.19.85,3.72,2.31,6.4,1.7,2.06-.47,3.71-2,4.93-4.65a5.85,5.85,0,0,0,3.29-1c1.82-1.37,3-3.56,3.64-6.85a8.44,8.44,0,0,0,4.65-8.48,7.43,7.43,0,0,0,3-2.86c1.39-2.32,1.66-5.41.82-9.2h0a9.12,9.12,0,0,0,3.39-5c.81-2.9.1-6.17-2-9.74Zm-11.53-10a6.79,6.79,0,0,1,4.64.17,8,8,0,0,1,4.7,9.55,5,5,0,0,1-3.52,2.19c-2.39.23-4.73-1.44-5.57-2.11v-.32c0-.56-.39-5.06-2.39-7.35a4.31,4.31,0,0,1,2.14-2.13Zm2.3,24.43A3.3,3.3,0,0,1,88,85.62c-4.65-1-5.48-6-5.62-8.14h0a8.25,8.25,0,0,0,4.19-1.82,8.41,8.41,0,0,0,2.61-3.74,12.9,12.9,0,0,0,2.94,1.49c1.47,2.28,1.54,7.88-.41,10.73Zm-29,6.26a7.86,7.86,0,0,0,6.49-4.07,7.94,7.94,0,0,0,4.66,3.09c0,1.31-.34,4.54-2,6.39h0a4.21,4.21,0,0,1-3.46,1.41c-4-.11-5.27-4.67-5.66-6.83Zm-7.68-8.62c-.06-3.66.53-5.23.88-5.83h0a5.16,5.16,0,0,0,1.1.25h.94A7.17,7.17,0,0,0,64,73.29a9.92,9.92,0,0,0,3.51,2.34,17.67,17.67,0,0,0,.33,8.05c-1.33,4.28-4.77,4.84-7.5,4.51a6.1,6.1,0,0,1-5.48-6.41Zm-2.4-10.63a5.64,5.64,0,0,1-1.09-4.47c.6-4,2.7-5.42,3.67-5.86l.08.08.68-.35a4.79,4.79,0,0,1,6.35,1.59,17.69,17.69,0,0,0-.8,6.26,6.89,6.89,0,0,0,1.1,3.06C61.31,74,58.64,74.16,57.05,74a8.62,8.62,0,0,1-4.56-2.87Zm33.52-7.26h0a14.32,14.32,0,0,1,1.42,5.36,6.32,6.32,0,0,1-1.69,4.18,6.22,6.22,0,0,1-4.06,1.94s-6.23.17-6.68-5.71c-.26-3.29.57-5.06,1.21-5.9l.91-.93h0a5.56,5.56,0,0,1,4.06-2A6,6,0,0,1,85,62.77ZM74.89,87.42a6,6,0,0,1-4.2-2.57c-1.83-2.77-1.39-6.93-1.09-8.65h.55a6.83,6.83,0,0,0,4.51-1.77,9,9,0,0,0,5.48,3,14.29,14.29,0,0,0,1.37,5.48c-.85,4.21-5.89,4.53-6.62,4.53Zm-2-17.64a8.84,8.84,0,0,0,.64,2.73,4.69,4.69,0,0,1-5,1.21c-2.62-.88-4.7-3.61-4.8-5.48a14.68,14.68,0,0,1,.66-5.74q2.58-3.28,5.36-3.29h.07a7.83,7.83,0,0,1,5.13,2.69c-1,1.18-2.35,3.51-2,7.88Zm-3.91,35h0a7.77,7.77,0,0,0,4.9,1.91h.43A6.14,6.14,0,0,0,78.65,105l.14-.15h0A9.25,9.25,0,0,1,77.7,109a5,5,0,0,1-7.56.8c-1.14-1.3-1.3-3.42-1.2-5.07Zm8.22-1.36a4.05,4.05,0,0,1-3.21,1.1A5.9,5.9,0,0,1,70.23,103a5.84,5.84,0,0,1-1.87-3.57,6.43,6.43,0,0,0,4.94-2.09,8.77,8.77,0,0,0,1.62-2.62,7,7,0,0,0,4.38,3.44,8.94,8.94,0,0,1-2.14,5.28Zm4-7.33c-4.1.27-5.21-4.61-5.26-4.82h-.08a12.43,12.43,0,0,0,.12-1.72c2.37-.27,5.62-1.42,7.11-4.39a8.13,8.13,0,0,0,3.72,2.37,9.09,9.09,0,0,1-1.61,6.23,5.41,5.41,0,0,1-4,2.33ZM61.94,42.41c1.09,4.66,3.41,12,8.06,13.32L71,56l.33-1h0a35.51,35.51,0,0,0-4.15-28.25l.34-.28c2.19,2.78,9,12.45,9.18,25l.08,5.15,2-4.74c.08-.2,2.08-4.85,2.65-6.71h0A9.35,9.35,0,0,1,84.32,41a7.24,7.24,0,0,0-1.79,4.08c-.21,1-2.06,10.29,3.5,14.57h0a5.35,5.35,0,0,0-.47.67,7.51,7.51,0,0,0-4.22-1.63,7.09,7.09,0,0,0-4.85,1.85,9.89,9.89,0,0,0-6.69-3.4,7.35,7.35,0,0,0-3.38.81l-1.79-3c0-.1-3.87-6.65-2.69-12.52ZM45,45.94a17.27,17.27,0,0,1,1.93,3.56c3,7.3,6.8,6.91,9,6.67a8.12,8.12,0,0,1,.85-.07h1.54c1.42,0,4.07-.12,4.66.28l2.81,1.88a11.15,11.15,0,0,0-2.37,2,6.87,6.87,0,0,0-8-1.93,8.28,8.28,0,0,0-4.84-1.46c-.11,0-2.2-.59-3.35-4.62h0A43.92,43.92,0,0,0,45,45.94Zm.3,16.21A7.64,7.64,0,0,1,50.47,59a5.45,5.45,0,0,1,2.55.45,9.68,9.68,0,0,0-3.83,6.87,7.86,7.86,0,0,0,1.28,5.73,4.15,4.15,0,0,1-2.41.31,4.1,4.1,0,0,1-2.17-1.1,7.78,7.78,0,0,1-.55-9.14ZM44,80a10.2,10.2,0,0,1,1.32-6.41,6.5,6.5,0,0,0,3.42,1,6.26,6.26,0,0,0,3.18-.9A10.88,10.88,0,0,0,53.76,75c-.59,1.1-1.1,3.17-1.1,6.78v.66c-1.4,2.3-5,1.73-5.79,1.57h0A6.27,6.27,0,0,1,44,80Zm3.28,6.33a12.62,12.62,0,0,0,1.51.1,7.38,7.38,0,0,0,4.45-1.33,7.92,7.92,0,0,0,4.15,4.52c-1.51,4.62-6.64,5.31-8,5.41-3-2.12-2.45-6.73-2-8.7Zm3,10.78c3.09-.4,7.67-2.19,9.18-6.84l.64.1h.24a13.23,13.23,0,0,0,2.87,6.68c-1,5-7.38,5.48-8,5.48-3.34-.16-4.55-3.6-4.94-5.42Zm6.14,7.52c3-.38,7.26-2,8.67-6.07h0a6.92,6.92,0,0,0,1,.44,10.06,10.06,0,0,0,1,3.29,15.29,15.29,0,0,0-.12,5.48c-.81,1.66-3.83,2.25-5.13,2.36a6,6,0,0,1-5.32-5.5Zm9.87,10.69h0a5.74,5.74,0,0,1-3-3.16,9.75,9.75,0,0,0,4.51-2,6.05,6.05,0,0,0,.8,1.1,6.46,6.46,0,0,0,3.75,2l-.22.17c-2.28,1.79-4.24,2.42-5.82,1.88Zm12.38,0c-2.5.59-5.14-1.72-5.16-1.74l-.14-.13h.12a8.39,8.39,0,0,0,1-.06,6.71,6.71,0,0,0,5.16-3.29,3.82,3.82,0,0,0,.26-.54A10.61,10.61,0,0,0,82,112c-.82,1.84-2,2.95-3.31,3.25ZM86.16,110h0a3.58,3.58,0,0,1-2.37.65,10.29,10.29,0,0,1-2.87-3.82h-.1a8.86,8.86,0,0,0-.24-4.76,13.11,13.11,0,0,0,.72-2.61,8.17,8.17,0,0,0,7.39,5.85,7.38,7.38,0,0,1-2.52,4.63Zm3.61-6.81h0a6.24,6.24,0,0,1-6.58-5.25,7.78,7.78,0,0,0,3.72-2.8,10.29,10.29,0,0,0,1.18-2.19,10.24,10.24,0,0,0,5.37,3.73,6.31,6.31,0,0,1-3.69,6.47Zm4.6-8.46c-3-.52-5-3.49-5.48-4.38h0A11.45,11.45,0,0,0,89,88a5.47,5.47,0,0,0,4.48-2.52,8.94,8.94,0,0,0,1-1.84,9.88,9.88,0,0,0,2.93,1.1c1.78,7.68-2.09,9.6-3,9.94Zm6.52-15.8a6.88,6.88,0,0,1-2.49,3.69,7.58,7.58,0,0,1-3.29-1.26,15.58,15.58,0,0,0-.38-7.49h.66a6.73,6.73,0,0,0,4.14-2c1.36,2.61,1.84,5,1.36,7Z"/><rect class="cls-2" width="141.2" height="141.2" rx="70.6"/></g></g></svg>