<svg xmlns="http://www.w3.org/2000/svg" viewBox="0 0 141.2 141.2"><defs><style>.cls-1{}.cls-2{fill:none;}</style></defs><g id="Calque_2" data-name="Calque 2"><g id="Layer_1" data-name="Layer 1"><path class="cls-1" d="M106.16,63.2a21.15,21.15,0,0,0-19-14.93V45a10.72,10.72,0,0,1,3.17-7.65,1.22,1.22,0,0,0-1.73-1.73,13.07,13.07,0,0,0-2.48,3.55,9.25,9.25,0,0,0-1.67-2.37h0a9.25,9.25,0,0,0-6.55-2.71H76.48a1.22,1.22,0,0,0-1.22,1.22V36.7A9.25,9.25,0,0,0,84.51,46h.16v2.32A21.14,21.14,0,0,0,65.22,74.08H35.33a1.22,1.22,0,0,0-1.22,1.22A31.77,31.77,0,0,0,94.68,88.74,21.27,21.27,0,0,0,106.16,63.2ZM84.51,43.51A6.81,6.81,0,0,1,77.7,36.7v-.16h.16a6.81,6.81,0,0,1,6.8,6.81v.16Zm6,33a24.61,24.61,0,0,1-49.17,0ZM65.89,104.65A29.38,29.38,0,0,1,36.57,76.52h2.29a27.06,27.06,0,0,0,54.07,0h2.29A29.39,29.39,0,0,1,65.89,104.65ZM96.13,85.11a31.83,31.83,0,0,0,1.56-9.81,1.22,1.22,0,0,0-1.22-1.22H67.72A18.86,18.86,0,0,1,80.38,51.49,18.74,18.74,0,0,1,96.13,85.11Z"/><path class="cls-1" d="M65.81,95.82A1.87,1.87,0,0,0,67.67,94c0-1-1.86-3.77-1.86-3.77S63.94,92.92,63.94,94A1.88,1.88,0,0,0,65.81,95.82Z"/><path class="cls-1" d="M76.2,93.33a1.86,1.86,0,0,0,.68-2.55c-.51-.89-3.49-2.33-3.49-2.33s-.25,3.3.26,4.2A1.87,1.87,0,0,0,76.2,93.33Z"/><path class="cls-1" d="M81.41,86.65A1.85,1.85,0,0,0,84,86a1.87,1.87,0,0,0-.68-2.55c-.89-.51-4.2-.26-4.2-.26S80.52,86.14,81.41,86.65Z"/><path class="cls-1" d="M50.76,85.71c.89-.52,2.33-3.51,2.33-3.51s-3.31-.24-4.2.27a1.87,1.87,0,0,0,1.87,3.24Z"/><path class="cls-1" d="M55.56,92.78a1.87,1.87,0,0,0,2.55-.68c.51-.89.27-4.2.27-4.2s-3,1.44-3.5,2.33A1.86,1.86,0,0,0,55.56,92.78Z"/><path class="cls-1" d="M51.09,67.26a16.32,16.32,0,1,0-11.55-4.78A16.22,16.22,0,0,0,51.09,67.26Zm0-30.37A14,14,0,1,1,37,50.94,14.06,14.06,0,0,1,51.09,36.89Z"/><path class="cls-1" d="M44.25,61.31a12.18,12.18,0,0,0,4.36,1.8,3,3,0,0,0,.59.06,3,3,0,0,0,1.88-.66,3,3,0,0,0,2.48.6,12.4,12.4,0,0,0,4.38-1.81,3,3,0,0,0,1.33-2.18,3,3,0,0,0,2.19-1.35,12.29,12.29,0,0,0,1.8-4.36,3,3,0,0,0-.6-2.48,3,3,0,0,0,.6-2.48,12.48,12.48,0,0,0-1.81-4.38,3,3,0,0,0-2.19-1.32,3,3,0,0,0-1.34-2.19,12.38,12.38,0,0,0-4.36-1.81,3.05,3.05,0,0,0-2.48.61,3,3,0,0,0-2.48-.6,12.36,12.36,0,0,0-4.37,1.81,3,3,0,0,0-1.33,2.18,3.06,3.06,0,0,0-2.2,1.35,12.55,12.55,0,0,0-1.8,4.36,3,3,0,0,0,.61,2.47,3,3,0,0,0-.6,2.49,12.07,12.07,0,0,0,1.81,4.37,3,3,0,0,0,2.18,1.33A3,3,0,0,0,44.25,61.31ZM61,53a10.18,10.18,0,0,1-1.47,3.56.78.78,0,0,1-1.16.12l-4.57-4.57h6.46A.76.76,0,0,1,61,53ZM58.4,45.23a.77.77,0,0,1,1.15.1A10.1,10.1,0,0,1,61,48.9a.77.77,0,0,1-.15.62.76.76,0,0,1-.59.28H53.83Zm-6.17-3.5A.75.75,0,0,1,53,41h.15a10.1,10.1,0,0,1,3.56,1.47A.79.79,0,0,1,57,43a.76.76,0,0,1-.22.61l-4.57,4.56Zm0,12,4.57,4.57a.76.76,0,0,1,.22.61.77.77,0,0,1-.33.54A9.8,9.8,0,0,1,53,60.89a.75.75,0,0,1-.52-.21.79.79,0,0,1-.22-.54ZM50,60.14a.75.75,0,0,1-.74.75h-.15a9.92,9.92,0,0,1-3.56-1.47.77.77,0,0,1-.34-.56.75.75,0,0,1,.22-.6L50,53.68ZM45.48,42.46A10.08,10.08,0,0,1,49.21,41a.75.75,0,0,1,.74.76v6.45l-4.57-4.56a.77.77,0,0,1-.22-.61A.75.75,0,0,1,45.48,42.46Zm-4.34,6.45a10.08,10.08,0,0,1,1.46-3.56.76.76,0,0,1,.64-.34.71.71,0,0,1,.53.22l4.57,4.56H41.88a.74.74,0,0,1-.59-.27.72.72,0,0,1-.15-.61Zm0,4.05a.71.71,0,0,1,.15-.61.76.76,0,0,1,.59-.28h6.46l-4.58,4.57a.76.76,0,0,1-1.14-.11A10,10,0,0,1,41.14,53Z"/><rect class="cls-2" width="141.2" height="141.2" rx="70.6"/></g></g></svg>