<svg xmlns="http://www.w3.org/2000/svg" viewBox="0 0 141.2 141.2"><defs><style>.cls-1{fill:none;}.cls-2{}</style></defs><g id="Calque_2" data-name="Calque 2"><g id="Layer_1" data-name="Layer 1"><rect class="cls-1" width="141.2" height="141.2" rx="70.6"/><path class="cls-2" d="M47.54,49.35a1.52,1.52,0,0,0-1,.36L31.2,62.49a2.67,2.67,0,0,1-3.45.08,2.54,2.54,0,0,1-.82-1.84,2.42,2.42,0,0,1,.74-1.82L42.19,44.39A18.85,18.85,0,0,1,53,39.05l6.77-.88a1.57,1.57,0,0,0,1.36-1.75h0a1.6,1.6,0,0,0-1.76-1.36l-6.78.88A22.07,22.07,0,0,0,40,42.18L25.46,56.69a5.63,5.63,0,0,0,0,8l.22.21.13.1-.93,1.18a5.84,5.84,0,0,0,8.38,8.06l5.34-4.54c.09.15.18.31.29.46A5.85,5.85,0,0,0,47,71.29l.28-.22,2.54-2.16h0a5.81,5.81,0,0,0,4,2.3c.24,0,.48,0,.71,0a5.76,5.76,0,0,0,3.7-1.34L69.94,60.3h4.78a27.74,27.74,0,0,0,13.49-3.09l2.71-1.44A1.57,1.57,0,0,0,89.45,53l-2.7,1.44a24.79,24.79,0,0,1-12,2.73H64.2a2.48,2.48,0,0,1-2.55-2.09,2.35,2.35,0,0,1,2.08-2.59H77.28a1.57,1.57,0,1,0,0-3.13ZM64.2,60.3H65l-8.75,7.21A2.7,2.7,0,0,1,52.34,67a.45.45,0,0,1-.06-.12l8.8-7.48A5.82,5.82,0,0,0,64.2,60.3Zm-34.83,6a6,6,0,0,0,3.83-1.38L48.11,52.48H59a5.5,5.5,0,0,0-.51,2.91A5,5,0,0,0,59,57L45.29,68.69a2.77,2.77,0,0,1-2.06.63,2.69,2.69,0,0,1-1.87-1.07,2.64,2.64,0,0,1-.36-.66L52.64,57.7a1.56,1.56,0,0,0-2-2.44l-.07.06L31.2,71.82a2.71,2.71,0,0,1-3.89-3.73l1.46-1.85C29,66.27,29.17,66.28,29.37,66.29Z"/><path class="cls-2" d="M95.57,52.77a1.58,1.58,0,0,0,.87-.26,55.7,55.7,0,0,0,21-26.07,1.57,1.57,0,0,0-2.92-1.14h0A52.56,52.56,0,0,1,94.7,49.91a1.56,1.56,0,0,0,.87,2.86Z"/><path class="cls-2" d="M65.82,37.37H66l9.78-1.29a12.52,12.52,0,0,0,10-7.75l.75-1.86a1.57,1.57,0,0,0-2.9-1.18l-.75,1.87A9.43,9.43,0,0,1,75.41,33l-9.79,1.28a1.57,1.57,0,0,0,.2,3.12Z"/><path class="cls-2" d="M72.1,107a11,11,0,0,0-7.81,5.25,7.82,7.82,0,0,0-7.81.94,7.28,7.28,0,0,0-1.62-.94,7.81,7.81,0,0,0-14.94-2.19,11.29,11.29,0,0,0-3.24.78A11,11,0,0,0,24.39,110,1.56,1.56,0,0,0,26,112.66a7.94,7.94,0,0,1,9.37,1.17,1.58,1.58,0,0,0,1.83.26,7.65,7.65,0,0,1,3.66-.92h.24A1.55,1.55,0,0,0,42.56,112a4.69,4.69,0,0,1,9.24,1.06c0,.05,0,.2,0,.25a1.56,1.56,0,0,0,1.16,1.58,4.74,4.74,0,0,1,2.37,1.46,1.57,1.57,0,0,0,2.21.15l.15-.15a4.69,4.69,0,0,1,6.35-.65,1.56,1.56,0,0,0,1.37.26,1.54,1.54,0,0,0,1-.94,7.86,7.86,0,0,1,6.15-4.91,1.57,1.57,0,0,0,1.32-1.77A1.54,1.54,0,0,0,72.15,107Z"/><path class="cls-2" d="M116.36,104.05a7.24,7.24,0,0,0-2-.27,7.76,7.76,0,0,0-7.25,4.92,10.48,10.48,0,0,0-4.79.12A9.34,9.34,0,0,0,86,108.35a7.94,7.94,0,0,0-8.88-.1,1.57,1.57,0,0,0-.42,2.17,1.55,1.55,0,0,0,2.17.42A4.68,4.68,0,0,1,85.3,112a1.55,1.55,0,0,0,1.26.63,1.23,1.23,0,0,0,.27,0,1.57,1.57,0,0,0,1.23-1.11,6.23,6.23,0,0,1,11.7-.84,2,2,0,0,0,.49.62,3.24,3.24,0,0,1,.43.4,1.58,1.58,0,0,0,1.7.43,7.56,7.56,0,0,1,5.32,0,1.56,1.56,0,0,0,2-.92c0-.1.06-.2.08-.3a4.64,4.64,0,0,1,4.61-4,4.74,4.74,0,0,1,1.18.17,1.56,1.56,0,1,0,.89-3Z"/><path class="cls-2" d="M65.06,75.05A1.56,1.56,0,0,0,63,77.37a4.7,4.7,0,0,1,1.1,5.54,14.15,14.15,0,0,1-10,7.64,11.06,11.06,0,0,1-4.54-.32,4.7,4.7,0,0,1,1.1-8.81l1.47-.07a.76.76,0,0,0,.21,0,4.67,4.67,0,0,0,3.35-2.54,4.69,4.69,0,0,1,2.75-2.38,1.57,1.57,0,0,0-1-3,7.77,7.77,0,0,0-4.58,4,1.56,1.56,0,0,1-1,.83l-1.46.07a1.46,1.46,0,0,0-.22,0,7.83,7.83,0,0,0-2,14.72,11.4,11.4,0,0,0,4.48.73,11.38,11.38,0,0,0,2-.15,17.28,17.28,0,0,0,12.25-9.34A7.84,7.84,0,0,0,65.06,75.05Z"/><path class="cls-2" d="M57.16,82.28a5,5,0,0,1-3.31,2,1.57,1.57,0,0,0,.2,3.12h.21a8.11,8.11,0,0,0,5.42-3.2,1.57,1.57,0,0,0-2.48-1.92Z"/><path class="cls-2" d="M40.31,91.83A6,6,0,0,0,29,92.75c0,.16-.08.32-.11.49A6.28,6.28,0,0,0,32.44,100l2.17,1a5.08,5.08,0,0,0,6.78-6.65l-1.08-2.48ZM37.73,98a1.94,1.94,0,0,1-1.81.1l-2.17-1A3.14,3.14,0,0,1,32,93.76a2.88,2.88,0,0,1,5.48-.67l1.08,2.47A2,2,0,0,1,37.73,98Z"/><path class="cls-2" d="M81.28,87.45l.89-.89a5.07,5.07,0,0,0,.63-6.39l-.17-.26a5.06,5.06,0,0,0-5.44-2.1l-2,.5a5.06,5.06,0,0,0-1,9.44l1.3.65a5.07,5.07,0,0,0,5.84-1ZM76.84,85.6,75.55,85a1.94,1.94,0,0,1-1-2.34h0a1.9,1.9,0,0,1,1.36-1.26l2-.5a1.89,1.89,0,0,1,.47-.06,1.93,1.93,0,0,1,1.61.86l.17.26A1.94,1.94,0,0,1,80,84.35l-.89.88A1.93,1.93,0,0,1,76.84,85.6Z"/><path class="cls-2" d="M64.61,95.92a5.23,5.23,0,0,0-6.52,1.53l-.67.9a5.28,5.28,0,0,0,8.47,6.3c.1-.13.19-.27.28-.41l.58-1A5.22,5.22,0,0,0,65,96.11Zm-.55,5.74-.57,1a2.07,2.07,0,0,1-1.4,1,2.13,2.13,0,0,1-1.75-.45,2.08,2.08,0,0,1-.41-2.92l.67-.9a2.09,2.09,0,0,1,3.54,2.2Z"/></g></g></svg>