<svg xmlns="http://www.w3.org/2000/svg" viewBox="0 0 141.2 141.2"><defs><style>.cls-1{fill:none;}.cls-2{fill-rule:evenodd;}</style></defs><g id="Calque_2" data-name="Calque 2"><g id="Layer_1" data-name="Layer 1"><rect class="cls-1" width="141.2" height="141.2" rx="70.6"/><path class="cls-2" d="M80.58,74.59v2a14,14,0,0,0,14,14h6a2.09,2.09,0,0,0,2-2v-2a14,14,0,0,0-14-14h-6A2,2,0,0,0,80.58,74.59Zm4,2h4a10,10,0,0,1,10,10h-4a10,10,0,0,1-10-10Z"/><path class="cls-2" d="M22.72,74.59v2a14,14,0,0,0,14,14h6a2.08,2.08,0,0,0,2-2v-2a14,14,0,0,0-14-14h-6A2,2,0,0,0,22.72,74.59Zm4,2h4a10,10,0,0,1,10,10h-4a10,10,0,0,1-10-10Z"/><path class="cls-2" d="M24.71,104.52h91.78a2,2,0,0,0,0-4H24.71a2,2,0,0,0,0,4Z"/><path class="cls-2" d="M68.6,64.61v37.91a2,2,0,1,0,4,0V64.61a2,2,0,0,0-4,0Z"/><path class="cls-2" d="M98.53,88.56v14a2,2,0,1,0,4,0v-14a2,2,0,1,0-4,0Z"/><path class="cls-2" d="M40.67,88.56v14a2,2,0,1,0,4,0v-14a2,2,0,1,0-4,0Z"/><path class="cls-2" d="M112.49,76.59h4a2,2,0,0,1,2,2h0a14,14,0,0,1-14,14h-4A2,2,0,0,1,99.12,92a1.74,1.74,0,0,1-.58-1.28v-.13A14,14,0,0,1,112.49,76.59Zm1.8,4h-1.8a10,10,0,0,0-9.77,8h1.8A10,10,0,0,0,114.29,80.58Z"/><path class="cls-2" d="M54.64,76.59h4a2,2,0,0,1,2,2h0a14,14,0,0,1-14,14h-4A2,2,0,0,1,41.26,92a1.74,1.74,0,0,1-.58-1.28v-.13A14,14,0,0,1,54.64,76.59Zm1.79,4H54.64a10,10,0,0,0-9.78,8h1.8A10,10,0,0,0,56.43,80.58Z"/><path class="cls-2" d="M106.51,36.68a2,2,0,0,1,2,2h0A27.93,27.93,0,0,1,80.58,66.61h-10s-2-.12-2-2A27.93,27.93,0,0,1,96.53,36.68Zm-2.08,4A23.92,23.92,0,0,1,80.58,62.62h-7.9A23.94,23.94,0,0,1,96.53,40.67Z"/><path class="cls-2" d="M70.6,68.6h-8A23.93,23.93,0,0,1,38.68,44.67h0a2,2,0,0,1,2-2h8A23.94,23.94,0,0,1,72.6,66.61h0a2,2,0,0,1-2,2ZM42.77,46.66h5.89a20,20,0,0,1,19.85,18H62.62A19.94,19.94,0,0,1,42.77,46.66Z"/></g></g></svg>