<svg xmlns="http://www.w3.org/2000/svg" viewBox="0 0 72.97 105.66"><defs><style>.cls-1{}</style></defs><g id="Calque_2" data-name="Calque 2"><g id="Layer_1" data-name="Layer 1"><path class="cls-1" d="M54.84,89.9c-.5.14-.23.06-.24-.43-.07.28-.1.68-.51.86,0,.25-.26.3-.31.47-.23,0,0,.36-.14.15s-.15.17-.14.19c-.25,0-.59.21-.92.23a6.53,6.53,0,0,1-2,1,9.33,9.33,0,0,1-1.84.55,5.69,5.69,0,0,0-2.71,1.25c-.23.08-.37.19-.3.4-.26.13-.32.45-.53.59-.54.31-1.3.19-1.83.51-.21,0-.14.35-.39.33s-.51.13-.24,0c.1,0,.11-.11.05,0s.07-.15,0-.14c0,.22-.44.26-.75.41s-.82.14-.62.44c-.13.16-.34.18-.47.36s-.38.2-.44.47a1.51,1.51,0,0,1-1.24.45c-.86.05-2.56.09-3.69.21-.28.09-.53.39-.83.44s-.59.54-1,.5c-.4.61-1.27.64-2,.67a2.22,2.22,0,0,0-.55.16c.1.16-.17.14-.28.16-.49.1-.91.3-1.1.07.17.33-.7.22-.92.41s-.62.19-.76,0c.29.22-.35.19-.47.27-1.28,0-.9.28-1.33,1a2.48,2.48,0,0,0-1,.29s0,.14,0,.12-.14.2,0,.09.25,0,0,0c0,.09.08.11.17.08s-.41,0-.52.12a.37.37,0,0,0-.3.38.19.19,0,0,0,0,.24c.08,0,0,.11,0,.06s.12.09.2.06,0-.08,0-.07c0,.18-.27.1-.4.16s-.19.08-.18,0-.23-.2-.18-.06c.36.14-.34.07-.5.11-.16.24-.5.07-.4.36-.27.11-.81.07-.92.41-.15-.07-.49,0-.42.15-.1.19-.43,0-.39.34-.2.11-.27.31-.52.42-.08.09,0,.24-.15.21s-.83,0-.87,0-.08,0-.11.06-.2.21-.27.2-.14,0-.14-.11,0,.1-.07.07-.17-.06-.25-.07-.09.19-.14.12.05-.1,0-.15-.32,0-.28-.13-.07-.15.08-.27c0-.2-.12-.18-.15-.31-.27-.14-.33,0,0,.06-.08.1-.25-.15-.32,0,0-.07-.2-.1-.07-.12a2.14,2.14,0,0,0-.49,0c-.05.19,0-.06-.07-.08s.08-.12,0-.13c-.21-.29-.4,0-.54-.47a5.79,5.79,0,0,0-.65-.28c.11-.09,0-.5-.2-.55a8.86,8.86,0,0,0-3-1.11c-3.06-.6-6.06-1.28-9.09-1.84-.52-.09-1.06-.21-1.59-.32-.24,0-.54-.41-.19-.34,0-.07.4,0,.43.06.11-.25.2-.1.39,0,.35-.61,1.08.57,1.65.44.13-.17.18-.18.36-.14,0-.41.23-.5.65-.41.13-.23.54,0,.72.16.22,0,.31-.32.49,0,.1-.12.19-.13.39,0s.06-.32.16-.07c.27-.15.41.37.49-.08.34,0,.13-.12.31-.3.23,0,0-.37-.09-.35l0-.08c-.2,0-.07-.22-.09-.35s-.06-.32-.15-.33c-.12.14-.08-.1-.2-.14.21-.11,0-.18.13-.28,0-.08-.19-.05-.1-.17.19,0,.25-.47-.14-.23,0-.12-.25-.24,0-.18,0-.11-.29-.19-.26-.38a.47.47,0,0,0,.24-.53c0-.1-.18-.2,0-.25-.08-.1-.07-.18,0-.28,1.55.74.07-1.65.14-2.44-.31-.46.15-1.54-.23-1.7.11-.3-.25-.1-.23-.38-.39.23-1-.52-1.26-.45a3.5,3.5,0,0,1-1.11.64c-1.22-.61.22-1.71-.79-1.58-1,.28-.68-.65-.64-1.36.13-2-1.4-3.8-1.38-5.89C.91,80.37.32,76.94,0,74.38c.31-.3.5-.81.78-1.13.14-.12-.19-.37-.15-.58-1.7-.9,3.73-6.67,4.2-8-.84-1,0-2.72.23-3.87A15.25,15.25,0,0,1,6.57,55.7c.92-.43.9-3.83,1.7-2.26.72-2.71,3.66-1.19,2-3.68a2.43,2.43,0,0,1,.44-.54c3,.36,1-4.11.78-5.81-.54-1,0-4.32-1.19-4.07-.52-.19.31-.4.32-.68a2.09,2.09,0,0,1-.47-1.51A1.18,1.18,0,0,1,9.7,35.6c-1.82-.44-1.92-.15-1.94-2.12a1.68,1.68,0,0,0,1-1.12c1-.46,1-1.17-.06-1.5.49-1.51.72-1.31.47-3.36-1.53-1.11-1.44-1-1.19-2.91-.23-.23-.71-.38-.48-.82-.45-.88,1.55-1.48.58-2.16-.42-.45-.11-1.19.06-1.66C7.44,18.48,7,16.64,8,15.31c-.16-.76-1.55-.55-1.48-1.44.23-.25.08-.95.46-1.1.56.19,1.15-.62.29-.5-1.18-.07-1.33-1.35-1.74-2.19a1.7,1.7,0,0,1,0-2.21c-1.3-.36.82-1.23.48-2.23.36-.35,0-1,.69-1,.74-1-1-2.11,1.12-1.91A177,177,0,0,0,27.21,3c.48-1.56,5.88.63,7.73.09.05-.8,2.16.09,2.62-.19.72-.1.45.33,1,.38.14.3.48.24.49,0a1.5,1.5,0,0,1,1-.48c.43.55,1.94-.19,2.17.46a.44.44,0,0,1,.42-.1c0,.12-.55.45-.11.55.15-.43.2.22.49.16.15.91.71.57.63-.09.1-.28.44-.91.71-.48.08,0,.3-.51.4-.21.82-.28-.06-.5,1.48-.73-.24-.64.21-1.72,1-1.42-.14.23.1.61.27.78a.37.37,0,0,1,.25-.25c.09-.91,1.7,0,.9-1.1.39-.8,2.62,0,2.41.81.88.54,2.76-.88,2.78.79.42,2-.81.92-.66,2.35-.51.78,0,1.92-1,2.32-.11.3.13.73-.24.9.27,2.37,3.89,1.84,4,4.29.09.12.28.18.18.36.11.15.69,1,.61.33.47-.2.78.31,1.3-.06.15.29.41.32.1.62.26.25.4.32.44.72.1,0,.2-.06.27.07-.66.85.48.19.88.34s-.19.31-.25.46c.18.22.12.24-.13.37-.31.93,0,1.78-.23,2.67.29.48,1.42.24,1,1.19-.14.27-.79-.31-.93,0-.08.64.27,1,.45,1.53-1.08.22-.1,1.39-.68,2,0,.2-.15.28-.2.44s.14.3-.05.29c.07.27-.36.89.15.83.23.57.65,1,.45,1.61,1,1.28-1.55.63-2,.87-.53,1.3.92.43,1.14,1.13a1.43,1.43,0,0,1-1,.4c-.08,0-.23-.2-.32-.06,0,.45.33.69.57.88A1.6,1.6,0,0,0,59,28c0-.16-.08-.33.16-.39s.7.14,1-.08c1.83.11,1.11,1,1.64.84,1.24.66.54,1.17.47,2.21-.65.52-.89,1.12-.31,1.73-.58,1-.91.66-.94,1.79C60,35.39,62.47,36.84,61.9,38c-.37.25-.3,1-.88,1-.16-.24-.27-.21-.5-.08.21.66-.72-.31-.83.35.12.26.38.22,0,.44.33.72,1,2.37,1.83,2.56,0,.35.32.55.59.38.25.61,1.18.77,1.57,1.2.73.35.26,1.41,1.15,1.68.31,0,.24.45.28.68s.14.08.08.24c.69.86-.53,1.25-1.25,1.37-.17.47-.56.69-.85,1,.66.72-.38,1.56.11,2.48.09,1.48.33,3.26.39,4.67-.5.06,0,.71-.1,1-.69-.47-.73,1-.63,1.4-1.33.16-1.13,1.92-1.08,2.65.78,2.31,2.32-.49,2.4,2.37a27.22,27.22,0,0,1-1,3.11c.46.59-.23,1.08,0,1.78-.36.38-1.44.31-1.4,1.08,1.37.38.19,1.17.26,2,.31-.12.86.21.87.49-.2-.1-.32-.21-.21.07-.09,1.21,1.69-.26,1.13,1.92-.18.58.07,1.15.67,1.11.18.59.09.47.77.36.6.53-.71,1.36.23,2,.88,1.12,2.67,2.47,4.2,2.3.58,1.57,1.39,3.08,3.2,2.76.21,1.33-1.89,1.21-2.34,2.42-.47.86-.56.47-.83,0-.16,0-.11-.07-.12-.19a.21.21,0,0,0,.22.09c-.11,0-.11-.12,0-.09a.17.17,0,0,0-.16-.06.47.47,0,0,0,.14-.08s-.32,0-.21.12c-.08-.11-.14-.11-.26,0-.62,0-.22-.22-.4-.21s-.38-.07-.33.22c.2-.06-.14.35,0,.13-.08,0-.21,0-.16.08s-.33.06-.1.19c.06,0,.35,0,.11.07-.14,0-.24-.07-.26.06,0,0-.36,0-.29-.06s.19-.09.18-.15c-.37.16-.29,0-.23.35,0,0,0-.1-.13-.06.09,0,.1.15,0,.16-.09-.27-.18,0,0,0,0,.15-.18.11-.29.13-.22.37.41.26.48.38.29,0,.12.26.06.45a.91.91,0,0,0-.37.31,1,1,0,0,0,0,.34c0-.07.09,0,.09-.05s.33-.37.23-.12c-.21-.1-.14.06,0,.09s0-.09,0-.07,0-.1,0-.08c.47-.33.14.25.48.27.12.12-.1.2-.12.32s0,.2,0,.08c-.27,0-.66.3-.83.14,0,.13.69.14.32.25,0,.06.14,0,.14-.06s.11,0,.17,0,.07.24.14.31a1.62,1.62,0,0,0,.94-.67c.28-.13-.23-.54.09-.53a.66.66,0,0,1,.1-.31c0-.06,0-.28.14-.24,0,.11.1,0,0,0,.13.09,0-.13.14-.18a2.27,2.27,0,0,1-.94,2.19,11.52,11.52,0,0,1-3.63.3c0-.16.18-.11.09-.25-.24-.15-.1-.45.16-.25-.18-.3-.46.18-.18.2.09.18-.12.13-.07.31-.26,0-.69-.06-.23,0,.06-.22.21.17.09-.1-.15.08-.17.12-.34,0a6,6,0,0,1-2.23,0c-.08,0-.42,0-.21-.12,0-.08-.37.07-.43,0s-.39-.06-.2-.08.2,0,.38,0c0,0,.07-.09,0,0s0-.22,0-.29c.18.09.14-.16.34-.16s.15-.14.41-.18c0-.1,0-.24-.13-.18s.13.17-.08.17c0,.14-.13.13-.22.18s.05-.53-.24-.44c-.08.13-.15.21,0,.34-.13.06-.14.19,0,.19-.3.29-.24,0-.47.13-.11-.13-.08-.25-.22-.3s-.08.07-.1,0,.13-.06,0-.09c.06-.18-.07-.21-.23-.15,0-.07,0-.07-.06,0-.2-.08-.29.09-.16-.16,0,.09-.28.14-.27,0-.17,0,0,.1,0,.13s-.21-.16-.3-.06-.14.18,0,.14c.25-.31.46.47.07.36-.59-.19.45.33.47.22s0-.07.15-.05.09.12,0,.13.21,0,.23.08.18-.15.28-.07,0,.06,0,.09-.09-.11-.13,0,.48,0,.63.08a5.41,5.41,0,0,1-1.34-.11c-1.14.19-2.58.09-3.61.77-.49-.19-1.28.68-2.07.78"/></g></g></svg>