<svg xmlns="http://www.w3.org/2000/svg" viewBox="0 0 141.2 141.2"><defs><style>.cls-1{}.cls-2{fill:none;}</style></defs><g id="Calque_2" data-name="Calque 2"><g id="Layer_1" data-name="Layer 1"><path class="cls-1" d="M106.51,42.82a1.45,1.45,0,0,0-.47-1.1l-8.11-8.11a1.51,1.51,0,0,0-2.19,0L89.5,39.85c-4.06-2.34-7.81-2.5-9.68-.62a6.24,6.24,0,0,0-1.09,1.71,4.09,4.09,0,0,0-.94.78,184.23,184.23,0,0,1-42,58.38c-3.12,3.44.94,8,4.68,8a4.09,4.09,0,0,0,1.88-.47C63,98.07,85.13,79.81,99,61.23c.15-.15.15-.46.31-.62a2.82,2.82,0,0,0,1.09-.78c2-2,1.72-5.46-.62-9.68L106,43.91A1.43,1.43,0,0,0,106.51,42.82ZM38,102.29a186.18,186.18,0,0,0,41.2-56v.16A25,25,0,0,0,84,53.74c-3.27,5.62-20.6,33.41-46.2,49C37.83,102.6,38,102.44,38,102.29Zm3.12,2.49a1.67,1.67,0,0,1-.78.16c24.82-15.45,41.83-41.83,46-48.86a19.47,19.47,0,0,0,8.9,4.84C81.69,78.56,60.62,95.73,41.11,104.78ZM96.68,48.9a1.44,1.44,0,0,0-.16,1.88c2.19,3.43,2.5,6.08,1.72,6.86a1.88,1.88,0,0,1-1.41.47h0c-2,0-5.93-1.71-9.67-5.46a22.17,22.17,0,0,1-5-7.18c-.62-1.87-.78-3.28-.16-3.9a1.75,1.75,0,0,1,1.25-.47,11.72,11.72,0,0,1,5.62,2.18,1.43,1.43,0,0,0,1.88-.15L96.83,37,102.76,43Z"/><rect class="cls-2" width="141.2" height="141.2" rx="70.6"/></g></g></svg>