<svg xmlns="http://www.w3.org/2000/svg" viewBox="0 0 141.2 141.2"><defs><style>.cls-1{}.cls-2{fill:none;}</style></defs><g id="Calque_2" data-name="Calque 2"><g id="Layer_1" data-name="Layer 1"><path class="cls-1" d="M97.83,91H90.91V87.27a3.52,3.52,0,0,0,1.44.28,8.26,8.26,0,0,0,3.49-.84c1.11-.62,2.38-3.07,2.88-4.09a1,1,0,0,0,0-.92,1,1,0,0,0-.77-.49c-1.13-.11-3.89-.28-5,.34a8.24,8.24,0,0,0-2,1.85V80.83a3.52,3.52,0,0,0,1.44.27,8.43,8.43,0,0,0,3.49-.83c1.11-.62,2.38-3.07,2.88-4.09a1,1,0,0,0,0-.92,1,1,0,0,0-.77-.5c-1.13-.1-3.89-.28-5,.35a8.18,8.18,0,0,0-2,1.84V74.38a3.52,3.52,0,0,0,1.44.28,8.43,8.43,0,0,0,3.49-.83c1.11-.62,2.38-3.07,2.88-4.1a1,1,0,0,0,0-.91,1,1,0,0,0-.77-.5c-1.13-.11-3.89-.28-5,.34a8.24,8.24,0,0,0-2,1.85V67.94a3.52,3.52,0,0,0,1.44.27,8.43,8.43,0,0,0,3.49-.83c1.11-.62,2.38-3.07,2.88-4.09a1,1,0,0,0,0-.92,1,1,0,0,0-.77-.5c-1.13-.1-3.89-.28-5,.35a8.18,8.18,0,0,0-2,1.84V61.49a3.52,3.52,0,0,0,1.44.28,8.43,8.43,0,0,0,3.49-.83c1.11-.62,2.38-3.07,2.88-4.1a1,1,0,0,0,0-.91,1,1,0,0,0-.77-.5c-1.13-.11-3.89-.28-5,.34a8.24,8.24,0,0,0-2,1.85V57c1.35-1,2-3.64,2-4.58,0-1.26-1.5-3.58-2.15-4.52a1,1,0,0,0-1.63,0c-.65.94-2.15,3.26-2.15,4.52,0,.94.63,3.62,2,4.57v.61a8.24,8.24,0,0,0-2-1.85c-1.1-.62-3.85-.45-5-.35a1,1,0,0,0-.77.5.94.94,0,0,0,0,.92c.5,1,1.77,3.47,2.87,4.09a8.48,8.48,0,0,0,3.49.83,3.54,3.54,0,0,0,1.45-.27v2.57a8.24,8.24,0,0,0-2-1.85c-1.1-.62-3.85-.45-5-.34a1,1,0,0,0-.77.5.92.92,0,0,0,0,.91c.5,1,1.77,3.48,2.87,4.1a8.48,8.48,0,0,0,3.49.83,3.54,3.54,0,0,0,1.45-.28V70.5a8.18,8.18,0,0,0-2-1.84c-1.1-.63-3.85-.45-5-.35a1,1,0,0,0-.77.5.94.94,0,0,0,0,.92c.5,1,1.77,3.47,2.87,4.09a8.48,8.48,0,0,0,3.49.83,3.54,3.54,0,0,0,1.45-.27V77a8.24,8.24,0,0,0-2-1.85c-1.1-.62-3.85-.45-5-.34a1,1,0,0,0-.77.49.94.94,0,0,0,0,.92c.5,1,1.77,3.47,2.87,4.09a8.46,8.46,0,0,0,3.49.84,3.54,3.54,0,0,0,1.45-.28v2.57a8.24,8.24,0,0,0-2-1.85c-1.1-.61-3.85-.44-5-.34a1,1,0,0,0-.77.5.94.94,0,0,0,0,.92c.5,1,1.77,3.47,2.87,4.09a8.48,8.48,0,0,0,3.49.83,3.71,3.71,0,0,0,1.45-.27V91H71.14V87.27a3.49,3.49,0,0,0,1.44.28,8.3,8.3,0,0,0,3.49-.84c1.1-.62,2.38-3.07,2.88-4.09a1,1,0,0,0-.8-1.41c-1.14-.11-3.89-.28-5,.34a7.9,7.9,0,0,0-2,1.85V80.83a3.49,3.49,0,0,0,1.44.27,8.48,8.48,0,0,0,3.49-.83c1.1-.62,2.38-3.07,2.88-4.09a1,1,0,0,0-.8-1.42c-1.14-.1-3.89-.28-5,.35a7.84,7.84,0,0,0-2,1.84V74.38a3.49,3.49,0,0,0,1.44.28,8.48,8.48,0,0,0,3.49-.83c1.1-.62,2.38-3.07,2.88-4.1a1,1,0,0,0-.8-1.41c-1.14-.11-3.89-.28-5,.34a7.9,7.9,0,0,0-2,1.85V67.94a3.49,3.49,0,0,0,1.44.27,8.48,8.48,0,0,0,3.49-.83c1.1-.62,2.38-3.07,2.88-4.09a1,1,0,0,0-.8-1.42c-1.14-.1-3.89-.28-5,.35a7.84,7.84,0,0,0-2,1.84V61.49a3.49,3.49,0,0,0,1.44.28,8.48,8.48,0,0,0,3.49-.83c1.1-.62,2.38-3.07,2.88-4.1a1,1,0,0,0-.8-1.41c-1.14-.11-3.89-.28-5,.34a7.9,7.9,0,0,0-2,1.85V57c1.34-1,2-3.64,2-4.58,0-1.26-1.51-3.58-2.16-4.52a1,1,0,0,0-1.62,0c-.65.94-2.16,3.26-2.16,4.52,0,.94.64,3.62,2,4.57v.61a7.9,7.9,0,0,0-2-1.85c-1.1-.62-3.85-.45-5-.35a1,1,0,0,0-.8,1.42c.5,1,1.78,3.47,2.88,4.09a8.48,8.48,0,0,0,3.49.83,3.46,3.46,0,0,0,1.44-.27v2.57a7.9,7.9,0,0,0-2-1.85c-1.1-.62-3.85-.45-5-.34a1,1,0,0,0-.8,1.41c.5,1,1.78,3.48,2.88,4.1a8.48,8.48,0,0,0,3.49.83,3.46,3.46,0,0,0,1.44-.28V70.5a7.84,7.84,0,0,0-2-1.84c-1.1-.63-3.85-.45-5-.35a1,1,0,0,0-.8,1.42c.5,1,1.78,3.47,2.88,4.09a8.48,8.48,0,0,0,3.49.83,3.46,3.46,0,0,0,1.44-.27V77a7.9,7.9,0,0,0-2-1.85c-1.1-.62-3.85-.45-5-.34a1,1,0,0,0-.8,1.41c.5,1,1.78,3.47,2.88,4.09a8.46,8.46,0,0,0,3.49.84,3.46,3.46,0,0,0,1.44-.28v2.57a7.9,7.9,0,0,0-2-1.85c-1.1-.61-3.85-.44-5-.34a1,1,0,0,0-.8,1.42c.5,1,1.78,3.47,2.88,4.09a8.48,8.48,0,0,0,3.49.83,3.63,3.63,0,0,0,1.44-.27V91H51.37V87.27a3.46,3.46,0,0,0,1.44.28,8.3,8.3,0,0,0,3.49-.84c1.1-.62,2.38-3.07,2.87-4.09a1,1,0,0,0,0-.92,1,1,0,0,0-.77-.49c-1.14-.11-3.9-.28-5,.34a7.9,7.9,0,0,0-2,1.85V80.83a3.46,3.46,0,0,0,1.44.27,8.48,8.48,0,0,0,3.49-.83c1.1-.62,2.38-3.07,2.87-4.09a1,1,0,0,0,0-.92,1,1,0,0,0-.77-.5c-1.14-.1-3.9-.28-5,.35a7.84,7.84,0,0,0-2,1.84V74.38a3.46,3.46,0,0,0,1.44.28,8.48,8.48,0,0,0,3.49-.83c1.1-.62,2.38-3.07,2.87-4.1a1,1,0,0,0,0-.91,1,1,0,0,0-.77-.5c-1.14-.11-3.9-.28-5,.34a7.9,7.9,0,0,0-2,1.85V67.94a3.46,3.46,0,0,0,1.44.27,8.48,8.48,0,0,0,3.49-.83c1.1-.62,2.38-3.07,2.87-4.09a1,1,0,0,0,0-.92,1,1,0,0,0-.77-.5c-1.14-.1-3.9-.28-5,.35a7.66,7.66,0,0,0-2,1.84V61.49a3.46,3.46,0,0,0,1.44.27,8.32,8.32,0,0,0,3.49-.83c1.1-.62,2.38-3.07,2.87-4.09a1,1,0,0,0-.79-1.41c-1.14-.11-3.9-.28-5,.34a7.9,7.9,0,0,0-2,1.85V57c1.34-.95,2-3.63,2-4.57,0-1.26-1.5-3.58-2.15-4.52a1,1,0,0,0-1.63,0c-.64.94-2.15,3.26-2.15,4.52,0,.94.63,3.62,2,4.57v.61a8.06,8.06,0,0,0-2-1.85c-1.1-.62-3.85-.45-5-.35a1,1,0,0,0-.8,1.42c.5,1,1.77,3.47,2.88,4.09a8.43,8.43,0,0,0,3.49.83,3.49,3.49,0,0,0,1.44-.27v2.57a8.06,8.06,0,0,0-2-1.85c-1.1-.62-3.85-.45-5-.34a1,1,0,0,0-.8,1.41c.5,1,1.77,3.48,2.88,4.1a8.39,8.39,0,0,0,3.49.83,3.49,3.49,0,0,0,1.44-.28V70.5a8,8,0,0,0-2-1.84c-1.1-.63-3.85-.45-5-.35a1,1,0,0,0-.8,1.42c.5,1,1.77,3.47,2.88,4.09a8.39,8.39,0,0,0,3.49.83,3.49,3.49,0,0,0,1.44-.27V77a8.06,8.06,0,0,0-2-1.85c-1.1-.62-3.85-.45-5-.34a1,1,0,0,0-.8,1.41c.5,1,1.77,3.47,2.88,4.09A8.37,8.37,0,0,0,48,81.1a3.49,3.49,0,0,0,1.44-.28v2.57a8.06,8.06,0,0,0-2-1.85c-1.1-.61-3.85-.44-5-.34a1,1,0,0,0-.8,1.42c.5,1,1.77,3.47,2.88,4.09a8.39,8.39,0,0,0,3.49.83,3.66,3.66,0,0,0,1.44-.27V91H42.47a1,1,0,0,0,0,2H97.83a1,1,0,1,0,0-2ZM93.9,83.27a7.72,7.72,0,0,1,2.34-.18A7.53,7.53,0,0,1,94.88,85a6.24,6.24,0,0,1-3,.56A6,6,0,0,1,93.9,83.27Zm0-6.45a7.72,7.72,0,0,1,2.34-.18,7.87,7.87,0,0,1-1.36,1.91,6.11,6.11,0,0,1-3,.55A6.17,6.17,0,0,1,93.9,76.82Zm0-6.44a7.72,7.72,0,0,1,2.34-.18,7.74,7.74,0,0,1-1.36,1.9,6.24,6.24,0,0,1-3,.56A6,6,0,0,1,93.9,70.38Zm0-6.44a8,8,0,0,1,2.34-.19,7.87,7.87,0,0,1-1.36,1.91,6.11,6.11,0,0,1-3,.55A6.07,6.07,0,0,1,93.9,63.94Zm0-6.45a8.07,8.07,0,0,1,2.34-.18,7.53,7.53,0,0,1-1.36,1.9,6.26,6.26,0,0,1-3,.56A6.1,6.1,0,0,1,93.9,57.49ZM85,59.21a7.23,7.23,0,0,1-1.37-1.9,7.68,7.68,0,0,1,2.34.18,6.1,6.1,0,0,1,2,2.28A6.18,6.18,0,0,1,85,59.21Zm0,6.45a7.63,7.63,0,0,1-1.37-1.9,7.68,7.68,0,0,1,2.34.18,6.07,6.07,0,0,1,2,2.27A6,6,0,0,1,85,65.66Zm0,6.44a7.23,7.23,0,0,1-1.37-1.9,7.68,7.68,0,0,1,2.34.18,6.1,6.1,0,0,1,2,2.28A6.18,6.18,0,0,1,85,72.1Zm0,6.45a7.55,7.55,0,0,1-1.37-1.91,7.57,7.57,0,0,1,2.34.19,6.07,6.07,0,0,1,2,2.27A6,6,0,0,1,85,78.55ZM85,85a7.23,7.23,0,0,1-1.37-1.9,7.68,7.68,0,0,1,2.34.18,6.1,6.1,0,0,1,2,2.28A6.18,6.18,0,0,1,85,85Zm4.94-34.67a7.23,7.23,0,0,1,1,2.12,6.1,6.1,0,0,1-1,2.88,6.21,6.21,0,0,1-1-2.88A7.4,7.4,0,0,1,89.92,50.32ZM74.13,83.27a7.68,7.68,0,0,1,2.33-.18A7,7,0,0,1,75.1,85a6.22,6.22,0,0,1-3,.56A6.14,6.14,0,0,1,74.13,83.27Zm0-6.45a7.68,7.68,0,0,1,2.33-.18,7.35,7.35,0,0,1-1.36,1.91,6.09,6.09,0,0,1-3,.55A6.3,6.3,0,0,1,74.13,76.82Zm0-6.44a7.68,7.68,0,0,1,2.33-.18,7.23,7.23,0,0,1-1.36,1.9,6.22,6.22,0,0,1-3,.56A6.14,6.14,0,0,1,74.13,70.38Zm0-6.44a7.91,7.91,0,0,1,2.33-.19,7.35,7.35,0,0,1-1.36,1.91,6.09,6.09,0,0,1-3,.55A6.19,6.19,0,0,1,74.13,63.94Zm0-6.45a8,8,0,0,1,2.33-.18,7,7,0,0,1-1.36,1.9,6.22,6.22,0,0,1-3,.56A6.1,6.1,0,0,1,74.13,57.49ZM65.2,59.21a7,7,0,0,1-1.36-1.9,7.6,7.6,0,0,1,2.33.18,6.22,6.22,0,0,1,2,2.28A6.24,6.24,0,0,1,65.2,59.21Zm0,6.45a7.42,7.42,0,0,1-1.36-1.9,7.6,7.6,0,0,1,2.33.18,6.1,6.1,0,0,1,2,2.27A6.09,6.09,0,0,1,65.2,65.66Zm0,6.44a7,7,0,0,1-1.36-1.9,7.6,7.6,0,0,1,2.33.18,6.13,6.13,0,0,1,2,2.28A6.22,6.22,0,0,1,65.2,72.1Zm0,6.45a7.35,7.35,0,0,1-1.36-1.91,7.49,7.49,0,0,1,2.33.19,6.1,6.1,0,0,1,2,2.27A6.09,6.09,0,0,1,65.2,78.55Zm0,6.44a7,7,0,0,1-1.36-1.9,7.6,7.6,0,0,1,2.33.18,6.13,6.13,0,0,1,2,2.28A6.22,6.22,0,0,1,65.2,85Zm5-34.67a7.23,7.23,0,0,1,1,2.12,6.1,6.1,0,0,1-1,2.88,6.21,6.21,0,0,1-1-2.88A7.23,7.23,0,0,1,70.15,50.32ZM54.36,83.27a7.6,7.6,0,0,1,2.33-.18A7,7,0,0,1,55.33,85a6.24,6.24,0,0,1-3,.56A6,6,0,0,1,54.36,83.27Zm0-6.45a7.6,7.6,0,0,1,2.33-.18,7.35,7.35,0,0,1-1.36,1.91,6.11,6.11,0,0,1-3,.55A6.12,6.12,0,0,1,54.36,76.82Zm0-6.44a7.6,7.6,0,0,1,2.33-.18,7.23,7.23,0,0,1-1.36,1.9,6.24,6.24,0,0,1-3,.56A6,6,0,0,1,54.36,70.38Zm0-6.44a7.83,7.83,0,0,1,2.33-.19,7.35,7.35,0,0,1-1.36,1.91,6.11,6.11,0,0,1-3,.55A6,6,0,0,1,54.36,63.94Zm0-6.45a8,8,0,0,1,2.33-.18,7,7,0,0,1-1.36,1.9,6.26,6.26,0,0,1-3,.56A6.13,6.13,0,0,1,54.36,57.49Zm-8.93,1.72a7,7,0,0,1-1.36-1.9,7.64,7.64,0,0,1,2.33.18,6.1,6.1,0,0,1,2,2.28A6.22,6.22,0,0,1,45.43,59.21Zm0,6.45a7.42,7.42,0,0,1-1.36-1.9,7.64,7.64,0,0,1,2.33.18,6.19,6.19,0,0,1,2,2.27A6.09,6.09,0,0,1,45.43,65.66Zm0,6.44a7,7,0,0,1-1.36-1.9,7.64,7.64,0,0,1,2.33.18,6.22,6.22,0,0,1,2,2.28A6.22,6.22,0,0,1,45.43,72.1Zm0,6.45a7.35,7.35,0,0,1-1.36-1.91,7.53,7.53,0,0,1,2.33.19,6.19,6.19,0,0,1,2,2.27A6.09,6.09,0,0,1,45.43,78.55Zm0,6.44a7,7,0,0,1-1.36-1.9,7.64,7.64,0,0,1,2.33.18,6.22,6.22,0,0,1,2,2.28A6.22,6.22,0,0,1,45.43,85Zm5-34.67a7.52,7.52,0,0,1,1,2.12,6.17,6.17,0,0,1-1,2.87,6,6,0,0,1-1-2.87A7.23,7.23,0,0,1,50.38,50.32Z"/><rect class="cls-2" width="141.2" height="141.2" rx="70.6"/></g></g></svg>