<svg xmlns="http://www.w3.org/2000/svg" viewBox="0 0 141.2 141.2"><defs><style>.cls-1{}.cls-2{fill:none;}</style></defs><g id="Calque_2" data-name="Calque 2"><g id="Layer_1" data-name="Layer 1"><path class="cls-1" d="M34,74.68c-3.39-4.61-9.15-3.21-10.66,2C25.88,73.5,29.78,72.43,34,74.68Zm54.71,33.38c.33-6.55.57-7.23.53-15.88,1.63,5.48,2,9.89,2.26,15.88Zm-40.38,0c-.17-5.74-.58-30.35-4.6-34.28,1.84,10.39,1.13,23.3,1.82,34.28Zm4.21,0A122.65,122.65,0,0,1,61.2,44.71C53.12,56.89,49.09,70.5,47.89,84.62a187.06,187.06,0,0,1,1.43,23.44Zm-12.8-25a107,107,0,0,1,4.47,16.25c0-2.13,0-4.27-.09-6.42A99.74,99.74,0,0,0,31,54.22c3.85,9.15,6.51,19.22,8.71,28.86ZM36,77.7a9.27,9.27,0,0,0-3.94-2.62c6.52,7.71,8.87,22.92,9.22,33h3.29c-1.4-9.29-3.93-22.2-8.57-30.36Zm73.37,27.39a14.13,14.13,0,0,0-.27,3h2.66c0-5.83,2.31-14.23,6.09-18.81a18.15,18.15,0,0,0-5.26,5.53,77.29,77.29,0,0,1-3.22,10.3Zm-2.41,3c3.32-6.08,5.07-13.82,5.85-20.43a66.7,66.7,0,0,1-5.7,12c-.39,2.68-.69,5.47-.91,8.39Zm-66.78,0A88.83,88.83,0,0,0,38.7,94.38c-1.47-4.33-3.88-9-7.4-12.08,4.57,7,5.76,17.65,6.4,25.77Zm64.92,0c.74-10.15,2.67-20.79,7-29.94-6.16,5.1-8.5,14.07-9.47,21.66q-.08,3.94,0,8.28Zm-3.61,0c-.13-9.22.06-19,1.63-28.11A25,25,0,0,0,98.92,87c-.25,7-.25,14-.08,21.06Zm-4.6,0a223.21,223.21,0,0,0-5.32-35.31c-.56,2.74-1,5.49-1.43,8.25,1.14,9,1.87,18,2.38,27.06Zm-9.48,0A161,161,0,0,1,93,62.35,104.77,104.77,0,0,0,84.6,85.89a195.38,195.38,0,0,0,.09,22.18Zm-3.86,0a188.8,188.8,0,0,1,2.52-44.73q-.66-3-1.45-6c-3.55,11.88-5,26-6.47,38.29a110.52,110.52,0,0,1,.65,12.41Zm-5.84,0c0-13.81-2.08-23.25-6-36.59q-.86,2.52-1.55,5.23c2.66,10.58,3.74,20.46,2.54,31.36Zm-8,0c.86-2.56,1.58-5.2,2.33-7.79a75.38,75.38,0,0,0-.35-8.63c-1.28,4.42-2.72,8.74-4.24,13.07,0,1.1.07,2.22.12,3.34h2.14Zm-3.24,0c-.7-15.16.52-31.41,7.52-44.89-9.47,13.11-12.57,28.75-11.87,44.89Zm-6.13,0C58.4,92.79,57.64,75.47,57,60q-1.36,4.92-2.31,9.9c.07,12.71.76,25.48,1.59,38.16Zm53.81,1.1H35.43a1.22,1.22,0,0,0,0,2.44h78.79A1.22,1.22,0,0,0,114.22,109.17ZM70.39,66.75c-1.69-5.86-4.23-13.11-4.92-18.92-1.27,5.52,1.74,16.13,3.17,22,.55-1.06,1.13-2.09,1.75-3.11ZM62.92,85.57A98.71,98.71,0,0,1,65.37,60.8c-.2-.95-.39-1.88-.56-2.78-4.37,8.6-5.52,18.81-5.35,28.34.4,6,.82,11.94,1.54,17.87a81.26,81.26,0,0,1,1.92-18.67Zm32.5.45a33.38,33.38,0,0,1,2.66-4.47c.57-9.41,1.53-19,3.9-28.13-3.83,9.41-5.68,20.35-6.93,30.38.13.74.25,1.47.38,2.23Zm3.85-6a23.61,23.61,0,0,1,4.86-4.49,70.79,70.79,0,0,0,5.23-22.66c-1.13,4.29-10.07,27-10.09,27.15ZM97.72,90.5a41.63,41.63,0,0,0-1,4.42q.52,4.31,1,9c-.06-4.46,0-8.91.06-13.37Zm-1.45,1.18c1.85-7.43,5.53-13.82,12.28-17.35C102.45,76.89,98.36,82,95.73,88q.27,1.83.54,3.72Zm-7.78-22c.44-1.09.89-2.17,1.37-3.25a71,71,0,0,0-4.93-12.14,137.79,137.79,0,0,1,3.56,15.39Zm-2.63-16c.52,1,1,2,1.51,3.06,1-4.6,2.11-9.2,3.42-13.78a56.27,56.27,0,0,0-4.94,10.72ZM75.77,82.1a71.35,71.35,0,0,0,.82-11.4c-.4,2.84-1,5.63-1.58,8.43.26,1,.51,2,.76,3ZM67.65,53.3l.27,1,1.29-3.45a17.67,17.67,0,0,0-1.56,2.45ZM54.2,55.07c.76-1.66,1.56-3.28,2.42-4.87a74.3,74.3,0,0,1,.87-19c-3.26,5.55-3.36,17.55-3.28,23.82ZM49.74,67.45c-.42-11.63-5.37-31-15.77-37.86C43.36,40.22,47.2,66.64,47.61,77.47a92.47,92.47,0,0,1,2.13-10Zm-9.26-23C38.34,51.81,38.19,60,38.77,67.54,40,70.63,41.05,73.79,42,77a152.49,152.49,0,0,1,.13-27.28c-.48-1.76-1-3.51-1.61-5.23Zm2.43-6.18c.32.56.63,1.13.93,1.72a38.28,38.28,0,0,1,2.67-7.09,28.47,28.47,0,0,0-3.6,5.37Z"/><rect class="cls-2" width="141.2" height="141.2" rx="70.6"/></g></g></svg>