<svg xmlns="http://www.w3.org/2000/svg" viewBox="0 0 141.2 141.2"><defs><style>.cls-1{}.cls-2{fill:none;}</style></defs><g id="Calque_2" data-name="Calque 2"><g id="Layer_1" data-name="Layer 1"><path class="cls-1" d="M50.86,38.63l-4.72-6.47a2.27,2.27,0,0,0-2.27-.87A2.15,2.15,0,0,0,42.2,33l-.52,2.8-5.16-2.1a2.26,2.26,0,0,0-2.44.44,2.1,2.1,0,0,0-.44,2.44l2.18,5.16L33,42.22a2,2,0,0,0-1.66,1.66,2.27,2.27,0,0,0,.87,2.27l6.47,4.72C29.62,66.08,31.37,87,42.82,98.42A39.31,39.31,0,0,0,98.41,42.83C87,31.38,66.07,29.63,50.86,38.63Zm-5,56.73C35.56,85,34.43,64.94,43.34,51.57a2.2,2.2,0,0,0-.52-3l-4.11-3,.52-.08a2,2,0,0,0,1.49-1.14,2.29,2.29,0,0,0,.09-1.84l-1.14-2.7L42.38,41a1.94,1.94,0,0,0,1.83-.09,2.35,2.35,0,0,0,1.14-1.48l.09-.53,3,4.11a2.2,2.2,0,0,0,3,.53c13.46-9,33.48-7.78,43.79,2.53a34.86,34.86,0,1,1-49.29,49.3Z"/><path class="cls-1" d="M60.73,55.15l1.67-.26,2.36,2.18-.53,2,1,2.63,2.71,1,1.92-.53.35,1L69.74,65l.87,2.27,2.71.87.79,1.14,2.71,1,2.62-1,.09-.09.08.09,2.71,1,2.63-1,.17-.17.18.17,2.53,1,2.45-1,.35-.44.17.27,3.06,1.13,3-1.13.7-1,2.89-.79.87-2.27-.87-2.27-.62-.44.27-1.66L98.93,57.6,95,56.55l.7-2.45L94.56,51l-3.41-1.13.18-1.31-1.14-3.06-3-1.14-1.57.26L84.6,43.53l-3.67-1.14-.7-1-3-1.13-3.14,1.13-.09.09-1.22-.18-3.06,1.23-1,1.92-.62-.87-3-1.14-3.06,1.14L61,46.76,57.76,47.9,56.63,51,57.76,54l3,1.13Zm-1.39-5.68L60.82,49l1,.17.79.79L62.74,51l-.52,1.48L60.73,53l-1.48-.53L58.72,51l.62-1.49Zm3.84-2.88.53-1.49,1.48-.52L66.5,45l-1.13.7-1.14,2.71-.61-.35-.44-1.48Zm15.47-3.68.26.35-1.48,2.63L76.9,46l-1-3.32,1.23-.26,1.48.52Zm2.89,1.67L83,45.1l.53,1.22-.61,1.4-3.24-2,.44-.61,1.4-.52ZM87,46.76l1.49.52L89,48.77l-.53,1.49L87,50.78l-1.49-.52L85,48.77l.53-1.49L87,46.76Zm5.77,6,.53,1.49-.53,1.48-1.48.53-1.49-.53-.52-1.48.52-1.49,1.49-.52,1.48.52ZM98.93,65.2l-.26.7-1,.18-.27-1.49.79-.44.44.18.26.87Zm-26.13,1-.7-.26-.18-1.13,1.49.26-.35,1.13Zm8-17.65.35.44-3,1.57H78l-.87-2.27,1.66-.35,2,.61ZM71.31,59l-.52-1.49L71.31,56l1.49-.53,1.48.53.53,1.48-.7,1.66-1.31.35L71.31,59Zm-3.23-7.34,1.48-.53,1.49.53.52,1.83-2.18,1.57-1.23-.52-.61-1.4.53-1.48ZM85,61.1l.26.87-.26.87-.79.18L83,62.67l-.08-.09,2-1.48ZM83,60.05l-1.48.52-1.49-.52-.52-1.49.52-1.49,1.49-.52,1.48.52.53,1.49L83,60.05Zm-6.55.35-.26-.7.26-.7,1-.26.44,1.74-.62.18-.78-.26Zm10.31-4.55-.7,2-.43.35-.88-2.36.88-2.36.43.35.7,2Zm-5.24-4.72,1.48.53.53,1.48L83,54.63H80.23l-.44-2.54.35-.43,1.4-.53Zm-5.42,1.14,1.48.52.53,1.49-.53,1.48-.87.35-.87-1.66-1.67-1,.44-.79,1.49-.43ZM78.22,64l-.7-.26-.27-.88L79,62.32l.18.7-.27.7-.69.26ZM73.93,49l1.49.52.35.61-2.54,1.05-1-1.22.27-.35L73.93,49ZM72.71,61.71l1.75-.27.26.44-.35.61-1.14.35-1-.35-.34-.78Zm20.1-3.32.53,1.31L92.81,61l-2,.7-2-.7-.52-1.31.52-1.31L89.4,58l3.24.26.17.18ZM69.74,48.51l.43.35-.08.17-3.41,1-.26-1.22.52-1.49,1.84-.52,1,1.75Zm-4.81,3.06.17-.18.44.44.26,3.23-1-.52-.53-1.22.7-1.75Zm1.84,8.65-.35-1.14.35-1,1.13-.35.79.17.61,2-.26.44-1.14.35-1.13-.44Zm8.74,7.69-.35-1.13.35-1,.61-.35,1.83.7-.26,1.83-1.14.35-1-.35Zm5.5,0-.35-1.13.35-1,1.14-.35,1,.35.35,1.13-.35,1-1.14.35-1-.35Zm5.6,0-.53-1.66.53-1.66,1-.35,1,.35.52,1.66-.52,1.66-1,.35-1-.35Zm5.5-.17-.52-1.49.52-1.48,1.49-.53,1.48.53.53,1.48-.53,1.49-1.48.52-1.49-.52Zm5.07-8.39.53,1.48-.53,1.49L96,62.76l-1.31-.53.78-3.41,1.75.53Zm-22.9-15.3.53,1.49-.44,1.31-2.53.43-.44-.34-.53-1.49L71.4,44l1.48-.52,1.4.61Z"/><path class="cls-1" d="M99.8,78.75l1-4.81-1.66-1.31-9.35.18L86,70.8l-3.14,1.13-.7,1-6.91,1.14-1.13,3.06,1.13,3.06.35.26-.35.26-1.13,3,1.13,3.06,2.1,1,1,2.36,1,.7-.87,2.71,1.14,3.06,7.34,1.14,3.06-1.14,1-2.1,3.32-1.13,1.13-3.33L97.71,89l1.13-3.32,1-.62,1.23-3.4-.79-2.45-.53-.44Zm-1.66,4.81-1-1,.53-1.93,1.05.09-.44,2.71-.18.09Zm-1.48,2.36-.53,1.48-1.48.53-1.49-.53L92.81,87l.53-2.36,2.27-.53.44.35.61,1.49Zm-3.32,4.37-.53,1.48-1.48.53-.88-.18.61-3.49.18-.09,2.1,1.4v.35ZM81.19,95l-.53-1.49L81.19,92h3.06l.52,1.48L84.25,95l-1.49.52L81.19,95ZM98.84,75,97.53,77.7l-.61.26-.52-.61V74.91l2-.18.43.26ZM81.19,89.59l-.53-1.49.18-1,.78-.78,2.63.43.35,1.31-.53,1.49-1.48.52-1.4-.52Zm-4.37-7.34,1.48-.53,1.31.44.44,2.62-.35.44-1.48.52-1.49-.52-.44-1.49.53-1.48Zm0-6.56,1.05-.44v3.94l-1.05-.53-.53-1.48.53-1.49Zm11.27,1.66,1.49.53.35.43-.53,2.28-1.83.26L86.08,79l.53-1.22,1.48-.44Zm1,9.44-1.48-.52-.44-1.49.52-1.48,1.49-.53,1.48.53.53,1.48-.53,1.49-1.57.52ZM85.21,81.2l.52,1.22-.61,1.84-1.4.35-1.48-.53-.53-1.48.53-1.49,1.48-.52,1.49.61Zm2.45,10L86,90.73l.79-2.36,2.1.61-.26,1.92-1,.35Zm5.85-8.83-1-.17-.79-.79-.17-1,.52-1.48,1.49-.53,1.48.53.53,1.48-.53,1.49-1.57.52Zm-6.12-8.91.53,1.66-2.8,1.13-.35.44-.35-.26L83.9,75l.52-1.48L85.91,73l1.48.53Zm-4.54,4.54.35.26-.09.18-1.84.61-1.22-.52-.52-1.49.52-1.49,1.66-.52,1.14,3ZM94,74.64l.52,1.75-3,.44-1-1L91,74.64l1.48-.52,1.49.52ZM86.34,95.45l.44-2.19h1.57l.62.44-.53,1.22-2.1.53Z"/><path class="cls-1" d="M74.72,89.85,72.1,76.13,71.92,76l.7-2.09-.87-2.28-2.27-.87-2.28.87-.08.18-1-7.61-2.62-1-2.62,1-.44.53-1.4-.35.44-1.84-1-2.62-2.62-1L54,59.26l-1.31-3.67-2.88-1.14L47,55.59,45.7,59.17,46,61.1l-3.49,1.13-1.14,3.85-1.4.78-.87,2.28.87,2.27.44.35.35,5.42.87.61-.35,1.75,1.14,3.06,2.18,1.05L45.7,87l2.8,1.13-.61,2.19L49,93.35l3.06,1.13,1.31-.17,1.14,3.41,3.06,1.13,3-1.13.52-.7,1.05,4,3.06,1.14,3-1.14.44-.52,3.58,1.74,2.28-.78.43-4,1-.7,1.14-3.06-1.22-3.15-1.14-.7Zm.09,3.76-.53,1.49-1.48.52-1.49-.52L71,94.48l2.71-1.13.7-1,.44,1.31Zm-2,6.21-2.45-.53-.09-1.92.18-.18,2,.62.35,2ZM67.12,98l-.53,1.49L65.1,100l-1.48-.52-.53-1.75,3.68-.88L67.12,98ZM56,96.14l-.52-1.48.44-1.31.7,1.05,2.71,1.13-.35.61-1.49.53L56,96.14ZM43.52,79.36,44,78.05l.79-.09,1.4,2.54-.79.87-1.22-.52-.61-1.49Zm0-14.24L44,63.63l1.49-.52,1.48.52.09.17-.18,2.71-1.66.62L44,66.6l-.52-1.48Zm5-8,1.31-.52,1.31.52.7,2L51.29,61l-2.18.52-.52-.35-.7-2,.61-2Zm16.08,8.57.35,1.13-.26.88-2.1-.09-.52-1.49.26-.43,1.13-.35,1.14.35Zm5.68,7.43.26.7-.26.7-.7.26-.7-.26-.26-.7.26-.7.7-.27.7.27Zm-5.24-2-.18.78h-1L62.57,70.1V70l1-.35,1.05.35L65,71.15Zm-1,24.38L62.57,95l-.26-.35,1.22-1.57,1.49.26.78,1.22-.35.44-1.39.52ZM51.29,63.11l.88.26-.35,2.53-2.54.44.35-2.62,1.66-.61ZM70.44,79.36l-.53,1.49-1.48.52-1.49-.52-.52-1.49.52-1.48,1.49-.53,1.48.53.53,1.48ZM45.7,70.62l.53-1.48,1.48-.53,1.49.53.43,1.48-.52,1.49-1.49.52-1.48-.52-.44-1.49Zm10-2.53.44,2.1H52.26l.43-2.1,1.49-.53,1.48.53ZM69.91,83.38l.53,1.49L70,86.18l-1.49.44-1.39-3.24Zm-23.16-6.2.52-1.49,1.49-.52,1.49.52.52,1.49-.52,1.48-1.49.53-1.49-.53-.52-1.48Zm15,1v.26l-2.36,1.75-1-.35-.61-1.84.53-1.22,1.48-.53,1.49.53.44,1.4ZM63.36,81l.52,1.66-.52,1.66-1,.27-1-.35-.52-1.66.52-1.66,1-.35,1,.43Zm-9.09-9.09,1.48.53.53,1.48-.53,1.49-1.57.44-1.49-.53-.43-1.48.52-1.49,1.49-.44Zm-2,8.48.52-1.48,1.49-.53,1.48.53.53,1.48-.53,1.49-1.48.52-1.49-.52-.52-1.49Zm6.11,6.64-.43-1.92h1.4l1,1.14L60,88.45l-2,.53.43-1.93Zm5.34,3.59-.53-1.49.53-1.48,1.48-.53,1.49.53.52,1.48-.52,1.49-1.49.52-1.48-.52ZM67.29,93l-.09-.09h0l.09.09ZM61.52,72.11l.26.7-.26.7-.7.26-.7-.26-.26-.7.26-.7.7-.26.7.26ZM52.26,87l.52-1.49L54.27,85l1.48.52L56.28,87l-.53,1.48L54.18,89l-1.49-.53L52.26,87Zm5.42,4.37v-.26l3.4-.7.53,1.22-.53,1.22-1.39.53-1.49-.53-.52-1.48Zm7.86-16.7.53,1.23-1.58,2.18h-.61l-1.14-2.71,1-1.22,1.83.52Zm7.08,15.65-.52,1.48-1.49.53-1.48-.53-.27-.52.44-2.62,1.31-.44,1.49.53.52,1.57ZM60.56,68.44l-.35,1.31-1.92.7-.88-3.67,1.23-.27,1.48.53.44,1.4ZM57,61.36l.35,1.13-.35,1-1.14.35-1.05-.35-.35-1.13.35-1L55.93,61l1,.35ZM42.38,68l.79.7-.09.7-1,.52-.52-.17-.27-.7.27-.7.87-.35Zm.26,4.2,1-.62L45,73.94l-.44,1.75-2.27-.17.35-3.32Zm4.63,10,1.49-.53,1.49.53.52,1.48-.52,1.49-1.49.52-1.49-.52-.52-1.49.52-1.48Zm3.33,9.52-.53-1.48L50.51,89l.7,1,2.71,1.13-.35.61-1.49.53-1.48-.53Z"/><rect class="cls-2" width="141.2" height="141.2" rx="70.6"/></g></g></svg>