<svg xmlns="http://www.w3.org/2000/svg" viewBox="0 0 141.2 141.2"><defs><style>.cls-1{}.cls-2{fill:none;}</style></defs><g id="Calque_2" data-name="Calque 2"><g id="Layer_1" data-name="Layer 1"><path class="cls-1" d="M92.11,74.28a9.12,9.12,0,0,0-3.62.74,10.72,10.72,0,0,0-1.12-3,10.63,10.63,0,0,0,5.24,1.37,11,11,0,1,0-6-20.19l-.87-1.74a22.21,22.21,0,0,0-1.37-2.37c-.5-.75-1.12-1.37-1.62-2s-.87-1-1.37-1.49a10.18,10.18,0,0,1-1.62-4.12,11.63,11.63,0,0,0-.25-3.61,14.67,14.67,0,0,1-.25-2.37A27.16,27.16,0,0,1,80,30a.71.71,0,0,0-.5-.87.7.7,0,0,0-.87.49,22.42,22.42,0,0,0-.75,5.86c0,.63.12,1.37.12,2a8.78,8.78,0,0,1-2.61,2.61,5.73,5.73,0,0,1-3.62.75,16.31,16.31,0,0,1-3.24-.75c2.37-1.24,5.86-3.49,6.61-8.47.74-6.11-5-15.08-5.24-15.46a.67.67,0,0,0-.62-.37c-.25,0-6,.5-9.48,4.49-5.6-2.75-10.84-4.62-18.32-.5a.67.67,0,0,0-.37.62c0,1-.13,2-.13,2.87-.37,4.23-.62,7.72,3.49,12.58A8.71,8.71,0,0,1,42.87,37c-3.49,2.49-5.86,4.23-5.11,5.73,0,.12.13.12.13.12s6.85,7.73,16.57,7.73a19.47,19.47,0,0,0,9-2.24c1.37-.62,2.87-2.12,3.86-7.36h.13a15.25,15.25,0,0,0,4.24,1.13h.62a7.31,7.31,0,0,0,3.74-1,7.76,7.76,0,0,0,2.12-1.87,5.21,5.21,0,0,1,0,1.37c0,.13-.13.25,0,.38v.62c-.5,2.62-2.5,4.61-4.24,6.36A14.9,14.9,0,0,0,71,51.47c-.37,0-.87-.13-1.24-.13a11,11,0,0,0-11,11,9.53,9.53,0,0,0,.37,2.62,9.7,9.7,0,0,0-1.37,16.2,7.25,7.25,0,0,0,3.49,13.59h.87l.25.62a.85.85,0,0,0,.63.5h.24a.69.69,0,0,0,.38-1l-.13-.37a7.27,7.27,0,0,0,5-6.86,7.61,7.61,0,0,0-1.87-4.86,9.6,9.6,0,0,0,3.62-2.12,9.85,9.85,0,0,0,2.86,3.87,8.31,8.31,0,0,0-3.49,6.85A8.93,8.93,0,0,0,71.79,97a8.16,8.16,0,0,0-5.36,7.73,8.28,8.28,0,0,0,8.1,8.23,6.21,6.21,0,0,0-2.36,5,6.38,6.38,0,0,0,6.35,6.36,3.63,3.63,0,0,0,1.13-.12l.25.74a.82.82,0,0,0,.62.5h.25a.69.69,0,0,0,.37-1l-.25-.62A6.38,6.38,0,0,0,79,111.55a8.23,8.23,0,0,0,3.74-6.86,8.42,8.42,0,0,0-2-5.36,8.53,8.53,0,0,0,5.61-7.6,11.15,11.15,0,0,0,3,1.49A11.09,11.09,0,0,1,90,97.71h-.75a6.38,6.38,0,0,0-6.35,6.36,6.21,6.21,0,0,0,5.48,6.23l-.13.5c-.12.37.25.74.63.87H89a.78.78,0,0,0,.75-.62l.12-.75a6.38,6.38,0,0,0,5.86-6.36,6.51,6.51,0,0,0-4.11-6,14.48,14.48,0,0,0-.5-4.61h1a9.09,9.09,0,0,0,3.74-.75l.12.5a.83.83,0,0,0,.63.49h.24a.68.68,0,0,0,.38-1l-.13-.5a9.61,9.61,0,0,0-5-17.82ZM39,42c.25-.87,3.24-3,4.61-3.86a12.57,12.57,0,0,0,2.24-1.75.64.64,0,0,0,0-1c-4.11-4.74-4-7.61-3.61-12.09,0-.75.12-1.63.12-2.5,6.86-3.61,11.6-1.74,17.08,1.12.38.13.75.13.87-.25,2.5-3.24,7-4.11,8.35-4.36,1.13,1.75,5.36,9.1,4.62,13.84-.75,5-4.49,6.73-6.73,7.85l-.5.25-3.37-1.87a9.78,9.78,0,0,0,5.36-5.61h.25c1.12,0,2.62-1.74,3.12-2.24a.35.35,0,0,0-.5-.5c-.87,1-2,2-2.49,2,1.74-5.36,0-11.46,0-11.46,0-.25-.25-.25-.5-.25s-.25.25-.25.49,1.62,5.86,0,10.85a10.44,10.44,0,0,1-1.25-4,.39.39,0,0,0-.37-.37.4.4,0,0,0-.38.37c0,.37.38,3.49,1.62,4.74a9.24,9.24,0,0,1-5.36,5.48.12.12,0,0,0-.12.13c-.75-.5-1.5-1-2.12-1.37,1.87-2.37-1-9.73-1.25-10.6.25-.25.13-.37-.12-.37s-.25.25-.25.49c.87,2.25,2.74,8.23,1.37,10A80.39,80.39,0,0,1,53,30c1.37-1.62-.38-6.61-.5-7.23-.12-.25-.25-.25-.5-.25s-.25.25-.25.49c.75,2,1.5,5.49.75,6.49a56.57,56.57,0,0,1-6.73-7c-.13-.13-.37-.25-.5-.13s-.25.38-.12.5a49.37,49.37,0,0,0,6.73,6.86c-1.87,1-5.61,0-7-.5-.25-.13-.38,0-.5.25s0,.37.25.5A20.74,20.74,0,0,0,50,31a5.16,5.16,0,0,0,2.49-.5c1.87,1.63,4.11,3.37,6.61,5.24C56,37.88,48,35.39,47.86,35.39s-.37,0-.5.25,0,.37.25.49a26.49,26.49,0,0,0,7.6,1.25,7.32,7.32,0,0,0,4.49-1.12l2.24,1.49a10,10,0,0,1-6.1,4.74c-.5-1.25-3-2.49-3.49-2.87-.13-.12-.38,0-.5.13s0,.37.12.5c1.25.62,2.87,1.62,3.12,2.36a27.53,27.53,0,0,1-11.59.13A.63.63,0,0,0,43,43c-.13.12.12.37.25.5a30.85,30.85,0,0,0,6.11.62,22,22,0,0,0,5.6-.62A8.22,8.22,0,0,1,51.6,46.1c-.13.13-.25.25-.13.5s.25.25.38.25H52c.38-.12,3.49-1.74,3.87-3.49a11.13,11.13,0,0,0,6.6-5.11c1.13.62,2.25,1.37,3.49,2-.87,5.23-2.12,6.6-3.24,7.1C50,53.46,40.38,43.49,39,42Zm50.36,66.94a4.87,4.87,0,1,1,4.86-4.87A5,5,0,0,1,89.37,108.93ZM92.11,92.1a8.18,8.18,0,0,1-8.1-7,9.76,9.76,0,0,0,4.61-8.23v-.37a7.94,7.94,0,0,1,3.49-.75A8.22,8.22,0,0,1,100.34,84a8.11,8.11,0,0,1-8.23,8.1ZM81.26,104.56a6.66,6.66,0,0,1-9.47,6.11.77.77,0,0,0,.62-.75,1.08,1.08,0,0,0-.74-1c-.38-.13-.88.37-1,.74v.25a6.79,6.79,0,0,1,3.86-12.34,7.18,7.18,0,0,1,6.73,7Zm-1.62-6.35a7.87,7.87,0,0,0-5.11-1.75,3.67,3.67,0,0,0-1.24.13,7,7,0,0,1,1-11.22c.25.12.38.25.63.25a5.92,5.92,0,0,0-2.5,5.86c0,.12.13.25.38.25h.12c.25,0,.38-.25.25-.38A5.22,5.22,0,0,1,75.78,86a9.24,9.24,0,0,0,3.24.62A10.63,10.63,0,0,0,82.51,86c.13,0,.13.13.25.13A11.39,11.39,0,0,0,85,90.48v.87a7.08,7.08,0,0,1-5.36,6.86ZM66.93,87.61a5.73,5.73,0,0,1-5.73,5.74,5.81,5.81,0,0,1-5.74-5.74,5.93,5.93,0,0,1,3.87-5.48,6.3,6.3,0,0,0,.87.37,6.12,6.12,0,0,0-3.37,6.36c0,.12.13.25.38.25h.12c.25,0,.38-.25.25-.38a5.21,5.21,0,0,1,2.87-5.48c.12-.13.25-.25.12-.5a8.73,8.73,0,0,0,3.12.5,4.13,4.13,0,0,0,1.25-.13,6.08,6.08,0,0,1,2,4.49Zm-3.36-5.86a8.22,8.22,0,0,1-8.23-8.22,8.13,8.13,0,0,1,4.11-7.11,13.92,13.92,0,0,0,.63,1.37,6,6,0,0,0-2.87,6.11c0,.13.12.25.37.25h.13c.25,0,.37-.25.25-.37a5.32,5.32,0,0,1,2.61-5.36,11.08,11.08,0,0,0,9.23,5h.25a10.73,10.73,0,0,0-.63,3.49A11.31,11.31,0,0,0,69.67,79a8.7,8.7,0,0,1-6.1,2.74ZM60.2,62.43a9.48,9.48,0,1,1,9.47,9.48A9.47,9.47,0,0,1,60.2,62.43Zm21.07-.37.12-.25v.37a10.9,10.9,0,0,0,1.74,6,9,9,0,0,0-3.73-1,11.38,11.38,0,0,0,1.12-4.11,3.13,3.13,0,0,0,.75-1Zm20.69.25a9.48,9.48,0,1,1-9.48-9.47A9.47,9.47,0,0,1,102,62.31ZM70.79,76.89a8.08,8.08,0,0,1,.88-3.61,11.16,11.16,0,0,0,7-4.49h.25A8.22,8.22,0,0,1,87.12,77a8.13,8.13,0,0,1-8.22,8.22,8.22,8.22,0,0,1-8.11-8.35Zm10.72-29A6.79,6.79,0,0,1,83,49.72c.5.75.87,1.49,1.37,2.24l1,2a10.1,10.1,0,0,0-3,4.23c-.13-1-.25-2.11-.38-3.49L81.51,51c-.12-1.25-.37-2.5-.62-3.87a1.33,1.33,0,0,0,.62.75Zm-6.6,1.25a18,18,0,0,0,3.74-4.49c.12.5.25,1,.37,1.37a2.78,2.78,0,0,1,.25,1c.38,1.37.5,2.74.75,4.11l.5,3.74a25.13,25.13,0,0,1,.37,4.11,3.63,3.63,0,0,1-.12,1.13.67.67,0,0,1-.38.49,11.18,11.18,0,0,0-8-8.85c.74-.74,1.62-1.87,2.49-2.61Zm3.49,63.82a4.87,4.87,0,0,1,4.86,4.86,5,5,0,0,1-4.86,4.86,4.86,4.86,0,0,1,0-9.72Z"/><path class="cls-1" d="M62.82,60.57h0a.67.67,0,0,0,.5-.25,7,7,0,0,1,6.73-5,.32.32,0,0,0,.37-.37.33.33,0,0,0-.37-.38,7.7,7.7,0,0,0-7.36,5.49c-.12.25,0,.37.13.5Z"/><path class="cls-1" d="M92.61,70.16A7.68,7.68,0,0,0,100,64.68a.63.63,0,0,0-.25-.5.64.64,0,0,0-.5.25,6.76,6.76,0,0,1-6.73,5,.32.32,0,0,0-.37.37c0,.25.25.37.5.37Z"/><path class="cls-1" d="M80.76,83a6.79,6.79,0,0,0,5.61-5.86.32.32,0,0,0-.37-.37.39.39,0,0,0-.37.37,6.06,6.06,0,0,1-5,5.24c-.25,0-.37.25-.25.37s.13.25.37.25Z"/><path class="cls-1" d="M97.84,85.87c-.25-.13-.37,0-.5.25a6,6,0,0,1-6.23,3.61.33.33,0,0,0-.37.38.32.32,0,0,0,.37.37H92a6.79,6.79,0,0,0,6.11-4.11c.13-.25,0-.5-.25-.5Z"/><path class="cls-1" d="M72.91,100a6.11,6.11,0,0,0-3.36,6.36c0,.12.12.25.37.25h.13c.25,0,.37-.25.25-.37a5.12,5.12,0,0,1,2.86-5.49.37.37,0,0,0,.13-.5c0-.25-.13-.37-.38-.25Z"/><path class="cls-1" d="M92.48,105.56c-.12-.12-.37,0-.5.13a2.73,2.73,0,0,1-3,1.37c-.25,0-.37.12-.37.25s.12.37.25.37a2,2,0,0,0,.87.13,3.43,3.43,0,0,0,3-1.87.45.45,0,0,0-.25-.38Z"/><path class="cls-1" d="M78.27,121.89a2.05,2.05,0,0,0,.87.13,3.45,3.45,0,0,0,3-1.87c.12-.13,0-.38-.13-.5s-.37,0-.5.12a2.73,2.73,0,0,1-3,1.37c-.25,0-.37.13-.37.25-.25.25-.13.38.12.5Z"/><rect class="cls-2" width="141.2" height="141.2" rx="70.6"/></g></g></svg>