<svg xmlns="http://www.w3.org/2000/svg" viewBox="0 0 141.2 141.2"><defs><style>.cls-1{}.cls-2{fill:none;}</style></defs><g id="Calque_2" data-name="Calque 2"><g id="Layer_1" data-name="Layer 1"><path class="cls-1" d="M77.5,41.45c-.27-.49-.32-.81-.24-1a.14.14,0,0,1,.07-.08.36.36,0,0,1,.19,0,1,1,0,0,1,.78.41A10.36,10.36,0,0,1,79,42c.29.58.61,1.26.89,1.88,1,2.08.37,5.23-.16,8,0,.18-.07.36-.1.54-.38,2-.62,2.27-1.59,3.23l-.44.45c-.77.78-3.09,5.51-4,6.92-1.6,2.61-3.19,5.21-3.41,6.75a18.81,18.81,0,0,1-.37,2A18,18,0,0,1,69.12,74c-1.31,3.22-1.24,6.79-1,10.35-.07-.11-.15-.21-.23-.32l-.34-.48a5.85,5.85,0,0,1-1-3.21,10.89,10.89,0,0,1,.89-4.18,15.48,15.48,0,0,0,1.26-5.7l0-.23a7.7,7.7,0,0,1,.67-2.34c.38-.87.86-1.78,1.33-2.63a25.29,25.29,0,0,0,2.14-6.83c.13-.59.26-1.19.38-1.69a5.91,5.91,0,0,1,2.26-3.86l.47-.43c.82-.77,1.15-2.13,1.55-3.73.17-.7.36-1.45.6-2.19,0-.12.08-.24.11-.35A4.93,4.93,0,0,0,78.68,44a6.35,6.35,0,0,0-1.08-2.34l-.1-.17Zm1.7-1.71h0c.32-2.25-.7-2.46-2.45-2.83h0c-.23,0-.48-.1-.74-.17-.75-.19-.78-.15-1-.76-.88-2.14-2.45-1.92-4.18-1.83l-.79,0a3.08,3.08,0,0,1-1.86-.86,4.8,4.8,0,0,1-1.31-2c-.71-2.25-1.36-4.54-2-6.86h0v0c-.18-.6-.35-1.21-.75-2.57a.66.66,0,0,0-1.27.37l.73,2.56v0a10.92,10.92,0,0,1,.27,2.47,14.34,14.34,0,0,1-.17,2.85,5.36,5.36,0,0,1-2.17,3.57l-.11.08A3.27,3.27,0,0,0,60,35.46,2,2,0,0,0,60.2,37a6.26,6.26,0,0,0-.88,2c-.69,2.59-1.37,5-2,7.13-2.92,10.16-4.64,16.12-2.17,28.64a40,40,0,0,1,.75,8.34,69.59,69.59,0,0,1-.68,8.16c-.6,4.49,1.14,5.85,2.59,7,1.15.89,2,1.58.15,5a.66.66,0,0,0,1,.81,12.71,12.71,0,0,0,4.63-8.3,21.23,21.23,0,0,0-1.39-9.07c-1.34-4-.87-8.84-.42-13.41l.06-.63a22.59,22.59,0,0,0,0-4.56,33.38,33.38,0,0,0-.71-4c-.83-3.73.8-14,1.93-21.08.23-1.46.44-2.8.58-3.74a5.05,5.05,0,0,0,.07-1c1.91-1.11,1.45-2,.67-3.63l0,0h0l-.33-.69c-.28-.63-.32-.73,0-1.33a9.29,9.29,0,0,0,.8-2.19c0-.14.06-.31.09-.53,2.27,7.51,5,14.65,10.37,21.25a2.14,2.14,0,0,1-.28.36l-.46.43A6.87,6.87,0,0,0,72,56.46c-.15.63-.27,1.17-.38,1.71a24.26,24.26,0,0,1-2,6.46c-.5.9-1,1.84-1.4,2.76a9.17,9.17,0,0,0-.78,2.76v.23a14.4,14.4,0,0,1-1.16,5.29,12.27,12.27,0,0,0-1,4.71,7.16,7.16,0,0,0,1.17,3.93l.38.53a5.93,5.93,0,0,1,1.29,3.63h0a.67.67,0,0,0,1.33-.08v0h0v0a20.82,20.82,0,0,1,1-4.83,16.84,16.84,0,0,0,1-5.1c-.27-2.63.12-3,.67-3.47s1.57-1.38,2.17-4.22,1.46-6.5,2.39-9.44A13.13,13.13,0,0,1,78.59,57l.43-.43c.3-.31.55-.55.76-.79.46.43.94.86,1.44,1.28s1,.79,1.45,1.19a7,7,0,0,0-.71,3,2.78,2.78,0,0,0,.34,1.18c.48.85.35.91.08,2-.58,2.44-1,4-1.47,5.91-2.52,9.88-3.48,13.65-1.38,26.33a6.49,6.49,0,0,1,.06,2.3,7.18,7.18,0,0,1-.68,1.78c-.84,1.68-1.24,4.35-1.66,7-.16,1.08-.33,2.16-.51,3.13-.53,2.77.12,4.32,1,6.46.25.57.51,1.2.79,2a.66.66,0,0,0,.85.4.69.69,0,0,0,.31-.24,35,35,0,0,0,2.76-3.69,7.66,7.66,0,0,0,1-2.37,12.62,12.62,0,0,0,.33-2.13,23.38,23.38,0,0,0-.09-3.42c-.18-2.11,1-4.28,2.18-6.32l.1-.18c1.28-2.27.92-3.75.42-5.82,0-.22-.11-.45-.18-.77a8,8,0,0,1,.21-3.53,10.49,10.49,0,0,0,.31-2.53,12.9,12.9,0,0,0-.68-3.17,12,12,0,0,1-.74-4.93c.06-.29.12-.59.19-.88,0,0,0,0,0-.08C87.12,72.1,89,61.64,83.94,57.6l-.09-.07c-.6-.47-1.19-1-1.76-1.44s-1.09-1-1.61-1.43a12.27,12.27,0,0,0,.5-2c0-.18.07-.36.1-.54.57-3,1.21-6.33.06-8.8-.28-.62-.6-1.31-.91-1.92a9.22,9.22,0,0,0-.89-1.5A1.15,1.15,0,0,0,79.2,39.74ZM68,34.89a4.12,4.12,0,0,0,2,.61l.85,0c1.24-.06,2.41-.12,2.93,1.14a4.41,4.41,0,0,1,.34,2.06v.14a3.22,3.22,0,0,0,.5,2.1,2,2,0,0,0,1.54.81c0,.12.11.25.18.38l0,0,.09.16a6.07,6.07,0,0,1,.91,1.83A4.48,4.48,0,0,1,77,45.8c0,.11-.07.22-.11.34-.25.8-.45,1.57-.62,2.29-.12.45-.22.88-.34,1.28A51.1,51.1,0,0,1,68,34.89Zm7.9,5.41a.51.51,0,0,1-.24-.19,2.08,2.08,0,0,1-.24-1.28v-.09a6.05,6.05,0,0,0,0-.78l.2,0,.79.18h0c.77.16,1.29.27,1.4.81a2,2,0,0,0-.42,0,1.67,1.67,0,0,0-.83.24,1.55,1.55,0,0,0-.6.71A1.37,1.37,0,0,0,75.92,40.3Zm-1,22.38c-.75,2.62-1.42,5.52-1.89,7.76-.52,2.42-1.2,3-1.75,3.51-.86.76-1.46,1.29-1.12,4.6a16.69,16.69,0,0,1-1,4.6c-.09.3-.18.6-.26.9-.2-3.38-.23-6.74,1-9.71A17.43,17.43,0,0,0,70.7,72a19.37,19.37,0,0,0,.39-2.1c.2-1.38,1.75-3.9,3.3-6.43C74.55,63.2,74.72,62.94,74.88,62.68Zm9.18,25.5a.41.41,0,0,0-.42-.41.41.41,0,0,0-.41.42c0,4.22-1,9.26-2,14.57A124.86,124.86,0,0,0,79,116.94h0c-.81-1.92-1.4-3.31-.94-5.7.2-1,.36-2.11.52-3.17a26.64,26.64,0,0,1,1.53-6.65,8.21,8.21,0,0,0,.8-2.12,7.84,7.84,0,0,0-.05-2.76c-2.06-12.4-1.12-16.1,1.35-25.79.51-2,1.08-4.25,1.71-6.92l.06,0a.66.66,0,1,0,.55-1.21c-.83-.39-1.19-.85-1.23-1.44a5.07,5.07,0,0,1,.44-2c3.65,4,1.94,13.3.5,20.26A5.88,5.88,0,0,0,84,80.54l0,.09c-.06.29-.12.58-.25,1.18,0,.28-.16.63-.27,1A7.68,7.68,0,0,0,83,86.1a.67.67,0,0,0,.77.55.68.68,0,0,0,.55-.78,3.44,3.44,0,0,1,0-1.23c.13.47.27.93.4,1.38a12.36,12.36,0,0,1,.63,2.84,9.31,9.31,0,0,1-.29,2.2,9.3,9.3,0,0,0-.2,4.1l.19.78c.42,1.78.73,3-.29,4.86l-.1.18c-1.24,2.22-2.56,4.58-2.35,7.09a21,21,0,0,1,.09,3.23,10.86,10.86,0,0,1-.3,1.89,6.36,6.36,0,0,1-.84,2,22.27,22.27,0,0,1-1.53,2.16A121.5,121.5,0,0,1,82,102.92c1.06-5.35,2.06-10.42,2-14.74ZM61.47,37.57l.07-.08a1.85,1.85,0,0,1,.29-.22.42.42,0,0,1,.24-.06.26.26,0,0,1,.13.09,2.43,2.43,0,0,1,.19,1.8c-.18,1.22-.37,2.42-.58,3.73C61,47.91,60,54.56,59.7,59.45c-.1,1.95-.14,3.18-.38,5.12-.89,7.21-1.91,16.61-.72,22.26.23,1.08.45,2,.65,2.92.79,3.45,1.32,5.73.78,8.78a6.45,6.45,0,0,0-1.41-1.33c-1.17-.91-2.58-2-2.08-5.74a69.65,69.65,0,0,0,.69-8.31,42,42,0,0,0-.77-8.62c-2.4-12.2-.72-18.05,2.15-28,.61-2.14,1.28-4.47,2-7.16A4.24,4.24,0,0,1,61.47,37.57Zm-.22-1.5a.62.62,0,0,1,0-.27,2.09,2.09,0,0,1,.86-1l.07,0a6.8,6.8,0,0,0,.62-.48l.09.19c.11.25.23.5.34.73h0v0c.35.7.58,1.17.24,1.59a2,2,0,0,0-.26-.4,1.52,1.52,0,0,0-1-.56A1.7,1.7,0,0,0,61.25,36.07Zm-.79,64.36c1.15-4.14.57-6.68-.4-10.86-.2-.89-.42-1.86-.65-2.91-1.13-5.38-.2-14.37.67-21.44a26.06,26.06,0,0,1,.5,3,20.86,20.86,0,0,1,0,4.31l-.06.63c-.46,4.7-.95,9.69.49,14a20.17,20.17,0,0,1,1.33,8.5,10.65,10.65,0,0,1-1.85,4.87Z"/><rect class="cls-2" width="141.2" height="141.2" rx="70.6"/></g></g></svg>