<svg xmlns="http://www.w3.org/2000/svg" viewBox="0 0 141.2 141.2"><defs><style>.cls-1{}.cls-2{fill:none;}</style></defs><g id="Calque_2" data-name="Calque 2"><g id="Layer_1" data-name="Layer 1"><path class="cls-1" d="M98.4,84.28a.75.75,0,0,1-1.06,1.06A.75.75,0,0,1,98.4,84.28ZM60.83,73.45c.69-.68-.39-1.76-1.07-1.07S60.15,74.15,60.83,73.45Zm1.1,4.31c1.11,4.24-6.63,2.52-4-1.41.23-.81,1.51-1.55.69-2.34-1.06-.67-1.61,1-2,1.7-1.5,3,.1,6.08,3.5,6,5.46.43,3.14-7.82,1.88-4Zm52-16.65c1.84,7.1-5,16.92-8.94,20.36-6.81,10.27-8.75,20.31-24.26,19.43-18.69-3.52-17.41,5.45-32.4,1.37-5.55-2.65-22.6,1.43-21.32-8,.9-1.52,2.94-1.45,3.81-1.42a83.37,83.37,0,0,0,15.91-1C35.8,83.05,36.16,62.52,51.89,55.93c15-7.17,34.24,4,37.5,19.41,5-5.46,3.39-13.4,6.28-19.57a18.74,18.74,0,0,0-2.79-9.36c-5.53,0-5.47-8.65,0-8.56a4.31,4.31,0,0,1,3.92,6A18.11,18.11,0,0,1,100,52.31a11.67,11.67,0,0,1,7.84-.1,15.57,15.57,0,0,0-2.32-5.81c-5.53,0-5.47-8.64.06-8.56a4.31,4.31,0,0,1,3.91,6c4.64,7.21,2.58,11.78,4.47,17.25ZM62,93.19C83.85,92,78.57,69.06,68.6,65.31c-13.75-6.11-26.74,9.53-15,19.24,9.46,8.36,22.22-7,9.65-11a.74.74,0,0,1-.57-.89c.74-1.41,2.65.15,3.85.63,5,2.45,3.69,9.91.36,12.64-9.71,8.18-24.74-5.77-17.56-16.34,9.73-15.44,34.23-4,28.51,15.18,26.67-6.36-6.55-38.29-25.3-27.46C37.34,61.68,33.46,96,62,93.19Zm50.44-31.93c-1.84-5.32.08-10.34-4.59-17.27,1-1.92.2-4.65-2.3-4.65-3.62-.05-3.62,5.62,0,5.57,1.63-.58,5.31,8.41,3.37,9.34a11.15,11.15,0,0,0-9.52-.14.76.76,0,0,1-.74-.42c-.09-3-1.71-6.82-3.42-10,2.48-4.1-4.92-6.4-5.11-1.59a2.81,2.81,0,0,0,3.15,2.77c3.19,2.54,3.61,8.1,3.89,11h0C94.32,62.84,95.54,72,89.41,77.68,88.58,79.8,86,85,77.31,86.39c-1.8,7.18-18.29,10.66-27.7,6.9-6.26,0-9.11,1.5-18.83,1.11-1,0-2.08,0-2.47.67.78,6.68,15.42,3.23,20.37,5.73,14.7,3.94,13-5,32-1.41,14.83,1,16.65-9.39,23.17-18.89,3.74-3.36,10.34-12.33,8.6-19.25ZM96.81,86.54C95.55,86,95,88.75,94.55,89c-3,4.88-7.28,6.12-13.21,6.55a.75.75,0,0,0-.69.81c4.58,2.22,12.85-2.1,15.18-6.57.09-.54,2.11-2.5,1-3.29Zm5-9.68c.2.22-5,5.43-2.67,6.26,1.87-1.36,2.93-4.74,3.83-5.3.63-.73-.55-1.72-1.16-1Z"/><rect class="cls-2" width="141.2" height="141.2" rx="70.6"/></g></g></svg>