<svg xmlns="http://www.w3.org/2000/svg" viewBox="0 0 141.2 141.2"><defs><style>.cls-1,.cls-2{}.cls-1{fill-rule:evenodd;}.cls-3{fill:none;}</style></defs><g id="Calque_2" data-name="Calque 2"><g id="Layer_1" data-name="Layer 1"><path class="cls-1" d="M74,84.71c6.54,5.36,17,24.56,23.77,16.69,8.29,1.66,8.8-4.44,10-7.89,1.07-2.68,3.85-7.14-.33-9.72,6.56-12.1-20.75-16.68-29.9-5.16,4.64-2.26,13.82-.23,16.66,1.81-3.29-.22-11.58-2.89-16.22-.63,4.19-.43,13.28,4.12,15.84,6C90.55,84.29,81.41,81,77.3,81.92c4.14.83,12.62,6.23,14.85,9.13C88.22,86.92,77.54,83.39,74,84.71Z"/><path class="cls-1" d="M79.58,112.88c-1.46,8-7.59,5.74-10.88,5.52-3.09-.5-7.77,0-8.77-4.59-14.07-.21-7.78-26.29,6.87-28.68-2.78,1.46-8.66,7-8.7,10.69,1.74-5.34,7.22-7.44,9.83-9.87.76,3.13-.78,16.28-2.13,18.75,2.25-3.12,4-13.54,4.94-18.45,2,4.44,7.68,12.18,7.75,15.68.71-3.37-4.11-11.76-5.19-16.85C73.64,84.9,97.35,106.32,79.58,112.88Z"/><path class="cls-1" d="M66.07,83.75c-1.95.31-8.35,2.61-11.54,7.64-2,3.32-9.61,13.34-14.82,4.41-8.54-.11-7.25-6.09-7.6-9.79-.48-2.93-1.76-7.73,2.47-9.42-2.91-13.31,24.61-12,30.25,1.09-3.48-2.94-7.5-4.54-11.12-3.7a23.89,23.89,0,0,1,10.87,5.25A22.44,22.44,0,0,0,53,78.61c3.57.42,8.13.69,11.37,2.16-4.19.43-8.3,1.35-10.91,3.78,5-2.83,10.17-2.15,12.65-.8Z"/><path class="cls-1" d="M64.67,75.51c-5-9-26.91-11.2-22.4-18.58-4.14-7,3.39-10.67,6.71-10.66.93-1.52,5.49-8.21,10-2.52,8.37-11.06,13.45,16.49,8.17,25.88C67.38,66.19,61.83,55,59.67,53c1.31,3.19,6.94,14.9,6.25,17.1-.29-3.35-7.45-14.81-10.24-15.93,2.24,2.52,9.48,14.49,9.38,17.12-1.73-2.6-8.51-13.34-11.81-14.37C55.4,58.46,65,73.41,64.67,75.51Z"/><path class="cls-1" d="M78.42,77c8-10.47,34.79-6.37,30.67-12.29,2.47-3.43-6.12-7.84-10.76-11-3.79-5.92-8.25-7.79-9.26-7.07-8.29-7.17-21.5,17.82-14.77,27.23-.58-3.65,2-9.5,4.92-11.56-1.89,2.93-4,8.62-3.43,11.4.57-3.12,4.73-8.27,7.44-10-1.72,2.59-5.72,7.39-5.9,10.68C79.22,71.47,84,67,87.3,66,82.77,68.57,78.82,74.24,78.42,77Z"/><path class="cls-2" d="M77.88,24.3C76.4,45.4,70.75,56.72,70.75,76c0,1.91,4.33,8.39.06,8.3s-3.09-4.68-2.87-6.57c3.3-28.69,8.27-43.2,9.84-53.41a1,1,0,1,1,1.09-.77A1,1,0,0,1,77.88,24.3Z"/><ellipse class="cls-2" cx="79.07" cy="25.12" rx="0.99" ry="1.01" transform="translate(44.87 100.71) rotate(-83.28)"/><ellipse class="cls-2" cx="79.12" cy="27.75" rx="0.99" ry="1.01" transform="translate(42.3 103.08) rotate(-83.28)"/><ellipse class="cls-2" cx="78.84" cy="29.78" rx="0.99" ry="1.01" transform="translate(40.03 104.59) rotate(-83.28)"/><ellipse class="cls-2" cx="78.47" cy="31.89" rx="0.99" ry="1.01" transform="translate(37.61 106.09) rotate(-83.28)"/><ellipse class="cls-2" cx="76.3" cy="25.1" rx="0.99" ry="1.01" transform="translate(35.88 94.52) rotate(-78)"/><ellipse class="cls-2" cx="75.89" cy="27.47" rx="0.99" ry="1.01" transform="translate(33.24 95.98) rotate(-78)"/><ellipse class="cls-2" cx="75.5" cy="29.48" rx="0.99" ry="1.01" transform="translate(30.96 97.2) rotate(-78)"/><ellipse class="cls-2" cx="75.17" cy="31.6" rx="0.99" ry="1.01" transform="translate(28.63 98.56) rotate(-78)"/><rect class="cls-3" width="141.2" height="141.2" rx="70.6"/></g></g></svg>