<svg xmlns="http://www.w3.org/2000/svg" viewBox="0 0 141.2 141.2"><defs><style>.cls-1{}.cls-2{fill:none;}</style></defs><g id="Calque_2" data-name="Calque 2"><g id="Layer_1" data-name="Layer 1"><path class="cls-1" d="M77,65.64a1.07,1.07,0,0,1-.55-.14,1.17,1.17,0,0,1-.62-1.17,14.22,14.22,0,0,0,.11-1.73,15,15,0,0,0-.31-3A1.15,1.15,0,0,1,76,58.49a17,17,0,0,1,10-4.07,1.16,1.16,0,0,1,1.21.92,16.92,16.92,0,0,1,.36,3.48,19.15,19.15,0,0,1-.11,2,1.18,1.18,0,0,1-1.1,1,14.46,14.46,0,0,0-7.25,2.46,13.94,13.94,0,0,0-1.38,1A1.15,1.15,0,0,1,77,65.64Zm1-5.8a16.82,16.82,0,0,1,.22,2.24,17,17,0,0,1,7-2.48c0-.26,0-.52,0-.78a14.38,14.38,0,0,0-.13-2A14.72,14.72,0,0,0,78,59.84Z"/><path class="cls-1" d="M66.27,65.64a1.15,1.15,0,0,1-.76-.28,13.94,13.94,0,0,0-1.38-1,14.46,14.46,0,0,0-7.25-2.46,1.16,1.16,0,0,1-1.09-1A16.84,16.84,0,0,1,56,55.35a1.15,1.15,0,0,1,1.21-.93,17,17,0,0,1,10,4.07,1.16,1.16,0,0,1,.38,1.12,15,15,0,0,0-.31,3,14.22,14.22,0,0,0,.11,1.73,1.17,1.17,0,0,1-.62,1.17A1.07,1.07,0,0,1,66.27,65.64ZM58,59.6a17,17,0,0,1,7,2.48,16.82,16.82,0,0,1,.22-2.24,14.72,14.72,0,0,0-7.08-3,14.48,14.48,0,0,0-.13,2C58,59.08,58,59.34,58,59.6Z"/><path class="cls-1" d="M72,75.33h-.76a1.18,1.18,0,0,1-.8-.31,16.88,16.88,0,0,1,.42-25.2,1.17,1.17,0,0,1,1.53,0A16.89,16.89,0,0,1,72.79,75,1.18,1.18,0,0,1,72,75.33Zm-.38-23a14.53,14.53,0,0,0,0,20.6,14.53,14.53,0,0,0,0-20.6Z"/><path class="cls-1" d="M78.59,75.33H72a1.18,1.18,0,0,1-1.09-.75,1.16,1.16,0,0,1,.3-1.28,14.53,14.53,0,0,0,4.58-9,1.23,1.23,0,0,1,.4-.75c.51-.43,1-.84,1.6-1.22a16.83,16.83,0,0,1,13.87-2.28,1.17,1.17,0,0,1,.86,1.27,16.88,16.88,0,0,1-7.33,12l0,0A11.75,11.75,0,0,1,78.59,75.33ZM74.66,73h3.93a9.36,9.36,0,0,0,5.25-1.57l0,0A14.53,14.53,0,0,0,90,62.1a14,14,0,0,0-2.82-.28,14.44,14.44,0,0,0-8.11,2.49,11.17,11.17,0,0,0-1,.77A17,17,0,0,1,74.66,73Z"/><path class="cls-1" d="M71.23,75.33h-6.6a11.68,11.68,0,0,1-6.55-2l0,0a16.88,16.88,0,0,1-7.33-12,1.17,1.17,0,0,1,.86-1.27,16.83,16.83,0,0,1,13.87,2.28c.55.38,1.09.79,1.6,1.22a1.23,1.23,0,0,1,.4.75,14.5,14.5,0,0,0,4.58,9,1.16,1.16,0,0,1,.3,1.28A1.18,1.18,0,0,1,71.23,75.33ZM53.2,62.1a14.53,14.53,0,0,0,6.15,9.3l0,0A9.39,9.39,0,0,0,64.63,73h3.93a17,17,0,0,1-3.39-7.91,11.17,11.17,0,0,0-1-.77A14.44,14.44,0,0,0,56,61.82,14,14,0,0,0,53.2,62.1Z"/><path class="cls-1" d="M92.84,91.67a3.52,3.52,0,1,1,3.51-3.51A3.51,3.51,0,0,1,92.84,91.67Zm0-4.69A1.18,1.18,0,1,0,94,88.16,1.17,1.17,0,0,0,92.84,87Z"/><path class="cls-1" d="M53,83.47A3.51,3.51,0,1,1,56.56,80,3.51,3.51,0,0,1,53,83.47Zm0-4.68A1.17,1.17,0,1,0,54.22,80,1.18,1.18,0,0,0,53,78.79Z"/><path class="cls-1" d="M90.5,49.53A3.51,3.51,0,1,1,94,46,3.52,3.52,0,0,1,90.5,49.53Zm0-4.68A1.17,1.17,0,1,0,91.67,46,1.17,1.17,0,0,0,90.5,44.85Z"/><path class="cls-1" d="M47.78,57.73A2.93,2.93,0,1,1,50.7,54.8,2.93,2.93,0,0,1,47.78,57.73Zm0-3.52a.59.59,0,1,0,0,1.18.59.59,0,0,0,0-1.18Z"/><path class="cls-1" d="M71.77,98.69a1.17,1.17,0,0,1-1.17-1.17V63.58a1.17,1.17,0,0,1,2.34,0V97.52A1.17,1.17,0,0,1,71.77,98.69Z"/><path class="cls-1" d="M85.81,98.69H60.07a1.17,1.17,0,1,1,0-2.34H85.81a1.17,1.17,0,1,1,0,2.34Z"/><path class="cls-1" d="M75.29,89.73a12.24,12.24,0,0,1-3.89-.67A1.18,1.18,0,0,1,70.6,88v-.2a12,12,0,0,1,.68-4.07,9,9,0,0,1,8.21-6.07,12.15,12.15,0,0,1,4.39.66,1.18,1.18,0,0,1,.8,1.09v.2A11.76,11.76,0,0,1,84,83.7a9,9,0,0,1-8.38,6ZM73,87.08a8.88,8.88,0,0,0,2.57.3,6.6,6.6,0,0,0,6.25-4.49,9.17,9.17,0,0,0,.54-2.62A9.23,9.23,0,0,0,79.6,80a6.62,6.62,0,0,0-6.12,4.53A9.31,9.31,0,0,0,73,87.08Z"/><path class="cls-1" d="M68.28,95.18H68a9,9,0,0,1-8.39-6A12,12,0,0,1,58.9,85v-.2a1.17,1.17,0,0,1,.79-1.09,12.35,12.35,0,0,1,3.9-.67h.49a9,9,0,0,1,8.22,6.07A12,12,0,0,1,73,93.22v.2a1.18,1.18,0,0,1-.8,1.09A12.3,12.3,0,0,1,68.28,95.18Zm-7-9.46a9.6,9.6,0,0,0,.53,2.62A6.62,6.62,0,0,0,68,92.83a8.8,8.8,0,0,0,2.57-.3A9.31,9.31,0,0,0,70.1,90,6.64,6.64,0,0,0,64,85.42,9.13,9.13,0,0,0,61.26,85.72Z"/><path class="cls-1" d="M71.77,88.56a1.17,1.17,0,0,1-.64-2.15l7-4.64a1.17,1.17,0,1,1,1.29,2l-7,4.64A1.21,1.21,0,0,1,71.77,88.56Z"/><path class="cls-1" d="M71.77,94a1.19,1.19,0,0,1-.6-.17l-7-4.2a1.17,1.17,0,1,1,1.21-2l7,4.2a1.17,1.17,0,0,1-.6,2.18Z"/><path class="cls-1" d="M93.36,73.64a1.35,1.35,0,1,1,0-2.7,1.35,1.35,0,0,1,0,2.7Zm0-2.34a1,1,0,1,0,.7,1.69,1,1,0,0,0,0-1.4A1,1,0,0,0,93.36,71.3Z"/><path class="cls-1" d="M60.19,49.84a1.35,1.35,0,0,1,0-2.7,1.35,1.35,0,1,1,0,2.7Zm0-2.34a1,1,0,0,0-.7.29,1,1,0,0,0,0,1.4,1,1,0,0,0,.7.29,1,1,0,0,0,0-2Z"/><path class="cls-1" d="M56.56,98.69a1.22,1.22,0,0,1-.83-.34,1.17,1.17,0,0,1,.83-2,1.15,1.15,0,0,1,.82.34,1.17,1.17,0,0,1-.82,2Z"/><path class="cls-1" d="M53,98.69a1.17,1.17,0,0,1-.82-2,1.15,1.15,0,0,1,.82-.34,1.17,1.17,0,0,1,.83,2A1.22,1.22,0,0,1,53,98.69Z"/><path class="cls-1" d="M49.53,98.69a1.17,1.17,0,0,1-.82-2,1.15,1.15,0,0,1,.82-.34,1.17,1.17,0,0,1,.83,2A1.22,1.22,0,0,1,49.53,98.69Z"/><rect class="cls-2" width="141.2" height="141.2" rx="70.6"/></g></g></svg>