<svg xmlns="http://www.w3.org/2000/svg" viewBox="0 0 141.2 141.2"><defs><style>.cls-1{fill:none;}.cls-2{fill:#fff;}.cls-3{}</style></defs><g id="Calque_2" data-name="Calque 2"><g id="Layer_1" data-name="Layer 1"><rect class="cls-1" width="141.2" height="141.2" rx="70.6"/><g id="Calque_2-2" data-name="Calque 2"><g id="Calque_5" data-name="Calque 5"><path class="cls-2" d="M113.68,70.56a29.37,29.37,0,0,0-1.79-10.69c-1.16-2.88-2.72-4.47-4.38-4.47-.14,0-1,.32-1.13.34.09-.07.92-.46,1-.55,1.17-1.17,1.15-3.4-.06-6.26A29.3,29.3,0,0,0,101,40.11c-4.39-4.39-9.35-7.22-12.64-7.22a3.35,3.35,0,0,0-2.45.86c-.09.1-.48.94-.56,1,0-.13.33-1,.33-1.1,0-1.67-1.59-3.23-4.47-4.39a29.41,29.41,0,0,0-10.69-1.79c-8.36,0-15.16,2.77-15.16,6.17,0,.14.32,1,.34,1.14-.07-.1-.45-.93-.54-1A3.33,3.33,0,0,0,52.76,33c-3.3,0-8.26,2.83-12.64,7.22A29.54,29.54,0,0,0,33.82,49c-1.21,2.86-1.24,5.08-.06,6.26.1.1.93.48,1,.56-.12,0-1-.33-1.1-.33-3.4,0-6.17,6.8-6.17,15.16S30.3,85.8,33.7,85.8c.13,0,1-.32,1.11-.33-.09.06-.91.44-1,.53-2.4,2.4.44,9.17,6.35,15.08,4.38,4.39,9.35,7.23,12.64,7.23a3.31,3.31,0,0,0,2.44-.87c.09-.09.48-.93.56-1,0,.12-.33,1-.33,1.1,0,3.41,6.8,6.18,15.16,6.18h0c8.35,0,15.15-2.77,15.15-6.17,0-.13-.32-1-.34-1.13.07.09.46.92.54,1a3.35,3.35,0,0,0,2.45.86c3.29,0,8.26-2.82,12.64-7.21a29.75,29.75,0,0,0,6.3-8.83c1.2-2.83,1.23-5.08.06-6.25-.1-.1-.94-.49-1-.57.12,0,1,.33,1.1.33C110.91,85.72,113.68,78.92,113.68,70.56Z"/><path class="cls-3" d="M113.2,59.34c-1-2.45-2.29-4.12-3.78-4.88.49-1.59.23-3.67-.79-6.08A30.82,30.82,0,0,0,102,39.11c-4.71-4.71-9.94-7.63-13.64-7.63a5.52,5.52,0,0,0-1.76.26C85.87,30.27,84.21,29,81.78,28a30.91,30.91,0,0,0-11.22-1.89A30.85,30.85,0,0,0,59.35,28c-2.45,1-4.12,2.3-4.88,3.78a5.48,5.48,0,0,0-1.71-.24c-3.71,0-8.93,2.92-13.64,7.63a31,31,0,0,0-6.6,9.27c-1,2.43-1.28,4.54-.77,6.13C30.28,55.34,29,57,28,59.43a30.84,30.84,0,0,0-1.9,11.21A30.94,30.94,0,0,0,28,81.86c1,2.45,2.29,4.11,3.78,4.88-.49,1.59-.24,3.66.78,6.07a31,31,0,0,0,6.6,9.27c4.71,4.71,9.93,7.64,13.64,7.64a5.5,5.5,0,0,0,1.75-.26c.78,1.47,2.43,2.76,4.86,3.74a30.91,30.91,0,0,0,11.22,1.89h0a30.89,30.89,0,0,0,11.21-1.89c2.45-1,4.12-2.29,4.88-3.78a5.85,5.85,0,0,0,1.71.25c3.71,0,8.93-2.93,13.64-7.63a31,31,0,0,0,6.6-9.27c1-2.43,1.28-4.53.77-6.13,1.47-.77,2.76-2.43,3.74-4.86a30.88,30.88,0,0,0,1.9-11.21A31,31,0,0,0,113.2,59.34Zm-5.69,26.38a2.22,2.22,0,0,1-.37,0,2.51,2.51,0,0,1,.31.26c1.17,1.17,1.15,3.4-.06,6.26a29.52,29.52,0,0,1-6.3,8.82c-4.39,4.38-9.35,7.22-12.64,7.22a3.32,3.32,0,0,1-2.45-.87l-.24-.28a1.81,1.81,0,0,1,0,.4c0,3.4-6.8,6.17-15.15,6.17h0c-8.36,0-15.16-2.77-15.16-6.17a2.22,2.22,0,0,1,0-.37,3.88,3.88,0,0,1-.26.31,3.35,3.35,0,0,1-2.44.86c-3.3,0-8.26-2.83-12.64-7.22C34.26,95.17,31.42,88.4,33.82,86a2.75,2.75,0,0,1,.26-.22,2.43,2.43,0,0,1-.38,0c-3.4,0-6.17-6.8-6.17-15.16S30.3,55.48,33.7,55.48a2.22,2.22,0,0,1,.37,0,2.51,2.51,0,0,1-.31-.26c-1.18-1.18-1.15-3.4.06-6.26a29.54,29.54,0,0,1,6.3-8.82C44.5,35.78,49.46,33,52.76,33a3.33,3.33,0,0,1,2.44.86,2.17,2.17,0,0,1,.24.29c0-.14,0-.27,0-.41,0-3.4,6.8-6.17,15.16-6.17a29.54,29.54,0,0,1,10.69,1.79c2.86,1.16,4.47,2.72,4.47,4.39a2.19,2.19,0,0,1,0,.36,2.51,2.51,0,0,1,.26-.31,3.33,3.33,0,0,1,2.44-.86c3.3,0,8.26,2.82,12.64,7.22a29.19,29.19,0,0,1,6.29,8.82c1.21,2.84,1.24,5.08.07,6.26a2.17,2.17,0,0,1-.29.24,2.83,2.83,0,0,1,.41,0c1.66,0,3.22,1.59,4.38,4.47a29.54,29.54,0,0,1,1.79,10.69C113.68,78.92,110.91,85.72,107.51,85.72Z"/><path class="cls-3" d="M80.48,57.54l-.33,1.52v0h0l0,0,1.31-.83c-.53.65-1,4.25,2,4s1.55-3.82,1.55-3.82a8.21,8.21,0,0,0,2,1c1,.33,1.52-.64,1.69-.89s.55-.31,1.1-.43a1.83,1.83,0,0,0,1.14-1.78c-.14-.7-.91-1-2.63-1.54s-3.61.09-4.85.54c0,0-.53-.26.19-.71a.5.5,0,0,0,.35-.5.68.68,0,0,0,0-.14,4,4,0,0,1,1.64-.8,3.21,3.21,0,0,0-1.76.6l-.08-.07-.1-.05a3.19,3.19,0,0,0,0-1.86,4.15,4.15,0,0,1-.17,1.82l-.15,0a.53.53,0,0,0-.35.5c-.18.83-.6.43-.6.43,0-1.33,0-3.33-1.18-4.74s-1.65-2-2.36-1.93a1.83,1.83,0,0,0-1.27,1.69c.08.56.15.94,0,1.18a1.46,1.46,0,0,0-.24,1.89,8.3,8.3,0,0,0,1.67,1.57s-3.84-.15-3,2.78S80.06,58.26,80.48,57.54Z"/><path class="cls-3" d="M52.54,74.25v2.24l1,.12a3.18,3.18,0,0,1-.32-1.68,2.43,2.43,0,0,1,.53-1.24,3.34,3.34,0,0,1,2.82-4.77,1.32,1.32,0,0,0-1.23-1,1.33,1.33,0,0,0-2.64-.11A1.48,1.48,0,1,0,50,69.06h0a1.48,1.48,0,0,0-.55,2.82,1.31,1.31,0,0,0,1.23,1.79,1.35,1.35,0,0,0,.62-.15l0,0Zm-.59-2a1.74,1.74,0,0,0,.5.17l.08,1.13s-.72-.11-.85-.41h0a1.28,1.28,0,0,0,.28-.8S52,72.29,52,72.26Zm-1.44.58a.78.78,0,0,1-.77-.77h0l0-.2A1,1,0,0,1,50.65,70a1,1,0,0,1,.49,1.37,1.09,1.09,0,0,1-.08.15.77.77,0,0,1,0,1.08A.74.74,0,0,1,50.51,72.84Z"/><path class="cls-3" d="M52.34,77.14a76.65,76.65,0,0,1,5.19,6.42,23.57,23.57,0,0,0,2.78,1.64l-.25-.46C57.82,80.79,52.34,77.14,52.34,77.14Z"/><path class="cls-3" d="M64,76.26s8.4,7.43,10.47,11a22.81,22.81,0,0,0,2.45-.55l-.34-.49C72.83,81,64,76.26,64,76.26Z"/><path class="cls-3" d="M84.1,82c-5.18-4.77-15.26-7.49-15.26-7.49s11.92,6.58,14,9.54q1-.63,1.92-1.35C84.6,82.51,84.36,82.28,84.1,82Z"/><path class="cls-3" d="M65.54,74.9s10.78,6.7,13.24,11.23A22.45,22.45,0,0,0,81.38,85q-.41-.48-1-1C75.39,78.72,65.54,74.9,65.54,74.9Z"/><path class="cls-3" d="M78,75.43H76.14c1.12.7,8.67,4.71,9.9,5.77a2.73,2.73,0,0,0,.3.21c.47-.44.93-.9,1.37-1.38-.2-.17-.4-.33-.61-.48C84.1,77.43,78,75.43,78,75.43Z"/><path class="cls-3" d="M82.07,74.54v.83a52.24,52.24,0,0,1,6.09,2.95c.2.15.4.3.61.44q.57-.74,1.08-1.5l-.45-.18C88.52,76.73,82.07,74.54,82.07,74.54Z"/><path class="cls-3" d="M88.44,75.13l2.23.79c.21-.38.41-.75.6-1.14l-.69-.29Z"/><path class="cls-3" d="M84.63,74l1.71.48s3.93-1.16,5.73-1.51c.1-.26.19-.53.29-.78l-.48,0S85.51,73.6,84.63,74Z"/><path class="cls-3" d="M82.07,72.84v.88s7.45-2.26,10.56-2.35c0-.15.09-.29.13-.43H92.7A94.74,94.74,0,0,0,82.07,72.84Z"/><path class="cls-3" d="M92.35,69.57a.36.36,0,0,0-.71,0h-.31a.52.52,0,0,0-.09-.72.5.5,0,0,0-.72.09.44.44,0,0,0-.1.19,1.89,1.89,0,0,0-.71,0,.61.61,0,0,0-.43-.74.6.6,0,0,0-.74.42.55.55,0,0,0,0,.31,1.61,1.61,0,0,0-.38,0H88a.84.84,0,0,0-.48.16l-.31.13h0a.81.81,0,0,0-.94-.65.8.8,0,0,0-.65.67.49.49,0,0,0-.17-.06.69.69,0,0,0,.05-.28.8.8,0,0,0-.8-.81.81.81,0,0,0-.8.65,1.56,1.56,0,0,0-1.84,1.25,1.24,1.24,0,0,0,0,.27v1.19s6.07-1.33,9.78-1.69l.35,0,.83,0S93.06,69.57,92.35,69.57Z"/><path class="cls-3" d="M61,77.08l.07-.82A1.89,1.89,0,0,0,64.3,75a1.73,1.73,0,0,0-.16-.74,1.9,1.9,0,0,0,1.11-1.14l7.83,1.18h8.13V66.41h1.45l-5.1-3.68-11.16,0c0-.15,0-.3,0-.46a5.78,5.78,0,1,0-8.19,5.24A1.92,1.92,0,0,0,57,69.85l-.29,0a2.45,2.45,0,0,0-.53,4.84,2.24,2.24,0,0,0,2.18,1.73h.18L60,77.62l-.24,1.91.11.21a48,48,0,0,0-4-2.9s6,6.19,8.11,9.82a25.16,25.16,0,0,0,2.7.63c-.15-.28-.32-.59-.53-.93a25.81,25.81,0,0,0-5.45-6l.24-3.12c1.69,1.75,6.71,7.08,8.6,10.31.35,0,.71,0,1.06,0s1,0,1.43,0c-.12-.22-.26-.46-.42-.71C68.78,82.36,62.83,78.29,61,77.08ZM64.7,63.76H75.85l-2.77,1.68-10.51-.18ZM61.32,68V66.24l3.47.05,8.29.15v6.87l-1-.16,0-3.8-4.54-.11,0,3.2-2.11-.32a1.88,1.88,0,0,0-1.54-1.5,2,2,0,0,0,.17-.79,1.89,1.89,0,0,0-1.89-1.89h0a1.83,1.83,0,0,0-.73.15Zm-4.8,4.86a1.29,1.29,0,0,0,.32.86h-.11a1.47,1.47,0,0,1,0-2.94,1.43,1.43,0,0,1,.29,0,.55.55,0,0,1,0-.18,1,1,0,0,1,.88-1,1.06,1.06,0,0,1-.05-.31.94.94,0,0,1,1.88,0h0a.45.45,0,0,1,0,.12h0A1.54,1.54,0,0,1,61.28,71v.12A.94.94,0,0,1,62.6,71a1,1,0,0,1,.16,1.33.94.94,0,0,1-1.32.16,1,1,0,0,1-.36-.69,1.53,1.53,0,0,1-2.09.56,1.56,1.56,0,0,1-.65-.74.87.87,0,0,1-.32.06,1,1,0,0,1-.42-.09A1.34,1.34,0,0,0,56.52,72.88Zm1.86,2.46a1.18,1.18,0,1,1,1.18-1.18h0a1.18,1.18,0,0,1-1.18,1.18Zm1.82,1.09s-.59.08-.75-.3h0a2.24,2.24,0,0,0,.82-.77Zm.41-2.06a1.48,1.48,0,0,0,0-.21,2.06,2.06,0,0,0-.14-.77A2.27,2.27,0,0,0,61,73.3a2.49,2.49,0,0,0,.11.29,2,2,0,0,0-.5.78Z"/><path class="cls-3" d="M50.52,80.26l-1.91,1,1.1,2,1.92-1,.59,1.09-5,2.72L46.64,85l2.15-1.18-1.11-2L45.53,83l-.6-1.09,5-2.73Z"/><path class="cls-3" d="M54.35,85.81,51.5,91.16l-.86-1L51.3,89l-1.4-1.59-1.24.5L47.83,87l5.68-2.15Zm-2.57,2.35,1.09-1.91h0l-2,.82Z"/><path class="cls-3" d="M55.94,93.93a3.13,3.13,0,0,1-2.88-2.08,2.21,2.21,0,0,1,.49-1.77l2.07-2.87,1,.74-2.07,2.86a2.55,2.55,0,0,0-.24.39,1,1,0,0,0-.09.42.93.93,0,0,0,.12.43,1.39,1.39,0,0,0,.43.44,1.19,1.19,0,0,0,.93.3,1.4,1.4,0,0,0,.75-.61l2.07-2.86,1,.73-2.07,2.88A2.14,2.14,0,0,1,55.94,93.93Z"/><path class="cls-3" d="M59.08,91l.42-1,4.27,1.89-.43,1-1.55-.69-1.87,4.24-1.14-.5,1.86-4.24Z"/><path class="cls-3" d="M67.93,92.8l-.23,1-2.93-.65-.26,1.18,2.68.6-.21,1-2.68-.6L64,96.67l3,.66-.23,1-4.21-.94,1.24-5.54Z"/><path class="cls-3" d="M71.59,98.52,69.41,93l1.28-.08,1.5,3.91h0l1-4.06,1.29-.08L73,98.43Z"/><path class="cls-3" d="M76.77,92l3.46,5L79,97.29l-.73-1.12-2.06.53L76.07,98l-1.22.31.68-6Zm.93,3.35-1.2-1.84h0l-.2,2.2Z"/><path class="cls-3" d="M79.77,90.89l2,4.16,2.5-1.21.45,1-3.61,1.75-2.48-5.12Z"/><path class="cls-3" d="M85.71,87.1l.63.83-2.4,1.8.73,1,2.2-1.65.58.78-2.2,1.65.83,1.11,2.45-1.84.63.84-3.45,2.59-3.4-4.55Z"/><path class="cls-3" d="M92.58,87.22a3.13,3.13,0,0,1-2.33,2.7,2.17,2.17,0,0,1-1.71-.64L85.87,87l.81-1,2.68,2.31a2.51,2.51,0,0,0,.37.27.94.94,0,0,0,.4.13.87.87,0,0,0,.45-.09,1.26,1.26,0,0,0,.47-.39,1.12,1.12,0,0,0,.38-.89,1.39,1.39,0,0,0-.54-.8l-2.67-2.31.81-1,2.67,2.31A2.12,2.12,0,0,1,92.58,87.22Z"/><path class="cls-3" d="M90.66,80.29a1.64,1.64,0,0,1,.43-.55,1.39,1.39,0,0,1,.54-.31,1.47,1.47,0,0,1,.59-.07,1.6,1.6,0,0,1,.6.18,1.73,1.73,0,0,1,.67.59,1.32,1.32,0,0,1,.17.87h0a.94.94,0,0,1,.74-.32,1.4,1.4,0,0,1,.41.06l.41.14.29.14.34.15.36.11a1.13,1.13,0,0,0,.32,0L96,82.4a2.28,2.28,0,0,1-.63-.18,5.22,5.22,0,0,0-.67-.27,1.15,1.15,0,0,0-.71-.07,1,1,0,0,0-.5.5l-.58,1.11,2,1-.58,1.11-5-2.63Zm2.06,1.59a.91.91,0,0,0,.13-.66.79.79,0,0,0-.44-.49.78.78,0,0,0-.63-.09.94.94,0,0,0-.47.49l-.64,1.21,1.42.74Z"/><path class="cls-3" d="M42.59,80.5l-1,.28-.78-2.9-1.18.32.72,2.65-.94.26-.71-2.65-1.35.36.8,3-1,.27L36,77.89l5.48-1.49Z"/><path class="cls-3" d="M43.39,82.35,41,86.14h0l3.44-1.65.51,1.06L39.79,88l-.54-1.13,2.42-3.78h0l-3.43,1.64-.5-1.06,5.12-2.45Z"/><path class="cls-3" d="M41.57,90.69l3.53-4.82.75,1-2.5,3.37h0l4-1.3.76,1-5.7,1.8Z"/><path class="cls-3" d="M49.36,91.24l-4.15,3.87-.85-.92,4.15-3.87Z"/><path class="cls-3" d="M52.42,94a2.12,2.12,0,0,1,.46.53,1.77,1.77,0,0,1,.19.59,1.52,1.52,0,0,1-.06.6,1.44,1.44,0,0,1-.3.54,1.6,1.6,0,0,1-.7.53,1.24,1.24,0,0,1-.89,0v0a.93.93,0,0,1,.18.39,1.34,1.34,0,0,1,0,.4,1.82,1.82,0,0,1-.14.39c-.07.13-.15.25-.23.37l-.19.26c-.07.09-.14.2-.21.3a2.58,2.58,0,0,0-.18.32.89.89,0,0,0-.08.31l-1-.79a2.49,2.49,0,0,1,.31-.58,7,7,0,0,0,.4-.6,1.06,1.06,0,0,0,.2-.67.88.88,0,0,0-.39-.59l-1-.79-1.41,1.72-1-.8,3.6-4.39Zm-2,1.71a1,1,0,0,0,.62.26.81.81,0,0,0,.56-.35.78.78,0,0,0,.21-.6.93.93,0,0,0-.38-.55l-1.06-.87-1,1.24Z"/><path class="cls-3" d="M53.57,97a2.78,2.78,0,0,1,.93-.57,2.44,2.44,0,0,1,1.07-.15,3.05,3.05,0,0,1,2.07,1.11,2.6,2.6,0,0,1,.48,1,2.91,2.91,0,0,1,0,1.1,3.79,3.79,0,0,1-1.09,2.06,2.84,2.84,0,0,1-.92.57,2.59,2.59,0,0,1-1.07.14A3.2,3.2,0,0,1,53,101.1a2.67,2.67,0,0,1-.48-1,2.8,2.8,0,0,1,0-1.08,3.32,3.32,0,0,1,.38-1.11A3.54,3.54,0,0,1,53.57,97Zm.12,2.2a1.64,1.64,0,0,0,0,.66,1.31,1.31,0,0,0,.21.61,1.67,1.67,0,0,0,1.27.68,1.5,1.5,0,0,0,.62-.16,2.09,2.09,0,0,0,.52-.41,2.85,2.85,0,0,0,.4-.58,2.68,2.68,0,0,0,.27-.68,1.89,1.89,0,0,0,.06-.67,1.22,1.22,0,0,0-.22-.61,1.61,1.61,0,0,0-1.26-.68,1.33,1.33,0,0,0-.62.16,2,2,0,0,0-.53.42,4,4,0,0,0-.42.6,3.23,3.23,0,0,0-.25.65Z"/><path class="cls-3" d="M60.94,98.63,62.11,103h0l1.12-3.64,1.12.33-1.65,5.44-1.2-.35-1.16-4.32h0l-1.09,3.64-1.13-.35,1.64-5.44Z"/><path class="cls-3" d="M66.5,100l2,4h0l.38-3.79,1.16.11L69.47,106l-1.23-.12-2-4h0l-.38,3.78-1.16-.11.57-5.66Z"/><path class="cls-3" d="M75.24,99.94l.08,1-3,.25.1,1.21,2.75-.22.08,1-2.74.22.11,1.39,3.05-.24.09,1-4.3.36L71,100.29Z"/><path class="cls-3" d="M77.66,99.4,80,102.78h0l.12-4.1,1.68-.5,1.59,5.46-1.12.32-1.13-3.86h0L81,104.35l-.93.27-2.45-3.43h0L78.68,105l-1.12.33L76,99.89Z"/><path class="cls-3" d="M86.4,95.76l.5.93-2.66,1.4.57,1.08,2.44-1.29.45.86L85.27,100l.65,1.24,2.7-1.44.49.93-3.81,2-2.65-5Z"/><path class="cls-3" d="M88,94.57l4.22,1.53h0l-2.36-3,.92-.72,3.52,4.46-1,.77-4.21-1.52h0l2.35,3-.91.72-3.52-4.46Z"/><path class="cls-3" d="M92,92.7,91.2,92l3.09-3.47.79.69L94,90.49l3.46,3.08-.83.93-3.47-3.07Z"/><path class="cls-3" d="M95.75,86.26l5.92,1.33L101,88.68l-1.29-.33-1.16,1.77.81,1.06-.69,1-3.57-4.9Zm3,1.85-2.14-.54h0l1.34,1.77Z"/><path class="cls-3" d="M97.53,83l4.25,1.85,1.1-2.54,1,.42-1.61,3.69L97,84.1Z"/><path class="cls-3" d="M99.86,75.73l1,.26-.73,2.9,1.18.3.67-2.67.94.24-.67,2.67,1.35.34.75-3,1,.26-1.07,4.18-5.5-1.39Z"/><path class="cls-3" d="M39.11,70.6a1.47,1.47,0,0,1-2.94,0,1.47,1.47,0,0,1,1.47-1.48h0a1.47,1.47,0,0,1,1.47,1.48Z"/><path class="cls-3" d="M39.55,65.42a1.47,1.47,0,1,1-1.21-1.69,1.48,1.48,0,0,1,1.21,1.69Z"/><path class="cls-3" d="M40.82,60.38a1.47,1.47,0,1,1-.92-1.87h0A1.48,1.48,0,0,1,40.82,60.38Z"/><path class="cls-3" d="M42.91,55.63a1.47,1.47,0,1,1-.6-2A1.48,1.48,0,0,1,42.91,55.63Z"/><path class="cls-3" d="M45.74,51.28a1.48,1.48,0,1,1-.26-2.07,1.48,1.48,0,0,1,.26,2.07Z"/><path class="cls-3" d="M49.25,47.45a1.47,1.47,0,1,1-2-2.16,1.46,1.46,0,0,1,2.08.08,1.48,1.48,0,0,1-.08,2.08Z"/><path class="cls-3" d="M53.35,44.26a1.48,1.48,0,0,1-1.62-2.47,1.46,1.46,0,0,1,2,.43h0a1.48,1.48,0,0,1-.43,2Z"/><path class="cls-3" d="M57.92,41.78a1.48,1.48,0,1,1,.75-2A1.48,1.48,0,0,1,57.92,41.78Z"/><path class="cls-3" d="M62.83,40.08a1.47,1.47,0,1,1,1.06-1.79h0A1.48,1.48,0,0,1,62.83,40.08Z"/><path class="cls-3" d="M68,39.22a1.47,1.47,0,1,1,1.34-1.59h0A1.47,1.47,0,0,1,68,39.22Z"/><path class="cls-3" d="M73.14,39.21a1.47,1.47,0,1,1,1.59-1.35,1.48,1.48,0,0,1-1.59,1.35Z"/><path class="cls-3" d="M78.26,40.05A1.47,1.47,0,1,1,80.05,39,1.46,1.46,0,0,1,78.26,40.05Z"/><path class="cls-3" d="M83.18,41.73A1.48,1.48,0,1,1,85.13,41a1.47,1.47,0,0,1-1.95.76Z"/><path class="cls-3" d="M87.76,44.19a1.47,1.47,0,1,1,2-.43,1.47,1.47,0,0,1-2,.43Z"/><path class="cls-3" d="M91.88,47.37A1.47,1.47,0,1,1,94,47.28,1.48,1.48,0,0,1,91.88,47.37Z"/><path class="cls-3" d="M95.4,51.18a1.47,1.47,0,1,1,2.06.25,1.46,1.46,0,0,1-2.06-.25Z"/><path class="cls-3" d="M98.25,55.52a1.47,1.47,0,1,1,2,.59h0A1.47,1.47,0,0,1,98.25,55.52Z"/><path class="cls-3" d="M100.36,60.27a1.47,1.47,0,1,1,1.88.91A1.47,1.47,0,0,1,100.36,60.27Z"/><path class="cls-3" d="M101.65,65.3a1.47,1.47,0,1,1,1.7,1.21,1.47,1.47,0,0,1-1.7-1.21Z"/><path class="cls-3" d="M102.09,70.48A1.48,1.48,0,1,1,103.57,72h0A1.49,1.49,0,0,1,102.09,70.48Z"/><path class="cls-3" d="M60.65,55.07a7.62,7.62,0,0,1,1.9.25,13,13,0,0,1-1.93-6,13.29,13.29,0,0,1-1.9,6l0,0A7.21,7.21,0,0,1,60.65,55.07Z"/><path class="cls-3" d="M58.69,55.34l0,0a30.48,30.48,0,0,1-4.19-6.5,31.06,31.06,0,0,1,2.12,7.48,7.06,7.06,0,0,1,2.05-.94Z"/><path class="cls-3" d="M58.7,55.34h0l0,0,0,0Z"/><path class="cls-3" d="M56.41,56.44a13,13,0,0,1-5.91-2.27A13,13,0,0,1,54,59.42h0A7.26,7.26,0,0,1,56.41,56.44Z"/><path class="cls-3" d="M54,59.42a31.15,31.15,0,0,1-7.69-.81,30.57,30.57,0,0,1,7.16,3A6.86,6.86,0,0,1,54,59.46Z"/><path class="cls-3" d="M54,59.42h0l0,0Z"/><path class="cls-3" d="M53.44,61.93A13.17,13.17,0,0,1,48,65.11a13.16,13.16,0,0,1,6.31.58h0a7.23,7.23,0,0,1-.85-3.4C53.43,62.17,53.43,62.05,53.44,61.93Z"/><path class="cls-3" d="M75.21,59.61a31.86,31.86,0,0,1-7.76.26,7.58,7.58,0,0,1,.41,2.26A30.37,30.37,0,0,1,75.21,59.61Z"/><path class="cls-3" d="M67.34,59.59A13.11,13.11,0,0,1,71,54.4,13,13,0,0,1,65,56.52v0A7.18,7.18,0,0,1,67.34,59.59Z"/><path class="cls-3" d="M65,56.53h0a30.41,30.41,0,0,1,2.64-7.27A30.83,30.83,0,0,1,63,55.47a7.32,7.32,0,0,1,2,1.06Z"/><path class="cls-3" d="M65,56.53l0,0v0h0Z"/><path class="cls-3" d="M58.7,55.34h0Z"/><path class="cls-3" d="M54,59.45h0l0,0h0Z"/><path class="cls-3" d="M65,56.53l0,0h0Z"/></g></g></g></g></svg>