<svg xmlns="http://www.w3.org/2000/svg" viewBox="0 0 141.2 141.2"><defs><style>.cls-1{}.cls-2{fill:none;}</style></defs><g id="Calque_2" data-name="Calque 2"><g id="Layer_1" data-name="Layer 1"><path class="cls-1" d="M43.82,24.67a.84.84,0,0,0-.48.16s-4,3-4,7.09c0,3.43,2.78,6.06,3.71,6.84v1.61a7.32,7.32,0,0,0-2.58-2.61A7.43,7.43,0,0,0,37,36.83a12.11,12.11,0,0,0-4.67.86h0a.77.77,0,0,0-.48.83s.57,5,4.13,7c2.5,1.44,5.5.89,7.07.43v4.63H31v-1a2.7,2.7,0,0,0-2.68-2.69h-5a2.7,2.7,0,0,0-2.68,2.69V68.27A2.7,2.7,0,0,0,23.28,71h5A2.69,2.69,0,0,0,31,68.28V67.22h79.22v1A2.7,2.7,0,0,0,112.89,71h5a2.7,2.7,0,0,0,2.68-2.69V49.56a2.7,2.7,0,0,0-2.68-2.69h-5a2.7,2.7,0,0,0-2.68,2.69v1H98.15V46c1.56.45,4.56,1,7.07-.44,3.56-2.06,4.13-7,4.13-7h0a.77.77,0,0,0-.48-.83,12.19,12.19,0,0,0-4.68-.86,7.33,7.33,0,0,0-3.47.92,7.48,7.48,0,0,0-2.58,2.61V38.76c.93-.77,3.71-3.41,3.71-6.84,0-4.11-4-7.09-4-7.09h0a.84.84,0,0,0-.48-.16.79.79,0,0,0-.48.16s-4,3-4,7.09c0,3.43,2.79,6.06,3.72,6.84v1.61a6.94,6.94,0,0,0-6-3.54,12.19,12.19,0,0,0-4.68.86h0a.79.79,0,0,0-.48.83s.57,5,4.14,7C92,47,95,46.44,96.6,46v4.63H71.38V46c1.57.45,4.57,1,7.07-.44,3.56-2.06,4.13-7,4.13-7h0a.77.77,0,0,0-.48-.83,12.13,12.13,0,0,0-4.68-.86,7.33,7.33,0,0,0-3.47.92,7.45,7.45,0,0,0-2.57,2.61V38.76c.92-.77,3.71-3.41,3.71-6.84,0-4.11-4-7.09-4-7.09h0a.8.8,0,0,0-1,0s-4,3-4,7.09c0,3.43,2.78,6.06,3.71,6.84v1.61a6.94,6.94,0,0,0-6-3.54,12.11,12.11,0,0,0-4.67.86h0a.77.77,0,0,0-.48.83s.57,5,4.13,7c2.5,1.44,5.5.89,7.07.43v4.63H44.6V46c1.57.45,4.57,1,7.07-.44,3.57-2.06,4.14-7,4.14-7h0a.79.79,0,0,0-.48-.83,12.19,12.19,0,0,0-4.68-.86,7.3,7.3,0,0,0-3.47.92,7.4,7.4,0,0,0-2.58,2.61V38.76c.93-.77,3.71-3.41,3.71-6.84,0-4.11-4-7.09-4-7.09h0a.79.79,0,0,0-.48-.16ZM97.37,26.5c.92.89,2.93,3.07,2.93,5.42s-2,4.53-2.93,5.41c-.92-.88-2.93-3.07-2.93-5.41S96.45,27.39,97.37,26.5Zm-53.55,0c.92.89,2.93,3.07,2.93,5.42s-2,4.53-2.93,5.41c-.92-.88-2.93-3.07-2.93-5.41S42.9,27.39,43.82,26.5Zm26.78,0c.92.89,2.93,3.07,2.93,5.42s-2,4.53-2.93,5.41c-.92-.88-2.93-3.07-2.93-5.41S69.68,27.39,70.6,26.5Zm-33.91,12H37a5.67,5.67,0,0,1,2.74.67c2,1.17,2.92,4,3.22,5.24-1.23.36-4.12,1-6.15-.17s-2.93-4-3.23-5.24a12,12,0,0,1,3.16-.5Zm14.27,0a12.32,12.32,0,0,1,3.16.5c-.31,1.24-1.2,4.07-3.23,5.24s-4.93.53-6.15.17c.3-1.24,1.19-4.07,3.22-5.24a5.64,5.64,0,0,1,2.74-.67Zm12.51,0h.26a5.63,5.63,0,0,1,2.73.67c2,1.17,2.92,4,3.23,5.24-1.23.36-4.13,1-6.16-.17s-2.92-4-3.22-5.24a11.89,11.89,0,0,1,3.16-.5Zm14.27,0a12.23,12.23,0,0,1,3.15.5c-.3,1.24-1.19,4.07-3.22,5.24s-4.93.53-6.15.17c.3-1.24,1.19-4.07,3.22-5.24a5.64,5.64,0,0,1,2.74-.67Zm12.5,0h.27a5.63,5.63,0,0,1,2.73.67c2,1.17,2.92,4,3.22,5.24-1.22.36-4.12,1-6.15-.17s-2.92-4-3.22-5.24a11.88,11.88,0,0,1,3.15-.5Zm14.27,0a12.24,12.24,0,0,1,3.16.5c-.3,1.24-1.19,4.07-3.22,5.24s-4.93.53-6.15.17c.3-1.24,1.19-4.07,3.22-5.24a5.63,5.63,0,0,1,2.73-.67Zm-81.23,10h5a1.09,1.09,0,0,1,1.12,1.12V68.27a1.1,1.1,0,0,1-1.12,1.12h-5a1.11,1.11,0,0,1-1.12-1.12V49.56a1.1,1.1,0,0,1,1.12-1.12Zm89.61,0h5A1.1,1.1,0,0,1,119,49.56V68.27a1.1,1.1,0,0,1-1.12,1.12h-5a1.11,1.11,0,0,1-1.12-1.12V49.56A1.1,1.1,0,0,1,112.89,48.44ZM31,52.17h4v2.77a2.76,2.76,0,0,0,2.75,2.75H49.94a2.76,2.76,0,0,0,2.75-2.75V52.17h9v2.77a2.76,2.76,0,0,0,2.75,2.75H76.71a2.76,2.76,0,0,0,2.75-2.75V52.17h9v2.77a2.76,2.76,0,0,0,2.75,2.75h12.24a2.76,2.76,0,0,0,2.75-2.75V52.17h4V65.65H31Zm5.53,0H51.13v2.77a1.17,1.17,0,0,1-1.19,1.19H37.7a1.17,1.17,0,0,1-1.18-1.19Zm26.77,0H77.91v2.77a1.17,1.17,0,0,1-1.19,1.19H64.48a1.17,1.17,0,0,1-1.18-1.19Zm26.78,0h14.61v2.77a1.16,1.16,0,0,1-1.18,1.19H91.25a1.17,1.17,0,0,1-1.18-1.19ZM43.82,70.24a.78.78,0,0,0-.48.17s-4,3-4,7.08c0,3.44,2.79,6.07,3.71,6.85v1.6a7.37,7.37,0,0,0-2.58-2.6A7.28,7.28,0,0,0,37,82.41a12.13,12.13,0,0,0-4.68.86h0a.78.78,0,0,0-.48.83s.57,5,4.14,7c2.5,1.44,5.5.89,7.07.44v4.63H31V95.13a2.69,2.69,0,0,0-2.68-2.68h-5a2.69,2.69,0,0,0-2.68,2.68v18.72a2.69,2.69,0,0,0,2.68,2.68h5A2.69,2.69,0,0,0,31,113.85v-1h79.22v1a2.69,2.69,0,0,0,2.68,2.68h5a2.69,2.69,0,0,0,2.68-2.68V95.13a2.69,2.69,0,0,0-2.68-2.68h-5a2.69,2.69,0,0,0-2.68,2.68v1.06h-12V91.56c1.57.45,4.57,1,7.07-.44,3.56-2.06,4.13-7,4.13-7h0a.78.78,0,0,0-.48-.83,12.19,12.19,0,0,0-4.68-.86,7.46,7.46,0,0,0-3.47.93,7.34,7.34,0,0,0-2.57,2.6v-1.6c.92-.78,3.71-3.41,3.71-6.85,0-4.11-4-7.08-4-7.08h0a.78.78,0,0,0-.48-.17.74.74,0,0,0-.48.17s-4,3-4,7.08c0,3.44,2.78,6.07,3.71,6.85v1.6A7.46,7.46,0,0,0,94,83.34a7.31,7.31,0,0,0-3.47-.93,12.19,12.19,0,0,0-4.68.86h0a.79.79,0,0,0-.49.83s.57,5,4.14,7c2.5,1.44,5.5.89,7.07.44v4.63H71.39V91.56c1.56.45,4.56,1,7.07-.44,3.56-2.06,4.13-7,4.13-7h0a.77.77,0,0,0-.48-.83,12.11,12.11,0,0,0-4.67-.86,7,7,0,0,0-6.05,3.53v-1.6c.93-.78,3.71-3.41,3.71-6.85,0-4.11-4-7.08-4-7.08a.76.76,0,0,0-.48-.17.78.78,0,0,0-.48.17s-4,3-4,7.08c0,3.44,2.78,6.07,3.71,6.85v1.6a7.46,7.46,0,0,0-2.58-2.6,7.31,7.31,0,0,0-3.47-.93,12.11,12.11,0,0,0-4.67.86h0a.78.78,0,0,0-.48.83s.57,5,4.13,7c2.5,1.44,5.5.89,7.07.44v4.63H44.61V91.56c1.56.45,4.56,1,7.07-.44,3.56-2.06,4.13-7,4.13-7h0a.78.78,0,0,0-.48-.83,12.19,12.19,0,0,0-4.68-.86,7,7,0,0,0-6,3.53v-1.6c.93-.78,3.71-3.41,3.71-6.85,0-4.11-4-7.08-4-7.08h0a.78.78,0,0,0-.48-.17Zm53.55,1.84c.93.88,2.93,3.06,2.93,5.41s-2,4.53-2.93,5.41c-.92-.88-2.93-3.06-2.93-5.41S96.45,73,97.37,72.08Zm-53.55,0c.93.88,2.93,3.06,2.93,5.41s-2,4.53-2.93,5.41c-.92-.88-2.93-3.06-2.93-5.41S42.9,73,43.82,72.08Zm26.78,0c.92.88,2.93,3.06,2.93,5.41s-2,4.53-2.93,5.41c-.92-.88-2.93-3.06-2.93-5.41S69.68,73,70.6,72.08ZM36.69,84H37a5.63,5.63,0,0,1,2.74.66c2,1.18,2.92,4,3.22,5.25-1.23.35-4.12,1-6.15-.17s-2.93-4-3.23-5.25A12,12,0,0,1,36.69,84ZM51,84a12,12,0,0,1,3.16.49c-.31,1.24-1.19,4.07-3.23,5.25s-4.93.52-6.15.17c.31-1.25,1.19-4.07,3.22-5.25A5.63,5.63,0,0,1,50.7,84Zm12.51,0h.26a5.59,5.59,0,0,1,2.73.66c2,1.18,2.93,4,3.23,5.25-1.23.35-4.12,1-6.16-.17s-2.92-4-3.22-5.25A12,12,0,0,1,63.47,84Zm14.27,0a11.8,11.8,0,0,1,3.15.49c-.3,1.24-1.19,4.07-3.22,5.25s-4.93.52-6.15.17c.3-1.25,1.19-4.07,3.22-5.25A5.63,5.63,0,0,1,77.48,84Zm12.51,0h.26a5.62,5.62,0,0,1,2.73.66c2,1.18,2.92,4,3.23,5.25-1.23.35-4.13,1-6.16-.17s-2.92-4-3.22-5.25A12,12,0,0,1,90.25,84Zm14.27,0a11.87,11.87,0,0,1,3.15.49c-.3,1.24-1.19,4.07-3.22,5.25s-4.93.52-6.15.17c.3-1.25,1.19-4.07,3.22-5.25a5.62,5.62,0,0,1,2.73-.66ZM23.29,94h5a1.1,1.1,0,0,1,1.12,1.12v18.72A1.11,1.11,0,0,1,28.31,115h-5a1.1,1.1,0,0,1-1.12-1.12V95.13A1.1,1.1,0,0,1,23.29,94Zm89.61,0h5A1.1,1.1,0,0,1,119,95.13v18.72a1.11,1.11,0,0,1-1.12,1.12h-5a1.11,1.11,0,0,1-1.13-1.12V95.13A1.1,1.1,0,0,1,112.9,94ZM31,97.75h4v2.77a2.75,2.75,0,0,0,2.74,2.74H50a2.75,2.75,0,0,0,2.74-2.74V97.75h9v2.77a2.75,2.75,0,0,0,2.74,2.74H76.72a2.75,2.75,0,0,0,2.74-2.74V97.75h9v2.77a2.75,2.75,0,0,0,2.74,2.74h12.25a2.75,2.75,0,0,0,2.75-2.74V97.75h4v13.48H31Zm5.52,0H51.13v2.77A1.16,1.16,0,0,1,50,101.7H37.71a1.17,1.17,0,0,1-1.19-1.18Zm26.78,0H77.91v2.77a1.16,1.16,0,0,1-1.18,1.18H64.49a1.16,1.16,0,0,1-1.19-1.18Zm26.77,0h14.62v2.77a1.17,1.17,0,0,1-1.19,1.18H91.26a1.17,1.17,0,0,1-1.19-1.18Z"/><rect class="cls-2" width="141.2" height="141.2" rx="70.6"/></g></g></svg>