<svg xmlns="http://www.w3.org/2000/svg" viewBox="0 0 45.19 36.12"><defs><style>.cls-1{}</style></defs><g id="Calque_2" data-name="Calque 2"><g id="Layer_1" data-name="Layer 1"><g id="Layer_1-2" data-name="Layer 1-2"><path class="cls-1" d="M15.82,18a9,9,0,1,0-9-9A9,9,0,0,0,15.82,18Zm6.33,2.26H21a12.28,12.28,0,0,1-10.3,0H9.49A9.51,9.51,0,0,0,0,29.79v2.94a3.39,3.39,0,0,0,3.39,3.39H22.8a3.49,3.49,0,0,1-.18-1.5l.5-4.31.06-.79.56-.56,5.46-5.45A9.36,9.36,0,0,0,22.15,20.3Zm3.2,10.26-.5,4.31a1.12,1.12,0,0,0,1,1.24h.26l4.3-.5,9.76-9.72-5.08-5.06ZM44.7,19,42,16.27a1.71,1.71,0,0,0-2.39,0L37,18.94l-.29.29,5.07,5.07,3-3A1.69,1.69,0,0,0,44.7,19Z"/></g></g></g></svg>