<svg xmlns="http://www.w3.org/2000/svg" viewBox="0 0 80.38 83.09"><defs><style>.cls-1{}</style></defs><g id="Calque_2" data-name="Calque 2"><g id="Layer_1" data-name="Layer 1"><path class="cls-1" d="M11.78,83.09a11.79,11.79,0,0,0,10.43-6.32,13.92,13.92,0,0,1-4.14-6.63,13.52,13.52,0,0,1-3,.34A14,14,0,0,1,3,63.49a11.76,11.76,0,0,0,8.79,19.6Z"/><path class="cls-1" d="M4.16,61c.14.35.3.69.47,1A11.79,11.79,0,0,0,15.07,68.3,12.12,12.12,0,0,0,17.64,68a14.7,14.7,0,0,1-.1-1.63,13.72,13.72,0,0,1,.87-4.81c.13-.34.27-.69.42-1s.31-.66.49-1a14,14,0,0,1,3.25-3.92A14,14,0,0,1,10,45.92a11.77,11.77,0,0,0-6.19,14C3.89,60.25,4,60.61,4.16,61Z"/><path class="cls-1" d="M29,58a13.5,13.5,0,0,1-1.07-2.8h0c-.36.12-.71.25-1.06.4a11.85,11.85,0,0,0-5.73,5.34,9.48,9.48,0,0,0-.48,1c-.15.37-.28.75-.4,1.14a12,12,0,0,0-.47,3.3c0,.32,0,.63,0,.94a10.4,10.4,0,0,0,.15,1.12,9.73,9.73,0,0,0,.24,1.07,11.91,11.91,0,0,0,2.93,5.1,11.52,11.52,0,0,0,.89.82c.29.24.59.47.9.68a11.77,11.77,0,0,0,18.41-9.73c0-.33,0-.65-.05-1a14.59,14.59,0,0,1-1.88.14A14,14,0,0,1,29,58Z"/><path class="cls-1" d="M11.74,44.1c.07.36.17.71.27,1.06A11.76,11.76,0,0,0,26.34,53.1c.35-.1.7-.21,1-.33l.07,0c0-.38-.06-.76-.06-1.15a13.59,13.59,0,0,1,.08-1.44,14,14,0,0,1,4.16-8.56,13.82,13.82,0,0,1-2.53-6.9,13.82,13.82,0,0,1-14-1.4,11.75,11.75,0,0,0-3.58,8.44A10.9,10.9,0,0,0,11.58,43,9.36,9.36,0,0,0,11.74,44.1Z"/><path class="cls-1" d="M45,62.8A11.85,11.85,0,0,0,50.49,59a13.94,13.94,0,0,1-5-10.71c0-.36,0-.72.05-1.07a14,14,0,0,1-2.52.24,13.8,13.8,0,0,1-6.4-1.57c-.34-.17-.66-.36-1-.56s-.64-.42-.95-.65A15,15,0,0,1,33,43.27a11.75,11.75,0,0,0-3.45,8.32s0,.06,0,.09c0,.3,0,.59,0,.88l0,.35c0,.25.07.49.11.73s0,.28.07.41.11.44.17.66a11.8,11.8,0,0,0,11.35,8.66,12.46,12.46,0,0,0,1.5-.1c.36-.05.72-.11,1.07-.19S44.63,62.91,45,62.8Z"/><path class="cls-1" d="M15.91,31.19a10.29,10.29,0,0,0,.94.69,11.71,11.71,0,0,0,12.25.37c0-.23.06-.46.09-.69.06-.39.12-.77.21-1.15s.17-.72.28-1.07a14,14,0,0,1,5.38-7.29v0a11.78,11.78,0,1,0-20,8.44C15.35,30.72,15.62,31,15.91,31.19Z"/><path class="cls-1" d="M31.68,30.26c0,.1-.05.2-.07.3a11,11,0,0,0-.24,1.17l-.06.33c0,.34-.06.67-.07,1,0,.14,0,.28,0,.42v0a11.72,11.72,0,0,0,2.09,6.69c.2.29.42.58.65.86s.48.55.74.81l.34.3a12.16,12.16,0,0,0,1,.86c.33.23.66.45,1,.65a11.52,11.52,0,0,0,8.81,1.23,14.29,14.29,0,0,1,1.39-3.49c.18-.31.37-.63.57-.93s.42-.59.65-.87a14,14,0,0,1,6.13-4.42,11.47,11.47,0,0,0-3.14-9.82c.15-.37.29-.74.45-1.1s.33-.68.5-1C56.73,14.67,65.09,9.51,73.89,5.84c3.4-1.43,1.91-7-1.55-5.61C62,4.58,52.65,10.44,47.49,20.32c-.17.32-.32.65-.48,1s-.33.64-.48,1a11.74,11.74,0,0,0-9.35,1,12.85,12.85,0,0,0-2.59,2A11.81,11.81,0,0,0,31.68,30.26Z"/><path class="cls-1" d="M51.71,57.19c.28.24.57.47.87.68a9.46,9.46,0,0,0,.91.59,11.62,11.62,0,0,0,5.93,1.63,11.78,11.78,0,0,0,0-23.56,11.58,11.58,0,0,0-2.9.37c-.41.11-.82.24-1.22.38a12.14,12.14,0,0,0-1.38.62,11.77,11.77,0,0,0-3.63,3c-.23.28-.45.57-.65.87s-.4.63-.58,1a10.37,10.37,0,0,0-.56,1.22A11.39,11.39,0,0,0,48,45.36a10.63,10.63,0,0,0-.25,1.25,11.91,11.91,0,0,0-.14,1.69A11.77,11.77,0,0,0,51.71,57.19Z"/><path class="cls-1" d="M80.38,31.11s-9-26.48-19.75-13.36S72.87,36.19,80.38,31.11Z"/></g></g></svg>