<svg xmlns="http://www.w3.org/2000/svg" viewBox="0 0 89.98 75.93"><defs><style>.cls-1{}</style></defs><g id="Calque_2" data-name="Calque 2"><g id="Layer_1" data-name="Layer 1"><path class="cls-1" d="M86.09,17,48.56.71a9.5,9.5,0,0,0-7.22,0L3.81,17a5.81,5.81,0,0,0,0,10.91l1.76.77V63.93L1,71.7a2.82,2.82,0,0,0,1,3.85,2.73,2.73,0,0,0,1.42.38h9.84a2.81,2.81,0,0,0,2.82-2.8,2.9,2.9,0,0,0-.39-1.43L11.2,63.93V31.18l5.63,2.45V50.27c0,3.94,3,7.6,8.42,10.31,5.27,2.65,12.27,4.1,19.7,4.1s14.43-1.45,19.71-4.09c5.43-2.71,8.42-6.38,8.42-10.31V33.62L86,28l.17-.07a5.81,5.81,0,0,0,0-10.94ZM67.45,50.27c0,1.62-2,3.65-5.31,5.28a31.32,31.32,0,0,1-7.67,2.56,48.6,48.6,0,0,1-19,0,31.6,31.6,0,0,1-7.67-2.56c-3.32-1.62-5.35-3.62-5.35-5.28V36.07l18.89,8.21a9.41,9.41,0,0,0,7.22,0l18.89-8.21ZM83.86,22.8,46.32,39.12a3.81,3.81,0,0,1-2.74,0L6.06,22.81a1.17,1.17,0,0,1-.46-.31,1.44,1.44,0,0,1,.46-.31L43.58,5.87a3.81,3.81,0,0,1,2.74,0L83.84,22.18a1.33,1.33,0,0,1,.46.31A1,1,0,0,1,83.86,22.8Z"/></g></g></svg>