<svg xmlns="http://www.w3.org/2000/svg" viewBox="0 0 42.47 42.66"><defs><style>.cls-1{}</style></defs><g id="Calque_2" data-name="Calque 2"><g id="Layer_1" data-name="Layer 1"><path class="cls-1" d="M19.18,42.66A19.18,19.18,0,0,0,36.11,14.47a2.42,2.42,0,0,1-.47,0h-.28l-2.44-.19-1.75,1.75A14.12,14.12,0,1,1,26.6,11.5l1.59-1.59L28,7.11a4.85,4.85,0,0,1,0-.66,19.18,19.18,0,1,0-8.8,36.21Z"/><path class="cls-1" d="M19.18,18.53h.37L23.1,15l.07-.07a9.33,9.33,0,0,0-4-.89,9.45,9.45,0,1,0,8.55,5.45l-.07.08-3.54,3.54c0,.12,0,.25,0,.37a5,5,0,1,1-4.95-4.95Z"/><path class="cls-1" d="M38.94,6.38l1.14-1.13a1.33,1.33,0,0,0,0-1.88l-.79-.79a1.32,1.32,0,0,0-1.87,0l-1.3,1.3L35.85.41A.45.45,0,0,0,35.4,0a.43.43,0,0,0-.31.13L30,5.26A2.24,2.24,0,0,0,29.31,7l0,.2.24,3.21-1.85,1.86-3.34,3.33-.07.08-3.23,3.22-1.43,1.44a1,1,0,0,0-.32.7l-.09,1.12a1.11,1.11,0,0,0,1.11,1.21h.06l1.19-.06a1.11,1.11,0,0,0,.73-.32l1.42-1.42L27,18.35l.07-.08,3.34-3.33,2-2,2.93.23h.3a2.23,2.23,0,0,0,1.58-.65l5.13-5.12a.45.45,0,0,0-.29-.76Z"/></g></g></svg>