<svg xmlns="http://www.w3.org/2000/svg" viewBox="0 0 63.74 58"><defs><style>.cls-1{}</style></defs><g id="Calque_2" data-name="Calque 2"><g id="Layer_1" data-name="Layer 1"><g id="Layer_1-2" data-name="Layer 1-2"><path class="cls-1" d="M16.1,51.3a8.13,8.13,0,0,1-6.23-2.95A8.26,8.26,0,0,1,8.06,43.7v-1a7.85,7.85,0,0,1,1.25-3.87,8.29,8.29,0,0,1,.55-.77,8.17,8.17,0,0,1,3.3-2.39,7.45,7.45,0,0,1,.91-.3,7.77,7.77,0,0,1,4.06,0,7.45,7.45,0,0,1,.91.3,8.19,8.19,0,0,1,3.29,2.37,8.33,8.33,0,0,1,1.83,4.69v.95h0a8.21,8.21,0,0,1-1.83,4.65,8.07,8.07,0,0,1-6.23,2.95M17.73,29H13v1.15a10.64,10.64,0,0,0-3.48,1.31L9,30.34,5.81,32.7l.9,1.15a12.92,12.92,0,0,0-2.45,3.41l-1.32-.44L1.69,40.68,3,41.13a13.51,13.51,0,0,0,0,4.21l-1.34.44,1.24,3.87,1.35-.44a13.43,13.43,0,0,0,2.48,3.41l-.83,1.14,3.29,2.39L9.53,55A10.85,10.85,0,0,0,13,56.31V58h4.72V56.31A14.8,14.8,0,0,0,21.94,55l.92,1.14,3.35-2.39-.81-1.14a13.71,13.71,0,0,0,2.49-3.41l1.35.44,1.26-3.87-1.34-.43a15,15,0,0,0,.17-2.11,13.45,13.45,0,0,0-.17-2.11l1.34-.44-1.25-3.87-1.35.44a13.39,13.39,0,0,0-2.47-3.41l.82-1.15L23,30.31l-1,1.15a15.15,15.15,0,0,0-4.21-1.31V29"/><path class="cls-1" d="M52,54.37a4.48,4.48,0,1,1,4.48-4.48h0A4.49,4.49,0,0,1,52,54.37h0M6.26,4h-2V24.63A23.08,23.08,0,0,0,.5,27.87a2,2,0,0,0,.16,2.8A2,2,0,0,0,2,31.18a2,2,0,0,0,1.47-.62,17.93,17.93,0,0,1,30.7,15.6,2,2,0,0,0,1.56,2.31h.37A2.21,2.21,0,0,0,38,46.6a16.46,16.46,0,0,0,.33-2.8h7.58a8.74,8.74,0,0,0-2.14,5.78,8.2,8.2,0,0,0,8.09,8.31H52a8.2,8.2,0,0,0,8.2-8.11v-.3a8.44,8.44,0,0,0-2.14-5.71h5.67L56.85,24.89H46.73V17.53h-2V8.77H42V25H39.45l-5.9-20.9H31.61L35.3,17.53H31.12l-5-4.94L28,10.75a1,1,0,0,0,.06-1.42,1,1,0,0,0-1.41-.06h0l-.06.06L22,13.9a1,1,0,0,0,0,1.4h0a1,1,0,0,0,1.4,0v0l1.84-1.85,4.09,4.07H13V13.28c0-2.37-1.11-4.5-3.48-4.5H6.26V4"/><polyline class="cls-1" points="34.66 0 1.54 0 1.54 2.7 35.2 2.7 34.66 0"/></g></g></g></svg>