<svg xmlns="http://www.w3.org/2000/svg" viewBox="0 0 51.05 45.66"><defs><style>.cls-1{}</style></defs><g id="Calque_2" data-name="Calque 2"><g id="Layer_1" data-name="Layer 1"><path class="cls-1" d="M12.32,36.46A4,4,0,0,0,9.08,39.1a.6.6,0,0,0,.37.77.64.64,0,0,0,.2,0,.6.6,0,0,0,.57-.4,2.72,2.72,0,0,1,2.26-1.83A.59.59,0,0,0,13,37a.61.61,0,0,0-.67-.53Z"/><path class="cls-1" d="M34,37.6a8.26,8.26,0,1,0-8.26-8.26A8.27,8.27,0,0,0,34,37.6Zm0-15.3a7.05,7.05,0,1,1-7,7.05A7,7,0,0,1,34,22.3Z"/><path class="cls-1" d="M30.29,31.83a2.15,2.15,0,0,0,.95.21,2.12,2.12,0,0,0,.91-.21,3.37,3.37,0,0,1,1.21,2.74.59.59,0,0,0,.4.61h0l.12,0H34l.12,0h0a.59.59,0,0,0,.4-.61,3.43,3.43,0,0,1,1.21-2.74,2.2,2.2,0,0,0,.9.21,2.15,2.15,0,0,0,.94-.21A2.33,2.33,0,0,0,39,30a17.88,17.88,0,0,1,.84-2.68.6.6,0,0,0-.08-.59.65.65,0,0,0-.54-.24c-3.63.33-4.58,1.8-4.74,2.95a2.35,2.35,0,0,0,.41,1.66A5.53,5.53,0,0,0,34,32.17a5.53,5.53,0,0,0-.88-1.12,2.35,2.35,0,0,0,.41-1.66c-.16-1.16-1.12-2.62-4.74-2.95a.64.64,0,0,0-.54.24.62.62,0,0,0-.08.59A17.88,17.88,0,0,1,29,30a2.38,2.38,0,0,0,1.33,1.88Zm5.34-2.26c.16-1.06,1.4-1.56,2.7-1.79a12.67,12.67,0,0,0-.56,2,1.18,1.18,0,0,1-.63,1,1,1,0,0,1-1.06-.12,1.12,1.12,0,0,1-.45-1.05Zm-3.32,0a1.1,1.1,0,0,1-.45,1.05,1,1,0,0,1-1.05.12,1.17,1.17,0,0,1-.64-1,11.6,11.6,0,0,0-.55-2c1.29.23,2.54.73,2.69,1.79Z"/><path class="cls-1" d="M15.81,44.45H2.45A1.26,1.26,0,0,1,1.2,43.19a4.45,4.45,0,0,1,5.3-4.36.62.62,0,0,0,.68-.4,6,6,0,0,1,5.66-4l.39,0h.11a5.92,5.92,0,0,1,3.88,1.91.61.61,0,0,0,.89-.82,7.13,7.13,0,0,0-4.06-2.21,12,12,0,0,1,1.7-3.61,3.53,3.53,0,0,0,2.09.7,3.72,3.72,0,0,0,3.54-2.53,32.86,32.86,0,0,1,2.79-4.51.62.62,0,0,0,.07-.59.61.61,0,0,0-.46-.36c-6.32-1-8.55.95-9.32,2.8a3.77,3.77,0,0,0,.43,3.61,12.78,12.78,0,0,0-1.44,2.54,21.81,21.81,0,0,0-1.33-3.76,4.77,4.77,0,0,0,1.11-4c-.46-2.5-2.74-5.58-11-6a.61.61,0,0,0-.59.84A43.86,43.86,0,0,1,4,25.08a4.91,4.91,0,0,0,2.87,3.81,4.54,4.54,0,0,0,1.76.36,4.6,4.6,0,0,0,2.55-.8,21.3,21.3,0,0,1,1.45,4.76,7.24,7.24,0,0,0-6.38,4.34A5.66,5.66,0,0,0,0,43.17a2.46,2.46,0,0,0,2.46,2.46H15.81a.61.61,0,0,0,.61-.6.59.59,0,0,0-.61-.58Zm-.24-18.77c1-2.34,4.18-2.54,7.05-2.2a27.59,27.59,0,0,0-2.35,3.93,2.68,2.68,0,0,1-2,1.75,2.37,2.37,0,0,1-1.83-.4,12.36,12.36,0,0,1,2.81-2.48.6.6,0,0,0,.22-.82.61.61,0,0,0-.82-.22,13.11,13.11,0,0,0-3,2.59,2.57,2.57,0,0,1-.1-2.15ZM7.31,27.79a3.7,3.7,0,0,1-2.16-2.92,36.87,36.87,0,0,0-2-5.94c5.32.44,8.39,2.14,8.91,4.95a3.57,3.57,0,0,1-.52,2.55,14.54,14.54,0,0,0-4.89-5.34.6.6,0,1,0-.64,1,13.27,13.27,0,0,1,4.65,5.26,3.35,3.35,0,0,1-3.32.42Z"/><path class="cls-1" d="M50.6,42c-.15-.18-.3-.34-.45-.5-.58-.61-1.07-1.13-1.51-3.56a12.38,12.38,0,0,1,0-3.94c.45-3,1.43-12.89-3.83-19.9l.43-.05a3.05,3.05,0,0,0,2-1.26,2.71,2.71,0,0,0,.46-2.13,3,3,0,0,0-3.39-2.34,67.6,67.6,0,0,1-20.77,0,3,3,0,0,0-3.39,2.34,2.74,2.74,0,0,0,.46,2.13,3.05,3.05,0,0,0,2,1.26l.44.05a19.13,19.13,0,0,0-3.05,6.07.59.59,0,0,0,.4.75.57.57,0,0,0,.18,0,.61.61,0,0,0,.57-.43,18.14,18.14,0,0,1,3.26-6.22,73.39,73.39,0,0,0,9.48.63,73.39,73.39,0,0,0,9.48-.63c5.45,6.63,4.45,16.6,4,19.53a12.64,12.64,0,0,0,0,4.34c.5,2.79,1.17,3.5,1.82,4.17a5.79,5.79,0,0,1,.39.44c.05,0,.2.24.16.35a2,2,0,0,1-1.37.62A5.34,5.34,0,0,1,46,43.48a8.89,8.89,0,0,0-5.81-.14A20.16,20.16,0,0,1,34,44.45a20.25,20.25,0,0,1-6.2-1.09,8.87,8.87,0,0,0-5.86.12,5.44,5.44,0,0,1-2.43.26,2,2,0,0,1-1.38-.62c0-.1.12-.3.16-.35a5.84,5.84,0,0,1,.4-.44c.65-.68,1.32-1.38,1.82-4.17a13.16,13.16,0,0,0,0-4.34c-.06-.4-.15-1.07-.23-2a.63.63,0,0,0-.66-.55.61.61,0,0,0-.55.66c.09.92.18,1.62.25,2a12.38,12.38,0,0,1,0,3.94c-.45,2.44-.94,3-1.52,3.56-.15.16-.3.31-.45.49A1.51,1.51,0,0,0,17,43.55c.39,1,1.88,1.31,2.33,1.38a6.56,6.56,0,0,0,3-.3,7.76,7.76,0,0,1,5.05-.14A21.37,21.37,0,0,0,34,45.66a21.51,21.51,0,0,0,6.65-1.18,7.79,7.79,0,0,1,5,.15,6.6,6.6,0,0,0,3,.31c.45-.07,1.93-.36,2.33-1.39A1.49,1.49,0,0,0,50.6,42ZM22.89,12.85a1.83,1.83,0,0,1-1.24-.76,1.56,1.56,0,0,1-.26-1.2,1.76,1.76,0,0,1,1.74-1.41l.29,0a68.12,68.12,0,0,0,21.14,0,1.75,1.75,0,0,1,2,1.39,1.48,1.48,0,0,1-.26,1.2,1.81,1.81,0,0,1-1.24.76,72.42,72.42,0,0,1-22.19,0Z"/><path class="cls-1" d="M23.67,7.11h.1a.62.62,0,0,0,.67-.41,1.5,1.5,0,0,1,1.78,0,.58.58,0,0,0,.63.06.63.63,0,0,0,.34-.56A2.43,2.43,0,0,1,30.1,3.87a.59.59,0,0,0,.68-.4,3.39,3.39,0,0,1,6.39,0,.59.59,0,0,0,.68.4,2.43,2.43,0,0,1,2.91,2.42.6.6,0,0,0,1,.47,1.49,1.49,0,0,1,1.77,0,.62.62,0,0,0,.57.42h.2a.63.63,0,0,0,.49-.4.6.6,0,0,0-.13-.62,2.77,2.77,0,0,0-2.79-.75A3.65,3.65,0,0,0,38.1,2.62a4.58,4.58,0,0,0-8.28,0,3.64,3.64,0,0,0-3.73,2.73,2.71,2.71,0,0,0-2.79.75.64.64,0,0,0-.13.62.65.65,0,0,0,.5.39Z"/></g></g></svg>