<svg xmlns="http://www.w3.org/2000/svg" viewBox="0 0 46.82 44.51"><defs><style>.cls-1{}</style></defs><g id="Calque_2" data-name="Calque 2"><g id="Layer_1" data-name="Layer 1"><path class="cls-1" d="M30.76,13.1a.43.43,0,0,0,.22.06.48.48,0,0,0,.48-.47v-.51a7.91,7.91,0,0,0-4.66-7,11.62,11.62,0,0,1,2.83-3.48,1,1,0,0,0,.16.12A.92.92,0,1,0,30.52.08a.91.91,0,0,0-1.21.48.94.94,0,0,0,0,.66,12.18,12.18,0,0,0-3,3.71L26,4.8a8.39,8.39,0,0,0-2.58-.41,8.28,8.28,0,0,0-3.24.67,12.44,12.44,0,0,0-3.05-3.84.94.94,0,0,0,0-.66A.91.91,0,0,0,15.93.08a.92.92,0,1,0,.73,1.69,1,1,0,0,0,.16-.12,11.87,11.87,0,0,1,2.92,3.63,8.31,8.31,0,0,0-2.69,2.15,7.75,7.75,0,0,0-1.66,5.26.46.46,0,0,0,.06.23.47.47,0,0,0,.64.17A13.69,13.69,0,0,1,21.69,11a13.2,13.2,0,0,1,6,.62A14.35,14.35,0,0,1,30.76,13.1Z"/><path class="cls-1" d="M13.5,17.31,8.84,15.62l-.22-.09c-.3-.73-.6-1.51-.91-2.26-.55-1.49-1.13-3-1.72-4.45-.13-.34-.27-.68-.41-1a1,1,0,0,0-.92-.67v0H4.43a.93.93,0,0,0-.65,1.15c.79,2,1.57,3.94,2.36,5.9L7,16.47a1,1,0,0,0,.67.66h.07l.45.17,1.7.62,2.45.88a16.22,16.22,0,0,0-1,1.72,18,18,0,0,0-1.55,4.86H5.26a1.06,1.06,0,0,0-.87.44l-.67.84L1.66,29.27.27,31a1,1,0,0,0-.27.66,1,1,0,0,0,.27.66,1,1,0,0,0,.67.28,1,1,0,0,0,.66-.28Q3.46,30,5.29,27.65l.31-.4h4a19.93,19.93,0,0,0,.06,3.09,18.16,18.16,0,0,0,1,4.42L6.46,36.1a1.28,1.28,0,0,0-.46.21,1,1,0,0,0-.37.59l-.27.9-.93,3.08c-.22.73-.43,1.47-.65,2.17a1,1,0,0,0,.65,1.17h.23a1,1,0,0,0,.92-.69c.55-1.83,1.09-3.69,1.64-5.5l.09-.27,3.79-1.18.32-.1a17,17,0,0,0,1.47,2.46,14,14,0,0,0,6.34,4.86,11.75,11.75,0,0,0,3.21.71v-32a12.68,12.68,0,0,0-4.59,1.31A13.92,13.92,0,0,0,13.5,17.31Zm.73,12.77a2,2,0,1,1,2-2A2,2,0,0,1,14.23,30.08Zm4,7.76a2,2,0,1,1,2-2A2,2,0,0,1,18.23,37.84Zm2-16.94a2,2,0,1,1-2-2A2,2,0,0,1,20.23,20.9Z"/><path class="cls-1" d="M46.55,31l-3.22-4.09-.74-1a1.07,1.07,0,0,0-.9-.57H37a17.49,17.49,0,0,0-2.35-6.29,1,1,0,0,0-.19-.27c1.57-.56,3.14-1.1,4.69-1.7a1.06,1.06,0,0,0,.66-.66V16.4c0-.12.1-.25.15-.36l.55-1.39c.52-1.27,1-2.55,1.54-3.83l1-2.46a.94.94,0,0,0-.66-1.15h-.23l0,0a1,1,0,0,0-.92.67l-1.11,2.76C39.53,12.07,39,13.53,38.36,15l-.21.52-4.29,1.56-.59.22a13.76,13.76,0,0,0-5.9-4.16,12.54,12.54,0,0,0-3-.61v32A12.18,12.18,0,0,0,27.08,44a13.7,13.7,0,0,0,6.45-4.56,16.77,16.77,0,0,0,1.85-3l4,1.24h.11c.49,1.67,1,3.34,1.47,5l.23.74a1,1,0,0,0,.91.69h.24A.94.94,0,0,0,43,43h0l-1.48-5c-.11-.36-.21-.74-.31-1.06l-.07-.23a1,1,0,0,0-.74-.67c-.79-.28-1.6-.51-2.4-.74l-1.89-.56a17.32,17.32,0,0,0,.91-3.69,20.07,20.07,0,0,0,.19-2.57,10.29,10.29,0,0,0-.05-1.23h4c1.16,1.48,2.32,2.95,3.47,4.43l.53.67a.94.94,0,0,0,1.32,0A1,1,0,0,0,46.55,31ZM28.47,18.9a2,2,0,1,1-2,2A2,2,0,0,1,28.47,18.9Zm0,18.94a2,2,0,1,1,2-2A2,2,0,0,1,28.47,37.84Zm4-7.76a2,2,0,1,1,2-2A2,2,0,0,1,32.47,30.08Z"/></g></g></svg>