<svg xmlns="http://www.w3.org/2000/svg" viewBox="0 0 50.22 48.15"><defs><style>.cls-1{}</style></defs><g id="Calque_2" data-name="Calque 2"><g id="Layer_1" data-name="Layer 1"><path class="cls-1" d="M8,10.56H37.81a1.66,1.66,0,1,0,0-3.32H8a1.66,1.66,0,1,0,0,3.32Z"/><path class="cls-1" d="M8,17.65H37.81a1.66,1.66,0,1,0,0-3.32H8a1.66,1.66,0,0,0,0,3.32Z"/><path class="cls-1" d="M23.83,21.42H8a1.66,1.66,0,0,0,0,3.32H23.83a1.66,1.66,0,1,0,0-3.32Z"/><path class="cls-1" d="M50.13,46.68l-4.35-8.6,1.69-.67a1.46,1.46,0,0,0,.84-1.16l.14-2.16a3.36,3.36,0,0,1,.4-1.23L50,31a1.41,1.41,0,0,0,0-1.43l-1.15-1.83a3.36,3.36,0,0,1-.4-1.23l-.14-2.16a1.46,1.46,0,0,0-.66-1.06v-20A3.32,3.32,0,0,0,44.33,0h-41A3.32,3.32,0,0,0,0,3.32V31.79a3.32,3.32,0,0,0,3.32,3.32H29.46l.08,1.14a1.46,1.46,0,0,0,.84,1.16L32,38l-4.37,8.64c-.13.27-.1.43,0,.51a.31.31,0,0,0,.29.15.72.72,0,0,0,.3-.07l3.58-1.49a.73.73,0,0,1,.3-.06.94.94,0,0,1,.68.28l1.72,1.9a.68.68,0,0,0,.5.25.64.64,0,0,0,.56-.41l3.37-7.26h0l3.37,7.26a.64.64,0,0,0,.56.41.68.68,0,0,0,.5-.25L45,46a.94.94,0,0,1,.68-.28.73.73,0,0,1,.3.06l3.58,1.49a.72.72,0,0,0,.3.07.3.3,0,0,0,.29-.15C50.23,47.11,50.26,47,50.13,46.68ZM3.32,3.32h41V21.56L43,20A1.46,1.46,0,0,0,42,19.52a1.2,1.2,0,0,0-.28,0l-2.1.54a3.5,3.5,0,0,1-1.29,0l-2.1-.54a1.27,1.27,0,0,0-.28,0,1.44,1.44,0,0,0-1.08.48l-1.39,1.66a3.1,3.1,0,0,1-1,.76l-2,.8a1.46,1.46,0,0,0-.84,1.16l-.15,2.16a3,3,0,0,1-.4,1.23L27.84,29.6a1.46,1.46,0,0,0,0,1.43l.48.76h-25Zm35.6,34.06A7.07,7.07,0,1,1,46,30.31,7.06,7.06,0,0,1,38.92,37.38Z"/></g></g></svg>