<svg xmlns="http://www.w3.org/2000/svg" viewBox="0 0 62.86 59.34"><defs><style>.cls-1{}</style></defs><g id="Calque_2" data-name="Calque 2"><g id="Layer_1" data-name="Layer 1"><g id="Layer_1-2" data-name="Layer 1-2"><path class="cls-1" d="M47.73,20.57A5.3,5.3,0,1,1,53,15.27h0a5.29,5.29,0,0,1-5.29,5.29M46.18,0a1,1,0,0,0-1,.93l-.31,3.63a13.23,13.23,0,0,0-2.72,1.13L39.42,3.44a1.12,1.12,0,0,0-1.4.07L35.93,5.56a1,1,0,0,0,0,1.39l2.24,2.84a12.8,12.8,0,0,0-1.12,2.71l-3.57.33a1,1,0,0,0-.93,1v2.91a1,1,0,0,0,.93,1l3.56.4a12.84,12.84,0,0,0,1.13,2.71l-2.24,2.78a1,1,0,0,0,0,1.38l2,2.06a1,1,0,0,0,.75.3,1.07,1.07,0,0,0,.66-.24l2.77-2.25A10.46,10.46,0,0,0,44.91,26l.39,3.57a1,1,0,0,0,1,.93h3a1,1,0,0,0,1-.93L50.59,26a10.41,10.41,0,0,0,2.72-1.12l2.77,2.25a1.07,1.07,0,0,0,.66.24,1,1,0,0,0,.75-.3l2-2.06a1,1,0,0,0,.07-1.38l-2.32-2.79a12.38,12.38,0,0,0,1.08-2.7l3.58-.4a1,1,0,0,0,.91-1V13.82a1,1,0,0,0-.92-1l-3.57-.41a10,10,0,0,0-1.11-2.71L59.5,6.88a1.08,1.08,0,0,0-.07-1.39l-2-2.05a1.06,1.06,0,0,0-.75-.31,1,1,0,0,0-.65.24L53.21,5.62a13.89,13.89,0,0,0-2.7-1.13L50.14.93a1,1,0,0,0-1-.93h-3"/><path class="cls-1" d="M21.48,47.69a6.19,6.19,0,0,1,0-12.37h0a6.19,6.19,0,0,1-.05,12.37h0m2-23.94h-4a.88.88,0,0,0-.86.8L18.15,29A13.54,13.54,0,0,0,15,30.36l-3.5-2.84a.84.84,0,0,0-1.13.06L7.5,30.36a.91.91,0,0,0-.06,1.19l2.85,3.51A13,13,0,0,0,9,38.23l-4.49.47a.82.82,0,0,0-.8.84h0v4a.86.86,0,0,0,.8.86l4.49.5a13.61,13.61,0,0,0,1.32,3.18L7.38,51.53a.93.93,0,0,0,.07,1.19l2.84,2.78a.93.93,0,0,0,.63.25.91.91,0,0,0,.56-.18L15,52.72A13.19,13.19,0,0,0,18.16,54l.46,4.49a.87.87,0,0,0,.85.81h4a.88.88,0,0,0,.87-.8l.46-4.49a12.93,12.93,0,0,0,3.17-1.31l3.5,2.83a.92.92,0,0,0,1.19-.07l2.84-2.84a.9.9,0,0,0,.07-1.19L32.7,48A13.68,13.68,0,0,0,34,44.79l4.49-.48a.86.86,0,0,0,.8-.86v-4a.91.91,0,0,0-.86-.79L34,38.23a13.57,13.57,0,0,0-1.33-3.17l2.85-3.51a.9.9,0,0,0-.07-1.19l-2.84-2.78a.83.83,0,0,0-.59-.25.87.87,0,0,0-.54.19l-3.5,2.84A13.26,13.26,0,0,0,24.75,29l-.46-4.49a.86.86,0,0,0-.86-.79"/><path class="cls-1" d="M18.39,6.6a.94.94,0,0,0-.8.44,1,1,0,0,0-.14.5V10c-4,.48-14,3.18-17.43,18.25A.9.9,0,0,0,.7,29.32H.91a.89.89,0,0,0,.83-.57c3.33-7.25,8.82-11.54,15.7-12.14V19a.91.91,0,0,0,.86,1h.06a1,1,0,0,0,.54-.17l9.19-5.69a1,1,0,0,0,.29-1.36h0a1,1,0,0,0-.28-.29L18.9,6.73a1,1,0,0,0-.51-.15"/></g></g></g></svg>