<svg xmlns="http://www.w3.org/2000/svg" viewBox="0 0 49.37 49.42"><defs><style>.cls-1{}</style></defs><g id="Calque_2" data-name="Calque 2"><g id="Layer_1" data-name="Layer 1"><g id="Layer_1-2" data-name="Layer 1-2"><path class="cls-1" d="M34.42,17.7v15H49.37A15.86,15.86,0,0,0,34.42,17.7"/><polyline class="cls-1" points="15.47 4.35 9.42 4.35 9.42 32.6 15.47 32.6 15.47 4.35"/><polyline class="cls-1" points="6.73 9.73 0 9.73 0 32.6 6.73 32.6 6.73 9.73"/><path class="cls-1" d="M24.71,0H17.65V25.89a17.74,17.74,0,0,1,7.06-7.62V0"/><path class="cls-1" d="M32.65,17.7a15.87,15.87,0,0,0,.86,31.72h.89a15.87,15.87,0,0,0,15-15H33.53a.88.88,0,0,1-.88-.88h0V17.7"/><path class="cls-1" d="M45,3.53H38.83V5.29h4L37.06,11.1,34.15,8.2a.88.88,0,0,0-1.24,0h0L28.5,12.61l1.24,1.25,3.79-3.77L36.44,13a.85.85,0,0,0,.62.26.88.88,0,0,0,.61-.27h0l6.45-6.44v4h1.77V4.41h0a.93.93,0,0,0-.07-.33A.87.87,0,0,0,45,3.53"/><polyline class="cls-1" points="14.8 37.98 0 37.98 0 39.33 14.8 39.33 14.8 37.98"/><polyline class="cls-1" points="14.8 42.02 0 42.02 0 43.36 14.8 43.36 14.8 42.02"/><polyline class="cls-1" points="14.8 44.71 0 44.71 0 47.4 14.8 47.4 14.8 44.71"/></g></g></g></svg>