<svg xmlns="http://www.w3.org/2000/svg" viewBox="0 0 45.14 36.88"><defs><style>.cls-1{}</style></defs><g id="Calque_2" data-name="Calque 2"><g id="Layer_1" data-name="Layer 1"><path class="cls-1" d="M44.35,3.27h-3V1a.85.85,0,0,0-.78-.84c-.45-.06-10.23-1-17.93,3C14.78-1,5.06.12,4.61.18A.8.8,0,0,0,3.88,1V3.27h-3A.86.86,0,0,0,0,4.11V36a.86.86,0,0,0,.84.84H44.29a.87.87,0,0,0,.85-.84V4.11A.76.76,0,0,0,44.35,3.27ZM39.63,31.15a33.24,33.24,0,0,0-16.19,3.43v-30c6.07-3,13.77-2.92,16.19-2.81ZM21.75,4.62V34.69a36.24,36.24,0,0,0-15.4-3.48H5.56V1.75C8,1.64,15.57,1.36,21.75,4.62ZM1.69,5H3.88V32.05a.91.91,0,0,0,.28.62.83.83,0,0,0,.62.22,35.42,35.42,0,0,1,14,2.31H1.69ZM43.51,35.2H26.08a33.13,33.13,0,0,1,14.33-2.31.83.83,0,0,0,.62-.22.91.91,0,0,0,.28-.62V5h2.2Z"/><path class="cls-1" d="M8.38,8.39s6.46.16,10.17,2V8.55C14.5,6.87,8.66,6.7,8.43,6.7Z"/><path class="cls-1" d="M8.38,14.06s6.46.17,10.17,2V14.23c-4.05-1.68-9.89-1.85-10.12-1.85Z"/><path class="cls-1" d="M8.38,19.8s6.46.17,10.17,2V20c-4.05-1.69-9.89-1.86-10.12-1.86Z"/><path class="cls-1" d="M8.38,25.47s6.46.17,10.17,2V25.64C14.5,24,8.66,23.79,8.43,23.79Z"/><path class="cls-1" d="M26.64,8.55v1.86c3.71-1.86,10.12-2,10.18-2L36.76,6.7C36.54,6.7,30.69,6.87,26.64,8.55Z"/><path class="cls-1" d="M26.64,14.23v1.86c3.71-1.86,10.12-2,10.18-2l-.06-1.68C36.54,12.38,30.69,12.55,26.64,14.23Z"/><path class="cls-1" d="M26.64,19.91v1.85c3.71-1.85,10.12-2,10.18-2l-.06-1.69C36.54,18.11,30.69,18.22,26.64,19.91Z"/><path class="cls-1" d="M26.64,25.64V27.5c3.71-1.86,10.12-2,10.18-2l-.06-1.68C36.54,23.79,30.69,23.9,26.64,25.64Z"/></g></g></svg>