<svg xmlns="http://www.w3.org/2000/svg" viewBox="0 0 37.48 40.27"><defs><style>.cls-1{}</style></defs><g id="Calque_2" data-name="Calque 2"><g id="Layer_1" data-name="Layer 1"><path class="cls-1" d="M37.21,25.68,34,21.58l-.73-.95a1.07,1.07,0,0,0-.9-.57H28.53c-.85-2.32-1.89-4.68-2.88-6.76,1.38-.49,2.75-1,4.11-1.5a1,1,0,0,0,.66-.67v-.08l.15-.37.55-1.38c.52-1.27,1-2.56,1.54-3.83l1-2.46A1,1,0,0,0,33,1.85a.81.81,0,0,0-.22,0l0-.05a1,1,0,0,0-.92.68l-1.1,2.76Q29.9,7.46,29,9.62l-.21.52-4,1.45c-1.06-2.1-2-3.76-2.52-4.55a2.18,2.18,0,0,0-1.5-2h-.06C21.84,3,25.31.15,26.37.47c0,0,.19-.1,0-.32A.27.27,0,0,0,26.05,0c-1-.35-4.83,2.83-5.94,5a1.92,1.92,0,0,0-1.62,1.6A1.91,1.91,0,0,0,16.78,5c-1.11-2.14-4.93-5.31-5.93-5a.27.27,0,0,0-.36.12c-.15.22,0,.32,0,.32C11.59.15,15.08,3,16.18,5A2.17,2.17,0,0,0,14.7,7c-.51.78-1.43,2.4-2.47,4.45L8.84,10.26l-.22-.08c-.3-.74-.6-1.51-.91-2.26-.55-1.5-1.13-3-1.72-4.46l-.41-1a1,1,0,0,0-.92-.68v0H4.43A.94.94,0,0,0,3.78,3l2.36,5.9L7,11.12a1,1,0,0,0,.67.66h.07l.45.17,1.7.61,1.5.55c-1,2.12-2.09,4.53-3,6.92H5.26a1.06,1.06,0,0,0-.87.44l-.67.84-2.06,2.6L.27,25.66a1,1,0,0,0-.27.67A.93.93,0,0,0,.27,27a1,1,0,0,0,.67.28A1,1,0,0,0,1.6,27c1.24-1.56,2.47-3.13,3.69-4.69l.31-.4H7.81a22.68,22.68,0,0,0-1.32,6.5,6.65,6.65,0,0,0,.41,2.21l-.44.14A1.28,1.28,0,0,0,6,31a1,1,0,0,0-.37.59l-.27.9-.93,3.07c-.22.74-.43,1.48-.65,2.17a1,1,0,0,0,.65,1.18h.23a1,1,0,0,0,.92-.69c.55-1.84,1.09-3.69,1.64-5.5l.09-.28.41-.12c2.8,4.48,9.53,7.42,10.16,7.76l.37.23s-.06-.09.24-.09.27.07.25.09.09-.07.37-.23c.64-.35,7.49-3.34,10.24-7.9l.71.22h.11c.5,1.67,1,3.33,1.48,5,.07.26.15.52.23.74a.93.93,0,0,0,.9.68H33a.93.93,0,0,0,.65-1.15h0l-1.47-5-.32-1.06-.07-.22a1,1,0,0,0-.73-.68l-.93-.29a6.45,6.45,0,0,0,.33-2,22.17,22.17,0,0,0-1.31-6.49h2.7l3.48,4.42.52.68a.94.94,0,0,0,1.33-1.33ZM18.49,13.5a19.75,19.75,0,0,1,5.08.82c1,.3.77.59.58.77s-.39.57-.93.45a29.34,29.34,0,0,0-4.73-.74,29.19,29.19,0,0,0-4.72.74c-.54.12-.74-.27-.93-.45s-.39-.47.57-.77A19.83,19.83,0,0,1,18.49,13.5ZM12,19.77a23.84,23.84,0,0,1,6.51-1.12A23.69,23.69,0,0,1,25,19.77c1.24.4,1,.8.75,1s-.51.4-1.2.24a38.57,38.57,0,0,0-6.06-1,38.42,38.42,0,0,0-6,1c-.69.16-.95,0-1.2-.24S10.75,20.17,12,19.77Zm12.65,14.1c-.21.35-.43.24-1,0s-3.68-1.48-5.12-1.48S14,33.64,13.38,33.87s-.81.35-1,0-.42-.94.63-1.53a12.69,12.69,0,0,1,5.5-1.65A12.79,12.79,0,0,1,24,32.34C25,32.93,24.83,33.52,24.63,33.87Zm-6.14-8.08a33.37,33.37,0,0,0-6.67,1.47c-.77.24-1.05.47-1.32.12s-.55-.94.81-1.53a20.49,20.49,0,0,1,7.18-1.65,20.38,20.38,0,0,1,7.18,1.65c1.37.59,1.09,1.18.82,1.53s-.55.12-1.32-.12A33.32,33.32,0,0,0,18.49,25.79Z"/></g></g></svg>