<svg xmlns="http://www.w3.org/2000/svg" viewBox="0 0 35 41.35"><defs><style>.cls-1{}</style></defs><g id="Calque_2" data-name="Calque 2"><g id="Layer_1" data-name="Layer 1"><path class="cls-1" d="M12.27,19.46a1.5,1.5,0,0,1-.62-2,1.49,1.49,0,0,1,2-.62L16,18.09v-6.7a1.48,1.48,0,1,1,2.95,0v2.3l2.38-1.24a1.47,1.47,0,0,1,2,.62,1.49,1.49,0,0,1-.62,2L19,17V27.6a7.34,7.34,0,0,1,1.24.38l2.33,1a9.19,9.19,0,0,0,8.26-.56A8.45,8.45,0,0,0,35,21.9q0-.42,0-.84a9.09,9.09,0,0,0-2.38-6.16,9.24,9.24,0,0,0-6.36-8.52,9.2,9.2,0,0,0-17.51,0A9.23,9.23,0,0,0,2.38,14.9,9.18,9.18,0,0,0,1.26,25.71a8.68,8.68,0,0,0,7.53,4.16A9,9,0,0,0,12,29.28l3.69-1.4.33-.1V21.43Z"/><path class="cls-1" d="M33.53,38.39H19V27.6a5.91,5.91,0,0,0-2.95.18V38.39H1.48a1.48,1.48,0,0,0,0,3H33.53a1.48,1.48,0,0,0,0-3Z"/></g></g></svg>