<svg xmlns="http://www.w3.org/2000/svg" viewBox="0 0 141.2 141.2"><defs><style>.cls-1{fill-rule:evenodd;}.cls-2{fill:none;}</style></defs><g id="Calque_2" data-name="Calque 2"><g id="Layer_1" data-name="Layer 1"><path class="cls-1" d="M130.66,71.45a1.37,1.37,0,0,1-1.19-.7,21.2,21.2,0,0,1-1.8-5.85.5.5,0,0,1,0-.12c-.2-1.74-1.82-4.69-8.49-8.85l-.13-.09c-1.88-1.51-6.7-3.18-19-2.58-8.93.45-18.58,2.19-22.45,11.7a1.37,1.37,0,0,1-2.53-1C79.53,53,90.13,51,99.93,50.53c10.61-.52,17.4.51,20.75,3.12,6.1,3.82,9.27,7.35,9.67,10.77a18.76,18.76,0,0,0,1.5,5,1.36,1.36,0,0,1-.52,1.86,1.45,1.45,0,0,1-.67.17Z"/><path class="cls-1" d="M130.18,77.89h0ZM93.2,99a58.28,58.28,0,0,1-10.68-.84,1.36,1.36,0,1,1,.75-2.62A62.28,62.28,0,0,0,98,96h.12c2.88-.1,7.18-1.41,12.79-3.9l.11,0c2.68-.92,6.27-3,10.68-6.19,2.31-1.63,4.76-4.55,7.29-8.67a8.36,8.36,0,0,0,.37-6.72,1.38,1.38,0,0,1,.87-1.72,1.36,1.36,0,0,1,1.73.86,11.11,11.11,0,0,1-.56,8.86.93.93,0,0,0-.05.1c-2.77,4.53-5.41,7.64-8.06,9.52-4.65,3.36-8.36,5.5-11.32,6.52-6,2.64-10.44,4-13.7,4.11A46.61,46.61,0,0,1,93.2,99Z"/><path class="cls-1" d="M96.55,98.91a1.38,1.38,0,0,1-1.21-.73,1.36,1.36,0,0,1,.57-1.84c10.57-5.63,12.49-16.48,9.71-24.74S94.74,55.86,82.92,57.77a1.37,1.37,0,0,1-.43-2.7c13.39-2.16,22.57,6.3,25.72,15.65s1,21.65-11,28A1.44,1.44,0,0,1,96.55,98.91Z"/><path class="cls-1" d="M46,96.36h-.07c-7.27-.39-14-1-19.89-1.89a64.86,64.86,0,0,1-7.73-1.79,47.46,47.46,0,0,0-7.24-1.61,1.37,1.37,0,0,1-.35-.08c-1.84-.71-2.88-1.67-3.17-2.92-.47-2,1.14-3.76,2.7-5.47A17.75,17.75,0,0,1,12,81a8.14,8.14,0,0,0,2.55-3c5.78-12.14,20.17-32,32.81-36.21,6.19-4.13,11.17-4.89,15.57-5.55,3.18-.48,5.92-.9,8.8-2.45,3.13-2.11,6.94-3.18,10-4,2.4-.67,4.67-1.3,5.54-2.16l.1-.09c2.21-1.78,4.18-2.69,6-2.8,3.89-.23,4.8,2.6,5.46,4.66a15.76,15.76,0,0,0,.66,1.79l0,.12A11.12,11.12,0,0,1,99.5,38a13.35,13.35,0,0,0-.5,3.79.54.54,0,0,1,0,.18c-.37,5.63-1.08,9.24-2.15,11a1.37,1.37,0,0,1-2.34-1.42c.57-.94,1.34-3.38,1.76-9.69a15.65,15.65,0,0,1,.57-4.49c.42-1.78.78-3.32.19-5.05a17.52,17.52,0,0,1-.76-2c-.69-2.14-1-2.87-2.7-2.78a8.58,8.58,0,0,0-4.43,2.18c-1.38,1.3-3.83,2-6.66,2.78-3,.86-6.49,1.83-9.27,3.71a.41.41,0,0,1-.11.07C69.78,38,66.66,38.49,63.35,39c-4.35.66-8.85,1.34-14.61,5.22a1.35,1.35,0,0,1-.34.17C36.05,48.38,21.88,69.05,17,79.22a10.68,10.68,0,0,1-3.28,3.89,14.13,14.13,0,0,0-1.45,1.32c-.85.92-2.22,2.42-2.08,3,0,0,.13.43,1.33.93a48.94,48.94,0,0,1,7.5,1.67,63.24,63.24,0,0,0,7.39,1.71c5.85.86,12.46,1.49,19.64,1.88A1.36,1.36,0,0,1,46,96.36Z"/><path class="cls-1" d="M88.44,45.56a1.37,1.37,0,0,1-1.36-1.23c-.24-2.54-1.82-5-4.67-7.24A1.37,1.37,0,1,1,84.11,35c3.45,2.74,5.37,5.81,5.7,9.11a1.38,1.38,0,0,1-1.23,1.5Z"/><path class="cls-1" d="M79.47,51.86a1.37,1.37,0,0,1-1.35-1.19c-.54-4-2.72-6.65-6.67-8.25a1.37,1.37,0,1,1,1-2.53c4.86,2,7.67,5.48,8.34,10.41a1.36,1.36,0,0,1-1.17,1.54Z"/><path class="cls-1" d="M67.81,55a1.37,1.37,0,0,1-1.35-1.14c-.45-2.72-2.8-5.24-7-7.49a1.36,1.36,0,1,1,1.3-2.4c5,2.67,7.78,5.84,8.38,9.44A1.37,1.37,0,0,1,68,55Z"/><path class="cls-1" d="M54.72,59.15h-.11a1.36,1.36,0,0,1-1.25-1.48c.16-1.87-.26-4.56-5.66-6.2a1.37,1.37,0,1,1,.8-2.62c6.72,2,7.84,6,7.58,9.06A1.36,1.36,0,0,1,54.72,59.15Z"/><path class="cls-1" d="M27.25,83a1.36,1.36,0,0,1-1.36-1.34c-.05-2.12-1.17-3.56-3.52-4.53a1.36,1.36,0,1,1,1-2.52c4.21,1.73,5.15,4.76,5.21,7A1.38,1.38,0,0,1,27.28,83Z"/><path class="cls-1" d="M37.2,78.32h-.1a1.36,1.36,0,0,1-1.26-1.47c.22-3-2.33-6-7.58-8.81a1.37,1.37,0,0,1,1.3-2.41c6.28,3.4,9.31,7.24,9,11.42A1.36,1.36,0,0,1,37.2,78.32Z"/><path class="cls-1" d="M45,65.54h-.11a1.35,1.35,0,0,1-1.25-1.47c.19-2.33-2-4.2-6.42-5.56a1.36,1.36,0,1,1,.8-2.61c5.85,1.79,8.65,4.61,8.34,8.4A1.37,1.37,0,0,1,45,65.54Z"/><path class="cls-1" d="M65.08,62.75A20.85,20.85,0,1,0,85.93,83.59,20.87,20.87,0,0,0,65.08,62.75Zm0,44.42A23.58,23.58,0,1,1,88.66,83.59,23.6,23.6,0,0,1,65.08,107.17Z"/><path class="cls-1" d="M112.66,65.64h-.2a1.37,1.37,0,0,1-1.15-1.56,5.52,5.52,0,0,0-2.74-5.61,1.37,1.37,0,0,1,1.35-2.38,8.26,8.26,0,0,1,4.09,8.4,1.36,1.36,0,0,1-1.35,1.16Z"/><path class="cls-1" d="M114.2,87.52a1.39,1.39,0,0,1-1-.46,1.36,1.36,0,0,1,.12-1.93,3.91,3.91,0,0,0,0-5.82,1.36,1.36,0,1,1,1.81-2,6.63,6.63,0,0,1,0,9.9,1.32,1.32,0,0,1-.91.35Z"/><path class="cls-1" d="M120.35,76.07a1.39,1.39,0,0,1-.72-.21,1.36,1.36,0,0,1-.44-1.88,5.85,5.85,0,0,0-1-7.34,1.37,1.37,0,1,1,1.87-2,8.6,8.6,0,0,1,1.43,10.77,1.37,1.37,0,0,1-1.17.65Z"/><path class="cls-1" d="M54.72,79.66a1.37,1.37,0,0,1-1.34-1.13c-.41-2.27.12-5.47,5-7.8a1.37,1.37,0,0,1,1.18,2.47c-3.63,1.72-3.75,3.59-3.52,4.85A1.35,1.35,0,0,1,55,79.63,1,1,0,0,1,54.72,79.66Z"/><path class="cls-1" d="M59.81,97.77a3.62,3.62,0,0,1-2.62-1c-1.12-1.13-1.65-3.08-1.61-6A1.37,1.37,0,0,1,57,89.4h0a1.37,1.37,0,0,1,1.35,1.39c0,2.83.55,3.74.8,4a.91.91,0,0,0,.69.25h0a1.37,1.37,0,0,1,0,2.73Z"/><path class="cls-1" d="M73.19,79.14a1.34,1.34,0,0,1-.83-.28,1.36,1.36,0,0,1-.25-1.92c.56-.73.12-1.93-1.31-3.56a1.36,1.36,0,1,1,2-1.8c3,3.42,2.44,5.71,1.42,7A1.35,1.35,0,0,1,73.19,79.14Z"/><path class="cls-1" d="M69.77,97.43a1.38,1.38,0,0,1-1.16-.64A1.36,1.36,0,0,1,69,94.91c1.1-.69,2-1.77.69-4.58a1.37,1.37,0,0,1,2.47-1.18c2.25,4.68-.1,7.06-1.7,8.07A1.4,1.4,0,0,1,69.77,97.43Z"/><rect class="cls-2" width="141.2" height="141.2" rx="70.6"/></g></g></svg>