<svg xmlns="http://www.w3.org/2000/svg" viewBox="0 0 141.2 141.2"><defs><style>.cls-1{}.cls-2{fill:none;}</style></defs><g id="Calque_2" data-name="Calque 2"><g id="Layer_1" data-name="Layer 1"><path class="cls-1" d="M89.93,53.69a.55.55,0,0,0,.3-.49v-11l8.18-6.13A1.35,1.35,0,1,1,100,38.28l-6.87,5.15a.58.58,0,0,0-.22.45V55.21l-6.84,3.42a13.46,13.46,0,0,0-1.62-2.22ZM66.78,47.3h1.9a.56.56,0,0,0,.56-.56V44.18s0-.06,0-.08,0-.08,0-.11a.53.53,0,0,0-.06-.1l-.05-.09a.31.31,0,0,0-.09-.07s0,0-.05,0a9.42,9.42,0,0,1-5.42-7.84h2.73a6.87,6.87,0,0,0,4.11,5.51h0l.1,0a.2.2,0,0,0,.11,0h.09a.29.29,0,0,0,.11,0h0A6.92,6.92,0,0,0,75,35.83h2.73a9.43,9.43,0,0,1-5.41,7.84.55.55,0,0,0-.3.49v2.58a.56.56,0,0,0,.56.56h1.9a3.27,3.27,0,0,1,3.27,3.26v2a21.56,21.56,0,0,0-5.23-.61H68.77a21,21,0,0,0-5.23.62v-2a3.22,3.22,0,0,1,3.24-3.26ZM48,43.44l-6.87-5.15a1.36,1.36,0,1,1,1.63-2.17L51,42.25v11a.53.53,0,0,0,.31.49l5.44,2.73a12.26,12.26,0,0,0-1.64,2.22l-6.84-3.42V43.88a.48.48,0,0,0-.2-.44Zm1.26,27.12a.55.55,0,0,0-.37.46L47.06,87.71l-8.3,4.15a1.41,1.41,0,0,1-1.81-.6,1.35,1.35,0,0,1,.6-1.82l6.71-3.35a.62.62,0,0,0,.31-.44l1.86-17,6.49-2.15c0,.45-.07.9-.07,1.34a4.56,4.56,0,0,0,.24,1.46ZM56.43,94c-.09-.29-.17-.59-.26-.88a23,23,0,0,1-.56-2.53L54,75.3h0a3.79,3.79,0,0,1,.09-1.11,1,1,0,0,1,.08-.24,2,2,0,0,1,.16-.4,1,1,0,0,1,.1-.18,1.6,1.6,0,0,1,.18-.25.36.36,0,0,1,.08-.09,3,3,0,0,1,2-.86V94.78c-.09-.27-.19-.53-.27-.77Zm-12,11.21a1.36,1.36,0,0,1-1.8-.61,1.3,1.3,0,0,1-.08-1,1.36,1.36,0,0,1,.68-.79l10.53-5.27a.55.55,0,0,0,.31-.43l.63-5.1c.07.32.15.67.27,1.1,0,.07,0,.15.07.21a20.64,20.64,0,0,0,1.69,4.37l-.18,1.48Zm13.35-7.93V72.11h2.72v29a17.27,17.27,0,0,1-2.72-3.86Zm6.53-25.18V103.9a12.31,12.31,0,0,1-2.71-1.84v-30h2.71Zm15.27,0v29.94a12.44,12.44,0,0,1-2.71,1.84V72.11Zm-3.82.12V80.8a3,3,0,0,0,0,.6v23a14.73,14.73,0,0,1-2.73.72V76.07c.85-2.14,1.8-3.47,2.73-3.84Zm-5.67,33.12c-.3,0-.6,0-.88-.07V79.45c.54,2,.81,3.62.82,3.64a.55.55,0,0,0,1.09,0s.28-1.63.82-3.62v25.81l-.91.07a3.46,3.46,0,0,1-.46,0,3.93,3.93,0,0,1-.48,0ZM72,75.75h0a35.26,35.26,0,0,0-1.39,4.54,35,35,0,0,0-1.4-4.55h0c-1-2.59-2.15-4.1-3.44-4.58a6.14,6.14,0,0,1,4.84-2.87,6.1,6.1,0,0,1,4.83,2.87q-1.92.74-3.44,4.59Zm-3.87.31v29.1a13.4,13.4,0,0,1-2.69-.7V72.24c.92.4,1.84,1.69,2.69,3.82Zm12.58,25v-29h2.71V97.22s0,.07-.06.12a16.7,16.7,0,0,1-2.65,3.76Zm5.52-28.34.23.2a3.35,3.35,0,0,1,.75,1.94c0,.12,0,.22,0,.33s0,.16,0,.17l-.61,5.86-.69,6.43h0l-.3,2.85s0,.14-.06.39l0,.19c-.07.34-.18.81-.32,1.38,0,0,0,0,0,0l-.06.23c-.1.38-.22.79-.36,1.21-.07.21-.16.42-.23.63V72.13a3.47,3.47,0,0,1,1.58.52l.13.11Zm1.16,24.77,10.53,5.27a1.31,1.31,0,0,1,.68.78,1.37,1.37,0,0,1-.08,1,1.33,1.33,0,0,1-1.81.6l-12.11-6-.17-1.41s0,0,0,0a21.81,21.81,0,0,0,1.55-4s0-.06,0-.08c.12-.4.22-.78.3-1.12a.64.64,0,0,1,0-.09l0-.23s0,0,0-.07l0-.07.63,5a.59.59,0,0,0,.31.43ZM83.62,71h-7c-.57-1-2.54-3.81-6-3.81s-5.48,2.86-6,3.81h-7s-2.36-.07-3.25-1.67A3,3,0,0,1,54,67.82a20.35,20.35,0,0,1,.1-2.07,16,16,0,0,1,1.7-6.13,11.87,11.87,0,0,1,7.35-5.84A19.6,19.6,0,0,1,68.74,53h3.71a20.12,20.12,0,0,1,5.62.74,12.15,12.15,0,0,1,5.11,2.91,11.37,11.37,0,0,1,2.22,3,16.47,16.47,0,0,1,1.72,6.14c.07.71.1,1.41.1,2.13a3,3,0,0,1-.35,1.46C86,70.92,83.63,71,83.62,71Zm20.63,20.25a1.4,1.4,0,0,1-1.81.6l-8.3-4.15L92.29,71a.56.56,0,0,0-.37-.46l-3.84-1.28a4,4,0,0,0,.26-1.39c0-.47,0-.94-.07-1.4l6.49,2.15,1.88,17a.58.58,0,0,0,.31.43l6.7,3.36a1.35,1.35,0,0,1,.6,1.82Z"/><rect class="cls-2" width="141.2" height="141.2" rx="70.6"/></g></g></svg>