<svg xmlns="http://www.w3.org/2000/svg" viewBox="0 0 141.2 141.2"><defs><style>.cls-1{fill:none;}.cls-2{}</style></defs><g id="Calque_2" data-name="Calque 2"><g id="Layer_1" data-name="Layer 1"><rect class="cls-1" width="141.2" height="141.2" rx="70.6"/><circle class="cls-2" cx="64.84" cy="31.52" r="9.15"/><path class="cls-2" d="M92.56,43.29c1,.57,2.06.46,3.11-1.26s.69-5,.69-5S93.3,38.23,92.25,40,91.62,42.71,92.56,43.29Z"/><path class="cls-2" d="M89.92,35.9a5.8,5.8,0,0,0-.56,2.94c.26,1.18.87,1.45,1.51,1.31s1.08-.66.82-1.83A5.87,5.87,0,0,0,89.92,35.9Z"/><path class="cls-2" d="M87.27,43.82c1.59,1.23,2.67.94,3.35.07s.7-2-.88-3.23-4.86-1.25-4.86-1.25S85.69,42.58,87.27,43.82Z"/><path class="cls-2" d="M97.43,64.52V49.07H93a5.09,5.09,0,0,0,.37-1.78,5.51,5.51,0,0,0-1.48-3.57l-.93.79a4.25,4.25,0,0,1,1.19,2.78,3.74,3.74,0,0,1-.49,1.78H86.24v13.3a9.68,9.68,0,0,1-3.06-1.93c-2.29-2.12-3.27-5.49-4-8.83a29.88,29.88,0,0,0-1.29-4.85,6.77,6.77,0,0,0-1.64-2.44A5,5,0,0,0,73,43a1.88,1.88,0,0,0-.34,0H57l-.39,0a5.07,5.07,0,0,0-2.2.6,6,6,0,0,0-2.53,2.94,29.67,29.67,0,0,0-1.44,5.32c-.59,2.73-1.39,5.5-3,7.5a9.35,9.35,0,0,1-4,3V49.07H38.75a6.54,6.54,0,0,0,.33-2,7.59,7.59,0,0,0-.79-3.25l-1.1.53a6.31,6.31,0,0,1,.67,2.72,4.93,4.93,0,0,1-.41,2H32.24V64.52a1.63,1.63,0,0,0,1.63,1.63h2a3.64,3.64,0,0,0,0,.74,3.25,3.25,0,0,0,3.24,3l.27,0c5.07-.4,8.94-2.15,11.6-4.68a17,17,0,0,0,2.88-3.66v52.29a5,5,0,0,0,10,0V77.09h1.89v36.72a5,5,0,0,0,10.06,0V61.53a17.23,17.23,0,0,0,2,2.74c2.65,3,6.83,5.16,12.49,5.59l.28,0a3.25,3.25,0,0,0,3.23-3,3,3,0,0,0,0-.74h2A1.63,1.63,0,0,0,97.43,64.52Z"/><path class="cls-2" d="M89.11,95.75c.94.58,2.06.47,3.1-1.25s.69-5,.69-5-3.06,1.17-4.11,2.89S88.16,95.18,89.11,95.75Z"/><path class="cls-2" d="M86.47,88.37a5.89,5.89,0,0,0-.57,2.94c.26,1.17.87,1.45,1.52,1.3s1.07-.65.81-1.82A5.88,5.88,0,0,0,86.47,88.37Z"/><path class="cls-2" d="M83.82,96.28c1.58,1.24,2.66,1,3.34.08s.71-2-.88-3.23-4.86-1.26-4.86-1.26S82.23,95.05,83.82,96.28Z"/><path class="cls-2" d="M84.41,118.61h7.93A1.62,1.62,0,0,0,94,117V101.53H89.52a5,5,0,0,0,.36-1.78,5.42,5.42,0,0,0-1.48-3.56l-.92.79a4.21,4.21,0,0,1,1.18,2.77,3.71,3.71,0,0,1-.49,1.78H82.79V117A1.62,1.62,0,0,0,84.41,118.61Z"/><path class="cls-2" d="M36.19,40.16c-1.56-1.27-4.83-1.35-4.83-1.35s.75,3.19,2.31,4.46,2.65,1,3.34.13S37.75,41.43,36.19,40.16Z"/><path class="cls-2" d="M37,39.2c-.26,1.18.17,1.68.82,1.83s1.25-.13,1.51-1.3a5.94,5.94,0,0,0-.56-2.95A5.87,5.87,0,0,0,37,39.2Z"/><path class="cls-2" d="M39.12,44.09c.68.87,1.77,1.17,3.35-.07s2.4-4.41,2.4-4.41-3.28,0-4.86,1.25S38.44,43.22,39.12,44.09Z"/><path class="cls-2" d="M98.84,118.61h7.94A1.62,1.62,0,0,0,108.4,117V101.53h-4.68a5.91,5.91,0,0,0,.33-2,7.56,7.56,0,0,0-.79-3.25l-1.1.53a6.28,6.28,0,0,1,.67,2.72,4.85,4.85,0,0,1-.41,2h-5.2V117A1.62,1.62,0,0,0,98.84,118.61Z"/><path class="cls-2" d="M98.64,95.73c1.57,1.27,2.65,1,3.35.14s.74-2-.82-3.24-4.84-1.35-4.84-1.35S97.08,94.47,98.64,95.73Z"/><path class="cls-2" d="M102,91.67c-.26,1.17.18,1.68.82,1.83s1.25-.13,1.52-1.31a5.89,5.89,0,0,0-.57-2.94A6,6,0,0,0,102,91.67Z"/><path class="cls-2" d="M104.1,96.56c.68.87,1.76,1.16,3.34-.07s2.4-4.41,2.4-4.41-3.27,0-4.86,1.25S103.42,95.69,104.1,96.56Z"/></g></g></svg>