<svg xmlns="http://www.w3.org/2000/svg" viewBox="0 0 141.2 141.2"><defs><style>.cls-1{fill:none;}.cls-2{}</style></defs><g id="Calque_2" data-name="Calque 2"><g id="Layer_1" data-name="Layer 1"><rect class="cls-1" width="141.2" height="141.2" rx="70.6"/><path class="cls-2" d="M73.17,75.05v22C71.71,97,70.24,97,68.77,97s-3,0-4.41.09v-22A17.76,17.76,0,0,1,73.17,75.05ZM47.92,78a24.57,24.57,0,0,0,13.59-2,15.79,15.79,0,0,1,2.85-1V62.58L54.6,53.91a2.46,2.46,0,0,1,.06-3.85,3.51,3.51,0,0,1,4.45,0l5.25,4.67V43c0-2.1,2-3.81,4.41-3.81s4.4,1.71,4.4,3.81V54.78l5.26-4.67a3.51,3.51,0,0,1,4.45,0,2.48,2.48,0,0,1,.06,3.85l-9.77,8.67V75.05a15.79,15.79,0,0,1,2.85,1,23.83,23.83,0,0,0,8.61,2.15C87,74.76,89.75,71.27,92.4,68l1.15-1.43a8.27,8.27,0,0,1,12.51,0l.11.15a16.44,16.44,0,0,0,1.42-4.61c1.62-10.92-7.69-20.26-19.77-21a14.22,14.22,0,0,0,.32-2.93c0-9.25-8.68-16.75-19.37-16.75S49.4,28.86,49.4,38.11A14.94,14.94,0,0,0,49.71,41c-12.07.78-21.38,10.12-19.77,21C31.14,70.19,38.57,76.8,47.92,78Zm59.86,34.31a23.29,23.29,0,0,1-8,1.4,22.31,22.31,0,0,1-15.62-6.12,20.09,20.09,0,0,1-3.5-4.52,105.82,105.82,0,0,0-11.91-.67c-21.43,0-39.22,6.28-42.63,14.52-.58,1.4.67,2.88,2.39,2.88H109c1.73,0,3-1.48,2.4-2.88A12.45,12.45,0,0,0,107.78,112.35Zm-8-43.22a1.36,1.36,0,0,0-1.06.48c-3.28,4.14-13,15.63-14.23,22.33-1.06,8.46,5.77,16.37,15.29,16.37h0c9.51,0,16.33-7.92,15.28-16.37-1.24-6.69-11-18.19-14.24-22.33A1.34,1.34,0,0,0,99.8,69.13Z"/></g></g></svg>