<svg xmlns="http://www.w3.org/2000/svg" viewBox="0 0 141.2 141.2"><defs><style>.cls-1{fill:none;}.cls-2,.cls-3{}.cls-2{fill-rule:evenodd;}</style></defs><g id="Calque_2" data-name="Calque 2"><g id="Layer_1" data-name="Layer 1"><rect class="cls-1" width="141.2" height="141.2" rx="70.6"/><path class="cls-2" d="M77,82c-.48.12-7.12-.93-9.4-.94s-6.22-.05-6.48.1-2,3.75.93,9c1.28,2.1,5.05,3.74,7.78,3.92s5.9-2.39,6.78-3.77A7.71,7.71,0,0,0,77.36,82"/><path class="cls-2" d="M38.51,67l-4.78-2.21c0-.23,0-.46-.07-.7L51,59.39l6.82,17.1c-2.3-1.06-7.9-3.69-9.49-4.43-5.52,6.68-6,18.23,8.57,30.46C44.5,104.06,27.71,87.92,38.51,67Z"/><path class="cls-2" d="M82.05,86.22c2.27,1,6.66,3.17,8.3,3.93,5.66-7.26,5.71-19.64-7.77-30.08a21.36,21.36,0,0,1,15,5.71,22.16,22.16,0,0,1,7.21,14c.75,5.64-.82,10.79-3.5,15.74l5.24,3.1L89,103.5C86.69,97.83,84.48,92.3,82.05,86.22Z"/><path class="cls-2" d="M66.07,88.89c-1.44,2.27-3.72,2.38-6,3.35A6.73,6.73,0,0,0,56.66,95c-.27.49-.93,2-.31,2.55s1.64-1.84,2-2.31a9,9,0,0,1,4.47-3.21c2.32-.71,4.59-.32,5.9-2.73"/><path class="cls-2" d="M71.45,92c0,1.79,2.37,2.92,3.46,4,1.44,1.4,2.94,3.21,2.79,5.33.63-1,1.24-1.36.77-2.69a7.15,7.15,0,0,0-1.26-2.32c-1.11-1.14-3.14-1.36-3.9-2.79a2.52,2.52,0,0,1,.21-2.64"/><path class="cls-2" d="M68.08,92.41a8.43,8.43,0,0,0-.32,2,7.77,7.77,0,0,0,.72,2.45,4.43,4.43,0,0,1,.2,3c-.65,1.89-2.87,2.3-4.12,3.65-.4.43-1.29,1.43-.91,2.05,0-1.44,2.68-2.11,3.74-2.54s2.17-1,2.48-2.1c.17-.58-.08-1,0-1.6.93.81,1.68,2.91.46,3.83,2.21-.41,2.13-2.62.78-3.93a7.25,7.25,0,0,1-1.37-1.65,3.84,3.84,0,0,1-.56-2.43,2.51,2.51,0,0,1,.19-1.28c.22-.43.64-.74.81-1.21"/><path class="cls-3" d="M100,17.44c-12.2,4.07-25.9,13.16-28.31,27.11C66,28.37,56.09,12.27,36.06,14.17,37.45,29,50.87,49.9,67.65,51.52c-.23,5.84.53,14.51.53,20.39,0,4.82-4.2,7.9.6,9.68,6.31-.11,1.47-4,1.25-16.73a28.88,28.88,0,0,1,3.66-14C85.62,47.65,105.94,37.87,100,17.44ZM47.61,21.07s-4.88-2.93-.12-1.26c4.59,1.6,10.34,7.13,15.94,15.72C60.07,30.93,51.08,24,47.61,21.07Zm43.7,4C88.05,28.3,79.56,36,76.53,40.94c5-9.13,10.35-15.18,14.81-17.15C96,21.73,91.31,25.07,91.31,25.07Z"/><path class="cls-2" d="M73.82,119a13.54,13.54,0,0,1-2.2-2.7,11.44,11.44,0,0,1-.85-3.87,1.18,1.18,0,0,0-.24.31l-.61,2.09c-.64,2.31-2,3.51-3.26,5.46A4.48,4.48,0,0,0,68,126.56a5.62,5.62,0,0,0,6.79-1.36C76.42,123.17,75.36,120.75,73.82,119Zm-1,3.57a2.9,2.9,0,0,1-3.5.69,2.31,2.31,0,0,1-.67-3.22,10.08,10.08,0,0,0,1.68-2.8l.31-1.08a.65.65,0,0,1,.13-.16,5.91,5.91,0,0,0,.43,2,6.93,6.93,0,0,0,1.14,1.39C73.13,120.29,73.68,121.54,72.82,122.59Z"/><path class="cls-2" d="M58.79,114a13,13,0,0,1-2.21-2.7,11.39,11.39,0,0,1-.85-3.87,1.22,1.22,0,0,0-.24.32l-.61,2.08c-.63,2.31-2,3.51-3.26,5.46a4.49,4.49,0,0,0,1.31,6.25,5.62,5.62,0,0,0,6.79-1.36C61.38,118.13,60.33,115.71,58.79,114Zm-1,3.57a2.89,2.89,0,0,1-3.49.7,2.32,2.32,0,0,1-.68-3.22,9.9,9.9,0,0,0,1.68-2.81l.31-1.07a1.09,1.09,0,0,1,.13-.17,5.65,5.65,0,0,0,.44,2,6.61,6.61,0,0,0,1.13,1.4C58.09,115.25,58.64,116.51,57.78,117.55Z"/><path class="cls-2" d="M87.83,111.7A13.37,13.37,0,0,1,85.62,109a11.14,11.14,0,0,1-.84-3.87,1.26,1.26,0,0,0-.25.32l-.61,2.08c-.63,2.31-2,3.52-3.26,5.46A4.49,4.49,0,0,0,82,119.23a5.6,5.6,0,0,0,6.79-1.36C90.42,115.84,89.37,113.42,87.83,111.7Zm-1,3.56a2.88,2.88,0,0,1-3.49.7,2.3,2.3,0,0,1-.68-3.22,9.9,9.9,0,0,0,1.68-2.81l.31-1.07a1.09,1.09,0,0,1,.13-.17,5.75,5.75,0,0,0,.44,2,6.81,6.81,0,0,0,1.13,1.39C87.13,113,87.68,114.22,86.82,115.26Z"/><polyline class="cls-3" points="46.79 81 56.09 81 66.81 81 75.04 81 79.93 81.79 91.22 81.39"/><polyline class="cls-3" points="32.79 81.2 25.7 81.2 22.19 81.2"/><polyline class="cls-3" points="106.56 81.2 115.23 81.2 119.01 81.2"/></g></g></svg>