<svg xmlns="http://www.w3.org/2000/svg" viewBox="0 0 141.2 141.2"><defs><style>.cls-1{fill:none;}.cls-2{}</style></defs><g id="Calque_2" data-name="Calque 2"><g id="Layer_1" data-name="Layer 1"><rect class="cls-1" width="141.2" height="141.2" rx="70.6"/><path class="cls-2" d="M72.06,72.63a.63.63,0,0,0-.52-.72.62.62,0,0,0-.72.52s-.64,3.76-3.28,4.94c-1.63.73-3.73.34-6.26-1.15A5.47,5.47,0,0,1,65,73.78a.63.63,0,1,0-.19-1.24,6.76,6.76,0,0,0-5,3.64.62.62,0,0,0,.23.78,11,11,0,0,0,5.7,2,5.54,5.54,0,0,0,2.26-.47c3.24-1.45,4-5.7,4-5.88Z"/><path class="cls-2" d="M75.31,63.26a.69.69,0,0,1-1.38,0,.69.69,0,1,1,1.38,0"/><path class="cls-2" d="M112.65,97.56c-3.81.71-6.8,5.76-7.57,7.16-2.89-.1-5-.82-6.19-2.09a3.52,3.52,0,0,1-1-2.48,7.18,7.18,0,0,0-.62-2.72,2.6,2.6,0,0,0,1.13-1.68,1.71,1.71,0,0,0-.61-1.44,2.42,2.42,0,0,0-1-1.4A3.39,3.39,0,0,0,94,92.66c-.58-.11-2.18-.32-3,.46a1.44,1.44,0,0,0-.42,1c-.55.27-1.35.79-1.38,1.61s.7,1.39,1.32,1.73L87.8,100a.62.62,0,0,0-.13.75.62.62,0,0,0,.69.32l1.78-.41a3.68,3.68,0,0,0-.82,2.71,2.68,2.68,0,0,0,2,1.93.76.76,0,0,0,.21,0h0a5.62,5.62,0,0,0-.3,2.94c.36,2.1,1.93,4,4.64,5.59a3.39,3.39,0,0,0,1.52,2.44l-.94,2.58-1.38-.71a.62.62,0,0,0-.84.27.63.63,0,0,0,.27.85l.85.43-.82.37a.62.62,0,0,0-.32.82.64.64,0,0,0,.57.38.58.58,0,0,0,.26-.06l1.71-.76,1.08.71a.62.62,0,0,0,.68-1l-1-.63,1-2.74a2.77,2.77,0,0,0,.92.16,2.55,2.55,0,0,0,1.57-.53,13.19,13.19,0,0,0,1.43.08h0l.39,3.07h-1.56a.63.63,0,1,0,0,1.25h.95l-.56.7a.62.62,0,0,0,.09.88.67.67,0,0,0,.39.14.62.62,0,0,0,.49-.23l1.18-1.46,1.29.14a.65.65,0,0,0,.69-.55.63.63,0,0,0-.56-.69l-1.13-.13-.4-3.19c2.56-.25,6-1.37,7.29-5.41,0,0,0,0,0,.06a.64.64,0,0,0,.79.41.62.62,0,0,0,.4-.79c-.9-2.78.91-3.61,1-3.66.4-.07,1.63-.27,1.94-1.19a1.43,1.43,0,0,0-.22-1.25,1.74,1.74,0,0,0,1.63-2.63l.26,0a1.28,1.28,0,0,0,1.13-.87c.27-.84-.55-1.75-.83-2a5.17,5.17,0,0,0-4.54-1.47ZM91.52,95.12a.63.63,0,0,0,.41-.73c-.05-.19,0-.32,0-.38a2.91,2.91,0,0,1,2-.09.65.65,0,0,0,.31,0,2.39,2.39,0,0,1,1.91,0,1.18,1.18,0,0,1,.48.77.66.66,0,0,0,.23.42c.23.19.34.35.33.5a1.42,1.42,0,0,1-.6.77,3.57,3.57,0,0,0-.44-.43,3.4,3.4,0,0,0-2.71-.51h0a3.51,3.51,0,0,0-2.18,1c-.68-.38-.73-.61-.73-.61s.49-.5,1-.68Zm-.63,3.77a1.82,1.82,0,0,0,.11.3l-.59.14Zm-.35,4.26c-.17-.86.81-2.08,1.44-2.73a2.23,2.23,0,0,1,.91,1.16,2.26,2.26,0,0,1-.12,1.5s0,0,0,0a2.92,2.92,0,0,1-.23.47,1.39,1.39,0,0,1-.91.5c-.64-.24-1-.56-1.07-.95Zm26.17-2.45a1.73,1.73,0,0,0-1.31.64,1,1,0,0,0,0,1,1,1,0,0,1,.18.75c-.06.14-.34.25-.85.31a1.52,1.52,0,0,0-1,.82,1,1,0,0,0,.22,1,.67.67,0,0,1,.14.26s-.15.21-1.08.38a3.73,3.73,0,0,0-2.16,3.54.61.61,0,0,0-.7.49c-1.09,5.15-5.91,5.49-8.06,5.38a1.88,1.88,0,0,0,.14-.24.63.63,0,0,0-.32-.83.63.63,0,0,0-.83.32,1.6,1.6,0,0,1-2.24,1c-2.19-.56-1.63-3.23-1.6-3.34a.64.64,0,0,0-.48-.75.63.63,0,0,0-.74.47,3.2,3.2,0,0,0-.08.48c-2-1.31-3.1-2.75-3.37-4.3a4.91,4.91,0,0,1,1-3.71h0a2.74,2.74,0,0,0,.56-1.24v-.06a3.22,3.22,0,0,0,0-1.87,3.75,3.75,0,0,0-1.73-2,2,2,0,0,1-.31-1.73c.28-.53,1.15-.7,1.6-.75a2.27,2.27,0,0,1,1.76.31,4,4,0,0,1,1.25,3.14,4.78,4.78,0,0,0,1.28,3.31c1.47,1.63,4,2.48,7.51,2.54a.66.66,0,0,0,.57-.34s.06-.12.16-.31l-.12.26a.62.62,0,0,0,.35.81.66.66,0,0,0,.23,0,.64.64,0,0,0,.59-.39c1.54-4,6.42-4.31,6.47-4.32a.61.61,0,0,0,.58-.66.65.65,0,0,0-.66-.59,9.87,9.87,0,0,0-6.4,3.14c1.24-1.86,3.33-4.4,5.66-4.84a3.89,3.89,0,0,1,3.45,1.15,6.26,6.26,0,0,1,.53.7s0,0-.15.06Z"/><path class="cls-2" d="M103.08,107.18a.62.62,0,0,0-.71.52.64.64,0,0,0,.52.72,5.4,5.4,0,0,1,3.74,2.44c-2.51,1.49-4.62,1.88-6.25,1.15-2.63-1.17-3.28-4.91-3.29-4.94a.62.62,0,1,0-1.23.2c0,.18.76,4.43,4,5.88a5.54,5.54,0,0,0,2.26.47,10.84,10.84,0,0,0,5.69-2,.61.61,0,0,0,.24-.78,6.77,6.77,0,0,0-5-3.64Z"/><path class="cls-2" d="M94,97.91a.69.69,0,0,1-1.38,0,.69.69,0,0,1,1.38,0"/><path class="cls-2" d="M112.63,103.25c-.47,0-4.55.63-5.14,2.75a.62.62,0,0,0,.43.77l.17,0a.63.63,0,0,0,.61-.46c.26-1,2.55-1.65,4.09-1.85a.63.63,0,0,0,.54-.7.62.62,0,0,0-.7-.54Z"/><path class="cls-2" d="M105,47.35a.9.9,0,0,0-.84-.09l-50,20.17a.9.9,0,0,0-.56.83V95.15a.88.88,0,0,0,.41.75.85.85,0,0,0,.48.15,1,1,0,0,0,.37-.08l8-3.53,6.45,24.12a.9.9,0,0,0,.87.66l.23,0A.89.89,0,0,0,71,116.1l-.8-3,7.18-3.41.71,2.5a.9.9,0,0,0,.86.65.67.67,0,0,0,.24,0,.89.89,0,0,0,.62-1.1L73.11,88.16A.84.84,0,0,0,73,88l19-8.39,12.89-5.87a.89.89,0,0,0,.53-.81v-4.5h0V64.18h0V48.09a.89.89,0,0,0-.4-.74Zm-1.4,16.23L94.85,67.3,84.64,62.21a.89.89,0,1,0-.8,1.6l8.84,4.41-16.55,7a6,6,0,0,0,.52-1.57,5.61,5.61,0,0,0-.3-2.94h.05a.52.52,0,0,0,.21,0,2.66,2.66,0,0,0,2-1.92A3.72,3.72,0,0,0,77.78,66l1.78.42a.61.61,0,0,0,.69-.32.64.64,0,0,0-.13-.76l-2.79-2.54c.62-.34,1.36-.91,1.32-1.73a1.73,1.73,0,0,0-.83-1.28l25.81-10.41ZM72.41,83.76l-1,.5-.94-2.6A3.41,3.41,0,0,0,72,79.25l.41-.25Zm-5.52-3.9a.63.63,0,0,0-.83-.32.63.63,0,0,0-.31.83c0,.09.09.16.13.24-2.14.11-7-.21-8.06-5.38a.62.62,0,0,0-.7-.49,3.68,3.68,0,0,0-1.72-3.3V69.89c1.53.24,3.57.91,3.82,1.81a.64.64,0,0,0,.61.46l.17,0a.63.63,0,0,0,.43-.77c-.49-1.76-3.36-2.45-4.6-2.67l1.7-.68a5.67,5.67,0,0,1,3.16,3.4.64.64,0,0,0,.59.4.68.68,0,0,0,.23,0,.62.62,0,0,0,.35-.81c-.07-.18-.15-.33-.23-.5l.26.52a.67.67,0,0,0,.58.37c3.51-.06,6-.91,7.51-2.54a4.61,4.61,0,0,0,1.27-3.22c.09-1.58.52-2.7,1.25-3.22a2.35,2.35,0,0,1,1.9-.29c.31,0,1.19.19,1.47.72a2,2,0,0,1-.31,1.73,3.76,3.76,0,0,0-1.74,2,3.21,3.21,0,0,0,0,1.84.27.27,0,0,1,0,.09,2.68,2.68,0,0,0,.6,1.28l0,0a4.76,4.76,0,0,1,1,3.61A5.35,5.35,0,0,1,74,76.14l-1,.43a.9.9,0,0,0-.55.82v.1l-.37.27c0-.17,0-.33-.08-.48a.63.63,0,0,0-1.22.28c0,.11.6,2.78-1.72,3.38a1.67,1.67,0,0,1-1.1,0,2,2,0,0,1-1-1.11ZM59.41,67.24a15.54,15.54,0,0,1,1.23,1.58,6.92,6.92,0,0,0-1.57-1.44Zm11.16-4.5.06,0a7.42,7.42,0,0,0-.63,2.8A3.44,3.44,0,0,1,69,68c-1.16,1.26-3.29,2-6.17,2.09a18.93,18.93,0,0,0-2.22-3.32Zm5.75-2.32s0,0,.07.06c.51.18,1,.53,1,.68s-.05.23-.74.61a3,3,0,0,0-1.54-.86ZM75.42,69a2.59,2.59,0,0,1-.4-2,2.22,2.22,0,0,1,.91-1.16c.63.65,1.61,1.87,1.44,2.73-.08.39-.43.7-1.07.94a1.36,1.36,0,0,1-.88-.47Zm1.5-4.43.11-.3.48.44ZM55.4,73.1a3.13,3.13,0,0,1,.22,3,.64.64,0,0,0,.41.79.58.58,0,0,0,.19,0,.62.62,0,0,0,.59-.43.64.64,0,0,1,0-.07c1.27,4.05,4.73,5.17,7.29,5.41l-.4,3.2-1.13.12a.63.63,0,0,0-.56.69.64.64,0,0,0,.69.56L64,86.22l1.18,1.45a.62.62,0,0,0,.48.23.67.67,0,0,0,.4-.14.62.62,0,0,0,.09-.88l-.57-.7h1a.63.63,0,1,0,0-1.25H65l.38-3.08h0a13.87,13.87,0,0,0,1.43-.07,3.09,3.09,0,0,0,.64.36,2.84,2.84,0,0,0,.94.17,2.66,2.66,0,0,0,.92-.16l1,2.74-1,.62a.63.63,0,0,0,.69,1l1.08-.71,1.09.48L55.4,93.77Zm19.34,27.26-7,3.34-1.57-5.88,6.93-3.29Zm-5,11-1.57-5.88,7.06-3.35,1.66,5.84Zm2.82-18.55-6.9,3.28L64.5,91.71l6.9-3ZM91.26,77.92,74.19,85.46V78l29.43-12.45v2.28l-25,11.3A.9.9,0,0,0,79,80.82a1,1,0,0,0,.37-.08l24.28-11v2.52Z"/><path class="cls-2" d="M40.83,88.66l-16.9-6.17a.89.89,0,1,0-.61,1.68l16.9,6.17a.84.84,0,0,0,.31,0,.89.89,0,0,0,.3-1.73Z"/><path class="cls-2" d="M131.82,45.66a.89.89,0,1,0,0-1.78H111.74V17.67a.88.88,0,0,0-.4-.74.89.89,0,0,0-.85-.08l-7.95,3.41H45.84a.9.9,0,1,0,0,1.79H98.36l-51,21.83H12a.9.9,0,0,0,0,1.79H42.9L11.67,58.21a.9.9,0,0,0,.67,1.66l7-2.83V84.25h-10a.9.9,0,1,0,0,1.79h10v18.81a.9.9,0,0,0,.34.7l3.37,2.66s0,0,.05,0a.85.85,0,0,0,.51.18.92.92,0,0,0,.39-.09v0h0l6.33-3.42a.89.89,0,0,0,.47-.78V99.89l12.41,6.42V118a.91.91,0,0,0,.34.7L47,121.36s0,0,.05,0,0,0,.06.05a.86.86,0,0,0,.44.12.92.92,0,0,0,.39-.09l0,0,0,0,5.73-3.4a.92.92,0,0,0,.44-.77l.06-11.8,9-4.1a.89.89,0,1,0-.74-1.62l-14.07,6.39V91.78l3.43-1.46a.9.9,0,1,0-.7-1.65l-2.72,1.17V83l2.7-.81a.89.89,0,0,0-.52-1.71l-2.19.66V65.92c2.09-.84,34.78-15.18,36.19-15.8a.9.9,0,0,0,.46-1.18.91.91,0,0,0-1.18-.46c-.32.15-30.3,13.29-35.47,15.5V51.73c5.36-2.28,46.12-20.15,48-20.95a.89.89,0,0,0,.45-1.18.88.88,0,0,0-1.17-.46c-.44.19-39.74,17.42-47.23,20.65V45.36L103,22a.8.8,0,0,0,.41-.17L110,19V30.3C104.81,32.56,63.34,50.73,62,51.23a.9.9,0,0,0,.65,1.67C64,52.4,102.37,35.57,110,32.25v4.64c-4.52,2.08-14.78,6.78-15.45,7a.89.89,0,1,0,.64,1.67c.75-.29,11.15-5.06,14.81-6.74V78.15L76.31,93.44a.89.89,0,0,0,.37,1.71,1,1,0,0,0,.37-.08l23.21-10.55v7.4a.89.89,0,0,0,.34.71L104,95.29s0,0,0,0a.91.91,0,0,0,.5.17.92.92,0,0,0,.39-.09h0L111.27,92a.9.9,0,0,0,.47-.79V86h19.91a.9.9,0,0,0,0-1.79H111.74V79a.53.53,0,0,0,0-.18s0-.08,0-.13V67.43h9.67a.9.9,0,0,0,0-1.79h-9.67v-20h20.08ZM21.15,92.86V90.35L36.94,97a.91.91,0,0,0,1.18-.47.9.9,0,0,0-.48-1.17l-16.49-7V75.89L25.05,77a1,1,0,0,0,.24,0,.89.89,0,0,0,.24-1.75L21.15,74V60.46l16,4.57a.67.67,0,0,0,.24,0,.9.9,0,0,0,.25-1.76l-16.52-4.7V56.48L46.63,46.1v5h0v22L30.2,68.47a.89.89,0,1,0-.49,1.72L46.63,75v6.36L29.94,76.62a.89.89,0,1,0-.49,1.72l17.17,4.89h0v8h0V106Zm1.58,12.81-1.58-1.25V94.94l1.58.88Zm6.33-2.11L24.52,106V96.62L29.06,99Zm16,3.93,1.58,1.11v10.21l-1.58-1.25Zm7.31,9.25-4,2.35v-11l4-1.82Zm51.26-24L102,91.5V83.81l1.58-.51Zm1.79.35V82.18L110,80.12V90.65Z"/><path class="cls-2" d="M119.42,22.05h10.22a.9.9,0,1,0,0-1.79H119.42a.9.9,0,1,0,0,1.79Z"/><path class="cls-2" d="M111.13,122.63H59.82a.9.9,0,0,0,0,1.79h51.31a.9.9,0,1,0,0-1.79Z"/></g></g></svg>