<svg xmlns="http://www.w3.org/2000/svg" viewBox="0 0 141.2 141.2"><defs><style>.cls-1{}.cls-2{fill:none;}</style></defs><g id="Calque_2" data-name="Calque 2"><g id="Layer_1" data-name="Layer 1"><path class="cls-1" d="M60.78,34.64c17-9.24,30.85-7.61,40.28-.43A33.73,33.73,0,0,1,111.51,48a43.48,43.48,0,0,1,3.37,17.83c-.31,15.41-8.49,31.36-26.4,38.64a1.52,1.52,0,0,1-.2.06c-1.52.44-2.26,1-2.45,1.86-.25,1.14.15,2.9.9,5.42a1.35,1.35,0,0,1-1.19,1.73h0a77.69,77.69,0,0,1-26.18-2.26c-8.08-2.18-15.79-5.92-21.73-11.72s-10.14-13.74-11-24.2A65.62,65.62,0,0,1,29.07,52.7a1.34,1.34,0,0,1,.12-.3c4-8.78,12.16-11.09,20.11-13.33,4.15-1.17,8.22-2.32,11.38-4.37l.1-.06ZM87,48.13c-8.43-.24-15.34,1.24-21.13,4A42,42,0,0,0,51.4,63.73l-1-.85,1,.86c-4.79,5.74-9.18,8.21-13.25,8.05-3.25-.12-6.19-1.9-8.86-5-1,12.34,2.14,23,10.23,30.84,5.57,5.45,12.87,9,20.54,11A74.64,74.64,0,0,0,83.67,111a11.33,11.33,0,0,1-.49-5.14c.43-1.94,1.73-3.13,4.33-3.89,16.74-6.82,24.38-21.73,24.67-36.16A40.93,40.93,0,0,0,109,49a31.45,31.45,0,0,0-9-12.16c-.41,4.18-1.74,7-3.73,8.73-2.4,2.14-5.65,2.74-9.33,2.52ZM29.71,62.89c2.66,3.85,5.48,6.08,8.53,6.19,3.22.13,6.88-2,11.08-7.08h0a44.67,44.67,0,0,1,15.4-12.35c6.17-2.92,13.5-4.49,22.4-4.24l0,1.36.08-1.36c3,.18,5.59-.25,7.37-1.83s2.81-4.22,3-8.56c-8.55-5.38-20.6-6-35.4,2-3.51,2.26-7.75,3.45-12.06,4.66-7.34,2.08-14.91,4.21-18.36,11.82A77.12,77.12,0,0,0,29.71,62.89Zm66.66-8.71A3.57,3.57,0,0,1,103,51.52a38,38,0,0,1-3.91,35.14,34.86,34.86,0,0,1-8.37,8.48h0a3.57,3.57,0,1,1-4.07-5.87,27.8,27.8,0,0,0,6.57-6.7,30.35,30.35,0,0,0,5.21-18.74,29.92,29.92,0,0,0-2.06-9.66Zm2.52-1.67a.86.86,0,0,0,0,.67,33.88,33.88,0,0,1,1,21.39,31.88,31.88,0,0,1-4.47,9.55,30.47,30.47,0,0,1-7.22,7.35l-.09.07a.86.86,0,0,0,1,1.4h0A32.69,32.69,0,0,0,101.59,75a35.84,35.84,0,0,0,1.27-11.43,34.49,34.49,0,0,0-2.38-11.08.85.85,0,0,0-1.12-.47A.83.83,0,0,0,98.89,52.51Z"/><rect class="cls-2" width="141.2" height="141.2" rx="70.6"/></g></g></svg>