<svg xmlns="http://www.w3.org/2000/svg" viewBox="0 0 141.2 141.2"><defs><style>.cls-1{}.cls-2{fill:none;}</style></defs><g id="Calque_2" data-name="Calque 2"><g id="Layer_1" data-name="Layer 1"><path class="cls-1" d="M46.34,55.64h44a2.46,2.46,0,1,0,0-4.91h-44a2.46,2.46,0,0,0,0,4.91Z"/><path class="cls-1" d="M46.34,66.11h44a2.46,2.46,0,1,0,0-4.91h-44a2.46,2.46,0,0,0,0,4.91Z"/><path class="cls-1" d="M69.7,71.68H46.34a2.46,2.46,0,0,0,0,4.91H69.7a2.46,2.46,0,1,0,0-4.91Z"/><path class="cls-1" d="M108.57,109,102.15,96.3l2.48-1a2.14,2.14,0,0,0,1.25-1.72l.21-3.18a4.81,4.81,0,0,1,.59-1.82l1.7-2.71a2.11,2.11,0,0,0,0-2.12l-1.7-2.7a4.81,4.81,0,0,1-.59-1.82l-.21-3.18a2.2,2.2,0,0,0-1-1.58V44.94A4.92,4.92,0,0,0,100,40H39.4a4.92,4.92,0,0,0-4.91,4.91V87a4.92,4.92,0,0,0,4.91,4.91H78l.11,1.68a2.15,2.15,0,0,0,1.24,1.72l2.34.93L75.27,109a.76.76,0,0,0-.07.76.5.5,0,0,0,.44.22,1.14,1.14,0,0,0,.44-.11l5.28-2.21a1.29,1.29,0,0,1,.45-.08,1.39,1.39,0,0,1,1,.41l2.54,2.81a1,1,0,0,0,.73.36.94.94,0,0,0,.84-.6l5-10.72h0l5,10.72a.92.92,0,0,0,.83.6,1,1,0,0,0,.74-.36L101,108a1.39,1.39,0,0,1,1-.41,1.25,1.25,0,0,1,.45.08l5.28,2.21a1.22,1.22,0,0,0,.45.11.48.48,0,0,0,.43-.22A.75.75,0,0,0,108.57,109ZM39.4,44.94H100V71.88l-1.92-2.3a2.14,2.14,0,0,0-1.6-.71,1.86,1.86,0,0,0-.42,0l-3.1.79a5.11,5.11,0,0,1-1.91,0L88,68.92a1.93,1.93,0,0,0-.42,0,2.14,2.14,0,0,0-1.6.71L83.9,72a4.7,4.7,0,0,1-1.55,1.13l-3,1.18a2.13,2.13,0,0,0-1.25,1.72l-.21,3.18a4.81,4.81,0,0,1-.59,1.82l-1.71,2.7a2.16,2.16,0,0,0,0,2.12L76.34,87H39.4ZM92,95.26a10.44,10.44,0,1,1,10.44-10.44A10.43,10.43,0,0,1,92,95.26Z"/><rect class="cls-2" width="141.2" height="141.2" rx="70.6"/></g></g></svg>