<svg xmlns="http://www.w3.org/2000/svg" viewBox="0 0 141.2 141.2"><defs><style>.cls-1{fill:none;}.cls-2{}</style></defs><g id="Calque_2" data-name="Calque 2"><g id="Layer_1" data-name="Layer 1"><rect class="cls-1" width="141.2" height="141.2" rx="70.6"/><path class="cls-2" d="M117.66,68.8v-.15a.83.83,0,0,0-.09-.36c-.77-3.84-2.1-7.41-4.06-9.6a6.72,6.72,0,0,0-6.81-2.3,11.14,11.14,0,0,0-.66-4.28,8.1,8.1,0,0,0-2.76-6.83,8.47,8.47,0,0,0-7.64-1.21.64.64,0,0,0-.18.1c-1.28-.72-2.61-1.41-4-2-2-5.09-8.81-7.94-14-7.39a8.55,8.55,0,0,0-8,7.1c-2.64-2.2-4.83-3.17-6.81-3-2.63.22-4.33,2.34-6.12,4.58-.67.83-1.36,1.7-2.11,2.47-.41.42-.78.83-1.15,1.25a28,28,0,0,1-3.45,3.33c-.35.28-1.41-.23-2.35-.68C45.93,49,44,48.09,42.14,49c-3.49,1.76-6,5.19-7.14,9.68-1.77-.24-3.67.63-5.54,2.57-4.19,4.35-7.53,13.3-6.39,17.11.43,1.4,2.74,3.37,6.22,6.2a35.66,35.66,0,0,1,3.54,3.09,7.92,7.92,0,0,1,1.46,4c.42,2.5.9,5.31,5.89,5.31.33,0,.69,0,1.06,0a.94.94,0,0,0,.34,0c6.6-.65,13.78,1.89,21.37,4.57,5.58,2,11.36,4,17,4.7a36.31,36.31,0,0,0,4.51.29,34.47,34.47,0,0,0,10.66-1.69h0a.88.88,0,0,0,.51-.16l.07-.06c9.31-3.22,17.1-10.42,21.48-20.53,1.35-3.11,1.55-9.46.47-15.29Zm-5.42-9c1.81,2,3,5.38,3.73,9,.23,12.1-6.54,13.76-15.53,14.74a15,15,0,0,0,5.25-4.45c3-4.37,2.43-7.66,1.79-11.47A42.52,42.52,0,0,1,106.9,63c-.12-2-.15-3.54-.17-4.86a5,5,0,0,1,5.51,1.7ZM74,97.66a8.91,8.91,0,0,1-1.92-7.36.85.85,0,0,0-1.68-.25A10.79,10.79,0,0,0,72,97.83c-.56,0-1.15,0-1.76,0-9.31-.51-18.15-7.22-24.07-12.95,7,2.43,14.42-.3,21.59-3,9.89-3.67,18.46-6.85,25.23,3a48.71,48.71,0,0,0-6.85,5.62c-3.65,3.41-6.9,6.42-12.13,7.19ZM50.28,83.48C47.73,71.66,48.05,63.88,57,56.62a21.27,21.27,0,0,1,15.55-4.39,19.92,19.92,0,0,1,11.67,5.9,29.2,29.2,0,0,0-9.36-2.08c-6.08-.25-17.13,1.56-22.79,16.56a.85.85,0,0,0,1.58.6,32.25,32.25,0,0,1,1.89-4.1l0,0a7.06,7.06,0,0,1,7.82.27.88.88,0,0,0,.49.15.83.83,0,0,0,.69-.36A.84.84,0,0,0,64.37,68a9,9,0,0,0-7.3-1.35,20,20,0,0,1,10.3-7.89.73.73,0,0,0,.36,0,6.2,6.2,0,0,1,7,3.28.85.85,0,0,0,.73.42.82.82,0,0,0,.43-.12.84.84,0,0,0,.3-1.16,8.65,8.65,0,0,0-3.45-3.4c.66,0,1.32,0,2,0A29.92,29.92,0,0,1,95.1,67.58a.82.82,0,0,0,.23.33l.07,0a15.83,15.83,0,0,1,3,5.54c1.16,4.07-.27,7.63-4.13,10.28C86.79,73,76.82,76.71,67.17,80.3c-5.65,2.1-11.44,4.25-17,3.71a.78.78,0,0,0,.07-.52Zm24.3-42c7.06-2.67,16.57,1.87,23.32,6.14,7,4.47,7,4.47,7.12,10,0,1.44,0,3.24.18,5.53a45,45,0,0,0,.61,4.85c.62,3.73,1.06,6.43-1.52,10.23A15.23,15.23,0,0,1,97.82,83,10,10,0,0,0,100.07,73,17,17,0,0,0,97,67.21a19.21,19.21,0,0,0,4-11.88.83.83,0,0,0-.87-.82.86.86,0,0,0-.83.88,17.36,17.36,0,0,1-3.44,10.5,30.33,30.33,0,0,0-7.82-6,24.32,24.32,0,0,0-8-7,12.21,12.21,0,0,0,2.85-8.67.85.85,0,1,0-1.68.23,10.41,10.41,0,0,1-2.77,7.67,20.56,20.56,0,0,0-5.63-1.56,22.37,22.37,0,0,0-6,.09c1.64-4.75,4.25-7.86,7.77-9.19Zm27.64,5.15a5.6,5.6,0,0,1,1.92,3.17,55.22,55.22,0,0,0-5.33-3.61l-1.18-.73a6.27,6.27,0,0,1,4.59,1.17ZM77.64,36.43a13.23,13.23,0,0,1,11.28,4.62c-5.06-2-10.4-2.91-14.93-1.19a12.25,12.25,0,0,0-2.63,1.39,7,7,0,0,1,6.28-4.82ZM42.9,50.53c1.1-.55,2.5.12,3.86.78s2.94,1.43,4.14.47a27.82,27.82,0,0,0,3.65-3.52c.36-.4.72-.8,1.1-1.2.81-.83,1.53-1.73,2.22-2.59,1.63-2,3-3.79,4.94-3.95,1.6-.12,3.58.86,6,3A20.19,20.19,0,0,0,64.9,51a22.28,22.28,0,0,0-9,4.3,27.25,27.25,0,0,0-5.06,5.27,8.29,8.29,0,0,1-2-5.29.85.85,0,0,0-1.69.14,9.88,9.88,0,0,0,2.72,6.62c-3.54,6-3.22,12.76-1.3,21.72a15.36,15.36,0,0,1-5.83-2.52C38.32,78.13,35.47,70.47,36,63c.43-5.94,2.94-10.5,6.9-12.5Zm72.73,32.89c-3.76,8.66-9.91,15-17.41,18.46a11.45,11.45,0,0,0,1.88-7.56.85.85,0,1,0-1.68.2,9.84,9.84,0,0,1-3.72,8.73,33.5,33.5,0,0,1-14.57,1.3c-5.43-.68-11.11-2.68-16.61-4.62-7.42-2.61-15.09-5.32-22.06-4.65a.66.66,0,0,0-.28,0c-4.51.33-4.77-1.25-5.22-3.86a9.34,9.34,0,0,0-1.84-4.81,33.79,33.79,0,0,0-3.75-3.3C28.23,81.53,25,78.9,24.7,77.89c-.89-3,2-11.27,6-15.44,1-1.05,2.47-2.19,4-2.08a25.13,25.13,0,0,0-.33,2.54A26.91,26.91,0,0,0,37.1,77a8.46,8.46,0,0,1-5.63-3.48.85.85,0,1,0-1.39,1,10.23,10.23,0,0,0,8,4.32h.1a15.25,15.25,0,0,0,3,3.32h0A75.48,75.48,0,0,0,51,91.3a26.1,26.1,0,0,1-8.09-1.08.85.85,0,1,0-.54,1.61A27.54,27.54,0,0,0,50.49,93,18.68,18.68,0,0,0,53,92.87a.66.66,0,0,0,.15,0c5,3.52,10.92,6.35,17,6.68.44,0,.86,0,1.27,0,7.51,0,11.58-3.82,15.88-7.85a45.48,45.48,0,0,1,7.17-5.8c1.25-.15,2.49-.27,3.71-.39,8.09-.81,15.82-1.58,18.5-9.29a19.76,19.76,0,0,1-1,7.2Z"/></g></g></svg>