<svg xmlns="http://www.w3.org/2000/svg" viewBox="0 0 141.2 141.2"><defs><style>.cls-1{}.cls-2{fill:none;}</style></defs><g id="Calque_2" data-name="Calque 2"><g id="Layer_1" data-name="Layer 1"><path class="cls-1" d="M101.87,82.38a6.84,6.84,0,0,0-6,.67c-3.41,2.29-3.92,7.56-1.1,11.77h0a9.62,9.62,0,0,0,7.64,4.45A6.39,6.39,0,0,0,106,98.21a6.84,6.84,0,0,0,2.91-5.31,10.73,10.73,0,0,0-7-10.52Zm2.62,13.7c-2.21,1.49-5.65.26-7.66-2.72s-1.83-6.63.4-8.13a3.85,3.85,0,0,1,2.14-.62,5.18,5.18,0,0,1,1.61.27,8.13,8.13,0,0,1,5.23,7.85,4.27,4.27,0,0,1-1.72,3.35Z"/><path class="cls-1" d="M100.35,91.42a3.71,3.71,0,0,0-1.53-1.3,2.28,2.28,0,0,0-2.18,0,15.3,15.3,0,0,1,.82,1.55,9.37,9.37,0,0,0,.73,1.22A7.23,7.23,0,0,0,99.25,94a5.91,5.91,0,0,0,1.61,1.06,3.6,3.6,0,0,0,.22-2,4,4,0,0,0-.73-1.68Z"/><path class="cls-1" d="M129.58,84.5c-1.17-3.26-5.34-4.76-9.3-3.35a8.6,8.6,0,0,0-4.4,3.4,5.56,5.56,0,0,0,3,8.57,7.62,7.62,0,0,0,2.51.39,9.06,9.06,0,0,0,3-.53,8.36,8.36,0,0,0,4.9-4.17,5.65,5.65,0,0,0,.24-4.31ZM127,87.72a5.82,5.82,0,0,1-3.31,2.79,6,6,0,0,1-3.85.11,3,3,0,0,1-1.66-4.68,6,6,0,0,1,3-2.37,6.62,6.62,0,0,1,2.2-.39,3.74,3.74,0,0,1,2.22.48,3.69,3.69,0,0,1,1.55,1.67,3.06,3.06,0,0,1-.2,2.39Z"/><path class="cls-1" d="M122.11,84.07a4.48,4.48,0,0,0-1.08.26,4.15,4.15,0,0,0-1,.62,4.61,4.61,0,0,0-1.13,1.24,3,3,0,0,0,1.58.76,3,3,0,0,0,1.54-.2,3,3,0,0,0,1.31-1,1.91,1.91,0,0,0,.28-1.83,12,12,0,0,1-1.47.18Z"/><path class="cls-1" d="M18.5,63.17a3.9,3.9,0,0,0-1.07.26,4.12,4.12,0,0,0-1,.61,4.69,4.69,0,0,0-1.1,1.25,3,3,0,0,0,1.54.76,3,3,0,0,0,1.54-.2,2.9,2.9,0,0,0,1.31-1A1.91,1.91,0,0,0,20,63a10.51,10.51,0,0,1-1.48.19Z"/><path class="cls-1" d="M62.78,52.92a2.88,2.88,0,0,0,1.31-1,1.89,1.89,0,0,0,.29-1.83,10.62,10.62,0,0,1-1.49.17,4.48,4.48,0,0,0-1.08.26,3.87,3.87,0,0,0-1,.62,4.67,4.67,0,0,0-1.1,1.24,2.9,2.9,0,0,0,3.1.57Z"/><path class="cls-1" d="M79.89,58a4,4,0,0,0-1.07.26,4.12,4.12,0,0,0-1,.61,4.69,4.69,0,0,0-1.1,1.25,3,3,0,0,0,4.42-.48,1.91,1.91,0,0,0,.29-1.83,10.93,10.93,0,0,1-1.51.19Z"/><path class="cls-1" d="M76.83,51.52a2.82,2.82,0,0,0,1.31-1,1.94,1.94,0,0,0,.29-1.83,10.9,10.9,0,0,1-1.51.17,4.29,4.29,0,0,0-1.07.26,3.87,3.87,0,0,0-1,.62A4.5,4.5,0,0,0,73.72,51a2.9,2.9,0,0,0,1.57.76,3,3,0,0,0,1.54-.19Z"/><path class="cls-1" d="M100.56,59.86a4.83,4.83,0,0,0-1.1,1.24,2.94,2.94,0,0,0,1.57.76,3,3,0,0,0,1.55-.2,2.92,2.92,0,0,0,1.3-1,1.89,1.89,0,0,0,.29-1.83,12.75,12.75,0,0,1-1.5.17,4.48,4.48,0,0,0-1.08.26,4.19,4.19,0,0,0-1,.63Z"/><path class="cls-1" d="M94.4,70.74a4.29,4.29,0,0,0-1.07.26,4.09,4.09,0,0,0-1,.62,4.64,4.64,0,0,0-1.09,1.24,2.9,2.9,0,0,0,1.57.76,3,3,0,0,0,1.54-.2,3,3,0,0,0,1.31-1,1.94,1.94,0,0,0,.29-1.83,12.7,12.7,0,0,1-1.51.18Z"/><path class="cls-1" d="M63.93,72.73a3.72,3.72,0,0,0-2,1,4.67,4.67,0,0,0-1,1.31,2.88,2.88,0,0,0,1.61.68,3,3,0,0,0,1.47-.29,2.9,2.9,0,0,0,1.25-1.1,1.92,1.92,0,0,0,.18-1.84,11.59,11.59,0,0,1-1.43.26Z"/><path class="cls-1" d="M43.25,52.75a2.85,2.85,0,0,0,1.66.09,1.9,1.9,0,0,0,1.43-1.17,11.41,11.41,0,0,1-1.24-.8,4.26,4.26,0,0,0-1-.52,3.92,3.92,0,0,0-1.17-.23,4.83,4.83,0,0,0-1.65.2A2.85,2.85,0,0,0,42,51.93a2.89,2.89,0,0,0,1.29.82Z"/><path class="cls-1" d="M111.43,65.89a9,9,0,0,0-2.61-.62,6.57,6.57,0,0,0,.6-.79,5.76,5.76,0,0,0,.69-5.08c-1-2.77-4.16-4.25-7.53-3.77h0a9.15,9.15,0,0,0,.36-1.65c.51-4.18-1.87-7.92-5.31-8.33a5.77,5.77,0,0,0-4.79,1.79,8.14,8.14,0,0,0-1.85,3,10.89,10.89,0,0,0-6.54-1v-.14c-1.17-3.26-5.34-4.76-9.3-3.35a8.54,8.54,0,0,0-4.4,3.4,6.43,6.43,0,0,0-.52,1c-1.31-3-5.23-4.35-9-3.06h0A9,9,0,0,0,58,43.51,9.07,9.07,0,0,0,53.37,42a8.08,8.08,0,0,0-8.18,5.32c-3.78-1.3-7.74,0-9,3.1A5.48,5.48,0,0,0,36,53.81a8.75,8.75,0,0,0-4.45.41,8.52,8.52,0,0,0-4.39,3.4,5.73,5.73,0,0,0-.67,5,5.16,5.16,0,0,0,1.31,2,9.21,9.21,0,0,0-1.53.79A5.61,5.61,0,0,0,26,63.6c-1.17-3.26-5.34-4.76-9.3-3.35a8.58,8.58,0,0,0-4.4,3.4,5.76,5.76,0,0,0-.69,5.08,5.66,5.66,0,0,0,3,3.18,7.66,7.66,0,0,0,3.27.7,9.12,9.12,0,0,0,3.06-.53,9.38,9.38,0,0,0,1.82-.91A5.11,5.11,0,0,0,23,73.11,5.55,5.55,0,0,0,25.54,76a8.35,8.35,0,0,0-2.69,5.32,8.54,8.54,0,0,0,1.08,5.46,5.76,5.76,0,0,0,4.23,2.89h.63c3.19,0,6-3,6.54-6.87h0a8.14,8.14,0,0,0-2.15-6.78l.37-.17a12.16,12.16,0,0,0,3.33,1.83,9.34,9.34,0,0,0,3.14.54,9.73,9.73,0,0,0,6.63-2.79l.33.08c-.13,2.44.16,7.47,4.61,9.34h0a5.43,5.43,0,0,0,1.83.29,7.13,7.13,0,0,0,6.21-3.92,7.39,7.39,0,0,0,3.76,1h.09a5.71,5.71,0,0,0,.46,5,8.53,8.53,0,0,0,4.25,3.58,9,9,0,0,0,3.37.67,7.7,7.7,0,0,0,3-.59,5.67,5.67,0,0,0,3.09-3c1.3-3.2-.84-7.1-4.74-8.67h0a9.38,9.38,0,0,0-2.39-.58,7.49,7.49,0,0,0,.62-1,11.67,11.67,0,0,0,5.11,1.31,6.13,6.13,0,0,0,3.59-1.07A5.42,5.42,0,0,0,82.42,79h.63a6.13,6.13,0,0,0,4.58-2.35,5.6,5.6,0,0,0,2.76,2.75,7.53,7.53,0,0,0,3.27.71,9.19,9.19,0,0,0,3.12-.46,8.33,8.33,0,0,0,4.8-4.13,5.85,5.85,0,0,0,.59-2.2q.15.32.33.63h0a8.57,8.57,0,0,0,4.25,3.58,9.09,9.09,0,0,0,3.38.67,8.29,8.29,0,0,0,2.21-.3,5.75,5.75,0,0,0,3.92-3.34c1.2-3.2-.93-7.1-4.83-8.67Zm-7.57-7.75a3.82,3.82,0,0,1,2.22.48,3.74,3.74,0,0,1,1.55,1.67,3.21,3.21,0,0,1-.45,2.8,6.32,6.32,0,0,1-6.91,2.47,3,3,0,0,1-1.66-4.68,5.17,5.17,0,0,1,.8-.94,7.22,7.22,0,0,0,1-.76,6.45,6.45,0,0,1,3.49-1ZM80.94,64.61a5.79,5.79,0,0,1-3.35,0,3,3,0,0,1-1.66-4.69,5.47,5.47,0,0,1,1.86-1.75,8.67,8.67,0,0,0,2.71-.91,4,4,0,0,1,.69,0,3.77,3.77,0,0,1,3.68,2.08,3.19,3.19,0,0,1-.45,2.79,5.49,5.49,0,0,1-2,1.82,5.76,5.76,0,0,0-1.53.66Zm5.77-1.08h0a6.25,6.25,0,0,0,.77-2,5.06,5.06,0,0,1,5.23-2.18,5.49,5.49,0,0,0,3,1.45,5.44,5.44,0,0,0,0,3.73,5.77,5.77,0,0,0,.27.56,7.49,7.49,0,0,1-6.82,3,6.49,6.49,0,0,0-3.13-3.69,7.53,7.53,0,0,0,.61-.84Zm6.4-10.74h0a5.9,5.9,0,0,1,1.57-3.49,3.32,3.32,0,0,1,2.31-1h.32c2,.25,3.36,2.62,3,5.43h0a6.13,6.13,0,0,1-1.47,3.37,8.53,8.53,0,0,0-1.08.82,2.86,2.86,0,0,1-1.69.35A3,3,0,0,1,94,57a5.79,5.79,0,0,1-1-4.22Zm-2.62.43h0A8.67,8.67,0,0,0,91,56.72a7.69,7.69,0,0,0-3.77,1.41,5.92,5.92,0,0,0-3.92-3.22c.14-.18.3-.36.43-.56a6.35,6.35,0,0,0,.9-2.3,7.93,7.93,0,0,1,5.73,1.18ZM72.92,50.74A5.94,5.94,0,0,1,76,48.4a6.38,6.38,0,0,1,2.2-.39,3.73,3.73,0,0,1,2.22.47A3.79,3.79,0,0,1,82,50.15a3.19,3.19,0,0,1-.45,2.79,5.5,5.5,0,0,1-1.87,1.78,9.51,9.51,0,0,0-1.57.4,9.33,9.33,0,0,0-1.12.5,5.4,5.4,0,0,1-2.84-.39,3.08,3.08,0,0,1-1.62-1.74,3.2,3.2,0,0,1,.44-2.75Zm-3.26,5a6.63,6.63,0,0,0,.51-1A5.71,5.71,0,0,0,73,57.59a6,6,0,0,0,1.1.4c-.13.18-.29.34-.41.53h0a6.65,6.65,0,0,0-.76,1.7,8,8,0,0,0-7.38-.85,9.91,9.91,0,0,0-1.37.62,3.07,3.07,0,0,0-.24-.48h0a8.15,8.15,0,0,0,1.31-.35,8.54,8.54,0,0,0,4.42-3.4ZM57,68.36a5.17,5.17,0,0,0-.3-1.65,5.42,5.42,0,0,0-2.16-2.61,6.24,6.24,0,0,1,2.12-4.49,3,3,0,0,1,2.62-.41h.18l.2.1h.14a2.94,2.94,0,0,1,2.11,2.38,7.13,7.13,0,0,0-.83,1.07,5.73,5.73,0,0,0-.65,5.13A5.42,5.42,0,0,0,61.84,70,4.22,4.22,0,0,1,57,68.36ZM46.93,72.85a3,3,0,0,1-1.66-4.69,6,6,0,0,1,3-2.34,6.56,6.56,0,0,1,2.19-.39,3.77,3.77,0,0,1,2.23.48,3.72,3.72,0,0,1,1.54,1.67,3.21,3.21,0,0,1-.44,2.8,6.26,6.26,0,0,1-6.83,2.47ZM40.2,62.64a6,6,0,0,0,1-3.5l.4.14a6.92,6.92,0,0,0,1.5,5.6,9,9,0,0,0-5.09,0,7.79,7.79,0,0,0,2.19-2.24ZM50.41,56.1h0a5.26,5.26,0,0,0,.27-1,9.39,9.39,0,0,0,2.92.51,6.91,6.91,0,0,0,2.21-.36,4.45,4.45,0,0,0,.63,1.47,5.56,5.56,0,0,0-1.31.66A8.44,8.44,0,0,0,52,63a8.75,8.75,0,0,0-4.62.35,9,9,0,0,0-1.57.75c-1.8-2-1.86-3.55-1.66-4.4h.14a7.51,7.51,0,0,0,3-.58,5.67,5.67,0,0,0,3.13-3ZM68.87,68.73h0a5.79,5.79,0,0,1-4.33-.07A3.07,3.07,0,0,1,62.9,67a3.19,3.19,0,0,1,.45-2.79,6,6,0,0,1,3.06-2.34,6.52,6.52,0,0,1,2.19-.39,3.77,3.77,0,0,1,2.23.48,3.72,3.72,0,0,1,1.54,1.67,3.07,3.07,0,0,1-.19,2.34,5.84,5.84,0,0,1-3.33,2.8ZM64.12,49.41a3.78,3.78,0,0,1,2.21.48,3.73,3.73,0,0,1,1.53,1.66,3.19,3.19,0,0,1-.45,2.79,6.29,6.29,0,0,1-6.86,2.47h-.12a2.95,2.95,0,0,1-1.56-4.63,5.94,5.94,0,0,1,3.06-2.34,6.32,6.32,0,0,1,2.19-.43ZM53.19,44.57a6.33,6.33,0,0,1,5.64,3.92,8.15,8.15,0,0,0-2.18,2.24,6.82,6.82,0,0,0-.75,1.62,5.74,5.74,0,0,1-5.47-.17,7.79,7.79,0,0,0-2.87-3.73,5.45,5.45,0,0,1,5.65-3.88Zm-14.53,6.8a3.76,3.76,0,0,1,1.5-1.56,3.69,3.69,0,0,1,2.11-.44,6.48,6.48,0,0,1,2.42.48c2.62,1,4,3.4,3.29,5.23h0a3.05,3.05,0,0,1-1.69,1.62A5.79,5.79,0,0,1,42,56.6a6,6,0,0,1-3-2.46,3.19,3.19,0,0,1-.34-2.77ZM29.41,59a5.94,5.94,0,0,1,3.06-2.34,6.62,6.62,0,0,1,2.2-.39,3.79,3.79,0,0,1,3.76,2.16,3.21,3.21,0,0,1-.45,2.8,6.32,6.32,0,0,1-6.91,2.47,3,3,0,0,1-1.66-4.68ZM20,69.62a5.79,5.79,0,0,1-4.33-.07,3.07,3.07,0,0,1-1.63-1.67,3.18,3.18,0,0,1,.44-2.79,5.94,5.94,0,0,1,3.06-2.34,6.38,6.38,0,0,1,2.2-.39,3.76,3.76,0,0,1,3.75,2.12,3.17,3.17,0,0,1-.44,2.78A5.94,5.94,0,0,1,20,69.6Zm5.91-.21A5.93,5.93,0,0,1,29,67.07a6.63,6.63,0,0,1,2.2-.4,3.82,3.82,0,0,1,2.22.48A3.74,3.74,0,0,1,35,68.82a3.18,3.18,0,0,1-.45,2.8A5.9,5.9,0,0,1,31.45,74a5.74,5.74,0,0,1-4.33-.07,3.06,3.06,0,0,1-1.65-1.7,3.21,3.21,0,0,1,.45-2.8Zm6.79,13.08c-.34,2.75-2.22,4.8-4.24,4.54h0a3.18,3.18,0,0,1-2.3-1.64,6,6,0,0,1-.72-3.78c.32-2.61,2-4.56,3.93-4.56h.32c2,.27,3.33,2.7,3,5.45Zm7-6.88a8.12,8.12,0,0,1-4-1.39,7.9,7.9,0,0,0,1-1.23,5.73,5.73,0,0,0,.7-5,6.1,6.1,0,0,1,5.23-.53,5.61,5.61,0,0,0-.35,4.36A5.38,5.38,0,0,0,44,74.17a6.76,6.76,0,0,1-4.32,1.46Zm12.78,6.81c-3-1.19-3.06-5-3-6.79A8.73,8.73,0,0,0,56,71.8c.09-.16.18-.31.26-.47a6.67,6.67,0,0,0,2.21,1.15,8.21,8.21,0,0,0-.75,1.1,5.74,5.74,0,0,0-.41,5.1,5.2,5.2,0,0,0,.32.62c-2,4-4.89,3.23-5.15,3.15Zm7.25-4.8h0A3.17,3.17,0,0,1,60,74.84a5.88,5.88,0,0,1,2.93-2.5,6.47,6.47,0,0,1,2.49-.53,3.66,3.66,0,0,1,3.55,2,3,3,0,0,1,0,2.35,5.75,5.75,0,0,1-3.15,3c-2.59,1.08-5.31.44-6.09-1.42ZM75.2,86.9h0a3.09,3.09,0,0,1-1.72,1.65,5.79,5.79,0,0,1-4.31-.11,5.93,5.93,0,0,1-3-2.46,2.94,2.94,0,0,1,1.86-4.6,5.08,5.08,0,0,1,1.45-.2,6.53,6.53,0,0,1,2.39.48c2.5,1,4,3.39,3.28,5.26ZM71.78,75a5.25,5.25,0,0,0-.39-2.25A5.13,5.13,0,0,0,70.15,71a8.24,8.24,0,0,0,4.35-3.93,5.36,5.36,0,0,0,.36-1,6.36,6.36,0,0,0,1.83,1,7.4,7.4,0,0,0,1.54.32,9,9,0,0,0-1.08,3.3A8.56,8.56,0,0,0,78.09,76c-2.07,1.07-5-.23-6.31-.95ZM87,71.89c-.34,2.75-2.25,4.8-4.24,4.54h0a3.06,3.06,0,0,1-2-1.21,5.81,5.81,0,0,1-1-4.22,5.89,5.89,0,0,1,1.61-3.49A4.82,4.82,0,0,1,82,67l.29-.08a7.28,7.28,0,0,0,1-.44H84c2,.22,3.37,2.7,3.05,5.4Zm12.24,2.53a5.73,5.73,0,0,1-3.31,2.78,5.79,5.79,0,0,1-4.33-.06A3.1,3.1,0,0,1,90,75.44a3.19,3.19,0,0,1,.45-2.79,5.94,5.94,0,0,1,3.06-2.34,6.34,6.34,0,0,1,2.2-.39,3.73,3.73,0,0,1,2.22.47,3.82,3.82,0,0,1,1.54,1.67,3,3,0,0,1-.21,2.36Zm-1.84-6.88a4.14,4.14,0,0,0,.35-.38h0a6.57,6.57,0,0,0,1.7.89,8,8,0,0,0,2.52.39h.31c-.09.15-.17.3-.25.46a5.38,5.38,0,0,0-.38,1.82,6,6,0,0,0-4.29-3.21Zm16.36,6.07h0a3.18,3.18,0,0,1-2.18,1.79,6.29,6.29,0,0,1-6.8-2.74,3.18,3.18,0,0,1-.3-2.83,3.66,3.66,0,0,1,3.54-2,6.48,6.48,0,0,1,2.42.48c2.57,1,4,3.35,3.3,5.22Z"/><path class="cls-1" d="M109.89,68.75a4.32,4.32,0,0,0-1.18-.22,4.89,4.89,0,0,0-1.65.2,2.85,2.85,0,0,0,2,2.48,2.85,2.85,0,0,0,1.66.09,1.9,1.9,0,0,0,1.43-1.17,10.74,10.74,0,0,1-1.25-.87,4.41,4.41,0,0,0-1-.51Z"/><path class="cls-1" d="M69.17,83.68a3,3,0,0,0,1.3.88,3,3,0,0,0,1.67.09,1.92,1.92,0,0,0,1.42-1.18,11.76,11.76,0,0,1-1.23-.86,4,4,0,0,0-1-.53,4.25,4.25,0,0,0-1.18-.22,4.8,4.8,0,0,0-1.64.2,2.85,2.85,0,0,0,.64,1.62Z"/><path class="cls-1" d="M30,80.39a3,3,0,0,0-.51,1.48,2.92,2.92,0,0,0,.39,1.63,1.91,1.91,0,0,0,1.51,1.07,9.87,9.87,0,0,1,.51-1.41,4.09,4.09,0,0,0,.24-1.09,4,4,0,0,0-.09-1.2,4.63,4.63,0,0,0-.61-1.53,2.92,2.92,0,0,0-1.44,1Z"/><path class="cls-1" d="M84.37,69.78a2.92,2.92,0,0,0-.51,1.48,2.88,2.88,0,0,0,.34,1.63A1.91,1.91,0,0,0,85.7,74a12,12,0,0,1,.47-1.43,4,4,0,0,0,.25-1.08,4.1,4.1,0,0,0-.09-1.21,4.74,4.74,0,0,0-.62-1.53,3,3,0,0,0-1.34,1.07Z"/><path class="cls-1" d="M99,55.75a11.86,11.86,0,0,1,.51-1.41,4.11,4.11,0,0,0,.25-1.09,4,4,0,0,0-.09-1.2A4.74,4.74,0,0,0,99,50.52a2.89,2.89,0,0,0-1.38,1.06,2.92,2.92,0,0,0-.51,1.48,2.87,2.87,0,0,0,.34,1.62A1.89,1.89,0,0,0,99,55.75Z"/><path class="cls-1" d="M50.72,66.11a10.93,10.93,0,0,1-1.5.17,4.48,4.48,0,0,0-1.08.26,3.87,3.87,0,0,0-1,.62A4.67,4.67,0,0,0,46,68.4a2.94,2.94,0,0,0,1.57.76,3,3,0,0,0,1.55-.2,2.92,2.92,0,0,0,1.3-1,1.92,1.92,0,0,0,.29-1.82Z"/><path class="cls-1" d="M67.35,62.28a3.9,3.9,0,0,0-1.07.26,4,4,0,0,0-1,.61,5.07,5.07,0,0,0-1.1,1.25,3,3,0,0,0,4.43-.47,1.93,1.93,0,0,0,.28-1.84,10.79,10.79,0,0,1-1.5.19Z"/><path class="cls-1" d="M33.32,59.82a2.9,2.9,0,0,0,1.31-1A1.89,1.89,0,0,0,34.92,57a10.62,10.62,0,0,1-1.49.17,4.48,4.48,0,0,0-1.08.26,4.15,4.15,0,0,0-1,.62,5,5,0,0,0-1.1,1.24,2.94,2.94,0,0,0,1.57.76,3.06,3.06,0,0,0,1.53-.18Z"/><path class="cls-1" d="M29.83,70.19a3,3,0,0,0,1.31-1,1.94,1.94,0,0,0,.29-1.83,12.59,12.59,0,0,1-1.49.17,4.06,4.06,0,0,0-1.08.26,4.12,4.12,0,0,0-1,.61,4.69,4.69,0,0,0-1.1,1.25,2.89,2.89,0,0,0,1.57.75,2.85,2.85,0,0,0,1.53-.18Z"/><rect class="cls-2" width="141.2" height="141.2" rx="70.6"/></g></g></svg>