<svg xmlns="http://www.w3.org/2000/svg" viewBox="0 0 141.2 141.2"><defs><style>.cls-1{fill:none;}.cls-2{}</style></defs><g id="Calque_2" data-name="Calque 2"><g id="Layer_1" data-name="Layer 1"><rect class="cls-1" width="141.2" height="141.2" rx="70.6"/><path class="cls-2" d="M57.75,117.21a10.5,10.5,0,1,1,0-21v2.4a8.1,8.1,0,0,0,0,16.2,7.87,7.87,0,0,0,5.6-2.3l1.7,1.7A10.46,10.46,0,0,1,57.75,117.21Z"/><path class="cls-2" d="M70.65,117.21a10.5,10.5,0,1,1,10.5-10.5A10.5,10.5,0,0,1,70.65,117.21Zm0-18.6a8.1,8.1,0,1,0,8.1,8.1A8.07,8.07,0,0,0,70.65,98.61Z"/><path class="cls-2" d="M83.55,117.21a10.54,10.54,0,0,1-7.3-2.9l1.7-1.7a7.87,7.87,0,0,0,5.6,2.3,8.1,8.1,0,1,0,0-16.2v-2.4a10.5,10.5,0,0,1,10.5,10.5A10.61,10.61,0,0,1,83.55,117.21Z"/><path class="cls-2" d="M77.65,100.81a5.7,5.7,0,0,1-1.3-.1l.3-2.4c.3,0,.7.1,1,.1a8.11,8.11,0,0,0,1.4-16.1l.4-2.4a10.53,10.53,0,0,1-1.8,20.9Z"/><path class="cls-2" d="M63.65,100.81A10.48,10.48,0,0,1,61.85,80l.4,2.4a8.11,8.11,0,0,0,1.4,16.1,2.77,2.77,0,0,0,.9-.1l.3,2.4Z"/><path class="cls-2" d="M70.65,88.11a10.5,10.5,0,1,1,10.5-10.5A10.5,10.5,0,0,1,70.65,88.11Zm0-18.6a8.1,8.1,0,1,0,8.1,8.1A8.07,8.07,0,0,0,70.65,69.51Z"/><path class="cls-2" d="M70.65,98.61a1.16,1.16,0,0,1-1.2-1.2v-6.2a1.2,1.2,0,1,1,2.4,0v6.2A1.16,1.16,0,0,1,70.65,98.61Z"/><path class="cls-2" d="M38.85,120.61h-.3A23,23,0,0,1,24,109l-.7-1.3,3.6-1.1a27.62,27.62,0,0,1-5.1-9.3l-.4-1.4,1.4-.1A28.37,28.37,0,0,1,34.35,98a21.67,21.67,0,0,1-3.8-11.8l-.1-2.4,4.3,3c-1-2.9-1.9-6.9-.7-10.6l.4-1.1,1.1.3a30.6,30.6,0,0,1,9.6,5.9l-.7-4.3,2.1,1a25.73,25.73,0,0,1,5.7,3.8,1.2,1.2,0,0,1-1.7,1.7,20.14,20.14,0,0,0-2.9-2.2l.5,2.9a1.34,1.34,0,0,1-.7,1.4,1.12,1.12,0,0,1-1.5-.3,31.85,31.85,0,0,0-9.8-7.1c-.9,5.1,2.1,10.7,2.5,11.3l.5.8-.7.7a1.21,1.21,0,0,1-1.5.1l-3.7-2.5a17.85,17.85,0,0,0,7.6,12.4,1.3,1.3,0,0,1,.4,1.7,1.19,1.19,0,0,1-1.7.4,31,31,0,0,0-14.8-5,24.3,24.3,0,0,0,5.3,8.2l1.5,1.4-4.5,1.4a20.5,20.5,0,0,0,12.3,9.1,1.3,1.3,0,0,1,.9,1.4C39.85,120.21,39.45,120.61,38.85,120.61Z"/><path class="cls-2" d="M102.45,120.61a1.4,1.4,0,0,1-1.2-.9,1.09,1.09,0,0,1,.9-1.4,20.5,20.5,0,0,0,12.3-9.1l-4.5-1.4,1.5-1.4a23.38,23.38,0,0,0,5.3-8.2,31,31,0,0,0-14.8,5,1.19,1.19,0,0,1-1.7-.4,1.17,1.17,0,0,1,.4-1.7,18.1,18.1,0,0,0,7.6-12.4l-4.6,3-.8-.7a1.21,1.21,0,0,1-.2-1.5c.4-.7,3.4-6.2,2.5-11.3a31.85,31.85,0,0,0-9.8,7.1,1.4,1.4,0,0,1-1.5.3,1.34,1.34,0,0,1-.7-1.4l.5-2.9a15.81,15.81,0,0,0-2.9,2.2,1.2,1.2,0,0,1-1.7-1.7,23.55,23.55,0,0,1,5.7-3.8l2.1-1-.7,4.3a29.45,29.45,0,0,1,9.6-5.9l1.1-.3.4,1.1c1.2,3.7.3,7.7-.7,10.6l4.3-3-.2,2.4a21.16,21.16,0,0,1-3.8,11.8,28.17,28.17,0,0,1,11.6-2.2l1.4.1-.4,1.4a27.62,27.62,0,0,1-5.1,9.3l3.5,1.1-.7,1.3a23,23,0,0,1-14.6,11.6Z"/><path class="cls-2" d="M70.85,36.91a1.2,1.2,0,1,1,0-2.4,6.44,6.44,0,0,0,6.4-6.4,1.2,1.2,0,0,1,2.4,0A8.81,8.81,0,0,1,70.85,36.91Z"/><path class="cls-2" d="M50.75,25.71h-.2L35.05,23a1.22,1.22,0,1,1,.4-2.4L51,23.31a1.25,1.25,0,0,1,1,1.4A1.36,1.36,0,0,1,50.75,25.71Z"/><path class="cls-2" d="M39.55,47.41a1.1,1.1,0,0,1-1-.6,1.23,1.23,0,0,1,.4-1.6l13.6-7.9a1.17,1.17,0,0,1,1.2,2l-13.6,7.9A1.42,1.42,0,0,1,39.55,47.41Z"/><path class="cls-2" d="M42.05,34.41a1.19,1.19,0,0,1-1.2-1,1.22,1.22,0,0,1,1-1.4l8.7-1.5a1.22,1.22,0,0,1,.4,2.4l-8.7,1.5A.14.14,0,0,0,42.05,34.41Z"/><path class="cls-2" d="M58.55,63.31a.6.6,0,0,1-.4-.1,1.19,1.19,0,0,1-.7-1.5l5.4-14.8a1.17,1.17,0,1,1,2.2.8l-5.4,14.8A1.27,1.27,0,0,1,58.55,63.31Z"/><path class="cls-2" d="M52.05,51.71a1.33,1.33,0,0,1-.8-.3,1.15,1.15,0,0,1-.1-1.7l5.7-6.8a1.2,1.2,0,1,1,1.8,1.6L53,51.31A1.09,1.09,0,0,1,52.05,51.71Z"/><path class="cls-2" d="M83.25,63.31a1.17,1.17,0,0,1-1.1-.8l-5.4-14.8a1.17,1.17,0,1,1,2.2-.8l5.4,14.8a1.19,1.19,0,0,1-.7,1.5C83.55,63.21,83.35,63.31,83.25,63.31Z"/><path class="cls-2" d="M70.85,58.61a1.16,1.16,0,0,1-1.2-1.2v-8.8a1.2,1.2,0,0,1,2.4,0v8.8A1.22,1.22,0,0,1,70.85,58.61Z"/><path class="cls-2" d="M102.25,47.41a1.42,1.42,0,0,1-.6-.2l-13.6-7.9a1.17,1.17,0,0,1,1.2-2l13.6,7.9a1.08,1.08,0,0,1,.4,1.6A1.33,1.33,0,0,1,102.25,47.41Z"/><path class="cls-2" d="M89.75,51.71a1.09,1.09,0,0,1-.9-.4l-5.7-6.8a1.2,1.2,0,0,1,1.8-1.6l5.7,6.8a1.24,1.24,0,0,1-.1,1.7A1.6,1.6,0,0,1,89.75,51.71Z"/><path class="cls-2" d="M91.05,25.71a1.19,1.19,0,0,1-1.2-1,1.22,1.22,0,0,1,1-1.4l15.5-2.7a1.22,1.22,0,0,1,.4,2.4l-15.5,2.7Z"/><path class="cls-2" d="M99.75,34.41h-.2l-8.7-1.5a1.22,1.22,0,1,1,.4-2.4L100,32a1.25,1.25,0,0,1,1,1.4A1.29,1.29,0,0,1,99.75,34.41Z"/><path class="cls-2" d="M70.85,43.71A15.73,15.73,0,0,1,55.15,28a24.52,24.52,0,0,1,.2-2.7,1.22,1.22,0,0,1,2.4.4,19.53,19.53,0,0,0-.2,2.3,13.3,13.3,0,0,0,26.6,0,17.85,17.85,0,0,0-.2-2.3,1.22,1.22,0,0,1,1-1.4,1.17,1.17,0,0,1,1.4,1,12.29,12.29,0,0,1,.2,2.7A15.66,15.66,0,0,1,70.85,43.71Z"/></g></g></svg>