<svg xmlns="http://www.w3.org/2000/svg" viewBox="0 0 141.2 141.2"><defs><style>.cls-1{}.cls-2{fill:none;}</style></defs><g id="Calque_2" data-name="Calque 2"><g id="Layer_1" data-name="Layer 1"><path class="cls-1" d="M97.88,68.34a11,11,0,0,0-4-5.87c1.63-.6,4.56-1.84,10.41-4.4,10.55-4.64,17-11.46,19.24-20.29l.07-.33a2.12,2.12,0,0,0-.07-2,2.1,2.1,0,0,0-1.75-1l-.17,0a2.1,2.1,0,0,0-.61.09,1.64,1.64,0,0,0-.43.24l-.27.14a21.76,21.76,0,0,1-9.59,4.34c-1.52.27-2.91.61-4.24,1h0a26.8,26.8,0,0,0,.94-22.06,2.15,2.15,0,0,0-1.86-1.2A2.21,2.21,0,0,0,103.62,18c-1,1.7-4.83,7.4-10.87,16.06a41.14,41.14,0,0,0-6.33,14.44c-.83-.28-1.58-.49-2-.6-1.93-1.22-9.72-5.79-15.11-3.74a6.77,6.77,0,0,0-3.36,2.86c-5.29-2.33-8.74-.83-16.17,4.51A10.85,10.85,0,0,0,45,63.82a8.89,8.89,0,0,0,.93,1.88,17,17,0,0,0-3.19,1.38,7.29,7.29,0,0,0-3.43,7.17,49.7,49.7,0,0,1-9.34-1.07,7.48,7.48,0,0,0-2.67-5A14.49,14.49,0,0,0,15.91,67a2.14,2.14,0,0,0-1.55,2.4,12.66,12.66,0,0,0,2.48,5.36,22.14,22.14,0,0,0-7.61,2.66,2.13,2.13,0,0,0-.86,2.71,14,14,0,0,0,9.79,7.6,11.5,11.5,0,0,0,1.18.08,9.55,9.55,0,0,0,7-3.35,66.91,66.91,0,0,0,14.79-2.57c.16.43.31.86.48,1.25L26.72,91.46a5.26,5.26,0,0,0-3.81-1.16c-5.15.5-9.43,8.78-10.24,10.43a2.14,2.14,0,0,0,1.77,3.07c.28,0,.58,0,.9,0a16.66,16.66,0,0,0,12.64-5,5.31,5.31,0,0,0,.89-3.69l14.34-8.07a11.53,11.53,0,0,0,6.53,6,10.62,10.62,0,0,0,3.66.66,9.93,9.93,0,0,0,2-.25A8.78,8.78,0,0,0,56,95.44a11.39,11.39,0,0,0,8,6.5,13.94,13.94,0,0,0,2.88.3,12.65,12.65,0,0,0,7-2c4.37-.22,11.14-2,11.93-7.38h0a24.05,24.05,0,0,0,.26-2.81,14,14,0,0,0,1.82.15A8.6,8.6,0,0,0,95,87.11a23.38,23.38,0,0,0,2.9-18.77ZM24.42,96.47a10.24,10.24,0,0,1-6,2.77c1.59-2.39,3.51-4.55,4.86-4.67h.09c.2,0,.56.07,1.08.7a1.11,1.11,0,0,1-.08,1.2Zm87-53a25,25,0,0,0,6-1.9,29.34,29.34,0,0,1-14.93,12.6c-2.28,1-6.25,2.74-8.72,3.78a11.85,11.85,0,0,0-.34-1.57,19.89,19.89,0,0,1,9.12-10.16,31.73,31.73,0,0,1,8.82-2.75ZM96.26,36.52q5.59-8,8.48-12.32a25.61,25.61,0,0,1-4.65,18.55,22.73,22.73,0,0,0-8.86,8.78,6.24,6.24,0,0,0-.89-.89,37.34,37.34,0,0,1,5.92-14.12ZM70.79,48.17c2.86-1.08,8.61,1.6,11.57,3.55a2.17,2.17,0,0,0,.77.32,9.7,9.7,0,0,1,4.77,2.09,13.19,13.19,0,0,1,1.26,2.45,1.11,1.11,0,0,0,.07.26,7,7,0,0,1,.43,3.69,7.15,7.15,0,0,1-2.07,3.86,18,18,0,0,1-12.18,2.92,2.25,2.25,0,0,0-.86.13,7,7,0,0,0-2.38-1.9c1.28-6,2-13-2.54-16.38a2.49,2.49,0,0,1,1.16-1ZM66.66,71.69h0a2.58,2.58,0,1,1,2.58,2.57,2.56,2.56,0,0,1-2.58-2.57ZM49,62.41A6.91,6.91,0,0,1,52.23,55c8.14-5.86,9.43-5.81,14.57-2.69,2.3,1.4,2.65,5.57,1.09,12.65a6.83,6.83,0,0,0-4.36,2.9A23.37,23.37,0,0,0,50.74,64.8,5.08,5.08,0,0,1,49,62.41ZM26.79,80.12a9.29,9.29,0,0,0-1-1.87,9.61,9.61,0,0,0,2.46-1.07,48.08,48.08,0,0,0,8.93,1.29,60.88,60.88,0,0,1-10.4,1.65Zm-2.18-8.54a3,3,0,0,1,1.12,2.14,3.66,3.66,0,0,1-3.27.25,7.13,7.13,0,0,1-3.16-3.26,7.91,7.91,0,0,1,5.31.87Zm-5.9,11.87a9.17,9.17,0,0,1-5.32-3.35,10.64,10.64,0,0,1,7.27-.86A4.31,4.31,0,0,1,23,81.84a5,5,0,0,1-4.24,1.61Zm32.5,5.62h0a7.33,7.33,0,0,1-4.29-4c-.22-.58-.49-1.24-.79-2-1.61-3.94-4.32-10.52-1.28-12.3a17,17,0,0,1,16.54.82,2.17,2.17,0,0,0,1,.24,6.73,6.73,0,0,0,1.28,3.85c-.07,0-.14.09-.21.15a30.14,30.14,0,0,0-8.08,13.24,6.16,6.16,0,0,1-4.17,0Zm30.42,3.2c-.43,3-6.8,3.71-8.47,3.74h0a2.17,2.17,0,0,0-1.36.5,8.63,8.63,0,0,1-6.86,1.24,7,7,0,0,1-5.06-4.1c-2.16-4.71,4-12.25,6.58-14.77h0a2.06,2.06,0,0,0,.5-.76,6.49,6.49,0,0,0,3.57.29,2.14,2.14,0,0,0,.23.38,35,35,0,0,1,2.44,3.1,17.92,17.92,0,0,0,5.86,5.76,21.58,21.58,0,0,0,2.76,1.28,17,17,0,0,1-.21,3.34Zm10-7.84c-2.36,3-7.86,1-10.44-.53a13.84,13.84,0,0,1-4.52-4.55c-.71-1-1.49-2-2.41-3.07a6.72,6.72,0,0,0,1.82-4.6v-.09c.35,0,.7,0,1.06,0h0a20.14,20.14,0,0,0,13.49-4.26,12.36,12.36,0,0,0,1.06-1.22,7.26,7.26,0,0,1,2.14,3.49,19,19,0,0,1-2.2,14.79Zm36.87-5.79A11.19,11.19,0,0,0,117,76.82a15,15,0,0,0-1.38-.94,8.84,8.84,0,0,0-10.11,1A17.79,17.79,0,0,0,98,91.91a2.15,2.15,0,0,0,1.87,1.67,16.31,16.31,0,0,0,1.71.08,31.46,31.46,0,0,0,14.94-4.08,21,21,0,0,0,12.22,4.1,17.15,17.15,0,0,0,2-.12A2.13,2.13,0,0,0,132.6,92a13.29,13.29,0,0,0-4.1-13.3Zm-20.45,1.67A6,6,0,0,1,111.47,79a3.74,3.74,0,0,1,2,.55c1.16.71,3.81,2.49,3.31,4-1,2.86-9,5.67-14.57,5.85a16.27,16.27,0,0,1,5.88-9Zm11.75,6.43a6.91,6.91,0,0,0,1-1.86,5.55,5.55,0,0,0-.46-4.52,6.77,6.77,0,0,1,5.36,1.55,8.89,8.89,0,0,1,3,7.49,17,17,0,0,1-8.88-2.65ZM118.09,92h0a20.57,20.57,0,0,0-16.56,9.47,2.14,2.14,0,0,0,.86,2.87,33.69,33.69,0,0,0,15,3.89,11.44,11.44,0,0,0,7.45-2.1,6.43,6.43,0,0,0,1.4-7.71A9.1,9.1,0,0,0,118.09,92ZM122,102.87c-2.17,1.86-9.67,1.14-15.34-1.23h0a16.28,16.28,0,0,1,11.12-5.37,4.83,4.83,0,0,1,2.8,1.09,4.78,4.78,0,0,1,1.59,2.55c.79,2.15.1,2.75-.16,3Z"/><rect class="cls-2" width="141.2" height="141.2" rx="70.6"/></g></g></svg>