<svg xmlns="http://www.w3.org/2000/svg" viewBox="0 0 141.2 141.2"><defs><style>.cls-1{}.cls-2{fill:none;}</style></defs><g id="Calque_2" data-name="Calque 2"><g id="Layer_1" data-name="Layer 1"><path class="cls-1" d="M60,70.26a10.87,10.87,0,0,1,1-1.5,4,4,0,0,1,1.29-1,1.42,1.42,0,0,1,1.85.48A1.32,1.32,0,0,1,63.9,70c-1.09,1.25-2.22,2.46-3.28,3.73a1.84,1.84,0,0,0-.42,1.16,19.76,19.76,0,0,0,.49,3.76,5.11,5.11,0,0,1,.32-.93,7.93,7.93,0,0,1,1.23-1.9,1.48,1.48,0,0,1,1.41-.15,1.47,1.47,0,0,1,.51,1.3c-.58,2.12-1.22,4.23-2,6.3h0a3.7,3.7,0,0,0-.11,2.64,21.68,21.68,0,0,0,.83,2.34c.24-1.11.48-2.21.74-3.31h0a1.76,1.76,0,0,1,.29-.85A2.1,2.1,0,0,1,65,83.3c.63-.06.89.54.9,1.08h0a9.48,9.48,0,0,1-.16,2.38c-.4,1.71-.93,3.39-1.36,5.09a1.19,1.19,0,0,0,.1.83C65.75,94.86,67,97,68.26,99.19c.37.64.39,1.24-.15,1.38a1.17,1.17,0,0,1-1-.24c-.4-.52-.79-.46-1.36-.41-1.81.14-3.62.21-5.44.22h0a2.86,2.86,0,0,1-1.38-.48,1.7,1.7,0,0,1-.77-1.4,1.68,1.68,0,0,1,.75-1.4A4.78,4.78,0,0,1,63,96.09l1.27.23-1.35-2.58h0a9,9,0,0,1-5.23.11,2.62,2.62,0,0,1-1.36-.7A2.35,2.35,0,0,1,56,91.42a1.69,1.69,0,0,1,1.24-1,8,8,0,0,1,2.33.4c.71.17,1.4.41,2.19.64-.65-1.95-1.22-3.73-1.84-5.5-.07-.19-.39-.32-.62-.41-1.26-.52-2.58-.94-3.8-1.55h0a1.58,1.58,0,0,1-.92-.87,1.54,1.54,0,0,1,0-1.26,1.68,1.68,0,0,1,1-.84,1.66,1.66,0,0,1,1.29.11,14.83,14.83,0,0,1,2,1.14c-.28-1.94-.55-4-.89-6,0-.19-.42-.4-.68-.48h0a14.81,14.81,0,0,1-2.52-.73,5.11,5.11,0,0,1-1.55-1.52,1.11,1.11,0,0,1-.3-.81,1.14,1.14,0,0,1,.36-.78,2,2,0,0,1,1.5-.32,10.36,10.36,0,0,1,2.05,1c.26.14.5.32.71.45,0-1.61,0-3.2,0-4.78,0-.18-.35-.38-.56-.53-1-.72-2-1.37-2.93-2.15a3.58,3.58,0,0,1-1.31-3.08c.08-1.25,1-1.86,2-1.13A17.87,17.87,0,0,1,57,63.7c.13.14.24.29.51.63.05-1.34.13-2.47.11-3.61,0-.17-.38-.4-.63-.5a4.83,4.83,0,0,1-3.14-3.17,2.12,2.12,0,0,1,.58-2.55c.72-.55,1.57-.49,2.6.21.31.21.59.47.93.75.22-1.09.44-2-.56-3a4.88,4.88,0,0,1-1.34-4.36c.16-1.51,1.08-2,2.47-1.24.3-.89.18-2.31,1.6-2.13,1.26.16,1,1.46,1.23,2.41.33,0,.67-.07,1-.07,1.13,0,1.73.92,1.11,1.85h0a26.72,26.72,0,0,1-2.23,2.53c-.17.19-.46.39-.48.61-.14,1.27-.23,2.56-.34,4,.69-.64,1.23-1.22,1.85-1.69a1.62,1.62,0,0,1,2.2-.12,1.69,1.69,0,0,1,.26,2.2,5.35,5.35,0,0,1-3.72,2.9c-.69.18-.92.45-.88,1.1s0,1.21,0,2c.25-.31.39-.53.57-.71h0a8.55,8.55,0,0,1,1.31-1.24,1.21,1.21,0,0,1,1.23-.14,1.19,1.19,0,0,1,.71,1,3.7,3.7,0,0,1-1,3.43,16.79,16.79,0,0,1-2.36,1.94A1.22,1.22,0,0,0,60,67.94c0,.68,0,1.37,0,2.32Zm-2.3-11.33A3.9,3.9,0,0,0,56.24,56a2.36,2.36,0,0,0-.83-.21,2.9,2.9,0,0,0,0,.78,3.24,3.24,0,0,0,2.33,2.36Zm-.6,7.53h0A9.49,9.49,0,0,0,54,62.52c.08,2.23,1.72,3,3.09,3.94Zm3.82-8.35h0a4.22,4.22,0,0,0,2.8-2.28,2,2,0,0,0,0-.69,2,2,0,0,0-.67.11,5.88,5.88,0,0,0-2.15,2.86ZM59.7,98.29h0a10,10,0,0,0,5.13-.05c-1.64-.35-3.26-1.26-5.13.05Zm-2.39-6.77-.1.3c.33.87,2.54,1.31,4,.77l-3.86-1.07Zm.46-43.31a2.64,2.64,0,0,0,.87,3.3c-.32-1.2-.59-2.25-.87-3.3Zm4.58,14L61,64.4h0a2.09,2.09,0,0,0,1.38-2.21ZM57.88,83.81c-.63-1-1.15-1.34-2.06-1.22Z"/><path class="cls-1" d="M77,49.37a4.14,4.14,0,0,1,1.18-.32,1.63,1.63,0,0,1,1.15.41,1.23,1.23,0,0,1,0,1.12,9.47,9.47,0,0,1-4.13,4.06,1.51,1.51,0,0,0-.69.8c-.26.76-.42,1.57-.66,2.52h0c.43-.42.89-.82,1.36-1.2a2.66,2.66,0,0,1,1.24-.6A2.11,2.11,0,0,1,78,56.6a1.72,1.72,0,0,1,.2,1.57,5.94,5.94,0,0,1-1.56,1.75,6.6,6.6,0,0,1-1.68.89A3.33,3.33,0,0,0,73.33,62a3.43,3.43,0,0,0-.73,1.89c0,.32-.11.64-.19,1.12.27-.2.42-.33.58-.43a5.42,5.42,0,0,1,1.48-.88,1.31,1.31,0,0,1,1.8,1.7A4.13,4.13,0,0,1,74.5,68a5,5,0,0,1-1.56.92c-1.21.3-1.44,1.14-1.53,2.18h0a19.59,19.59,0,0,0-.18,2.54,5.25,5.25,0,0,1,.53-.62,12.17,12.17,0,0,1,2.11-1.68,1.77,1.77,0,0,1,1.58.2A1.7,1.7,0,0,1,75.78,73a4.48,4.48,0,0,1-1.14,2c-1.06,1-2.28,1.74-3.41,2.63a1.42,1.42,0,0,0-.47.86c-.1,1.09-.12,2.18-.18,3.44.6-.64,1.06-1.18,1.58-1.65s1.16-.89,1.86-.42a1.44,1.44,0,0,1,.35,1.88,11,11,0,0,1-3.21,4.66,1.39,1.39,0,0,0-.46.93c0,.85.07,1.7.12,2.74a5.6,5.6,0,0,1,.76-1.11c.3-.27.8-.65,1.06-.56h0a1.51,1.51,0,0,1,.9,1,4.89,4.89,0,0,1-.22,2.34,25.34,25.34,0,0,1-1.67,2.74,2.19,2.19,0,0,0-.34,1.17c.09,1,.29,2,.44,2.94.08.52,0,1-.63,1.06s-.8-.38-.83-.92c0-.19,0-.38-.06-.58h0a3,3,0,0,0-1.47-2.54,7.44,7.44,0,0,1-2.87-4.16c-.17-.55-.3-1.18.36-1.55s1.08.07,1.45.47c.59.64,1.11,1.35,1.7,2.07-.1-1.61-.17-3.16-.3-4.69a1.81,1.81,0,0,0-.45-.93A11.5,11.5,0,0,1,66.22,80a.74.74,0,0,1,1.38-.48c.47.69.84,1.46,1.38,2.18a18.08,18.08,0,0,0,0-2.85,2.65,2.65,0,0,0-.88-1.32,7.09,7.09,0,0,1-2-5.25,1.36,1.36,0,0,1,.13-.72c.25-.36.55-.89.89-.94h0a1.52,1.52,0,0,1,1.26.51,13.76,13.76,0,0,1,1,2.19c.14-.83.23-1.68.29-2.52,0-.24-.34-.55-.59-.72-2-1.44-2.65-3.52-2.72-5.85,0-.61.1-1.2.74-1.44a1.26,1.26,0,0,1,1.58.58c.59.92,1.09,1.91,1.7,3,.17-1,.35-1.88.46-2.78,0-.16-.18-.37-.32-.52A9.1,9.1,0,0,1,68,55.51c.07-.59.28-1.11.92-1.22a1.16,1.16,0,0,1,1.29.84c.41,1.11.72,2.25,1.07,3.38a2.53,2.53,0,0,0,.44.94c.28-1.16.59-2.31.8-3.49,0-.25-.25-.59-.43-.86a9.62,9.62,0,0,1-1.61-6.77c.08-.57.23-1.12.91-1.22a1.14,1.14,0,0,1,1.32.9c.35,1.27.59,2.57.94,3.89.27-1.37,1.4-2.49,1-4.11h0a8.3,8.3,0,0,1,.91-6.47,1.79,1.79,0,0,1,1.22-.77c.63,0,.91.56,1,1.13a13.3,13.3,0,0,1,.09,1.55,16.51,16.51,0,0,1,1.56-.8,1.18,1.18,0,0,1,1.48.4,1.08,1.08,0,0,1-.18,1.44c-1,1.18-2.14,2.31-3.16,3.51h0a6.85,6.85,0,0,0-.74,1.42Z"/><path class="cls-1" d="M76,93.61A5.71,5.71,0,0,0,77.08,90a25.23,25.23,0,0,1,.18-4.6,1.23,1.23,0,0,1,.29-.76,1.3,1.3,0,0,1,.85-.47c.24,0,.56.35.65.61.16.46.17,1,.4,1.53.38-1.13.79-2.25,1.12-3.39.05-.2-.2-.49-.32-.73-.51-1.06-1-2.11-1.53-3.19h0a2.65,2.65,0,0,1-.13-1c0-.69,0-1.39.83-1.62s1.26.24,1.67.8c.18.24.35.48.68.95.17-1.58.33-2.94.45-4.29,0-.12-.19-.29-.33-.39h0a5,5,0,0,1-2.12-4.74,1.5,1.5,0,0,1,2.41-1.22c.17.09.32.19.6.36.07-.82.16-1.55.16-2.29,0-.14-.31-.33-.51-.43h0a4,4,0,0,1-1.84-1.82,4,4,0,0,1-.33-2.58c.46-1.49,1.47-1.93,2.92-1.2-.35-1.55-.73-3-1-4.54h0a4.75,4.75,0,0,1,.08-2,1.31,1.31,0,0,1,.83-.87,1.4,1.4,0,0,1,1.07.58,7.44,7.44,0,0,1,1.13,5.14,24.21,24.21,0,0,0-.11,3.3c.19-.35.36-.72.58-1.06a4.94,4.94,0,0,1,.95-1.23,1.35,1.35,0,0,1,1.17-.17,1.15,1.15,0,0,1,.35,1.05,12.83,12.83,0,0,1-1,2.44c-.67,1.26-1.39,2.51-2.17,3.7s-.41,2.55-.83,4a20.36,20.36,0,0,1,1.68-1.18c.69-.39,1.46-.7,2.15,0a1.63,1.63,0,0,1,.06,2.14h0a10.11,10.11,0,0,1-3.65,3.64,1.57,1.57,0,0,0-.8,1.33c-.09,1-.27,2-.43,3.07.37-.31.64-.58,1-.8A1.54,1.54,0,0,1,86,77.93a1.31,1.31,0,0,1,.55,1.6,4.44,4.44,0,0,1-.79,1.69,19.2,19.2,0,0,1-2.85,2.63,4.26,4.26,0,0,0-1.7,2.21c-.42,1.25-1,2.44-1.4,3.77.54-.44,1.06-.88,1.61-1.3h0a4.78,4.78,0,0,1,1.24-.8,1.49,1.49,0,0,1,1.25.12,1.31,1.31,0,0,1-.07,1.23A8.21,8.21,0,0,1,82,90.93c-1.12.73-2.35,1.28-3.54,1.91h0a.7.7,0,0,0-.3.24c-.53,1-1,2-1.66,3.18.77-.51,1.33-1,1.94-1.27A4.66,4.66,0,0,1,80,94.43a1.07,1.07,0,0,1,1.1.44,1.06,1.06,0,0,1,0,1.19,3.22,3.22,0,0,1-.83,1A10.89,10.89,0,0,1,75.4,99.3c-.51.1-.87.22-1.06.75a.8.8,0,0,1-1.55,0,.8.8,0,0,1,.13-.67,5.27,5.27,0,0,0,.53-2.87c0-1.62.18-3.25.35-4.87.12-1.16.54-1.63,1.2-1.6s1,.49,1,1.72c0,.3,0,.6,0,.91v.94Zm1.14,3.75.19.29,2.89-1.86-.26-.39-2.82,2Z"/><rect class="cls-2" width="141.2" height="141.2" rx="70.6"/></g></g></svg>