<svg xmlns="http://www.w3.org/2000/svg" viewBox="0 0 141.2 141.2"><defs><style>.cls-1{}.cls-2{fill:none;}</style></defs><g id="Calque_2" data-name="Calque 2"><g id="Layer_1" data-name="Layer 1"><path class="cls-1" d="M36.24,79c1.32.21,1.63,2.15,1.91,4.7L40.84,81a4,4,0,0,0,1-4.06,23.81,23.81,0,0,1-1.15-9.44,14.59,14.59,0,0,0-11.49,3.3,15.15,15.15,0,0,0-4.69,9.1,15.56,15.56,0,0,0,0,5.2c.35-.62.79-1.56,1.15-2.31,1.6-3.38,2.65-5.44,4.07-5.09s1.37,2.45,1.45,5.15a24,24,0,0,0,.21,3,23.91,23.91,0,0,0,1.37-2.61c1.19-2.51,2.13-4.49,3.53-4.27Z"/><path class="cls-1" d="M116.43,61.06c-1.35-6.62-5.31-12.15-11.77-16.43A38,38,0,0,0,94.4,39.85C79.25,35.78,67,45,63.59,47.89a5.44,5.44,0,0,1-3,1.31,20.91,20.91,0,0,0-13.9,7.17,21.28,21.28,0,0,0-3.41,20.12,5.48,5.48,0,0,1-1.34,5.61l-6.4,6.41a4,4,0,0,0,4.21,6.58L58,88.3A14.73,14.73,0,0,1,59.65,84c2.83-4.83,8.44-7.82,14.64-7.82h0a6,6,0,0,1,4.21,10.28l0,.05A5,5,0,0,0,77,90a42.47,42.47,0,0,0,9.77,1.75,16,16,0,0,1,5-7.59c4.35-3.54,10.66-4.39,16.49-2.2a5.94,5.94,0,0,1,2.15,1.4l.3-.33a26,26,0,0,0,5.68-22ZM55.29,80.19A1.68,1.68,0,1,1,57,78.52,1.68,1.68,0,0,1,55.29,80.19Z"/><path class="cls-1" d="M77.42,85.43l0,0a4.51,4.51,0,0,0-3.13-7.7h0c-5.66,0-10.77,2.71-13.33,7.08a15.29,15.29,0,0,0-1.62,10.12,15.54,15.54,0,0,0,1.6,5c.13-.7.26-1.73.37-2.56.46-3.71.82-6,2.28-6.11s2.07,1.9,3,4.44a25.25,25.25,0,0,0,1.14,2.8,22.23,22.23,0,0,0,.49-2.91c.35-2.75.62-4.93,2-5.16s2.38,1.85,3.57,4.49a22.36,22.36,0,0,0,1.4,2.78c.2-.67.47-2.5.33-7.41a6.6,6.6,0,0,1,1.9-4.77Z"/><path class="cls-1" d="M107.76,83.4c-5.32-2-11.06-1.25-15,2a15.17,15.17,0,0,0-5,8.92,15.54,15.54,0,0,0-.23,5.19c.37-.61.85-1.53,1.24-2.26,1.73-3.32,2.86-5.34,4.27-4.93s1.27,2.5,1.25,5.2a22.09,22.09,0,0,0,.09,3A22.87,22.87,0,0,0,95.82,98C97,95.64,98,93.79,99.26,93.79a1.07,1.07,0,0,1,.25,0c1.43.28,1.59,2.56,1.79,5.45a24.45,24.45,0,0,0,.34,3.1c.42-.56,1.31-2.19,2.9-6.83a6.49,6.49,0,0,1,3.43-3.8l.06,0a4.52,4.52,0,0,0-.26-8.31Z"/><rect class="cls-2" width="141.2" height="141.2" rx="70.6"/></g></g></svg>