<svg xmlns="http://www.w3.org/2000/svg" viewBox="0 0 141.2 141.2"><defs><style>.cls-1{}.cls-2{fill:none;}</style></defs><g id="Calque_2" data-name="Calque 2"><g id="Layer_1" data-name="Layer 1"><path class="cls-1" d="M114.78,65.5l-.14-.4a1.84,1.84,0,0,0,.18-1,90.07,90.07,0,0,0-2.56-14.21c-1.58-5.73-7.17-18-17-23.53a21,21,0,0,0-16.59-1.83A21.4,21.4,0,0,0,65.91,32a13.33,13.33,0,0,0-2.53-5.77,1.88,1.88,0,0,0-1-1c-1.46-.76-4.2.56-5.09,1.76a1.66,1.66,0,0,0,0,2.14c.81,1.39,2.46,5.06,1.74,7.42a24.58,24.58,0,0,0-18.45,2.17c-7.71,4.27-12.69,12.39-14,22.87C25,73.3,32.26,86,36.58,93.61a38,38,0,0,1,3.05,6c3.25,11.44,9.33,18,16.68,18h0c15.89,0,40.62-20.42,41.1-45.59.33-17.19-4.23-26.93-15.73-33.63a19.05,19.05,0,0,0-11.56-2.67c1.56-1.87,4.33-4.63,7.46-5.11A17.49,17.49,0,0,0,88.92,41c4.39,1.36,6.7,5.57,9.15,10,2.16,3.92,4.39,8,8.22,10.22l5.43,4.52a2,2,0,0,0,1.21.44h.16a.91.91,0,0,0,1.69-.66ZM94.36,28c9.31,5.21,14.63,17,16.14,22.42a75.68,75.68,0,0,1,1.79,8.46C102.58,35,90.5,27.69,83.82,25.48A19,19,0,0,1,94.36,28Zm-34.31-.83a2.57,2.57,0,0,1,1.53-.33l.09.05a2.39,2.39,0,0,1-1.06.9,2.25,2.25,0,0,1-1.79.25A3.5,3.5,0,0,1,60.05,27.12Zm-.34,2.77a5.15,5.15,0,0,0,3-1.45,15.13,15.13,0,0,1,1.61,8.72,15.76,15.76,0,0,0-1.43.68c-.7-.31-1.42-.57-2.13-.82C61.46,34.61,60.52,31.73,59.71,29.89ZM80.78,40c10.85,6.32,15.14,15.6,14.83,32-.49,25.75-25.77,43.81-39.28,43.8h0c-9.2,0-13.5-11.66-14.93-16.68a36.77,36.77,0,0,0-3.22-6.35c-4.22-7.42-11.27-19.83-9.83-31,1.23-9.84,5.93-17.48,13.1-21.46a22.45,22.45,0,0,1,11-2.83A24.12,24.12,0,0,1,62.58,39.7a.93.93,0,0,0,.86-.05,15.83,15.83,0,0,1,4.67-1.76,1.11,1.11,0,0,0,.37-.08A17.31,17.31,0,0,1,80.78,40Zm-13.2-3.83c-.47.11-.92.23-1.34.35V34.61A19.58,19.58,0,0,1,77,26.8a4.65,4.65,0,0,0,0,2.1C72.19,29.78,68.48,34.75,67.58,36.13Zm39.83,23.63-.13-.09c-3.43-2-5.55-5.83-7.6-9.56-2.52-4.57-5.1-9.3-10.22-10.88a15.5,15.5,0,0,1-10.33-9.8h0a.2.2,0,0,0,0-.11c-.76-1.66-.22-2.58.11-2.95,1.23.09,5.84.72,11.61,4.89,6,4.35,14.53,13.51,21.45,32.55Z"/><rect class="cls-2" width="141.2" height="141.2" rx="70.6"/></g></g></svg>