<svg xmlns="http://www.w3.org/2000/svg" viewBox="0 0 141.2 141.2"><defs><style>.cls-1{fill-rule:evenodd;}.cls-2{fill:none;}</style></defs><g id="Calque_2" data-name="Calque 2"><g id="Layer_1" data-name="Layer 1"><path class="cls-1" d="M67.49,101.33a54.14,54.14,0,0,0,5.24-1.93c1.19-.62,2.46-1.92,3.57-4.39a1.58,1.58,0,1,1,2.89,1.3c-1.51,3.37-3.37,5-5,5.9a26.41,26.41,0,0,1-4.41,1.56c1.77,1.78,3.53,3.37,5,4.93a35.58,35.58,0,0,0,7.37,6.21,8.57,8.57,0,0,0,6.9,1.15,7.1,7.1,0,0,0,4.28-3,8.12,8.12,0,0,0,1-5,34.17,34.17,0,0,0-2-8.24c-1.46-4.2-3.7-8.83-3.82-14.68a23.92,23.92,0,0,0-5.84-15.86,19.45,19.45,0,0,1-3.4-6.75c-.45-1.36-.88-2.72-1.38-4-1.67,3.67-5,8.66-10.67,9.14A1.59,1.59,0,1,1,67,64.57c5.62-.47,8.36-7.69,9-9.81-1.81-2.94-3-6.39-4.29-9.38a19.22,19.22,0,0,0-3.49-5.75h0a12.76,12.76,0,0,0-9.7-4,23.54,23.54,0,0,1-3.09-7.7,3.32,3.32,0,0,0-3.9-3l-2,.37A3.33,3.33,0,0,0,47,29.65c.74,2.06,1.94,5.52,2.94,8.83a7.58,7.58,0,0,0-2.21,2.66c-.66,1.42-1,3.53-.59,7.32h0c.25,2.35,1.38,5.49,2.37,8.82.89,3,1.68,6.16,1.34,9h0c-.87,7-.85,13.36,4,17.42,4.22,3.53,6.46,8.87,9.08,13A35.56,35.56,0,0,0,67.49,101.33ZM80.24,82.79A5.84,5.84,0,0,1,76,86.9a1.58,1.58,0,0,0,.89,3,8.8,8.8,0,0,0,6.51-6.62,1.59,1.59,0,1,0-3.13-.53ZM69,77.6s-.63,2.44-4.38,3.13a1.58,1.58,0,0,0,.57,3.11c6.24-1.14,6.92-5.65,6.92-5.65A1.58,1.58,0,1,0,69,77.6ZM60.2,51.16a8.19,8.19,0,0,1-3.71,1.94,1.59,1.59,0,1,0,.85,3.06c5.15-1.43,5.78-3.77,5.78-3.77a1.59,1.59,0,0,0-2.92-1.23Z"/><rect class="cls-2" width="141.2" height="141.2" rx="70.6"/></g></g></svg>