<svg xmlns="http://www.w3.org/2000/svg" viewBox="0 0 141.2 141.2"><defs><style>.cls-1{}.cls-2{fill:none;}</style></defs><g id="Calque_2" data-name="Calque 2"><g id="Layer_1" data-name="Layer 1"><path class="cls-1" d="M119.08,57.62l-29-31.79a1.33,1.33,0,0,0-1-.43h-34a1.31,1.31,0,0,0-1,.5L22.17,57.53A1.33,1.33,0,0,0,21.88,59c.44,1.23,2.35.71,3.53.81v54.7a1.32,1.32,0,0,0,1.31,1.32h87.77a1.33,1.33,0,0,0,1.32-1.32V59.83h2.3a1.34,1.34,0,0,0,1.2-.79,1.32,1.32,0,0,0-.23-1.42Zm-4-.43H101.85L75.74,28H88.5ZM72.2,28,98.3,57.19H84.71L58.09,28Zm41,77.76H101.08a21.34,21.34,0,0,1,.68-7.59,9.67,9.67,0,0,0,6.94-3.29c2.64-3.38,1.91-8.77,1.88-9a1.33,1.33,0,0,0-1.26-1.13c-2.64-.18-8.73,1.25-9.62,7.32-.83-6.11-7-7.61-9.63-7.41a1.31,1.31,0,0,0-1.25,1.13c0,.23-.77,5.62,1.87,9h0a9.65,9.65,0,0,0,6.93,3.29,21.4,21.4,0,0,1,.67,7.68H86.55V78h26.61Zm-19-12.18a7.31,7.31,0,0,1,2,1.61,6.13,6.13,0,0,1-3.39-2,9.52,9.52,0,0,1-1.42-5.8,6.9,6.9,0,0,1,4.55,2.24,6.73,6.73,0,0,1,1.19,2.82c-.89-.71-2.57-2.15-3.48-.65h0a1.29,1.29,0,0,0-.13,1,1.38,1.38,0,0,0,.62.8Zm9.38-3.89a6.84,6.84,0,0,1,4.56-2.23,9.62,9.62,0,0,1-1.43,5.8,6.12,6.12,0,0,1-3.39,2,7.41,7.41,0,0,1,2-1.61,1.31,1.31,0,0,0,.5-1.8c-.91-1.5-2.58-.06-3.47.66h0a6.92,6.92,0,0,1,1.19-2.82ZM83.91,105.8H72a20.89,20.89,0,0,1,.68-7.59,9.71,9.71,0,0,0,6.94-3.29c2.64-3.38,1.91-8.77,1.88-9a1.32,1.32,0,0,0-1.26-1.13,10.23,10.23,0,0,0-7.91,3.32,9.46,9.46,0,0,0-1.71,4A9.58,9.58,0,0,0,68.89,88,10.26,10.26,0,0,0,61,84.7a1.31,1.31,0,0,0-1.25,1.13c0,.23-.77,5.62,1.87,9h0a9.65,9.65,0,0,0,6.93,3.29,21.63,21.63,0,0,1,.67,7.68H57.3V78H83.91ZM65,93.62a7.73,7.73,0,0,1,2,1.6,6,6,0,0,1-3.39-2,9.55,9.55,0,0,1-1.43-5.8A5.82,5.82,0,0,1,68,92.47c-.89-.71-2.57-2.15-3.48-.65a1.34,1.34,0,0,0-.12,1,1.37,1.37,0,0,0,.62.8Zm9.37-3.89A6.84,6.84,0,0,1,79,87.5c.2,3.17-1,7.12-4.83,7.81a7.61,7.61,0,0,1,2.05-1.61,1.31,1.31,0,0,0,.5-1.8c-.91-1.5-2.58-.06-3.47.65a6.61,6.61,0,0,1,1.19-2.82ZM42.71,105.8a21.4,21.4,0,0,1,.7-7.39,9.68,9.68,0,0,0,6.93-3.28c2.65-3.39,1.91-8.78,1.88-9A1.31,1.31,0,0,0,51,85a10.2,10.2,0,0,0-7.91,3.31,9.42,9.42,0,0,0-1.71,4c-.83-6.11-7-7.61-9.63-7.41A1.3,1.3,0,0,0,30.47,86c0,.22-.77,5.61,1.87,9a9.63,9.63,0,0,0,6.93,3.29A21.37,21.37,0,0,1,40,105.8H28.05V78H54.66V105.8Zm-7-12a7.81,7.81,0,0,1,2.05,1.61,6.06,6.06,0,0,1-3.39-2A9.49,9.49,0,0,1,33,87.62a6.8,6.8,0,0,1,4.55,2.23,6.7,6.7,0,0,1,1.19,2.83c-.88-.71-2.56-2.15-3.47-.65a1.32,1.32,0,0,0,.5,1.79Zm9.38-3.89a6.83,6.83,0,0,1,4.55-2.22,9.49,9.49,0,0,1-1.43,5.8,6.1,6.1,0,0,1-3.39,2,7.57,7.57,0,0,1,2.05-1.6,1.33,1.33,0,0,0,.5-1.8c-.91-1.5-2.58-.06-3.48.65a6.84,6.84,0,0,1,1.2-2.83ZM57.3,75.36V59.78H83.91V75.36ZM55.06,28.64l26,28.5H26.31Zm-.4,31.14V75.36H28V59.78ZM28,113.16v-4.73H40.69c9.67.06,34.47,0,44.54,0h27.93v4.73Zm85.12-37.8H86.55V59.83h26.61Z"/><path class="cls-1" d="M31.78,72.33a1.31,1.31,0,0,0,.93.39,1.33,1.33,0,0,0,.94-.37L40.16,66a1.32,1.32,0,0,0-1.84-1.88L31.8,70.46a1.34,1.34,0,0,0-.4.93,1.32,1.32,0,0,0,.38.94Z"/><path class="cls-1" d="M43,70.64a1.3,1.3,0,0,0,.92-.38l6.52-6.36A1.32,1.32,0,0,0,48.6,62l-6.51,6.36h0a1.33,1.33,0,0,0-.29,1.43,1.34,1.34,0,0,0,1.21.83Z"/><path class="cls-1" d="M67.79,64.52l-6.51,6.36h0a1.32,1.32,0,0,0,1.85,1.89l6.51-6.36h0a1.32,1.32,0,0,0-1.84-1.89Z"/><path class="cls-1" d="M79.94,62.45a1.31,1.31,0,0,0-.93-.39,1.33,1.33,0,0,0-.94.37L71.56,68.8h0a1.32,1.32,0,0,0,1.84,1.89l6.52-6.36h0a1.36,1.36,0,0,0,.4-.93,1.32,1.32,0,0,0-.38-.94Z"/><path class="cls-1" d="M90.34,72.74a1.33,1.33,0,0,0,1.87,0l6.51-6.36a1.32,1.32,0,1,0-1.84-1.89l-6.52,6.36a1.31,1.31,0,0,0,0,1.86Z"/><path class="cls-1" d="M101.57,71.06a1.34,1.34,0,0,0,.93-.38L109,64.32a1.32,1.32,0,0,0-1.84-1.89l-6.52,6.37h0a1.34,1.34,0,0,0-.28,1.44,1.31,1.31,0,0,0,1.2.83Z"/><rect class="cls-2" width="141.2" height="141.2" rx="70.6"/></g></g></svg>