<svg xmlns="http://www.w3.org/2000/svg" viewBox="0 0 141.2 141.2"><defs><style>.cls-1{fill:none;}.cls-2{}</style></defs><g id="Calque_2" data-name="Calque 2"><g id="Layer_1" data-name="Layer 1"><rect class="cls-1" width="141.2" height="141.2" rx="70.6"/><path class="cls-2" d="M42.09,74.69a.48.48,0,0,1-.26-.07,16.12,16.12,0,0,0-17,0,.5.5,0,0,1-.57-.82,17.15,17.15,0,0,1,18.08,0,.5.5,0,0,1-.26.93Z"/><path class="cls-2" d="M59.61,74.69a.54.54,0,0,1-.26-.07,16.1,16.1,0,0,0-17,0,.5.5,0,0,1-.57-.82,17.15,17.15,0,0,1,18.08,0,.5.5,0,0,1,.16.69A.51.51,0,0,1,59.61,74.69Z"/><path class="cls-2" d="M77.14,74.69a.48.48,0,0,1-.26-.07,16.11,16.11,0,0,0-17,0,.5.5,0,1,1-.57-.82,17.13,17.13,0,0,1,18.07,0,.5.5,0,0,1-.26.93Z"/><path class="cls-2" d="M77.14,74.69a.51.51,0,0,1-.41-.21.5.5,0,0,1,.13-.7,17.07,17.07,0,0,1,9-2.63h0a.5.5,0,0,1,0,1,16.32,16.32,0,0,0-8.39,2.45A.52.52,0,0,1,77.14,74.69Z"/><path class="cls-2" d="M52.32,84.92a.48.48,0,0,1-.26-.07,16.13,16.13,0,0,0-17,0,.5.5,0,0,1-.7-.12.49.49,0,0,1,.13-.69,17.11,17.11,0,0,1,18.07,0,.5.5,0,0,1-.26.92Z"/><path class="cls-2" d="M69.85,84.92a.48.48,0,0,1-.26-.07,16.16,16.16,0,0,0-17,0A.5.5,0,1,1,52,84a17.13,17.13,0,0,1,18.08,0,.5.5,0,0,1-.26.92Z"/><path class="cls-2" d="M87.38,84.92a.48.48,0,0,1-.26-.07,16.13,16.13,0,0,0-17,0,.5.5,0,1,1-.58-.81,17.11,17.11,0,0,1,18.08,0,.5.5,0,0,1-.26.92Z"/><path class="cls-2" d="M87.38,84.92a.5.5,0,0,1-.29-.9,17,17,0,0,1,9.08-2.64h0a.5.5,0,0,1,.5.5.49.49,0,0,1-.49.5,16.43,16.43,0,0,0-8.52,2.45A.41.41,0,0,1,87.38,84.92Z"/><path class="cls-2" d="M62.55,95.16a.56.56,0,0,1-.26-.08,16.09,16.09,0,0,0-17,0,.5.5,0,0,1-.57-.82,17.15,17.15,0,0,1,18.08,0,.5.5,0,0,1,.16.69A.51.51,0,0,1,62.55,95.16Z"/><path class="cls-2" d="M80.08,95.16a.56.56,0,0,1-.26-.08,16.09,16.09,0,0,0-17,0,.5.5,0,0,1-.57-.82,17.14,17.14,0,0,1,18.07,0,.49.49,0,0,1,.17.69A.51.51,0,0,1,80.08,95.16Z"/><path class="cls-2" d="M97.61,95.16a.5.5,0,0,1-.26-.08,16.12,16.12,0,0,0-17,0,.5.5,0,1,1-.57-.82,17.14,17.14,0,0,1,18.07,0,.5.5,0,0,1,.17.69A.51.51,0,0,1,97.61,95.16Z"/><path class="cls-2" d="M97.61,95.16a.52.52,0,0,1-.41-.22.5.5,0,0,1,.13-.69,17,17,0,0,1,9.07-2.63h0a.5.5,0,0,1,0,1,16.26,16.26,0,0,0-8.51,2.45A.52.52,0,0,1,97.61,95.16Z"/><path class="cls-2" d="M72.79,105.39a.48.48,0,0,1-.26-.07,16.13,16.13,0,0,0-17,0,.5.5,0,0,1-.7-.12.51.51,0,0,1,.12-.7,17.14,17.14,0,0,1,18.08,0,.5.5,0,0,1-.26.92Z"/><path class="cls-2" d="M90.32,105.39a.48.48,0,0,1-.26-.07,16.13,16.13,0,0,0-17,0,.5.5,0,0,1-.7-.12.51.51,0,0,1,.12-.7,17.14,17.14,0,0,1,18.08,0,.5.5,0,0,1-.26.92Z"/><path class="cls-2" d="M107.85,105.39a.48.48,0,0,1-.26-.07,16.12,16.12,0,0,0-17,0,.5.5,0,0,1-.7-.12.51.51,0,0,1,.12-.7,17.14,17.14,0,0,1,18.08,0,.49.49,0,0,1,.16.68A.48.48,0,0,1,107.85,105.39Z"/><path class="cls-2" d="M107.85,105.39a.48.48,0,0,1-.41-.21.5.5,0,0,1,.12-.7,17,17,0,0,1,9.08-2.62h0a.49.49,0,0,1,.5.49.5.5,0,0,1-.5.51,16.35,16.35,0,0,0-8.51,2.44A.47.47,0,0,1,107.85,105.39Z"/><path class="cls-2" d="M41.53,71a.5.5,0,0,1-.5-.5.54.54,0,0,0-1.08,0,.5.5,0,0,1-1,0,1.54,1.54,0,1,1,3.08,0A.5.5,0,0,1,41.53,71Z"/><path class="cls-2" d="M45,68.82a.5.5,0,0,1-.5-.5,1.12,1.12,0,0,0-2.23,0,.5.5,0,0,1-.5.5.5.5,0,0,1-.5-.5,2.12,2.12,0,0,1,4.23,0A.5.5,0,0,1,45,68.82Z"/><path class="cls-2" d="M42.45,74a.51.51,0,0,1-.47-.67c.69-1.9-.61-4.81-.62-4.84a.49.49,0,0,1,.25-.66.49.49,0,0,1,.66.25,10.6,10.6,0,0,1,.9,4.16,7.32,7.32,0,0,0,1.37-4,.5.5,0,1,1,1,.09c-.43,4.54-2.8,5.59-2.9,5.63A.41.41,0,0,1,42.45,74Z"/><path class="cls-2" d="M42.29,74h-.1A3.77,3.77,0,0,1,39,70.52a.51.51,0,0,1,.49-.51h0a.5.5,0,0,1,.5.49,2.76,2.76,0,0,0,2.44,2.55.5.5,0,0,1-.1,1Z"/><path class="cls-2" d="M42.45,74a.48.48,0,0,1-.26-.07c-1.36-.83-1.19-3.23-1.16-3.5a.49.49,0,0,1,.54-.45.48.48,0,0,1,.45.54c0,.52,0,2.12.69,2.55a.5.5,0,0,1,.17.69A.5.5,0,0,1,42.45,74Z"/><path class="cls-2" d="M58.9,71a.5.5,0,0,1-.5-.5.55.55,0,0,0-.54-.54.54.54,0,0,0-.54.54.5.5,0,0,1-.5.5.5.5,0,0,1-.5-.5,1.54,1.54,0,1,1,3.08,0A.5.5,0,0,1,58.9,71Z"/><path class="cls-2" d="M62.41,68.82a.5.5,0,0,1-.5-.5,1.12,1.12,0,0,0-2.23,0,.5.5,0,0,1-.5.5.5.5,0,0,1-.5-.5,2.12,2.12,0,0,1,4.23,0A.5.5,0,0,1,62.41,68.82Z"/><path class="cls-2" d="M59.82,74a.52.52,0,0,1-.35-.14.49.49,0,0,1-.12-.53c.69-1.91-.61-4.81-.63-4.84a.5.5,0,0,1,.25-.66.5.5,0,0,1,.67.25,10.6,10.6,0,0,1,.9,4.16,7.4,7.4,0,0,0,1.37-4,.5.5,0,1,1,1,.09C62.48,72.91,60.11,74,60,74A.43.43,0,0,1,59.82,74Z"/><path class="cls-2" d="M59.66,74h-.1a3.77,3.77,0,0,1-3.24-3.51.51.51,0,0,1,.49-.51h0a.51.51,0,0,1,.5.49h0a2.76,2.76,0,0,0,2.44,2.55.5.5,0,0,1-.1,1Z"/><path class="cls-2" d="M59.82,74a.48.48,0,0,1-.26-.07c-1.37-.83-1.19-3.23-1.16-3.5a.49.49,0,0,1,.54-.45.49.49,0,0,1,.45.54c0,.52,0,2.12.69,2.55a.51.51,0,0,1,.17.69A.52.52,0,0,1,59.82,74Z"/><path class="cls-2" d="M88.5,41.75a.5.5,0,0,1-.35-.85.35.35,0,0,0,.1-.25.31.31,0,0,0-.1-.24.34.34,0,0,0-.25-.11h0a.35.35,0,0,0-.24.1.5.5,0,0,1-.71,0,.51.51,0,0,1,0-.71,1.31,1.31,0,0,1,1-.4h0a1.35,1.35,0,0,1,1,2.3A.51.51,0,0,1,88.5,41.75Z"/><path class="cls-2" d="M91.8,42.51a.5.5,0,0,1-.36-.14.5.5,0,0,1,0-.71.83.83,0,0,0,.24-.58.82.82,0,0,0-1.4-.58.5.5,0,0,1-.71,0,.5.5,0,0,1,0-.7,1.85,1.85,0,0,1,2.57,0,1.78,1.78,0,0,1,.54,1.28,1.8,1.8,0,0,1-.54,1.29A.47.47,0,0,1,91.8,42.51Z"/><path class="cls-2" d="M88.07,44.14a3,3,0,0,1-1-.14.51.51,0,0,1-.31-.45.49.49,0,0,1,.29-.47c1.21-.57,2.13-2.44,2.39-3.11a.5.5,0,0,1,.64-.29.5.5,0,0,1,.29.65,9.14,9.14,0,0,1-1.7,2.76,6.4,6.4,0,0,0,2.78-1.46.49.49,0,0,1,.7.06.51.51,0,0,1-.06.71A6.46,6.46,0,0,1,88.07,44.14Z"/><path class="cls-2" d="M87.2,43.94a.52.52,0,0,1-.42-.22,3.18,3.18,0,0,1,.17-4,.5.5,0,1,1,.72.7,2.16,2.16,0,0,0-.06,2.76.5.5,0,0,1-.14.7A.53.53,0,0,1,87.2,43.94Z"/><path class="cls-2" d="M87.29,44a.5.5,0,0,1-.49-.38C86.48,42.33,88,41,88.19,40.87a.5.5,0,0,1,.64.76c-.41.34-1.19,1.22-1,1.78a.51.51,0,0,1-.37.61Z"/><path class="cls-2" d="M76.26,71a.5.5,0,0,1-.5-.5.54.54,0,1,0-1.07,0,.5.5,0,0,1-.5.5.5.5,0,0,1-.5-.5,1.54,1.54,0,1,1,3.07,0A.5.5,0,0,1,76.26,71Z"/><path class="cls-2" d="M79.78,68.82a.5.5,0,0,1-.5-.5,1.12,1.12,0,0,0-2.23,0,.5.5,0,0,1-1,0,2.12,2.12,0,0,1,4.23,0A.5.5,0,0,1,79.78,68.82Z"/><path class="cls-2" d="M77.19,74a.52.52,0,0,1-.35-.14.49.49,0,0,1-.12-.53c.68-1.9-.61-4.81-.63-4.84a.5.5,0,0,1,.25-.66.48.48,0,0,1,.66.25,10.72,10.72,0,0,1,.91,4.16,7.4,7.4,0,0,0,1.37-4,.52.52,0,0,1,.55-.46.51.51,0,0,1,.45.55c-.43,4.54-2.8,5.59-2.9,5.63A.43.43,0,0,1,77.19,74Z"/><path class="cls-2" d="M77,74h-.1a3.77,3.77,0,0,1-3.24-3.51.51.51,0,0,1,.49-.51h0a.51.51,0,0,1,.5.49,2.76,2.76,0,0,0,2.44,2.55.5.5,0,0,1-.1,1Z"/><path class="cls-2" d="M77.19,74a.48.48,0,0,1-.26-.07c-1.37-.83-1.19-3.23-1.16-3.5a.5.5,0,1,1,1,.09c-.05.52,0,2.12.69,2.55a.51.51,0,0,1,.17.69A.52.52,0,0,1,77.19,74Z"/><path class="cls-2" d="M51.76,81.67a.5.5,0,0,1-.5-.5.54.54,0,0,0-.54-.53.54.54,0,0,0-.54.53.5.5,0,0,1-.5.5.5.5,0,0,1-.5-.5,1.54,1.54,0,0,1,3.08,0A.5.5,0,0,1,51.76,81.67Z"/><path class="cls-2" d="M55.28,79.48a.5.5,0,0,1-.5-.5,1.12,1.12,0,0,0-2.23,0,.5.5,0,0,1-.5.5.5.5,0,0,1-.5-.5,2.12,2.12,0,0,1,4.23,0A.5.5,0,0,1,55.28,79.48Z"/><path class="cls-2" d="M52.68,84.7a.49.49,0,0,1-.34-.14.52.52,0,0,1-.13-.53c.69-1.9-.6-4.81-.62-4.84a.5.5,0,0,1,.25-.66.49.49,0,0,1,.66.25,10.72,10.72,0,0,1,.91,4.16,7.41,7.41,0,0,0,1.37-4,.52.52,0,0,1,.54-.45.5.5,0,0,1,.45.55c-.43,4.54-2.79,5.59-2.89,5.63A.45.45,0,0,1,52.68,84.7Z"/><path class="cls-2" d="M52.53,84.7h-.1a3.79,3.79,0,0,1-3.25-3.51.5.5,0,0,1,.5-.51h0a.49.49,0,0,1,.5.49,2.79,2.79,0,0,0,2.44,2.55.49.49,0,0,1,.39.59A.48.48,0,0,1,52.53,84.7Z"/><path class="cls-2" d="M52.68,84.7a.54.54,0,0,1-.26-.07c-1.36-.83-1.18-3.23-1.16-3.5a.52.52,0,0,1,.55-.46.51.51,0,0,1,.45.55c0,.52,0,2.12.68,2.55a.51.51,0,0,1,.17.69A.49.49,0,0,1,52.68,84.7Z"/><path class="cls-2" d="M69.13,81.67a.5.5,0,0,1-.5-.5.54.54,0,0,0-1.08,0,.5.5,0,0,1-.5.5.5.5,0,0,1-.5-.5,1.54,1.54,0,0,1,3.08,0A.5.5,0,0,1,69.13,81.67Z"/><path class="cls-2" d="M72.64,79.48a.5.5,0,0,1-.5-.5,1.11,1.11,0,0,0-2.22,0,.5.5,0,0,1-.5.5.5.5,0,0,1-.5-.5,2.11,2.11,0,0,1,4.22,0A.5.5,0,0,1,72.64,79.48Z"/><path class="cls-2" d="M70.05,84.7a.49.49,0,0,1-.34-.14.52.52,0,0,1-.13-.53c.69-1.9-.61-4.81-.62-4.84a.5.5,0,0,1,.25-.66.49.49,0,0,1,.66.25,10.66,10.66,0,0,1,.91,4.16,7.41,7.41,0,0,0,1.37-4,.52.52,0,0,1,.54-.45.5.5,0,0,1,.45.55c-.43,4.54-2.79,5.59-2.89,5.63A.45.45,0,0,1,70.05,84.7Z"/><path class="cls-2" d="M69.89,84.7H69.8a3.79,3.79,0,0,1-3.25-3.51.5.5,0,0,1,.5-.51h0a.49.49,0,0,1,.5.49A2.79,2.79,0,0,0,70,83.71a.49.49,0,0,1,.39.59A.49.49,0,0,1,69.89,84.7Z"/><path class="cls-2" d="M70.05,84.7a.48.48,0,0,1-.26-.07c-1.36-.83-1.18-3.23-1.16-3.5a.5.5,0,1,1,1,.09c0,.52,0,2.12.68,2.55a.5.5,0,0,1,.17.69A.49.49,0,0,1,70.05,84.7Z"/><path class="cls-2" d="M86.5,81.67a.5.5,0,0,1-.5-.5.54.54,0,0,0-1.08,0,.5.5,0,0,1-.5.5.5.5,0,0,1-.5-.5,1.54,1.54,0,0,1,3.08,0A.5.5,0,0,1,86.5,81.67Z"/><path class="cls-2" d="M90,79.48a.5.5,0,0,1-.5-.5,1.12,1.12,0,0,0-2.23,0,.5.5,0,0,1-.5.5.5.5,0,0,1-.5-.5,2.12,2.12,0,0,1,4.23,0A.5.5,0,0,1,90,79.48Z"/><path class="cls-2" d="M87.42,84.7A.51.51,0,0,1,87,84c.69-1.9-.61-4.81-.62-4.84a.49.49,0,0,1,.25-.66.49.49,0,0,1,.66.25,10.72,10.72,0,0,1,.91,4.16,7.42,7.42,0,0,0,1.36-4,.53.53,0,0,1,.55-.45.5.5,0,0,1,.45.55c-.43,4.54-2.8,5.59-2.9,5.63A.41.41,0,0,1,87.42,84.7Z"/><path class="cls-2" d="M87.26,84.7h-.1a3.78,3.78,0,0,1-3.24-3.51.5.5,0,0,1,.5-.51h0a.49.49,0,0,1,.5.49,2.79,2.79,0,0,0,2.44,2.55.49.49,0,0,1,.39.59A.49.49,0,0,1,87.26,84.7Z"/><path class="cls-2" d="M87.42,84.7a.48.48,0,0,1-.26-.07C85.8,83.8,86,81.4,86,81.13a.5.5,0,1,1,1,.09c0,.52,0,2.12.68,2.55a.51.51,0,0,1,.17.69A.5.5,0,0,1,87.42,84.7Z"/><path class="cls-2" d="M62,91.81a.5.5,0,0,1-.5-.5.55.55,0,0,0-.54-.54.54.54,0,0,0-.54.54.5.5,0,0,1-1,0,1.54,1.54,0,1,1,3.08,0A.5.5,0,0,1,62,91.81Z"/><path class="cls-2" d="M65.51,89.62a.5.5,0,0,1-.5-.5,1.12,1.12,0,0,0-2.23,0,.5.5,0,0,1-.5.5.5.5,0,0,1-.5-.5,2.12,2.12,0,0,1,4.23,0A.5.5,0,0,1,65.51,89.62Z"/><path class="cls-2" d="M62.92,94.84a.52.52,0,0,1-.35-.14.49.49,0,0,1-.12-.53c.69-1.91-.61-4.81-.62-4.84a.48.48,0,0,1,.25-.66.49.49,0,0,1,.66.24,10.67,10.67,0,0,1,.9,4.17,7.33,7.33,0,0,0,1.37-4,.5.5,0,1,1,1,.1c-.43,4.54-2.8,5.59-2.9,5.63A.43.43,0,0,1,62.92,94.84Z"/><path class="cls-2" d="M62.76,94.84h-.1a3.77,3.77,0,0,1-3.24-3.51.5.5,0,0,1,.49-.51h0a.51.51,0,0,1,.5.49h0a2.76,2.76,0,0,0,2.44,2.55.5.5,0,0,1-.1,1Z"/><path class="cls-2" d="M62.92,94.84a.48.48,0,0,1-.26-.07c-1.37-.83-1.19-3.23-1.16-3.5a.51.51,0,0,1,.54-.46.5.5,0,0,1,.45.55c0,.52,0,2.12.69,2.55a.5.5,0,0,1,.17.69A.52.52,0,0,1,62.92,94.84Z"/><path class="cls-2" d="M79.36,91.81a.5.5,0,0,1-.5-.5.54.54,0,1,0-1.07,0,.5.5,0,0,1-1,0,1.54,1.54,0,1,1,3.07,0A.5.5,0,0,1,79.36,91.81Z"/><path class="cls-2" d="M82.88,89.62a.5.5,0,0,1-.5-.5,1.12,1.12,0,0,0-2.23,0,.5.5,0,0,1-1,0,2.12,2.12,0,0,1,4.23,0A.5.5,0,0,1,82.88,89.62Z"/><path class="cls-2" d="M80.29,94.84a.52.52,0,0,1-.35-.14.49.49,0,0,1-.12-.53c.68-1.9-.61-4.81-.63-4.84a.51.51,0,0,1,.92-.42,11.06,11.06,0,0,1,.9,4.16,7.34,7.34,0,0,0,1.37-4,.52.52,0,0,1,.55-.45.51.51,0,0,1,.45.55c-.43,4.54-2.8,5.59-2.9,5.63A.43.43,0,0,1,80.29,94.84Z"/><path class="cls-2" d="M80.13,94.84H80a3.77,3.77,0,0,1-3.24-3.51.5.5,0,0,1,.49-.51h0a.5.5,0,0,1,.5.49,2.76,2.76,0,0,0,2.44,2.55.5.5,0,0,1-.1,1Z"/><path class="cls-2" d="M80.29,94.84a.48.48,0,0,1-.26-.07c-1.37-.83-1.19-3.23-1.16-3.5a.5.5,0,1,1,1,.09c0,.52,0,2.12.69,2.55a.51.51,0,0,1,.17.69A.52.52,0,0,1,80.29,94.84Z"/><path class="cls-2" d="M96.73,91.81a.5.5,0,0,1-.5-.5.54.54,0,1,0-1.07,0,.5.5,0,0,1-.5.5.5.5,0,0,1-.5-.5,1.54,1.54,0,1,1,3.07,0A.5.5,0,0,1,96.73,91.81Z"/><path class="cls-2" d="M100.25,89.62a.5.5,0,0,1-.5-.5,1.12,1.12,0,0,0-2.23,0,.5.5,0,0,1-1,0,2.12,2.12,0,0,1,4.23,0A.5.5,0,0,1,100.25,89.62Z"/><path class="cls-2" d="M97.66,94.84a.52.52,0,0,1-.35-.14.49.49,0,0,1-.12-.53c.68-1.91-.61-4.81-.63-4.84a.5.5,0,0,1,.25-.66.49.49,0,0,1,.66.24,10.79,10.79,0,0,1,.91,4.17,7.41,7.41,0,0,0,1.37-4,.52.52,0,0,1,.54-.45.51.51,0,0,1,.46.55c-.43,4.54-2.8,5.59-2.9,5.63A.43.43,0,0,1,97.66,94.84Z"/><path class="cls-2" d="M97.5,94.84h-.1a3.77,3.77,0,0,1-3.24-3.51.5.5,0,0,1,.49-.51.52.52,0,0,1,.51.49,2.76,2.76,0,0,0,2.44,2.55.5.5,0,0,1-.1,1Z"/><path class="cls-2" d="M97.66,94.84a.48.48,0,0,1-.26-.07c-1.37-.83-1.19-3.23-1.16-3.5a.51.51,0,0,1,.54-.46.5.5,0,0,1,.45.55c0,.52,0,2.12.69,2.55a.5.5,0,0,1,.16.69A.49.49,0,0,1,97.66,94.84Z"/><path class="cls-2" d="M72,101.69a.5.5,0,0,1-.5-.5.54.54,0,1,0-1.08,0,.5.5,0,0,1-.5.5.5.5,0,0,1-.5-.5,1.54,1.54,0,0,1,3.08,0A.5.5,0,0,1,72,101.69Z"/><path class="cls-2" d="M75.49,99.5A.5.5,0,0,1,75,99a1.12,1.12,0,0,0-2.23,0,.51.51,0,0,1-.5.5.5.5,0,0,1-.5-.5A2.12,2.12,0,0,1,76,99,.5.5,0,0,1,75.49,99.5Z"/><path class="cls-2" d="M72.89,104.72a.49.49,0,0,1-.34-.14.48.48,0,0,1-.13-.53c.69-1.9-.61-4.82-.62-4.85a.5.5,0,1,1,.91-.41,10.78,10.78,0,0,1,.91,4.16A7.42,7.42,0,0,0,75,99a.52.52,0,0,1,.54-.45.5.5,0,0,1,.45.55c-.43,4.54-2.79,5.59-2.89,5.63A.48.48,0,0,1,72.89,104.72Z"/><path class="cls-2" d="M72.73,104.72h-.1a3.78,3.78,0,0,1-3.24-3.51.5.5,0,0,1,1,0h0a2.79,2.79,0,0,0,2.44,2.55.49.49,0,0,1,.39.59A.5.5,0,0,1,72.73,104.72Z"/><path class="cls-2" d="M72.89,104.72a.48.48,0,0,1-.26-.07c-1.36-.83-1.18-3.23-1.16-3.51a.5.5,0,0,1,1,.1c0,.52,0,2.12.68,2.55a.5.5,0,0,1-.26.93Z"/><path class="cls-2" d="M89.34,101.69a.5.5,0,0,1-.5-.5.54.54,0,1,0-1.08,0,.5.5,0,0,1-.5.5.5.5,0,0,1-.5-.5,1.54,1.54,0,0,1,3.08,0A.5.5,0,0,1,89.34,101.69Z"/><path class="cls-2" d="M92.85,99.5a.51.51,0,0,1-.5-.5,1.12,1.12,0,0,0-2.23,0,.5.5,0,0,1-.5.5.51.51,0,0,1-.5-.5,2.12,2.12,0,0,1,4.23,0A.5.5,0,0,1,92.85,99.5Z"/><path class="cls-2" d="M90.26,104.72a.48.48,0,0,1-.34-.14.49.49,0,0,1-.13-.53c.69-1.9-.61-4.82-.62-4.85a.5.5,0,0,1,.25-.66.5.5,0,0,1,.66.25A10.78,10.78,0,0,1,91,103a7.45,7.45,0,0,0,1.37-4,.52.52,0,0,1,.54-.45.5.5,0,0,1,.45.55c-.43,4.54-2.8,5.59-2.9,5.63A.41.41,0,0,1,90.26,104.72Z"/><path class="cls-2" d="M90.1,104.72H90a3.78,3.78,0,0,1-3.24-3.51.5.5,0,0,1,.5-.51h0a.49.49,0,0,1,.5.49,2.79,2.79,0,0,0,2.44,2.55.5.5,0,0,1-.1,1Z"/><path class="cls-2" d="M90.26,104.72a.48.48,0,0,1-.26-.07c-1.36-.83-1.18-3.23-1.16-3.51a.5.5,0,0,1,1,.1c0,.52,0,2.12.68,2.55a.5.5,0,0,1,.17.69A.52.52,0,0,1,90.26,104.72Z"/><path class="cls-2" d="M106.71,101.69a.5.5,0,0,1-.5-.5.54.54,0,0,0-1.08,0,.5.5,0,0,1-.5.5.5.5,0,0,1-.5-.5,1.54,1.54,0,0,1,3.08,0A.5.5,0,0,1,106.71,101.69Z"/><path class="cls-2" d="M110.22,99.5a.51.51,0,0,1-.5-.5,1.12,1.12,0,0,0-2.23,0,.5.5,0,0,1-.5.5.51.51,0,0,1-.5-.5,2.12,2.12,0,0,1,4.23,0A.5.5,0,0,1,110.22,99.5Z"/><path class="cls-2" d="M107.63,104.72a.48.48,0,0,1-.34-.14.48.48,0,0,1-.13-.53c.69-1.9-.61-4.82-.62-4.85a.5.5,0,0,1,.25-.66.51.51,0,0,1,.66.25,10.65,10.65,0,0,1,.9,4.16,7.25,7.25,0,0,0,1.37-4,.53.53,0,0,1,.55-.45.51.51,0,0,1,.45.55c-.43,4.54-2.8,5.59-2.9,5.63A.41.41,0,0,1,107.63,104.72Z"/><path class="cls-2" d="M107.47,104.72h-.1a3.77,3.77,0,0,1-3.24-3.51.5.5,0,0,1,.49-.51.48.48,0,0,1,.51.49,2.76,2.76,0,0,0,2.44,2.55.5.5,0,0,1,.39.59A.5.5,0,0,1,107.47,104.72Z"/><path class="cls-2" d="M107.63,104.72a.48.48,0,0,1-.26-.07c-1.36-.83-1.19-3.23-1.16-3.51a.51.51,0,0,1,.54-.45.5.5,0,0,1,.45.55c0,.52,0,2.12.69,2.55a.5.5,0,0,1,.17.69A.52.52,0,0,1,107.63,104.72Z"/><path class="cls-2" d="M85.81,72.15a.5.5,0,0,1-.5-.5V53.77a.5.5,0,0,1,.5-.5.5.5,0,0,1,.5.5V71.65A.5.5,0,0,1,85.81,72.15Z"/><path class="cls-2" d="M94.12,53.36H77.57a.5.5,0,0,1-.5-.5V36.31a.5.5,0,0,1,.5-.5H94.12a.5.5,0,0,1,.5.5V52.85A.51.51,0,0,1,94.12,53.36Zm-16.05-1H93.62V36.81H78.07Z"/><path class="cls-2" d="M81.05,51.12a1.31,1.31,0,0,1-1-.4,1.34,1.34,0,0,1-.31-1.42.36.36,0,0,1,0-.09l.2-.31,4.32-5.67a2.31,2.31,0,0,1,3.29,0,2.25,2.25,0,0,1,.68,1.62,2.28,2.28,0,0,1-.68,1.63L81.71,51A1.53,1.53,0,0,1,81.05,51.12Zm-.34-1.43a.35.35,0,0,0,.1.33.34.34,0,0,0,.39.06L87,45.68a1.34,1.34,0,0,0,.33-.88,1.3,1.3,0,0,0-.38-.91,1.32,1.32,0,0,0-1.84,0Z"/><path class="cls-2" d="M84.78,45.8a.54.54,0,0,1-.35-.14l-.79-.79a.5.5,0,0,1,.71-.71l.79.79a.51.51,0,0,1,0,.71A.54.54,0,0,1,84.78,45.8Z"/><path class="cls-2" d="M84.25,48.88a.49.49,0,0,1-.35-.14L83,47.83a.5.5,0,1,1,.71-.71l.91.91a.51.51,0,0,1,0,.71A.5.5,0,0,1,84.25,48.88Z"/></g></g></svg>