<svg xmlns="http://www.w3.org/2000/svg" viewBox="0 0 141.2 141.2"><defs><style>.cls-1{fill:none;}.cls-2{}</style></defs><g id="Calque_2" data-name="Calque 2"><g id="Layer_1" data-name="Layer 1"><rect class="cls-1" width="141.2" height="141.2" rx="70.6"/><path class="cls-2" d="M99.79,37.3v15a7.27,7.27,0,0,1-4.91,6.86V75.7h6.2V87.93h-6.2v12.43h5.48v3.54H40.84v-3.54h5.48V87.93h-6.2V75.7h6.2V59.17a7.27,7.27,0,0,1-4.91-6.86v-15Zm-37,25a2.8,2.8,0,0,1,2.77,2.43,3.24,3.24,0,0,0-2.77,2.86A3.22,3.22,0,0,0,60,64.72,2.8,2.8,0,0,1,62.76,62.29Zm0,7.25A2.8,2.8,0,1,1,60,72.33,2.79,2.79,0,0,1,62.76,69.54Zm4.9-.13A2.8,2.8,0,1,1,65.53,74a3.26,3.26,0,0,0-.09-3.5,2.78,2.78,0,0,1,2.22-1.1Zm-7.57,1.1A3.24,3.24,0,0,0,60,74a2.82,2.82,0,0,1-2.14,1,2.8,2.8,0,1,1,2.23-4.49ZM66,65.13a2.79,2.79,0,0,1,2.54,4,3.26,3.26,0,0,0-3.37,1.08,3.21,3.21,0,0,0-1.66-1A2.79,2.79,0,0,1,66,65.13Zm-6.43,0A2.79,2.79,0,0,1,62,69.18a3.2,3.2,0,0,0-1.67,1A3.25,3.25,0,0,0,57,69.08a2.66,2.66,0,0,1-.26-1.16,2.79,2.79,0,0,1,2.8-2.79Zm18.89-2.84a2.79,2.79,0,0,1,2.76,2.43,3.22,3.22,0,0,0-2.76,2.86,3.24,3.24,0,0,0-2.77-2.86A2.8,2.8,0,0,1,78.44,62.29Zm0,7.25a2.8,2.8,0,1,1-2.8,2.79A2.79,2.79,0,0,1,78.44,69.54Zm4.89-.13A2.8,2.8,0,1,1,81.2,74a3.24,3.24,0,0,0-.09-3.5A2.79,2.79,0,0,1,83.33,69.41Zm-7.57,1.1a3.26,3.26,0,0,0-.09,3.5,2.79,2.79,0,1,1,.09-3.5Zm5.89-5.38a2.78,2.78,0,0,1,2.54,4,3.24,3.24,0,0,0-3.36,1.08,3.24,3.24,0,0,0-1.67-1,2.79,2.79,0,0,1,2.49-4.05Zm-6.43,0a2.79,2.79,0,0,1,2.49,4.05,3.28,3.28,0,0,0-1.67,1,3.25,3.25,0,0,0-3.36-1.08,2.79,2.79,0,0,1,2.54-4ZM44.94,47.24h7.44v-6.4H44.94Zm11,0h7.44v-6.4H55.91Zm11,0h7.44v-6.4H66.88Zm11,0h7.44v-6.4H77.85Zm11,0h7.44v-6.4H88.82v6.4Zm7.44,3.54H88.82v1.53c0,4.88,7.44,4.88,7.44,0V50.78Zm-11,0H77.85v1.53c0,4.88,7.44,4.88,7.44,0V50.78Zm-11,0H66.88v1.53c0,4.88,7.44,4.88,7.44,0V50.78Zm-11,0H55.91v1.53c0,4.88,7.44,4.88,7.44,0V50.78Zm-11,0H44.94v1.53a3.72,3.72,0,0,0,7.44,0V50.78Zm39,49.58V87.93H49.85v12.43Zm0-24.66V59.46A7.25,7.25,0,0,1,87.06,57a7.26,7.26,0,0,1-11,0,7.24,7.24,0,0,1-11,0,7.26,7.26,0,0,1-11,0,7.24,7.24,0,0,1-4.29,2.42V75.7Zm6.2,3.54H43.66V84.4H97.54Z"/></g></g></svg>