<svg xmlns="http://www.w3.org/2000/svg" viewBox="0 0 141.2 141.2"><defs><style>.cls-1{fill:none;}.cls-2{}</style></defs><g id="Calque_2" data-name="Calque 2"><g id="Layer_1" data-name="Layer 1"><rect class="cls-1" width="141.2" height="141.2" rx="70.6"/><path class="cls-2" d="M117.62,60.89a52.09,52.09,0,0,0-9.57-3.16V43.36a1.71,1.71,0,0,0-1.71-1.7h-1.7V38.53A6.81,6.81,0,0,0,100,32.07l-1.62-.54a1.71,1.71,0,0,0-1.07,3.24l1.61.54a3.4,3.4,0,0,1,2.33,3.22v3.13h-1.7a1.71,1.71,0,0,0-1.71,1.7V56.52l-.85,0a52.92,52.92,0,0,0-5.9.35l-5.36.63a1.71,1.71,0,0,0-1.46,1.92,1.69,1.69,0,0,0,1.86,1.46l5.36-.63a48,48,0,0,1,5.5-.32A47.14,47.14,0,0,1,116.24,64a3.36,3.36,0,0,1,1.58,1.49h-6.75A5.11,5.11,0,0,0,106,70.59a5.17,5.17,0,0,0,.26,1.61l1.14,3.41a5.12,5.12,0,0,0,4.84,3.5h6a24.22,24.22,0,0,1-.51,4.07l-2.2,9.9a1.69,1.69,0,0,1-1.66,1.34h-2.38a15.23,15.23,0,0,0-2.5-8.36,1.7,1.7,0,1,0-2.84,1.86,11.94,11.94,0,1,1-4.41-4,1.7,1.7,0,0,0,1.6-3A15.32,15.32,0,0,0,80.81,94.42h-7.3a26.13,26.13,0,0,0,.49-5,1.71,1.71,0,0,0-1.7-1.71h0a1.71,1.71,0,0,0-1.7,1.71,23.6,23.6,0,0,1-2.41,10.3l-3-1.7a20.41,20.41,0,1,0-38.8-10.41H23a23.83,23.83,0,0,1,46.77-4.5,1.7,1.7,0,0,0,3.29-.88,25.23,25.23,0,0,0-.8-2.46l7.39-2.46a1.72,1.72,0,0,0,1.16-1.62V44a8.48,8.48,0,0,0-7.11-8.39l-6.84-1.14a98.56,98.56,0,0,0-16.17-1.34H47A10.41,10.41,0,0,0,36.56,43.57a1.7,1.7,0,0,0,3.4,0,7,7,0,0,1,7-7h3.71a94.92,94.92,0,0,1,15.6,1.3L73.14,39a5.06,5.06,0,0,1,4.21,4.37H48.47a1.7,1.7,0,0,0-1.7,1.7v17A27,27,0,0,0,40,63V50.17a1.7,1.7,0,0,0-3.4,0V63.79H22.94a1.7,1.7,0,0,0-1.7,1.7,2.64,2.64,0,0,0,0,.28L23,76a.32.32,0,0,0,0,.09,27.09,27.09,0,0,0-3.46,13.25,1.7,1.7,0,0,0,1.7,1.7h5.19A20.4,20.4,0,0,0,63.54,101L68,103.54a1.7,1.7,0,0,0,2.32-.62,26.39,26.39,0,0,0,2.28-5.09h8.59a15.31,15.31,0,0,0,29.85,0h2.77a5.09,5.09,0,0,0,5-4l2.2-9.9a27.39,27.39,0,0,0,.65-5.92V67.11A6.8,6.8,0,0,0,117.62,60.89ZM101.24,45.06h3.4v12c-1.13-.17-2.26-.3-3.4-.39ZM57,64.1V60.45l1.08.39a30.89,30.89,0,0,1,16,14.74l-3.25,1.08A27.23,27.23,0,0,0,57,64.1Zm0-17.33H77.41V59.68l-5.25-5.25,1.35-1.35a1.7,1.7,0,0,0-2.41-2.41L66,55.78a1.7,1.7,0,1,0,2.37,2.44l0,0,1.35-1.35,7.66,7.66v10l0,0a34.26,34.26,0,0,0-18-16.81c-.72-.29-1.48-.56-2.34-.82Zm-6.8,0h3.4V63a28.23,28.23,0,0,0-3.4-.63ZM25,67.19h6A27.09,27.09,0,0,0,25.76,72Zm31.73,35.94a1.68,1.68,0,0,0-2.91,1.68,16.62,16.62,0,0,1-5.31,1.44,1.69,1.69,0,0,0-3.37,0,16.68,16.68,0,0,1-5.32-1.44,1.68,1.68,0,0,0-2.91-1.68,17.18,17.18,0,0,1-3.9-3.9,1.68,1.68,0,0,0-1.68-2.91A16.68,16.68,0,0,1,29.84,91a1.69,1.69,0,0,0,0-3.37,16.94,16.94,0,0,1,1.43-5.31A1.68,1.68,0,0,0,33,79.41a17.14,17.14,0,0,1,3.89-3.9,1.69,1.69,0,0,0,2.92-1.69,16.94,16.94,0,0,1,5.32-1.44,1.69,1.69,0,0,0,3.37,0,16.88,16.88,0,0,1,5.31,1.44,1.69,1.69,0,0,0,2.92,1.69,17.14,17.14,0,0,1,3.89,3.9,1.68,1.68,0,0,0,1.69,2.91,17,17,0,0,1,1.44,5.31,1.69,1.69,0,0,0,0,3.37,17.21,17.21,0,0,1-1.44,5.32,1.69,1.69,0,0,0-2.27.73,1.67,1.67,0,0,0,.58,2.18A17.18,17.18,0,0,1,56.68,103.13Zm53.91-28.6-1.14-3.4A1.7,1.7,0,0,1,110.54,69a1.6,1.6,0,0,1,.53-.09h7.19V75.7H112.2a1.7,1.7,0,0,1-1.61-1.16Z"/><path class="cls-2" d="M46.77,77.4a11.85,11.85,0,0,0-5.13,1.17,1.7,1.7,0,1,0,1.28,3.16l.19-.09a8.41,8.41,0,0,1,3.66-.83,8.51,8.51,0,1,1-8.51,8.51,8.42,8.42,0,0,1,.84-3.66,1.71,1.71,0,1,0-3-1.66l-.09.19A11.91,11.91,0,1,0,46.77,77.4Z"/><path class="cls-2" d="M51.88,89.32a5.11,5.11,0,1,0-5.11,5.1A5.11,5.11,0,0,0,51.88,89.32Zm-6.81,0a1.7,1.7,0,1,1,1.7,1.7A1.7,1.7,0,0,1,45.07,89.32Z"/><path class="cls-2" d="M96.13,85.91a8.51,8.51,0,1,0,8.51,8.51A8.51,8.51,0,0,0,96.13,85.91Zm0,13.62a5.11,5.11,0,1,1,5.11-5.11A5.11,5.11,0,0,1,96.13,99.53Z"/><path class="cls-2" d="M89.32,68.89h8.51a1.7,1.7,0,1,0,0-3.4H89.32a1.7,1.7,0,1,0,0,3.4Z"/><path class="cls-2" d="M89.32,75.7h8.51a1.7,1.7,0,1,0,0-3.4H89.32a1.7,1.7,0,1,0,0,3.4Z"/><circle class="cls-2" cx="96.13" cy="94.42" r="1.7"/></g></g></svg>