<svg xmlns="http://www.w3.org/2000/svg" viewBox="0 0 141.2 141.2"><defs><style>.cls-1{}.cls-2{fill:none;}</style></defs><g id="Calque_2" data-name="Calque 2"><g id="Layer_1" data-name="Layer 1"><path class="cls-1" d="M114.36,77.68c-2-3.07-4.76-8.09-4.67-9.65v-.34l-.19-.28h0a3,3,0,0,1-.59-1.79c0-.05,0-.14.21-.22l1.41-.71-1.24-1s-4-3.17-2.53-5.75l.23-.41-.16-.43h0a3.26,3.26,0,0,1-.08-2.2,1,1,0,0,1,.76-.43l1-.16-.2-1s-.73-3.92,1.61-5.43l1.73-1.12-2-.67C106,44.81,99.79,41.85,99,39.3h0a1.55,1.55,0,0,1,.25-1.48l1.17-1.61H98.43c-.06,0-6.64.06-7.35-3.74l-.33-1.77-1.33,1.22c-.57.53-2,1.55-2.88,1.34-.12,0-.48-.12-.78-.94l-.21-.62H84.9a10.39,10.39,0,0,0-7.16,2.57,10.62,10.62,0,0,0-3.19,6.64l-2.14-2.16,1,.16.35-.29c2.52-2.08,2.1-4.27,1.52-5.15l-.17-.25-.27-.12h0a39,39,0,0,0-15.42-2.83,66,66,0,0,0-18.57,2.8l-.4.15-.19.37h0A3.62,3.62,0,0,0,40,37.15a3.66,3.66,0,0,0,2.83,1.56H43l11.25-2v4.5c0,3.18-1.24,4.18-1.55,4.38C47,46.14,30,49.47,25.52,69.72a33.73,33.73,0,0,0,6.22,28.67c5.85,7.45,14.77,12.38,22.73,12.55h.82c9.18,0,17.69-3.24,23.46-9s8.94-13.79,9.35-24l6.39,5.36-2-4.18a10.86,10.86,0,0,1-1-3c.71.22,1.55.53,2.42.85h0a36,36,0,0,0,7.47,2.14l1,.12.15-1c0-.31.26-.94.57-1s1.23.24,2.56,1.59l.81.83.7-.92s1.68-2.12,5.89.27l3.57,2Zm-40.57-35a5.89,5.89,0,0,0-2.28,2.15,6,6,0,0,0-.85,3,28,28,0,0,0-7.79-2.06l-1.65-.23c-.44-.06-.94-1.94-.89-3.94l.24-4.75,8.59,1.38c1.53,1.49,3.08,3,4.63,4.43Zm-19.2,3.92a7.71,7.71,0,0,0,1.66-5.35V35.83a1.86,1.86,0,0,1,1.18-.72,1.84,1.84,0,0,1,1.24.85l-.28,5.53c0,.68,0,3.32,1,4.87v.43h0a3.66,3.66,0,0,1-2.13.74,4.54,4.54,0,0,1-2.67-1ZM42.9,36.69a1.6,1.6,0,0,1-1.11-.56,1.58,1.58,0,0,1,.13-1.29,66,66,0,0,1,17.51-2.57,37.28,37.28,0,0,1,14.24,2.51c.09.35.09,1.08-.87,2l-12.6-2a3.5,3.5,0,0,0-2.84-1.62,3.67,3.67,0,0,0-2.67,1.48Zm34.51,63.89c-5.59,5.55-14,8.55-22.87,8.36-7.39-.15-15.71-4.8-21.2-11.8a31.77,31.77,0,0,1-5.88-27c3.2-14.4,12.88-19.65,19.73-21.57l-.91.75h0a29.58,29.58,0,0,0-4.23,4.58,31.25,31.25,0,0,0-5.26,11.17,40.07,40.07,0,0,0-1,12.2,58.67,58.67,0,0,0,2.13,12,59,59,0,0,1-1.63-12,39.31,39.31,0,0,1,1.47-11.92,30,30,0,0,1,5.47-10.51,28.33,28.33,0,0,1,4.21-4.2,23.18,23.18,0,0,1,4.86-3.07h.35a11.45,11.45,0,0,0,1.32,1l-.34.44a12.56,12.56,0,0,0-1,1.62A27.06,27.06,0,0,0,51,54.05a41.46,41.46,0,0,0-2.17,7.12,65.4,65.4,0,0,0-1.3,14.64A118.88,118.88,0,0,0,52,104.65a118.71,118.71,0,0,1-3.47-28.83,63.91,63.91,0,0,1,1.77-14.31,40.38,40.38,0,0,1,2.3-6.75,29.79,29.79,0,0,1,1.65-3.11,12.4,12.4,0,0,1,1-1.42c.17-.22.35-.44.53-.64l.14-.15h0a6.09,6.09,0,0,0,1.35.18,5.16,5.16,0,0,0,1.17-.23c.18.23.36.48.52.72.29.44.56.89.82,1.36a31.2,31.2,0,0,1,1.41,2.91,52.43,52.43,0,0,1,2.19,6.2,102.8,102.8,0,0,1,2.82,13,212.05,212.05,0,0,1,2.23,26.51,212.32,212.32,0,0,0-1.26-26.68,105.22,105.22,0,0,0-2.39-13.2,56.86,56.86,0,0,0-2-6.47,30.59,30.59,0,0,0-1.35-3.12c-.26-.52-.53-1-.84-1.53l-.3-.47h0q.31-.21.63-.45a19.42,19.42,0,0,1,4.78,1.74,22.9,22.9,0,0,1,4.66,3.19A26,26,0,0,1,77,62.33a38.78,38.78,0,0,1,2.86,11.21A62.55,62.55,0,0,1,80,85.23a62.23,62.23,0,0,0,.36-11.74A39.61,39.61,0,0,0,77.89,62a27.35,27.35,0,0,0-6.52-10,24.55,24.55,0,0,0-4.54-3.44c17.63,4.93,19.3,25.65,19.37,26.56.11,11-2.85,19.6-8.79,25.5Zm29-23.71c-1.51-1.35-2.79-1.82-3.93-1.44h0a2.76,2.76,0,0,0-1.64,1.67,38.38,38.38,0,0,1-6.2-1.93c-1-.36-1.92-.71-2.73-1a1.75,1.75,0,0,0-2,.44,2.43,2.43,0,0,0-.39,1.87l-1.09-.88-.24.28V75c0-.31-1.42-18.52-15.43-26.18a4.07,4.07,0,0,1,2.62-4.7c4.27,4.08,8.58,8.08,13,12.07,3.29,3,6.62,5.9,10,8.77s6.83,5.65,10.45,8.21c-3.53-2.68-6.84-5.61-10.11-8.59s-6.47-6-9.64-9.12q-6.37-6.23-12.57-12.62c.1-3.13,1-5.51,2.68-7.07h0a8.38,8.38,0,0,1,5.11-2,2.88,2.88,0,0,0,1.89,1.53,4.79,4.79,0,0,0,3.53-.9C91.09,37.21,94.9,38,97,38.21A3.67,3.67,0,0,0,97.14,40c1.13,3.46,7.43,6.3,10.46,7.49a8.16,8.16,0,0,0-1.29,5.37,2.83,2.83,0,0,0-1.25,1.12,4.76,4.76,0,0,0-.21,3.46c-1.31,3,1,5.82,2.4,7.15h0a3,3,0,0,0-.24.58,4.5,4.5,0,0,0,.7,3.15c.12,2,1.94,5.42,3.38,7.87a5.64,5.64,0,0,0-4.72.73Z"/><rect class="cls-2" width="141.2" height="141.2" rx="70.6"/></g></g></svg>