<svg xmlns="http://www.w3.org/2000/svg" viewBox="0 0 141.2 141.2"><defs><style>.cls-1{fill:none;}.cls-2{}</style></defs><g id="Calque_2" data-name="Calque 2"><g id="Layer_1" data-name="Layer 1"><rect class="cls-1" width="141.2" height="141.2" rx="70.6"/><path class="cls-2" d="M77.73,100.92A1.93,1.93,0,0,1,75.8,99V80.24C75,78.16,69.59,65.51,53,65.51c-17.79,0-22.23,12.78-22.78,14.66V99a1.94,1.94,0,0,1-3.88,0V79.67l.06-.23c0-.18,4.69-17.8,26.6-17.8A27.74,27.74,0,0,1,79.58,79.31l.09.29V99A1.94,1.94,0,0,1,77.73,100.92Z"/><path class="cls-2" d="M38.16,100.92A1.94,1.94,0,0,1,36.22,99V79.91a1.94,1.94,0,0,1,3.88,0V99A1.94,1.94,0,0,1,38.16,100.92Z"/><path class="cls-2" d="M48.05,100.92A1.93,1.93,0,0,1,46.12,99V79.91a1.94,1.94,0,1,1,3.87,0V99A1.94,1.94,0,0,1,48.05,100.92Z"/><path class="cls-2" d="M58,100.92A1.94,1.94,0,0,1,56,99V79.91a1.94,1.94,0,0,1,3.88,0V99A1.94,1.94,0,0,1,58,100.92Z"/><path class="cls-2" d="M67.84,100.92A1.94,1.94,0,0,1,65.9,99V79.91a1.94,1.94,0,0,1,3.88,0V99A1.94,1.94,0,0,1,67.84,100.92Z"/><path class="cls-2" d="M102.89,98.59h-.43a9.7,9.7,0,0,1-9.69-9.69V66.42a9.7,9.7,0,0,1,9.69-9.69h.43a9.7,9.7,0,0,1,9.69,9.69V88.9A9.7,9.7,0,0,1,102.89,98.59Zm-.43-38a5.83,5.83,0,0,0-5.82,5.82V88.9a5.82,5.82,0,0,0,5.82,5.81h.43a5.82,5.82,0,0,0,5.82-5.81V66.42a5.83,5.83,0,0,0-5.82-5.82Z"/><path class="cls-2" d="M92.41,100.92a1.9,1.9,0,0,1-.83-.19,2,2,0,0,1-.92-2.58l2.42-5.08a1.94,1.94,0,1,1,3.5,1.67l-2.41,5.07A2,2,0,0,1,92.41,100.92Z"/><path class="cls-2" d="M112.93,100.92a1.94,1.94,0,0,1-1.75-1.11l-2.41-5.07a1.94,1.94,0,1,1,3.5-1.67l2.41,5.08a1.93,1.93,0,0,1-.92,2.58A1.87,1.87,0,0,1,112.93,100.92Z"/><path class="cls-2" d="M77.73,97.29a1.94,1.94,0,0,1,0-3.88c4.83,0,5.06-5.61,5.07-5.85V50.44c0-3.51,2.26-10.16,10.82-10.16s10.92,7.57,11,11.57v6.82a1.94,1.94,0,0,1-3.87,0V51.88c0-.75-.39-7.72-7.12-7.72s-6.94,5.64-6.94,6.28V87.62C86.57,91,84.57,97.29,77.73,97.29Z"/></g></g></svg>