<svg xmlns="http://www.w3.org/2000/svg" viewBox="0 0 141.2 141.2"><defs><style>.cls-1{}.cls-2{fill:none;}</style></defs><g id="Calque_2" data-name="Calque 2"><g id="Layer_1" data-name="Layer 1"><path class="cls-1" d="M91.08,57a1.46,1.46,0,0,0-1.62.77C89.36,58,78.8,79.35,69.71,88A35.61,35.61,0,0,0,61,101.22V86.12a5,5,0,0,0,.7-.08c7.5-1.92,9.46-20.27,5.84-54.54-1.17-11.11-3.88-15.77-5.95-17.71a3,3,0,0,0-4,0c-3.3,3-8.81,12.86-8.53,44.23.15,17,2.9,26.13,8.41,27.89a6.69,6.69,0,0,0,.67.11v29.08a30.2,30.2,0,0,0,0,3.22v8.49a1.44,1.44,0,0,0,2.88,0v-5.47c.83-6.58,11.49-21.79,21.62-33.45C92.07,77,92.19,59.18,92.19,58.43A1.45,1.45,0,0,0,91.08,57ZM51.9,58c-.29-32.28,5.75-40.38,7.7-42.09,1.13,1.06,3.88,4.74,5.06,15.93,3.2,30.32,1.79,50-3.69,51.44a2.35,2.35,0,0,1-.73,0l-1.32-.07a2.55,2.55,0,0,1-.62-.09C56,82.4,52.07,78.15,51.9,58ZM80.43,86C75.05,92.17,66,103.7,61.19,112.75c.64-5.91,2.9-15.5,10.5-22.7,6.31-6,13.06-17.38,17-24.56C87.79,71.46,85.63,80,80.43,86Z"/><circle class="cls-1" cx="56.52" cy="32.05" r="1.66"/><circle class="cls-1" cx="56.01" cy="38.64" r="1.66"/><path class="cls-1" d="M56,46.9a1.66,1.66,0,1,0-1.66-1.66A1.66,1.66,0,0,0,56,46.9Z"/><circle class="cls-1" cx="55.43" cy="51.83" r="1.66"/><path class="cls-1" d="M57.09,55.15a1.66,1.66,0,1,0,1.66-1.66A1.66,1.66,0,0,0,57.09,55.15Z"/><path class="cls-1" d="M58.75,62.74a1.66,1.66,0,1,0-1.66-1.66A1.66,1.66,0,0,0,58.75,62.74Z"/><circle class="cls-1" cx="59.12" cy="67.61" r="1.66"/><circle class="cls-1" cx="59.54" cy="73.36" r="1.66"/><path class="cls-1" d="M59.31,50.17a1.66,1.66,0,1,0-1.66-1.66A1.66,1.66,0,0,0,59.31,50.17Z"/><path class="cls-1" d="M59.34,43.62A1.66,1.66,0,1,0,57.68,42,1.66,1.66,0,0,0,59.34,43.62Z"/><circle class="cls-1" cx="59.38" cy="35.4" r="1.66"/><circle class="cls-1" cx="59.41" cy="29.2" r="1.66"/><circle class="cls-1" cx="55.43" cy="58.43" r="1.66"/><path class="cls-1" d="M55.43,66.58a1.66,1.66,0,1,0-1.66-1.66A1.66,1.66,0,0,0,55.43,66.58Z"/><circle class="cls-1" cx="55.43" cy="70.93" r="1.66"/><path class="cls-1" d="M57.09,76.55a1.66,1.66,0,1,0,1.66,1.66A1.66,1.66,0,0,0,57.09,76.55Z"/><circle class="cls-1" cx="56.75" cy="26.13" r="1.66"/><circle class="cls-1" cx="59.34" cy="20.81" r="1.66"/><circle class="cls-1" cx="62" cy="25.88" r="1.66"/><path class="cls-1" d="M62.24,30.39a1.66,1.66,0,1,0,1.66,1.66A1.66,1.66,0,0,0,62.24,30.39Z"/><path class="cls-1" d="M62.24,40.3a1.66,1.66,0,1,0-1.66-1.66A1.66,1.66,0,0,0,62.24,40.3Z"/><path class="cls-1" d="M62.67,43.58a1.66,1.66,0,1,0,1.66,1.66A1.66,1.66,0,0,0,62.67,43.58Z"/><circle class="cls-1" cx="62.66" cy="51.24" r="1.66"/><circle class="cls-1" cx="62.65" cy="57.25" r="1.66"/><path class="cls-1" d="M62.64,61.6a1.66,1.66,0,1,0,1.66,1.66A1.66,1.66,0,0,0,62.64,61.6Z"/><circle class="cls-1" cx="63.4" cy="69.27" r="1.66"/><path class="cls-1" d="M62.24,74.89a1.66,1.66,0,1,0,1.66,1.66A1.67,1.67,0,0,0,62.24,74.89Z"/><rect class="cls-2" width="141.2" height="141.2" rx="70.6"/></g></g></svg>