<svg xmlns="http://www.w3.org/2000/svg" viewBox="0 0 141.2 141.2"><defs><style>.cls-1{fill:none;}.cls-2{fill-rule:evenodd;}</style></defs><g id="Calque_2" data-name="Calque 2"><g id="Layer_1" data-name="Layer 1"><rect class="cls-1" width="141.2" height="141.2" rx="70.6"/><path class="cls-2" d="M48.11,42.41C76.92,58.58,73,98.79,73,98.79H65.73S69,66.25,48.11,42.41ZM99.72,64.17C80.65,71.64,79.2,98.79,79.2,98.79h7.67s.62-21.35,13.06-34.62ZM93.09,42.41c-10.78,6-17,15.54-20.52,24.87a71.76,71.76,0,0,1,3.52,13.48C77.75,69.56,82.1,54.85,93.09,42.41ZM41.48,64.17C60.55,71.64,62,98.79,62,98.79H54.33s-.62-21.35-13.06-34.62Z"/></g></g></svg>