<svg xmlns="http://www.w3.org/2000/svg" viewBox="0 0 141.2 141.2"><defs><style>.cls-1{fill-rule:evenodd;}.cls-2{fill:none;}</style></defs><g id="Calque_2" data-name="Calque 2"><g id="Layer_1" data-name="Layer 1"><path class="cls-1" d="M56.65,100.74s5.66-1.58,8.53-.15,5.22,2.24,8.71,1.54,5.88-2.83,8.6-2.13,3.42,1.55,5.7,1.25,3-2.75,5.88-2.46,3.93,2.28,7.68,1.73,4.56-3.75,9-2.46,7.69,2.53,7.69-1.4c0-1.6-1.14-3.76-3.84-5.79a42.55,42.55,0,0,1-12,3.68,61.9,61.9,0,0,1-20,.4h0l-3.7-.66h0c-10.16-1.85-19.57-3.57-29.73,3.92a21.33,21.33,0,0,0,7.49,2.53ZM38.29,58.66C34.18,56.3,30.06,45,27.91,41.79s-3.38-3.4-4.55-2.47-.7,2.85,1.36,6.27,5.44,7.79,6.8,11S34.86,62.5,35,65.14a1.93,1.93,0,0,0,.39,1.2c-1.15,9.2,2,23,11.12,30.1,11.45-9,21.76-7.14,32.92-5.1,1.06.19,2.13.39,3.67.65a58.9,58.9,0,0,0,19-.41,51.19,51.19,0,0,0,9.63-2.5c-4.28-2.18-10.83-3.9-20.32-4-20.14-.29-37.56-6.1-41.68-12-1.81-2.58-2.82-6-3.76-9,.52-2.32,2.16-4.72,3.34-7.49,1.36-3.2,4.74-7.57,6.8-11s2.53-5.33,1.36-6.27-2.35-.84-4.56,2.47c-2,3-5.74,13.1-9.58,16.31a2.6,2.6,0,0,0-2.05-.91,4.19,4.19,0,0,0-3,1.47Z"/><rect class="cls-2" width="141.2" height="141.2" rx="70.6"/></g></g></svg>