<svg xmlns="http://www.w3.org/2000/svg" viewBox="0 0 141.2 141.2"><defs><style>.cls-1{fill-rule:evenodd;}.cls-2{fill:none;}</style></defs><g id="Calque_2" data-name="Calque 2"><g id="Layer_1" data-name="Layer 1"><path class="cls-1" d="M70.6,108.14a.82.82,0,0,1-.82-.82V47.82a.82.82,0,1,1,1.64,0v59.5a.82.82,0,0,1-.82.82Z"/><path class="cls-1" d="M70.6,95.83a.82.82,0,0,1-.24-1.61c4.29-1.31,8.44-2.56,12.1-3.66l6.59-2a.82.82,0,0,1,1,.55.81.81,0,0,1-.54,1l-6.59,2c-3.67,1.1-7.82,2.35-12.1,3.66a1,1,0,0,1-.24,0Z"/><path class="cls-1" d="M87.58,87.54Zm6.25-3.77a5.81,5.81,0,0,0-1.33.16,5.73,5.73,0,0,0-4.14,3.87.89.89,0,0,1-.26.38c-.76.61-1.13,1.29-1,1.75s.86.79,1.83.82a.77.77,0,0,1,.44.14,5.72,5.72,0,0,0,5.64.57c2.6-1.16,3.18-3.38,2.61-5.07a3.87,3.87,0,0,0-3.82-2.62Zm-1.09,9.82a7.45,7.45,0,0,1-4.07-1.22,2.85,2.85,0,0,1-1.79-5.31,7.33,7.33,0,0,1,5.25-4.72c3.75-.88,6.3,1.21,7.08,3.52s0,5.52-3.5,7.1a7.34,7.34,0,0,1-3,.63Z"/><path class="cls-1" d="M79.25,93.18a.84.84,0,0,1-.35-.07A.82.82,0,0,1,78.5,92l2.94-6.33a.82.82,0,0,1,1.49.69L80,92.71A.81.81,0,0,1,79.25,93.18Z"/><path class="cls-1" d="M81.07,82.52c-1.32,2.82-.86,4.83.26,5.35s3-.43,4.26-3.25.86-4.83-.26-5.36-3,.43-4.26,3.26ZM82,89.64a3.07,3.07,0,0,1-1.32-.28c-1.8-.84-2.91-3.55-1.06-7.53h0c1.84-4,4.63-4.89,6.44-4s2.91,3.55,1.06,7.53C85.64,88.41,83.63,89.64,82,89.64Z"/><path class="cls-1" d="M84.8,97.41a.83.83,0,0,1-.49-.17L78.75,93a.82.82,0,0,1,1-1.31l5.56,4.23a.81.81,0,0,1,.16,1.14A.82.82,0,0,1,84.8,97.41Z"/><path class="cls-1" d="M85.46,100.22a6.51,6.51,0,0,0,3.5,1.53,2,2,0,0,0,1.78-.65c.75-1,.22-3-2.26-4.85s-4.54-1.87-5.29-.89-.21,3,2.27,4.86Zm3.69,3.18h-.29a8.32,8.32,0,0,1-4.39-1.86h0C81,98.87,80.68,96,81.89,94.37s4.09-2.08,7.58.57,3.78,5.57,2.58,7.16A3.57,3.57,0,0,1,89.15,103.4Z"/><path class="cls-1" d="M70.6,82.12a.8.8,0,0,1-.53-.19A.82.82,0,0,1,70,80.77l6.37-7.49a.82.82,0,0,1,1.25,1.07l-6.38,7.48a.81.81,0,0,1-.62.29Z"/><path class="cls-1" d="M83,62.22c-2,0-4.42,1.1-6.8,3.9S72.85,72,73.69,74.35A4.22,4.22,0,0,0,77,77.14c2.46.45,5.27-.94,7.72-3.81C88.48,68.88,88,65,86,63.25A4.53,4.53,0,0,0,83,62.22ZM77.9,78.86a7.12,7.12,0,0,1-1.23-.11,5.89,5.89,0,0,1-4.52-3.85c-1-2.92,0-6.51,2.82-9.84a12.2,12.2,0,0,1,6.51-4.3A6.3,6.3,0,0,1,87,62c2.64,2.24,3.42,7.08-1.09,12.38-2.46,2.89-5.33,4.47-8,4.47Z"/><path class="cls-1" d="M70.6,64a.81.81,0,0,1-.62-.29.8.8,0,0,1,.09-1.15l7.55-6.44a.82.82,0,0,1,1.06,1.25l-7.55,6.44A.8.8,0,0,1,70.6,64Z"/><path class="cls-1" d="M79.36,48.5c-3.81,3.52-3.75,7.07-2.08,8.88s5.2,2.14,9-1.37,3.74-7.07,2.08-8.87-5.2-2.15-9,1.36Zm1.17,11.86a6,6,0,0,1-4.45-1.87c-2.21-2.39-2.47-6.91,2.17-11.19h0C82.88,43,87.37,43.64,89.57,46S92,52.93,87.4,57.21C85,59.46,82.58,60.36,80.53,60.36Z"/><path class="cls-1" d="M70.6,34.7c-2.54,0-5.26,2.23-5.26,7.12S68.06,49,70.6,49s5.26-2.23,5.26-7.13a8.14,8.14,0,0,0-1.7-5.42A4.65,4.65,0,0,0,70.6,34.7Zm0,15.89a6.25,6.25,0,0,1-4.8-2.27,9.74,9.74,0,0,1-2.1-6.5,9.73,9.73,0,0,1,2.1-6.49,6.21,6.21,0,0,1,9.6,0,9.73,9.73,0,0,1,2.1,6.49,9.74,9.74,0,0,1-2.1,6.5A6.25,6.25,0,0,1,70.6,50.59Z"/><path class="cls-1" d="M70.6,95.83a1,1,0,0,1-.24,0c-4.28-1.31-8.44-2.56-12.1-3.66l-6.59-2a.81.81,0,0,1-.54-1,.82.82,0,0,1,1-.55l6.58,2c3.67,1.1,7.82,2.35,12.11,3.66a.82.82,0,0,1-.24,1.61Z"/><path class="cls-1" d="M47.37,83.77a3.87,3.87,0,0,0-3.82,2.62c-.57,1.69,0,3.91,2.61,5.07a5.72,5.72,0,0,0,5.64-.57.77.77,0,0,1,.44-.14c1,0,1.67-.35,1.83-.81s-.21-1.15-1-1.76a.89.89,0,0,1-.26-.38,5.73,5.73,0,0,0-4.14-3.87A5.81,5.81,0,0,0,47.37,83.77Zm1.09,9.82a7.34,7.34,0,0,1-3-.63c-3.52-1.58-4.28-4.78-3.5-7.1s3.33-4.4,7.08-3.52a7.35,7.35,0,0,1,5.25,4.72,2.85,2.85,0,0,1-1.79,5.31,7.45,7.45,0,0,1-4.07,1.22Z"/><path class="cls-1" d="M62,93.18a.81.81,0,0,1-.74-.47l-2.94-6.33a.82.82,0,0,1,1.49-.69L62.7,92a.82.82,0,0,1-.4,1.09.84.84,0,0,1-.35.07Z"/><path class="cls-1" d="M56.52,79.13a1.41,1.41,0,0,0-.65.14c-1.12.52-1.57,2.52-.26,5.35s3.13,3.77,4.26,3.25,1.58-2.53.26-5.35C59.05,80.18,57.62,79.13,56.52,79.13Zm2.72,10.51c-1.68,0-3.68-1.23-5.12-4.33-1.85-4-.74-6.69,1.06-7.53s4.6.07,6.44,4,.74,6.69-1.06,7.53A3.07,3.07,0,0,1,59.24,89.64Z"/><path class="cls-1" d="M56.4,97.41a.82.82,0,0,1-.66-.33.81.81,0,0,1,.16-1.14l5.56-4.23a.82.82,0,1,1,1,1.31l-5.56,4.22A.83.83,0,0,1,56.4,97.41Z"/><path class="cls-1" d="M56.24,100.87Zm.19-6.16h-.21a6.66,6.66,0,0,0-3.5,1.54c-2.48,1.88-3,3.87-2.26,4.85a2,2,0,0,0,1.78.65,6.51,6.51,0,0,0,3.5-1.53h0c2.48-1.88,3-3.87,2.27-4.86A1.91,1.91,0,0,0,56.43,94.71Zm-4.38,8.69a3.57,3.57,0,0,1-2.9-1.3,3.61,3.61,0,0,1-.39-3.42,8.25,8.25,0,0,1,3-3.74c3.49-2.65,6.38-2.15,7.58-.57a3.63,3.63,0,0,1,.4,3.42,9.7,9.7,0,0,1-7.37,5.6Z"/><path class="cls-1" d="M70.6,82.12a.81.81,0,0,1-.62-.29L63.6,74.35a.82.82,0,0,1,1.25-1.07l6.37,7.49a.82.82,0,0,1-.09,1.16A.8.8,0,0,1,70.6,82.12Z"/><path class="cls-1" d="M58.18,62.22a4.53,4.53,0,0,0-3,1c-2,1.74-2.51,5.63,1.28,10.08a10.63,10.63,0,0,0,5.59,3.76,4.72,4.72,0,0,0,4.15-.9c2-1.73,2.51-5.62-1.27-10.07C62.6,63.32,60.17,62.22,58.18,62.22Zm5.16,16.64a8,8,0,0,1-1.58-.17,12.18,12.18,0,0,1-6.5-4.3c-4.51-5.3-3.73-10.14-1.09-12.38a6.3,6.3,0,0,1,5.55-1.25,12.2,12.2,0,0,1,6.51,4.3c4.51,5.3,3.73,10.14,1.09,12.38A6,6,0,0,1,63.34,78.86Z"/><path class="cls-1" d="M70.6,64a.8.8,0,0,1-.53-.19L62.52,57.4a.82.82,0,0,1,1.06-1.25l7.55,6.44a.8.8,0,0,1,.09,1.15A.81.81,0,0,1,70.6,64Z"/><path class="cls-1" d="M56.08,45.8a4.35,4.35,0,0,0-3.25,1.34c-1.66,1.8-1.73,5.35,2.08,8.87s7.34,3.17,9,1.37S65.65,52,61.84,48.5h0A8.75,8.75,0,0,0,56.08,45.8Zm4.59,14.56c-2.05,0-4.44-.9-6.87-3.15-4.64-4.28-4.37-8.8-2.17-11.19S58.32,43,63,47.3h0c4.64,4.28,4.38,8.8,2.17,11.19A6,6,0,0,1,60.67,60.36Z"/><rect class="cls-2" width="141.2" height="141.2" rx="70.6"/></g></g></svg>