<svg xmlns="http://www.w3.org/2000/svg" viewBox="0 0 141.2 141.2"><defs><style>.cls-1{}.cls-2{fill:none;}</style></defs><g id="Calque_2" data-name="Calque 2"><g id="Layer_1" data-name="Layer 1"><path class="cls-1" d="M79.76,67.93c0,.24-.05.47-.08.71a2.71,2.71,0,0,1,.85-.43Z"/><path class="cls-1" d="M67,93.1a34.28,34.28,0,0,1-6.61,4.12,5.84,5.84,0,0,1,1.09.35A31.75,31.75,0,0,1,68,96.27C67.63,95.15,67.3,94.07,67,93.1Z"/><path class="cls-1" d="M54.82,98.85s0,0,0,.06l0,0,.18,0Z"/><path class="cls-1" d="M69.86,70.17c.31-.84.66-1.8,1.6-1.8a3.13,3.13,0,0,0,1.84-1A8.3,8.3,0,0,1,75.38,66c-.53-.28-1.07-.58-1.6-.89a11.14,11.14,0,0,0-.73.87c-.72.92-1.46,1.86-2.5,1.86a1.72,1.72,0,0,1-.66-.13,2.46,2.46,0,0,0-.87-.11c-.33,0-.72,0-1.14,0s-1,.06-1.58.06a10.25,10.25,0,0,1-1.66-.12.91.91,0,0,0-.79.28c-.33.48.14,1.64.41,2.34a1.34,1.34,0,0,1,.07.18c.25,0,.5.09.75.16a3.48,3.48,0,0,1,1.38.81,1.21,1.21,0,0,1,.58-.14,3.18,3.18,0,0,1,.73.12c.61-.24,1.25-.46,1.91-.65C69.73,70.5,69.79,70.34,69.86,70.17Z"/><path class="cls-1" d="M85.88,68.93l-.09-.12-.05,0,0,0Z"/><path class="cls-1" d="M58.69,43.82A6.1,6.1,0,0,1,56.92,47l-1,1.2.28,1c.54-.68,1-1.21,1.34-1.64A6.86,6.86,0,0,0,59.49,44a14.74,14.74,0,0,1,.88-2.62c.24-.55.5-1.16.83-2.1a3.93,3.93,0,0,1,1-.29,5.37,5.37,0,0,0,2.35-.95.41.41,0,0,0,0-.58.42.42,0,0,0-.59,0,4.78,4.78,0,0,1-2,.76l-.39.09a15.82,15.82,0,0,1,.89-1.64,3.35,3.35,0,0,1,1.22.11,9,9,0,0,0,1.72.21,4,4,0,0,0,1.31-.21,4.12,4.12,0,0,0,2-1.39,11.16,11.16,0,0,1,1.34-1.32.41.41,0,0,0,.06-.58.42.42,0,0,0-.58,0,12,12,0,0,0-1.43,1.4A3.28,3.28,0,0,1,66.46,36a5.09,5.09,0,0,1-2.6,0,8.35,8.35,0,0,0-.88-.14,10,10,0,0,0,.56-1.25c.16-.43.27-.81.38-1.15A3.85,3.85,0,0,1,65.41,31a13.83,13.83,0,0,0,3.12-4.06l.1-.18a.41.41,0,0,0-.15-.56.4.4,0,0,0-.56.15l-.11.18a12.87,12.87,0,0,1-2.89,3.8l-.35.29-.41-.42c-.72-.7-1.8-1.75-1.68-3a.41.41,0,0,0-.37-.45.42.42,0,0,0-.45.37c-.16,1.6,1.14,2.86,1.92,3.62a5.51,5.51,0,0,1,.42.43,6.21,6.21,0,0,0-.87,2c-.1.33-.22.71-.37,1.12a10,10,0,0,1-.92,1.85h0a.16.16,0,0,0,0,.07A13.27,13.27,0,0,0,60.44,39h0c-.33.94-.59,1.55-.82,2.09A14.79,14.79,0,0,0,58.69,43.82Z"/><path class="cls-1" d="M46.46,50.52c-.38-.06-.74-.48-1.08-.89a3.44,3.44,0,0,0-1-1,5.05,5.05,0,0,1-.51-.28,7.44,7.44,0,0,0-2.71-1,.42.42,0,0,0-.49.33.41.41,0,0,0,.33.48,6.32,6.32,0,0,1,2.45.9c.17.1.36.21.58.32a2.83,2.83,0,0,1,.76.73,2.77,2.77,0,0,0,1.6,1.17h.06a.41.41,0,0,0,.05-.81Z"/><path class="cls-1" d="M39.21,29.41a9.49,9.49,0,0,1,1.5.41,4.08,4.08,0,0,0,1.23.27,1.73,1.73,0,0,0,.65-.12,8.23,8.23,0,0,0,1-.53,4,4,0,0,1,.83-.42l.07.08a5.87,5.87,0,0,1,.62.81c.53.77,1.12,1.64,2.07,1.69A4.86,4.86,0,0,1,49.67,33a4.69,4.69,0,0,0,2.17,1L51.57,33a4.89,4.89,0,0,1-1.21-.48,5.47,5.47,0,0,0-3.12-1.77c-.54,0-1-.69-1.43-1.33a6.65,6.65,0,0,0-.71-.93,1.93,1.93,0,0,1-.35-.51c-.33-.57-.69-1.23-2.82-2a.41.41,0,0,0-.53.25.41.41,0,0,0,.25.52c1.71.61,2.07,1.07,2.32,1.52a5.91,5.91,0,0,0-.78.41,6.08,6.08,0,0,1-.91.47c-.35.14-.68.05-1.31-.16a10.63,10.63,0,0,0-1.62-.44.4.4,0,0,0-.47.34A.41.41,0,0,0,39.21,29.41Z"/><path class="cls-1" d="M113.68,56.57a3.33,3.33,0,0,0-1.46-1.63,5.83,5.83,0,0,1-1.06-.88,6.93,6.93,0,0,1-.67-1.73,4.64,4.64,0,0,0-.91-2,8.5,8.5,0,0,0-6.07-2.91c-6,0-10.8,7.61-12.58,10.89A36.91,36.91,0,0,0,88,65.08a12,12,0,0,0-.83-1,36.2,36.2,0,0,0-1.27-12.62,19.75,19.75,0,0,0-1.67-4,.75.75,0,0,0,0-.16,1.38,1.38,0,0,0-.47-1.2,3,3,0,0,1-.61-1c-.14-.49-.26-1-.37-1.59-.35-1.66-.71-3.38-2-3.6a6.49,6.49,0,0,1-1.16-.36A8,8,0,0,0,77.84,39a2.09,2.09,0,0,0-1,.23l-.29.12a8.18,8.18,0,0,0-2.25-.44,2.17,2.17,0,0,0-1.64.72,6.75,6.75,0,0,1-.54.46,6.54,6.54,0,0,0-1.69,2.52,4.67,4.67,0,0,1-1.29,2,2,2,0,0,0-.38.29c-.19.17-.55.49-.73.49,0,0,0,0-.1-.06-.18-.25-.56-.25-1-.16a3.65,3.65,0,0,1-.42,0c.05-.17.29-.26.76-.41a2.59,2.59,0,0,0,1.87-1.43,2.53,2.53,0,0,0,.11-.33,2.36,2.36,0,0,1,.5-1.06,13.26,13.26,0,0,1,1.28-1,4.39,4.39,0,0,0,1.49-1.47,3,3,0,0,0,.18-1.19,2.07,2.07,0,0,1,.19-1.08c.23-.47.46-.9.67-1.27a6,6,0,0,0,.95-2.56,1.69,1.69,0,0,1,.21-.49A1.77,1.77,0,0,0,75,31.4a1.37,1.37,0,0,0-.8-.76c-.78-.34-.75-.74-.69-1.45a3,3,0,0,0-.11-1.46c-.67-1.7-2.24-5.67-4.63-5.67a2.19,2.19,0,0,0-.36,0,11.42,11.42,0,0,1-1.8.18,2.73,2.73,0,0,1-2.56-1.43c-.62-.8-1.71-.72-3.2.37a3.35,3.35,0,0,1-.19-1.08v-.55c0-1.31.06-3.29-1.16-3.73a6.06,6.06,0,0,1-.62-.27,3,3,0,0,0-1.35-.39,3.41,3.41,0,0,0-1.57.47,4.92,4.92,0,0,0-1.54,1.28l-.14-.36c-.37-.91-.92-2.3-2.12-2.3a6.1,6.1,0,0,1-2.06-.58,5.4,5.4,0,0,0-1.27-.41h-.19c-.81,0-4,.46-5.13,1.92a12.54,12.54,0,0,0-1.64,3.54c-.1.3-.19.56-.26.72a2.77,2.77,0,0,0-.17.69c-.08.51-.12.75-.79.86-1.13.18-2.84.46-3.29,1.82a7.6,7.6,0,0,0,.25,3.45c.05.18.08.33.1.44l0,.19c.13.65.14.92-.28,1.17a8.14,8.14,0,0,1-3.35.63A2.51,2.51,0,0,0,31.5,30a3.17,3.17,0,0,1-.58.79A2,2,0,0,0,30.27,32a6.65,6.65,0,0,0,0,1.17,3,3,0,0,1,0,1.26,2.85,2.85,0,0,0,.6,3.84c.51.46.76.85.75,1.13s-.54.83-1.2,1.37l0,0a2.63,2.63,0,0,0-.81,2.44,3.54,3.54,0,0,0,1.86,2.8,4.37,4.37,0,0,1,2.16,2l.24.4a1.83,1.83,0,0,1,.25.6c.22.76.51,1.26,2.37,1.36,2.34.11,3,.2,3.56,1.35S42.17,53,42.71,53h0a17.71,17.71,0,0,0,1.82-.13l.42,0a3,3,0,0,1,2.68,1.24.56.56,0,0,1-.13.67,1.32,1.32,0,0,1-1,.52,4.85,4.85,0,0,1-2.23-1.09A2.45,2.45,0,0,0,43,53.65a1.32,1.32,0,0,0-.5.11,1,1,0,0,1-.56.07,7.07,7.07,0,0,1-1.67-.67,6.28,6.28,0,0,0-2.71-.87,11.63,11.63,0,0,0-2.24.68,11.07,11.07,0,0,1-1.84.59c-.94.14-3.83,1.29-4.31,3.59a5.5,5.5,0,0,0,.9,4.36,1.36,1.36,0,0,1,.1.82,1.85,1.85,0,0,0,.22,1.22,6,6,0,0,0,1.44,1.1,8.34,8.34,0,0,1,1.61,1.21,2.92,2.92,0,0,1,.29,1.21,4.1,4.1,0,0,0,1.06,2.75A5,5,0,0,0,38.07,71a7,7,0,0,0,1.63-.2c.66-.17.95.22,1.35.89a2,2,0,0,0,.81.89,1.94,1.94,0,0,0,.76.11,23,23,0,0,0,3.82-.59c.29-.06.6.29.91.64a2.15,2.15,0,0,0,1.47.92l.26,0a11.69,11.69,0,0,0,2-.87,11.22,11.22,0,0,1,3-1.18,2.62,2.62,0,0,1,.41,0,5.9,5.9,0,0,1,2.75.66,11,11,0,0,0-2.71,4.67,1.54,1.54,0,0,0-.77.72,1.35,1.35,0,0,0,0,1.36c0,.26-.6,1.12-.81,1.41s-.22.29-.28.38a1.78,1.78,0,0,0,.06,1.6,1.51,1.51,0,0,0,.81.77,37.35,37.35,0,0,0,1.24,11.4A12.58,12.58,0,0,0,53.48,94c-.49-.94-1.06-1.91-1.65-2.82-3.48-5.33-9.16-11-14.66-11a8.73,8.73,0,0,0-6.75,3.48,3.28,3.28,0,0,0-.6,2.11,5.93,5.93,0,0,1-.18,1.37,6.65,6.65,0,0,1-1.11,1.48,4.82,4.82,0,0,0-1.23,1.85c-.7,3-.29,5.41,1.21,7.31,2.95,3.74,9.41,4.3,13,4.3a39.09,39.09,0,0,0,8.58-1,2.79,2.79,0,0,0-.33.46,2.36,2.36,0,0,0-.33,1.32c-4.27,2.75-9,7.07-10.67,11.54-1.38,3.78-.39,7.25,2.87,10a3.25,3.25,0,0,0,2.11.6,5.91,5.91,0,0,1,1.36.18,6.78,6.78,0,0,1,1.49,1.11,4.75,4.75,0,0,0,1.85,1.23,11.57,11.57,0,0,0,2.65.33c4.26,0,7.14-2.88,8.35-8.35,1.35-6.13.24-14.34-1.35-17.85a.94.94,0,0,0,.27-.86,2.42,2.42,0,0,0-.13-.46,3.73,3.73,0,0,0,.46.09,20.73,20.73,0,0,0,3,6.45c3,4.56,7.57,9.39,12.28,10.69a23.14,23.14,0,0,1,.7,3,5.32,5.32,0,0,1,0,.54,1.79,1.79,0,0,0,.19,1.38.93.93,0,0,0,.67.32h.19c.58,0,2.24-.21,2.84-1.18a1.58,1.58,0,0,0,0-1.61,21.79,21.79,0,0,1-.81-2.22,9.19,9.19,0,0,0,5.39-3.37,3.31,3.31,0,0,0,.6-2.11,5.41,5.41,0,0,1,.18-1.36A6.48,6.48,0,0,1,85,109.51a4.75,4.75,0,0,0,1.23-1.85c.7-3,.29-5.41-1.21-7.31-3-3.74-9.41-4.29-13-4.29h-.82c-.14-.5-.22-.86-.25-1a8.26,8.26,0,0,0-.3-.93c-.09-.27-.2-.57-.29-.87l.34-.07a4.55,4.55,0,0,0,1.83-.65l.1-.07c5.28-1.12,9.42-7.73,11-10.72A30.2,30.2,0,0,0,87,73a1,1,0,0,0,.67-.58,1.86,1.86,0,0,0,.13-.46l.34.33c-1.21,2.89-1.26,10.61.52,16.41s5,9,9.37,9a11.12,11.12,0,0,0,3.33-.56A3.28,3.28,0,0,0,103,95.65a6.19,6.19,0,0,1,.88-1.06,6.92,6.92,0,0,1,1.73-.66,4.76,4.76,0,0,0,2-.91c2.84-2.79,3.62-5.83,2.3-9-2.56-6.27-12.55-11.44-17.86-12.71a7.14,7.14,0,0,0-.73-.86,28.85,28.85,0,0,0,3.94.25c6.27,0,14.13-1.59,17.4-6C114.33,62.39,114.66,59.69,113.68,56.57ZM95.31,69.84A17.87,17.87,0,0,1,89.07,69a2.39,2.39,0,0,0,.18-.44,2.58,2.58,0,0,0-.25-2c-.11-.19-.23-.38-.35-.57a32.82,32.82,0,0,1,3-7.34c1.72-3.15,6.3-10.46,11.86-10.46A7.71,7.71,0,0,1,109,50.88a4.29,4.29,0,0,1,.7,1.67,7.57,7.57,0,0,0,.78,2l0,0a7,7,0,0,0,1.22,1c.55.38,1,.69,1.15,1.21.9,2.85.61,5.31-.85,7.31C109,68.34,101.1,69.84,95.31,69.84ZM91.53,71.9a12.79,12.79,0,0,1,1.51,4,.73.73,0,0,1-.14.59.61.61,0,0,1-.75.08c-.62-.29-1-1.25-1.29-2l0-.09-.07-.24A3.69,3.69,0,0,0,90,72.75a6.3,6.3,0,0,0-.72-.63c-.45-.36-1.29-1-1.3-1.38,0,0,0,0,0-.09a1.66,1.66,0,0,1,1.12-.51C90.27,70.14,91.26,71.49,91.53,71.9Zm15.55,20.53a4.2,4.2,0,0,1-1.68.7,7.32,7.32,0,0,0-2,.79l0,0a6.21,6.21,0,0,0-1,1.23c-.39.55-.69,1-1.21,1.14a10.09,10.09,0,0,1-3.08.52c-5,0-7.41-4.58-8.59-8.42-1.86-6.1-1.48-13.13-.64-15.63a6.21,6.21,0,0,1,.59.51A3,3,0,0,1,90,74.49c0,.13.07.24.1.31l0,.08a4.19,4.19,0,0,0,1.72,2.48,1.62,1.62,0,0,0,.7.16,1.32,1.32,0,0,0,1-.44,1.56,1.56,0,0,0,.34-1.24,14.71,14.71,0,0,0-1.17-3.57c5.22,1.51,14.2,6.37,16.51,12C110.37,87.16,109.66,89.9,107.08,92.43Zm-22.7,8.43c1.34,1.69,1.69,3.91,1.06,6.61a4.36,4.36,0,0,1-1,1.49,7.33,7.33,0,0,0-1.25,1.72l0,0a6.76,6.76,0,0,0-.21,1.59,2.51,2.51,0,0,1-.41,1.61,8.36,8.36,0,0,1-5,3.11c-1.72-5.29-4.84-15.81-6-20.16H72C75.47,96.88,81.64,97.39,84.38,100.86ZM77.8,120.43c.25.49.1.73,0,.81a3,3,0,0,1-2.14.79h-.13s-.09,0-.09,0a1.74,1.74,0,0,1,0-.77c0-.21,0-.43,0-.63a21.29,21.29,0,0,0-.74-3.24c-.16-.59-.29-1.1-.35-1.38-.2-.89-4.85-17-5-17.68-.9-3.2-1.55-5.33-2-6.76l.59.32c1.21,4.2,2.67,9.23,3,10a.42.42,0,0,0,.38.25.32.32,0,0,0,.16,0,.41.41,0,0,0,.21-.54c-.3-.69-1.71-5.56-2.79-9.29a7.58,7.58,0,0,0,1,.25,1.36,1.36,0,0,0-.28.11.42.42,0,0,0-.2.49c.13.43.29.89.42,1.27s.25.71.27.81C70.51,97.2,76.88,118.6,77.8,120.43ZM57.74,99.3a.15.15,0,0,1,0-.11,1.52,1.52,0,0,1,1.65-1.27,5.25,5.25,0,0,1,2,.48A13.1,13.1,0,0,1,64.77,101a.71.71,0,0,1,.17.68.67.67,0,0,1-.57.36c-.69.09-1.51-.53-2.17-1l-.07,0-.19-.17a3.7,3.7,0,0,0-1.43-.89,5.61,5.61,0,0,0-.94-.15C59,99.7,57.93,99.58,57.74,99.3Zm.88,20.08c-1.36,6.13-4.75,8.64-10,7.4a4.29,4.29,0,0,1-1.5-1,7.62,7.62,0,0,0-1.71-1.26l-.06,0a6.68,6.68,0,0,0-1.58-.21,2.56,2.56,0,0,1-1.62-.41c-3-2.56-3.9-5.62-2.63-9.1,1.52-4.16,6-8.28,10.07-11a.06.06,0,0,0,0,0,1.15,1.15,0,0,0,1.18.76,7.27,7.27,0,0,0,2.79-1c.22-.12.4-.21.52-.26.29-.12.74-.25,1.22-.39a11.58,11.58,0,0,0,2.11-.74C58.73,105.3,60,113.06,58.62,119.38ZM57.54,101c.07.42-1.7.93-2.46,1.14a12.83,12.83,0,0,0-1.31.42c-.13.06-.34.16-.58.29a6.9,6.9,0,0,1-2.41.9c-.3,0-.37-.1-.41-.21a1.79,1.79,0,0,1,.09-1.54c.59-1,2.39-1.87,5.06-2.36a2,2,0,0,1,.34,0A1.71,1.71,0,0,1,57.54,101ZM29.15,97.28c-1.33-1.69-1.69-3.92-1-6.61a4.22,4.22,0,0,1,1-1.49,7.1,7.1,0,0,0,1.26-1.72.14.14,0,0,0,0-.06,6.66,6.66,0,0,0,.22-1.58,2.56,2.56,0,0,1,.41-1.62A7.92,7.92,0,0,1,37.16,81c5.18,0,10.61,5.5,14,10.65.49.77.92,1.47,1.28,2.13a5.9,5.9,0,0,0-.91-.08,2.67,2.67,0,0,0-2.78,1.88,1.13,1.13,0,0,0,.09.92c.46.78,1.82,1.09,3.18,1.35l.57.12a12.15,12.15,0,0,1,1.19.45l.3.12v0c-.49,1.06-6.32,2.69-12.56,2.69C38.06,101.26,31.89,100.74,29.15,97.28ZM53.45,82a1.09,1.09,0,0,1-.11-.8c0-.08.14-.19.24-.33.57-.75,1.27-1.68.85-2.33a.62.62,0,0,1,0-.55.78.78,0,0,1,.7-.41A4.28,4.28,0,0,0,59,73.92a2.17,2.17,0,0,0-.51-1.78c-1-1.13-3-1.43-4-1.43a4.18,4.18,0,0,0-.51,0A12.05,12.05,0,0,0,50.74,72a10.36,10.36,0,0,1-1.84.8c-.3.07-.62-.29-.94-.64a2.11,2.11,0,0,0-1.45-.92,1,1,0,0,0-.25,0,22.06,22.06,0,0,1-3.65.57,1.15,1.15,0,0,1-.43,0,1.61,1.61,0,0,1-.42-.56A2.13,2.13,0,0,0,40,69.89a1.71,1.71,0,0,0-.49.07,6.37,6.37,0,0,1-1.44.17,4.18,4.18,0,0,1-2.77-.92A3.46,3.46,0,0,1,34.5,67,3.09,3.09,0,0,0,34,65.34,8.73,8.73,0,0,0,32.23,64,7.37,7.37,0,0,1,31,63.08a1.48,1.48,0,0,1-.06-.71A2,2,0,0,0,30.68,61a4.64,4.64,0,0,1-.75-3.69c.36-1.75,2.74-2.82,3.62-2.94a12.62,12.62,0,0,0,2-.63,10.44,10.44,0,0,1,2-.64,6,6,0,0,1,2.26.8,7.45,7.45,0,0,0,1.92.74,1.7,1.7,0,0,0,1-.12.59.59,0,0,1,.22-.05,2,2,0,0,1,.86.42,5.35,5.35,0,0,0,2.7,1.23,2.14,2.14,0,0,0,1.6-.79,1.39,1.39,0,0,0,.27-1.56A3.78,3.78,0,0,0,45.17,52h-.29l-.43,0a14.71,14.71,0,0,1-1.74.13c-1.11,0-1.73-.25-2-.78-.74-1.66-2-1.72-4.27-1.83-1.41-.07-1.48-.31-1.61-.77a3,3,0,0,0-.35-.82c-.08-.12-.16-.25-.23-.38a5.22,5.22,0,0,0-2.51-2.33,2.78,2.78,0,0,1-1.4-2.16,1.84,1.84,0,0,1,.52-1.7l0,0c.83-.67,1.49-1.2,1.51-2a2.4,2.4,0,0,0-1-1.76A2,2,0,0,1,31,34.81a3.09,3.09,0,0,0,.13-1.7,5.81,5.81,0,0,1,0-1c0-.3.16-.45.44-.75a3.92,3.92,0,0,0,.7-1,1.59,1.59,0,0,1,1.62-.85h.23a8.57,8.57,0,0,0,3.81-.74,1.65,1.65,0,0,0,.68-2l0-.18c0-.12-.06-.28-.1-.48a7.36,7.36,0,0,1-.28-3c.27-.82,1.41-1.07,2.64-1.27a1.55,1.55,0,0,0,1.47-1.53,2.54,2.54,0,0,1,.12-.51c.08-.18.17-.44.28-.77a12,12,0,0,1,1.51-3.31c.84-1.1,3.58-1.6,4.48-1.6h.12a5,5,0,0,1,1,.35,6.82,6.82,0,0,0,2.39.64c.61,0,1,1.07,1.33,1.78a4.15,4.15,0,0,0,.33.74.67.67,0,0,0,.53.35c.28,0,.44-.21.61-.43a4,4,0,0,1,1.37-1.16A2.62,2.62,0,0,1,57.55,16a2.15,2.15,0,0,1,1,.31,6.69,6.69,0,0,0,.7.3c.66.24.64,2,.62,2.94,0,.22,0,.41,0,.58a3.82,3.82,0,0,0,.5,1.9.41.41,0,0,0,.61.12,3.67,3.67,0,0,1,2-1,.56.56,0,0,1,.47.22,3.49,3.49,0,0,0,3.21,1.75,12,12,0,0,0,1.93-.19l.22,0c1.83,0,3.31,3.74,3.86,5.15a2.42,2.42,0,0,1,.07,1.08,1.87,1.87,0,0,0,1.17,2.28c.19.09.32.18.35.28s-.12.48-.25.74a2,2,0,0,0-.31.84,5.32,5.32,0,0,1-.86,2.2c-.2.38-.44.82-.68,1.31a3,3,0,0,0-.28,1.44,2.15,2.15,0,0,1-.12.89,4.93,4.93,0,0,1-1.22,1.11,13.9,13.9,0,0,0-1.36,1.12,3.07,3.07,0,0,0-.71,1.42l-.08.25c-.25.6-.79.77-1.36,1s-1.16.37-1.32,1a.74.74,0,0,0,.78,1,3,3,0,0,0,.6-.08l.3,0a.88.88,0,0,0,.65.28,2.12,2.12,0,0,0,1.29-.7l.2-.18a4.81,4.81,0,0,0,1.66-2.33,6,6,0,0,1,1.43-2.21,7.41,7.41,0,0,0,.61-.51,1.38,1.38,0,0,1,1.08-.51,8.05,8.05,0,0,1,2,.4,1.31,1.31,0,0,0,.84-.15,1.64,1.64,0,0,1,.6-.17,8.56,8.56,0,0,1,1.66.48,7.46,7.46,0,0,0,1.31.41c.75.13,1.05,1.56,1.34,3,.08.4.18.81.28,1.21a7.94,7.94,0,0,0-5.77-2.43,11,11,0,0,0-3.32.55,3.31,3.31,0,0,0-1.64,1.46,6.19,6.19,0,0,1-.88,1.06,6.92,6.92,0,0,1-1.73.66,4.88,4.88,0,0,0-2,.91c-2.84,2.79-3.61,5.83-2.3,9,.1.26.23.52.36.78a6.41,6.41,0,0,0-.8,1.36,14.42,14.42,0,0,1-1.83,2.43c-.64.76-1.39,1.66-2.12,2.61l.29,1c.83-1.12,1.72-2.19,2.46-3.08a11.83,11.83,0,0,0,2-2.69,4.63,4.63,0,0,1,.47-.83,18.1,18.1,0,0,0,3.7,4.16c-.48.27-1,.57-1.44.91s-.75.55-1.11.86l0,0h0a17,17,0,0,0-2.35,2.48.41.41,0,0,0,.07.58.34.34,0,0,0,.12.06,1.63,1.63,0,0,0-1.27.62c-.57.84,0,2.21.33,3.11.07.17.13.32.17.45.2.58.44,1.31.71,2.14-.17.12-.33.23-.48.35a23.79,23.79,0,0,0-2.41-5.36,4.84,4.84,0,0,1-1-2.35,8.39,8.39,0,0,0-.27-1.07c-.36-1.06-2.29-8.68-2.38-9.19-.07-.33-1-4.7-1.28-5.51a7.26,7.26,0,0,0-.44-.91l0-.1h0A9.66,9.66,0,0,1,55,46c-.11-.72-.21-1.54-.32-2.41-.17-1.31-.34-2.65-.54-3.65A13.6,13.6,0,0,1,54,37.15a6.38,6.38,0,0,0-.09-1.67c-.08-.23-.33-.86-.63-1.6a9.73,9.73,0,0,0,1.27-1.35A20.15,20.15,0,0,0,56.34,29a3.89,3.89,0,0,0,.25-1.66,8.5,8.5,0,0,1,.56-3.14.41.41,0,0,0-.25-.53.4.4,0,0,0-.52.25,9,9,0,0,0-.61,3.41,3.28,3.28,0,0,1-.19,1.35A17.38,17.38,0,0,1,53.84,32a7.73,7.73,0,0,1-1,1c-.49-1.2-1-2.43-1.11-2.63A17.62,17.62,0,0,1,51,26.65a14.41,14.41,0,0,0-1.2-4c-.07-.14-.12-.26-.16-.36s-.22-.49-.4-.87a35.44,35.44,0,0,1-1.58-3.63.41.41,0,1,0-.77.28,37.46,37.46,0,0,0,1.61,3.71c.17.36.31.65.38.82L49,23a13.15,13.15,0,0,1,1.15,3.76,17.8,17.8,0,0,0,.9,4c.17.36,1.83,4.31,2,4.94a6.65,6.65,0,0,1,.06,1.41,14.12,14.12,0,0,0,.18,2.94c.19,1,.36,2.29.52,3.58.11.84.22,1.71.33,2.44a7.89,7.89,0,0,0,.52,1.8,5.67,5.67,0,0,0-1.23-.25c-.87-.1-2.38-1.33-3.38-2.15a6.92,6.92,0,0,0-1.25-.91,3.41,3.41,0,0,1-.75-.61,9.49,9.49,0,0,0-2.15-1.61c-1.15-.6-2.36-2.66-2.87-3.53l-.29-.48a33.82,33.82,0,0,0-3.12-2.55c-.2-.14-.56-.33-1-.6a18.86,18.86,0,0,1-3.36-2.15.41.41,0,0,0-.55.62,20.11,20.11,0,0,0,3.51,2.25c.44.24.81.44,1,.55a33.7,33.7,0,0,1,3,2.37c0,.06.12.21.24.4a11.93,11.93,0,0,0,2.91,3.67l-.83.22c-.46.13-1,.27-1.38.35a3.6,3.6,0,0,1-2.61-1,6.53,6.53,0,0,0-3-.48A7.89,7.89,0,0,1,36.14,42a4.1,4.1,0,0,0-1.52,0c-.41,0-.88.06-1.43.06a.56.56,0,0,1-.13,0,.41.41,0,0,0-.41.41.41.41,0,0,0,.4.42c.64,0,1.19,0,1.63-.07a3.46,3.46,0,0,1,1.2,0,6.83,6.83,0,0,0,1.48.12,7.83,7.83,0,0,1,2.59.33,4.76,4.76,0,0,0,2.72,1.15,3.15,3.15,0,0,0,.52,0c.47-.09,1-.23,1.45-.37a5.71,5.71,0,0,1,1.53-.31.42.42,0,0,0,.22,0,11.71,11.71,0,0,1,1.12,1,3.6,3.6,0,0,0,1,.77,9.12,9.12,0,0,1,1,.78c1.14.93,2.7,2.21,3.81,2.33,1.42.15,1.85.58,2,.82a.93.93,0,0,0,0,.1c.17.33.32.61.4.81.26.73,1.15,4.93,1.24,5.39s2,8.13,2.42,9.3a6.38,6.38,0,0,1,.23,1A7.76,7.76,0,0,0,60,67.15a24.43,24.43,0,0,1-4-2.36,4.91,4.91,0,0,0-3.11-1.14l-.26,0a41.69,41.69,0,0,1-5.53-1.57h0l-.85-.29-1.85-.65c-.89-.32-1.7-.61-2.54-.89a12.36,12.36,0,0,0-2.47-.51,10.19,10.19,0,0,1-1.27-.21,38.14,38.14,0,0,1-5.28-2.12.42.42,0,0,0-.55.21.41.41,0,0,0,.21.54A37.81,37.81,0,0,0,38,60.3h0a5.71,5.71,0,0,0-.44.48L37.4,61l-.08.07c-.21.22-.55.57-2.41,1.1a.41.41,0,0,0,.12.81h.11c2.06-.59,2.49-1,2.77-1.32l.06-.06.2-.23c.27-.32.7-.85,1.18-.78a12.12,12.12,0,0,1,2.28.46l2.53.88,1.82.65c-.41.28-1,.72-1.8,1.39l-.11.09a49.33,49.33,0,0,1-4.74,1.43.41.41,0,0,0-.29.5.41.41,0,0,0,.4.31l.11,0a46.9,46.9,0,0,0,5-1.55l.14-.12A15.43,15.43,0,0,1,47,62.87a42.85,42.85,0,0,0,5.58,1.57l.26,0a4.15,4.15,0,0,1,2.67.94,6.11,6.11,0,0,0,.6.46l-.66.14-1.17.24A27.62,27.62,0,0,0,51.2,67L50,67.4a22.22,22.22,0,0,1-3.5.58l-1.33.15A4,4,0,0,1,43.28,68a15.64,15.64,0,0,0-3.8-.5.41.41,0,0,0,0,.82,15.14,15.14,0,0,1,3.63.48,5.28,5.28,0,0,0,1.43.23,6.55,6.55,0,0,0,.72,0l1.32-.15a22.16,22.16,0,0,0,3.63-.61c.43-.11.84-.24,1.25-.36a27.78,27.78,0,0,1,3-.77c.5-.09.87-.18,1.21-.25a10.08,10.08,0,0,1,1.57-.26,34.07,34.07,0,0,0,3.51,1.82l.13.18a23.17,23.17,0,0,1,2.32,5.23,1.59,1.59,0,0,1,.07.2,9,9,0,0,0-1.29,1.41,7.9,7.9,0,0,0-1,1.82c-.49-.59-1-.53-1.88-.41-.19,0-.41.06-.67.08a.41.41,0,0,0-.36.46.4.4,0,0,0,.45.36l.69-.08c.91-.13,1-.11,1.2.19a4.39,4.39,0,0,1,.26.4,8.85,8.85,0,0,0-.17,1l-.24.09a6.78,6.78,0,0,1-2.16.52c-.82.06-2.23.25-2.57.91a.7.7,0,0,0,0,.7.38.38,0,0,0,.33.18.38.38,0,0,0,.21,0,.44.44,0,0,0,.19-.49,4.24,4.24,0,0,1,1.86-.43,7.73,7.73,0,0,0,2.3-.53A11.16,11.16,0,0,0,61,83.43a3.28,3.28,0,0,0,1.46,1.63l0,0-.23.16a5.24,5.24,0,0,1-2.68,1.15h-.06a10,10,0,0,1-4.55-1.71,2.37,2.37,0,0,1,0-.63c0-.61,0-1.63-.92-1.69A.65.65,0,0,1,53.45,82Zm4.43-9.28a1.35,1.35,0,0,1,.31,1.11,3.5,3.5,0,0,1-2.74,2.89A9.72,9.72,0,0,1,57.88,72.69Zm28.55-9.46a3.74,3.74,0,0,0-2.38-1.07,2.61,2.61,0,0,0-1.68.65,1.09,1.09,0,0,0-.42.82c0,.89,1,1.89,2,2.84l.42.4c.21.24.48.62.77,1l.19.26h0a1.24,1.24,0,0,1-.67.12c-3.86,0-16.41-5.68-19.2-12.51-1.17-2.87-.46-5.61,2.12-8.13a4.19,4.19,0,0,1,1.68-.71,7.3,7.3,0,0,0,2-.78l0,0a6.61,6.61,0,0,0,1-1.22c.38-.55.68-1,1.21-1.15a10.27,10.27,0,0,1,3.07-.51c5,0,7.41,4.58,8.59,8.42A34.1,34.1,0,0,1,86.43,63.23Zm-25,34.34a5.84,5.84,0,0,0-1.09-.35A34.28,34.28,0,0,0,67,93.1c.3,1,.63,2.05,1,3.17A31.09,31.09,0,0,0,61.48,97.57ZM85.79,68.81l.09.12-.17-.06,0,0Zm-9,.62a3.69,3.69,0,0,0,.56-1.32.42.42,0,0,0-.47-.35.41.41,0,0,0-.35.39,8.75,8.75,0,0,1-.75,1.36,34,34,0,0,0-5.1.86c.26-.69.48-1.17.8-1.17A3.75,3.75,0,0,0,73.83,68a5.79,5.79,0,0,1,2.59-1.49c.86.42,1.71.8,2.53,1.13a10,10,0,0,1-.24,1.73C78.08,69.35,77.43,69.38,76.77,69.43Zm-9,1.86a3.15,3.15,0,0,0-.73-.11,1.31,1.31,0,0,0-.58.13,3.48,3.48,0,0,0-1.38-.81l-.75-.16a1.34,1.34,0,0,0-.07-.18c-.28-.7-.74-1.86-.41-2.34a.9.9,0,0,1,.78-.28,10.47,10.47,0,0,0,1.67.12c.55,0,1.1,0,1.58-.06s.81,0,1.14,0a2.5,2.5,0,0,1,.87.11,1.72,1.72,0,0,0,.66.13c1,0,1.78-.94,2.5-1.86.24-.3.49-.62.73-.87.53.32,1.07.61,1.6.9a8,8,0,0,0-2.08,1.39c-.68.57-1.21,1-1.84,1-.94,0-1.29,1-1.6,1.79l-.19.47C69,70.83,68.38,71.05,67.77,71.29Zm-2.68,1.3-.44-1.34.24,0a2.51,2.51,0,0,1,1,.58,2.42,2.42,0,0,0-.21.39Zm-.2-6a16.71,16.71,0,0,1,2.18-2.31c.13,0,.41.07.65.12a8.79,8.79,0,0,0,1.75.24,2.47,2.47,0,0,0,.88-.13.41.41,0,1,0-.28-.77,4.85,4.85,0,0,1-2.15-.14l.29-.21c.55-.38,1.1-.72,1.64-1a33,33,0,0,0,3.21,2.26c-.22.24-.43.51-.65.79-.6.76-1.22,1.55-1.86,1.55a1.15,1.15,0,0,1-.35-.07A3,3,0,0,0,69,66.73c-.35,0-.76,0-1.18,0s-1,0-1.54,0a9.15,9.15,0,0,1-1.56-.11A.29.29,0,0,0,64.89,66.6Zm14.87,1.33.77.28a2.71,2.71,0,0,0-.85.43C79.71,68.41,79.74,68.17,79.76,67.93ZM88.28,67a1.71,1.71,0,0,1-.61,2.36h-.06c-.44,0-1.31-1.22-1.83-2A12.17,12.17,0,0,0,85,66.32c-.1-.11-.27-.27-.47-.45-.56-.53-1.72-1.62-1.7-2.21a.25.25,0,0,1,.11-.22A1.81,1.81,0,0,1,84.05,63C85.3,63,86.8,64.41,88.28,67ZM54.43,85.33c.11.08,2.73,1.88,5,1.88h.07a5.84,5.84,0,0,0,3.14-1.3l.46-.3c.11.1.23.21.34.33a6.92,6.92,0,0,1,.66,1.73,4.76,4.76,0,0,0,.91,2,14.12,14.12,0,0,0,1.18,1c.15.43.32.94.5,1.5-3.46,2.78-7.17,4.74-9,5a3.55,3.55,0,0,0-.09-.47,2.58,2.58,0,0,0-1.27-1.55l-.62-.31a34.73,34.73,0,0,1-1.45-9.73A.55.55,0,0,0,54.43,85.33ZM56,96a1.72,1.72,0,0,1,.86,1,1.7,1.7,0,0,1-.12,1.27c0,.06-.14.09-.3.09a8,8,0,0,1-2.33-.72,13,13,0,0,0-1.29-.48c-.14,0-.37-.08-.63-.13-.76-.15-2.33-.45-2.63-1a.33.33,0,0,1,0-.25,1.88,1.88,0,0,1,2-1.32A10.11,10.11,0,0,1,56,96Zm-1.16,2.93s0,0,0-.06l.15.05-.18,0Zm4.72,1.68a5.82,5.82,0,0,1,.76.12,3,3,0,0,1,1.09.71l.25.22.08,0a4.65,4.65,0,0,0,2.53,1.19h.24A1.47,1.47,0,0,0,65.7,102a1.49,1.49,0,0,0-.3-1.5,14.43,14.43,0,0,0-2.88-2.39,34.1,34.1,0,0,1,5.66-1c.14.48.28,1,.41,1.45,1.68,5.8,4.88,16.94,5,17.62,0,.14.08.32.13.54-4.32-1.41-8.55-5.93-11.35-10.22A20.32,20.32,0,0,1,59.53,100.59Zm11.59-8.8a7.71,7.71,0,0,1-5.48-2.67,4.34,4.34,0,0,1-.71-1.68,7.3,7.3,0,0,0-.78-2l0,0a6.47,6.47,0,0,0-1.22-1c-.55-.39-1-.69-1.15-1.21-.9-2.85-.61-5.31.85-7.31,3-4.07,10.42-5.6,16.14-5.7a.43.43,0,0,0,0,0,1.06,1.06,0,0,0,.19.9c.53.72,1.92.9,3.3,1l.58.06a11.38,11.38,0,0,1,1.23.32,12.27,12.27,0,0,0,2.17.5A29.6,29.6,0,0,1,83,81.33C81.27,84.47,76.68,91.79,71.12,91.79ZM86.48,72.21a9.43,9.43,0,0,1-2.23-.49c-.5-.14-1-.28-1.33-.34l-.64-.07c-.77-.06-2.36-.2-2.71-.68a.27.27,0,0,1,0-.24c.23-1,1-1.54,2.32-1.54a11.68,11.68,0,0,1,4.12,1,1.73,1.73,0,0,1,1,2.22C86.89,72.19,86.63,72.21,86.48,72.21Z"/><rect class="cls-2" width="141.2" height="141.2" rx="70.6"/></g></g></svg>