<svg xmlns="http://www.w3.org/2000/svg" viewBox="0 0 141.2 141.2"><defs><style>.cls-1{}.cls-2{fill:none;}</style></defs><g id="Calque_2" data-name="Calque 2"><g id="Layer_1" data-name="Layer 1"><path class="cls-1" d="M39.44,75.92c0,8,3.35,12.82,7.76,16.61a1.2,1.2,0,0,0,.71.65H48a75.1,75.1,0,0,0,6.58,4.65c6.64,4.28,12.9,8.33,14.78,17.09a1.25,1.25,0,0,0,1.49,1,1.23,1.23,0,0,0,.95-1c1.78-8.08,7.2-12.15,13.24-16.1h0a1.23,1.23,0,0,0,.5-.35l1-.63C94,93,101.76,88,101.76,75.92s-3.16-24.19-25.23-26c.94-6.85,4.47-8.82,7.33-10.42s5.88-3.29,2.85-9.14c-1.6-3.11-4.35-4.58-7.55-4-3.65.56-7,3.65-8.76,7.56A19,19,0,0,0,64.85,27c-3.48-2.45-7.16-2.27-10.11.52s-4.34,5.21-4,7.25c.43,2.65,3.38,4,6.49,5.45,4.4,2,8.94,4.13,8.59,9.61C42.7,51.3,39.44,63.74,39.44,75.92Zm59.82,0c0,10.72-6.82,15.14-14,19.81L84,96.52a11.76,11.76,0,0,1-7.24-.66,1.25,1.25,0,0,0-1.06,2.27A14.86,14.86,0,0,0,80,99.26a39.6,39.6,0,0,0-4,3.3h-.16a8.38,8.38,0,0,1-5-.34,1.26,1.26,0,0,0-1.65.66,1.24,1.24,0,0,0,.65,1.65,11.88,11.88,0,0,0,3.63.76,22.32,22.32,0,0,0-3,5.12,24.56,24.56,0,0,0-7.65-9.82,12.12,12.12,0,0,0,3-.35,1.25,1.25,0,0,0,.91-1.52,1.27,1.27,0,0,0-1.53-.91,13.11,13.11,0,0,1-6.55-.36h-.14c-.87-.59-1.75-1.16-2.62-1.72L53.6,94.19h.68a15.37,15.37,0,0,0,3.88-.46,1.23,1.23,0,0,0,.91-1.48v0a1.25,1.25,0,0,0-1.46-.9A17.19,17.19,0,0,1,49.26,91C45.05,87.48,42,83.13,42,75.92c0-11.49,2.22-23.75,28.66-23.75S99.26,64.43,99.26,75.92ZM79.6,28.78c2.11-.36,3.81.58,4.91,2.71,1.92,3.71,1,4.24-1.85,5.81s-7.53,4.23-8.6,12.45H72.39a20.92,20.92,0,0,0-.48-12.16C72.7,32.78,76.46,29.3,79.6,28.78ZM58.27,37.92c-2.5-1.16-4.85-2.25-5.07-3.59-.13-.76.34-2.26,3.26-5,2.09-2,4.43-2.08,6.94-.3s4.71,5.13,6,8.88V38c1.29,3.86,1.59,8.13.3,11.64H68.29C68.6,42.73,62.69,40,58.27,37.92Z"/><path class="cls-1" d="M67.15,90a1.26,1.26,0,0,0,.76,1.6h0a21.33,21.33,0,0,0,6.39,1,15.83,15.83,0,0,0,3.88-.45A1.26,1.26,0,0,0,79,90.59a1.27,1.27,0,0,0-1.36-.83,17.63,17.63,0,0,1-8.83-.49,1.25,1.25,0,0,0-1.6.71Z"/><rect class="cls-2" width="141.2" height="141.2" rx="70.6"/></g></g></svg>