<svg xmlns="http://www.w3.org/2000/svg" viewBox="0 0 141.2 141.2"><defs><style>.cls-1{}.cls-2{fill:none;}</style></defs><g id="Calque_2" data-name="Calque 2"><g id="Layer_1" data-name="Layer 1"><path class="cls-1" d="M89.44,89.92A32.22,32.22,0,0,0,99,86.48c4.91-3.16,7.85-7.1,8.73-11.71,1.4-7.35-3-13.61-3.31-14A13.4,13.4,0,0,0,94,55.69c-8.72,0-16.66,8.21-17,8.61C71.71,70.24,67.43,71,67.29,71a8.93,8.93,0,0,1-1.74.2,2.38,2.38,0,0,1-2.22-.89c-1.27-1.87-.2-6.49.79-9,4.46-12.24-1.35-20-1.62-20.37-7.26-9.2-16.06-10.58-20.65-10.58a18.88,18.88,0,0,0-4.34.44,5.51,5.51,0,0,0-3.72,2.41,4.31,4.31,0,0,0-.54,3.08,6.46,6.46,0,0,0,4,5.15l7.76,2.44c3.6,1.32,6,3.31,7.14,5.89a11.31,11.31,0,0,1,.07,7.94l-.11.38C50,70.93,54,76.2,54.08,76.32a15,15,0,0,0,12.69,6.92c1.11,0,1.77-.12,1.68-.09,6.83,0,18.23-11.06,19.41-12.23,2.77-2.33,4.51-2.82,5.47-2.82,1.89,0,2.48,2.08,2.51,2.18a5.06,5.06,0,0,1-.94,4.29c-2.07,2.54-6.87,3.24-8.71,3.32a21.75,21.75,0,0,0-12.7,6.57c-6.64,7.68-2.29,17-2,17.45a16.72,16.72,0,0,0,15,8.92h0a15.41,15.41,0,0,0,3.63-.39c17.66-3.69,16.28-20.92,16.24-21.25-.51-2.78-2.53-3-3.14-3a5.32,5.32,0,0,0-3,1.2C93.68,92.91,91.93,95,91.91,95c-2.53,2.8-4.73,2.93-5.27,2.92C83,97.85,82.09,95.19,82,95a2.53,2.53,0,0,1,.38-2.18c1.41-1.94,5.44-2.72,7-2.88ZM78.62,95.81a8.06,8.06,0,0,0,7.78,5.6l.43,0c1.2,0,4.34-.39,7.72-4.13a84.49,84.49,0,0,1,7.8-7.2,3.11,3.11,0,0,1,.47-.29c.1,1.63.4,14.29-13.59,17.22a12.9,12.9,0,0,1-2.84.29,13.1,13.1,0,0,1-11.85-7c0-.07-3.56-7.56,1.6-13.52a18.16,18.16,0,0,1,10.33-5.38c.31,0,7.63-.29,11.13-4.58a8.56,8.56,0,0,0,1.67-7.21c-.41-1.72-2.19-5-5.93-5-2.29,0-4.82,1.19-7.84,3.73-4.43,4.38-13,11.31-17.18,11.31h-.2l-.18,0a7.56,7.56,0,0,1-1.17.08,11.7,11.7,0,0,1-9.85-5.47s-3.16-4.44-1.34-15.42a14.68,14.68,0,0,0-.16-10.44c-1.53-3.51-4.61-6.14-9.24-7.84l-7.74-2.43a3.15,3.15,0,0,1-1.75-2.49c-.14-.66.42-1.16,1.64-1.43a15.55,15.55,0,0,1,3.52-.34c4.84,0,11.88,1.6,17.89,9.21.19.26,4.87,6.67,1.11,17-.33.83-3.13,8.21-.41,12.21a5.77,5.77,0,0,0,5.11,2.43,11.79,11.79,0,0,0,2.34-.25c.22,0,5.5-.84,11.66-7.81.07-.07,7.22-7.47,14.46-7.47a9.8,9.8,0,0,1,7.68,3.74s3.75,5.35,2.62,11.21c-.7,3.62-3.11,6.78-7.12,9.35a29,29,0,0,1-8.25,3c-.68.07-6.78.73-9.36,4.28a6.14,6.14,0,0,0-1,5.08Z"/><rect class="cls-2" width="141.2" height="141.2" rx="70.6"/></g></g></svg>