<svg xmlns="http://www.w3.org/2000/svg" viewBox="0 0 141.2 141.2"><defs><style>.cls-1{fill:none;}.cls-2{}</style></defs><g id="Calque_2" data-name="Calque 2"><g id="Layer_1" data-name="Layer 1"><rect class="cls-1" width="141.2" height="141.2" rx="70.6"/><path class="cls-2" d="M113.21,70.42a7.68,7.68,0,0,0-1.93-6.54,7.54,7.54,0,0,0-1.49-1.26A7.75,7.75,0,0,0,110.86,57a5.93,5.93,0,0,0-4-4.39,7.28,7.28,0,0,0-1.54-.34,6.6,6.6,0,0,0-.57-3.76,7.33,7.33,0,0,0-5.49-3.93,8.79,8.79,0,0,0-2-.08,6.11,6.11,0,0,0-1-3.37A6.89,6.89,0,0,0,90,38.36a7.51,7.51,0,0,0-2.46.5,7.51,7.51,0,0,0-.79-2,5.4,5.4,0,0,0-6-2.37,11.08,11.08,0,0,0-3,1.19,56.09,56.09,0,0,0,.15-8.3A55.39,55.39,0,0,0,76,16.11a4.74,4.74,0,1,0-9.16,2.44,47.51,47.51,0,0,1,1.5,9.38c.09,1.51.1,3,0,4.53-.31.11-.61.23-.91.37a8,8,0,0,0-3.4,3.2l-.35-.22a11.3,11.3,0,0,0-3.25-1.31,5.4,5.4,0,0,0-6,2.37,7.51,7.51,0,0,0-.79,2,7.56,7.56,0,0,0-2.46-.5A6.88,6.88,0,0,0,45,41.12a6.11,6.11,0,0,0-1,3.37,8.25,8.25,0,0,0-2,.08A7.33,7.33,0,0,0,36.5,48.5a6.6,6.6,0,0,0-.57,3.76,6.71,6.71,0,0,0-1.54.34A5.91,5.91,0,0,0,30.34,57a7.81,7.81,0,0,0,1.07,5.63,7.83,7.83,0,0,0-1.49,1.26A7.68,7.68,0,0,0,28,70.42a7.13,7.13,0,0,0,2.14,3.84,7,7,0,0,0,1.58,11.19,7.05,7.05,0,0,0-1,6.08,7,7,0,0,0,2.55,3.64,6.85,6.85,0,0,0,1.51.86A7.72,7.72,0,0,0,34,98.32a7.51,7.51,0,0,0,.88,4.91,7.34,7.34,0,0,0,3.2,3,7.77,7.77,0,0,0,2,.64,7.78,7.78,0,0,0,0,2.68,6.9,6.9,0,0,0,2.42,4.17,7,7,0,0,0,4.91,1.51,7.55,7.55,0,0,0,.34,2.26,7.4,7.4,0,0,0,7.08,5.23,7.35,7.35,0,0,0,2.37-.38,6.94,6.94,0,0,0,4.22,5,6.7,6.7,0,0,0,4.06.25,6.93,6.93,0,0,0,1.66-.63,3.57,3.57,0,0,0,.45.51,4.23,4.23,0,0,0,3,1.22h.09a4.25,4.25,0,0,0,3-1.34,3.42,3.42,0,0,0,.42-.52,7.14,7.14,0,0,0,5.72.52,6.92,6.92,0,0,0,4.16-5,7.41,7.41,0,0,0,9.53-4.82,7.3,7.3,0,0,0,.33-2.27,6.82,6.82,0,0,0,7.34-5.68,7.49,7.49,0,0,0,0-2.67,7.74,7.74,0,0,0,2-.65,7.37,7.37,0,0,0,3.2-3,7.52,7.52,0,0,0,.88-4.91,7.91,7.91,0,0,0-.76-2.29,6.72,6.72,0,0,0,1.51-.87,6.94,6.94,0,0,0,2.55-3.63,7.08,7.08,0,0,0-1-6.09,7,7,0,0,0,1.58-11.18A7.32,7.32,0,0,0,113.21,70.42Zm-3.09-.62a4.49,4.49,0,0,1-2.42,3,1.57,1.57,0,0,0-.92,1.42,1.6,1.6,0,0,0,.89,1.44,3.94,3.94,0,0,1-1.34,7.53,1.58,1.58,0,0,0-.64,2.93,3.91,3.91,0,0,1-2,7.29,1.57,1.57,0,0,0-1.06,2.73,4.53,4.53,0,0,1,.94,5.49,4.48,4.48,0,0,1-4.43,2.12,1.59,1.59,0,0,0-1.49.67,1.57,1.57,0,0,0-.09,1.64,4.16,4.16,0,0,1-.84,5.15,4.07,4.07,0,0,1-4.24.42,1.57,1.57,0,0,0-2.13,2,4.29,4.29,0,0,1-6.8,4.83,1.61,1.61,0,0,0-1.77-.19,1.56,1.56,0,0,0-.82,1.58,4.19,4.19,0,0,1-2.29,4.43c-1.57.58-3.41-.36-4.27-1.14l-.08-.08a1.58,1.58,0,0,0-2.67,1.2,1.07,1.07,0,0,1-.3.81,1.13,1.13,0,0,1-.78.35,1.09,1.09,0,0,1-.79-.32,1.13,1.13,0,0,1-.33-.79,1.59,1.59,0,0,0-1-1.47,1.65,1.65,0,0,0-.58-.1,1.61,1.61,0,0,0-1.16.49,3.84,3.84,0,0,1-4.16,1.05,3.61,3.61,0,0,1-1.88-1.68,4,4,0,0,1-.44-2.66,1.6,1.6,0,0,0-.77-1.65,1.59,1.59,0,0,0-1.81.17,4.29,4.29,0,0,1-6.8-4.84,1.57,1.57,0,0,0-2.13-2,4.09,4.09,0,0,1-4.24-.41,4.18,4.18,0,0,1-.84-5.16,1.58,1.58,0,0,0-1.59-2.31,4.34,4.34,0,0,1-3.48-7.6,1.58,1.58,0,0,0-1.06-2.74,3.91,3.91,0,0,1-2-7.29,1.58,1.58,0,0,0-.64-2.92,3.95,3.95,0,0,1-1.34-7.54,1.6,1.6,0,0,0,.89-1.44,1.62,1.62,0,0,0-.92-1.42A4.17,4.17,0,0,1,32.27,66a4.75,4.75,0,0,1,2.09-1.31,1.6,1.6,0,0,0,1.07-1.14,1.57,1.57,0,0,0-.44-1.5,5,5,0,0,1-1.55-4.38,2.79,2.79,0,0,1,2-2.08,3.57,3.57,0,0,1,2.27,0,1.58,1.58,0,0,0,1.88-2.28,3.65,3.65,0,0,1-.23-3.44A4.12,4.12,0,0,1,42.5,47.7a5.2,5.2,0,0,1,2.77.32A1.58,1.58,0,0,0,47,47.68,1.55,1.55,0,0,0,47.34,46a3.72,3.72,0,0,1,.25-3.12c.9-1.36,2.89-1.39,3.48-1.37a5.17,5.17,0,0,1,3,1.18,1.58,1.58,0,0,0,1.74.19,1.56,1.56,0,0,0,.84-1.54,4.93,4.93,0,0,1,.54-2.86,2.34,2.34,0,0,1,2.6-.91,8.28,8.28,0,0,1,2.32.93c.34.21.9.6,1.18.82a1.53,1.53,0,0,0,.94.78,1.57,1.57,0,0,0,2-1.06,5.86,5.86,0,0,1,1.93-2.9,4.07,4.07,0,0,1,.76-.47,4.87,4.87,0,0,1,1.74-.46,4.82,4.82,0,0,1,1.74.46A5.53,5.53,0,0,1,75,39h0a1.59,1.59,0,0,0,2,1.07l.11,0a1.55,1.55,0,0,0,.84-.75,12.17,12.17,0,0,1,1.18-.81,8.16,8.16,0,0,1,2.32-.93,2.33,2.33,0,0,1,2.6.9,4.93,4.93,0,0,1,.54,2.86,1.6,1.6,0,0,0,.84,1.55,1.58,1.58,0,0,0,1.74-.19,5,5,0,0,1,3-1.18c2.32-.09,3.25,1,3.48,1.36A3.76,3.76,0,0,1,93.88,46a1.57,1.57,0,0,0,2.06,2,5.29,5.29,0,0,1,2.78-.32,4.15,4.15,0,0,1,3.14,2.17,3.7,3.7,0,0,1-.23,3.45,1.57,1.57,0,0,0,1.88,2.27,3.59,3.59,0,0,1,2.28,0,2.79,2.79,0,0,1,2,2.08A5,5,0,0,1,106.24,62a1.58,1.58,0,0,0,.62,2.64A4.77,4.77,0,0,1,109,66,4.59,4.59,0,0,1,110.12,69.8Z"/><path class="cls-2" d="M86.46,57.4a1.58,1.58,0,0,0,1.22-1.87,7.92,7.92,0,0,0-1.87-3.68,7.69,7.69,0,0,0-6.33-2.52,7.15,7.15,0,0,0-4,1.78A7.12,7.12,0,0,0,70,48.52H70a7.15,7.15,0,0,0-5.78,3.12,7.08,7.08,0,0,0-6-1.56,7,7,0,0,0-3.85,2.2,7.12,7.12,0,0,0-1.81,4.07A1.59,1.59,0,0,0,54,58.09h.16a1.56,1.56,0,0,0,1.56-1.42,3.92,3.92,0,0,1,7.45-1.3,1.58,1.58,0,0,0,3-.38A4.06,4.06,0,0,1,70,51.68h0a4,4,0,0,1,3.73,2.68,1.58,1.58,0,0,0,2.85.24A4.16,4.16,0,0,1,83.46,54a4.82,4.82,0,0,1,1.11,2.21A1.6,1.6,0,0,0,86.46,57.4Z"/><path class="cls-2" d="M94,61.54a1.58,1.58,0,0,0-1.15,2.94A3.91,3.91,0,0,1,92.1,72a1.58,1.58,0,0,0-.44,3,4.08,4.08,0,0,1,2.15,4.62,4,4,0,0,1-3.59,2.91,1.57,1.57,0,0,0-1,2.68A4.17,4.17,0,0,1,88,92a4.75,4.75,0,0,1-2.42.48,1.58,1.58,0,0,0-.2,3.16l.51,0a7.9,7.9,0,0,0,3.53-.83,7.71,7.71,0,0,0,4.14-5.42A7.16,7.16,0,0,0,92.89,85a7,7,0,0,0,2.53-11A7.07,7.07,0,0,0,94,61.54Z"/><path class="cls-2" d="M71.1,72.8A1.33,1.33,0,1,0,69.4,72,1.34,1.34,0,0,0,71.1,72.8Z"/><circle class="cls-2" cx="76.31" cy="75.9" r="2.07"/><circle class="cls-2" cx="71.08" cy="76.84" r="1.24"/><circle class="cls-2" cx="68.04" cy="80.95" r="1.81"/></g></g></svg>