<svg xmlns="http://www.w3.org/2000/svg" viewBox="0 0 141.2 141.2"><defs><style>.cls-1{}.cls-2{fill:none;}</style></defs><g id="Calque_2" data-name="Calque 2"><g id="Layer_1" data-name="Layer 1"><path class="cls-1" d="M96.52,60.33a10,10,0,0,0-7.2-3h-.8a9.86,9.86,0,0,0-8.8-5.7,9.7,9.7,0,0,0-1.7.1,41.45,41.45,0,0,1-14.9,0,9.68,9.68,0,0,0-10.5,5.6,10.59,10.59,0,0,0-8,3,9.93,9.93,0,0,0-1.8,12,43.37,43.37,0,0,0,16.1,16,9.12,9.12,0,0,0,4.8,1.3,10.19,10.19,0,0,0,6.9-2.7,10.49,10.49,0,0,0,6.9,2.7,8.88,8.88,0,0,0,4.8-1.3,44.89,44.89,0,0,0,16.1-16A10,10,0,0,0,96.52,60.33Zm-33.7-6.6c.2,0,.3.1.5.1a7.44,7.44,0,0,0,7.3,7.1h0a7.36,7.36,0,0,0,5.1-2.1,7.07,7.07,0,0,0,2.1-4.9.9.9,0,0,0,.5-.1,5.7,5.7,0,0,1,1.3-.1,7.88,7.88,0,0,1,6.8,4.1,9.56,9.56,0,0,0-5,3.6,41.59,41.59,0,0,1-10.3,10.2c-.2.1-.4.3-.6.4a2.09,2.09,0,0,0-.6-.4,41.59,41.59,0,0,1-10.3-10.2,8.94,8.94,0,0,0-5.1-3.6A8.07,8.07,0,0,1,62.82,53.73Zm-2.9,32.9a41.59,41.59,0,0,1-15.3-15.3,7.82,7.82,0,0,1,1.5-9.6,8.18,8.18,0,0,1,5.8-2.4h.7a7.58,7.58,0,0,1,5.5,3.1,1.38,1.38,0,0,1,.3.4,7.15,7.15,0,0,0,5.3,12,6.8,6.8,0,0,0,4.8-1.9c.1.1.3.2.4.3a7.7,7.7,0,0,1,3.2,5.5,8.41,8.41,0,0,1-2.4,6.5A8.23,8.23,0,0,1,59.92,86.63Zm36.7-15.3a42.62,42.62,0,0,1-15.4,15.3,7,7,0,0,1-3.8,1,8.56,8.56,0,0,1-5.5-2.1,9.8,9.8,0,0,0,.1-12.1c.1-.1.2-.2.3-.2s.3-.2.4-.3a7.47,7.47,0,0,0,4.8,1.9,7.28,7.28,0,0,0,5.1-2.1,6.79,6.79,0,0,0,2.1-5.1,7.08,7.08,0,0,0-1.9-4.8,1.38,1.38,0,0,0,.3-.4,7.54,7.54,0,0,1,6.2-3.2,8.43,8.43,0,0,1,5.8,2.4A8,8,0,0,1,96.62,71.33Z"/><rect class="cls-2" width="141.2" height="141.2" rx="70.6"/></g></g></svg>