<svg xmlns="http://www.w3.org/2000/svg" viewBox="0 0 141.2 141.2"><defs><style>.cls-1{fill:none;}.cls-2{}</style></defs><g id="Calque_2" data-name="Calque 2"><g id="Layer_1" data-name="Layer 1"><rect class="cls-1" width="141.2" height="141.2" rx="70.6"/><path class="cls-2" d="M96.31,98.26c-.64,0-1.3,0-2-.07l-3.89,0h0l-3.88,0a26.21,26.21,0,0,1-7.75-.57,1.67,1.67,0,0,1,.77-3.24,23,23,0,0,0,6.82.48h.13l3.93,0,3.93,0h.14c7.44.51,13.47-2,17.92-7.48A25.8,25.8,0,0,0,117,78.72l0-.13c5.65-16-1.57-33.47-17.16-41.62a42.25,42.25,0,0,1-9.46-7.37A41.87,41.87,0,0,1,81,37,35.85,35.85,0,0,0,64.57,54.7a1.67,1.67,0,1,1-3.08-1.29h0A39.19,39.19,0,0,1,79.43,34c4.93-2.57,9.72-7.89,9.76-8a1.68,1.68,0,0,1,2.36-.13l.12.13c0,.06,4.86,5.38,9.77,8a39.07,39.07,0,0,1,17.91,19.32,36.37,36.37,0,0,1,.87,26.29,28.75,28.75,0,0,1-5.13,9.74A23.29,23.29,0,0,1,96.31,98.26Z"/><path class="cls-2" d="M90.43,98.18a1.66,1.66,0,0,1-1.66-1.67h0V27.25a1.67,1.67,0,1,1,3.33,0V96.51A1.67,1.67,0,0,1,90.43,98.18Z"/><path class="cls-2" d="M101.57,60.4h-.11a1.66,1.66,0,0,1-1.55-1.77h0c.53-8.24-2.26-12.76-2.29-12.8a1.66,1.66,0,0,1,.51-2.3,1.67,1.67,0,0,1,2.3.51c.14.22,3.41,5.5,2.8,14.81A1.66,1.66,0,0,1,101.57,60.4Z"/><path class="cls-2" d="M101.1,90a1.68,1.68,0,0,1-1.66-1.68,1.79,1.79,0,0,1,.22-.82c2.6-4.54-.26-11.22-.29-11.29a1.67,1.67,0,0,1,3-1.33c.15.34,3.55,8.3.13,14.28A1.67,1.67,0,0,1,101.1,90Z"/><path class="cls-2" d="M111.11,75.33h-.22a1.68,1.68,0,0,1-1.44-1.87h0A19,19,0,0,0,108,62.7a1.67,1.67,0,0,1,2.91-1.63,22,22,0,0,1,1.9,12.81A1.66,1.66,0,0,1,111.11,75.33Z"/><path class="cls-2" d="M79.29,60.4a1.67,1.67,0,0,1-1.66-1.56C77,49.53,80.3,44.27,80.43,44a1.67,1.67,0,0,1,2.83,1.78c-.05.07-2.83,4.68-2.3,12.81A1.67,1.67,0,0,1,79.4,60.4h-.11Z"/><path class="cls-2" d="M56.64,115.68c-.64,0-1.29,0-2-.06l-3.88,0h0l-3.88,0c-10.72.7-17.2-4.41-20.76-8.82A28.84,28.84,0,0,1,21,97.06a36.4,36.4,0,0,1,.87-26.3A39.17,39.17,0,0,1,39.77,51.44c4.93-2.57,9.71-7.89,9.76-7.94a1.66,1.66,0,0,1,2.35-.14.86.86,0,0,1,.13.14c.05,0,4.86,5.38,9.76,7.94A39.19,39.19,0,0,1,79.7,70.76a36.35,36.35,0,0,1,.86,26.3,28.84,28.84,0,0,1-5.13,9.74A23.3,23.3,0,0,1,56.64,115.68Zm-1.92-3.4a.21.21,0,0,1,.11,0c7.45.5,13.48-2,17.93-7.49a25.66,25.66,0,0,0,4.59-8.65s0-.09.05-.14C83,80,75.82,62.54,60.23,54.39A42.25,42.25,0,0,1,50.77,47a41.56,41.56,0,0,1-9.46,7.38C25.73,62.55,18.51,80,24.15,96c0,0,0,.1,0,.15a25.71,25.71,0,0,0,4.59,8.64c4.46,5.47,10.49,8,17.93,7.49h.14l3.92,0,3.93,0Z"/><path class="cls-2" d="M50.77,97.55a1.66,1.66,0,0,1-1.66-1.67V74.57a1.67,1.67,0,1,1,3.33,0V95.88A1.67,1.67,0,0,1,50.77,97.55Z"/><path class="cls-2" d="M58.88,109.46c-2.05,0-3.94-1.21-5.64-3.59a1.69,1.69,0,0,1-.31-1v-4.5l-2.16-2.16-1.92,1.92-.24,4.55a1.64,1.64,0,0,1-.35.94c-.27.35-2.77,3.4-6.11,3.08-2-.18-3.64-1.47-5-3.81-1.59-.3-4.82-1.2-6.57-3.69-.3-.41-2.06-3.18-.58-8.42-1.54-1.3-4.33-4.13-4.66-7.72a8.45,8.45,0,0,1,2.79-6.87c.39-.43,3.21-3.32,7-2.83,3,.39,5.53,2.71,7.62,6.91a1.67,1.67,0,0,1-3,1.49c-1.56-3.1-3.3-4.86-5.07-5.09-2.19-.3-4.06,1.74-4.08,1.75a.27.27,0,0,0-.07.08,5.21,5.21,0,0,0-1.86,4.24c.3,3.28,4.19,6,4.22,6a1.67,1.67,0,0,1,.63,1.93C32,97,33.13,99,33.27,99.28h0c1.44,2,5,2.44,5.08,2.44a1.7,1.7,0,0,1,1.33.9c.62,1.21,1.59,2.66,2.78,2.78A4.17,4.17,0,0,0,45.3,104l.25-4.61A1.72,1.72,0,0,1,46,98.25l3.55-3.55a1.67,1.67,0,0,1,2.36,0l3.83,3.82a1.67,1.67,0,0,1,.48,1.18v4.64c.73.92,1.72,1.84,2.74,1.78,1.63-.11,3.22-2.48,3.55-3.11a1.69,1.69,0,0,1,1.06-.82c2-.53,4.6-1.55,5.26-3.44.73-2.11-1.1-4.56-1.12-4.58a1.67,1.67,0,0,1,2.65-2c.12.16,2.93,3.87,1.63,7.69-.86,2.5-3.18,4.31-6.92,5.41-.83,1.31-2.91,4-5.89,4.22Z"/><path class="cls-2" d="M67.33,95.12a6.36,6.36,0,0,1-.87-.06c-3-.39-5.52-2.71-7.62-6.9a1.67,1.67,0,1,1,3-1.49h0c1.54,3.09,3.3,4.85,5.07,5.09C69.09,92.05,71,90,71,90l.07-.07a5.21,5.21,0,0,0,1.86-4.24c-.3-3.27-4.18-6-4.22-6.05a1.66,1.66,0,0,1-.63-1.92c1.49-4.25.37-6.3.22-6.54h0c-1.19-1.71-4.07-2.34-5.08-2.44a1.7,1.7,0,0,1-1.32-.9c-.62-1.2-1.59-2.66-2.79-2.77s-2.25.85-2.84,1.45L56,71.11a1.62,1.62,0,0,1-.49,1.09L52,75.75a1.64,1.64,0,0,1-2.35,0l-3.84-3.83a1.66,1.66,0,0,1-.49-1.17V66.11c-.73-.93-1.71-1.85-2.74-1.78-1.63.1-3.21,2.47-3.55,3.1a1.64,1.64,0,0,1-1,.82c-2,.53-4.62,1.56-5.27,3.45-.72,2.11,1.1,4.55,1.12,4.57a1.67,1.67,0,0,1-2.64,2c-.12-.16-2.94-3.87-1.63-7.69.85-2.49,3.18-4.31,6.91-5.41.82-1.3,2.92-4,5.9-4.22,2.17-.14,4.18,1.07,6,3.59a1.67,1.67,0,0,1,.31,1v4.5l2.15,2.16,1.92-1.93.24-4.55a1.71,1.71,0,0,1,.36-.94c.27-.35,2.76-3.4,6.1-3.08,2,.19,3.65,1.47,5,3.81,1.58.31,4.82,1.21,6.57,3.7.29.41,2,3.18.58,8.42,1.53,1.3,4.33,4.13,4.66,7.71a8.5,8.5,0,0,1-2.8,6.88A8.85,8.85,0,0,1,67.33,95.12Z"/></g></g></svg>