<svg xmlns="http://www.w3.org/2000/svg" viewBox="0 0 141.2 141.2"><defs><style>.cls-1{}.cls-2{fill:none;}</style></defs><g id="Calque_2" data-name="Calque 2"><g id="Layer_1" data-name="Layer 1"><path class="cls-1" d="M49.88,63.49a.74.74,0,0,0-.94.48A43.53,43.53,0,0,0,47,72.5a44.77,44.77,0,0,0-.12,9.82.75.75,0,0,0,.74.67h.08a.75.75,0,0,0,.67-.82,43,43,0,0,1,.11-9.49,42.2,42.2,0,0,1,1.86-8.24A.76.76,0,0,0,49.88,63.49Z"/><path class="cls-1" d="M61,53.67a.75.75,0,0,0,.65-.84.74.74,0,0,0-.84-.64,12.54,12.54,0,0,1-7.6-1.49A12.88,12.88,0,0,1,47.88,45a.74.74,0,0,0-1.35.63A14.54,14.54,0,0,0,50.91,51a14.07,14.07,0,0,1-.65,3.21A14.74,14.74,0,0,1,48,58.53a.75.75,0,0,0,.14,1,.78.78,0,0,0,.45.15.76.76,0,0,0,.6-.29,16,16,0,0,0,3.12-7.52l.13.08a13.87,13.87,0,0,0,6.83,1.77A13.12,13.12,0,0,0,61,53.67Z"/><path class="cls-1" d="M45.19,57.12a37.49,37.49,0,0,0-5.66,4,37.91,37.91,0,0,0-6.72,7.62.76.76,0,0,0,.21,1,.78.78,0,0,0,.41.12.77.77,0,0,0,.63-.33,36.61,36.61,0,0,1,6.44-7.32,37,37,0,0,1,5.44-3.87.75.75,0,1,0-.75-1.29Z"/><path class="cls-1" d="M33.07,64.8a13.85,13.85,0,0,1,2.82-3.46,13.4,13.4,0,0,1,2.91-2,.75.75,0,0,0,.33-1,.76.76,0,0,0-1-.33,15.8,15.8,0,0,0-3.23,2.21,15.24,15.24,0,0,0-3.12,3.84.75.75,0,0,0,.28,1,.82.82,0,0,0,.37.1A.76.76,0,0,0,33.07,64.8Z"/><path class="cls-1" d="M58.94,64.41a16.14,16.14,0,0,1,2.71,5.26.76.76,0,0,0,.72.53l.22,0a.75.75,0,0,0,.49-.93,17.76,17.76,0,0,0-3-5.75,17.51,17.51,0,0,0-4.39-4,.74.74,0,0,0-1,.22.75.75,0,0,0,.22,1A16.07,16.07,0,0,1,58.94,64.41Z"/><path class="cls-1" d="M59.16,57.71a.74.74,0,0,0,.31,1A11,11,0,0,1,62.4,61a11.27,11.27,0,0,1,1.87,2.84.75.75,0,0,0,.68.44.87.87,0,0,0,.31-.07.75.75,0,0,0,.37-1A12.52,12.52,0,0,0,63.5,60a12.34,12.34,0,0,0-3.33-2.6A.74.74,0,0,0,59.16,57.71Z"/><path class="cls-1" d="M93.17,58.48a4.92,4.92,0,0,0-3.94.18c-4.21,2.21-3.77,11.26,1,20.6,3.35,6.56,8.1,11.62,12.08,12.88a6.35,6.35,0,0,0,1.89.32,4.36,4.36,0,0,0,2.06-.5h0c4.2-2.21,3.76-11.26-1-20.6C101.9,64.8,97.16,59.74,93.17,58.48Z"/><path class="cls-1" d="M113.53,67.13l-.06-.11a41.25,41.25,0,0,0-12.21-14c-5.88-4.13-11.67-5.2-16.3-3l-.28.14h0l0,0,0,0-.1.05A33.2,33.2,0,0,0,79,53.81c-.27-.55-.55-1.09-.85-1.62h0A29.51,29.51,0,0,0,75.29,48a31,31,0,0,0-3.68-3.74A14.79,14.79,0,0,0,73,43.1,13.81,13.81,0,0,0,74.91,41a.75.75,0,0,0-1.22-.86A12.92,12.92,0,0,1,72,42a11.76,11.76,0,0,1-1.62,1.29c-.75-.57-1.53-1.11-2.34-1.61a20.13,20.13,0,0,0,2.44-3.57.75.75,0,0,0-1.32-.71,18.84,18.84,0,0,1-2.34,3.4l-.09.11a28.65,28.65,0,0,0-9.45-3.23,29.12,29.12,0,0,0-10.24.23,13.92,13.92,0,0,1-.2-3.16.75.75,0,1,0-1.49-.08,15.77,15.77,0,0,0,.23,3.57,29.31,29.31,0,0,0-5.79,2.18l-.09-.07a14.15,14.15,0,0,1-2.44-2.51.75.75,0,0,0-1.05-.15.76.76,0,0,0-.15,1,16.26,16.26,0,0,0,2.31,2.45,28.87,28.87,0,0,0-4.91,3.54h0A31.24,31.24,0,0,0,30.38,48a30.05,30.05,0,0,0-6.85,18.43c0,.24,0,.47,0,.7a30.18,30.18,0,0,0,.92,7.4h0v0a29.89,29.89,0,0,0,2.92,7.29h0a29.45,29.45,0,0,0,16,13.41h0a29,29,0,0,0,26-3.59l0,0a17.94,17.94,0,0,0,2.85,3.59l.57.54A14.34,14.34,0,0,0,71,98a.75.75,0,0,0,.21,1,.78.78,0,0,0,.41.12.76.76,0,0,0,.63-.33,12.22,12.22,0,0,1,1.62-2A33.74,33.74,0,0,0,78.22,100h0a32.31,32.31,0,0,0,7.4,3.33,10.59,10.59,0,0,0-.75,3.09.74.74,0,0,0,.67.81h.07a.75.75,0,0,0,.75-.68,9.49,9.49,0,0,1,.71-2.83c.78.2,1.56.36,2.34.5a31.65,31.65,0,0,0,5.36.46,33.32,33.32,0,0,0,15-3.63,10,10,0,0,0,.93-.49l0,0,.13-.07c4.27-2.64,6.69-8.07,6.82-15.29A40,40,0,0,0,113.53,67.13Zm-43.42,1.3.59-.26A16.54,16.54,0,0,0,74.12,66a.75.75,0,1,0-1-1.15A14.47,14.47,0,0,1,71,66.33l0-.09a31.2,31.2,0,0,1,5.38-8,30.77,30.77,0,0,1,2.46-2.38A20.94,20.94,0,0,0,77.1,59.8a27,27,0,0,0,1.27,20.27,20.73,20.73,0,0,0,1.14,2,19.35,19.35,0,0,0,1.84,2.38,29,29,0,0,1-6.13,2,28.26,28.26,0,0,1-6.29.62,19.52,19.52,0,0,1-.5-2.24c-.13-.92-.23-1.85-.29-2.77A20.36,20.36,0,0,1,71.61,79a20.14,20.14,0,0,1,3.25-1.87.75.75,0,0,0-.62-1.36A22.2,22.2,0,0,0,68.06,80c0-1,0-2.08.13-3.11a21.05,21.05,0,0,1,2.46-2.05,19.79,19.79,0,0,1,2.75-1.61.75.75,0,0,0-.66-1.35,21.76,21.76,0,0,0-2.95,1.74c-.45.32-.89.66-1.32,1A30.44,30.44,0,0,1,70.11,68.43ZM108.46,96.5h0c-4.11,2.54-9.87-.1-10.11-.21a13.62,13.62,0,0,1-6.78-7.52,10.6,10.6,0,0,0-3.84-4.84,16.33,16.33,0,0,1-4.4-4.45c-3-4.56-3.86-11.32-2.19-17.23,1.11-3.93,3.2-6.86,5.74-8A7.31,7.31,0,0,1,90,53.54c6.6,0,15.21,7.48,19.4,15.62C114.15,78.35,114.79,92.59,108.46,96.5ZM68.38,87.81h0l-.47.15Zm2,2.73-.18-.33a17.43,17.43,0,0,1-.77-1.64,30.33,30.33,0,0,0,6.08-.65,30.68,30.68,0,0,0,6.91-2.37,21.17,21.17,0,0,0,2,1.72A35.81,35.81,0,0,1,78,89.52,34.93,34.93,0,0,1,70.4,90.54ZM44.25,94a56.08,56.08,0,0,1,3.2-31.4A.75.75,0,0,0,46.06,62a57.74,57.74,0,0,0-3.44,31.37A28,28,0,0,1,28.78,81.29,26.63,26.63,0,0,1,30,76.09a25.74,25.74,0,0,1,1.57-3.72.75.75,0,0,0-.32-1,.76.76,0,0,0-1,.32,28.33,28.33,0,0,0-1.66,3.94,27.07,27.07,0,0,0-.91,3.43A27.78,27.78,0,0,1,26,74.37a21,21,0,0,1,2.29-4.81,20.8,20.8,0,0,1,2.32-3,.74.74,0,0,0-1.08-1A21.14,21.14,0,0,0,27,68.75a22,22,0,0,0-1.6,2.94,28.26,28.26,0,0,1-.37-4.6v-.45a18.23,18.23,0,0,1,2.4-3,17.81,17.81,0,0,1,3-2.41.75.75,0,1,0-.8-1.26,19.11,19.11,0,0,0-3.26,2.62c-.4.41-.79.84-1.16,1.28a28.56,28.56,0,0,1,6.11-14.67,26.08,26.08,0,0,1,2.79.15,25.08,25.08,0,0,1,4.29.86l.21,0a.75.75,0,0,0,.21-1.46,26.08,26.08,0,0,0-4.54-.91c-.56-.07-1.12-.11-1.68-.14a21.93,21.93,0,0,1,1.68-1.66,18.91,18.91,0,0,1,11.12,3.45.72.72,0,0,0,.42.13.75.75,0,0,0,.43-1.36,20.59,20.59,0,0,0-6.68-3.07A19.78,19.78,0,0,0,36,44.62a27,27,0,0,1,3.7-2.42,14.63,14.63,0,0,0,2,1.16.8.8,0,0,0,.33.08A.75.75,0,0,0,42.31,42a11.72,11.72,0,0,1-1.1-.6,27.41,27.41,0,0,1,4.72-1.7,15.91,15.91,0,0,0,.94,2.49.76.76,0,0,0,.67.42.78.78,0,0,0,.33-.07.75.75,0,0,0,.35-1,13,13,0,0,1-.83-2.18,27.76,27.76,0,0,1,7.67-.44A15.25,15.25,0,0,0,53.75,40a16.21,16.21,0,0,0-2.14,2.46.76.76,0,0,0,.18,1,.8.8,0,0,0,.43.13.77.77,0,0,0,.62-.31,13.74,13.74,0,0,1,1.94-2.24,14.38,14.38,0,0,1,2.54-1.9c.69.12,1.39.26,2.08.43a21.61,21.61,0,0,0-2.44,2,21.94,21.94,0,0,0-3.54,4.44.74.74,0,0,0,.25,1,.76.76,0,0,0,.38.11.74.74,0,0,0,.64-.36A20.69,20.69,0,0,1,58,42.77a20.92,20.92,0,0,1,3.27-2.59,27.52,27.52,0,0,1,4.41,1.87A18.3,18.3,0,0,1,63.37,44a.75.75,0,0,0,.43,1.36.76.76,0,0,0,.43-.14A19.58,19.58,0,0,0,67,42.82a27.77,27.77,0,0,1,5.88,4.76,22.27,22.27,0,0,0-6.92.7.75.75,0,0,0,.19,1.47.62.62,0,0,0,.19,0,21,21,0,0,1,4.32-.67,20.13,20.13,0,0,1,3.64.15c.58.72,1.13,1.47,1.64,2.25a25.51,25.51,0,0,0-4.18-.41,25,25,0,0,0-6.49.79.76.76,0,0,0-.53.91.74.74,0,0,0,.72.56l.19,0a22.78,22.78,0,0,1,6.09-.74,23.31,23.31,0,0,1,5.26.66c.28.52.56,1,.81,1.59-.82.72-1.62,1.49-2.36,2.28a14,14,0,0,1-3.52.45h0a14.65,14.65,0,0,1-3.15-.37.75.75,0,0,0-.33,1.46,15.68,15.68,0,0,0,3.48.4h0a15.51,15.51,0,0,0,1.93-.12,32.43,32.43,0,0,0-4.2,6.71c-.27.56-.51,1.13-.73,1.68a14.22,14.22,0,0,1-3.87.88.75.75,0,0,0,.07,1.5h.06a16,16,0,0,0,3.08-.58,33.33,33.33,0,0,0-1.57,7.38,34.42,34.42,0,0,0-.09,5.38h0c.06,1.06.17,2.14.33,3.2a18.06,18.06,0,0,0,.71,3h0a18,18,0,0,0,.93,2.29,27.21,27.21,0,0,1-7.07,3.58,41.51,41.51,0,0,1-1.41-4.56A44,44,0,0,1,58.84,80a.75.75,0,1,0-1.49,0,45,45,0,0,0,1.32,9.68,43.66,43.66,0,0,0,1.43,4.64A27.51,27.51,0,0,1,44.25,94Zm45.42,8.78q-.93-.17-1.86-.39a8.78,8.78,0,0,1,2.36-2.46.75.75,0,1,0-.87-1.22,10.6,10.6,0,0,0-2.9,3.1,1,1,0,0,1-.1.17,30.29,30.29,0,0,1-5.24-2.09c.9-.13,1.79-.3,2.68-.51A28.9,28.9,0,0,0,87.82,98a.75.75,0,1,0-.56-1.39,27.25,27.25,0,0,1-3.87,1.24,28.29,28.29,0,0,1-4.58.69A33.26,33.26,0,0,1,75,95.82,12.41,12.41,0,0,1,78.26,94a.75.75,0,1,0-.52-1.4,13.69,13.69,0,0,0-3.86,2.2l-.65-.62A15.24,15.24,0,0,1,71.34,92a38.08,38.08,0,0,0,7-1,37.59,37.59,0,0,0,7.44-2.7A6.12,6.12,0,0,1,87.07,90a3.49,3.49,0,0,1,.24.53c.26.64.54,1.25.83,1.82.09.19.2.38.3.56a20.41,20.41,0,0,1-8.57,1.54.76.76,0,0,0-.78.72.75.75,0,0,0,.72.77l.79,0a22.38,22.38,0,0,0,8.62-1.75,17.51,17.51,0,0,0,7.22,6.33,20.53,20.53,0,0,0,6.25,1.64A30.55,30.55,0,0,1,89.67,102.74Z"/><rect class="cls-2" width="141.2" height="141.2" rx="70.6"/></g></g></svg>