<svg xmlns="http://www.w3.org/2000/svg" viewBox="0 0 141.2 141.2"><defs><style>.cls-1{}.cls-2{fill:none;}</style></defs><g id="Calque_2" data-name="Calque 2"><g id="Layer_1" data-name="Layer 1"><path class="cls-1" d="M54.17,86.4h2.9a5.23,5.23,0,0,0,5.2-5.2V62a5.23,5.23,0,0,0-5.2-5.2h-2.9A5.23,5.23,0,0,0,49,62V81.1A5.13,5.13,0,0,0,54.17,86.4Z"/><path class="cls-1" d="M88.17,56.8h-2.9a5.23,5.23,0,0,0-5.2,5.2V81.1a5.23,5.23,0,0,0,5.2,5.2h2.9a5.23,5.23,0,0,0,5.2-5.2V62A5.16,5.16,0,0,0,88.17,56.8Z"/><path class="cls-1" d="M49.47,55.5h12.3L67,60.7a1.49,1.49,0,0,0,.9.4,1.22,1.22,0,0,0,.9-.4,1.27,1.27,0,0,0,0-1.8l-.6-.6h6l-.6.6a1.27,1.27,0,0,0,0,1.8,1.49,1.49,0,0,0,.9.4,1.22,1.22,0,0,0,.9-.4l5.2-5.2h12.3a1.22,1.22,0,0,0,1.2-1.2,1.29,1.29,0,0,0-1.2-1.2h-9.6V36.3h2.2a1.22,1.22,0,0,0,1.2-1.2,1.3,1.3,0,0,0-1.2-1.3H66.07V27.3a1.22,1.22,0,0,0-1.2-1.2,1.29,1.29,0,0,0-1.2,1.2v6.4H57a1.22,1.22,0,0,0-1.2,1.2A1.29,1.29,0,0,0,57,36.1h2.2V52.9h-9.6a1.22,1.22,0,0,0-1.2,1.2C48.37,54.7,48.77,55.5,49.47,55.5Zm12.1-19.2h19.2V53.1H80a1.22,1.22,0,0,0-.9.4l-2.4,2.4h-11l-2.5-2.5a1.49,1.49,0,0,0-.9-.4h-.8V36.3Z"/><path class="cls-1" d="M31.17,97.7a1.22,1.22,0,0,0,1.2-1.2V91.7h7.5v4.8a1.22,1.22,0,0,0,1.2,1.2,1.29,1.29,0,0,0,1.2-1.2V91.7h7.5v4.8A1.22,1.22,0,0,0,51,97.7a1.29,1.29,0,0,0,1.2-1.2V91.7h7.5v4.8a1.22,1.22,0,0,0,1.2,1.2,1.29,1.29,0,0,0,1.2-1.2V91.7h7.5v4.8a1.22,1.22,0,0,0,1.2,1.2A1.29,1.29,0,0,0,72,96.5V91.7h7.5v4.8a1.22,1.22,0,0,0,1.2,1.2,1.29,1.29,0,0,0,1.2-1.2V91.7h7.5v4.8a1.22,1.22,0,0,0,1.2,1.2,1.29,1.29,0,0,0,1.2-1.2V91.7h7.5v4.8a1.22,1.22,0,0,0,1.2,1.2,1.29,1.29,0,0,0,1.2-1.2V91.7h7.5v4.8a1.22,1.22,0,0,0,1.2,1.2,1.29,1.29,0,0,0,1.2-1.2v-6a1.22,1.22,0,0,0-1.2-1.2H76.07L72,80.6V67.4a1.22,1.22,0,0,0-1.2-1.2,1.29,1.29,0,0,0-1.2,1.2V80.6l-4.1,8.7H31.17A1.22,1.22,0,0,0,30,90.5v6A1.16,1.16,0,0,0,31.17,97.7Zm39.6-13.9,2.5,5.4h-5.1Z"/><path class="cls-1" d="M54.57,107.5a8.34,8.34,0,0,0-2.5-5.9,1.27,1.27,0,0,0-1.8,1.8,5.83,5.83,0,0,1,1.7,4.1,5.66,5.66,0,0,1-1.7,4.1,8.21,8.21,0,0,0,0,11.8,1.49,1.49,0,0,0,.9.4,1.22,1.22,0,0,0,.9-.4,1.27,1.27,0,0,0,0-1.8,5.83,5.83,0,0,1-1.7-4.1,5.66,5.66,0,0,1,1.7-4.1A8.34,8.34,0,0,0,54.57,107.5Z"/><path class="cls-1" d="M64.57,107.5a8.34,8.34,0,0,0-2.5-5.9,1.27,1.27,0,0,0-1.8,1.8,5.83,5.83,0,0,1,1.7,4.1,5.66,5.66,0,0,1-1.7,4.1,8.21,8.21,0,0,0,0,11.8,1.49,1.49,0,0,0,.9.4,1.22,1.22,0,0,0,.9-.4,1.27,1.27,0,0,0,0-1.8,5.83,5.83,0,0,1-1.7-4.1,5.66,5.66,0,0,1,1.7-4.1A8.34,8.34,0,0,0,64.57,107.5Z"/><path class="cls-1" d="M44.57,107.5a8.34,8.34,0,0,0-2.5-5.9,1.27,1.27,0,0,0-1.8,1.8,5.83,5.83,0,0,1,1.7,4.1,5.66,5.66,0,0,1-1.7,4.1,8.21,8.21,0,0,0,0,11.8,1.49,1.49,0,0,0,.9.4,1.22,1.22,0,0,0,.9-.4,1.27,1.27,0,0,0,0-1.8,5.83,5.83,0,0,1-1.7-4.1,5.66,5.66,0,0,1,1.7-4.1A8.34,8.34,0,0,0,44.57,107.5Z"/><path class="cls-1" d="M74.57,107.5a8.34,8.34,0,0,0-2.5-5.9,1.27,1.27,0,1,0-1.8,1.8,5.83,5.83,0,0,1,1.7,4.1,5.66,5.66,0,0,1-1.7,4.1,8.21,8.21,0,0,0,0,11.8,1.49,1.49,0,0,0,.9.4,1.22,1.22,0,0,0,.9-.4,1.27,1.27,0,0,0,0-1.8,5.83,5.83,0,0,1-1.7-4.1,5.66,5.66,0,0,1,1.7-4.1A8.34,8.34,0,0,0,74.57,107.5Z"/><path class="cls-1" d="M84.57,107.5a8.34,8.34,0,0,0-2.5-5.9,1.27,1.27,0,1,0-1.8,1.8,5.83,5.83,0,0,1,1.7,4.1,5.66,5.66,0,0,1-1.7,4.1,8.21,8.21,0,0,0,0,11.8,1.49,1.49,0,0,0,.9.4,1.22,1.22,0,0,0,.9-.4,1.27,1.27,0,0,0,0-1.8,5.83,5.83,0,0,1-1.7-4.1,5.66,5.66,0,0,1,1.7-4.1A8.34,8.34,0,0,0,84.57,107.5Z"/><path class="cls-1" d="M104.57,107.5a8.34,8.34,0,0,0-2.5-5.9,1.27,1.27,0,1,0-1.8,1.8,5.83,5.83,0,0,1,1.7,4.1,5.66,5.66,0,0,1-1.7,4.1,8.21,8.21,0,0,0,0,11.8,1.49,1.49,0,0,0,.9.4,1.22,1.22,0,0,0,.9-.4,1.27,1.27,0,0,0,0-1.8,5.83,5.83,0,0,1-1.7-4.1,5.66,5.66,0,0,1,1.7-4.1A8.34,8.34,0,0,0,104.57,107.5Z"/><path class="cls-1" d="M94.57,107.5a8.34,8.34,0,0,0-2.5-5.9,1.27,1.27,0,1,0-1.8,1.8,5.83,5.83,0,0,1,1.7,4.1,5.66,5.66,0,0,1-1.7,4.1,8.21,8.21,0,0,0,0,11.8,1.49,1.49,0,0,0,.9.4,1.22,1.22,0,0,0,.9-.4,1.27,1.27,0,0,0,0-1.8,5.83,5.83,0,0,1-1.7-4.1,5.66,5.66,0,0,1,1.7-4.1A8.34,8.34,0,0,0,94.57,107.5Z"/><path class="cls-1" d="M34.57,107.5a8.34,8.34,0,0,0-2.5-5.9,1.27,1.27,0,0,0-1.8,1.8,5.83,5.83,0,0,1,1.7,4.1,5.66,5.66,0,0,1-1.7,4.1,8.21,8.21,0,0,0,0,11.8,1.49,1.49,0,0,0,.9.4,1.22,1.22,0,0,0,.9-.4,1.27,1.27,0,0,0,0-1.8,5.83,5.83,0,0,1-1.7-4.1,5.66,5.66,0,0,1,1.7-4.1A8.34,8.34,0,0,0,34.57,107.5Z"/><path class="cls-1" d="M110.27,117.5a5.66,5.66,0,0,1,1.7-4.1,8.21,8.21,0,0,0,0-11.8,1.27,1.27,0,1,0-1.8,1.8,5.83,5.83,0,0,1,1.7,4.1,5.66,5.66,0,0,1-1.7,4.1,8.21,8.21,0,0,0,0,11.8,1.49,1.49,0,0,0,.9.4,1.22,1.22,0,0,0,.9-.4,1.27,1.27,0,0,0,0-1.8A6.3,6.3,0,0,1,110.27,117.5Z"/><rect class="cls-2" width="141.2" height="141.2" rx="70.6"/><path class="cls-1" d="M70.6,30.48A40.12,40.12,0,1,0,110.72,70.6,40.12,40.12,0,0,0,70.6,30.48ZM34.66,70.6A35.93,35.93,0,0,1,96.5,45.7L44.62,95.42A35.83,35.83,0,0,1,34.66,70.6ZM70.6,106.54A35.77,35.77,0,0,1,48.21,98.7l51.65-49a35.93,35.93,0,0,1-29.26,56.8Z"/></g></g></svg>