<svg xmlns="http://www.w3.org/2000/svg" viewBox="0 0 141.2 141.2"><defs><style>.cls-1{fill:none;}.cls-2,.cls-3{}.cls-2{fill-rule:evenodd;}</style></defs><g id="Calque_2" data-name="Calque 2"><g id="Layer_1" data-name="Layer 1"><rect class="cls-1" width="141.2" height="141.2" rx="70.6"/><path class="cls-2" d="M70.6,42.71l8.47,14.78c4.17,7.13,10,14.39,10,22.59a18.42,18.42,0,0,1-36.84,0c0-8.2,5.78-15.46,9.82-22.59ZM79.88,82.5A1.72,1.72,0,0,1,82,81.29a1.92,1.92,0,0,1,1.34,2.15,13.49,13.49,0,0,1-10.75,9.68,1.77,1.77,0,1,1-.54-3.5A9.5,9.5,0,0,0,79.88,82.5Z"/><path class="cls-3" d="M70.6,30.48A40.12,40.12,0,1,0,110.72,70.6,40.12,40.12,0,0,0,70.6,30.48ZM34.66,70.6A35.93,35.93,0,0,1,96.5,45.7L44.62,95.42A35.83,35.83,0,0,1,34.66,70.6ZM70.6,106.54A35.77,35.77,0,0,1,48.21,98.7l51.65-49a35.93,35.93,0,0,1-29.26,56.8Z"/></g></g></svg>