<svg xmlns="http://www.w3.org/2000/svg" viewBox="0 0 141.2 141.2"><defs><style>.cls-1{fill:none;}.cls-2{}</style></defs><g id="Calque_2" data-name="Calque 2"><g id="Layer_1" data-name="Layer 1"><rect class="cls-1" width="141.2" height="141.2" rx="70.6"/><path class="cls-2" d="M66.88,81.3h3.27v3.26H66.88Z"/><path class="cls-2" d="M70.15,89.46h3.26v3.27H70.15Z"/><path class="cls-2" d="M70.15,99.27h3.26v3.26H70.15Z"/><path class="cls-2" d="M24.92,91.24a7.08,7.08,0,0,1,5.48-3.39L38.09,94a1.64,1.64,0,0,0,1,.35H44a1.64,1.64,0,0,0,1.6-1.27l2.16-9.74a5,5,0,0,1,.63-1.52.6.6,0,0,0,.08-.08,4.75,4.75,0,0,1,2.65-1.91l.19,0a4.57,4.57,0,0,1,1-.13,4.9,4.9,0,0,1,1,.11l.17.06a3.91,3.91,0,0,1,.81.29l.12.06a5.22,5.22,0,0,1,.8.52l0,0a4.49,4.49,0,0,1,.75.76s0,0,0,0a4.69,4.69,0,0,1,1,2.84v15.85l-7.21,7.21H38.16l-2.79-2.79L33.06,107l3.26,3.27a1.63,1.63,0,0,0,1.16.48h.85L36,116.63a1.64,1.64,0,0,0,1.52,2.24h4.9V115.6H39.89l2-4.9h2.69l2.86,7.14a1.62,1.62,0,0,0,1.51,1,1.58,1.58,0,0,0,.52-.09l4.9-1.63-1-3.1-3.44,1.15-1.8-4.5h2.49a1.6,1.6,0,0,0,1.15-.48l8.17-8.17a1.6,1.6,0,0,0,.48-1.15V95.18l5.88-4.41a1.64,1.64,0,0,0,0-2.61l-6-4.46a7.87,7.87,0,0,0-1.13-3.46L61.9,72a1.64,1.64,0,0,0-.4-1.67A1.61,1.61,0,0,0,59.83,70l-3.94,1.31-2.55-2.55a1.63,1.63,0,0,0-2.31,0l-2.56,2.55L44.53,70A1.62,1.62,0,0,0,42.47,72l2.87,8.64a8.28,8.28,0,0,0-.76,2L42.7,91.1h-3L32,84.92a1.6,1.6,0,0,0-1-.36,10.35,10.35,0,0,0-8.83,5l-2.37,4,2.8,1.68Zm35.43-.14V87.83l2.17,1.63Zm-12-16.42a1.62,1.62,0,0,0,1.67-.4l2.11-2.11,2.11,2.11a1.62,1.62,0,0,0,1.67.4l1.8-.6-1.18,3.54a5.19,5.19,0,0,0-.66-.35,8.34,8.34,0,0,0-1.2-.48l-.31-.1a7.34,7.34,0,0,0-1.06-.19h0c-.31,0-.62-.09-1-.09a7.9,7.9,0,0,0-4.46,1.38l-.07,0-1.25-3.74Z"/><path class="cls-2" d="M35.11,99l-1.79-2.74A12.77,12.77,0,0,0,29.57,100a13.43,13.43,0,0,0-1.87,9.31l3.23-.51a10.11,10.11,0,0,1,1.39-7A9.36,9.36,0,0,1,35.11,99Z"/><path class="cls-2" d="M30.21,94.1l-1.79-2.74a12.77,12.77,0,0,0-3.75,3.75,13.43,13.43,0,0,0-1.87,9.31l3.23-.51a10.11,10.11,0,0,1,1.39-7,9.36,9.36,0,0,1,2.79-2.78Z"/><path class="cls-2" d="M50.55,84.56h3.26v3.27H50.55Z"/><path class="cls-2" d="M62,115.6h3.27v3.27H62Z"/><path class="cls-2" d="M68.51,109.07h3.27v3.26H68.51Z"/><path class="cls-2" d="M101.18,66.6h-9.8a1.63,1.63,0,0,0-1.63,1.63v4.9a4.91,4.91,0,0,0,4.9,4.9h3.27a4.91,4.91,0,0,0,4.9-4.9v-4.9A1.63,1.63,0,0,0,101.18,66.6Zm-1.63,6.53a1.63,1.63,0,0,1-1.63,1.63H94.65A1.63,1.63,0,0,1,93,73.13V69.86h6.53Z"/><path class="cls-2" d="M84.85,118.87h22.87a1.64,1.64,0,0,0,1.63-1.64V82.93h8.17a1.63,1.63,0,0,0,1.63-1.63v-17a4.93,4.93,0,0,0-.83-2.74L112.56,53a8.11,8.11,0,0,0-7.25-4.41h-1a11.44,11.44,0,1,0-16,0h-1A8.12,8.12,0,0,0,80,53.14l-2.64,5.29H66.88a1.63,1.63,0,0,0-1.63,1.63v9.8a1.64,1.64,0,0,0,1.63,1.64H80a9.49,9.49,0,0,0,3.26-.58v46.31a1.64,1.64,0,0,0,1.64,1.64Zm13.07-3.27V86.2H94.65v29.4H86.48V68.68l4.19-7h11.22l4.19,7V115.6Zm3.26-63.7v6.53h-9.8V51.9Zm8.52,2.7a1.14,1.14,0,0,0,.1.19l5.81,8.63a1.62,1.62,0,0,1,.27.91V79.66h-6.53V68.19a1.59,1.59,0,0,0-.24-.8h0l-4.67-7.78V51.9h.86a4.88,4.88,0,0,1,4.39,2.7ZM88.12,40.46a8.17,8.17,0,1,1,8.16,8.17,8.18,8.18,0,0,1-8.16-8.17ZM80,68.23H68.51V61.7h8.8a3.27,3.27,0,0,0,2.92-1.81l2.64-5.28a4.86,4.86,0,0,1,4.38-2.71h.87v7.71L83.67,67A6.44,6.44,0,0,1,80,68.23Z"/><path class="cls-2" d="M41.91,43.73h9.8a1.63,1.63,0,0,0,1.64-1.64V35.56a1.63,1.63,0,0,0-1.64-1.63h-9.8a1.63,1.63,0,0,0-1.63,1.63v6.53a1.63,1.63,0,0,0,1.63,1.64Zm1.64-6.54h6.53v3.27H43.55Z"/><path class="cls-2" d="M22.78,63.33H60.35A1.63,1.63,0,0,0,62,61.7V40.46h3.27a1.63,1.63,0,0,0,1.45-.88,1.65,1.65,0,0,0-.12-1.7L58.41,26.44a1.74,1.74,0,0,0-.6-.51L48,21a1.63,1.63,0,0,0-1.46,0L38.81,24.9a9.66,9.66,0,0,0-7.87-4,9.82,9.82,0,0,0-9.8,9.8v31a1.63,1.63,0,0,0,1.64,1.63Zm1.63-29.4H30.8l-2.82,4a1.65,1.65,0,0,0-.12,1.7,1.63,1.63,0,0,0,1.45.88h3.27v19.6H24.41ZM44.5,55.16l-2.59,2.59V52.57Zm2.31,2.31,2.59,2.59H44.22Zm2.31-2.31,2.59-2.59v5.18Zm-2.31-2.31-2.59-2.59H49.4Zm.47-28.53L56,28.67l6.08,8.52H60.35a1.64,1.64,0,0,0-1.64,1.64V60.06H55V48.63A1.64,1.64,0,0,0,53.35,47H40.28a1.64,1.64,0,0,0-1.63,1.64V60.06H35.84V38.83a1.64,1.64,0,0,0-1.63-1.64H32.48l2.83-3.95,3.26-4.57.37-.18h0Zm-16.34-.19A6.43,6.43,0,0,1,36,26.61l-1,1.35-1.92,2.7H24.41a6.54,6.54,0,0,1,6.53-6.53Z"/><path class="cls-2" d="M68.51,115.6h3.27v3.27H68.51Z"/><path class="cls-2" d="M75.05,115.6h3.26v3.27H75.05Z"/><path class="cls-2" d="M68,21.68a1.67,1.67,0,0,1-1.2-.49A4.8,4.8,0,0,0,63.61,20v3.27a1.63,1.63,0,0,1,1.2.49,4.94,4.94,0,0,0,6.31,0,1.66,1.66,0,0,1,1.2-.49,1.63,1.63,0,0,1,1.2.49,4.83,4.83,0,0,0,3.16,1.14V21.68a1.7,1.7,0,0,1-1.2-.49,4.92,4.92,0,0,0-6.32,0,1.66,1.66,0,0,1-1.19.49Z"/><path class="cls-2" d="M79.29,32a1.71,1.71,0,0,1,2.4,0,4.86,4.86,0,0,0,3.16,1.14V29.84a1.63,1.63,0,0,1-1.2-.49,4.95,4.95,0,0,0-6.32,0,1.7,1.7,0,0,1-2.39,0,4.88,4.88,0,0,0-3.16-1.14v3.27A1.62,1.62,0,0,1,73,32a4.95,4.95,0,0,0,6.32,0Z"/><path class="cls-2" d="M107.06,23.8a1.63,1.63,0,0,1,1.2-.49,1.66,1.66,0,0,1,1.2.49,4.78,4.78,0,0,0,3.16,1.14V21.68a1.67,1.67,0,0,1-1.2-.49,4.92,4.92,0,0,0-6.32,0,1.7,1.7,0,0,1-2.39,0A4.83,4.83,0,0,0,99.55,20v3.27a1.62,1.62,0,0,1,1.19.49,4.95,4.95,0,0,0,6.32,0Z"/><path class="cls-2" d="M119.15,29.84a1.65,1.65,0,0,1-1.2-.49,4.95,4.95,0,0,0-6.32,0,1.7,1.7,0,0,1-2.39,0,4.86,4.86,0,0,0-3.16-1.14v3.27a1.63,1.63,0,0,1,1.2.49,4.94,4.94,0,0,0,6.31,0,1.66,1.66,0,0,1,1.2-.49A1.63,1.63,0,0,1,116,32a4.88,4.88,0,0,0,3.16,1.14Z"/></g></g></svg>