<svg xmlns="http://www.w3.org/2000/svg" viewBox="0 0 141.2 141.2"><defs><style>.cls-1{fill:none;}.cls-2{}</style></defs><g id="Calque_2" data-name="Calque 2"><g id="Layer_1" data-name="Layer 1"><rect class="cls-1" width="141.2" height="141.2" rx="70.6"/><path class="cls-2" d="M46.3,73.06a2,2,0,0,1-1.67,2.18,2.26,2.26,0,0,1,0-4.36,2,2,0,0,1,1.67,2.18"/><path class="cls-2" d="M56.69,73.06A2,2,0,0,1,55,75.24a2.26,2.26,0,0,1,0-4.36,2,2,0,0,1,1.66,2.18"/><path class="cls-2" d="M64,52.22a1.36,1.36,0,1,1-1.35-1.35A1.35,1.35,0,0,1,64,52.22"/><path class="cls-2" d="M118.22,117.19H98.58V97a10.46,10.46,0,0,0,6.36-9.56,10.33,10.33,0,0,0,3.65-5.1,8.24,8.24,0,0,0,10.17-5,8.14,8.14,0,0,0-1.15-7.73,8.18,8.18,0,0,0-10.09-10.75,10.49,10.49,0,0,0-2.64-1.48C104,49,93.36,45.15,87.27,51.12a10.53,10.53,0,0,0-14.88.32,10.46,10.46,0,0,0-4.88-1.21,1,1,0,0,0,0,2.08A8.28,8.28,0,0,1,72,53.65a1,1,0,0,0,1.39-.23,8.42,8.42,0,0,1,13-.1,1.06,1.06,0,0,0,1.62,0c4.73-5.83,14.49-2.6,14.77,4.9a1.05,1.05,0,0,0,.74,1,8.38,8.38,0,0,1,2.63,14.57,1,1,0,0,0-.27,1.34,8.37,8.37,0,0,1-2.64,11,1,1,0,0,0-.46.93c.4,6.66-7.26,11-12.85,7.42a1,1,0,0,0-1.38.23,8.43,8.43,0,0,1-13.4-.39,1,1,0,0,0-1.61-.12,8.42,8.42,0,0,1-13.2-1.31,1,1,0,0,0-1.15-.46,8.4,8.4,0,0,1-8.1-2.22c6.58-.78,11.8-7.37,12.2-15.53,2.9,1.11,6.3.25,6.61-3.3.21-2.43-1-5.48-3.3-8.16a17.91,17.91,0,0,0-1.35-1.4,1,1,0,1,0-1.41,1.52c2,1.87,4.25,4.94,4,7.86-.22,2.51-2.91,2-4.56,1.21a18.81,18.81,0,0,0-3-9.17,5.51,5.51,0,0,0-1-7.71,5.47,5.47,0,0,0-9-2.21,5.46,5.46,0,0,0-8.63,1.42,5.48,5.48,0,0,0-2.47,8.49,18.76,18.76,0,0,0-3,8.87c-1.64,1-4.88,1.91-5.12-.9-.29-3.26,2.43-6.68,4.81-8.57a1,1,0,0,0-1.29-1.63c-3,2.35-5.94,6.39-5.59,10.38s4.19,4.42,7.14,3.09c.32,8.24,5.56,14.94,12.19,15.74a10.51,10.51,0,0,0,10.58,4.4l.06.09v6.75a1,1,0,0,0,2.08,0V96.76a10.35,10.35,0,0,0,6.19,2.12v18.3H61.2v-5.31a1,1,0,1,0-2.08,0v5.31H54.59a15.86,15.86,0,0,1,9.54-10.37,1,1,0,0,0-.22-2,18.14,18.14,0,0,0-12.3,2,15.92,15.92,0,0,1,3.29-7.1c.73-.9-.28-1.78-1.18-1.63A17.91,17.91,0,0,0,43.55,107,17.9,17.9,0,0,0,33.34,98.1a1.05,1.05,0,0,0-1.15,1.64,15.83,15.83,0,0,1,3.3,7.1,18.14,18.14,0,0,0-12.3-2,1,1,0,0,0-.22,2,15.83,15.83,0,0,1,9.54,10.37H23a1,1,0,0,0,0,2.08h95.24a1,1,0,1,0,0-2.08Zm-8.94-56.58a6.08,6.08,0,0,1,6.19,8.72,1,1,0,0,0,.16,1.17A6.1,6.1,0,0,1,109,80.31h0a10.93,10.93,0,0,0,.06-1.15,10.42,10.42,0,0,0-.94-4.33,10.44,10.44,0,0,0,1.12-14.22ZM42.77,56.55a1.07,1.07,0,0,0,.73-.63,3.35,3.35,0,0,1,6-.45,1.06,1.06,0,0,0,1.81,0,3.37,3.37,0,0,1,6.16.88,1,1,0,0,0,.45.64A3.39,3.39,0,0,1,58,62.6a1,1,0,0,0-.45.72,3.37,3.37,0,0,1-6.22,1.22,1.06,1.06,0,0,0-1.81,0,3.35,3.35,0,0,1-6.1-.77,1,1,0,0,0-.73-.72,3.38,3.38,0,0,1,.11-6.5ZM38.36,73.63a17,17,0,0,1,2.53-9.09,4.27,4.27,0,0,0,.68.33,5.45,5.45,0,0,0,8.83,1.87,5.47,5.47,0,0,0,8.73-1.6,17.12,17.12,0,0,1,2.17,8.49c0,8-5.14,14.52-11.47,14.52S38.36,81.64,38.36,73.63Zm-11.22,33a16,16,0,0,1,9,3.13,1,1,0,0,0,1.66-.87,17.25,17.25,0,0,0-1.93-7.29,15.81,15.81,0,0,1,6.7,8.42,1.05,1.05,0,0,0,2,0,15.78,15.78,0,0,1,6.71-8.42,17,17,0,0,0-1.93,7.29,1,1,0,0,0,1.65.87,16.1,16.1,0,0,1,9-3.13,17.35,17.35,0,0,0-7.51,10.58H34.65a17.27,17.27,0,0,0-7.51-10.58Zm61.1,10.58H69.46V98.69a10.42,10.42,0,0,0,4.8-2.3,10.52,10.52,0,0,0,14,1.5Zm8.26,0H90.32V97a10.57,10.57,0,0,0,6.18.71Z"/><path class="cls-2" d="M36,41.07a6.23,6.23,0,1,1,6.24-6.23A6.24,6.24,0,0,1,36,41.07Zm0-10.38a4.15,4.15,0,1,0,4.16,4.15A4.15,4.15,0,0,0,36,30.69Z"/><path class="cls-2" d="M36,26.25a1,1,0,0,1-1-1V23.83a1,1,0,0,1,2.08,0v1.38A1,1,0,0,1,36,26.25Z"/><path class="cls-2" d="M29.14,29.07a1,1,0,0,1-.74-.3l-1-1a1,1,0,1,1,1.46-1.47l1,1a1.06,1.06,0,0,1-.73,1.77Z"/><path class="cls-2" d="M26.31,35.88H24.93a1,1,0,0,1,0-2.08h1.38a1,1,0,0,1,0,2.08Z"/><path class="cls-2" d="M28.16,43.66a1.07,1.07,0,0,1-.74-1.77l1-1a1,1,0,0,1,1.47,1.48l-1,1a1,1,0,0,1-.73.3Z"/><path class="cls-2" d="M36,46.89a1,1,0,0,1-1-1V44.47a1,1,0,0,1,2.08,0v1.38A1,1,0,0,1,36,46.89Z"/><path class="cls-2" d="M43.76,43.66a1,1,0,0,1-.74-.3l-1-1a1,1,0,0,1,1.46-1.48l1,1a1.06,1.06,0,0,1-.73,1.77Z"/><path class="cls-2" d="M47,35.88H45.61a1,1,0,0,1,0-2.08H47a1,1,0,0,1,0,2.08Z"/><path class="cls-2" d="M42.78,29.07a1.06,1.06,0,0,1-.73-1.77l1-1a1,1,0,0,1,1.47,1.47l-1,1a1.06,1.06,0,0,1-.74.3Z"/><path class="cls-2" d="M111.07,37.48h-6.74a7.77,7.77,0,1,1,6.51-12h.23a6,6,0,1,1,0,12ZM98.62,29.71a5.7,5.7,0,0,0,5.71,5.69h6.74a3.94,3.94,0,1,0-.62-7.83,1,1,0,0,1-1.08-.54,5.72,5.72,0,0,0-10.75,2.68Z"/></g></g></svg>