<svg xmlns="http://www.w3.org/2000/svg" viewBox="0 0 141.2 141.2"><defs><style>.cls-1{fill:none;}.cls-2{}</style></defs><g id="Calque_2" data-name="Calque 2"><g id="Layer_1" data-name="Layer 1"><rect class="cls-1" width="141.2" height="141.2" rx="70.6"/><path class="cls-2" d="M101.34,58.86H94.06c-.25,0-.62.25-.62.49A9.18,9.18,0,0,1,84.55,66l-.61-.13a.71.71,0,0,0-.74.74v2.6a.67.67,0,0,0,.37.61,6.17,6.17,0,0,1,3.58,5.31,5.54,5.54,0,0,1-5.56,5.56H76.28a5.56,5.56,0,0,1,0-11.11l2.23-.13a.69.69,0,0,0,.61-.74V66.51a.8.8,0,0,0-.74-.74l-2.59.13a9.85,9.85,0,0,1-6.79-3,.77.77,0,0,0-.86-.12c-.13.12-.25.25-.37.25a7.17,7.17,0,0,0-2.47,3.7v.49a5.48,5.48,0,0,1-.87,5.93L61,76.63a5.18,5.18,0,0,1-7.16.37,7.72,7.72,0,0,1-2-3c0-.25-.24-.37-.37-.49a3.23,3.23,0,0,1-1.23-.74c-2.47-2-3.34-6.42-3.34-14,0-2.22-.24-4.94-1.6-4.94-.74,0-2.1,0-2.1,4.94C43.08,61.45,42,66,37.89,66c-5.55,0-5.67-7.53-5.8-11.11,0-1.6-.37-3.58-1.73-3.58-.86,0-1.23,2.1-1.23,3.46,0,5.8-2.47,7-4.57,7a1.24,1.24,0,0,0-1.23,1.24v42.83a3.84,3.84,0,0,0,7.65.62l2-14,1.11.74-.25,1a2,2,0,0,0,1.11,2.34,1.49,1.49,0,0,0,.74.13,2.09,2.09,0,0,0,2-1.61,9.26,9.26,0,0,1,1.23.25L38.76,97a2.12,2.12,0,0,0,1.6,2.22h.37a2,2,0,0,0,2-1.72l.12-1.61h.74v10.49a3.85,3.85,0,0,0,7.66.62l2-15.18a16.22,16.22,0,0,0,3.33-4.32,2.28,2.28,0,0,1,2.1-1.36l11.61-.49v19.87A4.42,4.42,0,0,0,74.68,110h.25a4,4,0,0,0,3.82-3.33l2.72-21.35L86.28,85v21a3.85,3.85,0,0,0,7.66.62l2.59-20.24a13.64,13.64,0,0,1,2-5.68l5.68-9.63,2.6-4.57A1.25,1.25,0,0,1,108.5,66a12.5,12.5,0,0,0,3.71,1.61,1.06,1.06,0,0,0,1.35-1.24A6.85,6.85,0,0,0,111.47,62c-3.71-3.21-10.13-3.09-10.13-3.09Z"/><path class="cls-2" d="M123.56,46.64l-1.48-4.2h.12a6.13,6.13,0,0,0,6.17-6.29,2,2,0,0,0-2-2h-8.89A12.56,12.56,0,0,0,109,30.84a15.67,15.67,0,0,0-8.27,2.59A6.64,6.64,0,0,0,99,34.91l-10-.12a2,2,0,0,0-2,2,5.86,5.86,0,0,0,2,4.08.35.35,0,0,1-.25.62H24.32c-3,.12-6.05.24-7.53,4.44-1.11,3.33-1.24,40-3.33,42.09a1.88,1.88,0,0,0-.38,2.35,2,2,0,0,0,1.73,1.11,2,2,0,0,0,1.36-.62c3.33-3.21,3.46-37.4,4.45-43.57.49-1.48,2.34-1.11,2.34.49v9.5a1,1,0,0,0,1.11,1.12c.87,0,1-.5,1-1v-2.1c0-4.57,2-7.41,5.18-7.41,3.46,0,5.56,2.72,5.68,7.41,0,1.73.12,7.16,1.85,7.16.87,0,1.36-2.22,1.36-3.21,0-2.22,0-8.89,6-8.89q5.55,0,5.55,8.89c0,6.29.74,9,1.36,10.12a.7.7,0,0,0,1.11.13l3.71-3.34a5.16,5.16,0,0,1,4.44-1.6.89.89,0,0,0,.74-.37,9.54,9.54,0,0,1,3.33-4c.37-.25.5-.5.87-.74a.55.55,0,0,0,.24-.74,20.55,20.55,0,0,1,0-2.72,8.86,8.86,0,0,1,8.77-8.15h9a9.15,9.15,0,0,1,8.89,6.67.8.8,0,0,0,.61.49h7.29c.61,0,8.14-.12,12.71,4.45A11.42,11.42,0,0,1,117.14,67a1,1,0,0,0,1.36,1,14.22,14.22,0,0,0,4.2-1.85c3.58-2.34,7-6.91,2.71-14.69-.61-1.6-1.36-3.08-1.85-4.81Zm-20.49,1.48a3,3,0,1,1,3.58-3.58A3,3,0,0,1,103.07,48.12Zm12.47-1.73a3,3,0,1,1,3.58-3.58A3,3,0,0,1,115.54,46.39Z"/></g></g></svg>