<svg xmlns="http://www.w3.org/2000/svg" viewBox="0 0 141.2 141.2"><defs><style>.cls-1{}.cls-2{fill:none;}</style></defs><g id="Calque_2" data-name="Calque 2"><g id="Layer_1" data-name="Layer 1"><path class="cls-1" d="M91.08,44.6c-6.07-4-12.49-7.91-15.65-14.24a.87.87,0,0,0-1.5-.08l-2.72,3.95a.91.91,0,0,1-1.5-.09c-.79-1.75-2-4.92-3.16-6.85a1.36,1.36,0,0,0-2.29-.18c-2,2.55-5.53,8.62-10.37,13.71-2.72,3-17.23,17.85-19.16,21.45C30.07,70.71,31,81.61,36.05,89.7S50.11,103,59.61,104.55c2,.27,2.81,3.08,2,4.93a6.69,6.69,0,0,1-1.5,2,1.77,1.77,0,0,0,1.5,3.08c2.81-.62,3.34-4.22,3.34-4.22a1.92,1.92,0,0,1,2.55.44,7.84,7.84,0,0,0,1.23,1.14,2.22,2.22,0,0,0,3.25-.62l1.58-2.46a1.11,1.11,0,0,1,1.41-.35l5.54,3.43a2.84,2.84,0,0,0,4.3-2.64c-.17-1.93-.52-3.87.71-4.83,11.34-3.34,19.34-9.06,21.53-14.68C110.77,80.21,113.31,59.11,91.08,44.6Zm14.59,36.57A24.81,24.81,0,0,1,103.12,89c-5.19,9.23-17,12-27.43,12.48-7.82.35-15.82-.18-23-3.08s-13.62-8.53-16-16c-2.55-7.91-.08-17,5.1-23.56,6-7.55,15.74-13.09,19.34-21.53a9.89,9.89,0,0,1,2-3.08L64.26,33a1,1,0,0,1,1.5.18l2.9,6a3,3,0,0,0,.62.88h0a1.44,1.44,0,0,0,2.37-.61h0a5.27,5.27,0,0,1,1.14-1.94l1.14-1.14a.63.63,0,0,1,1,.09c.26.44.53.88.79,1.23C79.82,42.93,86.59,45.13,92,49,102,55.86,107.6,69,105.67,81.17Z"/><path class="cls-1" d="M66.55,62.71V83c-.09,1.23.88,2.9,1.85,2.11C71,81.52,71,76.86,71.12,72.47c0-5-.09-10.28-2.46-14.5a1,1,0,0,0-1.76.35A18.22,18.22,0,0,0,66.55,62.71Z"/><path class="cls-1" d="M48.27,68.07A26.25,26.25,0,0,0,48,80a19,19,0,0,0,5.28,9.32.72.72,0,0,0,1.23-.62,22.08,22.08,0,0,0-1.41-5.1,31,31,0,0,1,6.15-30c1.24-1.23,2.38-3.43,1-4.4C53.45,53,49.76,60.6,48.27,68.07Z"/><path class="cls-1" d="M81.58,49.53a1.14,1.14,0,0,0-1.84,1.14,8.08,8.08,0,0,0,1.58,3c1.23,1.58,2.9,2.72,4.22,4.13a19,19,0,0,1,4.83,12.66C90.46,77,88,83.19,84.75,88.82a1.19,1.19,0,0,0,1.4,1.76,6.24,6.24,0,0,0,2.46-1.85c7.39-8.88,7.56-23,.53-32.08A44.28,44.28,0,0,0,81.58,49.53Z"/><rect class="cls-2" width="141.2" height="141.2" rx="70.6"/></g></g></svg>