<svg xmlns="http://www.w3.org/2000/svg" viewBox="0 0 141.2 141.2"><defs><style>.cls-1{}.cls-2{fill:none;}</style></defs><g id="Calque_2" data-name="Calque 2"><g id="Layer_1" data-name="Layer 1"><path class="cls-1" d="M74.27,60.36H72.88c-.49-.11-.95-.19-1.33-.24-1.88-.65-2.14-2.54-.07-5.71a6.91,6.91,0,0,0-3.66,1.12,15.41,15.41,0,0,1,0-9,.28.28,0,0,0-.17-.34.27.27,0,0,0-.28.08,14.84,14.84,0,0,0-3.6,9.17,17.92,17.92,0,0,0-2-.7c1.66,2.65,1.85,4.66-.75,5.58,0,0-.43.17-1.13.53l0,0-.22.18c-3.41,1.81-12,7.4-12.26,18.35-.23,7.86,4.52,12,10.42,14a3.9,3.9,0,0,0,1.1.34A34.91,34.91,0,0,0,68.43,95c1,0,2.06,0,3-.12,5-.37,10.65-1.51,15-4l0,0a1.76,1.76,0,0,0,.3-.24c4-2.4,6.83-6,7-11.25C94.13,68.51,83.8,60.36,74.27,60.36ZM84.39,87.87a17.87,17.87,0,0,1-2.21,1,48.21,48.21,0,0,0,.06-13.31,24.94,24.94,0,0,0-3-9.23c3.45,1.89,6.54,5,6.57,10.11,0,8.13-1,10.72-1.36,11.35Zm-12-11.63c-.93-7.15-1.34-10.75-1.51-12.57a8.11,8.11,0,0,0,1.46.25l.31.07c1.29,1,5,4.48,6,12.09,1,7.44,0,13-.56,14.14a40.09,40.09,0,0,1-4,.76C73.91,88.85,73.48,84.61,72.38,76.24Zm-13.83,3c.65,5.08,1.52,8.82,2.68,11.37-.68-.15-1.33-.33-1.95-.53-.65-.43-2.65-2.44-3.42-10.87A18.71,18.71,0,0,1,61.71,64l.59-.28C60,67.59,57.77,73.12,58.55,79.25Zm19.8,10.82,0,.07-.22.06A.83.83,0,0,1,78.35,90.07ZM51,79.47a15.77,15.77,0,0,1,1.8-7,21.36,21.36,0,0,0-.53,7.08,40.84,40.84,0,0,0,1.22,7.21A9.67,9.67,0,0,1,51,79.47Zm15.2,11.85h0c-.44-.09-2.66-1.12-4.12-12.53-.84-6.67,2.79-12.74,5.09-15.85.11,2,.58,5.81,1.62,13.77,1.14,8.7,1.53,12.78,1.66,14.63-.68,0-1.37.06-2.06.06S67,91.36,66.22,91.32ZM90.55,78.88a9.91,9.91,0,0,1-1.81,5.25,40.43,40.43,0,0,0,.3-7A26.07,26.07,0,0,0,88,71.81,10,10,0,0,1,90.55,78.88Z"/><rect class="cls-2" width="141.2" height="141.2" rx="70.6"/></g></g></svg>