<svg xmlns="http://www.w3.org/2000/svg" viewBox="0 0 141.2 141.2"><defs><style>.cls-1{}.cls-2{fill:none;}</style></defs><g id="Calque_2" data-name="Calque 2"><g id="Layer_1" data-name="Layer 1"><path class="cls-1" d="M32.68,36.32s1.54-1.64-1.23-3.7c0,0-5.44,2.26-6.88,3.7S21.28,41,21.28,41.76a92.36,92.36,0,0,1,8.63-4.52l2.77-.92Z"/><path class="cls-1" d="M36.88,38.58l-3.07-1.34c-2.47,0-9.86,3.9-9.86,3.9l-1.33.93c3.49.92,9-1.24,9-1.24l4.52-.41Z"/><path class="cls-1" d="M70.34,83.63C64.9,81.68,54.85,73.16,54.85,73.16l-4-.51c-8.31-4-9-10.67-9.54-11.7s-1.13-5,1.44-7.39,7.9-.41,7.9-.41A10.52,10.52,0,0,0,43.76,55c-3.38,2.36,1.64,14.47,6.88,15.91s3.08-.72,4-4.52S59.36,64.75,66,63.72s4.73-7.9,4.73-7.9c2.87,4-.42,9-3.39,9.44S56.49,66,56.18,66.7s-.2,4.72-.2,4.72l3.59,3.39C61.72,77.17,72.4,83.63,76.71,84s2.56-2.56,2.56-2.56C75.17,78.6,69.11,71,69.11,71c15.19,15,20.74,13.34,19.5,8.62-.72-2.57-13-17.14-13-17.14,4.1,2.87,13.75,14.27,13.75,14.27,2-.72-3.08-7.91-3.08-7.91S66.55,44.43,65.11,43.71a19.47,19.47,0,0,0-4.52-1.13l-5.23-5.44-2-2A7,7,0,0,0,50.12,33l2.88-.2c-4.52-2.88-8.83-5.44-12.83-5.44s-7.6,4.72-7.6,4.72c1.65.2,2,4,2,4l3.19,1.75a1,1,0,0,1,.41,1L37.4,41a1.06,1.06,0,0,1-.72.61l-3.59.21a8.78,8.78,0,0,1,1.23,7.8c-1.44,4.52,6.16,15.91,6.16,15.91l15.7,24.94-.41-2.57,4.93,3.29V87.94L63.06,90a4.61,4.61,0,0,1,.82,2c-.11.82-4.62,9.75-4.62,9.75s-5.13,2.15-6.47,1.84-3.38.31-3.49,1.54l-.1,1.23S51,105,51.87,105s-.51,1.23,3,.51,7.6-1.74,7.6-1.74,3.69.92,5.54,1.23a2.76,2.76,0,0,1,2.26,1.85S71,104,68.6,103.34a48.73,48.73,0,0,1-4.72-1.85s-.93-.31-.52-2.16,4.62-7.08,3.9-8c-.3-.41-.72-1.23-1.13-2,1,.72,2,1.23,2,1.23l-2-3.8s2.16.72,5.65,2.16,12.62.72,12.62.72l-4.92-3.6c.1-.3-3.7-.51-9.14-2.46Zm-31-48.13A1.54,1.54,0,1,1,40.89,34,1.58,1.58,0,0,1,39.35,35.5Z"/><path class="cls-1" d="M89.43,83.43c-2.46,2.67-7.28.1-7.28.1L81.74,85c3,3,35.82,25.66,36.43,24.73s-2-4.1-2-4.1c-3.7-3.49-18.37-15.91-19.6-17.86s-6.06-7.6-6.06-7.6a4.48,4.48,0,0,1-1,3.29Z"/><path class="cls-1" d="M114.89,109.7c-1.34-.82-29.56-19.6-29.56-19.6s19.19,17.55,21.76,19.7a10.47,10.47,0,0,0,4.72,2.47l-3.49-5.44s4.72,5.44,6.67,6.26a14,14,0,0,0,4.93.72,50.34,50.34,0,0,0-5-4.11Z"/><path class="cls-1" d="M68.6,88.66l.72,2.88-3.9,6.67-.52,1.13s6.37-6.26,7.09-7.19-.41-2.05-.41-2.05Z"/><path class="cls-1" d="M53.51,102.11,58,100.77l1.13-2c-1.54,1.64-6.67,1.23-7.91,1.23a16.89,16.89,0,0,0-3.69.82c-3.08.11-2.57,2.47-2.57,2.47,0-.93,2.06-1.13,2.06-1.13l.41,1.13a2.34,2.34,0,0,0,2.15-.41c.93-.83,3.9-.72,3.9-.72Z"/><rect class="cls-2" width="141.2" height="141.2" rx="70.6"/></g></g></svg>