<svg xmlns="http://www.w3.org/2000/svg" viewBox="0 0 141.2 141.2"><defs><style>.cls-1{fill:none;}.cls-2{}</style></defs><g id="Calque_2" data-name="Calque 2"><g id="Layer_1" data-name="Layer 1"><rect class="cls-1" width="141.2" height="141.2" rx="70.6"/><path class="cls-2" d="M74.6,79.28c-3,.26-5.45,4-5.45,8.66a1.45,1.45,0,0,0,2.9,0,8.34,8.34,0,0,1,1.21-4.53,2.53,2.53,0,0,1,1.54-1.24v0a1.45,1.45,0,1,0,0-2.89Z"/><path class="cls-2" d="M96.72,72.18a14.07,14.07,0,0,0-.48-3.86,9.91,9.91,0,0,0-2.86-4.79,85.35,85.35,0,0,1,10.42-.18h.07a1.45,1.45,0,0,0,.07-2.89h0a97.31,97.31,0,0,0-19,1.13C74.44,41.25,47.53,40.24,47.53,40.24,55,54,69.85,60.14,78.82,62.69c-2,.41-3.23.74-3.57.83a35.66,35.66,0,0,0-5.45-.43c-21.46,0-33.92,20.15-33.92,20.15a40.38,40.38,0,0,0,5.31.36c16.63,0,29.22-10.72,34.58-16.22.45,2.47-.9,5.81-1.85,7.61-5.11.66-9.11,6.21-9.11,13,0,7.19,4.54,13,10.13,13s10.13-5.83,10.13-13c0-6.27-3.45-11.51-8-12.74a24.59,24.59,0,0,0,1-2.64,10.93,10.93,0,0,0,.28-6.8c2.16-.47,5.71-1.17,10-1.71a6.86,6.86,0,0,1,5.1,5,10.91,10.91,0,0,1,.4,3.14c-5,.85-8.76,6.3-8.76,12.9,0,7.19,4.53,13,10.12,13s10.13-5.83,10.13-13C105.32,78.53,101.59,73.12,96.72,72.18ZM60,50.3a39,39,0,0,1-6.51-6.38,55.75,55.75,0,0,1,9.05,2.52,41.44,41.44,0,0,1,11.93,6.72,31.49,31.49,0,0,1,6.36,7.07,69,69,0,0,1-8.8-3A53,53,0,0,1,60,50.3Zm6.49,21.37a49.91,49.91,0,0,1-11.12,6.25A38.43,38.43,0,0,1,41.4,80.71a51,51,0,0,1,5.42-5.48,40.87,40.87,0,0,1,9.91-6.4A31.82,31.82,0,0,1,69.8,66c1,0,2.07.06,3.12.16A59.57,59.57,0,0,1,66.44,71.67Zm13.38,8.84a12.92,12.92,0,0,1,0,14.86,5.76,5.76,0,0,1-9.76,0,12.92,12.92,0,0,1,0-14.86,5.76,5.76,0,0,1,9.76,0Zm20.25,12a5.76,5.76,0,0,1-9.75,0,12.88,12.88,0,0,1,0-14.86,5.75,5.75,0,0,1,9.75,0,12.88,12.88,0,0,1,0,14.86Z"/><path class="cls-2" d="M95.05,76.37h-.19c-3,.27-5.45,4-5.45,8.67a1.45,1.45,0,0,0,2.89,0,8.34,8.34,0,0,1,1.21-4.53,2.58,2.58,0,0,1,1.54-1.25h0a1.45,1.45,0,1,0,0-2.89Z"/></g></g></svg>