<svg xmlns="http://www.w3.org/2000/svg" viewBox="0 0 141.2 141.2"><defs><style>.cls-1{}.cls-2{fill:none;}</style></defs><g id="Calque_2" data-name="Calque 2"><g id="Layer_1" data-name="Layer 1"><path class="cls-1" d="M65.33,51.44a2,2,0,0,0-2.5-1.33,2,2,0,0,0-1.19,1,2,2,0,0,0-.15,1.53A2,2,0,0,0,63.42,54,1.93,1.93,0,0,0,64,54,2,2,0,0,0,65.33,51.44Zm-1.56,1.73a1.2,1.2,0,0,1-1.5-.79,1.23,1.23,0,0,1,.09-.92,1.17,1.17,0,0,1,.71-.58,1.34,1.34,0,0,1,.35-.05h0A1.25,1.25,0,0,1,64,51a1.2,1.2,0,0,1,.57.68v0s0,0,0,0A1.19,1.19,0,0,1,63.77,53.17Z"/><path class="cls-1" d="M83,80.07a2,2,0,1,0-1.33,2.51A2,2,0,0,0,83,80.07ZM81.43,81.8A1.19,1.19,0,0,1,79.94,81a1.1,1.1,0,0,1,0-.47,1.2,1.2,0,0,1,2.34-.23,1.24,1.24,0,0,1-.09.91A1.18,1.18,0,0,1,81.43,81.8Z"/><path class="cls-1" d="M62.38,59a2,2,0,0,0-1-1.18,2,2,0,0,0-2.71.83,1.94,1.94,0,0,0-.15,1.53,2,2,0,0,0,1,1.18,2,2,0,0,0,.94.24,2,2,0,0,0,1.78-1.07A2,2,0,0,0,62.38,59Zm-.86,1.15a1.2,1.2,0,0,1-.71.58,1.08,1.08,0,0,1-.47.05,1.28,1.28,0,0,1-.45-.13,1.2,1.2,0,0,1-.49-1.62,1.17,1.17,0,0,1,.71-.58,1,1,0,0,1,.35-.06h0l.19,0h.09a1.33,1.33,0,0,1,.28.1,1.17,1.17,0,0,1,.58.71A1.15,1.15,0,0,1,61.52,60.18Z"/><path class="cls-1" d="M78.93,69.81a1.54,1.54,0,0,0-.76-.92A1.5,1.5,0,0,0,77,68.78a1.56,1.56,0,0,0-.92.75A1.59,1.59,0,0,0,76,70.72a1.56,1.56,0,0,0,1.49,1.11,1.76,1.76,0,0,0,.45-.07,1.56,1.56,0,0,0,.93-.76A1.59,1.59,0,0,0,78.93,69.81Zm-.83.81a.75.75,0,0,1-.44.36.77.77,0,0,1-.3,0,.75.75,0,0,1-.64-.53.71.71,0,0,1,.06-.57.75.75,0,0,1,.44-.36.83.83,0,0,1,.22,0h0a.77.77,0,0,1,.72.53A.81.81,0,0,1,78.1,70.62Z"/><path class="cls-1" d="M92.68,79.22a1.56,1.56,0,0,0-2-1,1.56,1.56,0,0,0,.46,3,1.41,1.41,0,0,0,.45-.07,1.52,1.52,0,0,0,.92-.76A1.54,1.54,0,0,0,92.68,79.22Zm-.83.81a.75.75,0,0,1-1.38-.13.75.75,0,0,1,.06-.57A.74.74,0,0,1,91,79,.75.75,0,0,1,91.85,80Z"/><path class="cls-1" d="M80.36,91.3a1.54,1.54,0,0,0-.76-.92,1.59,1.59,0,0,0-1.19-.11,1.55,1.55,0,0,0-1,1.94,1.52,1.52,0,0,0,.76.92,1.47,1.47,0,0,0,.73.19,1.51,1.51,0,0,0,.46-.07,1.56,1.56,0,0,0,1-2Zm-.83.81a.69.69,0,0,1-.44.36.74.74,0,0,1-.29,0,.57.57,0,0,1-.28-.08.73.73,0,0,1-.37-.44.77.77,0,0,1,.24-.8l0,0a.72.72,0,0,1,.21-.12.83.83,0,0,1,.22,0h0a.77.77,0,0,1,.72.53A.71.71,0,0,1,79.53,92.11Z"/><path class="cls-1" d="M79,103.1a1.56,1.56,0,1,0-3,.91,1.57,1.57,0,0,0,1.49,1.1,1.47,1.47,0,0,0,.46-.07A1.55,1.55,0,0,0,79,103.1Zm-1.27,1.17a.75.75,0,0,1-.57-.06.72.72,0,0,1-.36-.44A.73.73,0,0,1,78,103a.67.67,0,0,1,.2.31A.74.74,0,0,1,77.69,104.27Z"/><path class="cls-1" d="M90.46,68.54a2.55,2.55,0,0,0-3.19-1.7A2.57,2.57,0,0,0,85.57,70,2.55,2.55,0,0,0,88,71.85a2.43,2.43,0,0,0,.74-.12A2.56,2.56,0,0,0,90.46,68.54ZM88.52,71a2.05,2.05,0,0,1-.34.07,1.75,1.75,0,0,1-1.71-2.56,1.74,1.74,0,0,1,1-.85,1.53,1.53,0,0,1,.52-.08h0a1.77,1.77,0,0,1,1.66,1.24A1.73,1.73,0,0,1,88.52,71Z"/><path class="cls-1" d="M72.45,75.05a2.56,2.56,0,1,0-4.89,1.49A2.57,2.57,0,0,0,70,78.35a2.35,2.35,0,0,0,.75-.11A2.57,2.57,0,0,0,72.27,77,2.54,2.54,0,0,0,72.45,75.05Zm-.9,1.57a1.77,1.77,0,0,1-1,.85,1.75,1.75,0,0,1-2.18-1.16A1.71,1.71,0,0,1,68.47,75a1.65,1.65,0,0,1,1-.85,1.51,1.51,0,0,1,.51-.08,1.84,1.84,0,0,1,.82.2,1.76,1.76,0,0,1,.72,2.37Z"/><path class="cls-1" d="M73.92,59.43a2.56,2.56,0,1,0-2.44,3.31,2.65,2.65,0,0,0,.74-.11A2.57,2.57,0,0,0,73.92,59.43ZM72.6,61.52a1.72,1.72,0,0,1-.61.33,1.74,1.74,0,0,1-2-2.49,1.72,1.72,0,0,1,1-.85,1.75,1.75,0,0,1,1.63,3Z"/><path class="cls-1" d="M92.26,89.17a2.56,2.56,0,1,0-2.45,3.31,2.78,2.78,0,0,0,.75-.11A2.57,2.57,0,0,0,92.26,89.17Zm-1.61,2.28a1.22,1.22,0,0,1-.33.14,1.74,1.74,0,0,1-1.86-2.77,1.8,1.8,0,0,1,.19-.2s0,0,0,0a1.68,1.68,0,0,1,.62-.33,1.74,1.74,0,0,1,1.34,3.2Z"/><path class="cls-1" d="M85.55,99.41a2,2,0,0,0-1-1.19,2,2,0,0,0-1.53-.15,2,2,0,0,0-1.19,1,2,2,0,0,0-.15,1.53A2,2,0,0,0,83.63,102a2.39,2.39,0,0,0,.59-.08A2,2,0,0,0,85.55,99.41ZM84,101.14a1.24,1.24,0,0,1-.47,0,1.2,1.2,0,0,1-.93-1.76,1.17,1.17,0,0,1,.71-.58,1,1,0,0,1,.35,0,1.14,1.14,0,0,1,.56.14,1.17,1.17,0,0,1,.58.71,1.19,1.19,0,0,1-.8,1.49Z"/><path class="cls-1" d="M68.45,45.41l4.49.94.72,1.54a1.23,1.23,0,0,0,1.1.7,1.22,1.22,0,0,0,1.1-1.73L70.18,34.75a1.21,1.21,0,0,0-2.2,1l3.66,7.81L69,43a1.22,1.22,0,0,0-.5,2.38Z"/><path class="cls-1" d="M112.48,31a29,29,0,0,0-23.21,3.8A25.76,25.76,0,0,0,82,42.5a19.35,19.35,0,0,0-1.9-6A22,22,0,0,0,66,25.68a2.77,2.77,0,0,0-3.22,1.63,22.42,22.42,0,0,0-1,13.93,37.92,37.92,0,0,0-9.18,1.59A37.18,37.18,0,1,0,95,58.75a25.49,25.49,0,0,0,8.29-3.8,29,29,0,0,0,11.61-20.44A3.3,3.3,0,0,0,112.48,31ZM65,28.23A.34.34,0,0,1,65.4,28h0a19.48,19.48,0,0,1,12.53,9.62,17.37,17.37,0,0,1,1.87,7.71,1.29,1.29,0,0,0,.26.72,32.27,32.27,0,0,0-2.31,7.59h0A19.5,19.5,0,0,1,65.35,44,19.5,19.5,0,0,1,65,28.23Zm31.67,40a34.76,34.76,0,1,1-68,11.69c0-.4,0-.8,0-1.2,0-.17,0-.34,0-.52A34.79,34.79,0,0,1,62.54,43.65h0c.19.49.4,1,.63,1.46,2.56,5.19,7.84,9.3,14.12,11a1.07,1.07,0,0,0,.25,0A3.26,3.26,0,0,0,80,58.86a31.91,31.91,0,0,0,3.7.66,32.87,32.87,0,0,0,3.69.21,30.46,30.46,0,0,0,5.08-.43A34.72,34.72,0,0,1,96.69,68.25ZM103,52.16c-.35.28-.71.55-1.07.81s-.67.47-1,.68l-.07.05c-.12.08-.26.15-.38.22a24.33,24.33,0,0,1-8.43,3,29.12,29.12,0,0,1-11.43-.43.88.88,0,0,1-.65-.94,28.8,28.8,0,0,1,4.28-12,23.25,23.25,0,0,1,6.43-6.73,25.79,25.79,0,0,1,14.47-4.3,27.37,27.37,0,0,1,6.77.85.87.87,0,0,1,.64.91A26.77,26.77,0,0,1,103,52.16Z"/><path class="cls-1" d="M102.12,39,87.72,49.62a1.21,1.21,0,0,0,.72,2.19,1.24,1.24,0,0,0,.73-.23l2-1.49,6.09,1.81a1.33,1.33,0,0,0,.34.05A1.22,1.22,0,0,0,98,49.57l-4.34-1.29,10-7.37a1.22,1.22,0,0,0-1.45-2Z"/><rect class="cls-2" width="141.2" height="141.2" rx="70.6"/></g></g></svg>