<svg xmlns="http://www.w3.org/2000/svg" viewBox="0 0 141.2 141.2"><defs><style>.cls-1{}.cls-2{fill:none;}</style></defs><g id="Calque_2" data-name="Calque 2"><g id="Layer_1" data-name="Layer 1"><path class="cls-1" d="M83,45.37a1.4,1.4,0,0,0,1.2-2.09l-3.73-6.47a1.4,1.4,0,0,0-2.41,0l-3.74,6.47a1.43,1.43,0,0,0,0,1.39,1.4,1.4,0,0,0,1.21.7h2.34V64.18a3.89,3.89,0,1,0,5,5H96.26v2.34A1.39,1.39,0,0,0,97,72.76a1.42,1.42,0,0,0,.69.18,1.46,1.46,0,0,0,.7-.18L104.81,69a1.39,1.39,0,0,0,0-2.41l-6.47-3.73a1.4,1.4,0,0,0-2.09,1.2v2.35H82.87a4,4,0,0,0-2.25-2.25V45.37ZM99,66.48l2.31,1.34L99,69.15Zm-19.8,2.45a1.12,1.12,0,1,1,1.12-1.11A1.11,1.11,0,0,1,79.23,68.93ZM77.9,42.59l1.33-2.3,1.34,2.3Zm46.19,25.23a44.91,44.91,0,0,1-43.47,44.83v4.2a1.39,1.39,0,0,1-1.39,1.39,1.31,1.31,0,0,1-.69-.19l-15-8.67a1.4,1.4,0,0,1,0-2.41l15-8.67a1.39,1.39,0,0,1,2.08,1.21v4.15a35.74,35.74,0,0,0,23-9.53l-1-1a1.39,1.39,0,0,1,2-2l1,1a35.79,35.79,0,0,0,9.53-23h-1.42a1.39,1.39,0,1,1,0-2.77h1.42a35.79,35.79,0,0,0-9.53-23l-1,1a1.39,1.39,0,0,1-2-2l1-1a35.74,35.74,0,0,0-23-9.53v1.42a1.39,1.39,0,0,1-2.78,0V32a35.78,35.78,0,0,0-23,9.51l1,1a1.39,1.39,0,0,1-2,2l-1-1a36,36,0,0,0-3.6,4.6A1.39,1.39,0,1,1,47,46.51a38.64,38.64,0,0,1,59.41-6.17,1.82,1.82,0,0,1,.32.32,38.59,38.59,0,0,1,0,54.31,1.82,1.82,0,0,1-.32.32,38.51,38.51,0,0,1-27.16,11.17,1.39,1.39,0,0,1-1.39-1.39v-3.16L67,108.18l10.85,6.26v-3.16a1.39,1.39,0,0,1,1.39-1.39A42.08,42.08,0,1,0,42.14,47.94a1.39,1.39,0,1,1-2.45-1.32,44.86,44.86,0,0,1,84.4,21.2ZM61.37,104.66A1.4,1.4,0,0,1,60,106.05H53.91a1.39,1.39,0,1,1,0-2.78h4.63a19.35,19.35,0,0,0-38.6,0h4.64a1.39,1.39,0,1,1,0,2.78H18.5a1.39,1.39,0,0,1-1.39-1.39,22.13,22.13,0,0,1,44.26,0ZM27.49,71.1a11.83,11.83,0,0,0,23.5,0,3.58,3.58,0,0,0,.89-6.87,12.78,12.78,0,0,0-7.72-10.29v-2a1.4,1.4,0,0,0-1.39-1.39H35.71a1.39,1.39,0,0,0-1.39,1.39v2A12.78,12.78,0,0,0,26.6,64.23a3.58,3.58,0,0,0,.89,6.87Zm11.75,7.69a9.06,9.06,0,0,1-8.94-7.66H48.18A9.06,9.06,0,0,1,39.24,78.79Zm4.91-16.23V57A10,10,0,0,1,49,64H44A5,5,0,0,0,44.15,62.56Zm-7-7.62V53.3h4.28v9.26a2.12,2.12,0,0,1-.79,1.65l-.11.09a2.12,2.12,0,0,1-2.48,0l-.11-.09a2.12,2.12,0,0,1-.79-1.65ZM34.32,57v5.52A5.06,5.06,0,0,0,34.53,64H29.45A10,10,0,0,1,34.32,57ZM28,66.75h8.71a4.91,4.91,0,0,0,5.15,0h8.72a.8.8,0,1,1,0,1.6H28a.8.8,0,0,1,0-1.6Z"/><rect class="cls-2" width="141.2" height="141.2" rx="70.6"/></g></g></svg>