<svg xmlns="http://www.w3.org/2000/svg" viewBox="0 0 141.2 141.2"><defs><style>.cls-1{}.cls-2{fill:none;}</style></defs><g id="Calque_2" data-name="Calque 2"><g id="Layer_1" data-name="Layer 1"><path class="cls-1" d="M109.1,43.66A26.11,26.11,0,0,0,97,38.49a10.52,10.52,0,0,0-3.63-9.42,24.12,24.12,0,0,1,4.3-4.78A1.63,1.63,0,0,0,98,22.21,10.11,10.11,0,0,0,94.66,19a1.61,1.61,0,0,0-1.94.15A20.65,20.65,0,0,0,89,23.85,12.34,12.34,0,0,0,80.93,19c-6.76-1.35-15.66.82-20.27,4.94A122.15,122.15,0,0,0,49.27,36.21C44.34,42,39.69,47.52,34.57,50.67a.79.79,0,0,0-.39.74.83.83,0,0,0,.48.71,31.51,31.51,0,0,0,12,2.67,18.64,18.64,0,0,0,4.72-.57,28.62,28.62,0,0,0-2.07,4.68A56,56,0,0,0,42,61.84c-14.21,6.9-23.43,18.5-23.43,28.23a.5.5,0,0,0,0,.12c0,7.6,3.72,15.74,10,21.79,7.11,6.88,16.86,10.62,27.6,10.62l1.53,0A32.87,32.87,0,0,0,85.41,106.2a44.88,44.88,0,0,0,5,.3c8.31,0,15.55-2.55,21.17-7.5,7.06-6.22,11.1-16,11.1-26.78C122.65,61,117.46,50,109.1,43.66ZM95.31,38.31a26.24,26.24,0,0,0-6.48.33,33,33,0,0,1,3.58-8.18A9,9,0,0,1,95.31,38.31ZM93.79,20.39A8.73,8.73,0,0,1,96.57,23a26.4,26.4,0,0,0-5.06,5.79l0,0v0A34.66,34.66,0,0,0,87,39l-.67.16-.52-.1A44.57,44.57,0,0,1,87.32,32l.8-.13a.82.82,0,0,0-.23-1.63,32.43,32.43,0,0,0-5.5,1.27,7.7,7.7,0,0,0-.6-.89A38.78,38.78,0,0,1,89.14,29a.84.84,0,0,0,.72-.92.8.8,0,0,0-.82-.71A21.72,21.72,0,0,1,93.79,20.39ZM64.51,32.18a13.64,13.64,0,0,1,9-3.66,11,11,0,0,1,3.16.47,7.69,7.69,0,0,1,1.58.68C74,31.2,63,36.74,57.69,53.62,56.92,44.46,59.32,36.78,64.51,32.18Zm15.31-1.3,0,0s0,0,0,0a6.8,6.8,0,0,1,2,5.93c-.83,4.88-7,7.79-12.9,10.6-3.49,1.66-6.88,3.27-9.23,5.27C65.6,35.74,77.51,31.54,79.82,30.88ZM83.1,33a21.59,21.59,0,0,1,2.4-.65,45.62,45.62,0,0,0-1.31,6.49c-.38,0-.77-.06-1.17-.07a8.75,8.75,0,0,0,.47-1.63A8.17,8.17,0,0,0,83.1,33ZM36.77,51.19c4.81-3.34,9.16-8.49,13.76-13.91a119.09,119.09,0,0,1,11.23-12.1C66,21.36,74.3,19.36,80.61,20.62c2.51.5,5.81,1.77,7.5,4.9-.34.67-.66,1.39-1,2.13a28.82,28.82,0,0,0-6.55,1.69,9.33,9.33,0,0,0-3.48-1.93C72.58,26,67.46,27.36,63.41,31c-4.42,3.92-7,9.87-7.43,17A29,29,0,0,0,52.67,52C46.89,54.42,39.76,52.3,36.77,51.19Zm19.14-.71a42.74,42.74,0,0,0,.55,6.63,49.82,49.82,0,0,0-5.2,1.19A28.49,28.49,0,0,1,55.91,50.48ZM42.72,63.32a48.79,48.79,0,0,1,20.87-5.19c1,0,2,0,2.92.12,4.91.43,8.89,1.92,11.63,4.31l0,0,.06.06a11.75,11.75,0,0,1,2.84,3.71c4.68,9.65-4.89,24-21.34,32s-33.66,6.63-38.34-3a11.87,11.87,0,0,1-1.17-4.65c0-.15,0-.3,0-.46C20,81.11,29,70,42.72,63.32Zm14.87,57.61c-10.88.36-20.8-3.25-27.93-10.14A32.27,32.27,0,0,1,21.87,99c3.58,4.06,9.73,6.16,17,6.16a50.42,50.42,0,0,0,21.57-5.32C76,92.26,85.63,79,83.6,68.81c6.07,9.68,6.81,23.93,1.05,35.36A31.22,31.22,0,0,1,57.59,120.93Zm52.87-23.17c-6.21,5.48-14.56,7.84-24.21,6.87,7.29-14.77,4.24-34-6.85-43.16-3-2.71-7.37-4.4-12.75-4.86a39.31,39.31,0,0,0-8.08.19C60,53.58,64.69,51.33,69.67,49s10.07-4.79,12.49-8.51a14.11,14.11,0,0,1,4,.38.85.85,0,0,0,.42,0A24.68,24.68,0,0,1,95.91,40h.15a24.57,24.57,0,0,1,12,5c8,6.06,12.9,16.49,12.9,27.25C121,82.54,117.16,91.85,110.46,97.76Z"/><path class="cls-1" d="M49.07,73.86a8,8,0,0,1,2,.25,1.09,1.09,0,0,0,.25,0,.84.84,0,0,0,.75-.47l5.59-11.77a.89.89,0,0,0,.08-.32s0,0,0,0,0,0,0-.06,0,0,0-.07a.83.83,0,0,0,0-.15s0,0,0-.06l-.08-.14,0,0,0,0a.57.57,0,0,0-.11-.11l-.06,0-.08-.06h0a1.11,1.11,0,0,0-.26-.07h-.08a.65.65,0,0,0-.14,0,51.66,51.66,0,0,0-8.91,2.57.84.84,0,0,0-.52.86l.92,9A.83.83,0,0,0,49.07,73.86ZM55.44,62.7l-4.6,9.67c-.33-.06-.69-.1-1-.13L49,64.63A49.73,49.73,0,0,1,55.44,62.7Z"/><path class="cls-1" d="M75.18,80.79,54.53,80a.81.81,0,0,0-.79.49,2.15,2.15,0,0,1-1,1l-.31.24a.83.83,0,0,0-.32.56.84.84,0,0,0,.2.63l9,10.57a.82.82,0,0,0,.63.29.87.87,0,0,0,.41-.11A44.37,44.37,0,0,0,75.82,82.1a.8.8,0,0,0,.07-.84A.81.81,0,0,0,75.18,80.79Zm-13,11.15-8-9.38a3.27,3.27,0,0,0,.8-.88l18.54.7A43.62,43.62,0,0,1,62.21,91.94Z"/><path class="cls-1" d="M54.29,78.41a.82.82,0,0,0,.79.59h0l22.3-.2a.84.84,0,0,0,.73-.46c2.09-4.21,2.36-8.14.8-11.37a10.16,10.16,0,0,0-2-2.71.83.83,0,0,0-1-.11L54.64,77.48A.81.81,0,0,0,54.29,78.41Zm21.95-12.5a7.59,7.59,0,0,1,1.19,1.78c1.28,2.64,1.08,5.9-.57,9.46L58,77.33Z"/><path class="cls-1" d="M36.45,70.79l8.86,4.33a.8.8,0,0,0,.9-.11,4.64,4.64,0,0,1,.89-.6.81.81,0,0,0,.44-.86C47,70.4,46,65.21,46,65.16a.83.83,0,0,0-1.11-.61,50.21,50.21,0,0,0-8.57,4.82.81.81,0,0,0-.35.74A.8.8,0,0,0,36.45,70.79Zm8.14-4.31c.29,1.53.86,4.52,1.23,6.77l-.24.17-7.12-3.48A49.7,49.7,0,0,1,44.59,66.48Z"/><path class="cls-1" d="M24.55,84.18a.78.78,0,0,0,.22,0L44,78.86a.81.81,0,0,0,.6-.75,4.07,4.07,0,0,1,.27-1.29.83.83,0,0,0,0-.64.82.82,0,0,0-.48-.43l-10.9-3.83a.83.83,0,0,0-.8.14A34.4,34.4,0,0,0,23.81,83a.83.83,0,0,0,.74,1.19Zm8.86-10.55,9.72,3.42c0,.12-.06.25-.08.37L26.19,82.05A33.89,33.89,0,0,1,33.41,73.63Z"/><path class="cls-1" d="M52.82,75.13a5.29,5.29,0,0,1,.77.93.83.83,0,0,0,.54.37l.16,0a.77.77,0,0,0,.48-.16L73.28,63.14a.81.81,0,0,0,.35-.75.84.84,0,0,0-.49-.68,25.61,25.61,0,0,0-12.33-1.54.84.84,0,0,0-.65.42L52.65,74.13A.81.81,0,0,0,52.82,75.13Zm8.57-13.35a25.36,25.36,0,0,1,9.68.91L54.47,74.48l-.08-.09Z"/><path class="cls-1" d="M47.75,82.48a.82.82,0,0,0-1,.18L32.12,99.19A.83.83,0,0,0,32,100a.81.81,0,0,0,.62.54,26,26,0,0,0,5.26.5,40.17,40.17,0,0,0,6-.49.83.83,0,0,0,.68-.64l3.67-16.52A.82.82,0,0,0,47.75,82.48ZM43,99a32.43,32.43,0,0,1-8.69.17l11.54-13Z"/><path class="cls-1" d="M51,82.84a.8.8,0,0,0-.85-.31.84.84,0,0,0-.62.67L46.86,98.79a.82.82,0,0,0,.25.74.79.79,0,0,0,.56.22l.2,0a54.32,54.32,0,0,0,11.41-4.28.8.8,0,0,0,.43-.55.79.79,0,0,0-.14-.68Zm-2.29,15,2.13-12.45,6.82,9A53.32,53.32,0,0,1,48.7,97.81Z"/><path class="cls-1" d="M27.52,98.65a.83.83,0,0,0,1-.12L45.7,82.33a.84.84,0,0,0,0-1.16,4.59,4.59,0,0,1-.63-.91.82.82,0,0,0-1-.39l-21.42,8a.83.83,0,0,0-.54.7,10.46,10.46,0,0,0,1,5.48A10.1,10.1,0,0,0,27.52,98.65ZM44,81.67,27.8,96.9a8.36,8.36,0,0,1-3.23-3.55,8.66,8.66,0,0,1-.82-4.11Z"/><rect class="cls-2" width="141.2" height="141.2" rx="70.6"/></g></g></svg>