<svg xmlns="http://www.w3.org/2000/svg" viewBox="0 0 141.2 141.2"><defs><style>.cls-1{}.cls-2{fill:none;}</style></defs><g id="Calque_2" data-name="Calque 2"><g id="Layer_1" data-name="Layer 1"><path class="cls-1" d="M105.17,49.78c-.29-1.88-3.13-6-4.16-7a1.08,1.08,0,0,0-1.53,1.53c.86.86,3.36,4.62,3.54,5.81.34,2.23-.64,4-2,6.33a30.73,30.73,0,0,0-4.64,17.12c0,6.87-6.77,17.93-17.71,23.83-10.2,5.49-22.25,6-26.43,5l-1.81-.41c-2.53-.54-3-.68-3.67-1.39A2.61,2.61,0,0,1,46,99.25a2.6,2.6,0,0,0-.61-1.16,2,2,0,0,0-1.09-.54c-.28-.06-.67-.14-1.54-1-1.36-1.34-4.68-8.85-4.68-15.15,0-11.53,3.91-20.58,11.61-27,8.55-7,18.9-9,24.45-10,1.39-.26,2.48-.47,3.25-.69a53.71,53.71,0,0,0,6.24-2.55,36.2,36.2,0,0,1,5.22-2.09l.54-.13c2.13-.5,2.39-.55,3-.36a5.7,5.7,0,0,1,2.92,3.25,1.09,1.09,0,0,0,2.17,0c0-1.66-2.32-4.71-4.48-5.34-1.2-.35-1.87-.2-4.11.32l-.54.13a37,37,0,0,0-5.62,2.26,50.63,50.63,0,0,1-6,2.43c-.65.2-1.69.39-3,.64C68,43.35,57.34,45.34,48.34,52.76c-8.11,6.7-12.4,16.6-12.4,28.63,0,6.69,3.44,14.82,5.31,16.69a5,5,0,0,0,2.64,1.62h0l.07.2a4.69,4.69,0,0,0,1.27,2.17c1.18,1.18,2.17,1.39,4.74,2l1.79.4a23.89,23.89,0,0,0,5.2.45,49.66,49.66,0,0,0,22.75-5.61c10.4-5.59,18.85-17.13,18.85-25.72a28.62,28.62,0,0,1,4.34-16C104.36,55,105.62,52.76,105.17,49.78Z"/><path class="cls-1" d="M87.54,65.9a3.68,3.68,0,0,0-4.92-.25,3.39,3.39,0,0,0-.18-.39,4.64,4.64,0,0,0,3-7.9,1.08,1.08,0,0,0-1.53,1.53,2.48,2.48,0,1,1-3.5,0,2.4,2.4,0,0,1,.75-.5,1.09,1.09,0,0,0-.88-2,5.06,5.06,0,0,0-1.41,1,4.86,4.86,0,0,0-.54.66,4.67,4.67,0,0,0-6.45-1.36,4.71,4.71,0,0,0-1.71,2l-.2-.22a4.08,4.08,0,0,0-6.8,4.07,4.67,4.67,0,0,0-4.82,3.25,3.63,3.63,0,0,0-5,5.16,3.71,3.71,0,0,0-.81-.08A3.93,3.93,0,0,0,49.63,72a4.14,4.14,0,0,0-.55.7,1.08,1.08,0,0,0,1.82,1.18,1.84,1.84,0,0,1,2.53-.59,2.1,2.1,0,0,1,.33.26,1.84,1.84,0,0,1-2.6,2.59,1.08,1.08,0,0,0-1.53,1.53,3.89,3.89,0,0,0,1.73,1,4.64,4.64,0,0,0,.38,6.56l.2.17H51.8a4,4,0,0,0-4,4,5.25,5.25,0,0,0,0,.56,1.11,1.11,0,0,0,1.24.93A1.09,1.09,0,0,0,50,89.6a1.81,1.81,0,0,1,.51-1.53,1.86,1.86,0,0,1,2.56,0,1.81,1.81,0,0,1-1.63,3.06,1.08,1.08,0,0,0-.39,2.12A4,4,0,0,0,55.4,91l.21.23a4.67,4.67,0,0,0,6.6,0h0a4.6,4.6,0,0,0,.71-.92,4.18,4.18,0,0,0,5.82,1.05,4.32,4.32,0,0,0,.57-.47h0a4.2,4.2,0,0,0,.6-5.14,4.8,4.8,0,0,0,5.9-2.83,3.49,3.49,0,0,0,4.55-.32h0a3.48,3.48,0,0,0,.39-4.46,4.24,4.24,0,0,0,.94.11A4.05,4.05,0,0,0,84,77.59a1.09,1.09,0,1,0-1.2-1.81h0a2,2,0,0,1-2.47-3,2,2,0,0,1,2.78,0,1.92,1.92,0,0,1,.53.86,1.08,1.08,0,0,0,2.09-.54,3.68,3.68,0,0,0-.36-.9,3.68,3.68,0,0,0,2.22-6.26ZM61.79,79.37a2.5,2.5,0,1,1,0,3.54h0a2.48,2.48,0,0,1,0-3.52ZM65,75.81a2.5,2.5,0,1,1,3.54,0h0a2.5,2.5,0,0,1-3.53,0ZM72.22,69a2.5,2.5,0,1,1,0-3.54h0a2.48,2.48,0,0,1,0,3.51Zm.39,3.52a2.65,2.65,0,1,1,0,3.74h0a2.63,2.63,0,0,1,0-3.73v0Zm-11.48.75a2.65,2.65,0,1,1-3.75,0,2.63,2.63,0,0,1,3.74,0Zm15.19-3.85a2.65,2.65,0,1,1,3.75,0,2.65,2.65,0,0,1-3.75,0h0ZM54.85,79.23a2.49,2.49,0,1,1-1.77.73A2.53,2.53,0,0,1,54.85,79.23Zm4.46,3.82.11.23h-.18A1.25,1.25,0,0,0,59.31,83.05Zm8,.79,0,0h0ZM72.6,58.79a2.5,2.5,0,1,1-.73,1.77A2.5,2.5,0,0,1,72.6,58.79ZM65.68,60a1.92,1.92,0,1,1,0,2.71h0a1.92,1.92,0,0,1,0-2.71ZM61,65.33a2.5,2.5,0,1,1,3.65,3.42l-.12.12h0a2.5,2.5,0,1,1-3.65-3.42Zm-5.9,2.29a1.47,1.47,0,0,1,2.07,2.08,1.47,1.47,0,0,1-2.07-2.08Zm-.58,18.76v.06l-.07-.07Zm6.16,3.32a2.5,2.5,0,1,1,0-3.53A2.5,2.5,0,0,1,60.68,89.7Zm7.1-.34a2,2,0,1,1,0-2.86h0A2,2,0,0,1,67.78,89.36ZM73.19,83a2.64,2.64,0,1,1,0-3.74h0a2.63,2.63,0,0,1,0,3.72l0,0Zm5.64-2h0a1.3,1.3,0,1,1,.39-.93A1.29,1.29,0,0,1,78.83,81.05ZM86,69.57a1.55,1.55,0,0,1-2.14,0,1.51,1.51,0,1,1,2.14,0Z"/><rect class="cls-2" width="141.2" height="141.2" rx="70.6"/></g></g></svg>