<svg xmlns="http://www.w3.org/2000/svg" viewBox="0 0 141.2 141.2"><defs><style>.cls-1{fill:none;}.cls-2{}</style></defs><g id="Calque_2" data-name="Calque 2"><g id="Layer_1" data-name="Layer 1"><rect class="cls-1" width="141.2" height="141.2" rx="70.6"/><path class="cls-2" d="M113,71h0a8.29,8.29,0,0,0,1.74-5.09V62.51a8.49,8.49,0,1,0-17,0V65.9A8.44,8.44,0,0,0,99.5,71a8.47,8.47,0,0,0-6.93,3.87L87.94,83l-3.5-7.59a1.14,1.14,0,0,0-.1-.19,8.77,8.77,0,0,0-7-4.21,8.39,8.39,0,0,0,1.77-5.12V62.51a8.49,8.49,0,0,0-17,0V65.9A8.51,8.51,0,0,0,63.86,71,8.45,8.45,0,0,0,57,74.77a1.41,1.41,0,0,0-.13.24l-3.61,8-4.68-8.22A8.44,8.44,0,0,0,41.7,71a8.44,8.44,0,0,0,1.75-5.11V62.51a8.49,8.49,0,1,0-17,0V65.9A8.29,8.29,0,0,0,28.22,71h0a8.5,8.5,0,0,0-8.48,8.49V93.06a1.7,1.7,0,0,0,1.7,1.69h5.09v22.06a1.7,1.7,0,0,0,1.69,1.7H41.75a1.7,1.7,0,0,0,1.7-1.7V85.4L48.8,94a1.7,1.7,0,0,0,1.44.79H57a1.68,1.68,0,0,0,1.47-.85s0,0,0-.05l0,0,3.57-7.14v30.14a1.7,1.7,0,0,0,1.7,1.7H77.39a1.7,1.7,0,0,0,1.7-1.7V86.67l3.56,7.14,0,0s0,0,0,0a1.09,1.09,0,0,0,.13.17l.12.16.2.17a1.22,1.22,0,0,0,.42.23l.14.06a1.48,1.48,0,0,0,.47,0H91A1.7,1.7,0,0,0,92.4,94l5.35-8.56v31.41a1.7,1.7,0,0,0,1.7,1.7H113a1.7,1.7,0,0,0,1.69-1.7V94.75h5.09a1.7,1.7,0,0,0,1.7-1.69V79.48A8.5,8.5,0,0,0,113,71Zm-11.88-8.48a5.09,5.09,0,0,1,10.18,0V65.9a5.09,5.09,0,0,1-10.18,0Zm-35.64,0a5.09,5.09,0,0,1,10.18,0V65.9a5.09,5.09,0,0,1-10.18,0ZM29.87,65.9V62.51a5.09,5.09,0,1,1,10.18,0V65.9a5.09,5.09,0,0,1-10.18,0Zm10.18,49.22H36.66v-17h-3.4v17H29.87V94.75H40.05ZM51.18,91.36l-8-12.78a1.7,1.7,0,0,0-3.14.9V91.36H29.87V79.48H26.48V91.36h-3.4V79.48a5.09,5.09,0,0,1,5.09-5.09h5.09V88h3.4V74.39h5.2a5,5,0,0,1,3.82,2.15l8.43,14.81Zm24.51,23.76H72.3v-17H68.9v17H65.51V94.75H75.69Zm3.23-36.4a1.7,1.7,0,0,0-3.23.76V91.36H65.51V79.48a1.7,1.7,0,0,0-3.22-.76L57,89.26l-1.51-3,4.38-9.68a5.06,5.06,0,0,1,4.16-2.16H68.9V88h3.4V74.39h4.64a5.31,5.31,0,0,1,4.47,2.55l4.28,9.3-1.51,3Zm32.41,36.4h-3.39v-17h-3.4v17h-3.39V94.75h10.18Zm6.79-23.76h-3.4V79.48h-3.39V91.36H101.15V79.48a1.7,1.7,0,0,0-3.14-.9L90,91.36H87.09l8.36-14.7a5.1,5.1,0,0,1,3.89-2.26h5.2V88h3.4V74.39H113a5.09,5.09,0,0,1,5.09,5.09Z"/><path class="cls-2" d="M70.6,16.69A51,51,0,0,0,19.69,67.6v1.7h3.39V67.6a47.32,47.32,0,0,1,4.6-20.36H43.22c-.55,2.15-1,4.32-1.36,6.52l3.35.52a67.83,67.83,0,0,1,1.51-7H68.9v3.39h3.4V47.24H94.56a67.88,67.88,0,0,1,1.52,7l3.35-.52c-.34-2.2-.82-4.37-1.36-6.52h15.46a47.16,47.16,0,0,1,4.59,20.36v1.7h3.39V67.6A51,51,0,0,0,70.6,16.69ZM59.11,22.33l.81-1a46.93,46.93,0,0,1,9-1.19v8.45H54.78A70.75,70.75,0,0,1,59.11,22.33Zm-8.3,6.24H43.55A47.28,47.28,0,0,1,54.48,22.9C53.17,24.74,51.94,26.62,50.81,28.57ZM72.3,20.12a47.88,47.88,0,0,1,9.08,1.21l.79,1a69.3,69.3,0,0,1,4.33,6.24H72.3Zm14.53,2.82a47.18,47.18,0,0,1,10.82,5.63H90.47Q88.78,25.68,86.83,22.94ZM29.48,43.84A47.61,47.61,0,0,1,39.22,32h9.72a72.69,72.69,0,0,0-4.79,11.88Zm18.24,0A69.22,69.22,0,0,1,52.81,32H68.9V43.84Zm24.58,0V32H88.47a69.22,69.22,0,0,1,5.09,11.88Zm24.83,0A72.69,72.69,0,0,0,92.34,32H102a47.61,47.61,0,0,1,9.74,11.88Z"/><rect class="cls-2" x="46.84" y="62.51" width="3.39" height="3.39"/><rect class="cls-2" x="53.63" y="62.51" width="3.39" height="3.39"/><rect class="cls-2" x="84.18" y="62.51" width="3.39" height="3.39"/><rect class="cls-2" x="90.96" y="62.51" width="3.39" height="3.39"/></g></g></svg>