<svg xmlns="http://www.w3.org/2000/svg" viewBox="0 0 141.2 141.2"><defs><style>.cls-1{}.cls-2{fill:none;}</style></defs><g id="Calque_2" data-name="Calque 2"><g id="Layer_1" data-name="Layer 1"><path class="cls-1" d="M103.53,32.73l-.71-1.39-71,72.46,1.4.68c19.86,9.62,43.82,6.12,59.63-8.69.54-.51,1.06-1,1.57-1.54,15.72-16,19.5-41,9.1-61.52ZM51.65,90c.52-.54,3.27.94,4,2.33.6,1.19-.36,2.17-1.56,1.59-1.41-.67-2.94-3.39-2.41-3.92ZM61.88,85.9c-1.41-.67-2.94-3.39-2.41-3.92s3.27.94,4,2.33c.6,1.19-.36,2.17-1.56,1.59Zm4.82,7.86c.6,1.18-.37,2.17-1.57,1.59-1.4-.67-2.93-3.39-2.41-3.92s3.28.93,4,2.33Zm3-15.84c-1.41-.67-2.94-3.39-2.41-3.92s3.27.93,4,2.33c.6,1.19-.36,2.17-1.56,1.59Zm4.82,7.85c.6,1.19-.37,2.18-1.57,1.6C71.55,86.7,70,84,70.54,83.44s3.28.94,4,2.33ZM79.21,81c-1.41-.68-2.94-3.39-2.41-3.93s3.27.94,4,2.33c.6,1.19-.36,2.17-1.56,1.6Zm3.22,6.28c.6,1.19-.36,2.18-1.56,1.6-1.41-.67-2.94-3.39-2.41-3.93s3.27.94,4,2.33ZM77.52,69.94c-1.41-.67-2.94-3.39-2.41-3.93s3.27.94,4,2.33c.6,1.19-.36,2.18-1.56,1.6ZM87,73c-1.41-.67-2.94-3.39-2.41-3.92s3.27.94,4,2.33c.6,1.19-.36,2.17-1.56,1.59Zm3.22,6.29c.6,1.19-.36,2.17-1.56,1.6-1.41-.68-2.94-3.39-2.41-3.93s3.27.94,4,2.33ZM85.34,62c-1.41-.67-2.94-3.39-2.41-3.93s3.27.94,4,2.33c.6,1.19-.36,2.18-1.56,1.6Zm7.82-8c-1.41-.68-2.94-3.39-2.42-3.93s3.28.94,4,2.33c.6,1.19-.36,2.17-1.56,1.6Zm3.25,9.45c.6,1.19-.36,2.17-1.56,1.59-1.41-.67-2.94-3.39-2.41-3.92s3.27.94,4,2.33ZM91.34,94.15c-14.77,13.84-37,17.36-55.72,9l3.1-3.16c17.49,6.28,37.47,2,50-10.7,12.73-13,17-33.84,10.45-50.95l3.1-3.16c9.41,20,5.06,44.09-10.89,59Z"/><rect class="cls-2" width="141.2" height="141.2" rx="70.6"/></g></g></svg>