<svg xmlns="http://www.w3.org/2000/svg" viewBox="0 0 141.2 141.2"><defs><style>.cls-1{}.cls-2{fill:none;}</style></defs><g id="Calque_2" data-name="Calque 2"><g id="Layer_1" data-name="Layer 1"><path class="cls-1" d="M103.28,61.18a3.51,3.51,0,1,1,3.51-3.51A3.51,3.51,0,0,1,103.28,61.18Zm0-4.68a1.17,1.17,0,1,0,0,2.34,1.17,1.17,0,1,0,0-2.34Z"/><path class="cls-1" d="M37.92,79.83a3.51,3.51,0,1,1,3.51-3.51A3.51,3.51,0,0,1,37.92,79.83Zm0-4.68a1.17,1.17,0,1,0,1.17,1.17A1.17,1.17,0,0,0,37.92,75.15Z"/><path class="cls-1" d="M86.48,47.26A3.52,3.52,0,1,1,90,43.74,3.52,3.52,0,0,1,86.48,47.26Zm0-4.69a1.17,1.17,0,1,0,1.17,1.17A1.17,1.17,0,0,0,86.48,42.57Z"/><path class="cls-1" d="M52.06,48.68A2.93,2.93,0,1,1,55,45.76,2.93,2.93,0,0,1,52.06,48.68Zm0-3.51a.59.59,0,1,0,.58.59A.58.58,0,0,0,52.06,45.17Z"/><path class="cls-1" d="M99.77,43.74a1.38,1.38,0,0,1-1-.39,1.34,1.34,0,0,1-.39-1,1.33,1.33,0,0,1,1.35-1.35,1.35,1.35,0,0,1,1.35,1.35,1.31,1.31,0,0,1-.4,1A1.34,1.34,0,0,1,99.77,43.74Zm0-2.34a1,1,0,0,0-1,1,1,1,0,0,0,.29.7,1,1,0,0,0,1.4,0,1,1,0,0,0,0-1.41A1,1,0,0,0,99.77,41.4Z"/><path class="cls-1" d="M64.47,40.79a1.35,1.35,0,0,1-1.35-1.35,1.32,1.32,0,0,1,.4-.95,1.35,1.35,0,0,1,1.9,0,1.32,1.32,0,0,1,.4.95,1.35,1.35,0,0,1-1.35,1.35Zm0-2.34a1,1,0,0,0-.7.29,1,1,0,0,0,0,1.41,1,1,0,0,0,1.4,0,1,1,0,0,0,0-1.41A1,1,0,0,0,64.47,38.45Z"/><rect class="cls-2" width="141.2" height="141.2" rx="70.6"/><path class="cls-1" d="M79.57,65.17a.47.47,0,0,0,.7-.4v-.52a7.91,7.91,0,0,0-4.66-7,11.67,11.67,0,0,1,2.83-3.47,1,1,0,0,0,.17.11.92.92,0,1,0-.48-1.21.89.89,0,0,0,0,.66,12.18,12.18,0,0,0-3,3.71c-.1,0-.2-.09-.3-.12a8.06,8.06,0,0,0-2.58-.42,8.32,8.32,0,0,0-3.24.68,12.35,12.35,0,0,0-3-3.85.89.89,0,0,0,0-.66.92.92,0,1,0-.48,1.21,1,1,0,0,0,.17-.11,12.1,12.1,0,0,1,2.92,3.62,8.23,8.23,0,0,0-2.69,2.15,7.75,7.75,0,0,0-1.67,5.26.39.39,0,0,0,.07.23.48.48,0,0,0,.64.18A13.31,13.31,0,0,1,70.51,63a13,13,0,0,1,6,.61A14.35,14.35,0,0,1,79.57,65.17Z"/><path class="cls-1" d="M62.32,69.39l-4.66-1.7-.22-.08c-.31-.74-.61-1.51-.92-2.27-.55-1.49-1.12-3-1.72-4.45-.13-.33-.27-.67-.4-1a1,1,0,0,0-.92-.68v0h-.23a1,1,0,0,0-.66,1.16q1.19,2.94,2.36,5.9l.91,2.25a1,1,0,0,0,.66.67h.07l.45.17,1.71.61,2.44.89a14.44,14.44,0,0,0-1,1.71,17.78,17.78,0,0,0-1.55,4.86h-4.6a1.08,1.08,0,0,0-.87.45l-.66.84-2.07,2.6-1.38,1.75a1,1,0,0,0-.28.66,1,1,0,0,0,.94.94.94.94,0,0,0,.66-.27l3.69-4.69.31-.4h4a17.59,17.59,0,0,0,.06,3.08,18.22,18.22,0,0,0,1,4.43l-4.23,1.34a1.37,1.37,0,0,0-.46.21,1.11,1.11,0,0,0-.37.59l-.26.9L53.24,93c-.21.74-.43,1.48-.65,2.17a1,1,0,0,0,.65,1.17h.24a1,1,0,0,0,.91-.68L56,90.1l.09-.27,3.79-1.18.32-.1A15.29,15.29,0,0,0,61.71,91,13.9,13.9,0,0,0,68,95.88a11.74,11.74,0,0,0,3.21.7v-32a12.67,12.67,0,0,0-4.59,1.3A13.8,13.8,0,0,0,62.32,69.39ZM63,82.15a2,2,0,1,1,2-2A2,2,0,0,1,63,82.15Zm4,7.77a2,2,0,1,1,2-2A2,2,0,0,1,67,89.92ZM69,73a2,2,0,1,1-2-2A2,2,0,0,1,69,73Z"/><path class="cls-1" d="M95.37,83.1,92.15,79l-.74-1a1.09,1.09,0,0,0-.9-.57H85.77a17.38,17.38,0,0,0-2.35-6.29,1.51,1.51,0,0,0-.18-.26c1.57-.56,3.13-1.11,4.68-1.71a1,1,0,0,0,.66-.66v-.08l.15-.37.55-1.39c.52-1.27,1-2.55,1.55-3.82l1-2.47a.94.94,0,0,0-.66-1.15h-.22l0-.05a1,1,0,0,0-.93.68l-1.1,2.76q-.89,2.2-1.77,4.38l-.21.51-4.28,1.57-.6.21a13.85,13.85,0,0,0-5.9-4.16,12.52,12.52,0,0,0-3-.6v32a12.77,12.77,0,0,0,2.74-.53,13.74,13.74,0,0,0,6.45-4.57,16.41,16.41,0,0,0,1.85-2.95l4,1.25h.11c.5,1.66,1,3.33,1.48,5,.07.26.15.51.23.73a.93.93,0,0,0,.9.69,1,1,0,0,0,.25,0,.94.94,0,0,0,.66-1.15h0l-1.47-5c-.11-.36-.22-.74-.32-1.06L90,88.8a1,1,0,0,0-.73-.68c-.8-.27-1.6-.5-2.41-.74L85,86.82a17.34,17.34,0,0,0,.92-3.69,18.26,18.26,0,0,0,.18-2.56,10.2,10.2,0,0,0,0-1.23h4l3.48,4.42.52.67a1,1,0,0,0,1.33,0A1,1,0,0,0,95.37,83.1ZM77.28,71a2,2,0,1,1-2,2A2,2,0,0,1,77.28,71Zm0,18.94a2,2,0,1,1,2-2A2,2,0,0,1,77.28,89.92Zm4-7.77a2,2,0,1,1,2-2A2,2,0,0,1,81.28,82.15Z"/></g></g></svg>