<svg xmlns="http://www.w3.org/2000/svg" viewBox="0 0 141.2 141.2"><defs><style>.cls-1{fill:none;}.cls-2{}</style></defs><g id="Calque_2" data-name="Calque 2"><g id="Layer_1" data-name="Layer 1"><rect class="cls-1" width="141.2" height="141.2" rx="70.6"/><path class="cls-2" d="M96.8,74.71a26.1,26.1,0,0,0-9.7-20.3,13.94,13.94,0,0,0,6.3-6.8l2.8-6.3-6.9-.9a14,14,0,0,0-14.6,8.3v.1a28.28,28.28,0,0,0-4.1-.3,26.2,26.2,0,1,0,8.5,51,13.1,13.1,0,0,0,6-3A26.3,26.3,0,0,0,96.8,74.71Zm-2.2,0a24.16,24.16,0,0,1-4.1,13.5,20.63,20.63,0,0,0,1.1-6.5c.2-7.5-3.2-16.1-11.5-18.4h-.2a24.38,24.38,0,0,0-6.3-1.1l.9-6.9,4.2.5a8.6,8.6,0,0,0,1.6.1h.1a12.51,12.51,0,0,0,4.3-.7A24.3,24.3,0,0,1,94.6,74.71ZM72.3,56.41l-.5,3.7-.5-3.7Zm16.8-13.8,4,.5-1.6,3.7a12.3,12.3,0,0,1-6.4,6.3l-.4.2a11.41,11.41,0,0,1-4.1.7h-.2a5.7,5.7,0,0,1-1.3-.1l-1.8-.3,9.4-6a1.08,1.08,0,0,0-1.2-1.8l-10,6.4,1.1-2.6A12,12,0,0,1,89.1,42.61ZM46.6,74.71a24,24,0,0,1,24-24c1,0,2.1.1,3.2.2l-1.5,3.3H68.8l1,7.7c-2.2-.5-4-1.8-5.2-5.2a1.11,1.11,0,0,0-2.1.7c2.2,6.3,6.6,6.9,10.6,7,3.8.1,6,.9,6,1a.6.6,0,0,0,.4.1h0c7.1,2,10,9.6,9.8,16.2-.2,4.8-2,10-5.6,13.1a27.25,27.25,0,0,1-5.4,2.7h-.2a24.39,24.39,0,0,1-7.7,1.3A24.05,24.05,0,0,1,46.6,74.71Z"/><path class="cls-2" d="M52.8,69.21a1,1,0,0,0-2-.6,21.08,21.08,0,0,0,.4,12.9,1.2,1.2,0,0,0,1,.7.76.76,0,0,0,.4-.1,1.17,1.17,0,0,0,.7-1.4A17.49,17.49,0,0,1,52.8,69.21Z"/><path class="cls-2" d="M55.5,60.31a21.93,21.93,0,0,0-2.9,3.9,1.13,1.13,0,0,0,.4,1.5.9.9,0,0,0,.5.1,1.05,1.05,0,0,0,.9-.5,21.14,21.14,0,0,1,2.6-3.5,1.06,1.06,0,0,0-1.5-1.5Z"/></g></g></svg>