<svg xmlns="http://www.w3.org/2000/svg" viewBox="0 0 141.2 141.2"><defs><style>.cls-1{fill:none;}.cls-2{}</style></defs><g id="Calque_2" data-name="Calque 2"><g id="Layer_1" data-name="Layer 1"><rect class="cls-1" width="141.2" height="141.2" rx="70.6"/><path class="cls-2" d="M50.11,110.41a2.46,2.46,0,0,1-1.19-.31,45,45,0,0,1-10.52-7.94A2.5,2.5,0,1,1,42,98.65a40.31,40.31,0,0,0,9.36,7.07,2.5,2.5,0,0,1-1.21,4.69Z"/><path class="cls-2" d="M32.84,92.85a2.51,2.51,0,0,1-2.22-1.34,44.83,44.83,0,0,1-4.34-12.45,2.5,2.5,0,1,1,4.91-.94,39.52,39.52,0,0,0,3.86,11.06,2.51,2.51,0,0,1-1,3.38A2.55,2.55,0,0,1,32.84,92.85Z"/><path class="cls-2" d="M112.17,81.43a2,2,0,0,1-.49-.05,2.49,2.49,0,0,1-2-2.93,40.41,40.41,0,0,0,.77-7.85c0-1.29-.07-2.59-.19-3.87a2.5,2.5,0,0,1,5-.47c.13,1.43.21,2.89.21,4.34a45.56,45.56,0,0,1-.87,8.82A2.5,2.5,0,0,1,112.17,81.43Z"/><path class="cls-2" d="M28.22,68.65H28a2.51,2.51,0,0,1-2.23-2.75A44.65,44.65,0,0,1,29,53.12a2.5,2.5,0,0,1,4.6,1.94A40,40,0,0,0,30.7,66.41,2.5,2.5,0,0,1,28.22,68.65Z"/><path class="cls-2" d="M109.79,56.91a2.5,2.5,0,0,1-2.31-1.54,40,40,0,0,0-6-10.07,2.5,2.5,0,0,1,3.87-3.16,45,45,0,0,1,6.76,11.32,2.49,2.49,0,0,1-1.36,3.26A2.44,2.44,0,0,1,109.79,56.91Z"/><path class="cls-2" d="M37.78,46a2.55,2.55,0,0,1-1.6-.57,2.51,2.51,0,0,1-.32-3.53,45.39,45.39,0,0,1,9.81-8.8,2.5,2.5,0,1,1,2.76,4.17,40.37,40.37,0,0,0-8.72,7.83A2.53,2.53,0,0,1,37.78,46Z"/><path class="cls-2" d="M94.2,37.83a2.45,2.45,0,0,1-1.39-.43,39.9,39.9,0,0,0-10.58-5,2.5,2.5,0,0,1,1.47-4.78,44.79,44.79,0,0,1,11.9,5.69,2.49,2.49,0,0,1,.68,3.46A2.52,2.52,0,0,1,94.2,37.83Z"/><path class="cls-2" d="M58.33,32.36a2.5,2.5,0,0,1-.71-4.89A45,45,0,0,1,70.49,25.6h.17a2.5,2.5,0,0,1,0,5h-.2a40,40,0,0,0-11.41,1.66A2.55,2.55,0,0,1,58.33,32.36Z"/><path class="cls-2" d="M69.24,115.6a45.38,45.38,0,0,1-6.6-.48,2.5,2.5,0,1,1,.73-5c1.11.17,2.23.28,3.37.35v-6.17a2.5,2.5,0,0,1,5,0v8.75A2.51,2.51,0,0,1,69.24,115.6Z"/><path class="cls-2" d="M112.58,101.11l-5.78-3.94a46,46,0,0,0,3.37-5.33,2.5,2.5,0,0,0-4.41-2.37,39.35,39.35,0,0,1-3.09,4.88l-5.23-3.57a1.26,1.26,0,0,0-1.32-.06,1.28,1.28,0,0,0-.64,1.16l.81,15a1.28,1.28,0,0,0,.55,1,1.26,1.26,0,0,0,.7.22,1.23,1.23,0,0,0,.39-.06l14.34-4.71a1.25,1.25,0,0,0,.31-2.22Z"/><path class="cls-2" d="M95.49,50.6c-25.3,0-27.38,16.18-27.5,25.24-2.33-6.57-8.81-12.36-26.25-11.49,0,0,0,21.25,21.25,21.25,0,0,1.32-6.88-8-13.75,0,0,11.78,2.5,11.78,16.25v5a2.5,2.5,0,0,0,5,0V80.6c0-17.5,12.5-21.25,12.5-21.25-8.75,8.75-8.75,17.5-8.75,17.5C96.74,76.85,95.49,50.6,95.49,50.6Z"/></g></g></svg>