<svg xmlns="http://www.w3.org/2000/svg" viewBox="0 0 141.2 141.2"><defs><style>.cls-1{}.cls-2{fill:none;}</style></defs><g id="Calque_2" data-name="Calque 2"><g id="Layer_1" data-name="Layer 1"><path class="cls-1" d="M38.51,103.37h64.18a.82.82,0,1,0,0-1.64H99.41a1.42,1.42,0,0,0,0-.2,7.53,7.53,0,0,0-6.7-7.47V90.93a8.67,8.67,0,0,0,5.79-2c2.44-2.37,2.2-6.43,2.19-6.6a.82.82,0,0,0-.74-.77c-.17,0-4.22-.37-6.67,2A6.36,6.36,0,0,0,92,85.49a6.28,6.28,0,0,0-1.24-1.87c-2.37-2.45-6.43-2.21-6.6-2.2a.82.82,0,0,0-.76.75c0,.17-.38,4.22,2,6.66A8.6,8.6,0,0,0,91.1,91v3a7.52,7.52,0,0,0-6.69,7.47.71.71,0,0,0,0,.2H71.38V92.55h.05c1.62,0,5-.29,7.28-2.49,3-2.91,2.7-7.9,2.69-8.12a.82.82,0,0,0-.75-.76c-.2,0-5.19-.46-8.19,2.44A8,8,0,0,0,71.38,85V81.54c.73-.7,2.85-3,2.82-5.8,0-3.3-3-5.85-3.16-6a.83.83,0,0,0-1.07,0c-.13.11-3.09,2.71-3.06,6,0,2.68,2,4.86,2.83,5.65v3.29a7.8,7.8,0,0,0-.82-1C66,80.73,61,81,60.8,81a.81.81,0,0,0-.76.74c0,.21-.47,5.2,2.44,8.2,2.22,2.29,5.66,2.66,7.26,2.7v9H56.49a.71.71,0,0,0,0-.2,7.52,7.52,0,0,0-6.69-7.47V90.93a8.64,8.64,0,0,0,5.78-2c2.45-2.37,2.21-6.43,2.2-6.6a.82.82,0,0,0-.74-.77c-.18,0-4.23-.37-6.67,2a6.39,6.39,0,0,0-1.35,1.95,6.06,6.06,0,0,0-1.23-1.87c-2.37-2.45-6.43-2.21-6.6-2.2a.83.83,0,0,0-.77.75c0,.17-.37,4.22,2,6.66A8.6,8.6,0,0,0,48.19,91v3a7.52,7.52,0,0,0-6.69,7.47.71.71,0,0,0,0,.2h-3a.82.82,0,1,0,0,1.64Zm35.1-18.55c1.83-1.79,4.78-2,6.15-2,0,1.37-.35,4.3-2.2,6.09s-4.78,2-6.15,2C71.45,89.54,71.76,86.61,73.61,84.82Zm-5-9a6.78,6.78,0,0,1,2-4.22,6.71,6.71,0,0,1,2,4.19,6.81,6.81,0,0,1-2,4.22A6.74,6.74,0,0,1,68.56,75.79Zm-4.89,13c-1.79-1.84-2-4.78-2-6.15,1.37,0,4.31.36,6.09,2.2a8.72,8.72,0,0,1,2,5.54V91C68.37,91,65.45,90.67,63.67,88.83Zm30.8-4.11a7,7,0,0,1,4.61-1.56,7,7,0,0,1-1.69,4.56,7,7,0,0,1-4.61,1.56A7,7,0,0,1,94.47,84.72Zm-7.92,3A7,7,0,0,1,85,83.07a7,7,0,0,1,4.56,1.69,6.78,6.78,0,0,1,1.54,4.35v.26A7,7,0,0,1,86.55,87.68Zm-.49,13.85a5.87,5.87,0,1,1,11.74,0,.71.71,0,0,0,0,.2H86A1.42,1.42,0,0,0,86.06,101.53ZM51.56,84.72a7,7,0,0,1,4.61-1.56,7,7,0,0,1-1.69,4.56,7,7,0,0,1-4.61,1.56A7,7,0,0,1,51.56,84.72Zm-7.92,3a7,7,0,0,1-1.55-4.61,7,7,0,0,1,4.56,1.69,6.8,6.8,0,0,1,1.54,4.36v.25A7,7,0,0,1,43.64,87.68Zm-.49,13.85a5.87,5.87,0,1,1,11.74,0,.71.71,0,0,0,0,.2H43.11A1.42,1.42,0,0,0,43.15,101.53Z"/><path class="cls-1" d="M61.13,53.24a6.93,6.93,0,1,0,6.93-6.94A6.94,6.94,0,0,0,61.13,53.24ZM68.06,48a5.29,5.29,0,1,1-5.28,5.29A5.29,5.29,0,0,1,68.06,48Z"/><path class="cls-1" d="M68.88,42.41V38.65a.83.83,0,0,0-1.65,0v3.76a.83.83,0,0,0,1.65,0Z"/><path class="cls-1" d="M75.69,39.85a.82.82,0,0,0-1.13.31L72.7,43.42A.84.84,0,0,0,73,44.55a.86.86,0,0,0,.41.1.81.81,0,0,0,.71-.41L76,41A.83.83,0,0,0,75.69,39.85Z"/><path class="cls-1" d="M80.19,45.09,77,47a.82.82,0,0,0,.42,1.53.78.78,0,0,0,.42-.11L81,46.51a.82.82,0,1,0-.84-1.42Z"/><path class="cls-1" d="M83.47,53a.82.82,0,0,0-.84-.81l-3.76.06a.83.83,0,0,0,0,1.65h0l3.76-.06A.84.84,0,0,0,83.47,53Z"/><path class="cls-1" d="M78,57.72a.82.82,0,1,0-.79,1.44L80.45,61a.82.82,0,0,0,.4.1.83.83,0,0,0,.39-1.55Z"/><path class="cls-1" d="M73.3,61.75A.83.83,0,0,0,73,62.89l2,3.2a.81.81,0,0,0,.7.39.82.82,0,0,0,.7-1.25l-2-3.21A.84.84,0,0,0,73.3,61.75Z"/><path class="cls-1" d="M68.39,63.23a.82.82,0,0,0-.79.85l.12,3.76a.83.83,0,0,0,.82.8h0a.83.83,0,0,0,.8-.85L69.24,64A.81.81,0,0,0,68.39,63.23Z"/><path class="cls-1" d="M62.29,62.43l-1.76,3.33a.83.83,0,0,0,.35,1.11.85.85,0,0,0,.38.09.82.82,0,0,0,.73-.44l1.75-3.32a.82.82,0,1,0-1.45-.77Z"/><path class="cls-1" d="M58.49,58.36l-3.17,2a.81.81,0,0,0-.25,1.13.82.82,0,0,0,.69.39.9.9,0,0,0,.45-.13l3.17-2a.83.83,0,0,0-.89-1.39Z"/><path class="cls-1" d="M52.67,54a.82.82,0,0,0,.82.79h0l3.76-.19A.83.83,0,0,0,57.21,53l-3.76.19A.82.82,0,0,0,52.67,54Z"/><path class="cls-1" d="M58.77,47.62l-3.36-1.7a.82.82,0,0,0-.74,1.47L58,49.09a.84.84,0,0,0,1.1-.37A.81.81,0,0,0,58.77,47.62Z"/><path class="cls-1" d="M60.7,40.62a.83.83,0,0,0-1.38.91l2.08,3.13a.82.82,0,0,0,.69.37.82.82,0,0,0,.68-1.28Z"/><rect class="cls-2" width="141.2" height="141.2" rx="70.6"/></g></g></svg>