<svg xmlns="http://www.w3.org/2000/svg" viewBox="0 0 141.2 141.2"><defs><style>.cls-1{}.cls-2{fill:none;}</style></defs><g id="Calque_2" data-name="Calque 2"><g id="Layer_1" data-name="Layer 1"><path class="cls-1" d="M87.63,77.24C82.53,66.1,73.4,59.29,69.79,56.92l.71-.18.59-.18L70.85,56c-1.42-3.56-4-4.45-6-5.16a9.29,9.29,0,0,1-1.72-.71,5.42,5.42,0,0,1-2-2.31A8.51,8.51,0,0,0,57.4,44a7.76,7.76,0,0,0-7.64.94,1.8,1.8,0,0,0-.89,1.78,2,2,0,0,0,1.54,1.42,2,2,0,0,0,2.07-.65c1-1.18,1.78-1.78,3.32-1.18,1.25.47,2.85,3.61,2.79,5.45a10.2,10.2,0,0,1-.24,1.6c-.47,2.49-1.25,6.28,1.07,9.78l.41.65.53-.59A15,15,0,0,0,62,61c1.43,17.66,17.13,27,24,31.17a15.8,15.8,0,0,1,2.72,1.78,4.87,4.87,0,0,1,1.6,2.61,2.12,2.12,0,0,0,.36.83.78.78,0,0,0,.71.47h.12a.89.89,0,0,0,.71-.65c.77-4-1.24-12.57-4.56-19.92ZM86.15,89.69c-.06-.06-.18-.12-.24-.18-.71-.53-1.48-1.12-2.43-1.89,0-.06,0-.06-.06-.12a2.72,2.72,0,0,1,.41-2,2.65,2.65,0,0,1,1.72-1.12,2.71,2.71,0,0,1,2,.41,2.61,2.61,0,0,1,1.12,1.72,2.66,2.66,0,0,1-2.13,3.14,1,1,0,0,1-.41.06ZM63.33,55.26a1.11,1.11,0,0,0,.29.17c.36.36,2.79,2.85,5.81,6a3.91,3.91,0,0,0-.83.06,4.52,4.52,0,0,0-2.78,1.66c-1.43-3.5-2.31-6.16-2.43-6.64s-.06-.89-.06-1.24Zm5.51,7.41a3.72,3.72,0,0,1,2,.17c.65.71,1.36,1.43,2,2.2v0c0,.12.06.24.06.36a3.45,3.45,0,0,1-.59,2.61A3.68,3.68,0,0,1,70,69.54a5.16,5.16,0,0,1-1.36,0c-.89-1.72-1.66-3.44-2.37-5a3.64,3.64,0,0,1,2.55-1.83ZM84.07,82.52A3.63,3.63,0,0,1,81.82,84a3.3,3.3,0,0,1-2.67-.59,3.63,3.63,0,0,1-1.48-2.25,3.35,3.35,0,0,1,.59-2.67A3.68,3.68,0,0,1,80.52,77a2.35,2.35,0,0,1,.65-.06,3.53,3.53,0,0,1,2.9,5.57Zm-3.79-6.7a4.13,4.13,0,0,0-.83.24,5,5,0,0,0,.71-2.73c.65.83,1.36,1.66,2,2.55a5,5,0,0,0-1.89-.06Zm-4.51-7.58a8.14,8.14,0,0,0-1.71,0c-.18.06-.36.06-.54.11a4.24,4.24,0,0,0,.59-1.95c.6.65,1.13,1.24,1.66,1.84Zm-6.34,2.54a4.25,4.25,0,0,0,.83,0c.12,0,.24-.06.36-.06A3.93,3.93,0,0,0,70,72c-.23-.42-.41-.77-.65-1.19,0-.06,0-.06.06-.06ZM71,73.63a4.06,4.06,0,0,1,3.26-4.21,3.94,3.94,0,0,1,3.5,1.07l.06.06c.12.17.3.29.41.47a4,4,0,0,1,.06,4.68,3.89,3.89,0,0,1-2.6,1.66A4,4,0,0,1,73.05,77c-.71-1.07-1.42-2.19-2.08-3.32Zm4,5a5,5,0,0,0,1-.06,7.14,7.14,0,0,0,1.07-.3,5,5,0,0,0-.54,2.91c-.77-.83-1.48-1.66-2.19-2.55Zm6.17,6.64a4.49,4.49,0,0,0,.89-.06,4.54,4.54,0,0,0,.83-.24,3.49,3.49,0,0,0-.6,1.66l-1.6-1.42c.12,0,.3.06.48.06Zm4.21-2a1.11,1.11,0,0,0-.42.12l.12-.12a4.78,4.78,0,0,0,.83-2.13l1.42,2.31a3.13,3.13,0,0,0-2-.18Zm1.12-5.45c.89,2,1.66,4,2.37,6a83,83,0,0,0-8.47-12c-.42-.47-.77-1-1.25-1.42-.12-.18-.29-.36-.41-.53-3.91-4.45-9.13-9.9-12.09-12.92a3.74,3.74,0,0,0,1.18.17c1.19.72,12.74,7.71,18.67,20.75ZM60,61.78c-1.54-2.91-.89-6.05-.48-8.18.12-.71.24-1.31.3-1.78.12-2.13-1.66-5.87-3.56-6.64a3.84,3.84,0,0,0-1.54-.3,4.06,4.06,0,0,0-3.14,1.84c-.23.36-.77.24-.89.24-.35-.12-.65-.3-.65-.48s.12-.35.42-.59a6.67,6.67,0,0,1,6.46-.77,7.22,7.22,0,0,1,3.2,3.32,7.08,7.08,0,0,0,2.37,2.73,20.15,20.15,0,0,0,1.89.77c1.9.65,3.8,1.3,5,3.85-3.2.71-5.92-1.72-6.69-2.49l-.42-.36s-.41-.29-.71-.11-.12.71-.12.71l.18.47c.47.77,1.36,3.74-1.66,7.77Zm3.08-2.37c1.78,5,6.28,16.23,13,23.11a78.37,78.37,0,0,0,7.47,6.76c-7.65-4.86-20-14.11-20.51-29.87Zm27.5,34.9c0-.06,0-.06-.06-.12a12.31,12.31,0,0,0-3.2-3.49,3.86,3.86,0,0,0,2.37-2.43,19.07,19.07,0,0,1,1,2.78c0,.06.06.12.06.18a21.2,21.2,0,0,1,.35,4.09,1.7,1.7,0,0,0-.47-1Z"/><path class="cls-1" d="M70.26,69a.22.22,0,0,0,.18-.06A2.83,2.83,0,0,0,72,67.47a2.94,2.94,0,0,0,.12-2.14.62.62,0,0,0-.77-.35.61.61,0,0,0-.36.77A1.77,1.77,0,0,1,71,67a1.43,1.43,0,0,1-1,.83.62.62,0,0,0-.35.77.65.65,0,0,0,.59.42Z"/><path class="cls-1" d="M76.31,76.71a.19.19,0,0,0,.17-.06,3.07,3.07,0,0,0,1.72-1.54,2.82,2.82,0,0,0,.12-2.31.6.6,0,1,0-1.12.42,1.87,1.87,0,0,1-.06,1.36,2.31,2.31,0,0,1-1,1,.62.62,0,0,0-.36.77.51.51,0,0,0,.54.41Z"/><path class="cls-1" d="M83.36,79.44a.62.62,0,0,0-.36.77,1.67,1.67,0,0,1-.83,2.19.62.62,0,0,0-.35.77.57.57,0,0,0,.53.42.22.22,0,0,0,.18-.06,2.85,2.85,0,0,0,1.54-3.74c-.06-.35-.35-.47-.71-.35Z"/><path class="cls-1" d="M88.22,86.08a.6.6,0,0,0-1.13.41,1.46,1.46,0,0,1,0,1,1.17,1.17,0,0,1-.59.59.61.61,0,0,0-.35.77.56.56,0,0,0,.53.42.22.22,0,0,0,.18-.06A2.25,2.25,0,0,0,88.16,88a2.32,2.32,0,0,0,.06-1.89Z"/><rect class="cls-2" width="141.2" height="141.2" rx="70.6"/></g></g></svg>