<svg xmlns="http://www.w3.org/2000/svg" viewBox="0 0 141.2 141.2"><defs><style>.cls-1{}.cls-2{fill:none;}</style></defs><g id="Calque_2" data-name="Calque 2"><g id="Layer_1" data-name="Layer 1"><path class="cls-1" d="M81.49,76.6a12.18,12.18,0,1,0,6.78-23.37,17,17,0,0,0-33.74,0A12.18,12.18,0,1,0,61.31,76.6a12.23,12.23,0,0,0,5,4.25L65.12,87H56.37v1.64H86.43V87H77.68l-1.24-6.13A12.29,12.29,0,0,0,81.49,76.6Zm-5.21,2.53-.53-5.77,2-2.75-1.32-1-2.17,3a.8.8,0,0,0-.16.56L76,87H66.76L68.7,73.21a.8.8,0,0,0-.15-.56l-2.17-3-1.33,1,2,2.75-.53,5.77a10.5,10.5,0,0,1-4.18-3.95.81.81,0,0,0-.7-.39.85.85,0,0,0-.31.06,10.55,10.55,0,1,1-5.92-20.14.82.82,0,0,0,.67-.72,15.41,15.41,0,0,1,30.64,0,.82.82,0,0,0,.66.72,10.55,10.55,0,1,1-5.91,20.14.82.82,0,0,0-1,.33A10.41,10.41,0,0,1,76.28,79.13Z"/><rect class="cls-1" x="61.67" y="90.64" width="19.46" height="1.63"/><path class="cls-1" d="M57.5,62.57V59.75H55.86v2.82a3.33,3.33,0,1,0,1.64,0Zm-.82,4.91a1.69,1.69,0,1,1,1.69-1.69A1.69,1.69,0,0,1,56.68,67.48Z"/><path class="cls-1" d="M86.12,69.12a3.33,3.33,0,0,0,.81-6.55V59.75H85.3v2.82a3.33,3.33,0,0,0,.82,6.55Zm0-5a1.69,1.69,0,1,1-1.7,1.69A1.69,1.69,0,0,1,86.12,64.1Z"/><path class="cls-1" d="M72.22,62.57V59.75H70.58v2.82a3.32,3.32,0,1,0,1.64,0Zm-.82,4.91a1.69,1.69,0,1,1,1.69-1.69A1.69,1.69,0,0,1,71.4,67.48Z"/><path class="cls-1" d="M64.56,55.33V52.51H62.93v2.82a3.33,3.33,0,1,0,1.63,0Zm-.81,4.92a1.7,1.7,0,1,1,1.69-1.7A1.7,1.7,0,0,1,63.75,60.25Z"/><path class="cls-1" d="M82.38,58.55a3.33,3.33,0,0,0-2.51-3.22V52.51H78.24v2.82a3.33,3.33,0,1,0,4.14,3.22Zm-3.33,1.7a1.7,1.7,0,1,1,1.69-1.7A1.7,1.7,0,0,1,79.05,60.25Z"/><path class="cls-1" d="M94,87.85a3.52,3.52,0,1,1,3.51-3.52A3.52,3.52,0,0,1,94,87.85Zm0-4.69a1.18,1.18,0,1,0,1.17,1.17A1.17,1.17,0,0,0,94,83.16Z"/><path class="cls-1" d="M51.48,86.68A3.52,3.52,0,1,1,55,83.16,3.52,3.52,0,0,1,51.48,86.68Zm0-4.69a1.17,1.17,0,1,0,1.17,1.17A1.17,1.17,0,0,0,51.48,82Z"/><path class="cls-1" d="M46.24,45.51a2.93,2.93,0,1,1,2.93-2.93A2.93,2.93,0,0,1,46.24,45.51Zm0-3.51a.59.59,0,1,0,.59.58A.58.58,0,0,0,46.24,42Z"/><path class="cls-1" d="M96.53,76.67a1.32,1.32,0,0,1-1-.4,1.35,1.35,0,0,1,0-1.9,1.32,1.32,0,0,1,1-.4,1.35,1.35,0,1,1,0,2.7Zm0-2.34a1,1,0,0,0-.7.29,1,1,0,0,0,0,1.4,1,1,0,0,0,1.41,0,1,1,0,0,0,0-1.4A1,1,0,0,0,96.53,74.33Z"/><path class="cls-1" d="M89.44,40.92a1.34,1.34,0,0,1-1-.39,1.31,1.31,0,0,1-.4-1,1.35,1.35,0,1,1,2.7,0,1.35,1.35,0,0,1-1.35,1.34Zm0-2.34a1,1,0,0,0-1,1,1,1,0,0,0,.29.7,1,1,0,0,0,1.4,0,1,1,0,0,0,.29-.7,1,1,0,0,0-1-1Z"/><path class="cls-1" d="M94.2,45.68a1.38,1.38,0,0,1-1-.39,1.36,1.36,0,0,1,0-1.91,1.38,1.38,0,0,1,1-.39,1.34,1.34,0,0,1,1,.39,1.31,1.31,0,0,1,.4.95,1.35,1.35,0,0,1-1.35,1.35Zm0-2.34a1,1,0,0,0-.7.29,1,1,0,0,0,0,1.41,1,1,0,0,0,1.4,0,1,1,0,0,0-.7-1.7Z"/><path class="cls-1" d="M58.66,37.62a1.35,1.35,0,1,1,0-2.7,1.35,1.35,0,0,1,0,2.7Zm0-2.34a1,1,0,0,0,0,2,1,1,0,0,0,.7-.29,1,1,0,0,0,0-1.4A1,1,0,0,0,58.66,35.28Z"/><path class="cls-1" d="M64.94,101.06v3H63.33V95.44h2.82a4.89,4.89,0,0,1,1.51.2,3.1,3.1,0,0,1,1,.57,2.25,2.25,0,0,1,.61.88,3.24,3.24,0,0,1,0,2.27,2.37,2.37,0,0,1-.63.9,3,3,0,0,1-1.05.59,4.68,4.68,0,0,1-1.48.21Zm0-1.26h1.21a2.57,2.57,0,0,0,.78-.11,1.52,1.52,0,0,0,.54-.32,1.36,1.36,0,0,0,.33-.51,1.91,1.91,0,0,0,.1-.66,1.81,1.81,0,0,0-.1-.63,1.25,1.25,0,0,0-.33-.48,1.49,1.49,0,0,0-.54-.3,2.57,2.57,0,0,0-.78-.11H64.94Z"/><path class="cls-1" d="M76.24,95.44v1.28H72.4v2.57h3.24v1.29H72.4v3.53H70.77V95.44Z"/><path class="cls-1" d="M79.33,104.11H77.71V95.44h1.62Z"/><rect class="cls-2" width="141.2" height="141.2" rx="70.6"/></g></g></svg>