<svg xmlns="http://www.w3.org/2000/svg" viewBox="0 0 141.2 141.2"><defs><style>.cls-1{fill:none;}.cls-2{}</style></defs><g id="Calque_2" data-name="Calque 2"><g id="Layer_1" data-name="Layer 1"><rect class="cls-1" width="141.2" height="141.2" rx="70.6"/><path class="cls-2" d="M93.47,71.19c.89-.34.76-1.39.74-1.71-5.77-15.29-18.55-28-25-34.67a.75.75,0,0,0-.56-.25h0a.75.75,0,0,0-.56.25c-2.45,1.53-27.84,26.67-27.51,44.72a28.12,28.12,0,0,0,27.88,27.61,27.43,27.43,0,0,0,14.4-4.06,1.64,1.64,0,0,0,.16-1.66c-.45-.84-1.55-.55-1.55-.55a24.21,24.21,0,0,1-13,3.71c-14.53,0-24.86-10.87-25-25-.17-15.28,19.42-37,25-41.39,6.29,6.18,19.62,21.53,23.31,32.59C92,71.41,92.59,71.54,93.47,71.19Z"/><path class="cls-2" d="M59.24,67.47v.35a5.62,5.62,0,0,1,1.68-1.47,4.1,4.1,0,0,1,2-.47,4.59,4.59,0,0,1,2.43.68,4.72,4.72,0,0,1,1.76,2,7,7,0,0,1,.65,3.11,7.85,7.85,0,0,1-.37,2.44,5.38,5.38,0,0,1-1,1.86,4.36,4.36,0,0,1-1.54,1.15,4.5,4.5,0,0,1-1.9.41,4,4,0,0,1-2.06-.5,5.76,5.76,0,0,1-1.59-1.45v4.31q0,1.89-1.38,1.89a1.11,1.11,0,0,1-1.07-.48,3.17,3.17,0,0,1-.26-1.43V67.49a1.78,1.78,0,0,1,.36-1.22,1.22,1.22,0,0,1,1-.41,1.26,1.26,0,0,1,1,.42A1.66,1.66,0,0,1,59.24,67.47Zm5.61,4.17a5,5,0,0,0-.34-2,2.93,2.93,0,0,0-1-1.25A2.32,2.32,0,0,0,62.19,68a2.56,2.56,0,0,0-2,.94,4.09,4.09,0,0,0-.82,2.75,4,4,0,0,0,.81,2.67,2.55,2.55,0,0,0,2,1,2.3,2.3,0,0,0,1.32-.42,2.9,2.9,0,0,0,1-1.24A5,5,0,0,0,64.85,71.64Z"/><path class="cls-2" d="M73.36,63.49V67.9h6.73V63.49a2.06,2.06,0,0,1,.42-1.42,1.44,1.44,0,0,1,1.12-.48,1.49,1.49,0,0,1,1.14.47,2,2,0,0,1,.44,1.43V75.63a2,2,0,0,1-.44,1.42,1.5,1.5,0,0,1-1.14.48,1.41,1.41,0,0,1-1.12-.48,2.09,2.09,0,0,1-.42-1.42V70.44H73.36v5.19a2,2,0,0,1-.44,1.42,1.46,1.46,0,0,1-1.13.48,1.4,1.4,0,0,1-1.12-.48,2.09,2.09,0,0,1-.42-1.42V63.49a2.06,2.06,0,0,1,.41-1.42,1.42,1.42,0,0,1,1.13-.48,1.49,1.49,0,0,1,1.14.47A2,2,0,0,1,73.36,63.49Z"/><path class="cls-2" d="M51.08,80.23c1.17,0,1.38.57,1.4.87.45,5.54,1.85,7.9,4.31,10.26,3,2.85,6.76,4.35,9.24,3.89.71-.13,1.4.76,1.38,1.36a1.06,1.06,0,0,1-1.12,1.14c-2.46.24-7.72-.13-12.37-5.3a15.15,15.15,0,0,1-3.9-11C50.11,81.08,49.91,80.23,51.08,80.23Z"/><path class="cls-2" d="M97.25,81.35h-7l-.84,4.8A8.32,8.32,0,0,1,93.25,85a6.72,6.72,0,0,1,2.66.53A6.8,6.8,0,0,1,98.08,87a6.87,6.87,0,0,1,1.47,2.23,7.27,7.27,0,0,1,.53,2.77,8.06,8.06,0,0,1-1,3.91,7.13,7.13,0,0,1-2.78,2.8,8.29,8.29,0,0,1-4.19,1,8.4,8.4,0,0,1-4.3-1,6.13,6.13,0,0,1-2.34-2.25,4.76,4.76,0,0,1-.69-2.21,1.71,1.71,0,0,1,1.69-1.62,2,2,0,0,1,1.85,1.44,5.06,5.06,0,0,0,1.6,2,3.72,3.72,0,0,0,2.25.74,3.38,3.38,0,0,0,2-.6,3.77,3.77,0,0,0,1.33-1.63A5.67,5.67,0,0,0,96,92.38,5.32,5.32,0,0,0,95.5,90a3.44,3.44,0,0,0-1.35-1.51A3.64,3.64,0,0,0,92.27,88a3.88,3.88,0,0,0-1.82.31,17.58,17.58,0,0,0-1.58,1.09,3.09,3.09,0,0,1-1.69.78,1.82,1.82,0,0,1-1.29-.53,1.59,1.59,0,0,1-.57-1.19s.06-.39.17-1l1.24-7.1a3.46,3.46,0,0,1,.77-1.85,2.48,2.48,0,0,1,1.84-.58h7.82c1.54,0,2.31.59,2.31,1.76a1.54,1.54,0,0,1-.56,1.25A2.49,2.49,0,0,1,97.25,81.35Z"/><path class="cls-2" d="M108.65,93.31H104a2.36,2.36,0,0,1-1.62-.5,1.62,1.62,0,0,1-.55-1.28,1.67,1.67,0,0,1,.54-1.29,2.34,2.34,0,0,1,1.63-.5h4.69a2.34,2.34,0,0,1,1.63.5,1.67,1.67,0,0,1,.54,1.29,1.64,1.64,0,0,1-.53,1.28A2.35,2.35,0,0,1,108.65,93.31Z"/></g></g></svg>