<svg xmlns="http://www.w3.org/2000/svg" viewBox="0 0 141.2 141.2"><defs><style>.cls-1{fill:none;}.cls-2{}</style></defs><g id="Calque_2" data-name="Calque 2"><g id="Layer_1" data-name="Layer 1"><rect class="cls-1" width="141.2" height="141.2" rx="70.6"/><path class="cls-2" d="M95.41,71.19c.88-.34.75-1.39.74-1.71-5.77-15.29-18.55-28-25-34.67a.76.76,0,0,0-.57-.25h0a.77.77,0,0,0-.57.25c-2.44,1.53-27.83,26.67-27.5,44.72a28.11,28.11,0,0,0,27.88,27.61,27.39,27.39,0,0,0,14.39-4.06,1.63,1.63,0,0,0,.17-1.66,1.41,1.41,0,0,0-1.55-.55,24.21,24.21,0,0,1-13,3.71c-14.54,0-24.87-10.87-25-25-.18-15.28,19.41-37,25-41.39C76.7,44.32,90,59.67,93.71,70.73,93.9,71.41,94.53,71.54,95.41,71.19Z"/><path class="cls-2" d="M61.18,67.47v.35a5.47,5.47,0,0,1,1.67-1.47,4.14,4.14,0,0,1,2-.47,4.59,4.59,0,0,1,2.43.68,4.79,4.79,0,0,1,1.76,2,7,7,0,0,1,.65,3.11,7.57,7.57,0,0,1-.38,2.44,5.53,5.53,0,0,1-1,1.86,4.45,4.45,0,0,1-1.54,1.15,4.5,4.5,0,0,1-1.9.41,4,4,0,0,1-2.06-.5,5.76,5.76,0,0,1-1.59-1.45v4.31q0,1.89-1.38,1.89a1.1,1.1,0,0,1-1.07-.48,3,3,0,0,1-.26-1.43V67.49a1.83,1.83,0,0,1,.35-1.22,1.38,1.38,0,0,1,2,0A1.66,1.66,0,0,1,61.18,67.47Zm5.61,4.17a5,5,0,0,0-.35-2,2.86,2.86,0,0,0-1-1.25A2.3,2.3,0,0,0,64.12,68a2.54,2.54,0,0,0-2,.94,4.91,4.91,0,0,0,0,5.42,2.54,2.54,0,0,0,2,1,2.3,2.3,0,0,0,1.33-.42,2.81,2.81,0,0,0,1-1.24A4.84,4.84,0,0,0,66.79,71.64Z"/><path class="cls-2" d="M75.3,63.49V67.9H82V63.49a2.06,2.06,0,0,1,.42-1.42,1.44,1.44,0,0,1,1.12-.48,1.49,1.49,0,0,1,1.14.47,2,2,0,0,1,.43,1.43V75.63a2,2,0,0,1-.44,1.42,1.46,1.46,0,0,1-1.13.48,1.41,1.41,0,0,1-1.12-.48A2.09,2.09,0,0,1,82,75.63V70.44H75.3v5.19a2,2,0,0,1-.44,1.42,1.46,1.46,0,0,1-1.13.48,1.43,1.43,0,0,1-1.13-.48,2.09,2.09,0,0,1-.42-1.42V63.49a2.06,2.06,0,0,1,.42-1.42,1.42,1.42,0,0,1,1.13-.48,1.51,1.51,0,0,1,1.14.47A2,2,0,0,1,75.3,63.49Z"/><path class="cls-2" d="M53,80.23c1.17,0,1.37.57,1.4.87.45,5.54,1.85,7.9,4.31,10.26,3,2.85,6.75,4.35,9.23,3.89.71-.13,1.4.76,1.38,1.36a1.06,1.06,0,0,1-1.11,1.14c-2.46.24-7.72-.13-12.37-5.3a15.15,15.15,0,0,1-3.9-11C52.05,81.08,51.85,80.23,53,80.23Z"/><path class="cls-2" d="M79.77,88.31a4.49,4.49,0,0,1,1.44-1.18A4,4,0,0,1,83,86.75a4.26,4.26,0,0,1,1.72.35,4,4,0,0,1,1.37,1,4.49,4.49,0,0,1,.92,1.5,5.32,5.32,0,0,1,.32,1.82,5,5,0,0,1-.63,2.5,4.49,4.49,0,0,1-1.76,1.75,5.13,5.13,0,0,1-2.55.63,4.93,4.93,0,0,1-2.84-.8,5,5,0,0,1-1.82-2.36,10.36,10.36,0,0,1-.63-3.84,13.24,13.24,0,0,1,.38-3.3,7,7,0,0,1,1.1-2.41,4.63,4.63,0,0,1,1.73-1.45,5.3,5.3,0,0,1,2.31-.48,4.82,4.82,0,0,1,2.2.48,3.72,3.72,0,0,1,1.44,1.21,2.56,2.56,0,0,1,.48,1.39,1.06,1.06,0,0,1-.3.73,1,1,0,0,1-.77.33,1.25,1.25,0,0,1-.76-.26,1.48,1.48,0,0,1-.52-.72,2,2,0,0,0-.71-.94,1.89,1.89,0,0,0-1.14-.36,2,2,0,0,0-1,.3,2.74,2.74,0,0,0-.86.8A7.48,7.48,0,0,0,79.77,88.31Zm2.63,6.06A2,2,0,0,0,84,93.56a3.26,3.26,0,0,0,.64-2.11,3.6,3.6,0,0,0-.3-1.53,2.27,2.27,0,0,0-.83-1,2.07,2.07,0,0,0-1.16-.34,2.28,2.28,0,0,0-1.16.32,2.42,2.42,0,0,0-.89.93A2.88,2.88,0,0,0,80,91.29a3.44,3.44,0,0,0,.69,2.2A2.06,2.06,0,0,0,82.4,94.37Z"/><path class="cls-2" d="M91.17,96.29a1.51,1.51,0,0,1-1-.39,1.39,1.39,0,0,1-.44-1.09,1.43,1.43,0,0,1,.42-1,1.4,1.4,0,0,1,1-.43,1.47,1.47,0,0,1,1,.43,1.39,1.39,0,0,1,.44,1,1.42,1.42,0,0,1-.44,1.09A1.48,1.48,0,0,1,91.17,96.29Z"/><path class="cls-2" d="M103.55,84.15H98.91l-.56,3.16a5.44,5.44,0,0,1,2.56-.74,4.24,4.24,0,0,1,1.75.35,4.48,4.48,0,0,1,2.4,2.44,4.66,4.66,0,0,1,.35,1.83,5.29,5.29,0,0,1-.63,2.57A4.78,4.78,0,0,1,103,95.61a5.43,5.43,0,0,1-2.76.68,5.53,5.53,0,0,1-2.84-.64,3.93,3.93,0,0,1-1.54-1.48,3.21,3.21,0,0,1-.46-1.46,1.07,1.07,0,0,1,.32-.72,1,1,0,0,1,.8-.34,1.31,1.31,0,0,1,1.22.94,3.38,3.38,0,0,0,1,1.36,2.48,2.48,0,0,0,1.49.48,2.28,2.28,0,0,0,1.32-.39,2.61,2.61,0,0,0,.87-1.08,3.79,3.79,0,0,0,.31-1.55,3.44,3.44,0,0,0-.34-1.6,2.31,2.31,0,0,0-.88-1,2.4,2.4,0,0,0-1.24-.33,2.57,2.57,0,0,0-1.21.21,10.37,10.37,0,0,0-1,.71,2,2,0,0,1-1.11.52,1.2,1.2,0,0,1-.85-.35,1,1,0,0,1-.37-.79s0-.25.1-.66l.82-4.68a2.23,2.23,0,0,1,.51-1.22,1.65,1.65,0,0,1,1.21-.38h5.16c1,0,1.52.39,1.52,1.16a1,1,0,0,1-.37.82A1.65,1.65,0,0,1,103.55,84.15Z"/><path class="cls-2" d="M111.06,92H108a1.56,1.56,0,0,1-1.07-.33,1.2,1.2,0,0,1,0-1.7,1.55,1.55,0,0,1,1.08-.33h3.09a1.55,1.55,0,0,1,1.08.33,1.12,1.12,0,0,1,.35.85,1.09,1.09,0,0,1-.35.85A1.52,1.52,0,0,1,111.06,92Z"/></g></g></svg>