<svg xmlns="http://www.w3.org/2000/svg" viewBox="0 0 141.2 141.2"><defs><style>.cls-1{}.cls-2{fill:none;}</style></defs><g id="Calque_2" data-name="Calque 2"><g id="Layer_1" data-name="Layer 1"><path class="cls-1" d="M95.26,71c.88-.35.75-1.4.74-1.72C90.23,54,77.45,41.22,71,34.56a.77.77,0,0,0-.57-.25h0a.77.77,0,0,0-.57.25C67.44,36.09,42,61.23,42.37,79.28a28.12,28.12,0,0,0,27.89,27.61,27.42,27.42,0,0,0,14.39-4.06,1.66,1.66,0,0,0,.17-1.66,1.41,1.41,0,0,0-1.55-.55,24.26,24.26,0,0,1-13,3.71c-14.54,0-24.87-10.87-25-25-.18-15.29,19.41-37,25-41.4,6.29,6.18,19.61,21.53,23.3,32.59C93.75,71.16,94.37,71.29,95.26,71Z"/><path class="cls-1" d="M61,67.22v.35A5.62,5.62,0,0,1,62.7,66.1a4.13,4.13,0,0,1,2-.47,4.6,4.6,0,0,1,2.44.68,4.79,4.79,0,0,1,1.76,2,7,7,0,0,1,.64,3.11,7.57,7.57,0,0,1-.37,2.44,5.53,5.53,0,0,1-1,1.86,4.54,4.54,0,0,1-3.45,1.56,4,4,0,0,1-2.06-.5A6.05,6.05,0,0,1,61,75.33v4.31c0,1.26-.46,1.89-1.37,1.89a1.1,1.1,0,0,1-1.07-.48,3,3,0,0,1-.27-1.43V67.24A1.78,1.78,0,0,1,58.67,66a1.24,1.24,0,0,1,1-.41,1.29,1.29,0,0,1,1,.42A1.7,1.7,0,0,1,61,67.22Zm5.62,4.17a5,5,0,0,0-.35-2,2.86,2.86,0,0,0-1-1.25A2.3,2.3,0,0,0,64,67.75a2.56,2.56,0,0,0-2,.94,4.09,4.09,0,0,0-.81,2.75A4,4,0,0,0,62,74.11a2.53,2.53,0,0,0,2,1,2.25,2.25,0,0,0,1.32-.42,2.83,2.83,0,0,0,1-1.24A5,5,0,0,0,66.64,71.39Z"/><path class="cls-1" d="M75.15,63.24v4.41h6.72V63.24a2.06,2.06,0,0,1,.43-1.42,1.41,1.41,0,0,1,1.12-.48,1.49,1.49,0,0,1,1.14.47A2,2,0,0,1,85,63.24V75.38a2,2,0,0,1-.44,1.42,1.46,1.46,0,0,1-1.13.48,1.43,1.43,0,0,1-1.13-.48,2.09,2.09,0,0,1-.42-1.42V70.19H75.15v5.19a2,2,0,0,1-.44,1.42,1.48,1.48,0,0,1-1.14.48,1.41,1.41,0,0,1-1.12-.48A2.09,2.09,0,0,1,72,75.38V63.24a2.06,2.06,0,0,1,.42-1.42,1.4,1.4,0,0,1,1.12-.48,1.49,1.49,0,0,1,1.14.47A2,2,0,0,1,75.15,63.24Z"/><path class="cls-1" d="M52.87,80c1.17,0,1.37.57,1.4.87.45,5.54,1.84,7.9,4.31,10.26,3,2.85,6.75,4.35,9.23,3.89.71-.13,1.4.76,1.38,1.37a1.06,1.06,0,0,1-1.12,1.13c-2.45.24-7.72-.12-12.36-5.3a15.15,15.15,0,0,1-3.9-11C51.9,80.83,51.69,80,52.87,80Z"/><rect class="cls-2" width="141.2" height="141.2" rx="70.6"/><path class="cls-1" d="M89.72,76.81h9.86a3.73,3.73,0,0,1,2.06.44,1.66,1.66,0,0,1,.64,1.47,3.18,3.18,0,0,1-.75,1.65c-.5.68-1.06,1.43-1.7,2.25A24.19,24.19,0,0,0,96,90.19a17,17,0,0,0-.5,1.94c-.1.51-.21,1.18-.33,2S95,95.58,94.86,96a4.32,4.32,0,0,1-.88,2.1,2,2,0,0,1-1.52.58A1.82,1.82,0,0,1,91,98.06a2.74,2.74,0,0,1-.55-1.86,11.23,11.23,0,0,1,.4-2.57,30,30,0,0,1,1.3-3.91,38.88,38.88,0,0,1,2.26-4.67,39.5,39.5,0,0,1,3.22-4.76H89.72a3.15,3.15,0,0,1-1.86-.45,1.64,1.64,0,0,1-.62-1.42,1.28,1.28,0,0,1,.65-1.31A4.52,4.52,0,0,1,89.72,76.81Z"/></g></g></svg>