<svg xmlns="http://www.w3.org/2000/svg" viewBox="0 0 141.2 141.2"><defs><style>.cls-1{}.cls-2{fill:none;}</style></defs><g id="Calque_2" data-name="Calque 2"><g id="Layer_1" data-name="Layer 1"><path class="cls-1" d="M79.26,81.43h6.5a2.39,2.39,0,0,1,1.36.29,1.09,1.09,0,0,1,.42,1,2,2,0,0,1-.49,1.08c-.33.45-.7.94-1.12,1.49a15.47,15.47,0,0,0-1.3,2,16.41,16.41,0,0,0-1.23,3,11.09,11.09,0,0,0-.33,1.28c-.07.34-.14.78-.22,1.32s-.14,1-.2,1.24a2.8,2.8,0,0,1-.58,1.38,1.33,1.33,0,0,1-1,.39,1.2,1.2,0,0,1-1-.42,1.8,1.8,0,0,1-.36-1.22,7.9,7.9,0,0,1,.26-1.7,20.29,20.29,0,0,1,.86-2.57,26.15,26.15,0,0,1,1.49-3.08,24.51,24.51,0,0,1,2.13-3.14H79.26a2.06,2.06,0,0,1-1.23-.3,1.08,1.08,0,0,1-.4-.93.85.85,0,0,1,.43-.87A3,3,0,0,1,79.26,81.43Z"/><path class="cls-1" d="M91.17,95.85a1.51,1.51,0,0,1-1-.39,1.52,1.52,0,0,1,0-2.12,1.39,1.39,0,0,1,1-.43,1.46,1.46,0,0,1,1,.42,1.44,1.44,0,0,1,.43,1,1.41,1.41,0,0,1-.43,1.09A1.45,1.45,0,0,1,91.17,95.85Z"/><path class="cls-1" d="M103.55,83.7H98.91l-.56,3.16a5.56,5.56,0,0,1,2.56-.74,4.49,4.49,0,0,1,4.15,2.8,4.58,4.58,0,0,1,.35,1.82,5.3,5.3,0,0,1-.63,2.58A4.85,4.85,0,0,1,103,95.17a6.22,6.22,0,0,1-5.6,0,4,4,0,0,1-1.54-1.47,3.24,3.24,0,0,1-.46-1.46,1.07,1.07,0,0,1,.32-.73,1,1,0,0,1,.8-.34,1.32,1.32,0,0,1,1.22,1,3.28,3.28,0,0,0,1,1.35,2.5,2.5,0,0,0,1.49.48,2.28,2.28,0,0,0,1.32-.39,2.58,2.58,0,0,0,.87-1.07,3.83,3.83,0,0,0,.31-1.55,3.61,3.61,0,0,0-.33-1.61,2.4,2.4,0,0,0-.89-1,2.49,2.49,0,0,0-1.24-.32,2.54,2.54,0,0,0-1.2.2A10.26,10.26,0,0,0,98,89a2.09,2.09,0,0,1-1.12.51,1.19,1.19,0,0,1-.85-.34,1.07,1.07,0,0,1-.37-.79s0-.25.1-.66L96.61,83a2.2,2.2,0,0,1,.51-1.22,1.61,1.61,0,0,1,1.21-.38h5.16c1,0,1.52.38,1.52,1.16a1,1,0,0,1-.37.82A1.65,1.65,0,0,1,103.55,83.7Z"/><path class="cls-1" d="M113.25,93.54h-2.51V89.82H107V87.27h3.75V83.52h2.51v3.75H117v2.55h-3.76Z"/><rect class="cls-2" width="141.2" height="141.2" rx="70.6"/><path class="cls-1" d="M95.41,71.19c.88-.34.75-1.39.74-1.71-5.77-15.29-18.55-28-25-34.67a.76.76,0,0,0-.57-.25h0a.77.77,0,0,0-.57.25c-2.44,1.53-27.83,26.67-27.5,44.72a28.11,28.11,0,0,0,27.88,27.61,27.39,27.39,0,0,0,14.39-4.06,1.63,1.63,0,0,0,.17-1.66,1.41,1.41,0,0,0-1.55-.55,24.21,24.21,0,0,1-13,3.71c-14.54,0-24.87-10.87-25-25-.18-15.28,19.41-37,25-41.39C76.7,44.32,90,59.67,93.71,70.73,93.9,71.41,94.53,71.54,95.41,71.19Z"/><path class="cls-1" d="M61.18,67.47v.35a5.47,5.47,0,0,1,1.67-1.47,4.14,4.14,0,0,1,2-.47,4.59,4.59,0,0,1,2.43.68,4.79,4.79,0,0,1,1.76,2,7,7,0,0,1,.65,3.11,7.57,7.57,0,0,1-.38,2.44,5.53,5.53,0,0,1-1,1.86,4.45,4.45,0,0,1-1.54,1.15,4.5,4.5,0,0,1-1.9.41,4,4,0,0,1-2.06-.5,5.76,5.76,0,0,1-1.59-1.45v4.31q0,1.89-1.38,1.89a1.1,1.1,0,0,1-1.07-.48,3,3,0,0,1-.26-1.43V67.49a1.83,1.83,0,0,1,.35-1.22,1.38,1.38,0,0,1,2,0A1.66,1.66,0,0,1,61.18,67.47Zm5.61,4.17a5,5,0,0,0-.35-2,2.86,2.86,0,0,0-1-1.25A2.3,2.3,0,0,0,64.12,68a2.54,2.54,0,0,0-2,.94,4.91,4.91,0,0,0,0,5.42,2.54,2.54,0,0,0,2,1,2.3,2.3,0,0,0,1.33-.42,2.81,2.81,0,0,0,1-1.24A4.84,4.84,0,0,0,66.79,71.64Z"/><path class="cls-1" d="M75.3,63.49V67.9H82V63.49a2.06,2.06,0,0,1,.42-1.42,1.44,1.44,0,0,1,1.12-.48,1.49,1.49,0,0,1,1.14.47,2,2,0,0,1,.43,1.43V75.63a2,2,0,0,1-.44,1.42,1.46,1.46,0,0,1-1.13.48,1.41,1.41,0,0,1-1.12-.48A2.09,2.09,0,0,1,82,75.63V70.44H75.3v5.19a2,2,0,0,1-.44,1.42,1.46,1.46,0,0,1-1.13.48,1.43,1.43,0,0,1-1.13-.48,2.09,2.09,0,0,1-.42-1.42V63.49a2.06,2.06,0,0,1,.42-1.42,1.42,1.42,0,0,1,1.13-.48,1.51,1.51,0,0,1,1.14.47A2,2,0,0,1,75.3,63.49Z"/><path class="cls-1" d="M53,80.23c1.17,0,1.37.57,1.4.87.45,5.54,1.85,7.9,4.31,10.26,3,2.85,6.75,4.35,9.23,3.89.71-.13,1.4.76,1.38,1.36a1.06,1.06,0,0,1-1.11,1.14c-2.46.24-7.72-.13-12.37-5.3a15.15,15.15,0,0,1-3.9-11C52.05,81.08,51.85,80.23,53,80.23Z"/></g></g></svg>