<svg xmlns="http://www.w3.org/2000/svg" viewBox="0 0 141.2 141.2"><defs><style>.cls-1{fill-rule:evenodd;}.cls-2{fill:none;}</style></defs><g id="Calque_2" data-name="Calque 2"><g id="Layer_1" data-name="Layer 1"><path class="cls-1" d="M55.67,42.7a.51.51,0,0,1,.67.06L58.41,45a.49.49,0,0,1-.13.78,6.07,6.07,0,0,0-1.84,1.6,4.87,4.87,0,0,0-1.1,3c0,3.17.7,4.24,1.23,4.65a3,3,0,0,1,1.9,1.55h0C60,59.31,61.28,63.56,59.87,70,63.49,77.77,67.35,82,71.34,84s8.24,1.92,12.68.81a11.42,11.42,0,0,0,7.85-6.08A29.29,29.29,0,0,0,93.44,75l.06-.15A15.82,15.82,0,0,1,95,71.51a4.06,4.06,0,0,1,1.86-1.67,1.61,1.61,0,0,1,1.72.33c.8.8.68,2.26-.37,3.46,1.07,5.24-.24,12.06-8.66,19.9-4.37,4.08-12.15,5.91-20.06,4.7a30.07,30.07,0,0,1-21.27-13.8c-4-6.49-5.9-12.76-6.1-18s1.25-9.49,3.94-11.88l0,0a5.25,5.25,0,0,1,2.08-.77,8.58,8.58,0,0,1,1.55-.91l.71-.31.83-.38a3.26,3.26,0,0,0,1-.72,1.41,1.41,0,0,0,.35-1,13.66,13.66,0,0,1,.59-4A7.22,7.22,0,0,1,55.67,42.7Zm-5.42,11c.23,0,.46.08.69.14A3.55,3.55,0,0,1,53,55.2a.52.52,0,0,0,.39.26,1.8,1.8,0,0,0,.71-.08l.34-.1c.23-.06.48-.14.72-.19l.11,0a8.79,8.79,0,0,1-.93-4.66,5.92,5.92,0,0,1,1.31-3.64,7.57,7.57,0,0,1,1.61-1.53l-1.34-1.45a6.59,6.59,0,0,0-1.73,2.91,12.71,12.71,0,0,0-.54,3.71,2.49,2.49,0,0,1-.59,1.66,4.14,4.14,0,0,1-1.34,1c-.27.14-.6.28-.92.42Zm.43,1.11a5.45,5.45,0,0,0-2.21-.11,4.62,4.62,0,0,0-1.77.62c-2.37,2.12-3.78,6-3.58,11.07s2,11.15,6,17.52A29,29,0,0,0,69.64,97.24c7.72,1.18,15.15-.64,19.23-4.44,8.35-7.78,9.39-14.36,8.31-19.21a.51.51,0,0,1,.13-.47c1-1,.85-2,.57-2.24a.63.63,0,0,0-.68-.1,3.09,3.09,0,0,0-1.37,1.29,14.82,14.82,0,0,0-1.39,3.11l-.06.17a29.64,29.64,0,0,1-1.63,3.85,12.36,12.36,0,0,1-8.49,6.58c-4.57,1.14-9.07,1.3-13.37-.89s-8.31-6.65-12-14.58a.5.5,0,0,1,0-.32c1.41-6.32.12-10.36-1.25-12.88A2,2,0,0,0,56.28,56a2.38,2.38,0,0,0-.91,0l-.6.16-.42.11a2.73,2.73,0,0,1-1.11.11,1.51,1.51,0,0,1-1.07-.7A2.52,2.52,0,0,0,50.68,54.8Z"/><rect class="cls-2" width="141.2" height="141.2" rx="70.6"/></g></g></svg>