<svg xmlns="http://www.w3.org/2000/svg" viewBox="0 0 141.2 141.2"><defs><style>.cls-1{}.cls-2{fill:none;}</style></defs><g id="Calque_2" data-name="Calque 2"><g id="Layer_1" data-name="Layer 1"><path class="cls-1" d="M85.71,80.23c-.19-.67-.39-1.33-.58-2-.09-.32-.29-1-.3-1A25.53,25.53,0,0,0,74.6,59.67c-2.3-1.65-5-2-7.71-2.56h0a4.26,4.26,0,0,1-.69-.22c-.58-.31-1.92-1.14-2.49-.79-.75.47.1,2.1.39,2.61l.15.26h0a13.79,13.79,0,0,0-1.67.47l-.21,0-.5.21c-1.56.6-1.95,1.55-2.25,3.07a8.84,8.84,0,0,0-2.75-1.36h0a1.21,1.21,0,0,0-1.36.39c-.76,1.14,1.18,2.86,1.29,3.82.24,1.7.18,3.59.58,5.28a18.29,18.29,0,0,0,5.94,9.48A17.26,17.26,0,0,0,77,84.79a20.49,20.49,0,0,1,4.62-.22h0a3.56,3.56,0,0,0,.82.43,2.36,2.36,0,0,0,3-.89h0a6.22,6.22,0,0,0,.29-3.88ZM66,56.82l-.05,0ZM62.63,61.1l1.22-.49.29-.07a.26.26,0,0,1,.21,0,2.72,2.72,0,0,0,.94.14c1.37,2.09,3,4.05,4.31,6.13,1.61,2.5,3,5.12,4.39,7.75h0a16.59,16.59,0,0,0,1.6,2.61c-.31-.15-.6-.29-.88-.41h0a9.52,9.52,0,0,1-2.83-1.82c-2.24-2.19-3.77-5.23-6.19-7.27-.89-.75-2.86-2.69-4.55-3.88.26-.74.43-1.8.47-1.84a3.13,3.13,0,0,1,1-.82Zm12,22.58c-4.59.13-8.8-2.79-11.89-5.88a15.38,15.38,0,0,1-4.28-10.17A7.07,7.07,0,0,0,58,64.77c-.3-.56-.56-1.13-.8-1.71A37,37,0,0,1,67.9,72.49c.87,1.09,1.84,2.14,2.74,3.18h0a18.16,18.16,0,0,0,1.61,1.42,5.12,5.12,0,0,0,2.57,1.64c.68.1,1.82.61,2.46.16.81-.58-.06-2.28-.48-2.91l-1.41-2.13h0q-.24-.34-.45-.72c-1.71-3.16-3.77-7.39-6-10.25a33.94,33.94,0,0,1-2.24-3,6.56,6.56,0,0,0-.82-1.27l-.29-.34c1.71.64,3.88.64,5.53,1.2,2.87,1,5.61,3.45,7.49,5.73,1.76,2.1,2.55,4.93,3.46,7.44.35,1,.59,1.93.88,2.89,0,.14.12.42.07.47-.16.26.33.85.35,1s0,.28.06.35c.13,1.34-.19,2.67,0,4,.09.47.64,1,.65,1.41h0a1,1,0,0,1-.26.56H83.8c-3.18-.54-6.07.34-9.2.42Z"/><rect class="cls-2" width="141.2" height="141.2" rx="70.6"/></g></g></svg>