<svg xmlns="http://www.w3.org/2000/svg" viewBox="0 0 141.2 141.2"><defs><style>.cls-1{fill:none;}.cls-2{}</style></defs><g id="Calque_2" data-name="Calque 2"><g id="Layer_1" data-name="Layer 1"><rect class="cls-1" width="141.2" height="141.2" rx="70.6"/><path class="cls-2" d="M32.13,87.63h-8.5v-58a1.78,1.78,0,1,0-3.56,0v58h-8.5v13.43a13.1,13.1,0,0,0,2.8,7.61,15.17,15.17,0,0,0,7.48,4.64,15.16,15.16,0,0,0,7.47-4.64,13.18,13.18,0,0,0,2.82-7.6Z"/><path class="cls-2" d="M75.71,50.26A10.57,10.57,0,1,1,88.05,42a10.54,10.54,0,0,1-12.34,8.31"/><path class="cls-2" d="M123.67,102.54H104.16s17.45-19.23,17.52-19.34a10.93,10.93,0,0,0,1.66-2.12c2.42-4.17,2-9.58-1.42-12.68,0,0-20.83-20.68-20.83-20.68a9.68,9.68,0,0,0-5.86-3.22c-3.72-.34-6.25,2.64-7,3.85L72.31,75.05H58V71.17a1.4,1.4,0,0,0-2.79,0v3.88H52.94a5.44,5.44,0,0,0,0,10.87h2.28v17.35a18,18,0,0,0-15.06,10H73.07s-4.8-9.24-15.06-10V85.92H75.4a5.44,5.44,0,0,0,4.67-2.66L89.63,67.2,102,79.64,89.48,102.7c-.57,1-2.25,4.32-1,7.18a5.2,5.2,0,0,0,4.76,3.43h30.43a5.68,5.68,0,0,0,6-5.39C129.63,105,127.16,102.54,123.67,102.54Z"/><path class="cls-2" d="M43.47,61c-.4,2.29,1.29,5.08,4.26,6.7s6.23,1.54,7.93,0c.41-2.29-1.29-5.09-4.25-6.7S45.18,59.45,43.47,61Z"/><path class="cls-2" d="M47.9,46.5c-1.59,1.69-1.71,5-.11,7.94s4.37,4.7,6.66,4.31c1.6-1.69,1.71-5,.12-7.94S50.19,46.12,47.9,46.5Z"/><path class="cls-2" d="M67.08,53.45c1.13,2,.45,5.23-1.82,7.73s-5.39,3.49-7.52,2.55c-1.13-2-.45-5.22,1.82-7.72S65,52.52,67.08,53.45Z"/></g></g></svg>