<svg xmlns="http://www.w3.org/2000/svg" viewBox="0 0 141.2 141.2"><defs><style>.cls-1{fill:none;}.cls-2{}</style></defs><g id="Calque_2" data-name="Calque 2"><g id="Layer_1" data-name="Layer 1"><rect class="cls-1" width="141.2" height="141.2" rx="70.6"/><path class="cls-2" d="M44,69.9l1-2.1a16.69,16.69,0,0,1-6.6.6L36,68.2,41.1,63a18,18,0,0,1-11.5-5.1l-1-1,2.3-1.6a19.92,19.92,0,0,1-5.7-5.5l-.8-1.1,1.2-.5A20.13,20.13,0,0,1,34,47a17.25,17.25,0,0,1-5.1-7.4l-.8-2.2,4.2,1.3a17.2,17.2,0,0,1-2.5-8.1V29.4H31A17.25,17.25,0,0,1,39.1,32l-1.2-4.2,2,.8a16.18,16.18,0,0,1,7.3,5.2,20.07,20.07,0,0,1,1.4-8.4l.6-1.3,1.1.8a19.93,19.93,0,0,1,5.4,5.8l1.6-2.3,1,1a18,18,0,0,1,5,11.6l5.2-5.1.2,2.4a18.55,18.55,0,0,1-.7,6.6l2.2-1-.5,2.3c-1.2,5.7-3.8,8.6-5.7,10.1a1.14,1.14,0,1,1-1.4-1.8,12.53,12.53,0,0,0,4.2-6.4l-3.5,1.6,1.6-3a15.06,15.06,0,0,0,1.4-5.5l-2.9,2.9a1.75,1.75,0,0,1-1.7.3,1.42,1.42,0,0,1-.8-1.4,15.35,15.35,0,0,0-3.4-10.8l-2.1,3-.8-1.8a17.23,17.23,0,0,0-4.3-5.5,25.89,25.89,0,0,0,.1,11.6l.3,1.1-1.1.3a1.24,1.24,0,0,1-1.5-.8,13.83,13.83,0,0,0-6.6-8.2l1.1,3.6-1.6.9-.7-.7a17.64,17.64,0,0,0-7.9-3.8,18.39,18.39,0,0,0,3.7,8l.7.6-.9,1.6-.9-.2-2.8-.8a13.71,13.71,0,0,0,8.1,6.7,1.2,1.2,0,0,1,.8,1.5l-.3,1.1-1.2-.2A24.91,24.91,0,0,0,28,50a17.33,17.33,0,0,0,5.5,4.4l1.8.9-3,2.1a14.87,14.87,0,0,0,10.8,3.5,1.49,1.49,0,0,1,1.4.8,1.36,1.36,0,0,1-.2,1.6l-3,3a17.87,17.87,0,0,0,5.5-1.4l3-1.5-1.7,3.2a12.54,12.54,0,0,0,6.1-3.8,1.13,1.13,0,0,1,1.7,1.5,16.82,16.82,0,0,1-9.7,5.1Z"/><path class="cls-2" d="M91.7,73.5l-2.2-.7c-6.4-2-9.5-5.2-10.9-7.6a1.17,1.17,0,1,1,2-1.2A15.8,15.8,0,0,0,88,69.8l-1.5-4.1,2.9,1.9A19,19,0,0,0,96.1,70l-3.3-4.1a1.68,1.68,0,0,1-.1-1.8,1.56,1.56,0,0,1,1.6-.7,18.09,18.09,0,0,0,13.1-2.9l-3.2-2.7,1.9-.7a20.71,20.71,0,0,0,7.1-4.6,29,29,0,0,0-13.7-1.2,1.25,1.25,0,0,1-1.4-1,1.17,1.17,0,0,1,1-1.4,16,16,0,0,0,10.5-7.2l-4.6.9-.8-1.7.7-.6a21.58,21.58,0,0,0,5.4-9.1,20.31,20.31,0,0,0-10,3.5l-.7.5-1.5-1.1.3-.9,1.4-3.5a15.93,15.93,0,0,0-9.1,8.9,1.26,1.26,0,0,1-1.6.7,1.19,1.19,0,0,1-.7-1.5,28.39,28.39,0,0,0,1.5-13.7A20.28,20.28,0,0,0,84,30.2l-1,1.7-2.1-3.7a17.77,17.77,0,0,0-5.4,12.3,1.2,1.2,0,0,1-1.2,1.1,1.13,1.13,0,0,1-1.1-1.2,20.16,20.16,0,0,1,7.3-15l1-.8,1.6,2.8a27.89,27.89,0,0,1,7-6.2l1.2-.6.4,1.3c.1.2,1.3,4.1.4,10.3a19.16,19.16,0,0,1,9.4-5.4l2.2-.6-2,4.8c2.6-1.2,6.3-2.5,9.9-2.2l1.2.1-.1,1.2a20.36,20.36,0,0,1-4.1,9.3l5.1-1-1,2.1a18.63,18.63,0,0,1-7.1,8.1,24.19,24.19,0,0,1,10,2.4l1.2.7-.9,1.1a24.18,24.18,0,0,1-7.4,5.7l2.5,2.1-1.1.9a20.32,20.32,0,0,1-14.2,4.4l5.3,6.6H98.6a20.76,20.76,0,0,1-7.9-1.6Z"/><path class="cls-2" d="M67,120.6A30.82,30.82,0,0,1,36.2,90.1a1.15,1.15,0,0,1,2.3-.1,28.5,28.5,0,0,0,57-.4,1.15,1.15,0,0,1,2.3-.1,30.79,30.79,0,0,1-30.5,31A.37.37,0,0,1,67,120.6Z"/><path class="cls-2" d="M38.5,99a1.11,1.11,0,0,1-1.1-1.1,1.2,1.2,0,0,1,1.1-1.2l57.1-.4a1.15,1.15,0,0,1,.1,2.3L38.5,99Z"/><path class="cls-2" d="M67.1,94.2A1.11,1.11,0,0,1,66,93.1l-.5-11.7c-1.2-10.1-5-23.5-15.7-30.3a1.17,1.17,0,1,1,1.2-2c11.5,7.4,15.5,21.5,16.8,32v.1L68.3,93a1.29,1.29,0,0,1-1.2,1.2Z"/><path class="cls-2" d="M66.6,84.1A1.11,1.11,0,0,1,65.5,83c-.8-16.2,6.4-27.9,22.6-36.7a1.19,1.19,0,0,1,1.1,2.1c-20.1,11-21.8,25-21.4,34.6a1.2,1.2,0,0,1-1.2,1.1Z"/><path class="cls-2" d="M93,57.5c-8.4,0-12.8-4.2-13-4.4a1.13,1.13,0,1,1,1.6-1.6c.2.2,5.3,5,15.1,3.5a1.16,1.16,0,0,1,.3,2.3C95.6,57.4,94.3,57.5,93,57.5Z"/></g></g></svg>