<svg xmlns="http://www.w3.org/2000/svg" viewBox="0 0 141.2 141.2"><defs><style>.cls-1{fill:none;}.cls-2{}</style></defs><g id="Calque_2" data-name="Calque 2"><g id="Layer_1" data-name="Layer 1"><rect class="cls-1" width="141.2" height="141.2" rx="70.6"/><path class="cls-2" d="M44.52,23.1A21.45,21.45,0,0,0,23.1,44.52V96.68A21.45,21.45,0,0,0,44.52,118.1h29.6a1.76,1.76,0,0,0,0-3.52H44.52a17.92,17.92,0,0,1-17.9-17.9V44.52a17.92,17.92,0,0,1,17.9-17.9H96.68a17.92,17.92,0,0,1,17.9,17.9V77.64a1.76,1.76,0,1,0,3.52,0V44.52A21.45,21.45,0,0,0,96.68,23.1ZM58,35.42a1.76,1.76,0,0,0-1.2.61l-11,12.82-6.72-5A1.76,1.76,0,0,0,37,46.62l8,6a1.74,1.74,0,0,0,1.05.35,1.77,1.77,0,0,0,1.34-.61L59.49,38.31a1.74,1.74,0,0,0-.19-2.47A1.7,1.7,0,0,0,58,35.42ZM70.6,44.21a1.76,1.76,0,1,0,0,3.52h31.67a1.76,1.76,0,1,0,0-3.52ZM58,60.05a1.76,1.76,0,0,0-1.2.61l-11,12.82-6.72-5A1.76,1.76,0,0,0,37,71.25l8,6a1.74,1.74,0,0,0,1.05.35A1.77,1.77,0,0,0,47.43,77L59.49,62.94a1.74,1.74,0,0,0-.19-2.47A1.7,1.7,0,0,0,58,60.05ZM70.6,68.84a1.76,1.76,0,1,0,0,3.52h31.67a1.76,1.76,0,1,0,0-3.52ZM97,81.15a17.6,17.6,0,1,0,17.59,17.6A17.62,17.62,0,0,0,97,81.15Zm0,5.28a1.76,1.76,0,0,1,1.76,1.76V97h8.8a1.76,1.76,0,0,1,0,3.52H97a1.76,1.76,0,0,1-1.76-1.76V88.19A1.76,1.76,0,0,1,97,86.43Zm-39,0a1.76,1.76,0,0,0-1.2.61l-11,12.82-6.72-5A1.76,1.76,0,0,0,37,97.64l8,6a1.74,1.74,0,0,0,1.05.35,1.77,1.77,0,0,0,1.34-.61L59.49,89.34a1.76,1.76,0,0,0-.18-2.48A1.78,1.78,0,0,0,58,86.44Z"/></g></g></svg>