<svg xmlns="http://www.w3.org/2000/svg" viewBox="0 0 141.2 141.2"><defs><style>.cls-1{}.cls-2{fill:none;}</style></defs><g id="Calque_2" data-name="Calque 2"><g id="Layer_1" data-name="Layer 1"><path class="cls-1" d="M38.15,117.18a1,1,0,0,0,.23,1.37,1,1,0,0,0,.57.18,1,1,0,0,0,.8-.42l5-7.08c.25,0,.51.07.77.09l.81,0a13.6,13.6,0,0,0,13-9.62c3.4-11.12,8.9-19.79,16.38-25.78C93.09,62,113.44,53,113.65,52.92a1,1,0,0,0,.53-1.22L111,42.49a1,1,0,0,0-1.14-.64c-.29.06-.57.16-.86.22l3.84-4a1,1,0,0,0,.05-1.32l-4.32-5.14a1,1,0,0,0-.67-.35,1,1,0,0,0-.71.23l-6.11,5.13,5.55-8.16a1,1,0,0,0,.14-.78,1,1,0,0,0-.48-.64L98.14,22.6a1,1,0,0,0-.77-.08,1,1,0,0,0-.59.51L91,35.15c1-4,1.68-7,1.69-7A1,1,0,0,0,92.1,27L82,22.74a1,1,0,0,0-.85,0,1,1,0,0,0-.5.69c-.06.35-6.23,34.33-21.72,50l-.07.09-2.65,2.53a38,38,0,0,1-14.25,8.72,13.57,13.57,0,0,0-8.22,18l-6.29,4.09a1,1,0,0,0,.54,1.8,1,1,0,0,0,.53-.15l6.07-4a13.37,13.37,0,0,0,1,1.55,13.85,13.85,0,0,0,1.26,1.38L32.29,112a1,1,0,0,0,0,1.39,1,1,0,0,0,1.39,0l4.67-4.67a13.8,13.8,0,0,0,4.27,2.09Zm69.56-83.52,3.12,3.72-5.55,5.73a76.36,76.36,0,0,0-12,5L97,42.64Zm-9.6-8.84,6.3,3.47L89.57,50.12c-1.5.85-3,1.73-4.46,2.66a56.32,56.32,0,0,0,2.13-5.24ZM82.32,25l8.26,3.49a171.28,171.28,0,0,1-5.17,18.32,33.9,33.9,0,0,1-3.91,8.31,168.84,168.84,0,0,0-14.42,11C76.75,50.93,81.28,30.27,82.32,25ZM36.81,90.93a11.66,11.66,0,0,1,5.74-4.28,39.9,39.9,0,0,0,15-9.17A189.44,189.44,0,0,1,82.63,56.74l.08-.05c2.62-1.78,5.31-3.45,8-5l0,0a79,79,0,0,1,15.15-6.74.79.79,0,0,0,.3-.08c1.08-.33,2.15-.63,3.22-.89L112,51.49c-4,1.86-22,10.44-37.53,22.92-7.79,6.24-13.52,15.23-17,26.74a11.68,11.68,0,0,1-11.85,8.21,11.62,11.62,0,0,1-8.52-4.47A11.78,11.78,0,0,1,36.81,90.93Z"/><rect class="cls-2" width="141.2" height="141.2" rx="70.6"/></g></g></svg>