<svg xmlns="http://www.w3.org/2000/svg" viewBox="0 0 141.2 141.2"><defs><style>.cls-1{fill:none;}.cls-2{}</style></defs><g id="Calque_2" data-name="Calque 2"><g id="Layer_1" data-name="Layer 1"><rect class="cls-1" width="141.2" height="141.2" rx="70.6"/><path class="cls-2" d="M73.06,112.79l-1.63,0H70c-3.55,0-14.35.15-20.89-6.31-3.41-3.37-5.14-8-5.14-13.74,0-12.65,3.9-17.64,7.34-22,2.06-2.64,4-5.14,5-9.18,3.39-13.24,12.78-13.91,15.86-14.13h.06c.42,0,10.29-.16,14.91,15.65a51.93,51.93,0,0,0,5.29,11.76c3.44,6.07,6.41,11.32,3.63,23.29C92.92,111.8,79.4,112.79,73.06,112.79Zm-2.46-3h.88c8.08.14,19.06-1,21.72-12.39,2.52-10.84.07-15.16-3.32-21.14a54.24,54.24,0,0,1-5.55-12.4C80.46,50.65,73,50.35,72.4,50.35c-4.79.35-10.6,2-13.13,11.89-1.19,4.64-3.42,7.51-5.59,10.28C50.39,76.74,47,81.1,47,92.72c0,4.92,1.43,8.82,4.25,11.61,5.64,5.58,15.52,5.47,18.75,5.44Z"/><path class="cls-2" d="M72.52,50.25a1.34,1.34,0,0,1-.48-.08,1.49,1.49,0,0,1-.94-1.9c0-.11,3.77-11.25,4.29-15.23a1.5,1.5,0,1,1,3,.39c-.56,4.26-4.26,15.33-4.42,15.8A1.49,1.49,0,0,1,72.52,50.25Z"/><path class="cls-2" d="M65.75,47.07a28.33,28.33,0,0,1-7.38-1c-7.25-2-11.23-11.84-11.4-12.26l-.45-1.13,1-.67c.43-.29,10.67-6.94,17.89-1.52,7,5.23,7.26,14.07,7.27,14.45l0,1.2-1.16.29A25.81,25.81,0,0,1,65.75,47.07ZM50.29,33.91c1.2,2.46,4.36,8.06,8.88,9.3a25.94,25.94,0,0,0,10.4.58c-.34-2.38-1.57-7.58-5.94-10.86S52.84,32.53,50.29,33.91Z"/><path class="cls-2" d="M87.64,99.73a1.5,1.5,0,0,1-1.26-2.31c.2-.31.38-.62.54-.92a1.5,1.5,0,0,1,2.64,1.42c-.2.37-.41.74-.66,1.12A1.48,1.48,0,0,1,87.64,99.73Z"/><path class="cls-2" d="M89.56,95.18a1.12,1.12,0,0,1-.32,0,1.49,1.49,0,0,1-1.15-1.78,9.61,9.61,0,0,0-.1-4.81,1.5,1.5,0,0,1,2.81-1A12.39,12.39,0,0,1,91,94,1.49,1.49,0,0,1,89.56,95.18Z"/></g></g></svg>