<svg xmlns="http://www.w3.org/2000/svg" viewBox="0 0 141.2 141.2"><defs><style>.cls-1{}.cls-2{fill:none;}</style></defs><g id="Calque_2" data-name="Calque 2"><g id="Layer_1" data-name="Layer 1"><path class="cls-1" d="M56.84,64c-2.9-1.09-7-3.08-8.67-5.08a4,4,0,0,0-2.78-1.63c-1.89,0-2.65,2.17-3,3.11a14.74,14.74,0,0,1-1,2.23,27.31,27.31,0,0,1-4.07,4.65,37.39,37.39,0,0,0-3.16,3.38A20.48,20.48,0,0,0,30.81,86.9c1.59,5,6.63,12.39,13.9,12.39a10.89,10.89,0,0,0,2.78-.37,8.28,8.28,0,0,0,5.26-3.77,7.79,7.79,0,0,0,3.86,1,10.22,10.22,0,0,0,2.58-.35,12.23,12.23,0,0,0,7.71-6.11A14.89,14.89,0,0,0,68,78.3C66.46,73,62.44,66.13,56.84,64Zm8.6,15.14h0a12.1,12.1,0,0,1-.92,9.19,9.41,9.41,0,0,1-6,4.74,7.26,7.26,0,0,1-1.85.27,4.56,4.56,0,0,1-3.37-1.3C52,90.5,50.52,88,51,86.19h0a1.39,1.39,0,0,0-1-1.73,1.36,1.36,0,0,0-.8,0s-1.09.39-1.52-.36h0a1.34,1.34,0,0,0-.84-.69,1.38,1.38,0,0,0-1.09.13,1.4,1.4,0,0,0-.65.87,1.37,1.37,0,0,0,.18,1.08,3.55,3.55,0,0,0,2.9,1.81,11.81,11.81,0,0,0,2.51,5.82,5.4,5.4,0,0,1-3.87,3,7.42,7.42,0,0,1-2,.26c-5.79,0-10-6.4-11.29-10.4h0A17.64,17.64,0,0,1,36.4,72.37a35.35,35.35,0,0,1,2.9-3.1A27.57,27.57,0,0,0,43.82,64a15.74,15.74,0,0,0,1.25-2.7,8.87,8.87,0,0,1,.47-1.1,5.71,5.71,0,0,1,.55.55c2.78,3.08,8.6,5.41,9.73,5.84,4.41,1.65,8,7.49,9.62,12.54Z"/><path class="cls-1" d="M107,80.38A27.41,27.41,0,0,1,104,75a13.12,13.12,0,0,1-.53-2.41c-.11-.93-.44-3.72-2.78-3.72a4.29,4.29,0,0,0-2.52,1c-2.16,1.57-6.49,2.64-9.55,3.07-5.94.84-11.3,6.72-14.1,11.49h0a15.06,15.06,0,0,0-1.39,11.36,12.26,12.26,0,0,0,6.2,7.63,9.26,9.26,0,0,0,4.17,1.1,7.75,7.75,0,0,0,2.2-.32A8.37,8.37,0,0,0,90.05,109a10.45,10.45,0,0,0,4.9,1.21c5.89,0,11.4-4.83,14.06-9.36h0a20.5,20.5,0,0,0,.19-16.53,36.19,36.19,0,0,0-2.24-4Zm-.28,19.15c-2.3,4-7,7.94-11.62,7.94h0a7.8,7.8,0,0,1-3.57-.92,5.34,5.34,0,0,1-3.1-3.75,11.68,11.68,0,0,0,3.72-5.15h.56a3.53,3.53,0,0,0,2.67-1.18,1.39,1.39,0,0,0-.14-1.9,1.41,1.41,0,0,0-1.91,0c-.54.59-1.39.11-1.57,0a1.19,1.19,0,0,0-.78-.22,1.39,1.39,0,0,0-1.39,1.39c0,1.68-1.39,3.38-2.78,4.6a4.9,4.9,0,0,1-2.94,1.29,4.85,4.85,0,0,1-3.12-.79,9.51,9.51,0,0,1-4.82-5.92A12.13,12.13,0,0,1,77,85.75c2.67-4.58,7.45-9.48,12.08-10.14,1.22-.18,7.48-1.17,10.81-3.58a5.23,5.23,0,0,1,.63-.41,5.77,5.77,0,0,1,.23,1.17,15.28,15.28,0,0,0,.64,2.91,28.33,28.33,0,0,0,3.26,6.09,33.81,33.81,0,0,1,2.13,3.75,17.63,17.63,0,0,1-.1,14Z"/><path class="cls-1" d="M63.68,58.16a8.31,8.31,0,0,0,2,6.16,12.38,12.38,0,0,0,9.94,4.74,15,15,0,0,0,9.62-3.51c4.17-3.65,8.94-10,8.66-16-.14-3.09.1-7.55,1.24-10h0a3.64,3.64,0,0,0,.25-3.49,3.33,3.33,0,0,0-3-1.22h-.86A13.6,13.6,0,0,1,89,34.82,27,27,0,0,1,83.14,33a37.77,37.77,0,0,0-4.36-1.57,16.81,16.81,0,0,0-4.17-.5,20.62,20.62,0,0,0-12.06,3.74c-5,4.34-9.65,13.46-4.44,20.14a8.35,8.35,0,0,0,5.57,3.33Zm.66-21.34a17.92,17.92,0,0,1,10.27-3.16,13.8,13.8,0,0,1,3.5.42,37.07,37.07,0,0,1,4,1.39,28.3,28.3,0,0,0,6.6,2.14,16.25,16.25,0,0,0,3,.09,5.92,5.92,0,0,1,1.19,0,3.53,3.53,0,0,1-.28.7C90.82,42.12,91,48.46,91.07,49.68c.22,4.67-3.71,10.28-7.72,13.77a12.14,12.14,0,0,1-7.78,2.78,9.6,9.6,0,0,1-7.72-3.62A5.73,5.73,0,0,1,67.61,56a6.08,6.08,0,0,1,3.62-3,1.39,1.39,0,0,0,1.14-1.58,1.24,1.24,0,0,0-.38-.71c-.14-.14-.76-.89-.29-1.53a1.41,1.41,0,0,0,.26-1,1.45,1.45,0,0,0-.55-.92,1.38,1.38,0,0,0-1.93.29,3.39,3.39,0,0,0-.52,3.3,10.41,10.41,0,0,0-4.37,4.49A5.31,5.31,0,0,1,60.3,53c-4-5.16,0-12.68,4-16.17Z"/><path class="cls-1" d="M84.1,82.5a14,14,0,0,0-5.56,8.7,1.42,1.42,0,0,0,.25,1.06,1.39,1.39,0,0,0,.95.55H80a1.38,1.38,0,0,0,1.39-1.15,11.36,11.36,0,0,1,4.27-6.84,1.39,1.39,0,0,0,.42-1.92,1.34,1.34,0,0,0-.89-.61,1.37,1.37,0,0,0-1.06.21Z"/><rect class="cls-2" width="141.2" height="141.2" rx="70.6"/></g></g></svg>