<svg xmlns="http://www.w3.org/2000/svg" viewBox="0 0 141.2 141.2"><defs><style>.cls-1{}.cls-2{fill:none;}</style></defs><g id="Calque_2" data-name="Calque 2"><g id="Layer_1" data-name="Layer 1"><path class="cls-1" d="M66.19,59.52c-2.75,2.65-4.07,8.94-4.37,13.62a1.11,1.11,0,0,0,.91,1.12h.1a1,1,0,0,0,1-.92c.3-5.48,1.83-10.56,3.76-12.29a1,1,0,0,0,0-1.42.91.91,0,0,0-1.42-.11Z"/><path class="cls-1" d="M104.89,71.11c-.3-8.84-3.25-13.72-6-16.36-.31-2.64-2.14-7.21-7.22-7.72-4-.41-8.12,1-11.27,2.34-.92-2.65,0-6.91,1.12-11.28,1.32-5,4.06-5.89,6.6-6.71a7.12,7.12,0,0,0,.81-.3c2.74-.92,5.79-2.64,5.18-6.71a3.72,3.72,0,0,0-2-2.74,9.35,9.35,0,0,0-6.1-.2,21.71,21.71,0,0,0-4.67,1.83C75.43,26.4,70.15,37.48,68.93,41.14s-2.75,6.7-5.9,8.73a11.55,11.55,0,0,0-1.72.51c-4.57-1.83-7.83-2.44-11.58-1-5.9,2.34-10,7.22-11.79,14-2.54,9.25-2.84,24.79,1.42,36.48,3.76,10.15,8.13,19.2,20.53,19.2a17.25,17.25,0,0,0,2.33-.11,19.54,19.54,0,0,0,7.32,1.22h.1a16.13,16.13,0,0,0,10.66-4.06c1.73-.2,9.35-1,12-2.13,5.89-2.54,8.54-8.84,10.47-15.24,2.44-7.32,2.64-15,2.13-27.63ZM91.58,49a5.49,5.49,0,0,1,4.78,3.66,9.08,9.08,0,0,0-2.24-1c-2.84-.91-5.79-.2-9.14,1.32a8.48,8.48,0,0,1-3.35-1.83C84.17,50,88,48.65,91.58,49Zm-.3-25.6a1.78,1.78,0,0,1,.91,1.22c.41,2.23-.61,3.35-3.76,4.47-.3.1-.5.2-.81.3-.1,0-.1,0-.2.1A3.5,3.5,0,0,1,86,26.61a4.26,4.26,0,0,1,.81-3.25,6.61,6.61,0,0,1,4.47,0ZM71,41.64c1.52-4.36,6.5-14.12,11.48-16.76a13.44,13.44,0,0,1,1.73-.81A7.81,7.81,0,0,0,84,26.71a6.65,6.65,0,0,0,1.32,3.56c-2.23,1-4.47,2.84-5.58,7.31-1.63,6.1-2.34,10.77-.61,13.72a8.27,8.27,0,0,0,3.35,2.94c-.1.1-.2.1-.3.21-4.47-1.53-7.12-.82-8.54-.11a8.27,8.27,0,0,0-7-4.67,21.39,21.39,0,0,0,4.37-8ZM41.4,99.15C37.23,87.87,37.54,72.93,40,63.89c1.73-6.3,5.29-10.56,10.57-12.7,2.74-1.11,5.08-.81,8.33.41a17.62,17.62,0,0,0-7.31,10.26c-1.93,7-3.46,25.3-1.32,37.89,1.11,6.71,3.14,13.41,8.33,17.27-9-.6-13.21-6.9-17.17-17.87ZM62.73,117h-.1c-5.49-2.24-8.53-7.73-10.26-17.58-2.13-12.29-.71-30.17,1.22-37,1.73-6.3,6.8-10.87,12-10.87h.5a6.31,6.31,0,0,1,6.1,4.57,1,1,0,0,0,.81.71,1.05,1.05,0,0,0,1-.4s1.93-2.24,7.92-.1c7,2.54,6.61,7.61,6,16.15-.1,1.32-.21,2.84-.31,4.27-.61,11.27-4.37,29.46-6.3,34.54s-8,6.8-11.58,6.8a21.17,21.17,0,0,1-7-1.11ZM101,98.13c-2.13,6.81-4.57,11.89-9.45,13.92a45,45,0,0,1-9.34,1.72,14.64,14.64,0,0,0,.91-1.82c2.24-5.79,5.89-24.59,6.5-35.15.1-1.53.21-3,.31-4.27.51-7.72,1-14-5.39-17.27,3.46-1.63,6.3-2.54,8.84-1.73,1.42.41,8.84,3.46,9.35,17.58.51,12.39.41,20-1.73,27Z"/><path class="cls-1" d="M99.61,69.89a1,1,0,1,0-2,0c0,1.32,0,2.54.1,3.65.1,2.44.1,4.27,0,6.4a1,1,0,0,0,1,1,1,1,0,0,0,1-1c.1-2.13,0-4.06,0-6.5-.1-.91-.1-2.13-.1-3.55Z"/><path class="cls-1" d="M43.12,82.48a1,1,0,0,0-1-1,1,1,0,0,0-1,1,43.89,43.89,0,0,0,1.73,12.09,1,1,0,0,0,1,.72h.31a1.11,1.11,0,0,0,.71-1.22,37.7,37.7,0,0,1-1.73-11.59Z"/><path class="cls-1" d="M80.2,101.08a1,1,0,0,0-1.21.81c-.82,4-2.65,7.41-5,9.24a1.11,1.11,0,0,0-.21,1.43,1.28,1.28,0,0,0,.82.4,1.51,1.51,0,0,0,.61-.2c2.64-2.14,4.77-6,5.69-10.36a1,1,0,0,0-.72-1.32Z"/><rect class="cls-2" width="141.2" height="141.2" rx="70.6"/></g></g></svg>