<svg xmlns="http://www.w3.org/2000/svg" viewBox="0 0 141.2 141.2"><defs><style>.cls-1{}.cls-2{fill:none;}</style></defs><g id="Calque_2" data-name="Calque 2"><g id="Layer_1" data-name="Layer 1"><path class="cls-1" d="M70.64,107.47a8.88,8.88,0,0,1-4.28-1.1L40.55,92.21A8.85,8.85,0,0,1,36,84.46V56.74A8.85,8.85,0,0,1,40.55,49L66.36,34.83a8.7,8.7,0,0,1,8.48,0L100.65,49a8.85,8.85,0,0,1,4.57,7.75V84.46a8.85,8.85,0,0,1-4.57,7.75L74.84,106.37a8.39,8.39,0,0,1-4.2,1.1Zm0-70.79a6,6,0,0,0-2.88.73L42,51.57a5.82,5.82,0,0,0-3,5.17V84.46a6,6,0,0,0,3,5.17l25.81,14.16a6,6,0,0,0,5.68,0L99.25,89.63a5.89,5.89,0,0,0,3.1-5.17V56.74a5.89,5.89,0,0,0-3.1-5.17L73.44,37.41a5.55,5.55,0,0,0-2.8-.73Z"/><path class="cls-1" d="M72.11,89.77h-5.9a1.48,1.48,0,0,1,0-3h5.9a1.48,1.48,0,1,1,0,3Z"/><path class="cls-1" d="M55.15,89.77h-5.9a1.48,1.48,0,0,1,0-3h5.9a1.48,1.48,0,1,1,0,3Z"/><path class="cls-1" d="M88.34,89.77h-5.9a1.48,1.48,0,1,1,0-3h5.9a1.48,1.48,0,0,1,0,3Z"/><path class="cls-1" d="M81,97.15H74.32a1.48,1.48,0,0,1,0-3H81a1.48,1.48,0,1,1,0,3Z"/><path class="cls-1" d="M66.21,97.15H59.57a1.48,1.48,0,0,1,0-3h6.64a1.48,1.48,0,1,1,0,3Z"/><path class="cls-1" d="M97.92,83.14H43.35a1.48,1.48,0,0,1,0-3H97.92a1.48,1.48,0,1,1,0,3Z"/><path class="cls-1" d="M63.19,69.64a2.67,2.67,0,0,1-1.92-.81,3.31,3.31,0,0,1-.88-3.17,8.55,8.55,0,0,1,1.91-3.91,8.68,8.68,0,0,1,6.12-2.65,1.47,1.47,0,0,1,1.48,1.47c0,.15,0,4.13-2.21,6.64a7.33,7.33,0,0,1-3.54,2.21,2.53,2.53,0,0,1-1,.22Zm0-3.24v.29a4.83,4.83,0,0,0,2.14-1.33,6.71,6.71,0,0,0,1.32-3,4.81,4.81,0,0,0-2.21,1.33,6.87,6.87,0,0,0-1.25,2.66Z"/><path class="cls-1" d="M57,63.74a1.73,1.73,0,0,1-.59-.07A3.36,3.36,0,0,1,54,61.46a9.07,9.07,0,0,1-.44-4.36,8.6,8.6,0,0,1,3.83-5.45,1.38,1.38,0,0,1,2,.51c.08.15,2.14,3.54,1.55,6.86a8.12,8.12,0,0,1-1.84,3.76,2.76,2.76,0,0,1-2.07,1Zm.59-8.41a4.6,4.6,0,0,0-1.18,2.29,6.8,6.8,0,0,0,.3,2.88.92.92,0,0,0,.15.22A5.15,5.15,0,0,0,58,58.51a5.07,5.07,0,0,0-.37-3.18Z"/><path class="cls-1" d="M57.66,74.8c-3.39,0-6.34-2.58-6.49-2.65A1.5,1.5,0,0,1,51,70.08a8.49,8.49,0,0,1,6-2.87,9.54,9.54,0,0,1,4.21,1.1A3.3,3.3,0,0,1,63,71a2.7,2.7,0,0,1-1.33,2.51,7.07,7.07,0,0,1-4,1.25Zm-3-3.91a6.16,6.16,0,0,0,3.1,1,4.26,4.26,0,0,0,2.36-.73c0-.08-.07-.15-.22-.22a6.52,6.52,0,0,0-2.8-.82,4.14,4.14,0,0,0-2.44.82Z"/><path class="cls-1" d="M48.44,65.29c-3.39,0-6.34-2.58-6.49-2.65a1.51,1.51,0,0,1-.15-2.07,8.48,8.48,0,0,1,6-2.88A9.42,9.42,0,0,1,52,58.8a3.29,3.29,0,0,1,1.77,2.73A2.68,2.68,0,0,1,52.42,64a7.25,7.25,0,0,1-4,1.25Zm-3.1-3.91a6.1,6.1,0,0,0,3.1,1,4.19,4.19,0,0,0,2.36-.74c0-.07-.07-.14-.22-.22a6.67,6.67,0,0,0-2.81-.81,6.29,6.29,0,0,0-2.43.81Z"/><path class="cls-1" d="M66.29,82.47A1.47,1.47,0,0,1,64.81,81c0-8-6.05-16.23-14.67-19.84a1.47,1.47,0,1,1,1.1-2.73C61,62.49,67.76,71.71,67.76,81a1.47,1.47,0,0,1-1.47,1.47Z"/><path class="cls-1" d="M75.28,82.47A1.47,1.47,0,0,1,73.81,81c0-9.22,6.78-18.51,16.52-22.57a1.47,1.47,0,0,1,1.1,2.73C82.81,64.77,76.76,73,76.76,81a1.48,1.48,0,0,1-1.48,1.47Z"/><path class="cls-1" d="M85.24,65h-.07a1.54,1.54,0,0,1-1.41-1.55l.52-7.67a2.82,2.82,0,0,1,1.18-2.44L89.52,50a1.33,1.33,0,0,1,1.54-.14,1.38,1.38,0,0,1,.82,1.32v8.19a1.48,1.48,0,1,1-2.95,0V54.3l-1.7,1.33-.07.07v.15l-.52,7.74A1.32,1.32,0,0,1,85.24,65Z"/><path class="cls-1" d="M79.56,69.64h-.07a1.53,1.53,0,0,1-1.4-1.55l.51-7.67A2.82,2.82,0,0,1,79.78,58l5.75-4.72a1.47,1.47,0,1,1,1.85,2.29l-5.83,4.72-.07.07v.22L81,68.31a1.38,1.38,0,0,1-1.4,1.33Z"/><path class="cls-1" d="M93.72,66.69a2.12,2.12,0,0,1-.66-.07l-7.67-1.18a1.56,1.56,0,0,1-1.26-1.7,1.51,1.51,0,0,1,1.7-1.25l7.67,1.18a.28.28,0,0,1,.22.07l.07-.07,1.7-1.33-4.94-1a1.42,1.42,0,0,1-1.11-1.77,1.45,1.45,0,0,1,1.77-1.11l8,1.7a1.34,1.34,0,0,1,1.11,1.1,1.58,1.58,0,0,1-.52,1.48l-4,3.32a4.56,4.56,0,0,1-2.07.66Z"/><path class="cls-1" d="M88,71.26a2.22,2.22,0,0,1-.67-.07l-7.59-1.11a1.55,1.55,0,0,1-1.26-1.69,1.52,1.52,0,0,1,1.7-1.26l7.67,1.11c.07,0,.15,0,.15.07a.07.07,0,0,0,.07-.07l5.83-4.72a1.47,1.47,0,0,1,1.84,2.29L90,70.6a3.41,3.41,0,0,1-2,.66Z"/><rect class="cls-2" width="141.2" height="141.2" rx="70.6"/></g></g></svg>