<svg xmlns="http://www.w3.org/2000/svg" viewBox="0 0 141.2 141.2"><defs><style>.cls-1{fill:none;}.cls-2{}</style></defs><g id="Calque_2" data-name="Calque 2"><g id="Layer_1" data-name="Layer 1"><rect class="cls-1" width="141.2" height="141.2" rx="70.6"/><path class="cls-2" d="M128.38,75.66a1.54,1.54,0,0,1,.1-.85l.19-.45a2.93,2.93,0,0,0-.16-2.55l-.62-1.06,1.71-2.86a1.85,1.85,0,0,0-.64-2.53,1.89,1.89,0,0,0-1-.26h0a11,11,0,0,0-5.29,2.09,1.24,1.24,0,0,0,.55,2.22,1.27,1.27,0,0,0,.92-.23,9.69,9.69,0,0,1,2.58-1.32l-1.33,2.25a1.24,1.24,0,0,0,0,1.25l1,1.68a.4.4,0,0,1,0,.37l-.18.45a4,4,0,0,0-.25,2.22l1.45,8.3a.4.4,0,0,1-.2.42l-1.49.85a.42.42,0,0,1-.49-.06,1.16,1.16,0,0,0-.34-.24,19.19,19.19,0,0,1-5.52-3.79A25.37,25.37,0,0,1,116,77.18a11.61,11.61,0,0,1-1.39-5.56,1.24,1.24,0,0,0-1.23-1.25h0a1.22,1.22,0,0,0-1.23,1.22,13.43,13.43,0,0,0,.38,3.34l-8.34-.32H104a2.62,2.62,0,0,0-2.41,1.62L99.2,81.65a1.36,1.36,0,0,0-.11.44L98.49,97h-2.8L93.84,79.08a1.24,1.24,0,0,0-.24-.62l-3.3-4.38a4,4,0,0,0-3.1-1.45H65.49a4.53,4.53,0,0,0-2.86,1l-11,9.13a1.24,1.24,0,0,0-.45,1V97H48.09V78.67a2.31,2.31,0,0,1,.33-1.2l4.46-7.35a1.26,1.26,0,0,0,.16-.87L50.32,55a2.8,2.8,0,0,1,0-1.08l2.1-9.15a11.64,11.64,0,0,1,4.91-.39l.18,0c6.17,0,22.66,0,32.52,0H97.4A3.9,3.9,0,0,1,100.9,46l17.64,20.81a1.22,1.22,0,0,0,.87.43l1.41.08h.09a1.22,1.22,0,0,0,1.12-.76,5.3,5.3,0,0,1,1.55-2,1.21,1.21,0,0,0,.83.31,1.23,1.23,0,0,0,1.23-1.23,1.84,1.84,0,0,0-2.82-1.56,8,8,0,0,0-2.67,2.74h-.07l-17.3-20.41a6.26,6.26,0,0,0-5.49-2.5H57.63a14.4,14.4,0,0,0-12.86,5c-2.73,3.48-3.09,7.46-3.08,10.89a24.77,24.77,0,0,1-.2,3.45c-.22.15-.42.31-.62.46l-.08.06a8.49,8.49,0,0,0-2.73,3.89,7.77,7.77,0,0,0-.31,3.55A10.22,10.22,0,0,0,38,70.54v0c.06.26.13.52.17.79a1.58,1.58,0,0,0,1,1.3,1.62,1.62,0,0,0,.54.1,2.89,2.89,0,0,0,1.7-.81,4.11,4.11,0,0,1,.83-.51,6.31,6.31,0,0,0,1.21-.76,8,8,0,0,0,2.55-5A1.24,1.24,0,0,0,45,64.27a1.23,1.23,0,0,0-1.39,1v0a5.6,5.6,0,0,1-1.68,3.47,4.66,4.66,0,0,1-.77.47,8.1,8.1,0,0,0-.77.43,7.09,7.09,0,0,1-.14-.78,5.13,5.13,0,0,1,.18-2.46,6,6,0,0,1,1.83-2.7c.36-.28.71-.54,1.07-.77a1.26,1.26,0,0,0,.55-.82,24.08,24.08,0,0,0,.32-4.4c0-3,.29-6.48,2.55-9.36a10.42,10.42,0,0,1,2.92-2.49l-1.7,7.41a5,5,0,0,0,0,2.08l2.62,13.83-4.21,6.94a4.85,4.85,0,0,0-.7,2.49v18.8a2,2,0,0,0,2,2h4a2,2,0,0,0,2-2V84.32l3-2.5,5.11,14.12a1.78,1.78,0,0,0,1.67,1.17H67a1.77,1.77,0,0,0,1.41-.7,1.74,1.74,0,0,0,.3-1.51L65.5,82.74l5.2-7.64H83.19L79.78,95a1.76,1.76,0,0,0,1.44,2,1.53,1.53,0,0,0,.3,0h4a1.77,1.77,0,0,0,1.67-1.19l4.59-13.14,1.55,15a1.59,1.59,0,0,0,.48,1.12,1.87,1.87,0,0,0,1.3.54h4.07a1.79,1.79,0,0,0,1.79-1.78l.62-15.24,2.27-5.21a.25.25,0,0,1,.22-.13l9.15.35c.11.18.22.34.32.51s.13.2.19.3a17.53,17.53,0,0,0,4,5.14,21.62,21.62,0,0,0,6,4.13,2.89,2.89,0,0,0,3.26.29l1.5-.85a2.89,2.89,0,0,0,1.41-3ZM90.59,78.57s0,0,0,0L85,94.64H82.36L85.69,75.1H87.2a1.54,1.54,0,0,1,1.18.53ZM63.14,81.82a1.25,1.25,0,0,0-.18,1l3.09,11.81H63.91L58.68,80.18l0,0,5.55-4.59a2,2,0,0,1,1.28-.46h2.22Z"/><path class="cls-2" d="M23.87,74.21a9.47,9.47,0,0,0,3.87-.92c1.22-.69,2.63-3.41,3.19-4.54A1.1,1.1,0,0,0,30,67.18c-1.26-.11-4.31-.3-5.53.39a8.77,8.77,0,0,0-2.23,2V66.76a3.86,3.86,0,0,0,1.59.31,9.47,9.47,0,0,0,3.87-.92c1.22-.69,2.63-3.41,3.19-4.54A1.1,1.1,0,0,0,30,60c-1.26-.11-4.31-.3-5.53.39a8.77,8.77,0,0,0-2.23,2V61.8c1.49-1,2.19-4,2.19-5.07,0-1.39-1.67-4-2.39-5a1.14,1.14,0,0,0-1.8,0c-.72,1-2.38,3.61-2.38,5,0,1.05.7,4,2.19,5.07v.67a9,9,0,0,0-2.24-2c-1.22-.68-4.27-.49-5.53-.38a1.09,1.09,0,0,0-.88,1.57c.55,1.13,2,3.85,3.18,4.53a9.31,9.31,0,0,0,3.87.92,3.87,3.87,0,0,0,1.6-.3v2.85a8.85,8.85,0,0,0-2.24-2c-1.22-.68-4.27-.49-5.53-.38a1.09,1.09,0,0,0-.88,1.57c.55,1.13,2,3.84,3.18,4.53a9.31,9.31,0,0,0,3.87.92,3.87,3.87,0,0,0,1.6-.3v2.84a9,9,0,0,0-2.24-2c-1.22-.69-4.27-.5-5.53-.38a1.09,1.09,0,0,0-.88,1.57c.55,1.13,2,3.84,3.18,4.53a9.31,9.31,0,0,0,3.87.92,3.87,3.87,0,0,0,1.6-.3v2.84a8.8,8.8,0,0,0-2.24-2c-1.22-.69-4.27-.5-5.53-.38A1.09,1.09,0,0,0,11.44,83c.55,1.14,2,3.85,3.18,4.54a9.47,9.47,0,0,0,3.87.92,4,4,0,0,0,1.6-.3V91a8.8,8.8,0,0,0-2.24-2c-1.22-.69-4.27-.5-5.53-.39a1.1,1.1,0,0,0-.85.56,1.06,1.06,0,0,0,0,1c.55,1.14,2,3.85,3.18,4.54a9.47,9.47,0,0,0,3.87.92,3.87,3.87,0,0,0,1.6-.31v4.13h2.19V95.32a3.86,3.86,0,0,0,1.59.3,9.31,9.31,0,0,0,3.87-.92c1.22-.69,2.63-3.4,3.19-4.53a1.14,1.14,0,0,0,0-1A1.11,1.11,0,0,0,30,88.6c-1.26-.11-4.31-.31-5.53.38a9,9,0,0,0-2.23,2V88.18a3.86,3.86,0,0,0,1.59.3,9.31,9.31,0,0,0,3.87-.92c1.22-.68,2.63-3.4,3.19-4.53a1.15,1.15,0,0,0,0-1,1.13,1.13,0,0,0-.86-.55c-1.26-.11-4.31-.3-5.53.38a9,9,0,0,0-2.23,2V81a3.86,3.86,0,0,0,1.59.31,9.47,9.47,0,0,0,3.87-.92c1.22-.69,2.63-3.4,3.19-4.54A1.1,1.1,0,0,0,30,74.32c-1.26-.11-4.31-.3-5.53.39a8.77,8.77,0,0,0-2.23,2V73.9A3.86,3.86,0,0,0,23.87,74.21Zm1.72-4.74a8.73,8.73,0,0,1,2.59-.2,8.47,8.47,0,0,1-1.51,2.11,6.85,6.85,0,0,1-3.32.61A6.79,6.79,0,0,1,25.59,69.47Zm0-7.14a9.1,9.1,0,0,1,2.59-.2,8.47,8.47,0,0,1-1.51,2.11,6.89,6.89,0,0,1-3.32.61A6.79,6.79,0,0,1,25.59,62.33ZM15.7,64.24a8.21,8.21,0,0,1-1.51-2.11,8.77,8.77,0,0,1,2.59.2A7,7,0,0,1,19,64.85,6.83,6.83,0,0,1,15.7,64.24Zm0,7.14a8.21,8.21,0,0,1-1.51-2.11,8.77,8.77,0,0,1,2.59.2A7,7,0,0,1,19,72,6.83,6.83,0,0,1,15.7,71.38Zm0,7.14a8.21,8.21,0,0,1-1.51-2.11,8.77,8.77,0,0,1,2.59.2A7,7,0,0,1,19,79.13,6.83,6.83,0,0,1,15.7,78.52Zm0,7.14a8.41,8.41,0,0,1-1.51-2.11,8.43,8.43,0,0,1,2.59.2A6.81,6.81,0,0,1,19,86.27,6.83,6.83,0,0,1,15.7,85.66Zm0,7.13a8.1,8.1,0,0,1-1.51-2.1,8.11,8.11,0,0,1,2.59.2A6.81,6.81,0,0,1,19,93.41,6.73,6.73,0,0,1,15.7,92.79Zm9.89-1.9a8.07,8.07,0,0,1,2.59-.2,8.35,8.35,0,0,1-1.51,2.1,6.75,6.75,0,0,1-3.32.62A6.64,6.64,0,0,1,25.59,90.89Zm0-7.14a8.39,8.39,0,0,1,2.59-.2,8.35,8.35,0,0,1-1.51,2.1,6.75,6.75,0,0,1-3.32.62A6.64,6.64,0,0,1,25.59,83.75Zm0-7.14a8.39,8.39,0,0,1,2.59-.2,8.69,8.69,0,0,1-1.51,2.11,6.85,6.85,0,0,1-3.32.61A6.64,6.64,0,0,1,25.59,76.61ZM21.18,59.92a6.8,6.8,0,0,1-1.09-3.19,8.31,8.31,0,0,1,1.09-2.35,8.45,8.45,0,0,1,1.1,2.35A6.81,6.81,0,0,1,21.18,59.92Z"/></g></g></svg>