<svg xmlns="http://www.w3.org/2000/svg" viewBox="0 0 141.2 141.2"><defs><style>.cls-1{}.cls-2{fill:none;}</style></defs><g id="Calque_2" data-name="Calque 2"><g id="Layer_1" data-name="Layer 1"><path class="cls-1" d="M78.13,58A1.65,1.65,0,0,1,78,59.22a1.61,1.61,0,0,1-2.77-1.65A1.66,1.66,0,0,1,77.39,57,1.62,1.62,0,0,1,78.13,58ZM75,50.35a1.56,1.56,0,0,0,.82.23,1.6,1.6,0,0,0,1.38-.79,1.63,1.63,0,0,0,.18-1.22,1.57,1.57,0,0,0-.74-1,1.65,1.65,0,0,0-2.21.56A1.61,1.61,0,0,0,75,50.35Zm9.42,6.38a1.65,1.65,0,0,0-2.2.57,1.61,1.61,0,0,0,.56,2.2,1.59,1.59,0,0,0,.82.23A1.61,1.61,0,0,0,85,58.94a1.58,1.58,0,0,0,.18-1.22A1.64,1.64,0,0,0,84.42,56.73ZM68.73,64.12a1.62,1.62,0,0,0,.17-1.22,1.58,1.58,0,0,0-.74-1,1.66,1.66,0,0,0-2.2.57,1.58,1.58,0,0,0-.17,1.22,1.55,1.55,0,0,0,.73,1,1.59,1.59,0,0,0,.82.23A1.64,1.64,0,0,0,68.73,64.12Zm7,1.63a1.65,1.65,0,0,0-2.2.57,1.61,1.61,0,0,0,.57,2.2,1.58,1.58,0,0,0,.81.23A1.61,1.61,0,0,0,76.26,68a1.61,1.61,0,0,0-.56-2.21Zm6.92-16.5a1.58,1.58,0,0,0,.82.22,1.63,1.63,0,0,0,1.39-.78A1.58,1.58,0,0,0,85,47.47a1.61,1.61,0,0,0-.74-1,1.67,1.67,0,0,0-2.21.57A1.62,1.62,0,0,0,82.62,49.25ZM62.47,84.19a1.67,1.67,0,0,0-2.21.57A1.61,1.61,0,0,0,60.09,86a1.64,1.64,0,0,0,1.56,1.2A1.6,1.6,0,0,0,63,86.4,1.62,1.62,0,0,0,62.47,84.19Zm-2.4-6.65a1.59,1.59,0,0,0,.82.23A1.64,1.64,0,0,0,62.28,77a1.58,1.58,0,0,0,.17-1.22,1.61,1.61,0,0,0-.74-1,1.65,1.65,0,0,0-2.2.56A1.62,1.62,0,0,0,60.07,77.54Zm9.43,6.38a1.66,1.66,0,0,0-2.2.57,1.6,1.6,0,1,0,2.2-.57ZM53.24,89.1a1.65,1.65,0,0,0-2.21.57,1.61,1.61,0,0,0,.57,2.2,1.58,1.58,0,0,0,.82.22,1.61,1.61,0,0,0,1.56-2A1.59,1.59,0,0,0,53.24,89.1Zm7.54,3.84a1.64,1.64,0,0,0-2.2.57A1.61,1.61,0,0,0,60,95.94a1.63,1.63,0,0,0,1.38-.79,1.65,1.65,0,0,0,.18-1.23A1.62,1.62,0,0,0,60.78,92.94Zm6.92-16.5a1.64,1.64,0,0,0,.81.22,1.62,1.62,0,0,0,1.57-2,1.62,1.62,0,0,0-3-.42A1.61,1.61,0,0,0,67.7,76.44Zm23.9,7.25c-7.41,12.55-19.32,20.66-30.34,20.66h0a19.16,19.16,0,0,1-9.9-2.63C46.68,99,43.91,95.55,43.14,91.6,41.66,84,47.8,76,52.74,69.48a70.48,70.48,0,0,0,4.4-6.17,69.3,69.3,0,0,0,3.29-6.83c3.87-8.75,8.68-19.63,18.43-19.63A18.26,18.26,0,0,1,88,39.74c5.94,3.52,9.55,10.09,10.17,18.5C98.79,66.46,96.45,75.5,91.6,83.69Zm3.59-25.22c-.53-7.41-3.63-13.15-8.7-16.15a15.33,15.33,0,0,0-7.63-2.47c-7.8,0-12.17,9.89-15.69,17.84a72.15,72.15,0,0,1-3.45,7.15,71.37,71.37,0,0,1-4.6,6.46c-4.57,6-10.25,13.44-9,19.73.61,3.11,2.83,5.77,6.79,8.11a16.29,16.29,0,0,0,8.38,2.21c10,0,20.87-7.53,27.76-19.19C93.56,74.49,95.75,66.08,95.19,58.47Z"/><rect class="cls-2" width="141.2" height="141.2" rx="70.6"/></g></g></svg>