<svg xmlns="http://www.w3.org/2000/svg" viewBox="0 0 141.2 141.2"><defs><style>.cls-1{fill:none;}.cls-2{}</style></defs><g id="Calque_2" data-name="Calque 2"><g id="Layer_1" data-name="Layer 1"><rect class="cls-1" width="141.2" height="141.2" rx="70.6"/><path class="cls-2" d="M79.49,102.33a16.59,16.59,0,0,1-6.26-1.2,6.94,6.94,0,0,0-5.26,0,16.59,16.59,0,0,1-6.26,1.2C51.94,102.33,44.8,81,44.8,72a16.92,16.92,0,0,1,16.91-16.9A16.59,16.59,0,0,1,68,56.26a7,7,0,0,0,5.26,0A16.89,16.89,0,0,1,96.4,72C96.4,81,89.26,102.33,79.49,102.33Zm-8.89-5a10.25,10.25,0,0,1,3.87.75,13.5,13.5,0,0,0,5,1c6.76,0,13.57-18.54,13.57-27a13.58,13.58,0,0,0-18.59-12.6,10.26,10.26,0,0,1-7.74,0A13.58,13.58,0,0,0,48.14,72c0,8.5,6.81,27,13.57,27a13.5,13.5,0,0,0,5-1A10.25,10.25,0,0,1,70.6,97.28Z"/><path class="cls-2" d="M69.55,58.32c0-.24.29-6-3.07-9.43-1.85-1.89-4.51-2.81-8-2.73a1.67,1.67,0,0,1-.08-3.34c4.41-.12,7.92,1.15,10.45,3.74,4.29,4.42,4.05,11.18,4,11.94Z"/><path class="cls-2" d="M74.05,53.13a15.55,15.55,0,0,1-4.79-.78,1.67,1.67,0,0,1-1.12-1.94A14.22,14.22,0,0,1,86.81,39.68a1.66,1.66,0,0,1,1.11,1.93,14.39,14.39,0,0,1-6.86,9.66A14.11,14.11,0,0,1,74.05,53.13Zm-2.21-3.55a10.73,10.73,0,0,0,12.39-7.13A10.73,10.73,0,0,0,71.84,49.58Z"/></g></g></svg>