<svg xmlns="http://www.w3.org/2000/svg" viewBox="0 0 141.2 141.2"><defs><style>.cls-1{}.cls-2{fill:none;}</style></defs><g id="Calque_2" data-name="Calque 2"><g id="Layer_1" data-name="Layer 1"><path class="cls-1" d="M40.9,89.88c.2,3.51,1.33,6.16,3.36,7.86a9,9,0,0,0,6,2,9.28,9.28,0,0,0,4.37,5.76c3.19,1.74,6.85,1,8.25.68,3.53,3.1,6.82,4,9.43,4a11.19,11.19,0,0,0,5.37-1.33,9.37,9.37,0,0,0,7.29.75,8.38,8.38,0,0,0,4.41-3.82c12.68-4.28,11.79-13.76,11.28-16.34,5.19-4.74,3.25-10.83,2.22-13.15,1.12-.9,2.49-3.24,2-9.31-.27-3.61-1.29-6.06-3-7.29a4.56,4.56,0,0,0-1.88-.76c1-5.22-3.16-9.71-3.34-9.9-4.17-4.6-8.36-3.44-10.08-2.65C79.91,38.86,73.19,42,71.34,43.15a7.35,7.35,0,0,0-5.25.59l-.13.09c-.14.12-.26.24-.38.36-3-6.58-.57-10.47-.46-10.64L66.78,31l-11.23,4.1-.14.5c-1.34,4.88,1.47,9.11,3.34,11.26a8.15,8.15,0,0,0-3.15,2.25c-8.88-1.72-11.51,3.65-12.07,5.2-4.15,2.88-6.52,6.21-7.15,9.93A12.72,12.72,0,0,0,38,72.78,15.73,15.73,0,0,0,40.9,89.88ZM39.65,74a8.59,8.59,0,0,0,3,.61h.21a13.27,13.27,0,0,0,6.62,8.26,20.53,20.53,0,0,0,1.68,5.54A41.52,41.52,0,0,1,42,88.16,13.47,13.47,0,0,1,39.65,74Zm7-8.49h4.73c.68,2.5,2.34,7.87,4.82,11.35A14.16,14.16,0,0,0,50.13,81a11,11,0,0,1-5.53-7.61c-.44-3,1.39-6.56,2.1-7.82Zm12.06-6.36,7,9v1.39a84.81,84.81,0,0,0-5,8.73l-1.6-1c-3.38-3-5.73-11.88-6.06-13.35a4.79,4.79,0,0,1,1.33-3.23,6.9,6.9,0,0,1,4.38-1.54Zm6.42-8.42c.82.15,3.87,1.16,7.18,8a62.91,62.91,0,0,1-5.46,7.59l-6.64-8.52c.09-2.77.79-4.78,2.09-6a4.43,4.43,0,0,1,2.89-1.07Zm9.25,8.62.08-.12,3.91-.5c.94,1.17,3.62,4.85,3.9,9.15a38.79,38.79,0,0,0-3.08,8.46c-.53.91-1.35,2-2.37,2.08a3,3,0,0,1-2.17-1,6.46,6.46,0,0,0-.39-1c-.88-1.8-4.63-6.61-6.08-8.45C70.48,65.58,73.93,60.05,74.38,59.36Zm16.87,1.7c-.15.92-.91,4.51-3.36,5.79l-3.7.19a19.75,19.75,0,0,0-4-9.18,34.1,34.1,0,0,0,.12-6.23c2.27,0,8,.85,10.92,9.43Zm-8.4,35.06a31.88,31.88,0,0,0,3-8.64,11.13,11.13,0,0,0,7.28-2.56,10.48,10.48,0,0,1,1.36,10.27c-.74,1.42-2.93,4.83-5.32,5.91C87.71,98.63,84.55,96.91,82.85,96.12Zm-5.32-.31a83.14,83.14,0,0,1-5.15-7.56,39.9,39.9,0,0,0,2-5.75,5.39,5.39,0,0,1,3.26-1.71,4.35,4.35,0,0,1,3.3,1.52c1.13,1.81,2.41,3.64,3,4.39-.28,1.41-1.31,6.17-3.17,9a7.46,7.46,0,0,1-3.19.12Zm-9.09,4.87c-4.82-1.24-6.26-4-6.67-5.16,1.3-.88,4.15-3.13,4.91-6.19h4c.91,1.45,3.43,5.43,4.91,7.3-1.63,1.46-4.78,3.82-7.15,4.06ZM51.38,82.53c.83-.94,3.57-3.79,6.33-3.89l.23.2,2.31,1.46c.29,1.39,2.7,5.23,4.57,7.47,0,3-3.32,5.52-4.4,6.23C53.12,92.25,51.66,84.39,51.38,82.53Zm16.2-12.07a67.61,67.61,0,0,1,4.86,6.79,6.46,6.46,0,0,1,.16,4.25l0,.07h0a34.82,34.82,0,0,1-2,5.71H67.17a30.07,30.07,0,0,1-4.91-7.35C62.49,79,65.15,74.34,67.58,70.46Zm16.32-1.4,4.1-.21c.73.27,4.44,2,4.76,9.25v.06a13,13,0,0,1-.49,4.76c-2.06,2.39-5.52,2.58-6.73,2.56a47.53,47.53,0,0,1-4.47-7.23c-.43-1.17,1.1-5.56,2.83-9.2Zm10.79,8.19c-.45-5.74-2.88-8.39-4.6-9.54a11.1,11.1,0,0,0,3-5.85,4.53,4.53,0,0,1,3,1c1.61,1.3,3.48,4.5,3.28,12.34A4.21,4.21,0,0,1,94.69,77.25Zm-49.16,19a8.35,8.35,0,0,1-2.59-5.91,41.88,41.88,0,0,0,4.88.26,40.18,40.18,0,0,0,4.38-.24,12.53,12.53,0,0,0,6.18,5.15,21.87,21.87,0,0,1-7,2.19l-.47.06A7.48,7.48,0,0,1,45.53,96.2Zm17.28,7.94s-4.06,1.36-7.23-.38a7.17,7.17,0,0,1-3.28-4.23,21.45,21.45,0,0,0,7.82-2.79c.72,1.65,2.5,4.2,6.83,5.6A11.83,11.83,0,0,1,63.24,104h0Zm2.33,1.33a10.4,10.4,0,0,0,3.72-2.13,62.46,62.46,0,0,0,6.58,4.36C73.38,108.42,69.63,108.93,65.14,105.47Zm19.13,2.25c-1.76.62-3.83.31-6.18-.9l-.55-.28h0a52.39,52.39,0,0,1-6.87-4.36A23.45,23.45,0,0,0,77.3,97.8a6,6,0,0,0,1.4.16,10.89,10.89,0,0,0,2.6-.32c1.37.58,7.59,3.43,6.38,7A6.39,6.39,0,0,1,84.27,107.72Zm5.58-4.26a3.68,3.68,0,0,0,0-.47c3.67-1.56,6.34-6.71,6.46-6.94l0-.12a13.57,13.57,0,0,0,.69-7c.56.25,1.1.53,1.63.83.38,1.79,1.49,9.64-8.83,13.69Zm9.53-15.6a14.29,14.29,0,0,0-3-1.31,11.91,11.91,0,0,0-2-3.33,14,14,0,0,0,.5-3.93,6.25,6.25,0,0,0,6-2.58C101.54,78.09,103.92,83.58,99.38,87.86Zm1.35-26.5c.83.61,1.89,2.1,2.16,5.78.43,5.79-1,7.53-1.49,7.72.12-6.75-1.24-11.31-4-13.56l1.54-.38a2.4,2.4,0,0,1,1.78.44Zm-5.57-11s4.29,4.61,2.54,9.2l-.57,1.54a6.57,6.57,0,0,0-4.19-1.28c-1.71-4.64-4.22-7.2-6.63-8.6a5.43,5.43,0,0,1,.19-2.53l.39-.27c.15-.07,4.06-2.66,8.26,2ZM84.88,47.53a5,5,0,0,0-.63,2.79,12.15,12.15,0,0,0-4.35-.67,8.58,8.58,0,0,0-5.52-5.72C76.79,43.17,80.76,43,84.88,47.53ZM71,45.18l.53.24h0c.22,0,5.18-.23,6.67,5.53h0a21.3,21.3,0,0,1,.08,5.75l-4.42.55c-3.18-6.31-6.26-8-7.88-8.43a4.34,4.34,0,0,1,1.12-3.4A5,5,0,0,1,71,45.18ZM57.23,36.63l5.25-1.92c-.63,2.33-.9,6.33,1.9,11.54a7.36,7.36,0,0,0-.26,1,4.67,4.67,0,0,0-3-.92C59.74,45.08,56.31,41.11,57.23,36.63Zm3.27,11.9h0a2.53,2.53,0,0,1,2.56.62A6.35,6.35,0,0,0,61,50.38c-1.64,1.46-2.57,3.75-2.76,6.82a13.13,13.13,0,0,0-1.76.27,7.51,7.51,0,0,1,.29-6.66S58.38,48.64,60.5,48.53ZM54.5,51a9.54,9.54,0,0,0,.11,7.18,7,7,0,0,0-1.54,1.11,6.61,6.61,0,0,0-2,4.28H46.82a20.3,20.3,0,0,1-1.28-8.87c.54-1.36,2.57-4.69,9-3.69ZM38.38,64.57c.5-2.79,2.23-5.37,5.13-7.69a23,23,0,0,0,1.55,7.55c-.71,1.22-2.56,4.76-2.46,8.19a7.75,7.75,0,0,1-2.75-.7A10.82,10.82,0,0,1,38.38,64.57Z"/><rect class="cls-2" width="141.2" height="141.2" rx="70.6"/></g></g></svg>