<svg xmlns="http://www.w3.org/2000/svg" viewBox="0 0 141.2 141.2"><defs><style>.cls-1{fill:none;}.cls-2{}</style></defs><g id="Calque_2" data-name="Calque 2"><g id="Layer_1" data-name="Layer 1"><rect class="cls-1" width="141.2" height="141.2" rx="70.6"/><path class="cls-2" d="M21.64,71.24v-.7a1.27,1.27,0,0,0-2.54,0v.7a4.39,4.39,0,1,0,2.54,0Zm-1.27,6a1.86,1.86,0,1,1,1.85-1.86A1.85,1.85,0,0,1,20.37,77.28Z"/><path class="cls-2" d="M39.9,35.33v-.7a1.27,1.27,0,1,0-2.53,0v.7a4.39,4.39,0,1,0,2.53,0Zm-1.27,6a1.86,1.86,0,1,1,1.86-1.86A1.85,1.85,0,0,1,38.63,41.37Z"/><path class="cls-2" d="M102,73.45v-.71a1.27,1.27,0,0,0-2.54,0v.71a4.39,4.39,0,1,0,2.54,0Zm-1.27,6a1.85,1.85,0,1,1,1.86-1.85A1.85,1.85,0,0,1,100.75,79.48Z"/><path class="cls-2" d="M123.55,69.21v-.7a1.27,1.27,0,1,0-2.54,0v.7a4.39,4.39,0,1,0,2.54,0Zm-1.27,6a1.86,1.86,0,1,1,1.86-1.85A1.85,1.85,0,0,1,122.28,75.25Z"/><path class="cls-2" d="M117.9,33.21v-.7a1.27,1.27,0,1,0-2.53,0v.7a4.39,4.39,0,1,0,2.53,0Zm-1.27,6a1.86,1.86,0,1,1,1.86-1.85A1.85,1.85,0,0,1,116.63,39.25Z"/><polygon class="cls-1" points="38.38 50.83 37.71 50.17 34.57 53.02 34.59 54.99 38.38 50.84 38.38 50.83"/><polygon class="cls-1" points="39.77 63.95 34.75 68.59 34.78 71.45 40.78 64.96 39.77 63.95"/><path class="cls-1" d="M31.3,41.77a.61.61,0,0,0-.61.6l-.76,66.07c.87-.18,1.77-.35,2.7-.52l-.72-65.55A.61.61,0,0,0,31.3,41.77Z"/><path class="cls-1" d="M56,102.49H47.38l-4.87,3.59v.46l2.71-.28-.09-.49,2.68-2h3l-3.19,2.29,9.7-.65h.06Z"/><path class="cls-1" d="M69.38,98.75l-.74-1.53,1.11-4.88h1.66a2.79,2.79,0,0,0,2.76-2.45,2.83,2.83,0,0,0-1-2.45L70.42,85a6.19,6.19,0,0,0-4.06-1.51H59.52l1.35,2,.54.82-1.09,1.53a2,2,0,0,1-1.63.84H45.45a7.08,7.08,0,0,0-5.87,3V86.21c-.57.22-1.14.42-1.73.59V96.87H36.12V87.24c-.38.08-.76.17-1.15.23h0l.23,20c1.57-.24,3.22-.47,4.93-.68l-.55-3.8,1.05-1.56V96.87a1,1,0,0,1-1-1v0a5.78,5.78,0,0,1,3.3-5.22A5.93,5.93,0,0,1,45.45,90H58.69a3.32,3.32,0,0,0,2.68-1.38L63,86.36,62,84.8h4.41A4.91,4.91,0,0,1,69.57,86l2.77,2.41a1.53,1.53,0,0,1,.54,1.32h0a1.48,1.48,0,0,1-1.47,1.32h-2.7L67,98.43A5.21,5.21,0,0,1,62,102.49l-1.59,2.82,1.52,0,.85-1.52h0a4.5,4.5,0,0,0,.64-.11l.3,1.59,2.67-.06h3.72Z"/><path class="cls-1" d="M36.12,79.71a3.46,3.46,0,0,1,3.46-3.46h8.31a15.36,15.36,0,0,0,2.19-7.85,15.52,15.52,0,0,0-2.86-8.9,1.28,1.28,0,0,1-.16-1.14A13.34,13.34,0,0,0,47.79,54a13.91,13.91,0,0,0-4.4-10,1.26,1.26,0,0,1-.32-1.3,10.13,10.13,0,0,0,.49-3.05c0-6-5.5-10.95-12.26-10.95S19.05,33.62,19.05,39.66a9.78,9.78,0,0,0,.49,3.05,1.26,1.26,0,0,1-.33,1.3,13.94,13.94,0,0,0-4.39,10,13.33,13.33,0,0,0,.72,4.33,1.28,1.28,0,0,1-.16,1.14,15.52,15.52,0,0,0-2.86,8.9c0,8.17,6.53,15,15.14,16.52l.12-9.78L20,66.68A2.52,2.52,0,0,1,20,63.17h0l1-1a2.52,2.52,0,0,1,3.51-.07l3.34,3.09L28,58.71l-5.62-6.17a2.54,2.54,0,0,1,.08-3.5l.67-.67a2.54,2.54,0,0,1,3.5-.08l1.47,1.34.08-7.29a3.17,3.17,0,0,1,3.15-3.11h0a3.16,3.16,0,0,1,3.15,3.11l.08,7.29L36,48.29a2.53,2.53,0,0,1,3.5.08l.67.67a2.53,2.53,0,0,1,.08,3.5l-5.61,6.17.07,6.47,3.34-3.09a2.52,2.52,0,0,1,3.51.07l1,1h0a2.52,2.52,0,0,1,.07,3.51l-7.81,8.46.11,9.78h0c.4-.07.79-.17,1.18-.26Z"/><path class="cls-1" d="M37.85,79.71v4.46c.59-.2,1.17-.42,1.73-.67V78A1.74,1.74,0,0,0,37.85,79.71Z"/><polygon class="cls-1" points="24.23 50.84 28.01 54.99 28.03 53.04 24.89 50.17 24.23 50.84"/><polygon class="cls-1" points="21.82 64.96 21.82 64.96 27.82 71.45 27.85 68.59 22.83 63.95 21.82 64.96"/><path class="cls-1" d="M97.83,106.45l2.6.29a3.54,3.54,0,0,0-2.66-5.9,3.4,3.4,0,0,0-1.49.35,7.5,7.5,0,0,1-1.09,5C96.08,106.27,97,106.35,97.83,106.45Z"/><path class="cls-1" d="M109.9,41.77a.61.61,0,0,0-.61.6l-.76,65.55c.93.16,1.84.33,2.71.51l-.73-66.06A.61.61,0,0,0,109.9,41.77Z"/><polygon class="cls-1" points="116.97 50.83 116.31 50.17 113.17 53.02 113.19 54.99 116.97 50.83 116.97 50.83"/><polygon class="cls-1" points="118.37 63.95 113.35 68.59 113.38 71.45 119.38 64.96 118.37 63.95"/><path class="cls-1" d="M125.82,59.5a1.28,1.28,0,0,1-.16-1.14,13.34,13.34,0,0,0,.73-4.33A14,14,0,0,0,122,44a1.26,1.26,0,0,1-.33-1.3,9.82,9.82,0,0,0,.49-3.05c0-6-5.49-10.95-12.25-10.95S97.64,33.62,97.64,39.66a9.79,9.79,0,0,0,.5,3.05,1.28,1.28,0,0,1-.33,1.3,14,14,0,0,0-4.4,10,13.34,13.34,0,0,0,.73,4.33A1.28,1.28,0,0,1,94,59.5a15.52,15.52,0,0,0-2.86,8.9c0,8.17,6.52,15,15.14,16.52h0l.11-9.78-7.81-8.46a2.52,2.52,0,0,1,.07-3.51l1-1a2.52,2.52,0,0,1,3.51-.07l3.34,3.09.07-6.47L101,52.54A2.53,2.53,0,0,1,101,49l.67-.67a2.53,2.53,0,0,1,3.5-.08l1.47,1.34.08-7.29a3.16,3.16,0,0,1,3.15-3.11h0a3.16,3.16,0,0,1,3.15,3.11l.08,7.29,1.47-1.34a2.53,2.53,0,0,1,3.5.08l.67.67a2.54,2.54,0,0,1,.08,3.5l-5.62,6.17.08,6.47,3.34-3.09a2.52,2.52,0,0,1,3.51.07l1,1h0a2.52,2.52,0,0,1,.07,3.51l-7.82,8.46.12,9.78c8.62-1.53,15.14-8.35,15.14-16.52A15.52,15.52,0,0,0,125.82,59.5Z"/><path class="cls-1" d="M89.36,105.73l2.74.2a4.18,4.18,0,0,0,.6-.59h0a5,5,0,0,0,.15-6.07l-.49.6a1.27,1.27,0,1,1-2-1.6l.5-.61a5.1,5.1,0,0,0-2-.46,4.95,4.95,0,0,0-3.68,8.29Q87.29,105.6,89.36,105.73Z"/><polygon class="cls-1" points="102.83 50.83 102.83 50.84 102.83 50.84 106.61 54.99 106.63 53.02 103.49 50.17 102.83 50.83"/><polygon class="cls-1" points="100.42 64.96 100.42 64.96 106.42 71.45 106.45 68.59 101.43 63.95 100.42 64.96"/><path class="cls-2" d="M131.21,68.4a17.94,17.94,0,0,0-3-9.82,15.62,15.62,0,0,0,.67-4.55,16.35,16.35,0,0,0-4.63-11.29,12,12,0,0,0,.4-3.08c0-7.44-6.64-13.49-14.79-13.49s-14.79,6-14.79,13.49a12.44,12.44,0,0,0,.39,3.08A16.38,16.38,0,0,0,90.88,54a16,16,0,0,0,.66,4.55,18,18,0,0,0-3,9.82c0,9.54,7.63,17.48,17.64,19.07h0l-.23,20c-.91-.14-1.84-.27-2.8-.4a6,6,0,0,0,.66-2.69,6.07,6.07,0,0,0-8.34-5.65,7.5,7.5,0,0,0-1-1.5l.57-.7a1.27,1.27,0,1,0-2-1.6l-.57.7a7.5,7.5,0,0,0-10.5,9.7l-2.37-.08c-1.64,0-3.3-.09-5-.11H72.46V94.35a6.54,6.54,0,0,0,4.61-3L81.55,84,85,84.9H87.8l1,.26A2,2,0,0,0,91,82h0l-4.74-7a1.4,1.4,0,0,0-1.62-.54l-.48-1.07a1.33,1.33,0,0,1,.73-1.77l3.68-1.44H83.78a2.52,2.52,0,0,0-2.31,3.51L82,74.88l-.32.06L80.23,74a2.79,2.79,0,0,0-1.53-.45H76.93l1.94,1.86-5,.83H50.76a17.71,17.71,0,0,0,1.85-7.85,18,18,0,0,0-3-9.82A16,16,0,0,0,50.32,54,16.34,16.34,0,0,0,45.7,42.74a12.44,12.44,0,0,0,.39-3.08c0-7.44-6.63-13.49-14.79-13.49s-14.79,6-14.79,13.49a12,12,0,0,0,.4,3.08A16.35,16.35,0,0,0,12.28,54,15.62,15.62,0,0,0,13,58.58a17.94,17.94,0,0,0-3,9.82c0,9.54,7.64,17.48,17.64,19.07L27.39,109c-4.52,1.06-8,2.32-10,3.72a1.27,1.27,0,0,0,1.43,2.09,12.45,12.45,0,0,1,1.92-1c4-1.8,11-3.33,19.76-4.4l.44,3h1.56v-3.24l3.21-.34.71,3.59H48l-.24-3.77c3.23-.28,6.61-.5,10.11-.66l.54,4.43h1.51v-4.5l2.44-.08,1.11,4.59H65l-.87-4.64c2.13,0,4.29-.07,6.46-.07,21.9,0,42,2.5,49.85,6.09a12.45,12.45,0,0,1,1.92,1,1.22,1.22,0,0,0,.71.22,1.27,1.27,0,0,0,.72-2.31c-2-1.4-5.47-2.66-10-3.72l-.24-21.53C123.57,85.88,131.21,77.94,131.21,68.4ZM39.58,83.5c-.56.25-1.14.47-1.73.67V79.71A1.74,1.74,0,0,1,39.58,78Zm-11.76-12-6-6.49h0l1-1,5,4.64ZM28,55l-3.78-4.16.67-.66L28,53Zm1.92,53.45.76-66.07a.61.61,0,0,1,1.22,0l.72,65.55C31.7,108.09,30.8,108.26,29.93,108.44ZM34.57,53l3.14-2.85.67.66h0L34.59,55Zm.18,15.57,5-4.64,1,1-6,6.49Zm.19,16.33-.11-9.78,7.81-8.46a2.52,2.52,0,0,0-.07-3.51h0l-1-1a2.52,2.52,0,0,0-3.51-.07l-3.34,3.09-.07-6.47,5.61-6.17a2.53,2.53,0,0,0-.08-3.5l-.67-.67a2.53,2.53,0,0,0-3.5-.08l-1.47,1.34-.08-7.29a3.16,3.16,0,0,0-3.15-3.11h0a3.17,3.17,0,0,0-3.15,3.11l-.08,7.29L26.6,48.29a2.54,2.54,0,0,0-3.5.08l-.67.67a2.54,2.54,0,0,0-.08,3.5L28,58.71l-.08,6.47-3.34-3.09a2.52,2.52,0,0,0-3.51.07l-1,1h0A2.52,2.52,0,0,0,20,66.68l7.82,8.46-.12,9.78c-8.61-1.53-15.14-8.35-15.14-16.52a15.52,15.52,0,0,1,2.86-8.9,1.28,1.28,0,0,0,.16-1.14A13.33,13.33,0,0,1,14.82,54a13.94,13.94,0,0,1,4.39-10,1.26,1.26,0,0,0,.33-1.3,9.78,9.78,0,0,1-.49-3.05c0-6,5.49-10.95,12.25-10.95s12.26,4.91,12.26,10.95a10.13,10.13,0,0,1-.49,3.05,1.26,1.26,0,0,0,.32,1.3,13.91,13.91,0,0,1,4.4,10,13.34,13.34,0,0,1-.73,4.33,1.28,1.28,0,0,0,.16,1.14,15.52,15.52,0,0,1,2.86,8.9,15.36,15.36,0,0,1-2.19,7.85H39.58a3.46,3.46,0,0,0-3.46,3.46v5c-.39.09-.78.19-1.18.26Zm12.65,21.16,3.19-2.29h-3l-2.68,2,.09.49-2.71.28v-.46l4.87-3.59H56l1.33,2.93h-.06Zm16.08-.86-.3-1.59a4.5,4.5,0,0,1-.64.11h0l-.85,1.52-1.52,0L62,102.49A5.21,5.21,0,0,0,67,98.43l1.68-7.38h2.7a1.48,1.48,0,0,0,1.47-1.32h0a1.53,1.53,0,0,0-.54-1.32L69.57,86a4.91,4.91,0,0,0-3.21-1.2H62l1,1.56-1.62,2.27A3.32,3.32,0,0,1,58.69,90H45.45a5.93,5.93,0,0,0-2.56.55,5.78,5.78,0,0,0-3.3,5.22v0a1,1,0,0,0,1,1v4.58L39.58,103l.55,3.8c-1.71.21-3.36.44-4.93.68l-.23-20h0c.39-.06.77-.15,1.15-.23v9.63h1.73V86.8c.59-.17,1.16-.37,1.73-.59V91.7a7.08,7.08,0,0,1,5.87-3H58.69a2,2,0,0,0,1.63-.84l1.09-1.53-.54-.82-1.35-2h6.84A6.19,6.19,0,0,1,70.42,85l2.78,2.42a2.83,2.83,0,0,1,1,2.45,2.79,2.79,0,0,1-2.76,2.45H69.75l-1.11,4.88.74,1.53.68,6.41H66.34Zm32.61-4a3.4,3.4,0,0,1,1.49-.35,3.54,3.54,0,0,1,2.66,5.9l-2.6-.29c-.87-.1-1.75-.18-2.64-.26A7.5,7.5,0,0,0,96.28,101.19ZM85,99a5,5,0,0,1,3.87-1.83,5.1,5.1,0,0,1,2,.46l-.5.61a1.27,1.27,0,1,0,2,1.6l.49-.6a5,5,0,0,1-.15,6.07h0a4.18,4.18,0,0,1-.6.59l-2.74-.2q-2.07-.14-4.2-.24A5,5,0,0,1,85,99Zm21.45-27.58-6-6.49h0l1-1,5,4.64ZM106.61,55l-3.79-4.15h0l.66-.66L106.63,53Zm1.92,52.93.76-65.55a.61.61,0,0,1,1.22,0l.73,66.06C110.37,108.25,109.46,108.08,108.53,107.92ZM113.17,53l3.14-2.85.66.66h0L113.19,55Zm.18,15.57,5-4.64,1,1-6,6.49Zm.19,16.33-.12-9.78,7.82-8.46a2.52,2.52,0,0,0-.07-3.51h0l-1-1a2.52,2.52,0,0,0-3.51-.07l-3.34,3.09-.08-6.47,5.62-6.17a2.54,2.54,0,0,0-.08-3.5l-.67-.67a2.53,2.53,0,0,0-3.5-.08l-1.47,1.34-.08-7.29a3.16,3.16,0,0,0-3.15-3.11h0a3.16,3.16,0,0,0-3.15,3.11l-.08,7.29-1.47-1.34a2.53,2.53,0,0,0-3.5.08L101,49a2.53,2.53,0,0,0-.08,3.5l5.61,6.17-.07,6.47-3.34-3.09a2.52,2.52,0,0,0-3.51.07l-1,1a2.52,2.52,0,0,0-.07,3.51l7.81,8.46-.11,9.78h0c-8.62-1.53-15.14-8.35-15.14-16.52A15.52,15.52,0,0,1,94,59.5a1.28,1.28,0,0,0,.16-1.14A13.34,13.34,0,0,1,93.41,54a14,14,0,0,1,4.4-10,1.28,1.28,0,0,0,.33-1.3,9.79,9.79,0,0,1-.5-3.05c0-6,5.5-10.95,12.26-10.95s12.25,4.91,12.25,10.95a9.82,9.82,0,0,1-.49,3.05A1.26,1.26,0,0,0,122,44a14,14,0,0,1,4.4,10,13.34,13.34,0,0,1-.73,4.33,1.28,1.28,0,0,0,.16,1.14,15.52,15.52,0,0,1,2.86,8.9C128.68,76.57,122.16,83.39,113.54,84.92Z"/></g></g></svg>