<svg xmlns="http://www.w3.org/2000/svg" viewBox="0 0 141.2 141.2"><defs><style>.cls-1{fill-rule:evenodd;}.cls-2{fill:none;}</style></defs><g id="Calque_2" data-name="Calque 2"><g id="Layer_1" data-name="Layer 1"><path class="cls-1" d="M97.54,93a3.36,3.36,0,0,1,1.26,4.71l3.34,5.79a1.59,1.59,0,1,1-2.76,1.59L96,99.3a3.36,3.36,0,0,1-2.47-5.73,4,4,0,0,1,.77-.58V82.29a1.6,1.6,0,0,1,3.2,0V93Zm-1.6-17.58A20.53,20.53,0,1,0,116.47,96,20.53,20.53,0,0,0,95.94,75.42Zm12.25,8.27a17.33,17.33,0,1,0,0,24.51A17.33,17.33,0,0,0,108.19,83.69ZM95.94,68.51a27.3,27.3,0,0,1,12.9,3.21A3.24,3.24,0,0,0,110.33,69h0V62.36a3.23,3.23,0,0,0-2.92-3.24l-7-.73h0A1.61,1.61,0,0,1,99,57.22a32.07,32.07,0,0,0-4-8.84,1.58,1.58,0,0,1,.11-1.86l4.66-5.74a3.23,3.23,0,0,0-.22-4.35L94.9,31.74a3.23,3.23,0,0,0-4.35-.22l-6.32,5.14a1.59,1.59,0,0,1-1.76.17,34.1,34.1,0,0,0-8.19-3.14,1.6,1.6,0,0,1-1.2-1.39l-.86-8.36A3.24,3.24,0,0,0,69,21H62.35a3.25,3.25,0,0,0-3.24,2.92l-.85,8.32a1.6,1.6,0,0,1-1.21,1.43,35.49,35.49,0,0,0-8.13,3.11,1.6,1.6,0,0,1-1.82-.13l-6.31-5.15a3.24,3.24,0,0,0-4.36.23l-4.68,4.68a3.23,3.23,0,0,0-.23,4.36l4.61,5.66a1.59,1.59,0,0,1,.16,1.93A32.93,32.93,0,0,0,34,52.67a32.23,32.23,0,0,0-1.62,4.47A1.6,1.6,0,0,1,31,58.39l-7,.73A3.24,3.24,0,0,0,21,62.36V69a3.25,3.25,0,0,0,2.92,3.24L31,73h0a1.6,1.6,0,0,1,1.37,1.17,32.54,32.54,0,0,0,4,8.84,1.6,1.6,0,0,1-.1,1.87l-4.66,5.73a3.24,3.24,0,0,0,.22,4.36l4.69,4.68a3.23,3.23,0,0,0,4.35.23l6.32-5.15a1.59,1.59,0,0,1,1.75-.17,34.42,34.42,0,0,0,8.19,3.14A1.61,1.61,0,0,1,58.26,99l.86,8.38a3.24,3.24,0,0,0,3.24,2.92H69a3.21,3.21,0,0,0,2.73-1.48,27.51,27.51,0,0,1-2.67-18.34C53.7,92.45,39.63,81,39.63,65.68c0-14.06,11.92-25.05,26-25.05,15.42,0,27.84,13,25.83,28.24a27.15,27.15,0,0,1,4.44-.36Zm15.76,5a6.43,6.43,0,0,0,1.82-4.5h0V62.36A6.42,6.42,0,0,0,107.73,56l-6-.61a35.28,35.28,0,0,0-3.42-7.68l3.94-4.85a6.44,6.44,0,0,0-.44-8.63L97.17,29.5a6.44,6.44,0,0,0-8.63-.44L83,33.54a39.27,39.27,0,0,0-6.88-2.65l-.75-7.27A6.43,6.43,0,0,0,69,17.83H62.36A6.43,6.43,0,0,0,56,23.62l-.75,7.27a39.37,39.37,0,0,0-6.89,2.65L42.8,29.05a6.44,6.44,0,0,0-8.63.44l-4.68,4.68a6.44,6.44,0,0,0-.44,8.63L33,47.65a35.53,35.53,0,0,0-3.43,7.68l-6,.61a6.43,6.43,0,0,0-5.79,6.41V69a6.43,6.43,0,0,0,5.79,6.41l6,.61A35.31,35.31,0,0,0,33,83.68l-3.95,4.85a6.44,6.44,0,0,0,.44,8.63l4.68,4.68a6.44,6.44,0,0,0,8.63.44l5.51-4.48a39.07,39.07,0,0,0,6.89,2.65l.74,7.27a6.44,6.44,0,0,0,6.42,5.79H69a6.46,6.46,0,0,0,4.5-1.82A27.44,27.44,0,1,0,111.7,73.48ZM69.94,87.15a23.52,23.52,0,0,1-20.45-6,21.22,21.22,0,0,1,0-30.87,23.6,23.6,0,0,1,32.36,0,21.27,21.27,0,0,1,6.29,19.39A27.48,27.48,0,0,0,74.38,79V66.92h2.74a2.89,2.89,0,0,0,2.21-4.75L67.87,48.6a2.88,2.88,0,0,0-4.4,0L52,62.18A2.78,2.78,0,0,0,51.35,64h0a2.89,2.89,0,0,0,2.89,2.89H57v14a2.88,2.88,0,0,0,2.89,2.88H71.35a28.66,28.66,0,0,0-1.41,3.38Zm43.14-8.35a24.24,24.24,0,1,0,0,34.28A24.25,24.25,0,0,0,113.08,78.8ZM60.17,66.6a2.89,2.89,0,0,0-2.89-2.88H54.9L65.67,50.94,76.45,63.72H74.07a2.88,2.88,0,0,0-2.89,2.88v14h-11v-14Z"/><rect class="cls-2" width="141.2" height="141.2" rx="70.6"/></g></g></svg>