<svg xmlns="http://www.w3.org/2000/svg" viewBox="0 0 141.2 141.2"><defs><style>.cls-1{fill:none;}.cls-2{}</style></defs><g id="Calque_2" data-name="Calque 2"><g id="Layer_1" data-name="Layer 1"><rect class="cls-1" width="141.2" height="141.2" rx="70.6"/><path class="cls-2" d="M110,32.08H105.3A18.07,18.07,0,0,0,88.13,44.66a27.25,27.25,0,0,0-17.92,0l1.28-17.93a2.36,2.36,0,0,0-2.35-2.52H59.7A2.43,2.43,0,0,0,58,25a2.47,2.47,0,0,0-.63,1.76l1.29,17.93A26.45,26.45,0,0,0,47,43.21,24.52,24.52,0,0,0,29.83,52a28.28,28.28,0,0,0-5.29,22c2.14,17.33,16,43,30.44,43h1a14,14,0,0,0,8.4-4.28,13.91,13.91,0,0,0,8.52,4.21c14.62,1.29,29.09-25.16,31.45-43.08a29.91,29.91,0,0,0-3.46-19.15,18.23,18.23,0,0,0,.6-4.53,3.93,3.93,0,0,1,3.77-3.93H110a7.08,7.08,0,0,0,0-14.15ZM66.59,28.93l-1.23,17.3H63.48l-1.23-17.3Zm33,44.34c-2.11,17.08-15.73,39.94-26.2,39a10.84,10.84,0,0,1-7.11-4.53,2.41,2.41,0,0,0-3.41-.23,2.61,2.61,0,0,0-.24.23,10.8,10.8,0,0,1-7.1,4.53c-10.51.88-24.09-21.86-26.2-39a23.85,23.85,0,0,1,4.28-18.39,19.62,19.62,0,0,1,13.9-7h2.2a21.26,21.26,0,0,1,9.94,2.43,2.32,2.32,0,0,0,1,.59,21.67,21.67,0,0,1,2.33,1.58,2.32,2.32,0,0,0,3,0,23.88,23.88,0,0,1,2.29-1.58,2,2,0,0,0,1.07-.63A21.88,21.88,0,0,1,81.37,48a21.29,21.29,0,0,1,5.88,1.35,6.91,6.91,0,0,0,0,.91,3.93,3.93,0,0,1-4,3.84H81.72a7.08,7.08,0,1,0,0,14.15H86A12.94,12.94,0,0,0,87.47,68L88,67.8a12.45,12.45,0,0,0,1.57-.5H90a18.17,18.17,0,0,0,8.34-6.7A27.41,27.41,0,0,1,99.55,73.27ZM110,41.51H105.3a8.65,8.65,0,0,0-8.65,8.65,14.26,14.26,0,0,1-.78,4h0a13.32,13.32,0,0,1-4.53,6.48,2.39,2.39,0,0,1-.35.28l-1.07.7-1,.53-1,.44L86.5,63l-.85.19a12.37,12.37,0,0,1-2.43.25H81.65a2.36,2.36,0,0,1,0-4.72h1.64a8.65,8.65,0,0,0,8.65-8.58,14.12,14.12,0,0,1,.22-2h0A13.34,13.34,0,0,1,105.3,36.79H110a2.36,2.36,0,0,1,0,4.72Z"/></g></g></svg>