<svg xmlns="http://www.w3.org/2000/svg" viewBox="0 0 141.2 141.2"><defs><style>.cls-1{fill:none;}.cls-2{}</style></defs><g id="Calque_2" data-name="Calque 2"><g id="Layer_1" data-name="Layer 1"><rect class="cls-1" width="141.2" height="141.2" rx="70.6"/><path class="cls-2" d="M92.17,97.43H79.41a11.1,11.1,0,0,0-8,3.37V88.05a6.57,6.57,0,0,1,1.92-4.66,4.06,4.06,0,0,1,5.72,0,4,4,0,0,1,0,5.72,1.68,1.68,0,0,1-.29.24.58.58,0,0,1-.74-.06.83.83,0,0,1-.31-.93,1.6,1.6,0,0,0-3-1,4,4,0,0,0,1.39,4.47,3.77,3.77,0,0,0,4.44.21,5,5,0,0,0,.8-.65A7.23,7.23,0,0,0,71.11,81.14a9.68,9.68,0,0,0-2.86,6.91v4.77a11.12,11.12,0,0,0-8-3.37H50.7a1.6,1.6,0,0,0-1.59,1.6,11.18,11.18,0,0,0,11.16,11.16h8v14.36a1.6,1.6,0,0,0,3.19,0v-3.19H82.6a11.18,11.18,0,0,0,11.17-11.17V99A1.6,1.6,0,0,0,92.17,97.43ZM60.27,99a8,8,0,0,1-7.81-6.38h7.81A8,8,0,0,1,68.09,99Zm30.31,3.19a8,8,0,0,1-8,8H71.44v-1.6a8,8,0,0,1,8-8H90.58Z"/><path class="cls-2" d="M103.34,81.48a6.38,6.38,0,1,0,6.38,6.38A6.38,6.38,0,0,0,103.34,81.48Zm0,9.57a3.19,3.19,0,1,1,3.19-3.19A3.19,3.19,0,0,1,103.34,91.05Z"/><path class="cls-2" d="M36.35,79.88a6.38,6.38,0,1,0,6.38,6.38A6.38,6.38,0,0,0,36.35,79.88Zm0,9.57a3.19,3.19,0,1,1,3.19-3.19A3.19,3.19,0,0,1,36.35,89.45Z"/><path class="cls-2" d="M76.22,70.31a6.38,6.38,0,1,0-6.38,6.38A6.38,6.38,0,0,0,76.22,70.31Zm-9.57,0a3.19,3.19,0,1,1,3.19,3.19A3.19,3.19,0,0,1,66.65,70.31Z"/><path class="cls-2" d="M22,49.58a1.61,1.61,0,0,0,.47,1.13L40.28,68.52a8,8,0,0,0,10.62.6A3.87,3.87,0,0,0,55,68.25l2.31-2.31a3.83,3.83,0,0,0,4.07-.88L63,63.47a3.85,3.85,0,0,0,1.12-2.73,4.08,4.08,0,0,0-.24-1.35l2.31-2.3a3.86,3.86,0,0,0,0-5.45l-8-8a7.91,7.91,0,0,0,4.55-2.22l.27-.27a1.61,1.61,0,0,0,0-2.26L50.24,26.12a1.61,1.61,0,0,0-1.13-.47H35.41l-2.72-2.72a1.59,1.59,0,0,0-1.13-.47h-8a1.59,1.59,0,0,0-1.13.47A1.61,1.61,0,0,0,22,24.06V49.58Zm41.94,5.25-2.06,2.06-10-10a1.59,1.59,0,0,0-2.26,2.25L60.74,60.28a.66.66,0,0,1,0,.93l-1.6,1.6a.67.67,0,0,1-.93,0h0l-9.77-9.68a1.61,1.61,0,0,0-2.26,0,1.58,1.58,0,0,0,0,2.25l8.63,8.55L52.76,66a.67.67,0,0,1-.93,0l-9.57-9.57A1.59,1.59,0,1,0,40,58.68L48.32,67a4.79,4.79,0,0,1-5.79-.73L25.18,48.92V34.29l4.2,4.2a14.39,14.39,0,0,0,19.71.57l2.35,2.35L63.93,53.9A.67.67,0,0,1,63.93,54.83Zm-33-29.18,2.73,2.73a1.57,1.57,0,0,0,1.12.46h13.7l11,11.06a4.89,4.89,0,0,1-5.8-.75l-3.46-3.46a1.59,1.59,0,0,0-2.26,0l-.54.54a10.19,10.19,0,0,1-.85.77l0,0a11.19,11.19,0,0,1-14,0L32.48,37a9.94,9.94,0,0,1-.84-.76l-6.46-6.45V25.65Z"/><path class="cls-2" d="M55.49,78.87a1.62,1.62,0,0,0,.7-.16,1.6,1.6,0,0,0,.73-2.14,15,15,0,0,1-.78-1.95,1.59,1.59,0,0,0-3,.95,18.43,18.43,0,0,0,.95,2.4A1.61,1.61,0,0,0,55.49,78.87Z"/><path class="cls-2" d="M64.58,87.05a1.61,1.61,0,0,0,.48.08A1.6,1.6,0,0,0,65.53,84a14.51,14.51,0,0,1-5.74-3.44,1.59,1.59,0,1,0-2.23,2.27A17.49,17.49,0,0,0,64.58,87.05Z"/><path class="cls-2" d="M83.5,78.71A1.59,1.59,0,0,0,85.63,78a17.58,17.58,0,0,0,.3-14.68A1.6,1.6,0,0,0,83,64.57a14.33,14.33,0,0,1-.24,12A1.61,1.61,0,0,0,83.5,78.71Z"/><path class="cls-2" d="M74.15,56.62A14.06,14.06,0,0,1,77,57.88a1.65,1.65,0,0,0,.8.21,1.59,1.59,0,0,0,.8-3,17.37,17.37,0,0,0-3.51-1.55,1.6,1.6,0,0,0-1,3Z"/><path class="cls-2" d="M90.91,74.77a21.47,21.47,0,0,1-.85,3,1.6,1.6,0,0,0,1,2.05,1.76,1.76,0,0,0,.55.09,1.6,1.6,0,0,0,1.5-1,26.59,26.59,0,0,0,1-3.41,1.6,1.6,0,0,0-3.13-.66Z"/><path class="cls-2" d="M92.47,67.12a1.84,1.84,0,0,0,.33,0A1.6,1.6,0,0,0,94,65.2,24.68,24.68,0,0,0,83.73,49.85a1.6,1.6,0,0,0-2.22.43,1.58,1.58,0,0,0,.42,2.21,21.39,21.39,0,0,1,9,13.37A1.6,1.6,0,0,0,92.47,67.12Z"/><path class="cls-2" d="M46.88,73.54a1.59,1.59,0,0,0-1.23,1.89,24.7,24.7,0,0,0,5.44,11,1.58,1.58,0,0,0,2.25.17,1.61,1.61,0,0,0,.17-2.25,21.48,21.48,0,0,1-4.74-9.57A1.6,1.6,0,0,0,46.88,73.54Z"/><path class="cls-2" d="M98.19,65.78a28.44,28.44,0,0,1,.36,4.53,29.18,29.18,0,0,1-.64,6,1.59,1.59,0,0,0,1.23,1.89,1.24,1.24,0,0,0,.33,0A1.59,1.59,0,0,0,101,77a32.22,32.22,0,0,0,.71-6.72,31.22,31.22,0,0,0-.4-5A1.58,1.58,0,0,0,99.52,64,1.6,1.6,0,0,0,98.19,65.78Z"/><path class="cls-2" d="M93.62,51.47a1.6,1.6,0,0,0-.37,2.22,29.35,29.35,0,0,1,2.64,4.54,1.59,1.59,0,0,0,1.45.92A1.63,1.63,0,0,0,98,59a1.59,1.59,0,0,0,.77-2.12,32.12,32.12,0,0,0-2.93-5A1.61,1.61,0,0,0,93.62,51.47Z"/><path class="cls-2" d="M74.38,42a28.31,28.31,0,0,1,10.94,4.18,1.61,1.61,0,0,0,.86.25,1.6,1.6,0,0,0,.87-2.94,31.53,31.53,0,0,0-12.17-4.64,1.59,1.59,0,1,0-.5,3.15Z"/><path class="cls-2" d="M39.5,70.31A1.6,1.6,0,0,0,38,72a32.17,32.17,0,0,0,.35,3.36,1.6,1.6,0,0,0,1.58,1.34,1.1,1.1,0,0,0,.25,0,1.58,1.58,0,0,0,1.32-1.82,28.63,28.63,0,0,1-.31-3A1.61,1.61,0,0,0,39.5,70.31Z"/><path class="cls-2" d="M87.39,96.62a1.63,1.63,0,0,0,.93-.3c.37-.27.74-.54,1.1-.82a1.6,1.6,0,1,0-2-2.52c-.33.25-.66.5-1,.74a1.6,1.6,0,0,0,.93,2.9Z"/><path class="cls-2" d="M69.84,32a1.6,1.6,0,0,0,1.6-1.59V24.06a1.6,1.6,0,1,0-3.19,0v6.38A1.59,1.59,0,0,0,69.84,32Z"/><path class="cls-2" d="M69.84,52.77a1.6,1.6,0,0,0,1.6-1.6V36.82a1.6,1.6,0,1,0-3.19,0V51.17A1.6,1.6,0,0,0,69.84,52.77Z"/><path class="cls-2" d="M69.84,60.74a1.6,1.6,0,0,0,1.6-1.6V57.55a1.6,1.6,0,1,0-3.19,0v1.59A1.59,1.59,0,0,0,69.84,60.74Z"/><path class="cls-2" d="M83.73,56.43a1.58,1.58,0,0,0-2.25,0l-4.79,4.78a1.61,1.61,0,0,0,0,2.26,1.59,1.59,0,0,0,1.13.46A1.61,1.61,0,0,0,79,63.47l4.78-4.79A1.59,1.59,0,0,0,83.73,56.43Z"/><path class="cls-2" d="M90.58,51.17a1.61,1.61,0,0,0,1.13-.46l6.38-6.38a1.6,1.6,0,1,0-2.26-2.26l-6.38,6.38a1.61,1.61,0,0,0,0,2.26A1.59,1.59,0,0,0,90.58,51.17Z"/><path class="cls-2" d="M101.74,40a1.6,1.6,0,0,0,1.13-.47l14.36-14.35A1.6,1.6,0,0,0,115,22.93L100.62,37.29a1.58,1.58,0,0,0,0,2.25A1.59,1.59,0,0,0,101.74,40Z"/><path class="cls-2" d="M116.1,68.72h-9.57a1.6,1.6,0,1,0,0,3.19h9.57a1.6,1.6,0,0,0,0-3.19Z"/><path class="cls-2" d="M97,70.31a1.6,1.6,0,0,0-1.6-1.59H90.58a1.6,1.6,0,1,0,0,3.19h4.78A1.6,1.6,0,0,0,97,70.31Z"/><path class="cls-2" d="M91.71,89.92a1.6,1.6,0,0,0-2.26,2.26L99,101.75a1.59,1.59,0,0,0,1.13.46,1.59,1.59,0,0,0,1.13-2.72Z"/><path class="cls-2" d="M110.85,109.06a1.6,1.6,0,0,0-2.26,2.26L115,117.7a1.59,1.59,0,0,0,1.13.46,1.59,1.59,0,0,0,1.13-2.72Z"/><path class="cls-2" d="M44.79,93.11,41.6,96.3a1.61,1.61,0,0,0,0,2.26,1.59,1.59,0,0,0,1.13.46,1.61,1.61,0,0,0,1.13-.46l3.19-3.19a1.6,1.6,0,0,0-2.26-2.26Z"/><path class="cls-2" d="M36.81,101.09,22.46,115.44a1.61,1.61,0,0,0,0,2.26,1.59,1.59,0,0,0,1.13.46,1.57,1.57,0,0,0,1.12-.46l14.36-14.36a1.59,1.59,0,0,0-2.26-2.25Z"/><path class="cls-2" d="M23.59,71.91H30a1.6,1.6,0,0,0,0-3.19H23.59a1.6,1.6,0,1,0,0,3.19Z"/><path class="cls-2" d="M60.27,70.31a1.59,1.59,0,0,0-1.6-1.59H57.08a1.6,1.6,0,1,0,0,3.19h1.59A1.6,1.6,0,0,0,60.27,70.31Z"/><path class="cls-2" d="M85.79,87.86a1.59,1.59,0,0,0,.61-.13,2.12,2.12,0,0,0,.53-.33,1.62,1.62,0,0,0,.46-1.14,1.71,1.71,0,0,0-.46-1.13,2.48,2.48,0,0,0-.26-.19,1,1,0,0,0-.27-.14,1.06,1.06,0,0,0-.3-.1,1.6,1.6,0,0,0-1.44.43,1.63,1.63,0,0,0,0,2.27A1.58,1.58,0,0,0,85.79,87.86Z"/><path class="cls-2" d="M105.54,103.94a1.51,1.51,0,0,0-.91-.1,1,1,0,0,0-.3.1.87.87,0,0,0-.27.14,1.74,1.74,0,0,0-.26.19,1.66,1.66,0,0,0-.46,1.13,1.62,1.62,0,0,0,.46,1.14,2,2,0,0,0,.53.33,1.47,1.47,0,0,0,1.21,0,2,2,0,0,0,.53-.33,1.62,1.62,0,0,0,.46-1.14,1.5,1.5,0,0,0-1-1.46Z"/></g></g></svg>