<svg xmlns="http://www.w3.org/2000/svg" viewBox="0 0 141.2 141.2"><defs><style>.cls-1{fill:none;}.cls-2{}</style></defs><g id="Calque_2" data-name="Calque 2"><g id="Layer_1" data-name="Layer 1"><rect class="cls-1" width="141.2" height="141.2" rx="70.6"/><circle class="cls-2" cx="83.1" cy="66.2" r="6.1"/><circle class="cls-2" cx="71.7" cy="72" r="5.4"/><circle class="cls-2" cx="59.6" cy="79.5" r="5.4"/><circle class="cls-2" cx="70" cy="83.8" r="4.9"/><circle class="cls-2" cx="80.6" cy="79.5" r="5.7"/><circle class="cls-2" cx="61.7" cy="91.2" r="5.1"/><circle class="cls-2" cx="77.1" cy="89.8" r="3.7"/><circle class="cls-2" cx="70.9" cy="97.5" r="4.9"/><path class="cls-2" d="M52.6,63.7a4.45,4.45,0,0,0,4.4-4,5.93,5.93,0,0,0,2.3.5A5.7,5.7,0,0,0,65,54.5a5.46,5.46,0,0,0-2.6-4.7A30.38,30.38,0,0,0,69,46.2a13.22,13.22,0,0,0,1.5,7.2,6,6,0,1,0,2-.3h-.1c-1.3-2.7-2.1-5.6-1.4-8.2a10.37,10.37,0,0,0,1,.4c.2,0,.3.1.5.1a14.77,14.77,0,0,0-.1,2.1,6.87,6.87,0,0,0,.5,2.4,3.71,3.71,0,0,0,1.7,2,3.12,3.12,0,0,0,2.3.2,5.24,5.24,0,0,0,1,1.1,7,7,0,0,0,2.3,1.1,10.68,10.68,0,0,0,2.5.3,9.3,9.3,0,0,1-2.4-.5,7.19,7.19,0,0,1-2.1-1.2,6.47,6.47,0,0,1-.8-.9,12.44,12.44,0,0,0,2-1h0a.1.1,0,0,0,.1-.1,1.61,1.61,0,0,0,.4-.7,2.49,2.49,0,0,0,.1-.8,2,2,0,0,0-.8-1.3,2.39,2.39,0,0,0-1.4-.5,2.35,2.35,0,0,0-.8.2c-.3.1-.4.4-.6.6h0a5.85,5.85,0,0,0-.2,1.3,5.07,5.07,0,0,0,.2,1.3c0,.1.1.1.1.2a2.2,2.2,0,0,1-1.4-.2,2.29,2.29,0,0,1-1.2-1.5,5.22,5.22,0,0,1-.4-2.1,10.87,10.87,0,0,1,.1-1.8,11,11,0,0,0,1.8.2,3.42,3.42,0,0,0,1.7-.3,1.14,1.14,0,0,0,.7-.8,1.55,1.55,0,0,0-.1-1h0a3.59,3.59,0,0,0-.7-1,9,9,0,0,0-1-.9,1.59,1.59,0,0,0-1.5,0,2,2,0,0,0-1,1,5.84,5.84,0,0,0-.8,2.2c-.1,0-.3-.1-.4-.1-.3-.1-.7-.2-1-.3.1-.2.1-.4.2-.6a7.76,7.76,0,0,0,1.8-5.9c-.1-.7-2-.3-1.9.5a6.85,6.85,0,0,1-.6,3.6,13,13,0,0,0-1,1.5c0,.1-.1.1-.1.2a.54.54,0,0,0-.4-.3,7.78,7.78,0,0,1-2.4-2,6.34,6.34,0,0,0,2.3,2.3c.1.1.2.1.3.2-2.1,2.3-5.5,3.9-8.4,5.1a5.08,5.08,0,0,0-1.7-.3,5.7,5.7,0,0,0-5.7,5.7V55a3.75,3.75,0,0,0-1.1-.1,4.46,4.46,0,0,0-4.5,4.4A4.53,4.53,0,0,0,52.6,63.7ZM77.1,48.5a.75.75,0,0,1,.7-.4,1.49,1.49,0,0,1,.9.4,1,1,0,0,1,.5.8,1.33,1.33,0,0,1-.3.8,7.57,7.57,0,0,1-1.8.9.35.35,0,0,0-.1-.2A4.54,4.54,0,0,1,77.1,48.5Zm-2.8-5.4a4.35,4.35,0,0,1,.6-.7.85.85,0,0,1,.7,0c.3.1.5.4.8.6l.6.9a1.09,1.09,0,0,1,.1.5.54.54,0,0,1-.3.4,3.19,3.19,0,0,1-1.4.3,10.87,10.87,0,0,1-1.8-.1A10.66,10.66,0,0,1,74.3,43.1Z"/><path class="cls-2" d="M57.9,71.3a5.3,5.3,0,0,0,2.8.7A5.7,5.7,0,1,0,55,65.7a4.75,4.75,0,0,0-2.4-.6,5.4,5.4,0,1,0,0,10.8A5.57,5.57,0,0,0,57.9,71.3Z"/><path class="cls-2" d="M69.3,30.4C52.6,30.4,39,48.2,39,70s13.6,39.5,30.3,39.5S99.6,91.8,99.6,70,86,30.4,69.3,30.4Zm0,75.5c-14.7,0-26.7-16.1-26.7-35.9s12-36,26.7-36S96,50.1,96,70,84,105.9,69.3,105.9Z"/><polygon class="cls-2" points="95.6 33.7 100.6 29.7 97.7 26.1 92.7 30.2 90.9 28 88.8 36.5 97.4 35.9 95.6 33.7"/><polygon class="cls-2" points="42 35.9 50.6 36.5 48.4 28 46.6 30.2 41.7 26.1 38.8 29.7 43.7 33.7 42 35.9"/><polygon class="cls-2" points="94.3 105.3 85.7 104.7 87.9 113.2 89.6 111 94.6 115.1 97.5 111.5 92.6 107.5 94.3 105.3"/><polygon class="cls-2" points="45 107.5 40.1 111.5 43 115.1 48 111 49.7 113.2 51.9 104.7 43.3 105.3 45 107.5"/><polygon class="cls-2" points="107.1 65.7 107.1 62.8 99.7 68.3 107.1 73.5 107.1 70.6 113.9 70.6 113.9 65.7 107.1 65.7"/><polygon class="cls-2" points="32.5 66.3 27.3 66.3 27.3 70 32.5 70 32.5 72.3 38.3 68.2 32.5 64 32.5 66.3"/></g></g></svg>