<svg xmlns="http://www.w3.org/2000/svg" viewBox="0 0 141.2 141.2"><defs><style>.cls-1{fill:none;}.cls-2{}</style></defs><g id="Calque_2" data-name="Calque 2"><g id="Layer_1" data-name="Layer 1"><rect class="cls-1" width="141.2" height="141.2" rx="70.6"/><path class="cls-2" d="M70.6,126.36A55.76,55.76,0,1,1,126.36,70.6,55.75,55.75,0,0,1,70.6,126.36Zm0-108A52.28,52.28,0,1,0,122.88,70.6,52.28,52.28,0,0,0,70.6,18.32Z"/><path class="cls-2" d="M28.78,98.48a1.62,1.62,0,0,1-1-.29L22.59,94.7a1.74,1.74,0,0,1,1.65-3.07,2.11,2.11,0,0,1,.27.18l5.22,3.48a1.74,1.74,0,0,1-.95,3.19Z"/><path class="cls-2" d="M44.46,98.48a1.64,1.64,0,0,1-1-.29l-4.27-2.84L35,98.19a1.74,1.74,0,1,1-2.18-2.72,1.27,1.27,0,0,1,.27-.18l5.22-3.48a1.76,1.76,0,0,1,1.92,0l5.23,3.48a1.74,1.74,0,0,1,.47,2.42A1.71,1.71,0,0,1,44.46,98.48Z"/><path class="cls-2" d="M60.14,98.48a1.61,1.61,0,0,1-1-.29l-4.27-2.84-4.27,2.84a1.75,1.75,0,0,1-1.92-2.9L54,91.81a1.74,1.74,0,0,1,1.91,0l5.23,3.48a1.75,1.75,0,0,1,.48,2.42A1.73,1.73,0,0,1,60.14,98.48Z"/><path class="cls-2" d="M75.83,98.48a1.64,1.64,0,0,1-1-.29L70.6,95.35l-4.27,2.84a1.75,1.75,0,0,1-1.92-2.9l5.23-3.48a1.76,1.76,0,0,1,1.92,0l5.23,3.48a1.74,1.74,0,0,1-1,3.19Z"/><path class="cls-2" d="M91.51,98.48a1.64,1.64,0,0,1-1-.29l-4.27-2.84L82,98.19a1.74,1.74,0,0,1-2.18-2.72,1.27,1.27,0,0,1,.27-.18l5.23-3.48a1.74,1.74,0,0,1,1.91,0l5.23,3.48a1.74,1.74,0,0,1,.47,2.42A1.71,1.71,0,0,1,91.51,98.48Z"/><path class="cls-2" d="M107.2,98.48a1.62,1.62,0,0,1-1-.29L102,95.35,97.7,98.19a1.75,1.75,0,0,1-2.19-2.72,2.11,2.11,0,0,1,.27-.18L101,91.81a1.76,1.76,0,0,1,1.92,0l5.22,3.48a1.74,1.74,0,0,1-1,3.19Z"/><path class="cls-2" d="M112.42,98.48a1.74,1.74,0,0,1-1-3.19l5.22-3.48a1.74,1.74,0,0,1,1.92,2.89l-5.23,3.49A1.62,1.62,0,0,1,112.42,98.48Z"/><path class="cls-2" d="M78.67,78.15a20.4,20.4,0,0,1-8.33-2,1.74,1.74,0,0,1-.87-2c0-.32,2.3-7.69,8.14-10.2h0a13.31,13.31,0,0,1,8-.8,18.37,18.37,0,0,0,5.49.11,1.75,1.75,0,0,1,1.86,2.4c-.16.38-3.87,9.24-9.6,11.69A12,12,0,0,1,78.67,78.15Zm-5.32-4.54a12.18,12.18,0,0,0,8.61.44c2.63-1.13,5-4.57,6.48-7.21a28.47,28.47,0,0,1-3.32-.32,9.8,9.8,0,0,0-6.14.56h0A12.4,12.4,0,0,0,73.35,73.61Z"/><path class="cls-2" d="M68.51,66.52a1.83,1.83,0,0,1-.73-.15c-.23-.11-5.65-2.65-7-7.46S63,49.2,63.18,49a1.74,1.74,0,0,1,2.19-.58c.25.11,5.67,2.65,7,7.48S70.15,65.6,70,65.81A1.72,1.72,0,0,1,68.51,66.52ZM65.25,52.39a8.44,8.44,0,0,0-1,5.63,8.45,8.45,0,0,0,3.64,4.39,8.44,8.44,0,0,0,1-5.63h0A8.44,8.44,0,0,0,65.25,52.39Z"/><path class="cls-2" d="M57,80.39A9,9,0,0,1,51.88,79c-3.36-2.39-3.74-7.29-3.76-7.5a1.74,1.74,0,0,1,1.29-1.74c.19,0,5-1.32,8.31,1.06h0c3.37,2.37,3.75,7.27,3.77,7.48A1.75,1.75,0,0,1,60.2,80,13.65,13.65,0,0,1,57,80.39ZM51.9,72.78a6.08,6.08,0,0,0,2,3.33,6,6,0,0,0,3.79.78,6,6,0,0,0-2-3.33A5.87,5.87,0,0,0,51.9,72.78Z"/><path class="cls-2" d="M67.11,95a1.76,1.76,0,0,1-1.55-1c-.28-.52-6.53-13.18.82-26.14a1.74,1.74,0,0,1,3.09,1.61s0,.09-.07.13C63,80.88,68.61,92.3,68.67,92.3a1.74,1.74,0,0,1-.77,2.33A1.65,1.65,0,0,1,67.11,95Z"/><path class="cls-2" d="M33.76,67.11a1.75,1.75,0,0,1-1.24-3L69.36,27.54a1.73,1.73,0,0,1,2.44,0l36.84,36.59a1.75,1.75,0,1,1-2.46,2.48h0L70.6,31.23,35,66.61A1.71,1.71,0,0,1,33.76,67.11Z"/><path class="cls-2" d="M41,95a1.74,1.74,0,0,1-1.74-1.75V58.4a1.75,1.75,0,0,1,3.49,0V93.25A1.75,1.75,0,0,1,41,95Z"/><path class="cls-2" d="M100.22,95a1.74,1.74,0,0,1-1.74-1.75V58.4a1.75,1.75,0,0,1,3.49,0V93.25A1.75,1.75,0,0,1,100.22,95Z"/><path class="cls-2" d="M74.09,49.69a1.75,1.75,0,0,1-1.25-3h0l3.48-3.49a1.75,1.75,0,0,1,2.48,2.48l-3.49,3.48A1.73,1.73,0,0,1,74.09,49.69Z"/><path class="cls-2" d="M79.31,60.14a1.71,1.71,0,0,1-1.23-.5,1.74,1.74,0,0,1,0-2.47h0l5.22-5.22a1.75,1.75,0,0,1,2.48,2.47h0l-5.23,5.23A1.73,1.73,0,0,1,79.31,60.14Z"/><path class="cls-2" d="M68.86,42.72a1.75,1.75,0,0,1-1.25-3h0l3.49-3.49a1.75,1.75,0,1,1,2.47,2.48h0l-3.49,3.48A1.72,1.72,0,0,1,68.86,42.72Z"/></g></g></svg>