<svg xmlns="http://www.w3.org/2000/svg" viewBox="0 0 141.2 141.2"><defs><style>.cls-1{}.cls-2{fill:none;}</style></defs><g id="Calque_2" data-name="Calque 2"><g id="Layer_1" data-name="Layer 1"><path class="cls-1" d="M56.78,47.07h0c-4.9-2.21-7.52-7.41-8.17-8.85,1.52-.45,7.24-1.89,12.15.33S68.28,46,68.93,47.4c-1.52.46-7.24,1.89-12.15-.33Zm15.75,11.5-.56.08,0,0h-.07c.06-.51.12-1,.16-1.54l.27,0a.73.73,0,0,1,.55.14.75.75,0,0,1,.3.49.76.76,0,0,1-.62.85Zm-3.48-24,.31-.07a.82.82,0,0,1,.63.14.76.76,0,0,1,.33.54c.46,3.33,1.88,14.83.78,23.66q-.64.12-1.29.27c1.07-8.94-.83-20.25-1.44-23.53a.87.87,0,0,1,.68-1ZM69,59.26a.73.73,0,0,1-.56-.16,1,1,0,0,1-.39-.58.78.78,0,0,1,.13-.56.77.77,0,0,1,.49-.3l.56-.08c0,.57-.1,1.13-.17,1.68H69ZM46,78.48c0-14.53,9-24.35,23.42-25.73,0,1.36,0,2.72-.12,4l-.73.11a1.5,1.5,0,0,0-1.25,1.72,1.64,1.64,0,0,0,.59,1c-8.16,2.47-16,8.71-16,20.06,0,9.38,3.71,17.67,9.36,22.72C51.18,100.4,46,89.1,46,78.48Zm28,28.26c-11.76,0-21.33-12.15-21.33-27.08,0-13,10.71-19,19.89-20.31h0l.17,0a1.52,1.52,0,0,0,1-.6,1.54,1.54,0,0,0,.27-1.12,1.48,1.48,0,0,0-.6-1,1.51,1.51,0,0,0-1.12-.28l-.09,0c.09-1.2.14-2.41.16-3.64,12.91.09,23,11.89,23,26.94s-9.57,27.08-21.34,27.08Z"/><rect class="cls-2" width="141.2" height="141.2" rx="70.6"/></g></g></svg>