<svg xmlns="http://www.w3.org/2000/svg" viewBox="0 0 141.2 141.2"><defs><style>.cls-1{}.cls-2{fill:none;}</style></defs><g id="Calque_2" data-name="Calque 2"><g id="Layer_1" data-name="Layer 1"><path class="cls-1" d="M97.57,42.46a6.8,6.8,0,0,0-9.23-1,6.12,6.12,0,0,0-1.21-.2,6.8,6.8,0,0,0-6.66,4l-.52,0a6.78,6.78,0,0,0-7.25,6.3,6.54,6.54,0,0,0,0,1.4,6.85,6.85,0,0,0-4,5.72A6.65,6.65,0,0,0,69,61h-.11a6.79,6.79,0,0,0-6,3.58l-.49,0a6.79,6.79,0,0,0-7.25,6.3,6.69,6.69,0,0,0,.15,2,6.78,6.78,0,0,0-1.65,10.3,102.63,102.63,0,0,0-11.42,15,1.9,1.9,0,0,0,.63,2.62,1.84,1.84,0,0,0,1,.29,1.93,1.93,0,0,0,1.63-.91A98.24,98.24,0,0,1,56.58,85.59a6.83,6.83,0,0,0,5.5,3.57l.49,0a6.79,6.79,0,0,0,6-3.64l.18,0h.49A6.8,6.8,0,0,0,76,79.28a6.8,6.8,0,0,0,4.18-5.8,6.65,6.65,0,0,0,0-1.48,6.85,6.85,0,0,0,3-3.16l.34,0a6.79,6.79,0,0,0,7.25-6.3,6,6,0,0,0,0-1,4.66,4.66,0,0,0,.64.08l.48,0a6.78,6.78,0,0,0,5.77-10.37,6.8,6.8,0,0,0-.08-8.8Zm-2.16,4.67A3,3,0,0,1,94,49.45a1.93,1.93,0,0,0-.9,1.49,1.89,1.89,0,0,0,.69,1.6A3,3,0,0,1,94.85,55a3,3,0,0,1-5.32,1.62A1.9,1.9,0,0,0,88,55.92h0a1.9,1.9,0,0,0-1.5.73,4.37,4.37,0,0,1-.42.44,1.9,1.9,0,0,0-.67,1.4,1.88,1.88,0,0,0,.6,1.44,3,3,0,0,1-2.25,5.13,2.88,2.88,0,0,1-1.08-.28A1.91,1.91,0,0,0,80,66.29a3,3,0,0,1-2.48,2.62,1.91,1.91,0,0,0-1.41,2.75A3,3,0,0,1,73.8,76a1.94,1.94,0,0,0-1.31.78,1.9,1.9,0,0,0-.33,1.48,2.93,2.93,0,0,1,0,.78A3,3,0,0,1,69,81.75a2.94,2.94,0,0,1-.93-.22,1.91,1.91,0,0,0-2.62,1.41,3,3,0,0,1-3.13,2.41A3,3,0,0,1,59.66,83a2.15,2.15,0,0,0-.19-.5,102.72,102.72,0,0,1,8.07-7.37,1.9,1.9,0,0,0-2.41-3,105.69,105.69,0,0,0-8.82,8.09,3,3,0,0,1,1.87-4.56,1.89,1.89,0,0,0,1.23-2.87A3,3,0,0,1,59,71.09a3,3,0,0,1,3-2.77h.21a3,3,0,0,1,1.1.3,1.92,1.92,0,0,0,1.7,0,1.89,1.89,0,0,0,1-1.37A3,3,0,0,1,71,65.71,1.9,1.9,0,0,0,74.2,65a3.32,3.32,0,0,1,.34-.68A1.9,1.9,0,0,0,74,61.64a3,3,0,0,1,1.33-5.5,1.9,1.9,0,0,0,1.54-2.78,3,3,0,0,1-.32-1.59,2.91,2.91,0,0,1,1-2A3,3,0,0,1,79.68,49a2.92,2.92,0,0,1,1.2.34,1.9,1.9,0,0,0,2.8-1.53,3,3,0,0,1,3.18-2.72A2.81,2.81,0,0,1,88,45.4,1.91,1.91,0,0,0,90.21,45a3,3,0,0,1,5.2,2.18Z"/><rect class="cls-2" width="141.2" height="141.2" rx="70.6"/></g></g></svg>