<svg xmlns="http://www.w3.org/2000/svg" viewBox="0 0 141.2 141.2"><defs><style>.cls-1{}.cls-2{fill:none;}</style></defs><g id="Calque_2" data-name="Calque 2"><g id="Layer_1" data-name="Layer 1"><path class="cls-1" d="M62,107.71c3.33,1.16,5.71,3.53,6.36,6.35l.23,1a1.77,1.77,0,0,0,1.73,1.35h0a1.76,1.76,0,0,0,1.75-1.28l.33-1.19a9.4,9.4,0,0,1,6.41-6.08c9-2.94,15.06-10.52,15.06-18.87a18.72,18.72,0,0,0-6.08-13.6,24.66,24.66,0,0,0-15.13-6.45,53.75,53.75,0,0,1,1.12-9.17A6.55,6.55,0,0,0,85.25,57a5.81,5.81,0,0,0,.13-1A8.06,8.06,0,0,0,90,46.16,7.12,7.12,0,0,0,93.28,42a7.23,7.23,0,0,0-2.07-7.38,7,7,0,0,0,.51-1.24,6.67,6.67,0,0,0-4.49-8.29,6.69,6.69,0,0,0-7.92,3.52,7.19,7.19,0,0,0-8.65,8.55,8.13,8.13,0,0,0-3.82,3.12,5.84,5.84,0,0,0-6.73-2.14,5.45,5.45,0,0,0-6.73-1.79,5.47,5.47,0,0,0-2.69,7.25,4.13,4.13,0,0,0,.45.79,5.91,5.91,0,0,0-.71,6.06,5.81,5.81,0,0,0,3,2.93A6.52,6.52,0,0,0,54,57a6.58,6.58,0,0,0,4.16,3.58,5,5,0,0,0,.19.66,5.4,5.4,0,0,0,5.05,3.51,5.49,5.49,0,0,0,1.86-.33,5.36,5.36,0,0,0,2.52-2,40.53,40.53,0,0,1,1.71,6.45h-.32c-11.39.61-20.72,8.48-21.7,18.32-.9,9,4.94,17.2,14.53,20.52Zm8.76-43.57c-.25-.87-.55-1.85-.93-2.9a5.05,5.05,0,0,0,1.32-.3.47.47,0,0,1,.1,0c-.21,1.19-.37,2.28-.49,3.25ZM72.34,39a1.15,1.15,0,0,0,.77-.59,1.11,1.11,0,0,0,0-1,4.9,4.9,0,0,1,5.92-6.56,4.24,4.24,0,0,1,.5.18,1.22,1.22,0,0,0,1-.09,1.3,1.3,0,0,0,.62-.78,4.38,4.38,0,0,1,5.44-2.95,4.35,4.35,0,0,1,2.19,6.89,1.14,1.14,0,0,0-.22.89,1.11,1.11,0,0,0,.5.77,4.93,4.93,0,0,1,2,5.51,4.85,4.85,0,0,1-3,3.18,1.15,1.15,0,0,0-.63,1.57,5.78,5.78,0,0,1-3.57,8,1.14,1.14,0,0,0-.81,1.19,4.28,4.28,0,0,1-5.15,4.5,4.24,4.24,0,0,1-3.21-3.12,1.11,1.11,0,0,0-.15-.31,64.35,64.35,0,0,1,9.8-21.13,1.14,1.14,0,1,0-1.86-1.33,66.47,66.47,0,0,0-9.23,18.49,5.88,5.88,0,0,0-.66-.66,6.57,6.57,0,0,0-4.71-7.82,4.42,4.42,0,0,0,0-.63,1.08,1.08,0,0,0,.14-.26,5.8,5.8,0,0,1,4.29-4ZM66.41,59.65a3.08,3.08,0,0,1-6,.74,3.28,3.28,0,0,1-.18-.88,1.16,1.16,0,0,0-1-1.07,4.29,4.29,0,0,1-3.46-5.51,1.12,1.12,0,0,0-.1-.91,1.15,1.15,0,0,0-.74-.55,3.53,3.53,0,0,1-2.49-2,3.61,3.61,0,0,1,.91-4.2,1.15,1.15,0,0,0,.39-.83,1.17,1.17,0,0,0-.35-.86,3.09,3.09,0,0,1-.69-1,3.17,3.17,0,0,1,2.88-4.5,3.22,3.22,0,0,1,2.93,1.93,1.16,1.16,0,0,0,1.64.53l.34-.18a3.59,3.59,0,0,1,5,4.15,1.13,1.13,0,0,0,1,1.42,4.29,4.29,0,0,1,3.67,5.82,1.15,1.15,0,0,0,.52,1.41,3.13,3.13,0,0,1,1.4,1.62,2.87,2.87,0,0,1,.17,1c-.14.54-.26,1.06-.39,1.58a3.05,3.05,0,0,1-1.61,1.4,3.13,3.13,0,0,1-1.39.15A52.82,52.82,0,0,0,58.29,42.51a1.15,1.15,0,1,0-1.66,1.58,50.8,50.8,0,0,1,9.91,15.2,1,1,0,0,0-.13.36ZM49.7,87.42C50.57,78.69,59,71.7,69.25,71.15c.45,0,.89,0,1.34,0a22.66,22.66,0,0,1,15.62,5.93A16.44,16.44,0,0,1,91.58,89c0,7.35-5.42,14.06-13.48,16.69a11.83,11.83,0,0,0-7.76,7.14,11.75,11.75,0,0,0-7.64-7.28c-8.57-3-13.79-10.25-13-18.12Z"/><path class="cls-1" d="M69.64,76.74a16.21,16.21,0,0,1,12,4.18,11.59,11.59,0,0,1,3.78,8.41,1.15,1.15,0,0,0,2.3,0,13.83,13.83,0,0,0-4.51-10.07,18.52,18.52,0,0,0-13.73-4.81,1.15,1.15,0,0,0,.12,2.29Z"/><rect class="cls-2" width="141.2" height="141.2" rx="70.6"/></g></g></svg>