<svg xmlns="http://www.w3.org/2000/svg" viewBox="0 0 141.2 141.2"><defs><style>.cls-1{}.cls-2{fill:none;}</style></defs><g id="Calque_2" data-name="Calque 2"><g id="Layer_1" data-name="Layer 1"><path class="cls-1" d="M114.52,112.57H110a14,14,0,0,1,2.16-8.38c1.82-3.26,4.3-7.73,5.94-21.81a1.32,1.32,0,0,0-2.42-.87c-2.46,3.87-5.76,6.7-9.25,9.68-1.8,1.54-3.63,3.12-5.41,4.88a47.79,47.79,0,0,1,9.72-14.27,1.31,1.31,0,0,0,.25-1.47,1.34,1.34,0,0,0-1.29-.76,36.75,36.75,0,0,0-8.26,1.65c.61-5.06,2.28-12.69,10.17-19a1.32,1.32,0,0,0-1.2-2.29,46.33,46.33,0,0,0-12.92,6.2A83.63,83.63,0,0,0,97,53.52l5.12-6.25a1.32,1.32,0,0,0-2-1.67L96.56,50q-.39-2.49-1-4.92l3.29-5a1.31,1.31,0,0,0-.37-1.82,1.33,1.33,0,0,0-1.83.37l-2,3c-.42-1.46-.88-2.9-1.39-4.33l2.52-5.45a1.32,1.32,0,1,0-2.39-1.1L92,33.86c-.54-1.3-1.11-2.57-1.73-3.84a1.32,1.32,0,1,0-2.37,1.16q1.08,2.22,2,4.49l-3-.33A1.32,1.32,0,1,0,86.58,38l4.36.48c.52,1.49,1,3,1.42,4.51l-2.87-.76a1.32,1.32,0,1,0-.68,2.55l4.28,1.14c.39,1.72.73,3.47,1,5.25L89.7,49.48a1.32,1.32,0,0,0-.94,2.46l5.69,2.15a81.91,81.91,0,0,1,.26,14s0,.05,0,.08c-1.27,1-2.55,2-3.86,3.15a37.24,37.24,0,0,0-2.19-17.15,1.32,1.32,0,0,0-1.27-.88,1.33,1.33,0,0,0-1.23.92,67.53,67.53,0,0,1-7.39,15.38c-2.28,3.79-4.24,7.1-5.19,10.87a40.16,40.16,0,0,1-5.39,3.15c1.72-7.6,3.08-14.46,1.55-25.19a1.33,1.33,0,0,0-1.23-1.13,1.31,1.31,0,0,0-1.35,1c-2.63,9.82-7.58,19.52-11.48,26.26q.77-7.87,2.39-16.69A1.32,1.32,0,0,0,56,66.55a31.32,31.32,0,0,0-4.8,4.88c1.69-9.17,4.15-16.75,7.64-23.14l6.75,1.1h.21A1.31,1.31,0,0,0,66,46.79l-5.74-.94a50.68,50.68,0,0,1,3.51-5l7.06,2a1.18,1.18,0,0,0,.37.05,1.31,1.31,0,0,0,.36-2.58l-5.92-1.71q1.58-1.77,3.33-3.4l4.5,1.3a1.12,1.12,0,0,0,.36,0A1.32,1.32,0,0,0,74.17,34L71.3,33.2a63,63,0,0,1,5.2-3.84A1.32,1.32,0,0,0,75,27.16c-1.79,1.19-3.46,2.44-5.06,3.75l-.16-3.66a1.32,1.32,0,1,0-2.63.11l.25,5.76c-.88.81-1.73,1.64-2.54,2.49l-.26-5.86a1.32,1.32,0,1,0-2.63.12l.37,8.57a52.87,52.87,0,0,0-3.52,4.74l-1-6.11A1.31,1.31,0,0,0,56.34,36a1.32,1.32,0,0,0-1.09,1.52l1.51,9.15c-.3.54-.62,1.06-.91,1.61-3.93,7.59-6.54,16.57-8.2,28.23-.28.47-.56,1-.84,1.45A61.43,61.43,0,0,0,35.87,50.5a1.32,1.32,0,0,0-1.64-.44,1.33,1.33,0,0,0-.72,1.54c2.34,8.59,2.6,19.08.77,26.57a86.88,86.88,0,0,0-8.92-9.56,1.32,1.32,0,0,0-2.1,1.52c6.64,14.43,9.64,28.7,8.94,42.45H28.75a1.32,1.32,0,1,0,0,2.64h85.78a1.32,1.32,0,0,0,0-2.64ZM108.09,93.2A69.51,69.51,0,0,0,114.77,87c-1.52,9.77-3.48,13.28-5,15.94a16.5,16.5,0,0,0-2.49,9.67h-9a34.15,34.15,0,0,1,.66-10.2,57,57,0,0,1,9.14-9.17Zm-11.65,8.27a1.33,1.33,0,0,0,0,.19,36.52,36.52,0,0,0-.75,10.91H85.31a69.37,69.37,0,0,1,.37-17.07,32.7,32.7,0,0,1,14.56-11.08.64.64,0,0,0,.19-.08,34.54,34.54,0,0,1,5.92-1.67,43.88,43.88,0,0,0-9.91,18.8Zm8.84-36.75a27.62,27.62,0,0,0-4.41,7.48,37.76,37.76,0,0,0-2.25,10,35.62,35.62,0,0,0-12,8.12c.55-2.56,1.17-5,1.77-7.25.68-2.63,1.34-5.15,1.83-7.68a58.29,58.29,0,0,1,15.07-10.69ZM81,70.91a79.44,79.44,0,0,0,6.3-12.14c2.3,9.06.52,15.89-1.51,23.66-2.07,7.93-4.39,16.9-3.16,30.14h-9c-.92-6,1.43-11.95,4.61-20a185.53,185.53,0,0,0,6.46-18.33,1.32,1.32,0,0,0-2.2-1.3c-1.73,1.7-3.44,3.23-5.13,4.61A64.63,64.63,0,0,1,81,70.91ZM67.47,86.79a42.82,42.82,0,0,0,8-4.42l0,0a62,62,0,0,0,5.26-4.14c-1.66,5.12-3.38,9.48-5,13.42-3.27,8.27-5.7,14.41-4.81,21H64.43a111,111,0,0,1,3-25.78Zm.26-21.58c.27,7.34-1,12.86-2.39,19a117.12,117.12,0,0,0-3.55,28.32H55.92a109.13,109.13,0,0,1-.72-22.18A136.24,136.24,0,0,0,67.73,65.21Zm-12.93,6a183.61,183.61,0,0,0-2.19,18.52,1.93,1.93,0,0,0,0,.24,112.08,112.08,0,0,0,.67,22.6H46.08A56.61,56.61,0,0,0,42.9,93.2.88.88,0,0,0,43,93a82.82,82.82,0,0,1,7-15.35.41.41,0,0,0,0-.09,39.43,39.43,0,0,1,4.72-6.34ZM37.51,58.06C42,66.09,43.67,73.43,44.7,82c-1.13,2.35-2.21,4.9-3.26,7.68a53.57,53.57,0,0,0-5.17-8.85c2-6.21,2.38-14.65,1.24-22.74Zm-9.2,17.19c10.65,11.38,15,22.38,15.14,37.31H34.84a90,90,0,0,0-6.53-37.31Z"/><rect class="cls-2" width="141.2" height="141.2" rx="70.6"/></g></g></svg>