<svg xmlns="http://www.w3.org/2000/svg" viewBox="0 0 141.2 141.2"><defs><style>.cls-1{}.cls-2{fill:none;}</style></defs><g id="Calque_2" data-name="Calque 2"><g id="Layer_1" data-name="Layer 1"><path class="cls-1" d="M57.83,33a17.4,17.4,0,1,0,0,24.61,17.41,17.41,0,0,0,0-24.61Zm2.7.71H80.72a.78.78,0,0,1,.78.79V45.34a2.32,2.32,0,0,0,2.32,2.32H103.1a.79.79,0,0,1,.79.78V59a.79.79,0,0,1-.79.78h-1.86l5,5.33,5-5.33H109.3a.78.78,0,0,1-.79-.78V45.34A2.3,2.3,0,0,0,106.2,43H86.91a.78.78,0,0,1-.78-.79V31.36A2.32,2.32,0,0,0,83.81,29H55.34a19.31,19.31,0,0,1,5.19,4.63Zm-6.8,3.39a11.61,11.61,0,1,0,0,16.42,11.62,11.62,0,0,0,0-16.42Zm-8.21-5A13.17,13.17,0,1,1,32.34,45.27,13.18,13.18,0,0,1,45.52,32.1Zm-.78,8.82h-2c-2.12,0-2.12,3.57,0,3.57h2Zm1.56,8.7h2c2.13,0,2.12-3.57,0-3.57h-2Zm-5,1.57a.79.79,0,0,1,0-1.57h3.47V46.05h-2c-4.19,0-4.19-6.69,0-6.69h2V36.77a.78.78,0,0,1,1.56,0v2.59h3.48a.78.78,0,0,1,0,1.56H46.3v3.57h2c4.19,0,4.19,6.7,0,6.7h-2v2.58a.78.78,0,0,1-1.56,0V51.19Zm9.63,53.69h8.86V73.48a1.17,1.17,0,0,0-1.17-1.17H52.08a1.17,1.17,0,0,0-1.18,1.17v31.4Zm-16.24,0h8.86V83a1.18,1.18,0,0,0-1.17-1.17H35.84A1.18,1.18,0,0,0,34.66,83ZM100.34,80H88c-3.46,1.27-7,4.6-9.51,8.72-2.3,3.82-3.65,8.3-3.11,12.43,2.1,16.24,35.48,16.24,37.59,0,.53-4.13-.83-8.61-3.13-12.43-2.47-4.12-6-7.45-9.5-8.72ZM74.8,104.88a12.67,12.67,0,0,1-1-3.54A20.3,20.3,0,0,1,76,90.06V63.17A1.17,1.17,0,0,0,74.82,62h-6.5a1.17,1.17,0,0,0-1.18,1.17v41.71Zm7.33,7.33a15.74,15.74,0,0,1-6.52-5.77H29.42a1.18,1.18,0,0,0-1.18,1.18v3.82a1.18,1.18,0,0,0,1.18,1.18H81.24a1.19,1.19,0,0,0,.89-.41Zm8.28-37.55h7.52a8,8,0,0,0,.92-.48c4.26-2.55,4.43-8.19,2.18-7.51-.79.23-1.74,1.14-2.64,2.93a.78.78,0,0,1-1.49-.26c-.4-5.56-5.05-5.57-5.45,0h0a.78.78,0,0,1-1.48.29c-.9-1.81-1.86-2.73-2.65-3-2.4-.71-2.07,5.72,3.09,8Zm-2,3.77h11.5a1.11,1.11,0,0,0,0-2.21H88.42a1.11,1.11,0,0,0,0,2.21Zm12.74,11.26a9.88,9.88,0,1,0,0,14,9.87,9.87,0,0,0,0-14Zm-7-4.46A11.45,11.45,0,1,1,82.73,96.68,11.45,11.45,0,0,1,94.17,85.23ZM93.39,93H91.77c-1.68,0-1.68,2.85,0,2.85h1.62ZM95,100.31h1.62c1.68,0,1.68-2.85,0-2.85H95Zm-4.44,1.57a.79.79,0,0,1,0-1.57h2.88V97.46H91.77c-3.75,0-3.75-6,0-6h1.62V89.36a.78.78,0,0,1,1.56,0v2.12h2.88a.78.78,0,0,1,0,1.56H95v2.85h1.62c3.75,0,3.75,6,0,6H95V104a.78.78,0,0,1-1.56,0v-2.11Z"/><rect class="cls-2" width="141.2" height="141.2" rx="70.6"/></g></g></svg>