<svg xmlns="http://www.w3.org/2000/svg" viewBox="0 0 141.2 141.2"><defs><style>.cls-1{fill:none;}.cls-2{}</style></defs><g id="Calque_2" data-name="Calque 2"><g id="Layer_1" data-name="Layer 1"><rect class="cls-1" width="141.2" height="141.2" rx="70.6"/><path class="cls-2" d="M43.05,62.05a23.29,23.29,0,0,1-6.16-1.74L29.63,66a17.72,17.72,0,0,0,3.79,1.42A13.44,13.44,0,0,1,38,69.31Z"/><path class="cls-2" d="M30.58,54.47,20.16,51.32a17.67,17.67,0,0,0,1.58,6.31,19.16,19.16,0,0,0,4.89,6.63l7.26-5.68A9.38,9.38,0,0,1,30.58,54.47Z"/><path class="cls-2" d="M32,48.16a6.49,6.49,0,0,1,1.89-1.26L30.26,34.43c-.15.16-.47.16-.63.32a15.54,15.54,0,0,0-8.2,8.83,20.48,20.48,0,0,0-.95,4.27L30.74,51A4,4,0,0,1,32,48.16Z"/><path class="cls-2" d="M49.67,44.69c.64-.79.64-2,.16-3.79a14.22,14.22,0,0,0-5.52-5.52l.79,11C47.15,46.27,48.88,45.79,49.67,44.69Z"/><path class="cls-2" d="M37.21,46.43a41.94,41.94,0,0,0,4.57.15L41,34a17.52,17.52,0,0,0-7.57-.48l3.79,13Z"/><path class="cls-2" d="M41.15,74.36c2.37.31,8.21.47,13.1-6.31-.32-1.27-1.89-4.42-7.57-5.53l-6.63,9.31A4.64,4.64,0,0,1,41.15,74.36Z"/><path class="cls-2" d="M90.71,65.52c-3.63-3.16-6.95-5.84-7.9-9.15-.78-2.21-2.36-2.21-7.73-.48-3,1-6.31,2.06-9.47,1.58C62,57,59.77,58.73,57.09,60.79a14.4,14.4,0,0,1-2.52,1.73,9.23,9.23,0,0,1,3.15,5.68,1.53,1.53,0,0,1-.31,1.11c-4.9,7.1-10.73,8.36-14.52,8.36a14.63,14.63,0,0,1-3.79-.47,1.65,1.65,0,0,1-.79-.63,25.64,25.64,0,0,1-3,4.26c-2.21,2.68-4.26,5-4.73,9.78a13.59,13.59,0,0,1-2.21,6c-1.26,2.21-1.26,2.68-.79,3.16,8.84,9,21,10.57,36.14,4.57a1.7,1.7,0,0,1,1.26,0l4.74,1.9,15.78.63c1.58,0,2.36-1,3.47-1.9a6.54,6.54,0,0,1,3.16-2,2.55,2.55,0,0,1,1.42.48c2,2.2,18.3,4.73,23.35,1.42.79-.48,1.58-1.27.79-3.16a9.49,9.49,0,0,0-2.84-3.31c-1.42-1.11-2.84-2.37-2.68-4.58.16-3-2.69-6.79-6.79-12.15-1.26-1.74-2.84-3.63-4.26-5.68A64.76,64.76,0,0,0,90.71,65.52ZM77.29,60.79c0-.16,0-.16.16-.32,0-.16.16-.16.16-.32s.15-.15.15-.31c.16,0,.16-.16.32-.16s.16-.16.32-.16.15,0,.31-.15h.63c.16,0,.16,0,.32.15.16,0,.16.16.31.16s.16.16.32.16c.16.16.16.16.16.31s.16.16.16.32,0,.16.15.32v.31a1,1,0,0,1-.15.63c-.16.16-.16.32-.32.48s-.32.31-.47.31a1,1,0,0,1-.64.16,1.45,1.45,0,0,1-1.1-.47c-.16-.16-.32-.32-.32-.48a1,1,0,0,1-.15-.63C77.29,61.1,77.29,60.94,77.29,60.79ZM76.5,75.46c.16-.16.16-.31.32-.47s.31-.32.47-.32a2.11,2.11,0,0,1,.95-.15c.16,0,.16,0,.31.15.16,0,.16.16.32.16s.16.16.31.16c.16.16.32.31.32.47a1,1,0,0,1,.16.63,1,1,0,0,1-.16.64c-.16.15-.16.31-.32.47s-.31.31-.47.31a1.32,1.32,0,0,1-1.26,0c-.16-.15-.32-.15-.47-.31s-.32-.32-.32-.47a1,1,0,0,1-.16-.64ZM51.41,87.3c.16-.16.16-.32.32-.48s.31-.31.47-.31a1.7,1.7,0,0,1,1.26,0c.16.16.32.16.47.31s.32.32.32.48a1.32,1.32,0,0,1,0,1.26c-.16.16-.16.32-.32.47s-.31.32-.47.32a.57.57,0,0,1-.47.16.92.92,0,0,1-.63-.16c-.16-.16-.32-.16-.48-.32s-.31-.31-.31-.47a.94.94,0,0,1-.16-.63Zm-6.47,1.58a1.74,1.74,0,0,1-1.1.47,1.46,1.46,0,0,1-1.11-.47A2.34,2.34,0,0,0,41,88.25h0a3.24,3.24,0,0,0-1.73.63,1.68,1.68,0,0,1-2.37-2.37,5.48,5.48,0,0,1,4-1.58h0a5.88,5.88,0,0,1,3.94,1.58C45.73,87.3,45.73,88.25,44.94,88.88Zm9.15,9a1.68,1.68,0,0,1-1.1.48,1.71,1.71,0,0,1-1.11-.48,2.28,2.28,0,0,0-3.31,0A1.68,1.68,0,0,1,46.2,95.5a5.54,5.54,0,0,1,7.89,0A1.72,1.72,0,0,1,54.09,97.87ZM56.3,81.78a1.68,1.68,0,1,1-2.37-2.37,5.53,5.53,0,0,1,7.9,0,1.72,1.72,0,0,1,0,2.37,1.74,1.74,0,0,1-1.11.47,1.72,1.72,0,0,1-1.1-.47A2.29,2.29,0,0,0,56.3,81.78ZM68.93,93.3a1.74,1.74,0,0,1-1.11.47,1.44,1.44,0,0,1-1.1-.47,2.29,2.29,0,0,0-3.32,0A1.67,1.67,0,1,1,61,90.93a5.52,5.52,0,0,1,7.89,0A1.72,1.72,0,0,1,68.93,93.3Zm.31-14.52c-.16.15-.16.31-.31.47s-.32.32-.48.32a1,1,0,0,1-.63.15,1,1,0,0,1-.63-.15c-.16-.16-.31-.16-.47-.32s-.32-.32-.32-.47a1,1,0,0,1-.16-.63A1.43,1.43,0,0,1,66.72,77c.16-.16.31-.31.47-.31a1.45,1.45,0,0,1,1.74.31,1.74,1.74,0,0,1,.47,1.11A1,1,0,0,1,69.24,78.78ZM67.51,67.89a1.59,1.59,0,0,1-1.58,1.58,1.7,1.7,0,0,1-1.58-1.58A5.66,5.66,0,0,1,70,62.21a1.58,1.58,0,0,1,1.58,1.57A1.7,1.7,0,0,1,70,65.36,2.59,2.59,0,0,0,67.51,67.89Zm5.68,34.4c-.16.16-.16.32-.32.47s-.31.32-.47.32a.94.94,0,0,1-.63.16.92.92,0,0,1-.63-.16c-.16-.16-.32-.16-.48-.32s-.31-.31-.31-.47a.94.94,0,0,1-.16-.63,1.47,1.47,0,0,1,.47-1.11c.16-.15.32-.31.48-.31a1.43,1.43,0,0,1,1.73.31c.16.16.32.32.32.48a.94.94,0,0,1,.16.63A1.18,1.18,0,0,1,73.19,102.29ZM74.92,85.4a1.58,1.58,0,0,1,0-3.15,5.66,5.66,0,0,1,5.69,5.68,1.58,1.58,0,0,1-3.16,0A2.61,2.61,0,0,0,74.92,85.4ZM85.81,99a1.72,1.72,0,0,1-1.1.47A1.46,1.46,0,0,1,83.6,99a2.28,2.28,0,0,0-3.31,0,1.68,1.68,0,0,1-2.37-2.37,5.52,5.52,0,0,1,7.89,0A1.72,1.72,0,0,1,85.81,99Zm1-21.94a1.58,1.58,0,0,1-1.58-1.58,2.42,2.42,0,0,0-2.37-2.36,1.58,1.58,0,0,1-1.57-1.58,1.7,1.7,0,0,1,1.57-1.58,5.66,5.66,0,0,1,5.69,5.68A1.61,1.61,0,0,1,86.76,77Zm9.78,17.83c-.15.16-.15.32-.31.48s-.32.31-.47.31a1.43,1.43,0,0,1-.79.16,1,1,0,0,1-.64-.16c-.15-.16-.31-.16-.47-.31a1.74,1.74,0,0,1-.47-1.11.94.94,0,0,1,.16-.63c.15-.16.15-.31.31-.47a1.61,1.61,0,0,1,1.42-.48c.16,0,.16,0,.32.16.16,0,.16.16.31.16s.16.16.32.16a1.72,1.72,0,0,1,.47,1.1A1,1,0,0,0,96.54,94.87Zm-.78-5.52a1.46,1.46,0,0,1-1.11-.47,2.34,2.34,0,0,0-1.74-.63,3.24,3.24,0,0,0-1.73.63,1.68,1.68,0,0,1-2.37-2.37,5.48,5.48,0,0,1,4-1.58h0a5.88,5.88,0,0,1,3.94,1.58,1.72,1.72,0,0,1,0,2.37A1,1,0,0,1,95.76,89.35Zm9.94,10.1a1.68,1.68,0,0,1-2.37,2.37,2.28,2.28,0,0,0-3.31,0,1.74,1.74,0,0,1-1.11.47,1.66,1.66,0,0,1-1.1-2.84A5.52,5.52,0,0,1,105.7,99.45Z"/><path class="cls-2" d="M116,50.84a24.28,24.28,0,0,0-14.83,1.9l6.31,10.73a12.91,12.91,0,0,1,6.16-.47,6.13,6.13,0,0,0,6.78-3.48l.16-.31a5.55,5.55,0,0,0-.31-5.21A5.66,5.66,0,0,0,116,50.84Zm.32,6.47c-.16.16-.31.32-.47.32a1,1,0,0,1-.63.16,1.43,1.43,0,0,1-1.11-.48c-.16-.15-.31-.31-.31-.47a.94.94,0,0,1-.16-.63,1.47,1.47,0,0,1,.47-1.11c.16-.15.32-.31.47-.31a1.73,1.73,0,0,1,1.27,0c.15.16.31.16.47.31,0,.16.16.16.16.32s.16.16.16.32.15.15.15.31v.32A1.66,1.66,0,0,1,116.27,57.31Z"/><path class="cls-2" d="M91.34,61.89A9.47,9.47,0,0,1,92.6,63a67.77,67.77,0,0,1,7.89,7.41,16,16,0,0,1,4.1-5.36L98.28,54.32A35.73,35.73,0,0,0,91.34,61.89Z"/></g></g></svg>