<svg xmlns="http://www.w3.org/2000/svg" viewBox="0 0 141.2 141.2"><defs><style>.cls-1{fill:none;}.cls-2{}</style></defs><g id="Calque_2" data-name="Calque 2"><g id="Layer_1" data-name="Layer 1"><rect class="cls-1" width="141.2" height="141.2" rx="70.6"/><path class="cls-2" d="M120,58.11l4.34-6.33L109.36,31.56h-7.31L97.28,29.4H89.8l5,6.18-6.07,3H21.55a4.47,4.47,0,0,0-4.65,4.66V66.45h2.33V43.19a2.16,2.16,0,0,1,2.32-2.33V51.33l2.38,14.79-3,8.67L21.58,99h6.87l.83-11.66,3,11.66h6.9l-4-26.41,1.41-2.06,5.85,2.27v3l3,4.4L47,87.71l-1.82,2.73,2.66,21.36H53V98.27l1.52-1.82,3.36,15.35h4.55L61,98.38,65.64,92H76.21V111.8h4.56L82.4,97.07l.8-.81,3.72,15.54h4.59L88.46,91l1.75-1.75a15.1,15.1,0,0,0,4.21-8L96.29,71.1h2v4.66h2.32V71.09h.7A3.1,3.1,0,0,0,104.14,68a5,5,0,0,0-1.45-3.51L99,60.82l4.2-6.19ZM36.48,96.68h-2.4L29.89,80.39l3.41-5Zm22.12,1,1.2,11.75h-.1L56.35,94.19,58.15,92h4.61Zm30.22,11.75h-.06L85.14,94.34l1.27-1.27Zm13-41.46a.75.75,0,0,1-.65.74H94.35l-2.22,12.1a12.85,12.85,0,0,1-3.56,6.77L80.18,96l-1.5,13.48h-.14V89.71H57.06l-6.43,7.72v12h-.7L47.64,91l1.88-2.82L47.7,79.33l-2.89-4.2V74l5.91,2.19.53-.55a7.38,7.38,0,0,1,5.27-2.24H82.75l8.13-11.63H86.14l-.78-1.16H94a3.77,3.77,0,0,1,2.6,1.11L101,66.15a2.64,2.64,0,0,1,.78,1.87Zm-16-14-.63-.39H86.6l4.65,4.66H89Zm11.44,5.24a6.11,6.11,0,0,0-2.66-.94l-7-7H76.94l7.26,4.46,1.91,2.52H81l3.94,5.81h1.5l-4.87,7h-25a9.73,9.73,0,0,0-6.21,2.27L35.77,67.7,27.49,79.79,26.28,96.68H23.85l-.62-21.52,3.09-8.83-2.44-15.1V40.86H89.27l9.19-4.46-3.78-4.68h2.1l4.77,2.16h6.64l13.25,17.95-2.52,3.69L102.14,52Zm-.93,3.45a1.31,1.31,0,0,1-1.85,1.85A1.31,1.31,0,0,1,96.3,62.73Zm15.09-19.62a1.67,1.67,0,1,1-1.67-1.67A1.68,1.68,0,0,1,111.39,43.11Z"/></g></g></svg>