<svg xmlns="http://www.w3.org/2000/svg" viewBox="0 0 141.2 141.2"><defs><style>.cls-1{fill:none;}.cls-2{}</style></defs><g id="Calque_2" data-name="Calque 2"><g id="Layer_1" data-name="Layer 1"><rect class="cls-1" width="141.2" height="141.2" rx="70.6"/><path class="cls-2" d="M44.09,91.4H49l-5.3,3.8.69,10.43H41.8L39.64,94.68Zm24.73-.08-1.58,2.8L70,105.63H72.6L69.89,91.14c-.35.07-.71.14-1.07.18Zm46.92-36.1-7.86-11.67a2.35,2.35,0,0,0-2.69-.89l-.79-1.77A2.19,2.19,0,0,1,105.61,38l6.11-2.39h-8a4.17,4.17,0,0,0-3.83,5.81l.91,2.11-.53.09L97.83,42a4.79,4.79,0,0,0-2.55-.74H92.36l3.2,3.08-8.21,1.38H30.45a5.74,5.74,0,0,0-5.73,5.74V79.94h2.87V51.5a2.87,2.87,0,0,1,2.86-2.87V71.37a11.75,11.75,0,0,1,9.73-5H62.12A3.32,3.32,0,0,0,64.82,65l1.81-2.54-.9-1.35L63.5,57.79H74.84a10.23,10.23,0,0,1,6.72,2.51l4.6,4a4.6,4.6,0,0,1-3,8.13H80.45l-1.84,8.08L79.84,83l1.51,14.34h3.59V75.75a10.82,10.82,0,0,0,7.65-5L100,58.66l5.74,1.44h4.62l1.66.44a3.38,3.38,0,0,0,3.71-5.32ZM85.64,68.1a2.52,2.52,0,0,0-.89-2.18l-4.6-4a8.09,8.09,0,0,0-5.31-2H67.52l1.73,2.58-2.68,3.75a5.45,5.45,0,0,1-4.45,2.29H40.18a9.92,9.92,0,0,0-4.25.92,9.57,9.57,0,0,0-5.46,8.65v.08a1.73,1.73,0,0,0,1.73,1.73v7.59l-1.75,2.58,2.27,15.52h2.59V95.2l8.08-6H57.7l2.68,5.91,1.26,10.47h2.51V95.23l3.37-6A8.63,8.63,0,0,0,76,82.52l2.78-12.24H83.2a2.46,2.46,0,0,0,2.44-2.18Z"/></g></g></svg>