<svg xmlns="http://www.w3.org/2000/svg" viewBox="0 0 141.2 141.2"><defs><style>.cls-1{fill:none;}.cls-2{}</style></defs><g id="Calque_2" data-name="Calque 2"><g id="Layer_1" data-name="Layer 1"><rect class="cls-1" width="141.2" height="141.2" rx="70.6"/><path class="cls-2" d="M77.53,54a1.84,1.84,0,0,0,1.22-.32l-2-1.78A1.09,1.09,0,0,1,77.53,50H83a1.09,1.09,0,0,1,.73,1.89l-1.95,1.78A1.84,1.84,0,0,0,83,54a1.09,1.09,0,0,1,0,2.17,3.87,3.87,0,0,1-2.73-.93,3.83,3.83,0,0,1-2.72.93,1.09,1.09,0,0,1,0-2.17Zm8.58-12.78a1.52,1.52,0,1,0-1.52-1.52A1.52,1.52,0,0,0,86.11,41.25Zm-11.72,0a1.52,1.52,0,1,0-1.52-1.52A1.53,1.53,0,0,0,74.39,41.25ZM121,86.51a6.93,6.93,0,0,1-1.08,3.24,7.85,7.85,0,0,0-.71,1.57,8.12,8.12,0,0,0-.17,1.79,7,7,0,0,1-.65,3.28,6.09,6.09,0,0,1-2.13,2v19.25a2.12,2.12,0,0,1-3.16,1.87l-1.7-.94-1.69.94a2.14,2.14,0,0,1-3.17-1.87V104.41a2.87,2.87,0,0,0-.31,0,7.37,7.37,0,0,0-1.54.71c-.32.17-.65.35-1,.51v11.94a2.13,2.13,0,0,1-3.16,1.87l-1.7-.94-1.69.94a2.15,2.15,0,0,1-1,.27,2.12,2.12,0,0,1-1.08-.3,2.1,2.1,0,0,1-1-1.84V105.25a7.6,7.6,0,0,0-1,.35,8.86,8.86,0,0,1-6.76,0,6.78,6.78,0,0,0-5.16,0,8.89,8.89,0,0,1-6.77,0,7.75,7.75,0,0,0-1.06-.36v12.38A2.12,2.12,0,0,1,70,119.49l-1.7-.94-1.69.94a2.14,2.14,0,0,1-3.17-1.87V105.68c-.35-.16-.68-.34-1-.51a7.42,7.42,0,0,0-1.54-.71,2.87,2.87,0,0,0-.31,0v13.22a2.09,2.09,0,0,1-1,1.83,2.12,2.12,0,0,1-1.08.3,2.15,2.15,0,0,1-1-.27l-1.69-.94-1.69.94a2.11,2.11,0,0,1-2.12,0,2.09,2.09,0,0,1-1-1.83V98.37a5.89,5.89,0,0,1-2.12-2,6.28,6.28,0,0,1-.64-3A9.51,9.51,0,0,1,43.51,87l-.92-4.83a1.87,1.87,0,0,1-.51-.2l-1.51-.83-1.5.83a2,2,0,0,1-1,.26,2,2,0,0,1-2-2V70.82a11.46,11.46,0,0,1-2.42-1.34V80.19a2,2,0,0,1-1,1.77,2,2,0,0,1-2,0l-1.5-.83L27.56,82a2.06,2.06,0,0,1-1,.26,2,2,0,0,1-1-.28,2,2,0,0,1-1-1.77V62.62A5.4,5.4,0,0,1,22.6,60.8a6.24,6.24,0,0,1-.61-3,7.79,7.79,0,0,0-.16-1.62,6.84,6.84,0,0,0-.64-1.41,6.37,6.37,0,0,1-1-3,6.37,6.37,0,0,1,1-3,7.09,7.09,0,0,0,.64-1.41A7.94,7.94,0,0,0,22,45.68a6.28,6.28,0,0,1,.61-3,6.18,6.18,0,0,1,2.32-2.07,7.31,7.31,0,0,0,1.28-.92,7.38,7.38,0,0,0,.92-1.3A6.22,6.22,0,0,1,29.17,36a6.17,6.17,0,0,1,3-.62,7,7,0,0,0,1.59-.16,7,7,0,0,0,1.39-.64,6.16,6.16,0,0,1,3-1,7.45,7.45,0,0,1,3.13.61,6,6,0,0,0,4.67,0,8.34,8.34,0,0,1,6.26,0,6,6,0,0,0,4.66,0c.29-.11.6-.23,1-.34a2.9,2.9,0,0,1-.24-1.27,2.84,2.84,0,0,1,1-2.09,8.83,8.83,0,0,1,8-1.52c0-.21,0-.41,0-.62,0-3.8,2.79-6.88,6.22-6.88a5.78,5.78,0,0,1,3.72,1.37,5.84,5.84,0,0,1,7.43,0,5.76,5.76,0,0,1,3.72-1.37c3.43,0,6.22,3.08,6.22,6.87,0,.22,0,.42,0,.63a8.85,8.85,0,0,1,8,1.52,2.84,2.84,0,0,1,1,2.09,3,3,0,0,1-.87,2.22A10.23,10.23,0,0,1,95.12,38a6.92,6.92,0,0,1-1.1-.1L91.31,52.19a8.87,8.87,0,0,1-4.23,5.88,5.68,5.68,0,0,1-.6,2.73,5.49,5.49,0,0,1-1.93,1.82v5.26a5.84,5.84,0,0,0,1.6-.46,9,9,0,0,1,6.77,0,6.71,6.71,0,0,0,5.18,0,8.08,8.08,0,0,1,3.38-.66,6.79,6.79,0,0,1,3.22,1.09,7.49,7.49,0,0,0,1.54.72,8.4,8.4,0,0,0,1.76.17,6.63,6.63,0,0,1,3.25.67A6.7,6.7,0,0,1,113.46,72a5.36,5.36,0,0,0,2.43,2.46,6.63,6.63,0,0,1,2.5,2.23,6.83,6.83,0,0,1,.66,3.28,8.18,8.18,0,0,0,.17,1.79h0a7.79,7.79,0,0,0,.71,1.56A7,7,0,0,1,121,86.51ZM93.28,31.39a8.7,8.7,0,0,1,1,4.4c2.54.38,4.72-1.09,6.2-2.56a.78.78,0,0,0,.23-.59.69.69,0,0,0-.25-.52c-2.52-2.1-5.8-1.25-7.21-.73ZM68.77,28.31c0,2.6,1.82,4.71,4,4.71a3.8,3.8,0,0,0,2.89-1.42,1.12,1.12,0,0,1,1.66,0,3.64,3.64,0,0,0,5.77,0,1.08,1.08,0,0,1,1.66,0A3.79,3.79,0,0,0,87.69,33c2.23,0,4-2.11,4-4.71s-1.82-4.7-4-4.7A3.79,3.79,0,0,0,84.8,25a1.12,1.12,0,0,1-1.66,0,3.64,3.64,0,0,0-5.77,0,1.12,1.12,0,0,1-1.66,0,3.8,3.8,0,0,0-2.89-1.42c-2.23,0-4,2.11-4,4.7Zm-.3,8.43,2.86,15a7.33,7.33,0,0,0,7.44,5.58h3c3.69,0,6.82-2.35,7.44-5.58l2.86-15a6.5,6.5,0,0,0-.23-3.28,5.9,5.9,0,0,1-4.12,1.73A5.76,5.76,0,0,1,84,33.82a5.84,5.84,0,0,1-7.43,0,5.78,5.78,0,0,1-3.72,1.37,5.9,5.9,0,0,1-4.12-1.73,6.5,6.5,0,0,0-.23,3.28Zm-8.7-4.1a.78.78,0,0,0,.23.59c1.48,1.47,3.65,2.94,6.2,2.56a8.54,8.54,0,0,1,1-4.39c-1.42-.52-4.71-1.37-7.21.72a.69.69,0,0,0-.25.52ZM31.44,77H26.7V80l1.84-1a1.1,1.1,0,0,1,.53-.14,1.06,1.06,0,0,1,.52.13l1.85,1Zm0-9a4.89,4.89,0,0,1-2.27-.59,6.12,6.12,0,0,1-2.05-2.35c-.15-.23-.28-.46-.42-.67V74.87h4.74Zm8.79,1.16a9.36,9.36,0,0,1,1.16-4.92l0,0c-1.52-.57-5.23-1.58-8.06.78a.83.83,0,0,0-.31.64,1,1,0,0,0,.28.71c1.66,1.65,4.09,3.29,6.95,2.82Zm.3,2.15a8.2,8.2,0,0,1-1.28.11,9,9,0,0,1-1-.07v3.48h3Zm1.55,8.15L41.61,77H38.2V80l1.85-1a1,1,0,0,1,.52-.14,1.09,1.09,0,0,1,.53.13Zm5.28-26a6.21,6.21,0,0,1,4.06,1.53,6.17,6.17,0,0,1,8.13,0,6.19,6.19,0,0,1,4.06-1.53c3.69,0,6.7,3.33,6.7,7.41a7,7,0,0,1,0,.81,9.65,9.65,0,0,1,8.79,1.61,2.88,2.88,0,0,1,.79,1c.09-.14.18-.28.26-.43a9.53,9.53,0,0,1,1.23-1.7A8.67,8.67,0,0,1,83,61a4.47,4.47,0,0,0,1.59-1.31,2.26,2.26,0,0,0,.21-.65,10.37,10.37,0,0,1-3.07.46h-3c-4.74,0-8.76-3.09-9.57-7.34L66.49,38a8.43,8.43,0,0,1-1.1.09,9.39,9.39,0,0,1-5.83-2.3,5.54,5.54,0,0,0-1.89.44,7.33,7.33,0,0,1-3.12.62,7.42,7.42,0,0,1-3.13-.62,6.16,6.16,0,0,0-4.67,0,8.21,8.21,0,0,1-6.26,0,5.39,5.39,0,0,0-2.33-.46,4.61,4.61,0,0,0-1.95.74,8.46,8.46,0,0,1-1.86.84,9,9,0,0,1-2.1.23,4.48,4.48,0,0,0-2,.33A4.51,4.51,0,0,0,29,39.46a8.69,8.69,0,0,1-1.22,1.7,9,9,0,0,1-1.68,1.24,4.68,4.68,0,0,0-1.59,1.31,4.66,4.66,0,0,0-.32,2,9,9,0,0,1-.23,2.11,8.59,8.59,0,0,1-.83,1.88,4.71,4.71,0,0,0-.74,2,4.72,4.72,0,0,0,.74,2,8.59,8.59,0,0,1,.83,1.88,9,9,0,0,1,.23,2.11,4.63,4.63,0,0,0,.32,2A4.57,4.57,0,0,0,26.07,61a8.67,8.67,0,0,1,1.68,1.24A9,9,0,0,1,29,64a4.55,4.55,0,0,0,1.3,1.61,2.25,2.25,0,0,0,.57.2c0-.07,0-.14,0-.21a3.07,3.07,0,0,1,1.09-2.21,9.65,9.65,0,0,1,8.79-1.61,7,7,0,0,1-.05-.81c0-4.08,3-7.41,6.7-7.41ZM82,65.1a7.35,7.35,0,0,1-1.66,2.07c.25.08.47.17.69.26a6.49,6.49,0,0,0,1.39.42V64.43c-.14.21-.28.43-.42.67ZM77.66,65c-2.85-2.37-6.54-1.36-8.06-.79l0,0a9.36,9.36,0,0,1,1.16,4.92c2.86.47,5.29-1.17,7-2.82a1,1,0,0,0,.28-.71.86.86,0,0,0-.31-.64Zm-14-9.33a4.22,4.22,0,0,0-3.23,1.59,1.08,1.08,0,0,1-.83.39,1.06,1.06,0,0,1-.83-.39,4.09,4.09,0,0,0-6.47,0,1.12,1.12,0,0,1-1.66,0,4.22,4.22,0,0,0-3.23-1.59c-2.49,0-4.53,2.35-4.53,5.24s2,5.25,4.53,5.25a4.2,4.2,0,0,0,3.23-1.6,1.1,1.1,0,0,1,.83-.38,1.09,1.09,0,0,1,.83.38,4.07,4.07,0,0,0,6.47,0,1.09,1.09,0,0,1,.83-.38,1.1,1.1,0,0,1,.83.38,4.2,4.2,0,0,0,3.23,1.6c2.49,0,4.53-2.35,4.53-5.25s-2-5.24-4.53-5.24ZM53.86,92.78h3.25c4.08,0,7.54-2.6,8.22-6.18l3.13-16.43a7.17,7.17,0,0,0-.31-3.79,6.36,6.36,0,0,1-4.54,2,6.21,6.21,0,0,1-4.06-1.53,6.17,6.17,0,0,1-8.13,0,6.21,6.21,0,0,1-4.06,1.53,6.34,6.34,0,0,1-4.54-2,7.17,7.17,0,0,0-.31,3.79L45.64,86.6c.68,3.58,4.14,6.18,8.22,6.18Zm4.64,24.81v-3.51H53.06v3.55l2.16-1.27a1.11,1.11,0,0,1,1.06,0Zm0-5.68,0-7.65a5.54,5.54,0,0,1-2.55-.64,6.77,6.77,0,0,1-2.21-2.54c-.21-.35-.42-.68-.64-1v11.81Zm12.59,5.68v-3.51H65.63v3.55l2.16-1.27a1.11,1.11,0,0,1,1.06,0Zm0-5.68,0-6.8a6.29,6.29,0,0,0-2,.49,8.05,8.05,0,0,1-3.38.67h-.05v5.65Zm30.54,5.68v-3.51H96.15v3.55l2.16-1.27a1.11,1.11,0,0,1,1.06,0Zm0-5.68,0-5.65h-.07a8.05,8.05,0,0,1-3.38-.67,6.22,6.22,0,0,0-1.95-.49v6.8Zm12.59,5.68v-3.51h-5.43v3.55l2.16-1.27a1.11,1.11,0,0,1,1.06,0Zm0-5.68,0-11.81a11.11,11.11,0,0,0-.65,1,6.77,6.77,0,0,1-2.21,2.54,5.58,5.58,0,0,1-2.53.64v7.65Zm4.69-25.4A5.17,5.17,0,0,0,118,84.3a9.1,9.1,0,0,1-.9-2,9.88,9.88,0,0,1-.24-2.28,5.17,5.17,0,0,0-.37-2.26,5.12,5.12,0,0,0-1.77-1.47,9.69,9.69,0,0,1-1.82-1.34,9.4,9.4,0,0,1-1.32-1.84,5.2,5.2,0,0,0-1.45-1.79,5,5,0,0,0-2.22-.37,9.21,9.21,0,0,1-2.26-.25,9,9,0,0,1-2-.9,5,5,0,0,0-2.17-.83,6.07,6.07,0,0,0-2.59.51,8.89,8.89,0,0,1-6.77,0,6.81,6.81,0,0,0-5.17,0,8.86,8.86,0,0,1-6.76,0,5.84,5.84,0,0,0-2.11-.5,10.24,10.24,0,0,1-6.36,2.52,8.2,8.2,0,0,1-1.28-.11L67.46,87C66.59,91.61,62.23,95,57.11,95H53.86a11.37,11.37,0,0,1-3.48-.55,2.7,2.7,0,0,0,.27.91,5.11,5.11,0,0,0,1.77,1.46,10.52,10.52,0,0,1,1.82,1.34A10.17,10.17,0,0,1,55.56,100,4.81,4.81,0,0,0,57,101.74a4.85,4.85,0,0,0,2.22.37,9.78,9.78,0,0,1,2.26.25,9.68,9.68,0,0,1,2,.91,5.05,5.05,0,0,0,2.17.82,6,6,0,0,0,2.59-.51,8.86,8.86,0,0,1,6.76,0,6.83,6.83,0,0,0,5.18,0,8.86,8.86,0,0,1,6.76,0,6.78,6.78,0,0,0,5.16,0,8.89,8.89,0,0,1,6.77,0,5.84,5.84,0,0,0,2.58.51,5.05,5.05,0,0,0,2.17-.82,9.45,9.45,0,0,1,2-.91,9.72,9.72,0,0,1,2.26-.25,4.87,4.87,0,0,0,2.22-.37A5,5,0,0,0,111.6,100a9.64,9.64,0,0,1,1.32-1.83,9.43,9.43,0,0,1,1.82-1.35,5.11,5.11,0,0,0,1.77-1.46,5.06,5.06,0,0,0,.36-2.26,10.57,10.57,0,0,1,.25-2.29,9.47,9.47,0,0,1,.89-2,5.1,5.1,0,0,0,.82-2.22Zm-60.37,4.8a1.09,1.09,0,1,0,0-2.17A2,2,0,0,1,57,88.69l2.21-2a1.07,1.07,0,0,0,.28-1.19,1.08,1.08,0,0,0-1-.7h-6a1.09,1.09,0,0,0-.73,1.89l2.21,2a2,2,0,0,1-1.48.45,1.09,1.09,0,0,0,0,2.17,4.08,4.08,0,0,0,3-1,4.06,4.06,0,0,0,3,1ZM49.08,71.75a1.67,1.67,0,1,0,1.67,1.67A1.66,1.66,0,0,0,49.08,71.75Zm12.81,3.33a1.67,1.67,0,0,0,0-3.33,1.67,1.67,0,1,0,0,3.33Z"/></g></g></svg>