<svg xmlns="http://www.w3.org/2000/svg" viewBox="0 0 141.2 141.2"><defs><style>.cls-1{}.cls-2{fill:none;}</style></defs><g id="Calque_2" data-name="Calque 2"><g id="Layer_1" data-name="Layer 1"><path class="cls-1" d="M123.06,55.29a9.45,9.45,0,0,0-3.3-5.49,6.1,6.1,0,0,0-7.05-.33C111,50.66,110,52.72,110,55.58v.65c0,1.45,0,2.81-.18,4.2a33.05,33.05,0,0,1-1,5.46,6.69,6.69,0,0,0-4.2,1.44,15.63,15.63,0,0,0-2.79,3.06l-.59.77c-.26.32-.49.63-.71.91a13.77,13.77,0,0,1-2.28,2.5A11.84,11.84,0,0,1,96,76c-.88.47-1.79.92-2.7,1.33a39.12,39.12,0,0,1-4.25,1.59,19.36,19.36,0,0,0-10.25,7,24.1,24.1,0,0,0-3.72,7.81,24.56,24.56,0,0,0-.48,10.08,25.65,25.65,0,0,0,.87,3.71,22.85,22.85,0,0,1,.64,7.73,1.91,1.91,0,0,0,1.87,2H78A1.94,1.94,0,0,0,80,115.33a26.3,26.3,0,0,0-.82-8.93,25.14,25.14,0,0,1-.75-3.17,20.67,20.67,0,0,1,.41-8.49,20,20,0,0,1,3.1-6.53,15.56,15.56,0,0,1,8.24-5.64,43.9,43.9,0,0,0,4.72-1.77c1-.45,2-.94,2.88-1.42a15.26,15.26,0,0,0,2.9-1.83,16.13,16.13,0,0,0,2.89-3.14l.68-.87c.22-.27.43-.55.64-.82A13.05,13.05,0,0,1,107,70.34a2.5,2.5,0,0,1,3.34,0,2.47,2.47,0,0,1-.06,3.39L98.06,87a1.91,1.91,0,0,0,2.82,2.59l12.17-13.2a6.32,6.32,0,0,0,0-8.69,5.35,5.35,0,0,0-.63-.53,37.46,37.46,0,0,0,1.19-6.31c.16-1.56.18-3.08.2-4.55v-.64c0-1.06.21-2.43,1-3a2.3,2.3,0,0,1,2.6.22,5.9,5.9,0,0,1,1.87,3.32,18.29,18.29,0,0,1,.22,7.77c-1.5,8.64-4.92,16.13-9.91,21.67-.39.43-.79.86-1.2,1.28-2.24,2.29-4.49,4.68-6.68,7.1-3.5,3.86-6.09,8.73-8.16,15.33l0,.16c-.23.75-.47,1.52-.69,2.31a1.92,1.92,0,0,0,1.35,2.35,2.24,2.24,0,0,0,.51.07,1.92,1.92,0,0,0,1.85-1.42c.2-.74.43-1.46.64-2.16l0-.16c1.9-6,4.23-10.47,7.34-13.9,2.16-2.39,4.38-4.74,6.58-7,.45-.46.89-.92,1.31-1.4C118,82.13,121.71,74,123.32,64.62a22.34,22.34,0,0,0-.26-9.33Z"/><path class="cls-1" d="M63.16,115.31h-.67l-1.25,0Z"/><path class="cls-1" d="M62.36,85.9a19.48,19.48,0,0,0-10.18-7,38.86,38.86,0,0,1-4.29-1.61c-.92-.41-1.82-.85-2.78-1.37A10.78,10.78,0,0,1,43,74.56a13,13,0,0,1-2.28-2.49c-.22-.29-.45-.59-.71-.91s-.4-.51-.59-.77a16.28,16.28,0,0,0-2.79-3.06,6.63,6.63,0,0,0-4.2-1.44,32.86,32.86,0,0,1-1-5.46c-.15-1.38-.16-2.74-.18-4.19v-.66c-.05-2.86-1-4.92-2.73-6.11a6.12,6.12,0,0,0-7,.33,9.48,9.48,0,0,0-3.3,5.49,22.52,22.52,0,0,0-.27,9.33C19.49,74,23.24,82.13,28.71,88.21c.43.47.86.93,1.31,1.39,2.21,2.26,4.43,4.62,6.58,7,3.11,3.43,5.44,7.85,7.34,13.9l.06.2c.21.69.44,1.4.63,2.13a1.92,1.92,0,0,0,1.85,1.42,1.77,1.77,0,0,0,.5-.07,1.92,1.92,0,0,0,1.35-2.36c-.21-.77-.45-1.53-.67-2.26l-.06-.2C45.54,102.76,43,97.88,39.45,94c-2.2-2.42-4.44-4.81-6.7-7.11-.41-.42-.81-.84-1.2-1.28-5-5.54-8.41-13-9.91-21.67a18.62,18.62,0,0,1,.22-7.77,5.92,5.92,0,0,1,1.88-3.32,2.3,2.3,0,0,1,2.6-.22c.82.56,1,1.92,1,3v.65c0,1.47,0,3,.2,4.54a36.24,36.24,0,0,0,1.19,6.32,4.54,4.54,0,0,0-.63.53,6.3,6.3,0,0,0,0,8.66L40.31,89.57A1.92,1.92,0,0,0,43.13,87L30.92,73.73a2.47,2.47,0,0,1,0-3.38,2.14,2.14,0,0,1,.79-.51h0a2.75,2.75,0,0,1,2.54.5,13.32,13.32,0,0,1,2.11,2.37c.21.28.42.56.64.83l.67.87a17.22,17.22,0,0,0,2.91,3.14,14.15,14.15,0,0,0,2.81,1.79c1,.52,2,1,3,1.45a43.61,43.61,0,0,0,4.76,1.79,15.67,15.67,0,0,1,4.64,2.19,15.3,15.3,0,0,1,3.55,3.4,20.25,20.25,0,0,1,3.12,6.57,20.64,20.64,0,0,1,.41,8.48,21.48,21.48,0,0,1-.75,3.17,26.43,26.43,0,0,0-.81,9l1.25,0,2.59-.08a23.08,23.08,0,0,1,.64-7.71,26.29,26.29,0,0,0,.87-3.71,24.57,24.57,0,0,0-.48-10.08,24.1,24.1,0,0,0-3.75-7.84Z"/><path class="cls-1" d="M88.23,51.28a1.92,1.92,0,1,0,1.37,3.58,14.35,14.35,0,0,1,5.21-.93A14,14,0,0,1,105,58.27a1.93,1.93,0,0,0,1.4.61,1.88,1.88,0,0,0,1.31-.52,1.92,1.92,0,0,0,.09-2.71,18,18,0,0,0-13.13-5.56,18.18,18.18,0,0,0-6.46,1.19Z"/><path class="cls-1" d="M94.74,48.51a10.2,10.2,0,1,0-10.2-10.2A10.2,10.2,0,0,0,94.74,48.51Zm0-16.56a6.37,6.37,0,1,1-6.36,6.36A6.37,6.37,0,0,1,94.74,32Z"/><path class="cls-1" d="M34.61,58.7A1.92,1.92,0,0,0,36,58.12a14.16,14.16,0,0,1,10.19-4.19,14.38,14.38,0,0,1,5.08.93,1.91,1.91,0,1,0,1.36-3.58,18.27,18.27,0,0,0-19.38,4.17,1.91,1.91,0,0,0,1.38,3.25Z"/><path class="cls-1" d="M46.1,48.51a10.2,10.2,0,1,0-10.2-10.2A10.2,10.2,0,0,0,46.1,48.51ZM46.1,32a6.37,6.37,0,1,1-6.36,6.36A6.37,6.37,0,0,1,46.1,32Z"/><path class="cls-1" d="M88,59l-.35-.48A21.6,21.6,0,0,0,70.5,50.14h-.15a21.6,21.6,0,0,0-17.16,8.38l-.36.48-.7,1A9.3,9.3,0,0,0,59.67,74.7h21.5A9.28,9.28,0,0,0,88.71,60Zm-2,8.89a5.37,5.37,0,0,1-4.86,3H59.67a5.46,5.46,0,0,1-4.43-8.64l.71-1c.09-.14.19-.27.29-.4A17.75,17.75,0,0,1,70.34,54h.16a17.75,17.75,0,0,1,14.1,6.87l.29.39.71,1A5.4,5.4,0,0,1,86,67.89Z"/><path class="cls-1" d="M70.42,48.31A12.17,12.17,0,1,0,58.26,36.15,12.18,12.18,0,0,0,70.42,48.31Zm0-20.49a8.33,8.33,0,1,1-8.33,8.33A8.33,8.33,0,0,1,70.42,27.82Z"/><rect class="cls-2" width="141.2" height="141.2" rx="70.6"/></g></g></svg>