<svg xmlns="http://www.w3.org/2000/svg" viewBox="0 0 141.2 141.2"><defs><style>.cls-1{fill:none;}.cls-2{}</style></defs><g id="Calque_2" data-name="Calque 2"><g id="Layer_1" data-name="Layer 1"><rect class="cls-1" width="141.2" height="141.2" rx="70.6"/><path class="cls-2" d="M46,85.79a4.62,4.62,0,0,0-.85.44q-.23.15-.45.33c-.14.13-.3.26-.44.41a8.38,8.38,0,0,0-.82,1c-.12.19-.26.38-.38.59l-.34.62-.3.67c-.09.23-.16.46-.24.69s-.14.47-.21.71a5.65,5.65,0,0,0-.17.71c-.12.47-.21,1-.29,1.4-.17.92-.32,1.77-.45,2.51-.26,1.47-.43,2.45-.43,2.45l.35-2.46c.1-.74.22-1.6.36-2.52.07-.46.15-.94.24-1.42,0-.24.09-.49.15-.73s.11-.49.19-.72.14-.49.23-.73.19-.45.28-.68l.33-.66c.11-.22.25-.42.37-.63a8.66,8.66,0,0,1,.83-1.09c.15-.17.31-.31.46-.45s.31-.26.47-.38a6.79,6.79,0,0,1,.6-.36,5.27,5.27,0,0,0-1-.4,2.75,2.75,0,0,0-1.53.7,6.39,6.39,0,0,0-1,1.1,4.45,4.45,0,0,0-.33.55l-.26.56a4.36,4.36,0,0,0-.19.58,3.14,3.14,0,0,0-.16.58c0,.2-.09.4-.13.6s0,.4-.08.6c-.05.4-.09.81-.11,1.21s-.05.81-.06,1.21c0,1.61,0,3.16-.06,4.34s-.07,2-.07,2,.3-.72.7-1.82S42.43,92.47,43,91a7.82,7.82,0,0,1,4.15-4.44A11.31,11.31,0,0,0,46,85.79Z"/><path class="cls-2" d="M69,112.6v-.28h0a.34.34,0,0,0-.35-.33.35.35,0,0,0-.33.35s0,.09,0,.28a4.88,4.88,0,0,1,0,.74,4.19,4.19,0,0,1-.12.48c-.07.17-.16.4-.25.58-.19.41-.49.84-.75,1.42a7.75,7.75,0,0,0-.53,1.88c0,.17-.05.34-.07.51s0,.36,0,.54,0,.6,0,.91a3.62,3.62,0,0,1-.27.41c-.09.13-.17.24-.24.36l-.17.3a7.7,7.7,0,0,0-.63,1.29,15.13,15.13,0,0,0-.61,3.08l0,.33c0,.39-.06.78-.08,1.17a9.23,9.23,0,0,1-.12,1.48,7.3,7.3,0,0,1-.64,1.78.11.11,0,0,0,0,.13h0a.12.12,0,0,0,.09,0,7.61,7.61,0,0,0,.65-1.84,11,11,0,0,0,.13-1.51c0-.37,0-.77.07-1.15l0-.32a15.39,15.39,0,0,1,.6-3,7.65,7.65,0,0,1,.62-1.25l.17-.31c.06-.1.14-.21.23-.33l.13-.18a19.61,19.61,0,0,0,.8,4.41,7.89,7.89,0,0,1,.48,1.85,9.36,9.36,0,0,1,0,1.83,13.21,13.21,0,0,1-.2,2.07c-.14.64-.35,1.24-.5,1.81-.06.23-.11.46-.15.67,0,.06,0,.2.12.21s.18-.07.2-.17.09-.41.15-.62c.16-.56.38-1.16.54-1.82a14.63,14.63,0,0,0,.24-2.12,12,12,0,0,0,0-1.9,8.91,8.91,0,0,0-.46-1.93,18.75,18.75,0,0,1-.72-4.45c0-.36,0-.71,0-1,0-.17,0-.33.05-.5s0-.33.08-.49a.6.6,0,0,0,0-.12,3.15,3.15,0,0,1,1,1.47l.2.43a.11.11,0,0,0,.09.05h0a.09.09,0,0,0,0-.13c-.06-.12-.12-.27-.19-.42a3.29,3.29,0,0,0-1.14-1.59,5.69,5.69,0,0,1,.45-1.41c.22-.49.54-1,.76-1.4a5.68,5.68,0,0,0,.28-.64,2.56,2.56,0,0,0,.16-.6,4.69,4.69,0,0,0,0-.85Z"/><path class="cls-2" d="M60.61,120.14l.29-.33.14-.17.15-.19c.13-.18.26-.36.38-.55a4.84,4.84,0,0,1,.25,2.59,12.72,12.72,0,0,1-.7,2.08l-.14.36c-.06.15-.13.3-.2.46a3.64,3.64,0,0,0-.44,1.52.1.1,0,0,0,.1.1h0a.1.1,0,0,0,.09-.1,3.47,3.47,0,0,1,.43-1.44l.2-.47.14-.36a13,13,0,0,0,.71-2.1,5,5,0,0,0-.31-2.83l.46-.75c.3-.5.59-1,.89-1.42.16-.21.31-.42.49-.62l.16-.19h0l.08-.08.26-.27c.36-.34.71-.67,1-1,.16-.17.28-.33.42-.48l.09-.12.1-.12a1.84,1.84,0,0,1,.17-.22c.22-.29.4-.56.55-.8s.12-.22.17-.34a1.69,1.69,0,0,0,.11-.31c0-.13,0-.2,0-.2h0a.32.32,0,0,0-.26-.39.33.33,0,0,0-.4.26h0s0,.08,0,.21A1.77,1.77,0,0,1,66,112c0,.07-.09.17-.14.27a7.16,7.16,0,0,1-.49.74l-.16.22-.08.11-.09.11c-.13.15-.26.33-.4.48l-.38.39A11.81,11.81,0,0,0,60.78,116c-.24.16-.46.35-.68.53l-.24.2c-.28.23-.58.45-1,.7a4.9,4.9,0,0,0-1.09,1.09l-.06.07L56.7,120l-.09.11c-.07.1-.15.23-.23.37a2.28,2.28,0,0,1-.48.65.11.11,0,0,0,0,.14.1.1,0,0,0,.09,0h0a2.33,2.33,0,0,0,.55-.72c.08-.13.15-.26.22-.35l.08-.11c.34-.45.7-.93,1.06-1.37l.06-.08a4.71,4.71,0,0,1,1-1.05c.38-.25.69-.48,1-.71l.24-.2a6.55,6.55,0,0,1,.66-.52A12.74,12.74,0,0,1,64,114.62l-.33.33-.27.29-.07.07,0,0,0,0,0,0-.12.16a7.3,7.3,0,0,0-.5.67c-.32.47-.61,1-.9,1.47s-.57,1-.91,1.47c0,0-.09.13-.12.16l-.14.17-.29.33c-.19.22-.38.45-.58.64-.41.4-.82.8-1.2,1.19l-.3.29-.26.31-.52.6a6.63,6.63,0,0,0-.4.64c-.12.23-.23.44-.32.64s-.19.38-.27.56a1.91,1.91,0,0,1-.13.25c0,.09-.1.16-.14.24s-.2.27-.28.39a2.44,2.44,0,0,1-.27.28,5.71,5.71,0,0,0-.46.41.61.61,0,0,0-.16.26.16.16,0,1,0,.32.06s0,0,.08-.09l.44-.37a2,2,0,0,0,.32-.33,3.56,3.56,0,0,0,.32-.42c0-.07.09-.15.14-.23a2.52,2.52,0,0,0,.15-.27l.29-.57c.09-.2.2-.39.31-.59s.27-.42.39-.61l.51-.56.26-.3.29-.28L60,120.78c.21-.2.41-.42.6-.64Z"/><path class="cls-2" d="M64.42,120.84a7,7,0,0,0,.11-.92c0-.29,0-.59,0-.87a4,4,0,0,1,.14-.79,4.69,4.69,0,0,1,.3-.75,7.44,7.44,0,0,1,.84-1.3c.15-.2.31-.38.46-.56a4.6,4.6,0,0,0,.45-.56A6.57,6.57,0,0,0,67.4,114c.06-.18.13-.35.18-.51s.08-.31.11-.45a3,3,0,0,0,0-.68c0-.15,0-.24,0-.24h0a.34.34,0,1,0-.67,0v.06s0,.06,0,.18a2.1,2.1,0,0,1,0,.53c0,.11-.05.24-.08.38s-.1.29-.15.45a5.49,5.49,0,0,1-.54,1,6.25,6.25,0,0,1-.4.54c-.16.18-.32.38-.48.59a7.91,7.91,0,0,0-.87,1.42,6.39,6.39,0,0,0-.31.83,4.8,4.8,0,0,0-.15.91c0,.3,0,.6,0,.89a6,6,0,0,1-.08.85,12.64,12.64,0,0,1-.4,1.69,9.6,9.6,0,0,1-.71,1.52c-.55,1-1.18,1.78-1.66,2.54a7.9,7.9,0,0,0-.58,1.1c-.07.17-.12.33-.18.48s-.08.3-.11.43a2.8,2.8,0,0,0-.07.64,1.06,1.06,0,0,0,0,.18.18.18,0,0,0,.17.14.14.14,0,0,0,.09-.15h0v0a.14.14,0,0,0,0-.06v-.07a2.6,2.6,0,0,1,.08-.56c0-.11.07-.27.11-.39s.12-.31.18-.48a7,7,0,0,1,.59-1c.49-.74,1.13-1.56,1.72-2.53a9.16,9.16,0,0,0,.77-1.57,12.24,12.24,0,0,0,.47-1.75Z"/><path class="cls-2" d="M70.4,113.78a6.44,6.44,0,0,0-.16-.92,2.82,2.82,0,0,0-.23-.62l-.1-.18h0a.34.34,0,0,0-.46-.12.35.35,0,0,0-.12.47h0l.11.17a2.26,2.26,0,0,1,.17.45c.06.22.11.5.17.84,0,.16,0,.34.08.53s0,.39.08.6,0,.4,0,.61,0,.44-.08.66c-.08.45-.22,1-.34,1.47l-.18.79c-.06.27-.11.55-.16.82-.09.56-.17,1.12-.22,1.7a12.2,12.2,0,0,0,0,1.71,7.52,7.52,0,0,0,.09.83,6.83,6.83,0,0,0,.15.81c.1.51.24,1,.34,1.49,0,.23.11.46.15.68l.12.64,0,.15s0,.1,0,.15,0,.2,0,.29v.54c0,.34,0,.65,0,.89a4.47,4.47,0,0,0,0,.59c0,.15.05.22.05.22a.13.13,0,0,0,.14.1.13.13,0,0,0,.1-.15v0l0-.17c0-.13,0-.31,0-.56s0-.54,0-.88c0-.17,0-.37,0-.56s0-.2,0-.3a.92.92,0,0,0,0-.16l0-.16-.09-.66c0-.23-.09-.46-.14-.7-.09-.48-.22-1-.31-1.49a7,7,0,0,1-.12-.78,5.4,5.4,0,0,1-.07-.8,11.56,11.56,0,0,1,.05-1.66c0-.55.15-1.1.25-1.64.06-.26.11-.53.17-.79s.13-.52.2-.78c.13-.51.28-1,.38-1.49.06-.25.07-.5.11-.73s0-.49,0-.72l-.06-.6c0-.2,0-.38-.08-.55Z"/><path class="cls-2" d="M55.24,118.62c.36-.44.7-.87,1.08-1.3l.61-.6c.21-.2.45-.36.67-.55l.33-.27.37-.24.11-.06c0,.2-.14.45-.21.64a3.23,3.23,0,0,0-.15.5,2.51,2.51,0,0,0-.07.45.1.1,0,0,0,.09.1h0a.11.11,0,0,0,.1-.09,2.92,2.92,0,0,1,.06-.44,3.48,3.48,0,0,1,.14-.46,3.25,3.25,0,0,0,.24-.84,4.64,4.64,0,0,1,.42-.25c.25-.13.49-.27.74-.39l.77-.34c.51-.21,1-.42,1.47-.6l1.35-.51a6.86,6.86,0,0,0,1.12-.6,4.84,4.84,0,0,0,.77-.65l.25-.29a1.72,1.72,0,0,0,.15-.21l.13-.17h0a.32.32,0,0,0-.09-.46.32.32,0,0,0-.46.08l-.13.18a1.5,1.5,0,0,1-.14.2c-.06.07-.12.15-.2.23a3.72,3.72,0,0,1-.64.57,6.14,6.14,0,0,1-1,.56l-1.32.53-.73.31A7.7,7.7,0,0,0,59,113.4h0a1,1,0,0,1-.41-.32l-.21-.2a3.26,3.26,0,0,0-.68-.37l-.29-.13a.1.1,0,0,0-.13.05.1.1,0,0,0,.05.13l.29.13a3.1,3.1,0,0,1,.64.35,1.53,1.53,0,0,1,.19.18l.21.19-.19,0a8,8,0,0,0-3.69,1.91.09.09,0,0,0,0,.13.08.08,0,0,0,.07,0,.08.08,0,0,0,.06,0,7.71,7.71,0,0,1,3.6-1.87,7.14,7.14,0,0,1,2.28.15l-.47.2-.77.36c-.26.13-.52.28-.78.43s-.49.32-.75.49l-.37.24-.35.3c-.23.2-.48.37-.69.59L56,117c-.38.45-.74.93-1.07,1.36s-.05.08-.36.48-.61.8-.87,1.11l-.44.47c-.14.13-.29.24-.43.35s-.53.41-.73.56l-.64.53a.17.17,0,0,0,0,.2.14.14,0,0,0,.2,0h0l.62-.49L53,121l.46-.37.45-.46c.31-.36.59-.72.91-1.12s0,0,.39-.47Z"/><path class="cls-2" d="M75.24,123.25c-.28-.35-.57-.71-.82-1.09a7.23,7.23,0,0,0-.6-.74,4.29,4.29,0,0,1-.89-1.28V120c0-.23,0-.45,0-.68s0-.43,0-.68l-.07-.7c0-.23-.09-.45-.13-.68s-.13-.44-.19-.66l-.09-.32-.12-.3-.24-.58c-.07-.19-.15-.35-.2-.54-.12-.35-.21-.71-.31-1,0-.16-.09-.32-.14-.47s-.07-.27-.1-.4-.11-.51-.17-.71a1.9,1.9,0,0,0-.2-.5l-.08-.14h0a.34.34,0,0,0-.47-.11.35.35,0,0,0-.11.46h0l.09.14a1.91,1.91,0,0,1,.14.35c.06.17.11.39.18.67,0,.13.08.29.12.44s.1.3.15.46c.11.32.21.67.35,1,.06.18.15.37.23.57s.16.37.25.56.08.2.13.3l.09.29c.06.2.14.39.19.6s.09.43.14.64l.08.64c0,.2,0,.45,0,.66s0,.45,0,.67c0,.43,0,.87-.07,1.29s0,.83,0,1.23a7.83,7.83,0,0,0,.06,1.11,4.52,4.52,0,0,0,.23.93,3.83,3.83,0,0,0,.32.67,3.49,3.49,0,0,1,.26.35c0,.07,0,.1,0,.1a.14.14,0,1,0,.28,0,.46.46,0,0,0,0-.22,2.64,2.64,0,0,0-.26-.39,3.33,3.33,0,0,1-.28-.62,4.07,4.07,0,0,1-.18-.86,7.39,7.39,0,0,1,0-1.07c0-.38,0-.78.08-1.2,0-.27,0-.54.07-.82a6.27,6.27,0,0,0,.78,1,5.91,5.91,0,0,1,.58.72c.26.38.55.75.83,1.1l.58.75a6.48,6.48,0,0,1,1,3,.11.11,0,0,0,.1.09h0a.1.1,0,0,0,.08-.11A6.59,6.59,0,0,0,75.83,124l-.59-.76Z"/><path class="cls-2" d="M83.62,118.76a3.39,3.39,0,0,0-.85-.43,2.84,2.84,0,0,0-.42-.08,1.52,1.52,0,0,1-.67-.22,2.63,2.63,0,0,0-.31-.57,4,4,0,0,0-.94-1,6.77,6.77,0,0,0-1.78-.9,3.23,3.23,0,0,0,.63-.55,1.75,1.75,0,0,1,.88-.61.08.08,0,0,0,.08-.1.09.09,0,0,0-.1-.09,1.86,1.86,0,0,0-1,.67,2.35,2.35,0,0,1-.74.59l-.62-.21a12.2,12.2,0,0,1-1.33-.47c-.42-.2-.86-.41-1.27-.58a9,9,0,0,1-1.12-.6,5.4,5.4,0,0,1-.46-.33l-.22-.19-.2-.18a4.48,4.48,0,0,1-.65-.67c-.17-.22-.3-.43-.41-.59s-.18-.33-.23-.42l-.09-.15h0a.33.33,0,0,0-.46-.12.34.34,0,0,0-.13.46l.09.15c.06.1.13.24.26.43a7.16,7.16,0,0,0,.47.66,5.62,5.62,0,0,0,.73.74l.22.18.23.18c.16.12.35.25.53.36a5.7,5.7,0,0,0,.69.37,3.74,3.74,0,0,1-.05.39l0,.13c0,.29-.06.58-.08.85,0,.11,0,.23,0,.34a3.84,3.84,0,0,0,.22,1.61h0a2.62,2.62,0,0,1-.17,1l0,.08a4.74,4.74,0,0,0-.25,1.55.1.1,0,0,0,.1.09h0a.1.1,0,0,0,.08-.11,4.33,4.33,0,0,1,.25-1.47l0-.08a3.88,3.88,0,0,0,.16-.67,6.22,6.22,0,0,0,.32.56,6.05,6.05,0,0,1,.32.55c.11.19.22.4.35.59s.19.25.29.37a3.45,3.45,0,0,1,.33.45,3.18,3.18,0,0,1,.4.89s0,.13,0,.22c0,.34.07.51.2.53h0a.1.1,0,0,0,.1-.08.08.08,0,0,0,0-.09,1.72,1.72,0,0,1-.07-.38c0-.1,0-.19,0-.25a3.88,3.88,0,0,0-.42-.94,5.34,5.34,0,0,0-.35-.48,3.3,3.3,0,0,1-.28-.35,6.59,6.59,0,0,1-.34-.57,5.57,5.57,0,0,0-.33-.57,3.89,3.89,0,0,1-.68-2.47c0-.12,0-.23,0-.35,0-.28,0-.55.08-.83l0-.13c0-.1,0-.21.05-.33l.33.15c.44.16.85.34,1.29.54a12.71,12.71,0,0,0,1.4.46,8.48,8.48,0,0,1,2.55,1.07,3.1,3.1,0,0,1,1.32,1.86,4,4,0,0,1,.06,1,1.27,1.27,0,0,1,0,.37l0,.07,0,.08-.07.13a4.77,4.77,0,0,0-.25.44,1.19,1.19,0,0,0-.08.17h0a.14.14,0,0,0,.09.17.13.13,0,0,0,.17-.08l.07-.15.25-.41.09-.16,0-.08a.49.49,0,0,0,0-.11,1.31,1.31,0,0,0,.07-.44,4.08,4.08,0,0,0,0-1,1.63,1.63,0,0,0-.07-.3,2.45,2.45,0,0,0,.55.13l.39.08a3,3,0,0,1,.79.41,2.85,2.85,0,0,1,1,1.33.1.1,0,0,0,.09.07h0a.1.1,0,0,0,.08-.12,3.1,3.1,0,0,0-1-1.44Z"/><path class="cls-2" d="M90.29,15.17a.13.13,0,0,0,.19,0,5,5,0,0,0,.49-.6,7.91,7.91,0,0,0,.77-1.46,5.82,5.82,0,0,0,.42-1.58,3.76,3.76,0,0,0,0-.57.68.68,0,0,0,0-.22.14.14,0,0,0,0-.07.14.14,0,0,0-.2,0l-.17.16a3.66,3.66,0,0,0-.36.43,5.93,5.93,0,0,0-.73,1.47,8,8,0,0,0-.37,1.6,3.87,3.87,0,0,0,0,.78.11.11,0,0,0,0,.08Z"/><path class="cls-2" d="M87.4,20.72a.13.13,0,0,0,.18,0,4.87,4.87,0,0,0,.46-.65,9,9,0,0,0,.67-1.51A5.51,5.51,0,0,0,89,16.92a3.23,3.23,0,0,0,0-.57c0-.14,0-.23,0-.23s0,0,0-.06a.14.14,0,0,0-.2,0l-.16.17a4.75,4.75,0,0,0-.33.46,5.68,5.68,0,0,0-.64,1.53,8.45,8.45,0,0,0-.27,1.64,4.06,4.06,0,0,0,0,.79A.09.09,0,0,0,87.4,20.72Z"/><path class="cls-2" d="M90.12,19.46c0-.14,0-.22,0-.22a.14.14,0,0,0,0-.06.14.14,0,0,0-.19-.06,1.34,1.34,0,0,0-.19.11,3.57,3.57,0,0,0-.42.36,5.07,5.07,0,0,0-1,1.27,8.26,8.26,0,0,0-.62,1.46,4.53,4.53,0,0,0-.15.74.29.29,0,0,0,0,.09.14.14,0,0,0,.19,0,4.63,4.63,0,0,0,.57-.49,7,7,0,0,0,1-1.25A4.93,4.93,0,0,0,90,20a4,4,0,0,0,.11-.54Z"/><path class="cls-2" d="M87.81,25.12a1.17,1.17,0,0,0,0-.22.13.13,0,0,0,0-.06.14.14,0,0,0-.18-.08l-.2.09a4.35,4.35,0,0,0-.45.3,4.93,4.93,0,0,0-1,1.15,6.42,6.42,0,0,0-.74,1.37,4.35,4.35,0,0,0-.22.71.11.11,0,0,0,0,.08.14.14,0,0,0,.18.06,4.24,4.24,0,0,0,.61-.42A7.3,7.3,0,0,0,86.88,27a4.68,4.68,0,0,0,.77-1.35,3.52,3.52,0,0,0,.16-.51Z"/><path class="cls-2" d="M85.76,30.48a2.36,2.36,0,0,0,.15-.52,1,1,0,0,0,0-.21.13.13,0,0,0,0-.06.15.15,0,0,0-.18-.09,1.46,1.46,0,0,0-.2.1,3.16,3.16,0,0,0-.45.3,5,5,0,0,0-1,1.15,7.14,7.14,0,0,0-.74,1.36,4.71,4.71,0,0,0-.22.71.14.14,0,0,0,0,.09.13.13,0,0,0,.18,0,3.68,3.68,0,0,0,.62-.42A6.85,6.85,0,0,0,85,31.82a4.79,4.79,0,0,0,.78-1.34Z"/><path class="cls-2" d="M84.62,34.91a3.67,3.67,0,0,0,.22-.5l.06-.21v-.06a.16.16,0,0,0-.18-.11l-.2.07a3.57,3.57,0,0,0-.49.24,5.09,5.09,0,0,0-1.18,1,7,7,0,0,0-.91,1.26,4.52,4.52,0,0,0-.31.68.28.28,0,0,0,0,.09.12.12,0,0,0,.17.07,4.25,4.25,0,0,0,.66-.34,6.67,6.67,0,0,0,1.21-1,4.8,4.8,0,0,0,.94-1.23Z"/><path class="cls-2" d="M83,38.84a3.25,3.25,0,0,0,.14-.53c0-.13,0-.21,0-.21s0,0,0-.06a.15.15,0,0,0-.19-.08,1.14,1.14,0,0,0-.19.1,3.36,3.36,0,0,0-.45.31,4.79,4.79,0,0,0-1,1.17,6.8,6.8,0,0,0-.72,1.38,4.4,4.4,0,0,0-.2.71.1.1,0,0,0,0,.09.12.12,0,0,0,.18.05,4.16,4.16,0,0,0,.6-.43,7.44,7.44,0,0,0,1.06-1.14A5,5,0,0,0,83,38.84Z"/><path class="cls-2" d="M81,44.13a4.63,4.63,0,0,0,.75-1.36,2.27,2.27,0,0,0,.14-.52A1.08,1.08,0,0,0,82,42a.13.13,0,0,0,0-.06.14.14,0,0,0-.18-.07l-.2.1a3.15,3.15,0,0,0-.44.3,5,5,0,0,0-1,1.17,7.13,7.13,0,0,0-.72,1.39,4.11,4.11,0,0,0-.2.71.14.14,0,0,0,0,.09.14.14,0,0,0,.18.05,3.91,3.91,0,0,0,.61-.43,7.49,7.49,0,0,0,1-1.15Z"/><path class="cls-2" d="M80.18,47.49a4.15,4.15,0,0,0,0-.54,1.87,1.87,0,0,0,0-.21.14.14,0,0,0,0-.06.15.15,0,0,0-.2,0l-.18.13a4.49,4.49,0,0,0-.38.38,5.11,5.11,0,0,0-.81,1.33A7.56,7.56,0,0,0,78.16,50a3.81,3.81,0,0,0-.07.74.16.16,0,0,0,0,.09.13.13,0,0,0,.18,0,3.92,3.92,0,0,0,.52-.53A7.24,7.24,0,0,0,79.67,49a5.06,5.06,0,0,0,.51-1.47Z"/><path class="cls-2" d="M79.2,52.38a3.15,3.15,0,0,0,.06-.54c0-.13,0-.22,0-.22a.08.08,0,0,0,0,0,.15.15,0,0,0-.2,0,1.11,1.11,0,0,0-.17.13,2.55,2.55,0,0,0-.39.37,5,5,0,0,0-.82,1.32,6.39,6.39,0,0,0-.49,1.48,4,4,0,0,0-.09.74.11.11,0,0,0,0,.08.14.14,0,0,0,.19,0,4.77,4.77,0,0,0,.52-.53,6.82,6.82,0,0,0,.87-1.3,5.05,5.05,0,0,0,.52-1.46Z"/><path class="cls-2" d="M78.31,56.33a1.13,1.13,0,0,0-.18.12,3.5,3.5,0,0,0-.42.35,5.08,5.08,0,0,0-.89,1.27,7.33,7.33,0,0,0-.57,1.45,3.69,3.69,0,0,0-.12.74.09.09,0,0,0,0,.08.14.14,0,0,0,.19,0,4.59,4.59,0,0,0,.55-.49,7.25,7.25,0,0,0,.93-1.25,4.92,4.92,0,0,0,.61-1.43,2.6,2.6,0,0,0,.08-.54c0-.13,0-.22,0-.22a.11.11,0,0,0,0,0,.14.14,0,0,0-.19-.06Z"/><path class="cls-2" d="M93.22,14.28a1.17,1.17,0,0,0,0-.22.13.13,0,0,0,0-.06.15.15,0,0,0-.19-.08,1.14,1.14,0,0,0-.19.1,3.36,3.36,0,0,0-.45.31,5.48,5.48,0,0,0-1,1.17,7.13,7.13,0,0,0-.72,1.39,5.21,5.21,0,0,0-.21.72.12.12,0,0,0,0,.08.13.13,0,0,0,.18,0,3.91,3.91,0,0,0,.61-.43,7.55,7.55,0,0,0,1.06-1.15,4.68,4.68,0,0,0,.76-1.36,3.47,3.47,0,0,0,.14-.52Z"/><path class="cls-2" d="M83.64,28.78a.08.08,0,0,0,0,.07.13.13,0,0,0,.18,0,4.31,4.31,0,0,0,.37-.72,9,9,0,0,0,.48-1.62,6.25,6.25,0,0,0,.11-1.68,4.54,4.54,0,0,0-.1-.58,1,1,0,0,0-.07-.22s0,0,0-.06a.13.13,0,0,0-.19,0,2.17,2.17,0,0,0-.14.19,4,4,0,0,0-.27.52,5.85,5.85,0,0,0-.44,1.63A8.26,8.26,0,0,0,83.52,28a4.2,4.2,0,0,0,.12.79Z"/><path class="cls-2" d="M100.79,22a.16.16,0,0,0-.19-.09l-.19.09a2.46,2.46,0,0,0-.46.28,4.71,4.71,0,0,0-1.08,1.1,7.08,7.08,0,0,0-.78,1.34,3.2,3.2,0,0,0-.15.37c-4.4,5-9.68,13.9-14.4,25.53,0-.11,0-.21,0-.31a2.57,2.57,0,0,0-.07-.56,1.15,1.15,0,0,0,0-.22.1.1,0,0,0,0-.05.13.13,0,0,0-.2,0,1.28,1.28,0,0,0-.14.18,4.73,4.73,0,0,0-.3.48,5.61,5.61,0,0,0-.5,1.56,8.22,8.22,0,0,0-.15,1.63,3.89,3.89,0,0,0,.09.78h0c-1.7,4.47-3.3,9.3-4.74,14.42v0a181.41,181.41,0,0,0-5.23,25.58c.24-4.81.57-7.79,1.33-16.64.59-7,.8-6.93,1.75-13.27a178.79,178.79,0,0,1,3.46-17.73A129.49,129.49,0,0,1,83.3,32a113.41,113.41,0,0,1,4.78-10.74c.73-1.46,1.45-2.73,2-3.84l1.6-2.8,1.38-2.29h0a.16.16,0,0,0,0-.1,4.25,4.25,0,0,0,.41-.34,7.08,7.08,0,0,0,1-1.2,5.43,5.43,0,0,0,.7-1.41,4.55,4.55,0,0,0,.12-.53,1.73,1.73,0,0,0,0-.22.13.13,0,0,0,0-.06.14.14,0,0,0-.19-.07.9.9,0,0,0-.19.11,3.83,3.83,0,0,0-.44.33,5.3,5.3,0,0,0-1,1.23,7.13,7.13,0,0,0-.66,1.43,3.42,3.42,0,0,0-.16.6l0,0-1.38,2.3c-.44.76-1,1.7-1.61,2.8s-1.31,2.4-2,3.86a110.89,110.89,0,0,0-4.8,10.79,128.92,128.92,0,0,0-4.58,14.6C77,51.84,75.78,57.82,74.81,64.17c-.65,4.3-1,5.67-1.3,8.28.87-12.8,2.47-31.31,4.93-42.17a4.38,4.38,0,0,0,.25-.46,7.62,7.62,0,0,0,.56-1.58,5.68,5.68,0,0,0,.2-1.66,3.52,3.52,0,0,0-.07-.58,1.45,1.45,0,0,0,0-.23.1.1,0,0,0,0-.05.13.13,0,0,0-.2,0L79,25.9a3.84,3.84,0,0,0-.3.5A5.94,5.94,0,0,0,78.13,28,8.77,8.77,0,0,0,78,29.67a4.26,4.26,0,0,0,.06.66C76.12,38.85,74.73,52,73.8,63.44a5.63,5.63,0,0,0-.25-1.15,4.54,4.54,0,0,0-.22-.54l-.12-.21a.1.1,0,0,0,0,0,.14.14,0,0,0-.19.06,2.19,2.19,0,0,0-.09.22,5.29,5.29,0,0,0-.14.57,6,6,0,0,0,0,1.71A8.06,8.06,0,0,0,73,65.74a5.35,5.35,0,0,0,.29.76.16.16,0,0,0,.08.06.14.14,0,0,0,.16-.07c-.54,7-.89,13-1.08,16.58-.74,7.84-1,9.69-1.3,19.83a35.84,35.84,0,0,0-.11,3.6A13.25,13.25,0,0,1,71,108a2.73,2.73,0,0,1-.26,1.27,2.42,2.42,0,0,1-.37.43,1.89,1.89,0,0,1-1.23.5,1.66,1.66,0,0,1-1.39-.81,2.77,2.77,0,0,1-.38-.91c-.11-.35-.2-.72-.3-1.1-.39-1.53-.76-3.27-1.14-5.18s-.68-5.08-1.09-7.49-.25-1.35-.64-3.89c-.19-1.26-.38-2.54-.57-3.82s-.34-2.57-.51-3.86c-.32-2.58-.63-5.16-.89-7.7s-.21-5.08-.42-7.49c-.1-1.21-.3-2.38-.48-3.54S61,62.11,60.87,61c-.31-2.2-.58-4.28-.8-6.2s-.41-3.7-.57-5.26-.27-3-.33-4.08-.13-2-.16-2.64,0-.94,0-.94h0a.2.2,0,0,0-.17-.18.19.19,0,0,0-.22.16s0,.33-.12.93-.17,1.5-.27,2.65S58,48,57.94,49.57s-.07,3.4,0,5.36.12,4.09.25,6.34.29,4.61.56,7,.69,4.94,1.12,7.47.93,5.1,1.43,7.66c1,5.12,1.58,6.68,2.67,11.44.52,2.38,1.59,8.36,1.66,8.82s.13.92.2,1.36c.14.89.3,1.73.45,2.51.09.4.16.78.26,1.16a3.08,3.08,0,0,0,.09.3,1.77,1.77,0,0,0,.06.17l.06.13a2.7,2.7,0,0,0,.15.29c.05.09.11.18.17.27a2.73,2.73,0,0,0,1,.81,1.43,1.43,0,0,0,.27.09,2,2,0,0,1-.34-.06,2.69,2.69,0,0,1-1.06-.55,2.66,2.66,0,0,1-.74-.94c0-.11-.09-.23-.14-.34h0l-.1-.18c-.25-.66-.48-1.36-.73-2l-.93-2.58c-.64-1.71-1.3-3.4-2-5.08s-1.2-3.46-1.79-5.14-2.13-6.56-2.39-7.39-.66-2.39-1.05-4A94.17,94.17,0,0,1,55,73.14c-.13-.79-.26-1.58-.4-2.36s-.27-1.55-.41-2.31c-.32-1.52-.59-3-.94-4.49l-2.09-8.42q-1-4.05-1.91-7.74c-.3-1.23-.58-2.43-.86-3.59-.14-.59-.29-1.16-.43-1.72s-.25-1.14-.38-1.7l-.72-3.21c-.2-1-.4-2-.59-3-.41-1.92-.67-3.7-1-5.31-.5-3.22-.89-5.75-1.16-7.48s-.49-2.66-.49-2.66.1,1.41.28,3.88c.08,1.23.26,2.72.42,4.44.07.86.2,1.76.32,2.72s.23,2,.36,3c.32,2.1.59,4.37,1,6.76l1.35,7.52c.54,2.59,1.15,5.26,1.74,8,.15.67.3,1.36.45,2s.34,1.36.51,2c.35,1.37.7,2.74,1,4.11s.66,2.74,1,4.1.75,2.71,1.13,4,.73,2.67,1.1,4,.78,2.6,1.15,3.87l1.14,3.73c.19.61.36,1.22.55,1.81s.84,2.57,1.53,4.57,1.32,3.84,1.88,5.47,1,3,1.43,4.12.59,1.68,1.05,3c-.45-1-.64-1.65-1.05-2.86s-1-2.64-1.58-4.25-1.25-3.45-2-5.45-1.38-4-1.58-4.55-.37-1.2-.57-1.81c-.37-1.22-.76-2.46-1.16-3.73S54.41,77.21,54,75.9l-1.13-4c-.38-1.34-.76-2.69-1.15-4s-.7-2.74-1-4.11-.69-2.74-1-4.11c-.16-.68-.34-1.37-.5-2s-.29-1.37-.43-2c-.58-2.73-1.16-5.41-1.69-8s-.88-5.13-1.29-7.53-.7-4.68-1-6.78-.48-4-.61-5.76-.27-3.21-.33-4.45c-.12-2.47-.19-3.88-.19-3.88s-.1.94-.17,2.7q0,.66-.06,1.47c0,.54,0,1.13,0,1.77,0,1.27,0,2.75.15,4.39s.18,3.46.37,5.43c.09,1,.17,2,.26,3.09s.23,2.16.35,3.3c.22,2.26.57,4.7,1,7.25s.83,5.22,1.42,8c.14.69.27,1.39.43,2.09s.33,1.41.49,2.12c.33,1.43.66,2.89,1.07,4.36a86.21,86.21,0,0,0,2.92,9c.58,1.51,1.16,3,1.77,4.58.31.77.59,1.55.89,2.33s.59,1.58.89,2.37c1.14,3.18,1.1,2.75,2.33,6l3.82,10,1.53,3.92c-.47-.9-1-1.88-1.54-2.89L60.26,98c-.44-.78-.89-1.59-1.35-2.37s-.92-1.59-1.4-2.35-.95-1.52-1.43-2.23-1-1.4-1.43-2-.95-1.22-1.39-1.75l-.66-.75L52,85.91a1.88,1.88,0,0,0-1.05-.54,12.63,12.63,0,0,0-3.38-.31l-2,0h-.13A3.5,3.5,0,0,0,45,85h-.23C50.5,86.4,57.11,95.67,57.65,96.4s1.06,1.47,1.58,2.2,1,1.46,1.5,2.18.91,1.41,1.31,2.09.78,1.31,1.1,1.92.62,1.15.88,1.64.44.94.62,1.3.3.65.37.85.13.3.13.3l.14.36h0c0,.11.09.22.13.33a3.62,3.62,0,0,0,1,1.22,3.31,3.31,0,0,0,1.37.7,3.23,3.23,0,0,0,2.93-.71,3.39,3.39,0,0,0,.87-1.28l.12-.37,0-.18s0-.14,0-.13v-.09c0-.12,0-.25,0-.38v0c.07-.29.2-.69.35-1.2s.35-1.13.59-1.83.5-1.49.82-2.34.66-1.75,1-2.7.8-1.94,1.23-3,.92-2,1.4-3.08,1-2.09,1.49-3.12S85.41,76.94,90.79,75h-.38c-.38,0-.75,0-1.13,0H88.19a8.18,8.18,0,0,0-3.17.43,1.71,1.71,0,0,0-1,.76l-.6.91c-.2.34-.41.69-.62,1.06-.42.76-.87,1.58-1.31,2.48s-.89,1.86-1.34,2.87-.9,2.07-1.35,3.15-.88,2.2-1.32,3.32-.85,2.25-1.26,3.36-.8,2.22-1.18,3.29c-.78,2.12-1.46,4.14-2.07,5.85l-1.18,3.41v-.19c.06-2.32.12-4.27.17-5.95a.15.15,0,0,1,0,.06c.36-4.68,1.31-10.89,2-14.46.2-1.12.41-2.22.63-3.32l0,0c0-.1,3-9.26,9.64-15.28.13,0,.3-.11.49-.2a8.4,8.4,0,0,0,1.44-.85,5.84,5.84,0,0,0,1.21-1.15,3.3,3.3,0,0,0,.32-.49l.11-.2s0-.05,0-.07a.13.13,0,0,0-.15-.12l-.23,0a5.27,5.27,0,0,0-.55.19,5.74,5.74,0,0,0-1.41.89A7.85,7.85,0,0,0,84.27,66a4.43,4.43,0,0,0-.4.58,38.35,38.35,0,0,0-8.81,13.13Q76.29,74,77.8,68.64c.13-.34,1.07-2.74,2.51-5.75C85.06,53,89.93,47.66,93.67,44.75a5.42,5.42,0,0,0,.53-.14,8.22,8.22,0,0,0,1.49-.67A5.6,5.6,0,0,0,97,43a4.43,4.43,0,0,0,.36-.44,2.08,2.08,0,0,0,.12-.2.13.13,0,0,0,0-.06.14.14,0,0,0-.14-.14l-.22,0a4.43,4.43,0,0,0-.56.12,5.62,5.62,0,0,0-1.47.71,9,9,0,0,0-1.27,1c-.19.2-.33.38-.41.48-3.78,3-8.68,8.36-13.44,18.25-.46,1-.86,1.83-1.21,2.62,1.29-4.27,2.68-8.31,4.14-12.09a5.72,5.72,0,0,0,.22-.55C88,40.34,93.46,30.84,98.05,25.56a4,4,0,0,0,.61-.39,6.86,6.86,0,0,0,1.11-1.07,4.86,4.86,0,0,0,.82-1.31,3.76,3.76,0,0,0,.17-.51,1,1,0,0,0,0-.21V22ZM64,94c-.57-2.86-1.24-6.2-1.88-9.79-.34-1.8-.65-3.66-1-5.55s-.62-3.81-.9-5.74l-.39-2.89c-.12-1-.22-1.92-.34-2.88-.23-1.9-.39-3.78-.57-5.6-.08-.9-.14-1.8-.21-2.68s-.14-1.73-.17-2.57c-.08-1.67-.18-3.25-.18-4.71,0-.73,0-1.43,0-2.1s0-1.3,0-1.89c0-1.19,0-2.22.13-3.07l.21-2.67s-.06,1-.15,2.67c-.06.85,0,1.89-.07,3.07,0,.59,0,1.22,0,1.89s0,1.36.05,2.09c0,1.46.14,3,.23,4.71,0,.83.12,1.69.2,2.56s.14,1.77.23,2.68c.2,1.81.37,3.69.62,5.58.13,1,.24,1.91.37,2.87s.27,1.92.41,2.89c.26,1.92.56,3.84.85,5.74s.61,3.75.92,5.54c.62,3.6,1.25,7,1.79,9.81.22,1,1,5.69,1,5.69S64.59,96.76,64,94Z"/><path class="cls-2" d="M83.18,65a1.15,1.15,0,0,0-.19.13,3.75,3.75,0,0,0-.44.37,5.71,5.71,0,0,0-1,1.35,7.93,7.93,0,0,0-.68,1.53,4.9,4.9,0,0,0-.18.78.16.16,0,0,0,0,.09.13.13,0,0,0,.18,0,4.74,4.74,0,0,0,.6-.53,7.87,7.87,0,0,0,1-1.32,5.56,5.56,0,0,0,.72-1.51,4.93,4.93,0,0,0,.12-.57,1.8,1.8,0,0,0,0-.23.07.07,0,0,0,0-.06.14.14,0,0,0-.19-.06Z"/><path class="cls-2" d="M82.6,70.34a3.64,3.64,0,0,0-.55.19,5.83,5.83,0,0,0-1.4.91,8.25,8.25,0,0,0-1.18,1.2,6.12,6.12,0,0,0-.44.66.14.14,0,0,0,0,.09.13.13,0,0,0,.16.1,4.65,4.65,0,0,0,.75-.28,8.18,8.18,0,0,0,1.43-.87,5.83,5.83,0,0,0,1.2-1.17,2.69,2.69,0,0,0,.31-.48,1.91,1.91,0,0,0,.1-.21.17.17,0,0,0,0-.07.14.14,0,0,0-.16-.12l-.22,0Z"/><path class="cls-2" d="M95,27.88A.16.16,0,0,0,95,28a.15.15,0,0,0,.19,0,4.93,4.93,0,0,0,.55-.54,7.75,7.75,0,0,0,.91-1.32,5.63,5.63,0,0,0,.57-1.5,3.42,3.42,0,0,0,.07-.55,1.4,1.4,0,0,0,0-.23.14.14,0,0,0,0-.06.15.15,0,0,0-.19-.05,1.45,1.45,0,0,0-.18.14,2.26,2.26,0,0,0-.41.38,5.16,5.16,0,0,0-.87,1.35,7.5,7.5,0,0,0-.54,1.51,4.42,4.42,0,0,0-.11.76Z"/><path class="cls-2" d="M93.06,31.15a.13.13,0,0,0,.19,0,4.63,4.63,0,0,0,.42-.63A7.31,7.31,0,0,0,94.3,29a5.46,5.46,0,0,0,.27-1.59,3.73,3.73,0,0,0,0-.56c0-.13,0-.22,0-.22l0,0a.14.14,0,0,0-.2,0l-.15.16a4.91,4.91,0,0,0-.32.46,5.46,5.46,0,0,0-.59,1.5,8.36,8.36,0,0,0-.22,1.6,4.63,4.63,0,0,0,0,.76.14.14,0,0,0,0,.08Z"/><path class="cls-2" d="M92.19,30.72a1.52,1.52,0,0,0-.17.15,3.19,3.19,0,0,0-.39.41,5.5,5.5,0,0,0-.8,1.41,7.72,7.72,0,0,0-.45,1.56,4.13,4.13,0,0,0-.07.77.12.12,0,0,0,0,.09.13.13,0,0,0,.19,0,4.47,4.47,0,0,0,.52-.57,7.29,7.29,0,0,0,.83-1.4,5.29,5.29,0,0,0,.5-1.54,4.54,4.54,0,0,0,0-.57,2,2,0,0,0,0-.22s0-.05,0-.06a.13.13,0,0,0-.19,0Z"/><path class="cls-2" d="M87.75,40.09a.13.13,0,0,0,.19,0,4.7,4.7,0,0,0,.47-.61A8,8,0,0,0,89.14,38a5.45,5.45,0,0,0,.38-1.59,3.57,3.57,0,0,0,0-.57,1.42,1.42,0,0,0,0-.22l0-.06a.14.14,0,0,0-.2,0l-.16.16a3.2,3.2,0,0,0-.35.44,5.65,5.65,0,0,0-.69,1.48,7.89,7.89,0,0,0-.34,1.61,4.68,4.68,0,0,0,0,.77.13.13,0,0,0,0,.09Z"/><path class="cls-2" d="M85.83,43.9a.1.1,0,0,0,0,.08.13.13,0,0,0,.18,0,3.87,3.87,0,0,0,.39-.67A7.76,7.76,0,0,0,87,41.73a5.72,5.72,0,0,0,.17-1.63,3.38,3.38,0,0,0-.07-.56,1.71,1.71,0,0,0-.06-.22l0,0a.13.13,0,0,0-.2,0l-.14.18a3.43,3.43,0,0,0-.3.48,5.72,5.72,0,0,0-.5,1.56,8.18,8.18,0,0,0-.13,1.64,3.86,3.86,0,0,0,.09.77Z"/><path class="cls-2" d="M89.5,47.81a4.64,4.64,0,0,0,.59-.52,8.05,8.05,0,0,0,1-1.29,5.65,5.65,0,0,0,.68-1.48,3.19,3.19,0,0,0,.11-.56,1.73,1.73,0,0,0,0-.22.08.08,0,0,0,0-.07.14.14,0,0,0-.19-.06l-.19.13a3.54,3.54,0,0,0-.43.36,5.64,5.64,0,0,0-1,1.32,7.48,7.48,0,0,0-.65,1.5,4.44,4.44,0,0,0-.16.76.1.1,0,0,0,0,.09.13.13,0,0,0,.18,0Z"/><path class="cls-2" d="M88,47.28a.14.14,0,0,0-.2,0l-.16.16a3.15,3.15,0,0,0-.36.44,5.44,5.44,0,0,0-.71,1.47,7.26,7.26,0,0,0-.35,1.6,4.3,4.3,0,0,0,0,.78.11.11,0,0,0,0,.08.14.14,0,0,0,.19,0,4.22,4.22,0,0,0,.48-.61,7.92,7.92,0,0,0,.75-1.46,5.82,5.82,0,0,0,.4-1.58,2.68,2.68,0,0,0,0-.57c0-.14,0-.23,0-.23l0-.06Z"/><path class="cls-2" d="M95.62,45.25h-.23a4.54,4.54,0,0,0-.57,0,5.3,5.3,0,0,0-1.55.49,7.61,7.61,0,0,0-1.41.83,5.14,5.14,0,0,0-.58.52.09.09,0,0,0,0,.08.13.13,0,0,0,.13.14,4.21,4.21,0,0,0,.78-.07,7.61,7.61,0,0,0,1.57-.45A5.51,5.51,0,0,0,95.15,46a4.4,4.4,0,0,0,.42-.38l.14-.18s0,0,0-.06a.15.15,0,0,0-.12-.16Z"/><path class="cls-2" d="M92.25,48.72a4.19,4.19,0,0,0,.38-.43,1.51,1.51,0,0,0,.12-.19.14.14,0,0,0-.11-.21h-.23a4.51,4.51,0,0,0-.56.1,5.54,5.54,0,0,0-1.49.65,7.79,7.79,0,0,0-1.32,1,5.36,5.36,0,0,0-.53.57.29.29,0,0,0,0,.09.12.12,0,0,0,.14.12,4.37,4.37,0,0,0,.77-.14,8.09,8.09,0,0,0,1.51-.61,5.72,5.72,0,0,0,1.34-.93Z"/><path class="cls-2" d="M89.89,51.5a3.07,3.07,0,0,0,.37-.43,1.48,1.48,0,0,0,.13-.18.19.19,0,0,0,0-.07.14.14,0,0,0-.14-.14.92.92,0,0,0-.22,0,3.75,3.75,0,0,0-.56.09,5.46,5.46,0,0,0-1.5.65,8.22,8.22,0,0,0-1.32,1,4.24,4.24,0,0,0-.52.58.11.11,0,0,0,0,.08.14.14,0,0,0,.14.13A5,5,0,0,0,87,53a7.53,7.53,0,0,0,1.52-.61,5.44,5.44,0,0,0,1.34-.93Z"/><path class="cls-2" d="M87,53.74a1.21,1.21,0,0,0-.22.08,3.84,3.84,0,0,0-.5.25A5.61,5.61,0,0,0,85,55.13a8.39,8.39,0,0,0-1,1.31,4.13,4.13,0,0,0-.33.71.14.14,0,0,0,0,.09.12.12,0,0,0,.17.07,5,5,0,0,0,.69-.36,8.21,8.21,0,0,0,1.27-1,5.42,5.42,0,0,0,1-1.29,2.94,2.94,0,0,0,.23-.51c0-.14.07-.22.07-.22a.09.09,0,0,0,0-.07.15.15,0,0,0-.17-.1Z"/><path class="cls-2" d="M83.84,48.08a.22.22,0,0,0,0,.08.15.15,0,0,0,.19,0,4.64,4.64,0,0,0,.34-.7,6.77,6.77,0,0,0,.44-1.58,5.78,5.78,0,0,0,.08-1.63,4,4,0,0,0-.11-.56c0-.13-.07-.21-.07-.21l0-.06a.14.14,0,0,0-.2,0,1.41,1.41,0,0,0-.13.19,3.21,3.21,0,0,0-.26.5,5.36,5.36,0,0,0-.4,1.59,8.32,8.32,0,0,0,0,1.64,5,5,0,0,0,.14.76Z"/><path class="cls-2" d="M75.68,37.85a5.33,5.33,0,0,0,.26.77.11.11,0,0,0,.07.06.12.12,0,0,0,.17-.07,4.8,4.8,0,0,0,.23-.78,8.42,8.42,0,0,0,.17-1.7,6.58,6.58,0,0,0-.21-1.7,5.59,5.59,0,0,0-.2-.56,2.08,2.08,0,0,0-.11-.21l0,0a.15.15,0,0,0-.19.06s0,.08-.09.21a3.9,3.9,0,0,0-.18.57,6,6,0,0,0-.12,1.7,8.63,8.63,0,0,0,.25,1.7Z"/><path class="cls-2" d="M74.46,46a4.63,4.63,0,0,0,.27.77.13.13,0,0,0,.06.07A.14.14,0,0,0,75,46.8a6.21,6.21,0,0,0,.22-.78,8.6,8.6,0,0,0,.17-1.71,5.81,5.81,0,0,0-.21-1.7,3.3,3.3,0,0,0-.2-.55,2.28,2.28,0,0,0-.1-.21s0,0-.06-.05a.13.13,0,0,0-.18.05,1.24,1.24,0,0,0-.1.22,2.92,2.92,0,0,0-.17.56,5.75,5.75,0,0,0-.13,1.71A8.64,8.64,0,0,0,74.46,46Z"/><path class="cls-2" d="M73.6,55.5a4.75,4.75,0,0,0,.31.75.12.12,0,0,0,.07.07.14.14,0,0,0,.17-.09,4.57,4.57,0,0,0,.18-.79,9.19,9.19,0,0,0,.07-1.71,6.15,6.15,0,0,0-.3-1.68,3.65,3.65,0,0,0-.24-.54,2.08,2.08,0,0,0-.11-.21l-.06,0a.12.12,0,0,0-.18.06,2.19,2.19,0,0,0-.09.22,3.53,3.53,0,0,0-.14.58,6,6,0,0,0,0,1.71,8.72,8.72,0,0,0,.35,1.67Z"/><path class="cls-2" d="M79.33,32.54a.13.13,0,0,0-.19,0,1.52,1.52,0,0,0-.17.15,4.85,4.85,0,0,0-.37.43,5.39,5.39,0,0,0-.74,1.46,7.87,7.87,0,0,0-.4,1.59,4.48,4.48,0,0,0,0,.78.12.12,0,0,0,0,.08.14.14,0,0,0,.19,0,4.13,4.13,0,0,0,.49-.6A6.89,6.89,0,0,0,78.92,35a5.59,5.59,0,0,0,.44-1.57,4,4,0,0,0,0-.57c0-.14,0-.23,0-.23a.09.09,0,0,0,0-.06Z"/><path class="cls-2" d="M98.69,26.94a1,1,0,0,0-.21,0,3,3,0,0,0-.5.14,4.52,4.52,0,0,0-1.29.74,6.56,6.56,0,0,0-1.06,1,3.62,3.62,0,0,0-.39.6.11.11,0,0,0,0,.08.13.13,0,0,0,.15.11,3.73,3.73,0,0,0,.68-.2,6.65,6.65,0,0,0,1.32-.71,4.6,4.6,0,0,0,1.08-1,2.76,2.76,0,0,0,.28-.43c.06-.12.09-.2.09-.2a.43.43,0,0,0,0-.05.15.15,0,0,0-.15-.14Z"/><path class="cls-2" d="M93.19,35.34a4.45,4.45,0,0,0,1-1.06,3.31,3.31,0,0,0,.26-.45l.08-.19v-.06a.14.14,0,0,0-.15-.13l-.21,0a3,3,0,0,0-.49.16,4.48,4.48,0,0,0-1.24.8,6.24,6.24,0,0,0-1,1.09,3.51,3.51,0,0,0-.36.61.11.11,0,0,0,0,.08.13.13,0,0,0,.16.1,3.62,3.62,0,0,0,.67-.23,7.08,7.08,0,0,0,1.27-.76Z"/><path class="cls-2" d="M91.37,39.11a2.69,2.69,0,0,0,.22-.47.85.85,0,0,0,.06-.2.06.06,0,0,0,0-.06.13.13,0,0,0-.16-.11,1.16,1.16,0,0,0-.2,0,3.91,3.91,0,0,0-.49.2,4.69,4.69,0,0,0-1.18.91,6.51,6.51,0,0,0-.92,1.17,3.71,3.71,0,0,0-.32.65.11.11,0,0,0,0,.08.14.14,0,0,0,.17.09,3.83,3.83,0,0,0,.65-.29,6.63,6.63,0,0,0,1.22-.87,4.87,4.87,0,0,0,1-1.15Z"/><path class="cls-2" d="M94.44,79a4.65,4.65,0,0,0-.76-1.82,7.31,7.31,0,0,0-1.19-1.46,2.74,2.74,0,0,0-1.34-.61,4.13,4.13,0,0,0-.89.5c.14.11.27.21.41.34a4.12,4.12,0,0,1,.43.41,3.7,3.7,0,0,1,.42.46,4,4,0,0,1,.39.51,5.14,5.14,0,0,1,.35.55l.17.29.14.3.15.3,0,.08,0,.08,0,.15a5.91,5.91,0,0,1,.33,1.3,11.17,11.17,0,0,1,.09,1.28c0,.82,0,1.59,0,2.25l0,2.2s0-.88,0-2.2c0-.66,0-1.43-.06-2.25a10.86,10.86,0,0,0-.14-1.25,5.56,5.56,0,0,0-.36-1.23L92.52,79l0-.07,0-.07-.15-.29-.15-.28L92,78a4,4,0,0,0-.36-.52,3.6,3.6,0,0,0-.39-.47,5.6,5.6,0,0,0-.41-.43,5,5,0,0,0-.43-.37,4.25,4.25,0,0,0-.43-.31l-.08-.06a10.42,10.42,0,0,0-.78.73,9,9,0,0,1,.94.82,7,7,0,0,1,1.37,1.82,6.63,6.63,0,0,1,.51,1.58c.22,1,.39,2.07.56,3.11a15.34,15.34,0,0,0,.69,2.58l.06.17A32.64,32.64,0,0,1,94,83.32a12.16,12.16,0,0,0,.48-3.88c0-.15,0-.31,0-.46Z"/></g></g></svg>