<svg xmlns="http://www.w3.org/2000/svg" viewBox="0 0 141.2 141.2"><defs><style>.cls-1{fill:none;}.cls-2{}</style></defs><g id="Calque_2" data-name="Calque 2"><g id="Layer_1" data-name="Layer 1"><rect class="cls-1" width="141.2" height="141.2" rx="70.6"/><path class="cls-2" d="M78.13,46a4,4,0,0,0,.21-2.92c-.6-1.79-1-3.65-1.5-5.49s-.86-3.44-1.26-5.16a8.58,8.58,0,0,1-.14-1.23c.39-.29.62-.19.79,0h0a2.4,2.4,0,0,1,.28.61c.34,1.18.64,2.36,1,3.53.45,1.44.94,2.87,1.49,4.53.12-.85.19-1.5.32-2.14a49.37,49.37,0,0,1,1.88-7.29l0-.1c.1-.33.28-.67.66-.52a.87.87,0,0,1,.29.71c-.07,1.06-.21,2.12-.33,3.18a23.61,23.61,0,0,0-.17,2.79c.42-1.52.76-3.06,1.25-4.55s.63-3.09,1.61-4.36h0a.69.69,0,0,1,.49.27.68.68,0,0,1,.12.55A10.22,10.22,0,0,1,85,30.36c-.35,1.7-.76,3.39-1.17,5.2.78-1.16,1.48-2.24,2.23-3.3a7.86,7.86,0,0,1,1.1-1.21.5.5,0,0,1,.6-.12.5.5,0,0,1,.26.55,4.6,4.6,0,0,1-.32,1.21c-.43,1-.93,2.06-1.32,3.11a42,42,0,0,1-2.91,5.46.91.91,0,0,0-.15.49l.59-.39a44.87,44.87,0,0,1,6.08-4,6.26,6.26,0,0,1,.89-.38c.57-.18.9.11.78.68h0a1.43,1.43,0,0,1-.35.68,11.39,11.39,0,0,1-1.69,1.71,55.13,55.13,0,0,1-8.18,5.15,2.87,2.87,0,0,0-1.63,2c-.34,1.4-.81,2.78-1.22,4.18h0a.66.66,0,0,0,.06.55c.22-.36.45-.7.64-1.07a29.83,29.83,0,0,1,3.3-5.1c.25-.32.51-.8,1-.53s.2.77,0,1.12c-.58,1.19-1.2,2.35-1.81,3.52a1.78,1.78,0,0,0-.23.74c1-.84,2-1.71,3-2.49h0a14.19,14.19,0,0,1,2.17-1.25.92.92,0,0,1,.79.07c.29.28,0,.6-.17.85a26.22,26.22,0,0,1-5.19,4.9c-1.59,1-3.22,2-4.82,3h0a.88.88,0,0,0-.36.3c-.52,1.1-1,2.21-1.52,3.32a1,1,0,0,0,0,.29c.69-.66,1.34-1.31,2-1.93,1.21-1.11,2.37-2.28,3.66-3.28s2.63-1.74,4-2.58c.25-.16.56-.5.85-.16s-.17.57-.35.77C84.16,54,82.79,55.58,81.29,57c-.88.83-2,1.44-2.93,2.23.9-.44,1.78-.93,2.69-1.32,1.36-.58,2.75-1.1,4.13-1.64h0a.59.59,0,0,1,.37-.06,1.29,1.29,0,0,1,.72.35.92.92,0,0,1-.27.72A8.77,8.77,0,0,1,83.12,59c-2.57,1.11-5.15,2.2-7.75,3.24a1.91,1.91,0,0,0-1.27,1.41c-.25.88-.65,1.72-1,2.74.53-.53,1-.91,1.34-1.34,1.3-1.47,3.09-2.31,4.57-3.56h0a.54.54,0,0,1,.51-.05.57.57,0,0,1,.15.5,1.73,1.73,0,0,1-.45.73c-.7.61-1.47,1.15-2.15,1.79S75.7,65.88,75,66.64c.85-.38,1.65-.71,2.43-1.09,1.76-.88,3.47-1.84,5.26-2.65a26.7,26.7,0,0,1,3.47-1.17,1.29,1.29,0,0,1,.67.18,1.45,1.45,0,0,1-.23.66A19.24,19.24,0,0,1,84,64.34c-2,1-4,2-6,3-1,.5-2.12.91-3.35,1.43h0a2.78,2.78,0,0,0,1.73-.19c1-.39,1.91-.77,2.88-1.12a1.72,1.72,0,0,1,.6,0,2.63,2.63,0,0,1-.13.62,6.13,6.13,0,0,1-.57.77,6.78,6.78,0,0,0,1-.16c1-.37,1.9-.79,2.87-1.15a12.09,12.09,0,0,1,1.65-.51,1.31,1.31,0,0,1,.59.14,1.16,1.16,0,0,1-.15.51c-.43.39-.89.74-1.35,1.1-.25.19-.52.36-.86.6.49.23.9.4,1.28.61h0a.84.84,0,0,1,.4.45.87.87,0,0,1-.49.49,11.5,11.5,0,0,1-2.86.42,6.94,6.94,0,0,0-3.46,1c-1,.45-1.94.84-2.92,1.24-.71.3-1.43.57-2.15.86a.78.78,0,0,0-.24.16c-.77.91-1.54,1.81-2.25,2.82l1.39-.87a41.77,41.77,0,0,1,5.73-3.21c.18-.08.36-.14.54-.2.69-.23.72-.21,1,.39l3.67-.88h0a1.84,1.84,0,0,1,.47-.07.46.46,0,0,1,.5.24.47.47,0,0,1-.07.55,2.1,2.1,0,0,1-.72.76A39.47,39.47,0,0,1,79.25,76c-1.44.62-3,1.08-4.44,1.64-2.26.84-4.51,1.7-6.77,2.57h0a4.66,4.66,0,0,0-.76.41,1.46,1.46,0,0,0-.22.33c.26,0,.42,0,.58-.06,1.94-.32,3.88-.66,5.82-1h0a.92.92,0,0,0,.86-.45A1.32,1.32,0,0,1,75,79c1.31-.51,2.64-1,4-1.46a3.62,3.62,0,0,1,.87,0c0,1.16-1.2,1.33-1.64,2.12a12.69,12.69,0,0,1,1.37.25,2.33,2.33,0,0,1,.57.42,1.82,1.82,0,0,1-.53.46c-1,.28-2,.52-3.09.77l-.56.11h0a6.38,6.38,0,0,0-2.54,1.08c-2.17,1.38-4.41,2.63-6.62,4-1,.61-2,1.23-3,1.89h0A4.34,4.34,0,0,0,62.31,91c.61-.41,1.22-.84,1.84-1.24,1-.62,2-1.22,3-1.82.47-.29.93-.6,1.4-.87a15.92,15.92,0,0,1,4-1.65.45.45,0,0,1,.65.3A15.55,15.55,0,0,1,70,88.1c-1.07.76-2.25,1.36-3.39,2h0a3.86,3.86,0,0,0,.49-.06c1.49-.51,3-1.09,4.48-1.52h0a33.38,33.38,0,0,1,3.69-.72.89.89,0,0,1,.71.27,1,1,0,0,1-.27.83,6.85,6.85,0,0,1-1.37.89A18.59,18.59,0,0,1,69,91.64c-2.12.4-4.21.92-6.32,1.38a1.88,1.88,0,0,1-.47.1c-.93,0-1.29.56-1.57,1.49,1.06-.23,2-.46,3-.62,1.17-.21,2.35-.37,3.53-.52s2.51-.21,3.73-.46h0a28.87,28.87,0,0,0,3-1,1.07,1.07,0,0,1,1.24.26l-.68.89c.32.14.64.25.93.4A.78.78,0,0,1,75.65,95a2,2,0,0,1-1,.51c-1,.18-2.05.26-3.07.4h0a3.3,3.3,0,0,0-.92.2c-1,.49-2,1-3,1.52-2.64,1.21-5.31,2.33-7.92,3.59a4.53,4.53,0,0,0-2.37,2.17c-.26.56-.8,1-1.12,1.54-1.3,2.23-2.56,4.48-3.86,6.71h0a13.73,13.73,0,0,1-1.15,1.67c-.36.44-.7.35-.94-.2s-.43-1.07-.66-1.6h0a.64.64,0,0,1,.18-.78,9.64,9.64,0,0,0,.92-1.09c1.43-2.11,2.84-4.24,4.28-6.33a3,3,0,0,0,.4-2.48c-.46-2.28-.93-4.55-1.31-6.85a33.34,33.34,0,0,1-.26-3.47h0a2.79,2.79,0,0,0-.55-1.41c-.6-.91-1.16-1.86-1.68-2.82-.62-1.17-1.18-2.37-1.77-3.55h0a1.74,1.74,0,0,1-.17-.45.36.36,0,0,1,.11-.4.33.33,0,0,1,.41,0,4.32,4.32,0,0,1,1,.73c.82.82,1.61,1.67,2.46,2.56.2-.48,0-1.28,1-1.28A3.3,3.3,0,0,1,55.16,86a5.25,5.25,0,0,0,.87,3.1c1,1.69,1.92,3.42,3,5.27.29-.7.54-1.21.7-1.75h0a1.11,1.11,0,0,0-.09-.8,81.86,81.86,0,0,1-4.52-8.66c-.59-1.25-1.19-2.51-1.71-3.79a7,7,0,0,1-.29-1.58.9.9,0,0,1,1.17.58c.84,1.37,1.71,2.74,2.47,4.16,1,1.79,1.82,3.63,2.68,5.47.38.81.66,1.67,1.07,2.71l1-2.17h0a2.58,2.58,0,0,1,.19-.53.94.94,0,0,0,.12-1.07c-.64-1.83-1.32-3.64-1.88-5.49-.33-1.07-.44-2.21-.67-3.31h0A4.71,4.71,0,0,1,59,75.76a2.12,2.12,0,0,0-.59-2.08,32.37,32.37,0,0,1-3.07-5c-.2-.36-.52-.81,0-1.12h0a.86.86,0,0,1,1.11.34c.79.93,1.59,1.86,2.3,2.85s1.4,2.17,2.09,3.25l3.39,5.39.23-.11h0a20,20,0,0,0-1.09-2.46,17.2,17.2,0,0,1-2.24-5.94c-.11-.6-.24-1.2-.3-1.81a1.2,1.2,0,0,1,.29-.53,1.38,1.38,0,0,1,.43.32c.63,1.34,1.27,2.68,1.84,4,.51,1.21.94,2.46,1.39,3.71.27.75.5,1.52.81,2.49a7.7,7.7,0,0,0,1-3.09,1.68,1.68,0,0,0-.31-.8,67.52,67.52,0,0,1-4.69-10,7.67,7.67,0,0,1-.62-3.1.8.8,0,0,1,.62.12.77.77,0,0,1,.32.55c.83,1.78,1.64,3.57,2.47,5.35.75,1.6,1.52,3.2,2.4,4.8h0a20.84,20.84,0,0,0,0-2.5,29.75,29.75,0,0,1,.13-4.72,1.85,1.85,0,0,0-.06-.74c-.39-.88-.91-1.71-1.25-2.61-.69-1.87-1.83-3.57-2.18-5.57h0a4,4,0,0,1,0-2.33c.53-.12.57.27.7.54l3.16,6.85h0a28.57,28.57,0,0,0,1.31,2.59c-.15-.67-.33-1.34-.44-2-.25-1.59-.48-3.19-.69-4.78h0a2.22,2.22,0,0,1,.06-1,.7.7,0,0,1,.46-.41.66.66,0,0,1,.53.3,6.62,6.62,0,0,1,.5,1.46c.44,2.37.86,4.76,1.25,7.14.13.79.16,1.59.24,2.54h0a7.42,7.42,0,0,0,.44-.7c.55-1.34,1.09-2.69,1.64-4a1.15,1.15,0,0,0-.18-1.19q-.5-.64-1-1.29h0a16.73,16.73,0,0,1-2.21-4.07c-.79-1.9-1.47-3.85-2.17-5.79a8.21,8.21,0,0,1-.22-1.3,3.33,3.33,0,0,1,.92.36,4.65,4.65,0,0,1,1,1.14c.57,1,1.09,2.12,1.57,3.21.67,1.54,1.28,3.1,1.92,4.65h0a1.26,1.26,0,0,0,.22.24c-.21-1.52-.4-3-.62-4.45-.27-1.81-.58-3.62-.84-5.44a4.64,4.64,0,0,1,0-1.44,1,1,0,0,1,.48-.63.58.58,0,0,1,.46.11.56.56,0,0,1,.21.43c.18.75.32,1.51.49,2.27.11.53.27,1.06.36,1.6.19,1.14.37,2.29.5,3.44s.23,2.57.34,3.85c0,.12.05.23.13.58.44-1.07.8-1.92,1.13-2.79h0a1,1,0,0,0,0-.65c-1.18-3.36-1.25-6.91-1.82-10.37-.15-.92-.43-1.82-.62-2.73a3.64,3.64,0,0,1-.09-1.23.51.51,0,0,1,.88-.32,2.34,2.34,0,0,1,.67,1c.31,1.12.53,2.26.77,3.39.28,1.36.58,2.71.8,4.07a14.25,14.25,0,0,1,0,1.73,27.35,27.35,0,0,0,.3,2.87,9.51,9.51,0,0,0,1.48-4.6,7.45,7.45,0,0,0-.51-2c-.17-.61-.38-1.23-.57-1.84a5.75,5.75,0,0,0-.21-.74h0a38.89,38.89,0,0,1-1.94-6.78c-.13-.66-.28-1.31-.38-2a1.18,1.18,0,0,1,.2-.49,1.2,1.2,0,0,1,.54.27,23,23,0,0,1,1.42,2.75c.7,1.77,1.31,3.57,1.92,5.37A12.71,12.71,0,0,1,78.13,46Zm7.43-10,0-.32h0a7.16,7.16,0,0,1,.39-.66A9.73,9.73,0,0,0,87,32.22a12.46,12.46,0,0,0-1.75,2.15c-1.06,1.72-2.1,3.47-3.1,5.23-.67,1.2-1.27,2.45-1.88,3.7a3,3,0,0,0-.43,1.76c1-1.09,1.05-1.12,1.14-2.32a.94.94,0,0,1,.16-.42c.29-.54.61-1.06.9-1.6h0a13.67,13.67,0,0,1,2.76-4l.33.48Zm-12,35.57L74,71h0a4.18,4.18,0,0,0-1.82,1l1.34-.39c-.44.28-.9.55-1.33.85s-.77.6-1.16.91h0a.93.93,0,0,0-1,.43l1-.44a8.06,8.06,0,0,0,3.4-1.92l-.91.18ZM66,80.51a.77.77,0,0,1-.57.69c-.2.13-.49.23-.32.58.89-.44,1-.59.89-1.27l.51-1.11c.38-.87.77-1.75,1.13-2.63a.41.41,0,0,0,0-.39.38.38,0,0,0-.32-.21.61.61,0,0,0-.19.17c-.42,1.21-.84,2.41-1.24,3.63a1.26,1.26,0,0,0,.09.54Zm8.54-29.86a6.34,6.34,0,0,0,.5,2.75,4.9,4.9,0,0,0-.51-2.74.7.7,0,0,1,0-.38,1.19,1.19,0,0,0,.11-1.49,1.7,1.7,0,0,1-.06-.71,3.74,3.74,0,0,0,0-.75c-.38-1.65-.78-3.31-1.18-5a2.78,2.78,0,0,0-.41-.56,6,6,0,0,0,.09.61,23.4,23.4,0,0,1,.9,5.11c.1,1,.35,2.08.53,3.12Zm1.53,16.48,2.53-1.32h0a.41.41,0,0,1,.19,0l.1.58L80.33,65c.3.1.47.55.76.11h0a.49.49,0,0,1,.26-.23c.84.1,1.33-.57,2-.86a6.7,6.7,0,0,0,1-.69l1-.62-.13-.23-2.72,1.14h0c-.36.13-.73.24-1.08.4l-5.26,2.54c0,.19,0,.37-.07.56l-.4.41.19.13ZM75.17,94.3a2.81,2.81,0,0,0-.7-.33,28.72,28.72,0,0,0-3.34-.26c-1.06,0-2.11.24-3.17.3a27.49,27.49,0,0,0-6.37,1.08c-.2.06-.4.15-.6.23a7.84,7.84,0,0,0,1.37,0c.7,0,1.4,0,2.1,0a21.3,21.3,0,0,0,3.66,0,16,16,0,0,0,4.76-1.13,1.51,1.51,0,0,1,.56,0l0,.19-1.55.76.07.18c1-.46,2.19.13,3.16-.94ZM62.7,86a1.37,1.37,0,0,0,.2-.22c.49-1.15,1.05-2.28,1.44-3.46h0a1.8,1.8,0,0,0-.48-2.11,5.91,5.91,0,0,1-.6-.63c-.92-1-1.83-2-2.77-3.07.43,1.56.91,3.08,1.27,4.64s.62,3.18.94,4.85Zm6.22,10.34-.07-.25a5.67,5.67,0,0,0-1.79.11c-1.18.49-2.29,1.15-3.43,1.74-.74.38-1.46.82-2.23,1.15h0a24.58,24.58,0,0,0-4.6,2.8,3.44,3.44,0,0,0-.67.8c-.8,1.17-1.6,2.34-2.38,3.51l-1.54,2.33h0a1,1,0,0,0,.84-.3c.54-.75,1-1.55,1.52-2.33.14-.21.31-.4.47-.6a11.8,11.8,0,0,0,.84-1,8.47,8.47,0,0,1,3.17-3.41c1.26-.64,2.46-1.4,3.7-2.07A1.64,1.64,0,0,1,64,98.48a.51.51,0,0,0,.43-.24.65.65,0,0,1,.25-.46.66.66,0,0,1,.51-.1c1.43,0,2.46-.93,3.71-1.34Zm-6.85-4,0,.18c.72-.12,1.46-.19,2.17-.35,1.54-.33,3.07-.68,4.6-1h0a19.27,19.27,0,0,0,5.25-1.88,1.13,1.13,0,0,0,.78-.75,25.12,25.12,0,0,0-2.72.53c-3.1.94-6.18,1.93-9.27,2.91a6.65,6.65,0,0,0-.85.41Zm-3,7,.22.21,6.44-3.38h0a11.49,11.49,0,0,0-5-.09,1,1,0,0,0-.7.54c-.36.89-.64,1.81-.94,2.72Zm24.19-28.8,0-.31c-.64-.18-1.27-.41-1.91-.53a8.32,8.32,0,0,0-2.67-.32c-.91.13-1.74-.22-2.62-.11-1.09.14-2.19.15-3.29.21,1.58.43,3.16.69,4.74,1a18.56,18.56,0,0,0,4.21.33,12.52,12.52,0,0,0,1.49-.25ZM81.12,44.63l.09.13c.5-.27,1-.53,1.48-.81h0a2.38,2.38,0,0,0,1-.66,2.86,2.86,0,0,1,1.61-1.48c1-.59,2-1.08,3.07-1.63a6.2,6.2,0,0,0,2.49-2.43,6.52,6.52,0,0,0-1,.31,34.67,34.67,0,0,0-8.1,5.86,8.54,8.54,0,0,0-.64.71ZM71.74,78c2.3-.38,9.79-3.27,10.81-4.53a3,3,0,0,0-2,.25c-1.76.72-3.49,1.47-5.23,2.22h0a.83.83,0,0,0-.46.31,1.11,1.11,0,0,1-1,.81c-.72.34-1.46.63-2.2.94Zm-14,15.44A6.76,6.76,0,0,0,57,92.2a13.86,13.86,0,0,1-2.06-3.34,11.05,11.05,0,0,0-.47-1.25c-.77-1.14-1.59-2.26-2.43-3.35a6.57,6.57,0,0,0-1-.88l-.15.12c.74,1.47,1.47,2.94,2.22,4.44l.42-.39h0a23.93,23.93,0,0,0,4.18,5.85Zm6.7-7.33.1.12c1-.69,1.9-1.42,2.89-2.06s2-1.21,3.08-1.81h0a13.7,13.7,0,0,0-2.64.11,8.6,8.6,0,0,0-1.33.23,1.23,1.23,0,0,0-.66.48c-.51,1-1,2-1.44,2.93ZM56.2,92.86l-.27.11c0,.38,0,.76.07,1.14l.45,4.41a4.87,4.87,0,0,0,.13,1.37c.56-1.46,1.07-2.78,1.55-4.1h0a.68.68,0,0,0,0-.54c-.62-.81-1.27-1.59-1.91-2.39ZM79,53.8l.18.27L80.77,53c.79-.54,1.87-.77,2.06-1.94.88-.54,1.27-1.73,2.48-1.83h0a.55.55,0,0,0,.28-.24l1-1.15c-3,1.41-5,4.05-7.59,6ZM68.77,75l.1.19c1.4-.44,2.81-.89,4.21-1.35h0a.94.94,0,0,0,.53-.39.74.74,0,0,1,1-.39c.33.11.43-.08.66-.3a2.38,2.38,0,0,1,1.67-1l-.65.61.11.15,2.22-1.21a1.59,1.59,0,0,0-1.58-.09c-.53.23-1,.48-1.58.72l-4.73,2.13-2,.9Zm-.7-9.53h0A81.89,81.89,0,0,0,64,56.57a12.11,12.11,0,0,0,.62,2.29c.62,1.55,1.29,3.08,2,4.6a3.56,3.56,0,0,0,1.51,2Zm-.4,16.3a47.14,47.14,0,0,0,10.9-1.35,41.46,41.46,0,0,0-5.68.25,2,2,0,0,1,1.51.46c-1.25,0-2.36,0-3.48.07a7.1,7.1,0,0,0-3.25.57Zm16-28.09c-1.66.44-5.33,3.51-6.88,5.71l.41-.2c1.79-.8,2.81-2.48,4.17-3.76A1,1,0,0,1,82.66,55Zm-14,3a1.26,1.26,0,0,0,.37-1.15c-.46-1-.8-2.11-1.28-3.12a5.26,5.26,0,0,0-1.41-2c.42,2.33,1.6,4.19,2.32,6.23Zm-13.56,12c1.07,2.63,3.42,6,4.46,6.47h0a28.46,28.46,0,0,0-4.46-6.47ZM54.49,80l-.21.09c.73,1.5,1.47,3,2.18,4.5h0a29.86,29.86,0,0,1,1.78,3.47,11.27,11.27,0,0,0,1.11,2A55.29,55.29,0,0,0,54.49,80Zm8.24,8.27.06.12a1,1,0,0,0,.34-.06c.95-.65,1.9-1.29,2.84-2a21.77,21.77,0,0,1,4.55-3,3.58,3.58,0,0,0,.55-.38,1,1,0,0,1,1-.3A.87.87,0,0,0,73,82a7.15,7.15,0,0,0-1.36.35,51.55,51.55,0,0,0-7.88,5.19l-1.05.76Zm9.75-33.9h0a3.86,3.86,0,0,0,.23-1.27c-.33-1.64-.73-3.26-1.11-4.89h0a.26.26,0,0,0-.13-.08c0,2.94.68,6.86,1.59,7.93-.21-.59-.41-1.19-.58-1.69Zm.7,8.32c-.5,1.26-.94,2.23-1.27,3.23a11.86,11.86,0,0,0-1.08,3,.67.67,0,0,0,.37-.31c.7-1.37,1.4-2.73,2.07-4.12h0a3.87,3.87,0,0,0,.29-1.11,1.81,1.81,0,0,0-.38-.64Zm9.55-16.06h0a48.23,48.23,0,0,0-4.28,6.86c1.62-2.17,3.46-4.2,4.28-6.86Zm-1.83-9c.21-2,.43-3.94.65-5.92l-.23,0c-.45,1.83-.91,3.65-1.36,5.45Zm.72,20.6a37.46,37.46,0,0,0-6,3.33c1.13-.39,2.22-.86,3.35-1.22s1.77-1.37,2.62-2.11ZM64,90.57c2.38-1.08,4.82-2.06,6.77-3.91A43.77,43.77,0,0,0,64,90.57Zm12.8-47.48c-.83-2.8-1.42-4.18-2.14-4.8.5,2,1,3.71,1.31,5.13Zm-18,53c-.95,1.57-1.08,3.23-1.72,4.72,1.49-1,1.77-2.63,2.11-4.2h0a1.43,1.43,0,0,0-.39-.52Zm12.62-26-1.69,3,3.8-2.75-2.11-.28ZM68.08,57.63a25.65,25.65,0,0,0,1.53,8.18A59.82,59.82,0,0,0,68.08,57.63Zm.43,10.05-.24.07c0,.8.11,1.59.09,2.38s-.11,1.52-.18,2.28a7.92,7.92,0,0,0,1.13-1.84,1.66,1.66,0,0,0,.07-1.1,15.54,15.54,0,0,0-.87-1.79ZM84.4,29.22c-.69,2.25-1.67,4.43-1.69,7A25.08,25.08,0,0,0,84.4,29.22ZM61.47,82.74a20.83,20.83,0,0,0-1.81-6c.12,1,.37,1.94.47,2.92h0A10.39,10.39,0,0,0,61.47,82.74ZM75.94,55.8l.17.12a3.53,3.53,0,0,0,.6-.68,15.78,15.78,0,0,0,.82-2.06c.47-1.57.88-3.15,1.31-4.73a4.51,4.51,0,0,0,.08-.53c-.52,1.33-.94,2.69-1.43,4s-1,2.58-1.55,3.88ZM70.71,70.19a.42.42,0,0,0-.4-.07.39.39,0,0,0-.27.3Q68.79,72.69,67.55,75a1.38,1.38,0,0,0,1-.82c.35-.65.73-1.29,1.08-1.94s.73-1.34,1.1-2ZM67.52,66.4c-.27,1.51-.85,3.06.4,4.59A19.13,19.13,0,0,0,67.52,66.4Zm12-23a4.32,4.32,0,0,0,.29-.88,15.87,15.87,0,0,1,.64-2.89c.06-.18.1-.37.16-.55h0a.8.8,0,0,0,0-.66.84.84,0,0,0-.49-.45,20.33,20.33,0,0,0-.59,5.43ZM62,71.09l-.24.07a16.17,16.17,0,0,0,1.93,5.07l.24-.09c-.64-1.68-1.29-3.36-1.93-5Zm16.36-8.34a11.54,11.54,0,0,0-4.52,4Zm.24,15.56A7.48,7.48,0,0,0,75,79.83C76.34,80.07,76.71,79.88,78.57,78.31Zm-23,17.2c-.17-1.3-.32-2.53-.51-3.75h0a1.46,1.46,0,0,0-.37-.45,15.93,15.93,0,0,0,.09,2.93.9.9,0,0,0,.16.41c.17.26.37.51.63.86ZM62.44,65.4l-.3.14c1,1.55,1.22,3.49,2.61,4.86l-2.31-5Zm1.19,20.72a20,20,0,0,0,1.71-3.39,1,1,0,0,0-.26-.4,9.8,9.8,0,0,0-1.45,3.79ZM74,60.91l.24,0c.43-1.28,1.1-2.47,1.59-3.87h0a1.08,1.08,0,0,0-.43.13c-.43,1-.86,1.92-1.26,2.89h0a4.29,4.29,0,0,0-.14.81ZM50.81,112.32l.23.09c.39-.58.77-1.16,1.24-1.88h0a10.63,10.63,0,0,1-1.1.32c-.6.08-.72.19-.61.75h0a5.53,5.53,0,0,0,.24.72ZM82.93,58.47c1.85-.94,1.88-1,2.23-1.62l-2,.63ZM70,75.62c-1.61.2-1.79.4-1.71,1.86Zm4.38-.24.1.16h0a6.68,6.68,0,0,0,3.35-1.85Zm9.28-7.44-2.45,1c1.24.54,1.83-.34,2.45-1ZM68.2,79.44c2.24-.78,2.24-.78,2.44-1.39h0a6,6,0,0,0-2.44,1.39Zm8.69-35c.08.54.15.91.2,1.29s.08.75.14,1.13.14.66.21,1h0a6.51,6.51,0,0,0,0-1.65,2.2,2.2,0,0,0-.52-1.76ZM72.75,68.55a3,3,0,0,0,1.48-.42A3,3,0,0,0,75.29,67Zm-3.72,9,.15.14,1.61-1.86h0A4.11,4.11,0,0,0,69,77.58ZM62.22,88.82a5.47,5.47,0,0,0-1,2.66Zm-.28-3.42-.29-2C61.22,83.87,61.22,83.87,61.94,85.4Zm16.49-45c-.23-.8-.45-1.6-.68-2.4A3.15,3.15,0,0,0,78.43,40.42ZM72.92,57.17l-.25.07.21,1.11.2,0h0a1.17,1.17,0,0,0-.16-1.14Zm9.57-16.34.18.16h0a1.29,1.29,0,0,0,.72-1.2ZM72.29,60.75l-.6-1.31-.18.08c.27.34,0,.94.78,1.23Zm2.47,9.77-.1.17.43.58.6-.52ZM60.53,93.37c-.74.34-.77.42-.69,1.32ZM73.94,76.68l-.08-.19L72.63,77l.06.15Zm-6.48-3,.22,0-.25-1.38-.19,0Zm10-5.09a1.06,1.06,0,0,0,1.38-.55Zm7.43-30.86-.15-.16-.49.66.16.12Zm-2.61,4.45L82,42.1l-.29.68.14.06ZM73.47,93l0-.19-.93.19Zm8.32-37.21-.11-.1-.3.34.14.12ZM66,73.71l.2,0L66,73.27l-.13,0c0,.13.05.27.08.4ZM54.43,86.24l.15,0-.08-.55-.15,0Z"/><path class="cls-2" d="M85.56,36l-.76.68a1.23,1.23,0,0,1,.78-1Z"/><path class="cls-2" d="M82.49,63.65a1,1,0,0,1,.28.27c-.09.29-.23.35-.92.45l.65-.73Z"/></g></g></svg>