<svg xmlns="http://www.w3.org/2000/svg" viewBox="0 0 141.2 141.2"><defs><style>.cls-1{fill-rule:evenodd;}.cls-2{fill:none;}</style></defs><g id="Calque_2" data-name="Calque 2"><g id="Layer_1" data-name="Layer 1"><path class="cls-1" d="M105.49,73.67a1.29,1.29,0,0,1-.35-1.64c1.06-2.59.24-5.88-2.82-6.47a3.78,3.78,0,0,0-4.7,2.94c-.12.35-.12.82-.24,1.29-3.88,0-13-7.64-27.16-4.7C58.82,67.44,53.06,75,53.06,85.9c-.83,2.47-2.71,3.41-5.18,4-7.05,1.53-13.52-2.12-15.64-8.82-1.76-5.53.83-13.29,4.12-18,6-8.7,11.17-12.46,19-18.93,1.41-1.17,1.64-1.76.11-.94-7.29,4.12-16.93,11.29-21.75,18.11-4.58,6.58-7.4,15.16-4.35,22.92,2.94,7.29,13.52,11.53,21.17,8.23,1.52-.7,3.52-1.76,5.29-1.64,2.58,1.88,5.52,1.06,8.81,2.58.71.36,2.36.12,3.77,2.59a3.2,3.2,0,0,0,1.88,1.29c.59.24,1.06.12,1.29.71a.42.42,0,0,0,.12.35c.12-.59.12-.7-.24-1.06s-.58-.47-.58-.58a2.39,2.39,0,0,1,.82.47c.47.23.59.47,1.17.23.24-.12.71.24.83.71,0-.71-.12-.94-.47-1.06a3.6,3.6,0,0,1-.71-.94,11.59,11.59,0,0,0,2,1.06c.71,0,.82-.24,1.29.58A1.3,1.3,0,0,0,75,96.36c.24-.47-1.53-2.35-4.23-3.29,4,.59,14.58,0,18.1-.35a.44.44,0,0,1,.36.12,5.92,5.92,0,0,0,3,1.88c1.18.35,2.94.35,3.53,1.64.24.36.35.12.94.24a.42.42,0,0,0-.23-.35c.35-.71-.83-.94-1.06-1.53a3.86,3.86,0,0,1,2.23,1.17c.12.12.24.24.47.12s.24.47.47.35c-.11-.23,0-.47-.11-.58a5.27,5.27,0,0,0-1.06-1.3s.82.59.94.71.35.23.47.35h.35a4.82,4.82,0,0,1,.24.71,1.31,1.31,0,0,0,.11-1.3,3.73,3.73,0,0,0-1.41-1.29c.47-.12.47,0,.83.47A.71.71,0,0,0,98.67,93c-.23-.12-1.41-.47-1.29-.71a37.34,37.34,0,0,1,3.76-.24c2.24,0,4.23,1.65,6.47,2.24a3.1,3.1,0,0,0,3.53-.82A1.26,1.26,0,0,0,113,92.25c.47-5.06-3.77-14.93-7.53-18.58Z"/><rect class="cls-2" width="141.2" height="141.2" rx="70.6"/></g></g></svg>