<svg xmlns="http://www.w3.org/2000/svg" viewBox="0 0 141.2 141.2"><defs><style>.cls-1{fill:none;}.cls-2{fill-rule:evenodd;}</style></defs><g id="Calque_2" data-name="Calque 2"><g id="Layer_1" data-name="Layer 1"><rect class="cls-1" width="141.2" height="141.2" rx="70.6"/><path class="cls-2" d="M83.3,24.51c31.5,6.17,48.29,40.59,36.55,68.85l-4.73-2.47c10.14-25.15-4.77-55.56-32.67-61.16L86.57,35l-3.81,3L73.44,26.11l11.85-9.32,3,3.8ZM108.62,102l-6.46.75L101.6,98l15-1.75,1.75,15-4.81.56-.75-6.44c-.63.78-1.27,1.56-2,2.32a50.69,50.69,0,0,1-74.88.51,52.46,52.46,0,0,1-4.52-5.67L36.15,100a47.08,47.08,0,0,0,3.68,4.56,45.38,45.38,0,0,0,67-.46c.61-.68,1.19-1.37,1.75-2.08ZM30.23,88.32l2.25-6L37,84l-5.3,14.13L17.6,92.84l1.7-4.53,6.09,2.28C15.32,61.47,34.3,27,68,23.78V29.1C38.37,32.29,21.67,62.52,30.23,88.32Z"/></g></g></svg>