<svg xmlns="http://www.w3.org/2000/svg" viewBox="0 0 141.2 141.2"><defs><style>.cls-1{fill:none;}.cls-2{}</style></defs><g id="Calque_2" data-name="Calque 2"><g id="Layer_1" data-name="Layer 1"><rect class="cls-1" width="141.2" height="141.2" rx="70.6"/><path class="cls-2" d="M52.12,101.72H33.89a1,1,0,0,1-.89-.49L24,85.57a.89.89,0,0,1,0-1L33.1,68.82a1,1,0,0,1,.89-.49H46.08a1,1,0,0,1,1,1,1.06,1.06,0,0,1-1,1H34.48L26.06,85.08l8.52,14.66h17l4.75-8.13a1,1,0,0,1,1.39-.39,1,1,0,0,1,.4,1.39l-5,8.62a1.6,1.6,0,0,1-1,.49Z"/><path class="cls-2" d="M28.74,110.94a.9.9,0,0,1-.5-.1,1,1,0,0,1-.4-1.39l5.26-9.11a1,1,0,0,1,1.38-.4,1,1,0,0,1,.4,1.39l-5.25,9.11a1,1,0,0,1-.89.5Z"/><path class="cls-2" d="M27.25,117a4.26,4.26,0,1,1,4.26-4.26A4.36,4.36,0,0,1,27.25,117Zm0-6.44a2.18,2.18,0,1,0,2.18,2.18A2.2,2.2,0,0,0,27.25,110.54Z"/><path class="cls-2" d="M33.89,70.31a1,1,0,0,1-.89-.49l-2.38-4.17A1,1,0,0,1,31,64.27a1,1,0,0,1,1.39.39l2.38,4.16a1,1,0,0,1-.4,1.39.72.72,0,0,1-.49.1Z"/><path class="cls-2" d="M29.63,66.35a3.15,3.15,0,0,1-1.39-.3,4.21,4.21,0,0,1-2.48-5.25A4.08,4.08,0,0,1,31,58.42a3.91,3.91,0,0,1,2.28,2.08,3.66,3.66,0,0,1,.1,3.07,3.9,3.9,0,0,1-2.08,2.28,2.56,2.56,0,0,1-1.68.5Zm-.7-2.18a1.79,1.79,0,0,0,1.59-.1,1.91,1.91,0,0,0,1.09-1.19,1.79,1.79,0,0,0-.1-1.59,1.88,1.88,0,0,0-1.19-1.09,2.13,2.13,0,0,0-2.67,1.19,2.36,2.36,0,0,0,1.28,2.78Z"/><path class="cls-2" d="M111.18,108.16a.9.9,0,0,1-.5-.1,1,1,0,0,1-.39-1.38l7-12.09L108.8,79.72H91.06a1,1,0,1,1,0-2h18.33a1.05,1.05,0,0,1,.9.5l9.11,15.85a.89.89,0,0,1,0,1l-7.33,12.59a1,1,0,0,1-.89.49Z"/><path class="cls-2" d="M105.53,111.33H91.06a1,1,0,0,1-.89-.49L81.06,95a1,1,0,0,1,.39-1.38,1,1,0,0,1,1.39.39l8.82,15.36h14a1,1,0,0,1,1,1,1.08,1.08,0,0,1-1.09,1Z"/><path class="cls-2" d="M109.3,79.63a.9.9,0,0,1-.5-.1,1,1,0,0,1-.4-1.39l5-8.72a1,1,0,1,1,1.78,1l-5,8.72a.87.87,0,0,1-.89.5Z"/><path class="cls-2" d="M115.74,71.3A4.26,4.26,0,1,1,120,67,4.23,4.23,0,0,1,115.74,71.3Zm0-6.54a2.28,2.28,0,0,0,0,4.56A2.24,2.24,0,0,0,118,67,2.3,2.3,0,0,0,115.74,64.76Z"/><path class="cls-2" d="M109.3,119.46a1,1,0,0,1-1-1,1.07,1.07,0,0,1,1-1,7.06,7.06,0,0,0,7-7,1,1,0,1,1,2,0,8.92,8.92,0,0,1-9,9Z"/><path class="cls-2" d="M109.3,115.1a4.76,4.76,0,1,1,4.75-4.76A4.69,4.69,0,0,1,109.3,115.1Zm0-7.43a2.78,2.78,0,1,0,2.77,2.77A2.77,2.77,0,0,0,109.3,107.67Z"/><path class="cls-2" d="M54.8,54.16a1,1,0,0,1-1-1c-.29-6.54-6.73-7.14-15.16-7.34a35.5,35.5,0,0,1-5.94-.39c-8.33-1.29-11.3-6.14-11.4-6.34L21,38.7l.19-.49c2.58-6.15,8.23-8.53,12.59-9.52A16.36,16.36,0,0,1,44.09,30a11.64,11.64,0,0,0,6.64,1,1,1,0,1,1,.2,2,13.81,13.81,0,0,1-7.73-1.09,13.83,13.83,0,0,0-9-1.09c-3.76.8-8.62,2.78-10.9,7.83.9,1.09,3.67,4.06,9.72,5a46.84,46.84,0,0,0,5.64.3c7,.1,16.75.3,17.15,9.32.1.39-.4.89-1,.89Z"/><path class="cls-2" d="M66.49,93.6h-.2A13.76,13.76,0,0,1,55,83.09l-2.08-8.52C44,64,45.38,49.7,45.48,49.1a1,1,0,0,1,2,.2c0,.1-1.38,14.07,7.14,24.08l.2.2L57,82.7a11.73,11.73,0,0,0,9.71,8.91,1,1,0,0,1-.2,2Z"/><path class="cls-2" d="M62.72,67.64a1,1,0,0,1-1-1V55.15c0-5.35-2.38-8-2.38-8a1,1,0,0,1,.1-1.38.88.88,0,0,1,1.39.1c.1.09,2.87,3.27,2.87,9.41V66.64a1.07,1.07,0,0,1-1,1Z"/><path class="cls-2" d="M86.31,54.16h0a1,1,0,0,1-1-1.09c.39-8.92,10.1-9.12,17.14-9.32a46.16,46.16,0,0,0,5.65-.29c6-1,8.91-4,9.71-5.06-2.28-4.95-7.24-7-10.9-7.82a15.09,15.09,0,0,0-9,1.09,13.3,13.3,0,0,1-8.32,1.09,1,1,0,0,1,.39-2,11.58,11.58,0,0,0,7.14-1,16.36,16.36,0,0,1,10.3-1.29c4.36.9,10,3.37,12.59,9.52l.19.49-.29.4c-.1.2-3.07,5.05-11.4,6.34a50.53,50.53,0,0,1-5.94.4c-8.43.2-14.87.79-15.16,7.33-.1.79-.6,1.19-1.09,1.19Z"/><path class="cls-2" d="M51.82,51.19a1.09,1.09,0,1,1-1.09-1.09,1.09,1.09,0,0,1,1.09,1.09"/><path class="cls-2" d="M91.46,51.19a1.09,1.09,0,1,1-1.09-1.09,1.09,1.09,0,0,1,1.09,1.09"/><path class="cls-2" d="M74.51,93.6a1.06,1.06,0,0,1-1-.89,1,1,0,0,1,.9-1.19,11.76,11.76,0,0,0,9.71-8.92l2.18-9.12.19-.2c8.53-10,7.14-24,7.14-24.07a1,1,0,1,1,2-.2c.1.59,1.49,14.76-7.43,25.46l-2.08,8.62A14,14,0,0,1,74.71,93.6Z"/><path class="cls-2" d="M78.38,67.64a1,1,0,0,1-1-1V55.15c0-6.14,2.77-9.21,2.87-9.41A1,1,0,0,1,81.75,47s-2.38,2.77-2.38,8V66.64a.94.94,0,0,1-1,1Z"/><path class="cls-2" d="M66.88,81.21a.73.73,0,0,1-.49-.1,16.11,16.11,0,0,1-3.27-2.57,3.73,3.73,0,0,1,2.67-6.35,1,1,0,1,1,0,2,1.69,1.69,0,0,0-1.58,1.09,1.81,1.81,0,0,0,.3,1.88,14.34,14.34,0,0,0,2.77,2.18,1.09,1.09,0,0,1,.4,1.39.9.9,0,0,1-.8.49Z"/><path class="cls-2" d="M74.22,81.21a1.16,1.16,0,0,1-.89-.5,1,1,0,0,1,.39-1.38,15.65,15.65,0,0,0,2.78-2.18,1.65,1.65,0,0,0,.29-1.89,1.69,1.69,0,0,0-1.58-1.09,1,1,0,0,1,0-2,3.71,3.71,0,0,1,2.67,6.34,15.82,15.82,0,0,1-3.27,2.58,1,1,0,0,1-.39.1Z"/><path class="cls-2" d="M50.83,33a1,1,0,0,1-1-.89v-.69a6.74,6.74,0,0,1,13.48,0,1,1,0,0,1-2,0,4.76,4.76,0,1,0-9.51,0v.49A.89.89,0,0,1,50.93,33Z"/><path class="cls-2" d="M58.56,26.91a.85.85,0,0,1-.49-.1,1.22,1.22,0,0,1-.4-1.39,6.74,6.74,0,0,1,6-3.66,6,6,0,0,1,2.68.59,1,1,0,1,1-.79,1.79,4.29,4.29,0,0,0-1.89-.4,4.78,4.78,0,0,0-4.26,2.58.94.94,0,0,1-.89.59Z"/><path class="cls-2" d="M79.57,28a1,1,0,0,1-1-.79,4.77,4.77,0,0,0-4.07-3.47,1,1,0,0,1,.2-2,6.77,6.77,0,0,1,5.75,4.95,1,1,0,0,1-.69,1.19c-.1.1-.1.1-.2.1Z"/><path class="cls-2" d="M89.77,33h-.29a1,1,0,0,1-.7-1.19,4.91,4.91,0,0,0,.2-1.28,4.76,4.76,0,1,0-9.51,0,1,1,0,0,1-2,0,6.74,6.74,0,1,1,13.47,0,10.78,10.78,0,0,1-.2,1.78,1.17,1.17,0,0,1-1,.69Z"/><path class="cls-2" d="M70.55,25.52a1,1,0,0,1-1-1V22.75a1,1,0,1,1,2,0v1.68a1.08,1.08,0,0,1-1,1.09Z"/><path class="cls-2" d="M70.55,89.83a1,1,0,0,1-1-1V85.27a1,1,0,1,1,2,0v3.57A1.06,1.06,0,0,1,70.55,89.83Zm0-10.8a1,1,0,0,1-1-1V74.47a1,1,0,1,1,2,0V78A1,1,0,0,1,70.55,79Zm0-10.7a1,1,0,0,1-1-1V63.77a1,1,0,0,1,2,0v3.57A1,1,0,0,1,70.55,68.33Zm0-10.7a1,1,0,0,1-1-1V53.07a1,1,0,0,1,2,0v3.57A1,1,0,0,1,70.55,57.63Zm0-10.7a1,1,0,0,1-1-1V42.37a1,1,0,0,1,2,0v3.56A1.07,1.07,0,0,1,70.55,46.93Zm0-10.71a1,1,0,0,1-1-1V31.67a1,1,0,1,1,2,0v3.56A1.06,1.06,0,0,1,70.55,36.22Z"/><path class="cls-2" d="M70.55,98.65a1,1,0,0,1-1-1V96a1,1,0,1,1,2,0v1.69A1.06,1.06,0,0,1,70.55,98.65Z"/><path class="cls-2" d="M86.7,118.67a.72.72,0,0,1-.49-.1,1.09,1.09,0,0,1-.4-1.39l4.26-7.33a1,1,0,1,1,1.78,1l-4.26,7.33a.85.85,0,0,1-.89.5Z"/></g></g></svg>