<svg xmlns="http://www.w3.org/2000/svg" viewBox="0 0 141.2 141.2"><defs><style>.cls-1{fill:none;}.cls-2{}</style></defs><g id="Calque_2" data-name="Calque 2"><g id="Layer_1" data-name="Layer 1"><rect class="cls-1" width="141.2" height="141.2" rx="70.6" transform="translate(-2.04 2.11) rotate(-1.68)"/><path class="cls-2" d="M54.83,54.11a1.18,1.18,0,0,0,1.73-1.6,14.88,14.88,0,0,1-3.91-12.09A1.21,1.21,0,0,0,50.26,40a18.09,18.09,0,0,0,4.57,14.1Z"/><path class="cls-2" d="M79.73,78.4c-.23,0-4.35,1.31-6.46-2.19l-.75-1.28a3,3,0,0,0-3.83-1,7.54,7.54,0,0,1-3.17.92,5,5,0,0,1-4.95-3.06c-.9-2.34-4.19-1.18-4.31-1.17a5.06,5.06,0,0,1-6.14-3l-.38-1.06A79.08,79.08,0,0,0,37,88.78a3.15,3.15,0,0,0,.45,3.07,3.1,3.1,0,0,0,3.24,1.33l1.53-.28a2.68,2.68,0,0,1,3,1.81l.52,1.64a5.09,5.09,0,0,0,5,3.42,5.46,5.46,0,0,0,2.36-.67,2.33,2.33,0,0,1,1.17-.39,2.82,2.82,0,0,1,2.66,1.82l1.43,4.23a5.1,5.1,0,0,0,5,3.53,5.2,5.2,0,0,0,4.42-2.86l.22-.6a2.62,2.62,0,0,1,2.33-1.49,2.53,2.53,0,0,1,2.29,1.24,6.71,6.71,0,0,0,5.9,3,7.13,7.13,0,0,0,4-1.43l.23-.24a.69.69,0,0,1,.47-.13.73.73,0,0,1,.72.33l.5.94a3,3,0,0,0,2.77,1.58,3.29,3.29,0,0,0,2.23-1,2.72,2.72,0,0,0,.76-2.27c-.76-18-8.25-22.53-10.4-27Z"/><path class="cls-2" d="M97.69,63.87a1.18,1.18,0,0,0,1.74-1.35,14.09,14.09,0,0,0-4.42-5,15,15,0,0,0,.54-10.1,2.54,2.54,0,0,0-2.43-1.7,2.8,2.8,0,0,0-1.64.64l-1.27,1.22-.81-7.56A2.34,2.34,0,0,0,87,38,2,2,0,0,0,85.1,39.1l-1.59,2.42L83,35.85a2.29,2.29,0,0,0-2.44-2.19,2.18,2.18,0,0,0-2.09,1.49l-2.77,6.48c-1.13-2.1-2.35-3.13-3.77-3.09a3.47,3.47,0,0,0-2.68,1.62,1,1,0,0,1-.93.51c-1.43,0-4-3-5.78-6.83a2.47,2.47,0,0,0-2.41-1.47,2.34,2.34,0,0,0-2,1.12c-5.34,7.63-4,15.66,5.14,21.55a52.9,52.9,0,0,0-11.69,9.6l.78,2.46c.79,2.47,4.31,1.3,4.43,1.3a5.33,5.33,0,0,1,6.13,2.9,2.76,2.76,0,0,0,2.77,1.46A4.61,4.61,0,0,0,68,72a5.34,5.34,0,0,1,6.82,1.93l.75,1.29a3.11,3.11,0,0,0,3.12,1.21l.59-.14c-.61-4.49,4.24-4.75,7.68-8.76,5,.21,6.64,3.95,7.94,3.91,2.61-.07.07-5.69-1.53-7.89a9.12,9.12,0,0,1,4.28.34Zm-22,1.25a3.14,3.14,0,0,1-3.17-3c-.12-4,6-4.21,6.16-.19a3.08,3.08,0,0,1-3,3.18Z"/><path class="cls-2" d="M40.44,52.75a1.12,1.12,0,0,0,1.15-1.22l-.08-2.61a1.19,1.19,0,0,0-2.37.07l.08,2.61A1.12,1.12,0,0,0,40.44,52.75Z"/><path class="cls-2" d="M40.72,62.47a1.12,1.12,0,0,0,1.15-1.22l-.07-2.61a1.19,1.19,0,0,0-2.37.07l.07,2.61A1.12,1.12,0,0,0,40.72,62.47Z"/><path class="cls-2" d="M44.1,56.2l2.6-.08a1.18,1.18,0,1,0-.07-2.36l-2.6.07a1.19,1.19,0,1,0,.07,2.37Z"/><path class="cls-2" d="M38.14,55.19A1.12,1.12,0,0,0,36.92,54l-2.61.08a1.19,1.19,0,1,0,.07,2.37L37,56.41A1.19,1.19,0,0,0,38.14,55.19Z"/><path class="cls-2" d="M103,94.2A3.78,3.78,0,0,1,98.16,100,3.66,3.66,0,0,1,97,95.91a3.76,3.76,0,0,1,6-1.71Z"/><path class="cls-2" d="M106.67,87.09A5.75,5.75,0,0,1,96.5,84a5.44,5.44,0,0,1,1.3-4.19,5.75,5.75,0,0,1,8.87,7.33Z"/><path class="cls-2" d="M87.67,69.86c-3.23,3.18-6,3.62-6.25,5.4C81,77.88,85.15,81,87.91,86.1a15.53,15.53,0,0,0,4.71-13.18c-1.09-.68-2.33-2.42-5-3.06Z"/></g></g></svg>