<svg xmlns="http://www.w3.org/2000/svg" viewBox="0 0 141.2 141.2"><defs><style>.cls-1{fill:none;}.cls-2{}</style></defs><g id="Calque_2" data-name="Calque 2"><g id="Layer_1" data-name="Layer 1"><rect class="cls-1" width="141.2" height="141.2" rx="70.6"/><path class="cls-2" d="M57.76,115.66a1.53,1.53,0,1,1-1.52-1.52,1.52,1.52,0,0,1,1.52,1.52"/><path class="cls-2" d="M46.45,109.47a3.85,3.85,0,0,1-2.6-2.6c-.47-1.6-1.19-2.61-2-2.61s-1.53,1-2,2.61a3.85,3.85,0,0,1-2.6,2.6c-1.6.47-2.61,1.19-2.61,2s1,1.53,2.61,2a3.85,3.85,0,0,1,2.6,2.6c.47,1.59,1.19,2.61,2,2.61s1.52-1,2-2.61a3.85,3.85,0,0,1,2.6-2.6c1.59-.47,2.61-1.19,2.61-2s-1-1.51-2.61-2Z"/><path class="cls-2" d="M41.85,96.06a1.53,1.53,0,1,1-1.53-1.53,1.54,1.54,0,0,1,1.53,1.53"/><path class="cls-2" d="M68.54,102.8a3,3,0,0,1-2-2c-.37-1.24-.93-2-1.56-2s-1.2.79-1.56,2a3,3,0,0,1-2,2c-1.25.37-2,.93-2,1.56s.79,1.19,2,1.56a3,3,0,0,1,2,2c.36,1.25.93,2,1.56,2s1.19-.79,1.56-2a3,3,0,0,1,2-2c1.24-.37,2-.93,2-1.56S69.78,103.17,68.54,102.8Z"/><path class="cls-2" d="M93.65,92.43c0-.81-1-1.53-2.61-2a3.85,3.85,0,0,1-2.6-2.6c-.48-1.6-1.2-2.61-2-2.61s-1.53,1-2,2.61a3.85,3.85,0,0,1-2.6,2.6c-1.6.47-2.61,1.19-2.61,2s1,1.53,2.61,2a3.85,3.85,0,0,1,2.6,2.6c.47,1.59,1.19,2.61,2,2.61s1.52-1,2-2.61a3.85,3.85,0,0,1,2.6-2.6C92.63,94,93.65,93.24,93.65,92.43Z"/><path class="cls-2" d="M103.91,107.43a3,3,0,0,1-2-2c-.37-1.24-.93-2-1.57-2s-1.19.79-1.56,2a3,3,0,0,1-2,2c-1.24.37-2,.93-2,1.56s.79,1.2,2,1.57a3,3,0,0,1,2,2c.37,1.25.93,2,1.56,2s1.2-.79,1.57-2a3,3,0,0,1,2-2c1.25-.37,2-.93,2-1.57s-.79-1.19-2-1.56Z"/><path class="cls-2" d="M75.26,94.59a1.53,1.53,0,1,1-1.53-1.53,1.52,1.52,0,0,1,1.53,1.53"/><path class="cls-2" d="M81.31,107.47a1.53,1.53,0,1,1-1.52-1.53,1.52,1.52,0,0,1,1.52,1.53"/><path class="cls-2" d="M114.71,22.52H26.44a8,8,0,0,0-8,8c0,.74,0,4.49.07,5.34C19,42.14,24.3,49.77,35.25,59.7q1,9.93,2,19.83a5.46,5.46,0,0,0,.77,2.3,11.55,11.55,0,0,1,3.3-1.47,4.29,4.29,0,0,0,2.87-2.88c1.41-4.72,3.67-5.42,4.9-5.42a3.61,3.61,0,0,1,1.88.56l-.51-4.79-.11-.06-.52-5a2,2,0,0,0-4,.35A57.59,57.59,0,0,1,40.9,59.3C29.13,49.09,23,41.1,22.58,35.57c0-.54,0-3.38-.07-5.05a3.93,3.93,0,0,1,3.93-3.93h88.27a3.94,3.94,0,0,1,3.93,3.91l0,3c0,7-8.39,18.67-13.36,24.42-.45.53-.89,1-1.33,1.51a2.1,2.1,0,0,0-.52,1.16c-.46,4.35-.92,9.34-1.37,14.15s-.92,9.77-1.36,14.09c-.26,2.33-2.66,3.77-4.75,3.77h-.25c0,.93-.54,2.42-3,3.46a9.48,9.48,0,0,0,3.3.61,8.73,8.73,0,0,0,8.79-7.39c.46-4.37.91-9.33,1.37-14.14.42-4.56.86-9.27,1.3-13.44l1-1.09A97.66,97.66,0,0,0,116.86,49c3.9-6.29,5.87-11.5,5.87-15.52v-3a8.09,8.09,0,0,0-8-8Z"/><path class="cls-2" d="M83.63,84.8a3.42,3.42,0,0,1,2.77-1.62h.11c1,0,2.84.62,3.88,4.07a1.78,1.78,0,0,0,.73,1L88.46,62.72a2,2,0,0,0-4,.42l.21,2-.47-.33c-2.36-1.67-5-3.57-8.74-2.9a17.5,17.5,0,0,0-6.78,2.74l.16-1.51a2,2,0,1,0-4-.42L62.05,88.81c-.27,2.34-2.67,3.78-4.76,3.78a5.32,5.32,0,0,1-2.72-.79A4.26,4.26,0,0,0,54,93a12.43,12.43,0,0,1-1,2.52,9.21,9.21,0,0,0,4.33,1.09,8.72,8.72,0,0,0,8.79-7.39L68.1,70l1.19-.82a17.35,17.35,0,0,1,5.71-3c-.14,4.16-.27,8.3-.41,12.46v.14c0,3.27,2.85,5.88,6,6.3a7.91,7.91,0,0,0,3.09-.3Z"/><path class="cls-2" d="M56.31,88.39c2.52-.75,4.14-1.89,4.14-3.16s-1.62-2.4-4.14-3.15A6.06,6.06,0,0,1,52.22,78c-.76-2.53-1.9-4.14-3.16-4.14S46.66,75.46,45.9,78a6.06,6.06,0,0,1-4.09,4.09c-2.52.75-4.14,1.89-4.14,3.15s1.62,2.41,4.14,3.16a6.06,6.06,0,0,1,4.09,4.09c.76,2.53,1.9,4.14,3.16,4.14s2.4-1.61,3.16-4.14A6.12,6.12,0,0,1,56.31,88.39Z"/></g></g></svg>