<svg xmlns="http://www.w3.org/2000/svg" viewBox="0 0 141.2 141.2"><defs><style>.cls-1{fill:none;}.cls-2{}</style></defs><g id="Calque_2" data-name="Calque 2"><g id="Layer_1" data-name="Layer 1"><rect class="cls-1" width="141.2" height="141.2" rx="70.6"/><path class="cls-2" d="M71.16,70.6l-3.82-4.94c1.91.45,3.82.78,5.73,1.12s3.6.56,5.51.79c1.57,3.71,3.26,7.41,5.17,11.12L77,75.32a15.83,15.83,0,0,1-5.85-4.72Zm8.21-3.26c1.57,3.71,3.14,7.53,4.38,11.35L86,73a21,21,0,0,0,1.34-9.78L86.9,58Zm-4.72-6.4a27.51,27.51,0,0,0-7.31,4.83c1.91.11,3.82.22,5.73.45l5.51.67,8.2-8.76a29.23,29.23,0,0,0-8.54,1.34,9.06,9.06,0,0,0-3.59,1.47Zm-33.83,0,7.53.11q-4.89-3.7-9.44-7.76c-1.8.57-3.48,1.13-5.28,1.58s-3.71,1-5.62,1.46l5.51,2.81a16.31,16.31,0,0,0,7.3,1.8Zm-1.46-8.32c3,2.7,6.07,5.51,8.88,8.43l-.45-6.18a20.39,20.39,0,0,0-3-9.44l-2.69-4.5Zm-7-3.71a31.29,31.29,0,0,0-4.49,7.42c1.79-.79,3.59-1.46,5.39-2.14s3.48-1.23,5.28-1.8L42.17,41a28.24,28.24,0,0,0-7.08,5,9.61,9.61,0,0,0-2.7,2.92Zm56.53,0L91.39,56c1.12-3.93,2.59-7.75,4-11.57L92.06,40c-1.12-1.57-2.24-3.14-3.25-4.72l-.68,6.18a14.19,14.19,0,0,0,.79,7.42Zm7.3-4.16c-1.46,3.82-3,7.53-4.83,11.24L97,53.41a22,22,0,0,0,7.87-6.07l3.25-4.05Zm1.13-8a30.62,30.62,0,0,0-8.54-1.57c1.34,1.46,2.58,2.92,3.82,4.38S95,42.51,96.11,44L108,43.4a25.44,25.44,0,0,0-7.08-4.94,11.64,11.64,0,0,0-3.59-1.69ZM43.18,87.46l-7.19-2c2.58,3.14,4.94,6.51,7.19,9.88,1.8-.11,3.71-.22,5.51-.22s3.82-.11,5.84,0l-4.72-4.16a17.07,17.07,0,0,0-6.63-3.48Zm-.67,8.31C40.26,92.4,38,89,36,85.43L34.86,91.5a22.72,22.72,0,0,0,.57,9.89l1.46,5Zm5.84,5.51a30.2,30.2,0,0,0,6.18-6.07c-1.91.34-3.82.45-5.73.68s-3.71.33-5.51.45L37,106.45a25.69,25.69,0,0,0,8.09-3,14.72,14.72,0,0,0,3.26-2.13ZM46.21,69l-6,4.49c4-.11,8.2.11,12.25.23,1-1.58,2.13-3,3.14-4.5s2.25-3.14,3.49-4.61l-6.07,1.24A19.15,19.15,0,0,0,46.21,69Zm6.19,5.73c-4-.23-8.1-.56-12.14-1.13l4.16,4.5a21.83,21.83,0,0,0,8.2,5.62l4.83,1.91Zm7.86-1.35a29.74,29.74,0,0,0-1-8.65c-.9,1.68-1.91,3.37-2.92,4.94s-2,3.15-3,4.61l4.16,11.24A31.28,31.28,0,0,0,60,77.34,15.42,15.42,0,0,0,60.26,73.41Zm11.8-31.92a11.17,11.17,0,0,0-3.82-3l-7.53-3.71-2.36,5.73a16.77,16.77,0,0,0-1.12,7.42l.56,7.53,6.07-1a28.77,28.77,0,0,0,3.26-.79L62.4,37.79l5.5,15.73A21.79,21.79,0,0,0,73,50.82l4.16-3Zm36.19,24.17a11.19,11.19,0,0,0-3.82-3L96.9,58.91l-2.36,5.73a16.92,16.92,0,0,0-1.13,7.42L94,79.59l6.06-1a27.76,27.76,0,0,0,3.26-.79l-4.72-16,5.51,15.74a22.39,22.39,0,0,0,5.06-2.7l4.15-3ZM106.56,91.5a11.17,11.17,0,0,0-3.82-3l-7.53-3.71-2.36,5.73a16.77,16.77,0,0,0-1.12,7.42l.56,7.53,6.07-1a28.77,28.77,0,0,0,3.26-.79l-4.72-16,5.5,15.73a21.76,21.76,0,0,0,5.06-2.69l4.16-3ZM78.92,86.33a11.17,11.17,0,0,0-3.82-3l-7.53-3.71-2.36,5.73a16.92,16.92,0,0,0-1.13,7.42l.56,7.64,6.07-1A27.76,27.76,0,0,0,74,98.58l-4.72-16,5.51,15.74a22.11,22.11,0,0,0,5-2.7l4.16-3Z"/></g></g></svg>