<svg xmlns="http://www.w3.org/2000/svg" viewBox="0 0 141.2 141.2"><defs><style>.cls-1{fill:none;}.cls-2{}</style></defs><g id="Calque_2" data-name="Calque 2"><g id="Layer_1" data-name="Layer 1"><rect class="cls-1" width="141.2" height="141.2" rx="70.6"/><path class="cls-2" d="M80.12,37.24a1.77,1.77,0,0,0-2.5,2.5l2.57,2.56H42.75l2.57-2.56a1.77,1.77,0,0,0-2.5-2.5L37.26,42.8a1.73,1.73,0,0,0,0,2.5l5.56,5.56a1.67,1.67,0,0,0,1.21.5,1.57,1.57,0,0,0,1.22-.5,1.72,1.72,0,0,0,0-2.49L42.68,45.8H80.19l-2.57,2.57a1.72,1.72,0,0,0,0,2.49,1.68,1.68,0,0,0,1.22.5,1.55,1.55,0,0,0,1.21-.5l5.56-5.56a1.72,1.72,0,0,0,0-2.5Z"/><path class="cls-2" d="M101.52,95.86,99,98.43V61l2.57,2.57a1.68,1.68,0,0,0,1.21.5,1.57,1.57,0,0,0,1.21-.5,1.73,1.73,0,0,0,0-2.5L98.38,55.5a1.73,1.73,0,0,0-2.5,0l-5.56,5.56a1.77,1.77,0,0,0,2.5,2.5L95.38,61V98.5l-2.56-2.56a1.76,1.76,0,0,0-2.5,2.49L95.88,104a1.67,1.67,0,0,0,1.21.5,1.57,1.57,0,0,0,1.22-.5l5.56-5.56a1.72,1.72,0,0,0,0-2.49A1.61,1.61,0,0,0,101.52,95.86Z"/><path class="cls-2" d="M83.54,55.93H39.47a1.76,1.76,0,0,0-1.78,1.78v44.14a1.77,1.77,0,0,0,1.78,1.79H83.62a1.77,1.77,0,0,0,1.78-1.79V57.71A1.87,1.87,0,0,0,83.54,55.93Zm-1.71,44.14H41.18V59.42H81.76v40.65Z"/></g></g></svg>