<svg xmlns="http://www.w3.org/2000/svg" viewBox="0 0 141.2 141.2"><defs><style>.cls-1{}.cls-2{fill:none;}</style></defs><g id="Calque_2" data-name="Calque 2"><g id="Layer_1" data-name="Layer 1"><path class="cls-1" d="M94.12,78.42l-1.34.44a13.19,13.19,0,0,0-2.48-3.41l.83-1.15-3.27-2.39-1,1.15a15.15,15.15,0,0,0-4.21-1.31V70.63H77.89v1.15a10.64,10.64,0,0,0-3.48,1.31l-.57-1.15L70.69,74.3l.9,1.15a12.92,12.92,0,0,0-2.45,3.41l-1.32-.44-1.25,3.86,1.35.45a13.51,13.51,0,0,0,0,4.21l-1.34.44,1.24,3.86,1.35-.43a13.43,13.43,0,0,0,2.48,3.41l-.83,1.14,3.29,2.39.3-1.14a10.85,10.85,0,0,0,3.48,1.3V99.6h4.72V97.91a14.8,14.8,0,0,0,4.21-1.3l.92,1.14,3.35-2.39-.82-1.14a13.5,13.5,0,0,0,2.5-3.41l1.35.43,1.26-3.86L94,86.94a16.37,16.37,0,0,0,.17-2.11,13.42,13.42,0,0,0-.17-2.1l1.34-.44ZM89,84.86v.47A8.28,8.28,0,0,1,87.21,90a8.1,8.1,0,0,1-6.23,3v0a8.12,8.12,0,0,1-6.23-3,8.34,8.34,0,0,1-1.82-4.65v-1a8,8,0,0,1,1.26-3.87,7.14,7.14,0,0,1,.55-.77A8,8,0,0,1,78,77.32,6.92,6.92,0,0,1,79,77,7.77,7.77,0,0,1,83,77a7.45,7.45,0,0,1,.91.3,8.19,8.19,0,0,1,3.29,2.37A8.3,8.3,0,0,1,89,84.38Z"/><polygon class="cls-1" points="99.54 41.6 66.42 41.6 66.42 44.3 100.08 44.3 99.54 41.6"/><path class="cls-1" d="M120.5,72.61a3.78,3.78,0,0,0-1.42-1,4.85,4.85,0,0,0-1.88-.34h-2.78V81.33h2.78a4.85,4.85,0,0,0,1.88-.35,3.87,3.87,0,0,0,1.42-1,4.44,4.44,0,0,0,.9-1.58,6.63,6.63,0,0,0,.32-2.11,6.54,6.54,0,0,0-.32-2.11A4.36,4.36,0,0,0,120.5,72.61Z"/><path class="cls-1" d="M128.62,85.37l-6.89-18.89H111.61V59.13h-2V50.37h-2.67V66.55h-2.58l-5.9-20.9H96.49l3.69,13.48H96l-5-4.94,1.85-1.84A1,1,0,0,0,93,50.93a1,1,0,0,0-1.41-.06l-.06.06-4.57,4.56a1,1,0,0,0,0,1.41h0a1,1,0,0,0,1.4,0h0L90.16,55l4.09,4.08H77.88V54.88c0-2.37-1.11-4.5-3.48-4.5H71.14V45.64h-2V66.23a22.6,22.6,0,0,0-3.74,3.24,2,2,0,0,0,.16,2.8,2,2,0,0,0,2.79-.11A17.93,17.93,0,0,1,99,87.76a2,2,0,0,0,1.56,2.31,2.16,2.16,0,0,0,.36,0,2.21,2.21,0,0,0,1.94-1.87,16.46,16.46,0,0,0,.33-2.8h7.58a8.74,8.74,0,0,0-2.14,5.78,8.34,8.34,0,0,0,.64,3.28h-.21v5h.62v-4.2a8.19,8.19,0,0,0,7,4.2h.14a8.2,8.2,0,0,0,8.2-8.11v-.31a8.44,8.44,0,0,0-2.14-5.7Zm-19.24-4.59a4.28,4.28,0,0,1-1,1.47,4.62,4.62,0,0,1-1.56,1,5.71,5.71,0,0,1-2.1.36,6.72,6.72,0,0,1-1.35-.13,7.76,7.76,0,0,1-1.27-.38,6.41,6.41,0,0,1-1.13-.6,5.16,5.16,0,0,1-1-.77l.77-1.27a1.13,1.13,0,0,1,.26-.23.62.62,0,0,1,.35-.1,1,1,0,0,1,.53.2c.19.14.42.29.68.45a4.38,4.38,0,0,0,.92.45,3.41,3.41,0,0,0,1.27.21,2.63,2.63,0,0,0,1.76-.54,2,2,0,0,0,.62-1.55,1.5,1.5,0,0,0-.28-.92,2.54,2.54,0,0,0-.75-.6,6.17,6.17,0,0,0-1.06-.41c-.39-.11-.8-.23-1.2-.36a9.51,9.51,0,0,1-1.21-.48,3.82,3.82,0,0,1-1.06-.72,3,3,0,0,1-.74-1.11,4.18,4.18,0,0,1-.28-1.65,3.86,3.86,0,0,1,.31-1.52,3.78,3.78,0,0,1,.91-1.31,4.39,4.39,0,0,1,1.46-.92,5.39,5.39,0,0,1,2-.35,6.52,6.52,0,0,1,2.33.4,5.28,5.28,0,0,1,1.82,1.1l-.65,1.26a.74.74,0,0,1-.25.31.64.64,0,0,1-.34.09.91.91,0,0,1-.45-.16l-.58-.34a5.35,5.35,0,0,0-.79-.34,3.35,3.35,0,0,0-1.06-.15,3.05,3.05,0,0,0-1,.13,2,2,0,0,0-.7.37,1.69,1.69,0,0,0-.42.57,1.9,1.9,0,0,0-.13.73,1.27,1.27,0,0,0,.28.84,2.43,2.43,0,0,0,.74.57,6.5,6.5,0,0,0,1.06.42c.4.13.8.26,1.21.41a10.56,10.56,0,0,1,1.21.49,4.1,4.1,0,0,1,1.06.71,3.35,3.35,0,0,1,.75,1,3.82,3.82,0,0,1,.28,1.52A4.93,4.93,0,0,1,109.38,80.78ZM116.86,96a4.48,4.48,0,1,1,4.48-4.47A4.47,4.47,0,0,1,116.86,96Zm5.58-14.51a6.59,6.59,0,0,1-2.28,1.47,8,8,0,0,1-3,.52h-5.46V69.15h5.46a8,8,0,0,1,3,.53,6.46,6.46,0,0,1,3.75,3.73,8.12,8.12,0,0,1,0,5.77A6.74,6.74,0,0,1,122.44,81.45Z"/><path class="cls-1" d="M55,87H53.2L47.93,74.29h1.68V72.57H47.2l4.09-6.87H25.23l3.21,6.87H26.37v1.72h2.87l.2.43L18.88,87h-4.2v2.41h13a9.28,9.28,0,0,0-1.35,2.07c-.69,2.06-.69,2.75,0,4.47s4.36,3.53,4.36,3.53A17.73,17.73,0,0,1,28,96a3,3,0,0,1,0-3l2.67-3.51H56.41l8.47-16-1.36-.8ZM20.25,87l9.53-11.57,1.87,4h5S32.7,83.52,29.7,87Zm12.23,0,5.78-7.57h4.85l3.06-5.15h.45L52.12,87Z"/><circle class="cls-1" cx="15.16" cy="94.51" r="5.09"/><circle class="cls-1" cx="40.77" cy="94.46" r="5.03"/><rect class="cls-1" x="48.81" y="94.46" width="0.62" height="5.03"/><rect class="cls-1" x="51.29" y="94.46" width="0.62" height="5.03"/><rect class="cls-1" x="53.2" y="94.46" width="0.62" height="5.03"/><rect class="cls-1" x="55.66" y="94.46" width="0.62" height="5.03"/><rect class="cls-1" x="58.14" y="94.46" width="0.62" height="5.03"/><rect class="cls-1" x="63.33" y="94.46" width="0.62" height="5.03"/><rect class="cls-1" x="65.81" y="94.46" width="0.62" height="5.03"/><rect class="cls-1" x="60.06" y="94.46" width="0.62" height="5.03"/><rect class="cls-1" x="92.09" y="94.46" width="0.62" height="5.03"/><rect class="cls-1" x="94.57" y="94.46" width="0.62" height="5.03"/><rect class="cls-1" x="96.48" y="94.46" width="0.62" height="5.03"/><rect class="cls-1" x="98.94" y="94.46" width="0.62" height="5.03"/><rect class="cls-1" x="101.42" y="94.46" width="0.62" height="5.03"/><rect class="cls-1" x="106.61" y="94.46" width="0.62" height="5.03"/><rect class="cls-1" x="103.34" y="94.46" width="0.62" height="5.03"/><rect class="cls-1" x="126.11" y="94.46" width="0.62" height="5.03"/><rect class="cls-1" x="128.59" y="94.46" width="0.62" height="5.03"/><rect class="cls-1" x="130.51" y="94.46" width="0.62" height="5.03"/><rect class="cls-2" width="141.2" height="141.2" rx="70.6"/></g></g></svg>