<svg xmlns="http://www.w3.org/2000/svg" viewBox="0 0 141.2 141.2"><defs><style>.cls-1{}.cls-2{fill:none;}</style></defs><g id="Calque_2" data-name="Calque 2"><g id="Layer_1" data-name="Layer 1"><path class="cls-1" d="M95.38,78.42,94,78.86a13.43,13.43,0,0,0-2.48-3.41l.82-1.15-3.26-2.39-1.05,1.15a15.15,15.15,0,0,0-4.21-1.31V70.63H79.14v1.15a10.72,10.72,0,0,0-3.48,1.31l-.56-1.15L71.94,74.3l.9,1.15a12.66,12.66,0,0,0-2.44,3.41l-1.32-.44-1.26,3.86,1.35.45a13.51,13.51,0,0,0,0,4.21l-1.34.44,1.25,3.86,1.35-.43a13.39,13.39,0,0,0,2.47,3.41l-.83,1.14,3.29,2.39.3-1.14a10.94,10.94,0,0,0,3.48,1.3V99.6h4.72V97.91a15,15,0,0,0,4.22-1.3L89,97.75l3.35-2.39-.81-1.14A13.71,13.71,0,0,0,94,90.81l1.35.43,1.26-3.86-1.34-.44a14.77,14.77,0,0,0,.17-2.11,13.42,13.42,0,0,0-.17-2.1l1.34-.44Zm-5.09,6.44v.47A8.27,8.27,0,0,1,88.47,90a8.12,8.12,0,0,1-6.24,3v0A8.13,8.13,0,0,1,76,90a8.26,8.26,0,0,1-1.81-4.65v-1a8,8,0,0,1,1.25-3.87,6.05,6.05,0,0,1,.56-.77,8,8,0,0,1,3.29-2.39,7.45,7.45,0,0,1,.91-.3,7.77,7.77,0,0,1,4.06,0,7.45,7.45,0,0,1,.91.3,8,8,0,0,1,5.12,7.06Z"/><polygon class="cls-1" points="100.79 41.6 67.67 41.6 67.67 44.3 101.34 44.3 100.79 41.6"/><path class="cls-1" d="M121.75,72.61a3.74,3.74,0,0,0-1.41-1,4.93,4.93,0,0,0-1.89-.34h-2.77V81.33h2.77a4.93,4.93,0,0,0,1.89-.35,3.83,3.83,0,0,0,1.41-1,4.44,4.44,0,0,0,.9-1.58A6.36,6.36,0,0,0,123,76.3a6.28,6.28,0,0,0-.32-2.11A4.36,4.36,0,0,0,121.75,72.61Z"/><path class="cls-1" d="M129.87,85.37,123,66.48H112.86V59.13h-2V50.37h-2.67V66.55h-2.58l-5.9-20.9H97.75l3.68,13.48H97.25l-5-4.94,1.84-1.84a1,1,0,0,0-1.35-1.48l-.06.06-4.57,4.56a1,1,0,0,0,0,1.41h0a1,1,0,0,0,1.4,0h0L91.42,55l4.08,4.08H79.13V54.88c0-2.37-1.11-4.5-3.47-4.5H72.4V45.64h-2V66.23a22.13,22.13,0,0,0-3.73,3.24,2,2,0,0,0,1.47,3.31,2.06,2.06,0,0,0,1.48-.62,17.92,17.92,0,0,1,30.69,15.6,2,2,0,0,0,1.56,2.31,2.29,2.29,0,0,0,.37,0,2.21,2.21,0,0,0,1.93-1.87,16.46,16.46,0,0,0,.33-2.8h7.58a8.68,8.68,0,0,0-2.13,5.78A8.19,8.19,0,0,0,118,99.49h.14a8.19,8.19,0,0,0,8.19-8.11v-.31a8.44,8.44,0,0,0-2.14-5.7Zm-19.24-4.59a4.14,4.14,0,0,1-1,1.47,4.44,4.44,0,0,1-1.56,1,5.71,5.71,0,0,1-2.1.36,6.69,6.69,0,0,1-1.34-.13,7.21,7.21,0,0,1-1.27-.38,6.17,6.17,0,0,1-1.14-.6,5.09,5.09,0,0,1-.94-.77l.77-1.27a1,1,0,0,1,.26-.23.57.57,0,0,1,.34-.1,1,1,0,0,1,.53.2c.19.14.42.29.68.45a4.64,4.64,0,0,0,.92.45,3.41,3.41,0,0,0,1.27.21,2.61,2.61,0,0,0,1.76-.54,2,2,0,0,0,.62-1.55,1.44,1.44,0,0,0-.28-.92,2.54,2.54,0,0,0-.75-.6,6.38,6.38,0,0,0-1.05-.41l-1.21-.36a9.51,9.51,0,0,1-1.21-.48,3.77,3.77,0,0,1-1-.72,3.2,3.2,0,0,1-.75-1.11,4.18,4.18,0,0,1-.28-1.65,3.86,3.86,0,0,1,.31-1.52,3.92,3.92,0,0,1,.91-1.31,4.54,4.54,0,0,1,1.47-.92,5.34,5.34,0,0,1,2-.35,6.57,6.57,0,0,1,2.34.4,5.23,5.23,0,0,1,1.81,1.1l-.65,1.26a.67.67,0,0,1-.25.31.64.64,0,0,1-.34.09A.94.94,0,0,1,109,72l-.58-.34a4.79,4.79,0,0,0-.78-.34,3.41,3.41,0,0,0-1.07-.15,3.05,3.05,0,0,0-1,.13,2.07,2.07,0,0,0-.69.37,1.46,1.46,0,0,0-.42.57,1.73,1.73,0,0,0-.14.73,1.27,1.27,0,0,0,.28.84,2.47,2.47,0,0,0,.75.57,6.38,6.38,0,0,0,1,.42l1.22.41a11.35,11.35,0,0,1,1.21.49,4.22,4.22,0,0,1,1.05.71,3.35,3.35,0,0,1,.75,1A3.65,3.65,0,0,1,111,79,4.93,4.93,0,0,1,110.63,80.78ZM118.12,96a4.48,4.48,0,1,1,4.47-4.47A4.47,4.47,0,0,1,118.12,96Zm5.57-14.51a6.59,6.59,0,0,1-2.28,1.47,8,8,0,0,1-3,.52H113V69.15h5.45a8,8,0,0,1,3,.53,6.59,6.59,0,0,1,2.28,1.47,6.46,6.46,0,0,1,1.47,2.26,8.12,8.12,0,0,1,0,5.77A6.59,6.59,0,0,1,123.69,81.45Z"/><path class="cls-1" d="M56.26,87H54.45L49.18,74.29h1.68V72.57H48.45l4.09-6.87H26.48l3.21,6.87H27.62v1.72h2.87l.2.43L20.14,87H15.93v2.41H29a9.28,9.28,0,0,0-1.35,2.07c-.68,2.06-.68,2.75,0,4.47S32,99.49,32,99.49A18.13,18.13,0,0,1,29.23,96a3,3,0,0,1,0-3l2.67-3.51H57.66l8.47-16-1.36-.8ZM21.51,87,31,75.44l1.87,4h5S34,83.52,31,87Zm12.23,0,5.77-7.57h4.85l3.07-5.15h.45L53.38,87Z"/><circle class="cls-1" cx="16.42" cy="94.51" r="5.09" transform="translate(-77.18 73.51) rotate(-67.5)"/><circle class="cls-1" cx="42.03" cy="94.46" r="5.03" transform="translate(-61.32 97.14) rotate(-67.5)"/><rect class="cls-2" width="141.2" height="141.2" rx="70.6"/></g></g></svg>