<svg xmlns="http://www.w3.org/2000/svg" viewBox="0 0 94 69"><defs><style>.cls-1{fill-rule:evenodd;}</style></defs><g id="Calque_2" data-name="Calque 2"><g id="Layer_1" data-name="Layer 1"><path class="cls-1" d="M5,33.25l-2.16.68a1,1,0,0,1-1.18-.48L.12,30.55a1,1,0,0,1,.49-1.4L7,26.41l8.77-12.68V10.62a1,1,0,0,1,.09-.43l3.26-6.85a1,1,0,0,1,.6-.52L22.28,2a1,1,0,0,1,.93.18l1.22,1,2.26-.66a.94.94,0,0,1,.64,0L29,3.15l2.83-1.7a1,1,0,0,1,.68-.13l3.27.54L36.71.45A1,1,0,0,1,37.59,0L48.81.49a1,1,0,0,1,.62.25L55,5.63a1.33,1.33,0,0,1,.21.26l1.36,2.46,5,.29a1,1,0,0,1,.59.24l2.11,1.79a1,1,0,0,1,.3.45l1.83,5.5,3.41,1.93a1,1,0,0,1,.43.49L72,23.41l5,2.45a1,1,0,0,1,.53.62l.55,2,3.64,2.73a1,1,0,0,1,.39.92l-.42,3.54,2.67,2.26a1,1,0,0,1,.36.85l-.3,3.37.75,1a1,1,0,0,1,.18.82L85,45.39a1,1,0,0,1-.36.58l-.92.71.52,1.66,1.56,1.28a1,1,0,0,1,.36.77v1h0l.49-.62a1,1,0,0,1,1.17-.29l2,.81a1,1,0,0,1,.52.51l1.73,3.79,1.7,2a1,1,0,0,1,.21.87l-.91,4L94,65.25a1,1,0,0,1-.12.86l-.65,1a1,1,0,0,1-1.28.34l-1-.49-4.36,1a1,1,0,0,1-.81-.15L84.62,67l-.77.39a1,1,0,0,1-.69.07l-1-.24L78.79,68.9a1,1,0,0,1-1.22-.29l-.73-1L75.52,68a1,1,0,0,1-.76-.11l-3.37-2-.43.42a1,1,0,0,1-.84.28l-2.3-.32A1,1,0,0,1,67,65.3L66.86,64l-5.42-.56L36.49,63.3l-6.92,3.78a1,1,0,0,1-.6.12l-5.4-.64-2,.29-2.48,1.09a1.1,1.1,0,0,1-.4.08h-5a1,1,0,0,1-.79-.39l-1.14-1.46a1,1,0,0,1,0-1.17l.33-.51a1,1,0,0,1-.17-.46l-.33-3.1a2.09,2.09,0,0,1,0-.25l.65-4.32a1,1,0,0,1,.17-.43l1-1.39a1,1,0,0,1,.81-.42h12V52.19a1,1,0,0,1,1-1h3.11L31,50.7a1,1,0,0,1,.85-.12l1.79.55,1.06-.39.65-1.55a1.08,1.08,0,0,1,.26-.37l1.3-1.14a1,1,0,0,1,1.37,0L40,49.52l2.7.9a.94.94,0,0,1,.26.14l.88.62h1.31a.93.93,0,0,1,.46.12l1.87,1,.16.1,1,.76h2.53l.35-.53a1,1,0,0,1,.59-.42l1.95-.49a1,1,0,0,1,.24,0h1.56l.13-.2L54.69,49l-2.58.25-1.06.92a1,1,0,0,1-.66.25H48.76a1,1,0,0,1-.55-.17L46.5,49.08a1,1,0,0,1-.27-.27l-.82-1.2-1.75.47a1.05,1.05,0,0,1-.76-.1l-1.14-.65a1,1,0,0,1-.45-.56l-.45-1.36-2.51-.36-2.49,1.17a1,1,0,0,1-1-.09l-.54-.39-1,.73v1a1,1,0,0,1-1,1H15.75a1,1,0,0,1-.83-.45l-1-1.47a1,1,0,0,1-.11-.87l.06-.18a1,1,0,0,1-.7-.6l-1.37-2.49-1-.82a1,1,0,0,1-.26-.36L9.1,37.74l-1-.65a1,1,0,0,1-.31-.31l-2-3.07Z"/></g></g></svg>