<svg xmlns="http://www.w3.org/2000/svg" viewBox="0 0 141.2 141.2"><defs><style>.cls-1{}.cls-2{fill:none;}</style></defs><g id="Calque_2" data-name="Calque 2"><g id="Layer_1" data-name="Layer 1"><path class="cls-1" d="M106.74,54.92c0-1.87-1.76-3.27-5.25-4.17a9.85,9.85,0,0,0,3.18-3.46,2.81,2.81,0,0,0-1.18-3.82,2.88,2.88,0,0,0-.07-1.95,2.94,2.94,0,0,0-1.73-1.63,10.76,10.76,0,0,0-5.34-.18c1.71-2.75,2.72-5.6,1.1-7.22a2.93,2.93,0,0,0-1.77-.82,2.93,2.93,0,0,0-.82-1.77c-1.32-1.32-3.55-1.07-6.66.76A9.9,9.9,0,0,0,88,26a2.92,2.92,0,0,0-1.59-1.76,2.88,2.88,0,0,0-2-.1,2.8,2.8,0,0,0-3.8-1.25,10.69,10.69,0,0,0-3.91,3.64c-.74-3.16-2-5.89-4.32-5.89a2.91,2.91,0,0,0-1.83.68,2.93,2.93,0,0,0-1.84-.68c-1.86,0-3.26,1.77-4.17,5.26a9.89,9.89,0,0,0-3.46-3.19,3,3,0,0,0-2.37-.12,2.91,2.91,0,0,0-1.45,1.31,2.94,2.94,0,0,0-2,.06,3,3,0,0,0-1.62,1.74A10.62,10.62,0,0,0,53.55,31c-2.75-1.71-5.6-2.72-7.22-1.1a3,3,0,0,0-.82,1.77,2.93,2.93,0,0,0-1.77.82c-1.32,1.32-1.06,3.56.77,6.66a9.89,9.89,0,0,0-4.7.2,3,3,0,0,0-1.76,1.59,2.88,2.88,0,0,0-.1,2,2.82,2.82,0,0,0-1.26,3.8,10.79,10.79,0,0,0,3.64,3.91c-3.15.74-5.88,2-5.88,4.32a3,3,0,0,0,.67,1.83,2.91,2.91,0,0,0-.67,1.83c0,1.87,1.76,3.27,5.26,4.18a9.81,9.81,0,0,0-3.19,3.46,2.92,2.92,0,0,0-.12,2.37A3,3,0,0,0,37.71,70a2.81,2.81,0,0,0,1.8,3.57,10.62,10.62,0,0,0,5.34.19c-1.71,2.75-2.72,5.6-1.11,7.21a3,3,0,0,0,1.78.82,2.88,2.88,0,0,0,.82,1.77c1.32,1.32,3.55,1.07,6.66-.76a9.9,9.9,0,0,0,.2,4.7,2.92,2.92,0,0,0,1.59,1.76,2.88,2.88,0,0,0,2,.1,2.8,2.8,0,0,0,3.8,1.25A10.69,10.69,0,0,0,64.45,87c.74,3.16,2,5.89,4.32,5.89a3.13,3.13,0,0,0,.44,0v12.38a4.83,4.83,0,0,0-1.57-1.07,3.1,3.1,0,0,0-1.08-.24c-1.61-2-4.07-4.61-6.25-4.74A34.17,34.17,0,0,0,55.45,95c-.77-.52-3.12-2.09-4.66-.83s-.48,3.87-.13,4.73a34,34,0,0,0,3.12,5.61c-.32,2.15,1.72,5.09,3.38,7.07a3.25,3.25,0,0,0,0,1.12c.32,1.72,2,3.66,4.52,5.3s5,2.59,6.91,2.59a4.61,4.61,0,0,0,2.85-.89,1.42,1.42,0,0,0,.53-1.29,1.09,1.09,0,0,0,0-.18v-5a15.8,15.8,0,0,0,7.34-1.74c1.62-.73,4.4-2.25,4.73-4.19a3.71,3.71,0,0,0,0-.47c1.59-1.35,3.21-3.08,3.36-4.6a2,2,0,0,0,0-.34c4.05-4.29,3.83-5.88,3.75-6.41a2,2,0,0,0-1-1.47c-1.54-.87-4.64.31-9.19,3.51-2.15,0-4.78,2-6.24,3.3a4.71,4.71,0,0,0-2.81,1v-9a3.4,3.4,0,0,0,.45,0c1.86,0,3.26-1.76,4.17-5.25a9.76,9.76,0,0,0,3.46,3.18,2.82,2.82,0,0,0,3.82-1.18,2.88,2.88,0,0,0,2-.07,2.93,2.93,0,0,0,1.62-1.73,10.63,10.63,0,0,0,.19-5.34c2.75,1.71,5.6,2.72,7.22,1.1a3,3,0,0,0,.82-1.77A3,3,0,0,0,97.46,81c1.32-1.32,1.06-3.55-.77-6.66a9.88,9.88,0,0,0,4.7-.2,2.91,2.91,0,0,0,1.77-1.59,3,3,0,0,0,.1-2,2.83,2.83,0,0,0,1.25-3.8,10.78,10.78,0,0,0-3.64-3.91c3.15-.74,5.88-2,5.88-4.32a3,3,0,0,0-.67-1.83,2.89,2.89,0,0,0,.66-1.82Zm-5.9-12.36a2.17,2.17,0,0,1-.41.9,1.38,1.38,0,0,0-.14,1.29,1.39,1.39,0,0,0,1,.84,2.11,2.11,0,0,1,.92.36c0,.62-1.59,2.28-5,4.26l-.16.09a52.71,52.71,0,0,1-8.53,3.83c-1.37.48-2.74.92-4.09,1.29-1.3-.36-2.56-.68-3.77-.92-.07-.29-.14-.57-.23-.84l7.85-3.2a.86.86,0,0,0-.64-1.59l-7.85,3.2c-.13-.24-.25-.47-.4-.7.7-1,1.4-2.12,2.08-3.28,1.23-.67,2.52-1.31,3.84-1.91a54.67,54.67,0,0,1,8.08-3l.22-.06c4.23-1.13,6.73-1,7.22-.58ZM75.13,62.77a7.46,7.46,0,0,1-3.63,1.46h0a6.77,6.77,0,0,1-.89.06,7.5,7.5,0,0,1-6-3h0a7.37,7.37,0,0,1-1.47-3.64,7.07,7.07,0,0,1-.06-.91,7.52,7.52,0,0,1,3-6,7.64,7.64,0,0,1,3.65-1.47h0A7.51,7.51,0,0,1,76.6,52.2h0a7.52,7.52,0,0,1,1.48,3.65c0,.3,0,.6,0,.9a7.5,7.5,0,0,1-3,6Zm12.2-28.19c3.51-2.59,5.21-2.8,5.56-2.71a2,2,0,0,1,0,1,1.4,1.4,0,0,0,.38,1.25,1.42,1.42,0,0,0,1.25.39,2.07,2.07,0,0,1,1,0c.1.38-.15,2.25-3.15,6.16a59.28,59.28,0,0,0-8.16,3l-.45.2.22-.45a61.17,61.17,0,0,0,3.39-8.83Zm-10.2-3.53a1.28,1.28,0,0,0,.11-.2c2.2-3.78,4.06-5.48,4.71-5.51a2,2,0,0,1,.34.92,1.38,1.38,0,0,0,2.12.9,2.23,2.23,0,0,1,.9-.4c.41.47.49,2.74-.51,6.54a1.33,1.33,0,0,0,0,.19,52.82,52.82,0,0,1-3.33,8.74C80.74,43.66,80,45,79.27,46.35l0,0c-.55,1-1.12,1.89-1.69,2.75a10,10,0,0,0-2-1.41L79.07,40a.85.85,0,0,0-1.56-.7L74,47a10.48,10.48,0,0,0-2.8-.57c.23-1,.49-2,.8-3.11l0-.08c.42-1.44.91-2.91,1.47-4.39a54,54,0,0,1,3.6-7.83Zm-8.36-7.66a2.24,2.24,0,0,1,.67.72,1.39,1.39,0,0,0,2.31,0,2.11,2.11,0,0,1,.67-.72c.35.2,1.49,1.71,2.13,6.59a61.83,61.83,0,0,0-3.62,7.91c-.06.16-.11.31-.17.46-.05-.15-.11-.3-.16-.46a60.53,60.53,0,0,0-3.85-8.65c.65-4.31,1.7-5.66,2-5.85ZM56.4,26.51a2,2,0,0,1,.9.41,1.39,1.39,0,0,0,2.14-.86,2,2,0,0,1,.35-.92c.62,0,2.28,1.59,4.26,5a1,1,0,0,0,.1.17A52.79,52.79,0,0,1,68,38.82c.49,1.37.92,2.74,1.3,4.09-.37,1.3-.68,2.56-.93,3.77a9.86,9.86,0,0,0-1.31.39l-3.59-7.68a.85.85,0,1,0-1.55.72l3.58,7.69-.26.15c-1-.7-2.12-1.4-3.29-2.08-.66-1.23-1.3-2.52-1.9-3.84A54.46,54.46,0,0,1,57,34a.9.9,0,0,0-.06-.22c-1.12-4.22-1-6.73-.57-7.22Zm-10.68,8a2,2,0,0,1,1,0A1.39,1.39,0,0,0,48,34.1a1.37,1.37,0,0,0,.38-1.25,2.19,2.19,0,0,1,0-1c.38-.11,2.26.16,6.16,3.15a60.61,60.61,0,0,0,3,8.16c.06.15.13.3.2.45l-.44-.21A58,58,0,0,0,48.42,40c-2.58-3.51-2.8-5.21-2.7-5.56ZM39.17,45.4a2.09,2.09,0,0,1,.93-.34,1.37,1.37,0,0,0,1-.82,1.43,1.43,0,0,0-.12-1.3,2.12,2.12,0,0,1-.4-.9c.47-.41,2.74-.49,6.54.51a.59.59,0,0,0,.19.05,52.43,52.43,0,0,1,8.73,3.33c1.43.68,2.81,1.4,4.11,2.14l.08,0c1,.55,1.87,1.11,2.73,1.68a10.09,10.09,0,0,0-1.49,2.09l-7.78-3.35A.86.86,0,0,0,53,50.11l7.78,3.35a10.73,10.73,0,0,0-.52,2.65c-1-.22-2-.49-3.11-.8l-.07,0c-1.44-.42-2.92-.91-4.4-1.47a54.28,54.28,0,0,1-7.82-3.6,1.32,1.32,0,0,0-.2-.12c-3.79-2.19-5.48-4-5.52-4.7ZM37.24,58.58a2,2,0,0,1,.71-.67,1.4,1.4,0,0,0,.62-1.16A1.38,1.38,0,0,0,38,55.6a2,2,0,0,1-.71-.67c.19-.34,1.7-1.49,6.58-2.13a60.6,60.6,0,0,0,7.92,3.62l.46.17-.47.17a59.36,59.36,0,0,0-8.65,3.84c-4.3-.66-5.66-1.7-5.84-2Zm3.11,12.36a2.16,2.16,0,0,1,.41-.89,1.39,1.39,0,0,0-.86-2.14,2,2,0,0,1-.92-.35c.05-.62,1.59-2.28,5-4.26l.16-.09a52.31,52.31,0,0,1,8.53-3.83c1.37-.48,2.74-.92,4.09-1.3q1.95.56,3.78.93a7.79,7.79,0,0,0,.22.83L52.9,63a.86.86,0,0,0-.46,1.12.84.84,0,0,0,.79.53.91.91,0,0,0,.32-.06l7.84-3.2c.13.24.26.48.4.72-.7,1-1.39,2.12-2.07,3.28-1.23.67-2.52,1.31-3.85,1.91a54.46,54.46,0,0,1-8.08,3l-.21.05c-4.23,1.13-6.74,1-7.23.57Zm13.52,8c-3.52,2.58-5.22,2.8-5.57,2.7a2,2,0,0,1,0-1A1.38,1.38,0,0,0,48,79.4,1.42,1.42,0,0,0,46.7,79a2.16,2.16,0,0,1-1,0c-.1-.39.16-2.26,3.15-6.16a60.61,60.61,0,0,0,8.16-3l.45-.2-.21.44a59.47,59.47,0,0,0-3.39,8.84Zm10.19,3.53a1,1,0,0,0-.11.2c-2.2,3.78-4.05,5.48-4.71,5.51a2.24,2.24,0,0,1-.34-.92,1.37,1.37,0,0,0-.82-1,1.45,1.45,0,0,0-.54-.11,1.41,1.41,0,0,0-.76.23,2.23,2.23,0,0,1-.9.4c-.41-.47-.49-2.74.52-6.54a1.33,1.33,0,0,0,.05-.19,51.39,51.39,0,0,1,3.32-8.73c.68-1.43,1.4-2.81,2.14-4.11L62,67.1c.55-1,1.11-1.87,1.67-2.73a10.36,10.36,0,0,0,2,1.41l-3.47,7.71a.86.86,0,0,0,.43,1.14.84.84,0,0,0,.35.07.86.86,0,0,0,.78-.5l3.47-7.72a10.18,10.18,0,0,0,2.8.57c-.22,1-.49,2-.8,3.11l0,.08c-.42,1.44-.91,2.92-1.47,4.4a55.32,55.32,0,0,1-3.6,7.82Zm-.87,33.23c-2.48-1.61-3.34-3.17-3.3-3.59a1.4,1.4,0,0,0-.1-1.71c-2.62-3-3.34-4.94-3.27-5.43a1.4,1.4,0,0,0-.08-1.45c-2.45-3.61-3.35-5.78-3.61-6.82,1,.46,2.92,1.78,6,4.91a1.37,1.37,0,0,0,1.39.37c.49,0,2.29,1.13,4.67,4.29a1.37,1.37,0,0,0,1.65.45c.4.05,1.66,1.11,2.71,3.62v3.61l-8.14-8.52a.85.85,0,0,0-1.21,0,.86.86,0,0,0,0,1.21l9.38,9.82v1.33c-1.06.26-3.07-.15-6-2.06ZM74.82,103.6a1.36,1.36,0,0,0,1.36-.3c2.5-2.31,4.43-3.09,4.91-3a1.42,1.42,0,0,0,1.13-.22A26.7,26.7,0,0,1,88,96.71a22.28,22.28,0,0,1-3.13,3.8,1.38,1.38,0,0,0-.27,1.55,10.21,10.21,0,0,1-3,3.2A1.4,1.4,0,0,0,81.2,107a8.66,8.66,0,0,1-3,2c-3,1.33-5,1.65-6.2,1.48v-4.54c1.09-1.74,2.4-2.41,2.83-2.28Zm-2.4-13.49a2,2,0,0,1-.67-.72,1.39,1.39,0,0,0-2.3,0,2,2,0,0,1-.68.72c-.34-.19-1.49-1.71-2.13-6.58a58.74,58.74,0,0,0,3.62-7.92l.18-.46c0,.16.1.31.16.47a58.85,58.85,0,0,0,3.85,8.64c-.66,4.31-1.71,5.67-2,5.85ZM84.79,87a2.12,2.12,0,0,1-.9-.42,1.41,1.41,0,0,0-1.29-.13,1.36,1.36,0,0,0-.84,1,2.18,2.18,0,0,1-.36.92c-.62-.05-2.28-1.59-4.26-5a1,1,0,0,0-.1-.17,53.27,53.27,0,0,1-3.82-8.53c-.48-1.36-.92-2.74-1.3-4.09.37-1.29.68-2.56.93-3.77a11.79,11.79,0,0,0,1.32-.39l3.58,7.67a.86.86,0,0,0,.78.49.78.78,0,0,0,.36-.08.86.86,0,0,0,.41-1.14L75.72,65.7a2.2,2.2,0,0,0,.26-.15c1,.71,2.12,1.4,3.28,2.08.67,1.23,1.31,2.52,1.91,3.84a54.27,54.27,0,0,1,3,8.08l.06.22c1.13,4.23,1,6.74.58,7.23Zm10.68-8a2,2,0,0,1-1,0,1.39,1.39,0,0,0-1.63,1.63,2.08,2.08,0,0,1,0,1c-.38.1-2.26-.16-6.16-3.15a59.28,59.28,0,0,0-3-8.16c-.07-.15-.14-.3-.2-.45l.44.22a59.47,59.47,0,0,0,8.84,3.39c2.58,3.5,2.8,5.2,2.7,5.56Zm6.55-11a2.09,2.09,0,0,1-.93.34,1.4,1.4,0,0,0-.9,2.13,2.07,2.07,0,0,1,.4.9c-.47.4-2.74.49-6.54-.52l-.18,0a52.82,52.82,0,0,1-8.74-3.33c-1.43-.68-2.81-1.4-4.11-2.15l-.08,0q-1.44-.83-2.73-1.68a10.37,10.37,0,0,0,1.5-2.11L87.47,65a.83.83,0,0,0,.34.07.86.86,0,0,0,.79-.52.85.85,0,0,0-.45-1.12L80.38,60a10.56,10.56,0,0,0,.51-2.63c1,.22,2,.49,3.1.8l.09,0c1.44.41,2.91.91,4.39,1.46a54.28,54.28,0,0,1,7.82,3.6l.21.12c3.79,2.19,5.48,4,5.52,4.69Zm1.22-10.19a2.11,2.11,0,0,1,.72.67c-.2.34-1.71,1.49-6.59,2.13a60.48,60.48,0,0,0-7.91-3.62L89,56.92l.47-.17a58.89,58.89,0,0,0,8.65-3.84c4.31.65,5.66,1.7,5.85,2a2.11,2.11,0,0,1-.72.67,1.38,1.38,0,0,0-.62,1.15,1.4,1.4,0,0,0,.62,1.16ZM68.15,59.19a.86.86,0,0,1,0,1.22l-.14.14a.85.85,0,0,1-.61.25.82.82,0,0,1-.6-.25.85.85,0,0,1,0-1.21l.14-.15a.86.86,0,0,1,1.21,0Zm3.3,1.87v.21a.86.86,0,1,1-1.71,0v-.21a.86.86,0,0,1,1.71,0Zm-5.17-3.45h-.21a.86.86,0,0,1,0-1.71h.21a.86.86,0,1,1,0,1.71Zm1.87-4.51a.85.85,0,0,1,0,1.21.82.82,0,0,1-.6.25.85.85,0,0,1-.61-.25l-.14-.15a.85.85,0,0,1,0-1.21A.86.86,0,0,1,68,53Zm3.3-.87v.21a.86.86,0,1,1-1.71,0v-.21a.86.86,0,0,1,1.71,0Zm3,7.11a.86.86,0,0,1-.61,1.46.82.82,0,0,1-.6-.25L73,60.41a.86.86,0,0,1,1.21-1.22ZM76,56.75a.85.85,0,0,1-.85.86H74.9a.86.86,0,0,1,0-1.71h.22A.85.85,0,0,1,76,56.75ZM73,54.31a.86.86,0,0,1,0-1.21l.15-.15a.86.86,0,1,1,1.21,1.21l-.15.15a.85.85,0,0,1-.61.25.83.83,0,0,1-.6-.25Z"/><rect class="cls-2" width="141.2" height="141.2" rx="70.6"/></g></g></svg>