<svg xmlns="http://www.w3.org/2000/svg" viewBox="0 0 141.2 141.2"><defs><style>.cls-1{}.cls-2{fill:none;}</style></defs><g id="Calque_2" data-name="Calque 2"><g id="Layer_1" data-name="Layer 1"><path class="cls-1" d="M35,97.74a10.93,10.93,0,0,0,2.26-.82,8.67,8.67,0,0,0,1.63-1l.42-.35.14-.14c1.1-1.06,2-1.82,2.76-2.45a9.15,9.15,0,0,0,3.28-4.1A25.84,25.84,0,0,1,50.25,81a41.06,41.06,0,0,1,6.64-5.81,5.19,5.19,0,0,0,1.63-1.82,5.74,5.74,0,0,0,.58-2.31,37.06,37.06,0,0,1,.73-5.57,19.48,19.48,0,0,1,2.26-5.83,8.64,8.64,0,0,0,1.16-2.75,5.79,5.79,0,0,0-.12-2.76,32.33,32.33,0,0,1-1.33-6.28,16.7,16.7,0,0,1,1-6.78,7.68,7.68,0,0,0,.46-2.41A6.69,6.69,0,0,0,62.7,36a1.61,1.61,0,0,1,2.53-2,12.68,12.68,0,0,0,3.69,1.94,13.59,13.59,0,0,1,7.79,8,15.62,15.62,0,0,1-.31,11c-.79,2-.69,2-.19,4a16.75,16.75,0,0,1-.07,9.13,20.92,20.92,0,0,1-4.28,7.41c-.58.7-1.11,1.27-1.58,1.77a9.6,9.6,0,0,0-2.83,4.8,21.46,21.46,0,0,1-1.59,4.09,12.91,12.91,0,0,1-2,2.91,6.1,6.1,0,0,0,3-.89,14.47,14.47,0,0,0,3.82-3.9A21.61,21.61,0,0,1,75,80a15.15,15.15,0,0,1,4.86-2.51,8.53,8.53,0,0,0,3.42-1.64c1.54-1.34,1.87-3.2,2.54-5a24.58,24.58,0,0,1,3-5.76,19.37,19.37,0,0,1,6.43-5.67,10.06,10.06,0,0,0,1.56-1,4.57,4.57,0,0,0,1-1.06c.76-1.19,1.56-2,2.47-1.92s1.78,1,2.69,3.2a17,17,0,0,1-.33,13.15,23.93,23.93,0,0,1-9.87,11.11,7.07,7.07,0,0,0-2.41,2.07c-.59.83-1.09,1.88-1.62,2.77a23.94,23.94,0,0,1-4.27,5.48,16.94,16.94,0,0,1-8.9,4.2,22.06,22.06,0,0,0-3.53.79,7.26,7.26,0,0,0-2.71,1.65,15.05,15.05,0,0,1-7.72,4.06,18.46,18.46,0,0,1-8.78-.69,6.51,6.51,0,0,0-4.44-.27c-.56.14-1.2.29-2.05.42a16.8,16.8,0,0,1-10.52-2A7.67,7.67,0,0,1,34,100c-.49-.55-.8-1.36,0-1.85a4.15,4.15,0,0,1,1-.37ZM74.58,85.37a.27.27,0,0,1-.35.1.24.24,0,0,1-.1-.34,11.16,11.16,0,0,1,2-2.4,9.38,9.38,0,0,1,2.42-1.67.26.26,0,0,1,.35.12.25.25,0,0,1-.13.33,9,9,0,0,0-2.28,1.58,10.58,10.58,0,0,0-1.87,2.28ZM55.38,93.8c-.26.2-.58-.19-.32-.39a8.45,8.45,0,0,1,4.7-1.64.25.25,0,0,1,0,.5,8,8,0,0,0-4.37,1.53Zm-6.72,7.56c-.41-.29.05-.89.46-.6a8.61,8.61,0,0,0,1.51.82,19.61,19.61,0,0,0,2.46.91,17.85,17.85,0,0,0,8.36.65,14.27,14.27,0,0,0,7.34-3.86,8,8,0,0,1,3-1.82,22.62,22.62,0,0,1,3.65-.82,16.15,16.15,0,0,0,8.51-4,22.93,22.93,0,0,0,4.14-5.32,16.88,16.88,0,0,0,1.41-2.82c.23-.61.4-1.19.55-1.68a.38.38,0,0,1,.74.21c-.18.6-.13.4.31,0a11.78,11.78,0,0,1,1.28-.86,23,23,0,0,0,9.55-10.74,16.2,16.2,0,0,0,.33-12.6c-.78-1.9-1.44-2.68-2-2.72s-1.14.6-1.75,1.56a5.19,5.19,0,0,1-1.1,1.23,11.27,11.27,0,0,1-1.69,1.14,18.71,18.71,0,0,0-6.18,5.45,24.13,24.13,0,0,0-2.89,5.53,32.11,32.11,0,0,0-1.19,3.72A20.13,20.13,0,0,0,85,77.16a.39.39,0,0,1-.77-.08c.13-1.22.49-1.44-.39-.68a9.1,9.1,0,0,1-3.73,1.81A14.25,14.25,0,0,0,75.5,80.6a20.3,20.3,0,0,0-4.2,4.18,22.79,22.79,0,0,0-1.86,2.81,12.22,12.22,0,0,0-.88,2,.38.38,0,0,1-.74-.21c.49-1.6.84-1.39-.56-.54a7.24,7.24,0,0,1-5,.93,12.38,12.38,0,0,0-2.72,0,15.11,15.11,0,0,0-3,.61,18.93,18.93,0,0,0-3.05,1.28A22,22,0,0,0,51.38,93a6.58,6.58,0,0,1-5.14,1.42l-.64,0a10.19,10.19,0,0,0-3.2.34,7.53,7.53,0,0,0-2.52,1.36,9.17,9.17,0,0,1-2.23,1.52,12.28,12.28,0,0,1-2.73,1c-.69.19-.78.4-.3.94a6.77,6.77,0,0,0,1.57,1.2,16,16,0,0,0,10,1.91,18.21,18.21,0,0,0,2-.4c1.61-.4,1.54-.06.48-.83Zm12.81-17a.26.26,0,0,1-.48-.18,3.2,3.2,0,0,0,.14-2,.26.26,0,0,1,.5-.1,3.65,3.65,0,0,1-.16,2.26ZM98,73.55a.27.27,0,0,1,.35-.11.25.25,0,0,1,.11.34,12.77,12.77,0,0,1-4.12,4.53.27.27,0,0,1-.36-.06A.25.25,0,0,1,94,77.9a12.12,12.12,0,0,0,4-4.35ZM70.56,53a.25.25,0,1,1-.24-.44A3.51,3.51,0,0,0,72,50.71a.25.25,0,0,1,.49.14A4,4,0,0,1,70.56,53ZM67.28,72.2a.25.25,0,1,1,0-.49,2.29,2.29,0,0,0,1.87-1.07.26.26,0,0,1,.42.29,2.78,2.78,0,0,1-2.29,1.27ZM59.63,89a13,13,0,0,0,1.85-2A8,8,0,0,0,63.2,83c.12-1.78-.56-4-2.44-4.64-2.39-.86-5.35.9-6.3,3a8.1,8.1,0,0,1-3,3.47,3.69,3.69,0,0,0-1.26,1.5,3.09,3.09,0,0,0,.59,3.11,5.46,5.46,0,0,0,2.27,1.67h0a19.54,19.54,0,0,1,3.27-1.38,15.36,15.36,0,0,1,3.3-.68Zm-7.39,2.51a6.05,6.05,0,0,1-2.08-1.68A3.8,3.8,0,0,1,49.48,86,4.36,4.36,0,0,1,51,84.19,7.47,7.47,0,0,0,53.76,81c1.1-2.46,4.5-4.4,7.26-3.4,2.22.79,3.1,3.27,2.95,5.39a8.58,8.58,0,0,1-1.87,4.43A13.1,13.1,0,0,1,60.8,89a12.54,12.54,0,0,1,1.61.1l.36,0a11.67,11.67,0,0,0,2.4-3.23,21.28,21.28,0,0,0,1.54-3.94,10.2,10.2,0,0,1,3-5.11c.44-.47,1-1,1.56-1.74a20.27,20.27,0,0,0,4.13-7.15,16,16,0,0,0,.06-8.73c-.54-2.17-.64-2.32.22-4.47a14.77,14.77,0,0,0,.3-10.5,12.83,12.83,0,0,0-7.35-7.6,13.36,13.36,0,0,1-3.89-2.05c-.91-.73-1.78,0-1.32,1.1a7.37,7.37,0,0,1,.61,3,8.28,8.28,0,0,1-.49,2.63,15.83,15.83,0,0,0-1,6.49,31.35,31.35,0,0,0,1.3,6.14A6.48,6.48,0,0,1,64,57.05a9.51,9.51,0,0,1-1.25,3,18.87,18.87,0,0,0-2.17,5.61,36.59,36.59,0,0,0-.72,5.46,6.63,6.63,0,0,1-.65,2.59,6.12,6.12,0,0,1-1.86,2.09,40,40,0,0,0-6.52,5.7,25.11,25.11,0,0,0-4.59,7.62,9.61,9.61,0,0,1-3.49,4.4l-.6.51h0a11,11,0,0,1,3.45-.38l.64,0a6,6,0,0,0,4.68-1.28c.42-.29.86-.57,1.3-.83ZM72.41,62.4c-1.66-3.59-5.1-3.87-7.36-.62a4.05,4.05,0,0,0-.92,2.71,7.64,7.64,0,0,1-1.34,4.2,3.37,3.37,0,0,0-.54,1.78c0,2.14,2.5,3.25,4.42,3.23a5.16,5.16,0,0,0,4.24-2.41,10.66,10.66,0,0,0,2-4.57,7.31,7.31,0,0,0-.55-4.32Zm.7-.3a8,8,0,0,1,.61,4.74,11.32,11.32,0,0,1-2.19,4.89,5.91,5.91,0,0,1-4.86,2.72c-2.37,0-5.17-1.4-5.19-4a4.13,4.13,0,0,1,.64-2.16,7,7,0,0,0,1.24-3.83,4.64,4.64,0,0,1,1-3.12c2.6-3.74,6.79-3.39,8.7.74Zm-.31-9a7.72,7.72,0,0,0,1.77-5.74A8.67,8.67,0,0,0,71.8,42c-3-2.66-6.25-1.62-7,2.23A3.94,3.94,0,0,0,65,47.11c1,2.27.34,3.1.42,5.26a3.07,3.07,0,0,0,.66,1.92c1.74,2,5.22.47,6.68-1.15Zm-7.28,1.63a3.77,3.77,0,0,1-.83-2.38c-.08-2,.52-2.89-.37-5A4.63,4.63,0,0,1,64,44.13c.87-4.43,4.87-5.71,8.3-2.64a9.44,9.44,0,0,1,3,5.86,8.51,8.51,0,0,1-2,6.29c-1.79,2-5.78,3.57-7.86,1.13Z"/><rect class="cls-2" width="141.2" height="141.2" rx="70.6"/></g></g></svg>