<svg xmlns="http://www.w3.org/2000/svg" viewBox="0 0 141.2 141.2"><defs><style>.cls-1{}.cls-2{fill:none;}</style></defs><g id="Calque_2" data-name="Calque 2"><g id="Layer_1" data-name="Layer 1"><path class="cls-1" d="M93.7,116.68a2.28,2.28,0,0,0-1.83-2c-13.16-.27-19.06-18.47-21-26.35.09-4.18.46-3.7,2.23-5.88l.11-.24a2.68,2.68,0,0,0,1.52-2.61,1.35,1.35,0,0,0,1-1.58,1.31,1.31,0,0,0-.7-.88l.09-.32a2.11,2.11,0,0,0,.61,0,2.14,2.14,0,0,0,.42-4c0-.07,0-.14,0-.21a2.26,2.26,0,0,0,.91-3.65,2.78,2.78,0,0,0,.2-4.65c0-.3,0-.6,0-.91a2.14,2.14,0,0,0,.2-3.89,2.13,2.13,0,0,0,0-.56A2,2,0,0,0,77,55.7c-.66-4.55-2.19-3.05-3.25-1.26a1.48,1.48,0,0,0-1,1.72s0,.08,0,.13c-.12.27-.19.45-.19.45s-.19-.58-.44-1.69a1.79,1.79,0,0,0,0-.83.14.14,0,0,0,0-.06,1.48,1.48,0,0,0,.18-1.08,1.51,1.51,0,0,0-.36-.67A2,2,0,0,0,72.3,49a2.67,2.67,0,0,0-1.06-5,1.74,1.74,0,0,0,1.25-2.05,1.71,1.71,0,0,0-1-1.19,1.33,1.33,0,0,0,.3-1.14,1.26,1.26,0,0,0-.21-.47,1,1,0,0,0,.17,0,1.07,1.07,0,0,0,.82-1.28,1.06,1.06,0,0,0-.64-.74,1.05,1.05,0,0,0-.61-1.69,1.46,1.46,0,0,0,.22,0,1.6,1.6,0,0,0,.1-3.11c0-.09,0-.18,0-.26a2.7,2.7,0,0,0,1.6-3.06,2.67,2.67,0,0,0-.84-1.42.36.36,0,0,0,0-.1,2.52,2.52,0,0,0,.47-.06,2.42,2.42,0,1,0-2.85-3c-.28,0-.58.1-.9.17a2,2,0,0,0-2-.71,2,2,0,0,0-1.57,1.8l-.59.25a2.5,2.5,0,0,0-1.71-.23,2.55,2.55,0,0,0-1.94,2,3,3,0,0,0-1.63-.11,3,3,0,0,0-2.24,3.53c0,.05,0,.1.05.15l-.85.94a2.43,2.43,0,0,0-.6,0,2.15,2.15,0,0,0-1.63,2.56,2,2,0,0,0,.08.26c-.14.21-.28.44-.41.66a1.88,1.88,0,0,0-1-.07,1.75,1.75,0,0,0-.68,3.09c-.16.34-.33.68-.49,1a1.28,1.28,0,0,0-.82-.11,1.34,1.34,0,0,0-1,1.61,1.26,1.26,0,0,0,.46.72h0a1.61,1.61,0,0,0-.44,3,.77.77,0,0,0-.24.75.78.78,0,0,0,.28.44s0,.08,0,.12a3.49,3.49,0,0,0-1.3,3.52,3.56,3.56,0,0,0,.91,1.66A1.46,1.46,0,0,0,49.08,53a1.49,1.49,0,0,0,1.17,1.13s0,.07,0,.11a1.59,1.59,0,0,0,0,.84,1.82,1.82,0,0,0,.15.41l0,.27a1.84,1.84,0,0,0-.33,0,1.3,1.3,0,0,0,0-.62,1.34,1.34,0,0,0-2.62.58,1.3,1.3,0,0,0,.76.91,2.39,2.39,0,0,0,1.35,3.9c0,.21.11.42.17.63a2.53,2.53,0,0,0,.69,2.7,3.51,3.51,0,0,0-.25,2.27,3.61,3.61,0,0,0,2.13,2.55l.05.09a2.92,2.92,0,0,0,1.19,3.78.93.93,0,0,0,0,.44.88.88,0,0,0,.93.67v.09a.44.44,0,0,0,.38.33.85.85,0,0,0,.66,1.48.28.28,0,0,0,0,.09.41.41,0,0,0,.38.33,1.13,1.13,0,0,0-.41,1.12,1.12,1.12,0,0,0,1.33.84h0a2.09,2.09,0,0,0,0,.34,2.7,2.7,0,0,0,2.34,2.08,2.13,2.13,0,0,0,0,.56,2,2,0,0,0,2,1.57c0,.1,0,.21,0,.31a2.41,2.41,0,0,0,2.88,1.83,2.29,2.29,0,0,0,.28-.09l4,4.11c1.87,8.6,8.08,29.65,24.1,30h0c.81,0,1.28-.87,1.06-1.94ZM72.14,67a1.21,1.21,0,1,1-.91,1.44A1.2,1.2,0,0,1,72.14,67ZM53.38,59.36a1.21,1.21,0,0,1-1.44-.92A1.2,1.2,0,0,1,52.85,57a1.23,1.23,0,0,1,1.45.92A1.21,1.21,0,0,1,53.38,59.36ZM68.45,26.84A1.21,1.21,0,0,1,69,29.2a1.21,1.21,0,0,1-.52-2.36Zm-.7,20.38a1.21,1.21,0,1,1-.53-2.36,1.21,1.21,0,0,1,.53,2.36Zm-.7-10.58a1.21,1.21,0,0,1,1.44.92,1.21,1.21,0,0,1-2.36.53A1.22,1.22,0,0,1,67.05,36.64ZM64.62,53.56a1.21,1.21,0,1,1,.52,2.36,1.21,1.21,0,1,1-.52-2.36Zm-7.17-8.73a1.21,1.21,0,1,1,.91-1.44A1.2,1.2,0,0,1,57.45,44.83Zm2.1,26.23a1.21,1.21,0,1,1,.93-1.44A1.22,1.22,0,0,1,59.55,71.06ZM60,48.81a1.21,1.21,0,1,1,.92-1.44A1.22,1.22,0,0,1,60,48.81Zm2-15.59a1.2,1.2,0,0,1,1.45.91,1.22,1.22,0,0,1-.92,1.45A1.21,1.21,0,0,1,62,33.22Zm.58,29.87a1.21,1.21,0,0,1-.52-2.36,1.21,1.21,0,1,1,.52,2.36Zm2.19,17.27a1.23,1.23,0,0,1-1.45-.92A1.21,1.21,0,0,1,64.26,78a1.2,1.2,0,0,1,1.44.91A1.22,1.22,0,0,1,64.79,80.36Zm2.66-19.58a1.21,1.21,0,1,1-.52-2.36,1.2,1.2,0,0,1,1.44.91A1.21,1.21,0,0,1,67.45,60.78Zm2.16,14.65a1.2,1.2,0,0,1-1.44-.91A1.2,1.2,0,1,1,70.52,74,1.2,1.2,0,0,1,69.61,75.43Z"/><rect class="cls-2" width="141.2" height="141.2" rx="70.6"/></g></g></svg>