<svg xmlns="http://www.w3.org/2000/svg" viewBox="0 0 141.2 141.2"><defs><style>.cls-1{fill:none;}.cls-2{fill:#059d4c;}.cls-10,.cls-11,.cls-2,.cls-3,.cls-4,.cls-5,.cls-6,.cls-7,.cls-8,.cls-9{fill-rule:evenodd;}.cls-3{fill:#8cc340;}.cls-4{fill:#fbdd00;}.cls-5{fill:#f79837;}.cls-6{fill:#bd2327;}.cls-7{fill:#3d2312;}.cls-8{fill:#5a401b;}.cls-9{fill:#5a606f;}.cls-10{fill:#838893;}.cls-11{fill:#d6d7db;}.cls-12{}.cls-13{fill:#6c6e72;}</style></defs><g id="Calque_2" data-name="Calque 2"><g id="Layer_1" data-name="Layer 1"><rect class="cls-1" width="141.2" height="141.2" rx="70.6"/><g id="layer5"><path id="path3365" class="cls-2" d="M111.32,34.82l-11.7,8.52a35,35,0,0,1,6.92,19.83h13.53C119.9,50.1,116,42,111.32,34.82Z"/><path id="path3376" class="cls-3" d="M86.26,15.8,81.6,30.67A35.08,35.08,0,0,1,98.84,42.28l11.57-8.5C104.26,24.9,95.86,19.44,86.26,15.8Z"/><path id="path3378" class="cls-4" d="M70.35,13.31a47.07,47.07,0,0,0-15.29,2.56s2.59,7.78,5.07,15.26a34,34,0,0,1,20.26-.76l4.57-15A55.49,55.49,0,0,0,70.35,13.31Z"/><path id="path3380" class="cls-5" d="M53.9,16.15c-8.63,3.55-16.73,8.56-23.26,18L43.39,43.4A35,35,0,0,1,59.07,31.49Z"/><path id="path3382" class="cls-6" d="M29.88,35.11a50.13,50.13,0,0,0-8.75,28.23h15.4a35.05,35.05,0,0,1,6.14-19L29.88,35.11Z"/></g><g id="layer1"><path id="path3338-3" class="cls-7" d="M32.3,85.85c.44-.36.87,1.49,2.25,2.07s4.11-.13,5.91.16S43,89.64,45.24,89.5s5.41-3.15,8-3.49,4.59,1.13,7,1.11,5.09-1.5,7.45-1.27,4.54,2.64,6.33,2.38,2.16-2.35,3.52-2.54,1.9,1.73,3.79,1.43,3.31-4.42,6.19-4.76,6.6,4.18,9.14,4.29,3.51-1.65,5.06-1.91,3,.72,4.08.16,2.23-1,2-2.7-3.67-2.9-5.06-3.33-2.12.75-2.82,0,.63-2.35-.14-3.33-3.37-.64-3.93-.8-1-1.88-1.83-2.38-2.26.18-3-.32-.34-1.28-1-1.9-2.27-.63-3-1.27S86.61,67.3,86,66.81a5.72,5.72,0,0,0-2.25-.64c-.28-.08-1.8-1.59-2.36-1.9a14.09,14.09,0,0,0-4.18-1.36l-.28.91a11.41,11.41,0,0,1-.88,1.43,6.4,6.4,0,0,0-.71,1l-.52-.35-1.52.31,2-.62-.74,0-1,.63L72,66,69,65.54l-2.91-1.07c-1.79-.9-2.88-.33-2.62-2.32L60.6,63.21l-3.48,3s-3.09,2.37-4.5,3.72-4.51.72-5.84,2-.91,2.34-2.32,3.33-4.45.25-6,1.43-2.75,4.68-3,4.84-2.77.09-3.58.87a3.19,3.19,0,0,0-1,2.86c.26.81,1.34,1.31,1.62,1s-.58,0-.14-.4Z"/></g><g id="layer4"><path id="path3369" class="cls-8" d="M78.14,42.52,94.42,4.9l2-.84,1.88.64,1.56,1.9L83.31,44.4l-.89.49s-2.41-1-2.9-1.14-1.38-1.23-1.38-1.23Z"/></g><g id="layer2"><path id="path3357" class="cls-9" d="M54,72.23c10.43,9.7,16.58,2.63,24.49,6.67L90,57.22c-4.68-2.36-6.73-1.07-10.56-4.26l3.89-8.61a4.48,4.48,0,0,1-1.14.19,5.82,5.82,0,0,1-2.17-.7,13.56,13.56,0,0,1-1.86-1.35l-3.61,8.17c-5-.71-7.51-4.31-12-4.57Z"/><path id="path3360" class="cls-10" d="M77.19,45.08,67.72,70.67,80,46l-1.12-1Z"/><path id="path3362" class="cls-11" d="M77.06,46.36,71.73,60.88l6.26-14c-.6-1.29.06-.66-.18-1.09Z"/><path id="path3364" class="cls-10" d="M86.29,57.47,81.08,72.1l7.25-14.19a3.7,3.7,0,0,0-2-.44Z"/><path id="path3366" class="cls-11" d="M86.9,58.06l-2.68,7.56,3.62-7.23C87.56,58,87.33,58.33,86.9,58.06Z"/></g><path class="cls-12" d="M46.26,109V98.35h7.16v1.81H48.33v2.75h4.23v1.7H48.33V109Z"/><path class="cls-12" d="M59,102.88a4.08,4.08,0,0,0-1.65.35,2.18,2.18,0,0,0-1,1V109h-2v-7.79h1.84v1.61a3.59,3.59,0,0,1,1.08-1.28,2.78,2.78,0,0,1,1.37-.51,1,1,0,0,0,.24,0,.29.29,0,0,1,.16,0Z"/><path class="cls-12" d="M60.09,100v-2h2v2Zm0,9v-7.86h2V109Z"/><path class="cls-12" d="M63.38,106.7a2.06,2.06,0,0,1,.43-1.31A2.84,2.84,0,0,1,65,104.5a4.57,4.57,0,0,1,1.76-.32,7,7,0,0,1,1,.08,3.4,3.4,0,0,1,.88.24v-.43a1.43,1.43,0,0,0-.43-1.12,1.87,1.87,0,0,0-1.31-.4,3.22,3.22,0,0,0-1.24.23,6.06,6.06,0,0,0-1.23.64l-.63-1.3a5.67,5.67,0,0,1,1.58-.78,6.11,6.11,0,0,1,1.72-.25,3.85,3.85,0,0,1,2.62.83,3,3,0,0,1,.93,2.37v2.47a.64.64,0,0,0,.12.44.51.51,0,0,0,.36.17V109l-.48.07a1.67,1.67,0,0,1-.37,0,1.41,1.41,0,0,1-.91-.26,1.07,1.07,0,0,1-.37-.66l0-.4a3.57,3.57,0,0,1-1.29,1,3.63,3.63,0,0,1-1.56.36,2.92,2.92,0,0,1-1.4-.33,2.46,2.46,0,0,1-1-.88A2.3,2.3,0,0,1,63.38,106.7Zm4.89.38a1.27,1.27,0,0,0,.27-.34.65.65,0,0,0,.1-.32v-.77a3.73,3.73,0,0,0-.78-.23,4.5,4.5,0,0,0-.79-.08,2.27,2.27,0,0,0-1.28.33,1,1,0,0,0-.51.87,1.07,1.07,0,0,0,.17.56,1.15,1.15,0,0,0,.47.43,1.61,1.61,0,0,0,.76.17,2.27,2.27,0,0,0,.88-.18A2.15,2.15,0,0,0,68.27,107.08Z"/><path class="cls-12" d="M77,109.15a3.19,3.19,0,0,1-1.61-.41,2.89,2.89,0,0,1-1.11-1.11V109H72.53v-11h2v4.56a3.3,3.3,0,0,1,1.12-1.11,3.1,3.1,0,0,1,1.6-.41,3.06,3.06,0,0,1,1.39.32,3.34,3.34,0,0,1,1.09.89,4.15,4.15,0,0,1,.71,1.29,4.71,4.71,0,0,1,.26,1.55,4.22,4.22,0,0,1-.29,1.57,4.27,4.27,0,0,1-.78,1.28,3.77,3.77,0,0,1-1.17.86A3.45,3.45,0,0,1,77,109.15Zm-.57-1.71a2.18,2.18,0,0,0,.89-.18,1.85,1.85,0,0,0,.7-.49,2.16,2.16,0,0,0,.44-.73,2.36,2.36,0,0,0,.16-.9,2.64,2.64,0,0,0-.26-1.14,2.06,2.06,0,0,0-.72-.87,1.82,1.82,0,0,0-1.08-.33,1.76,1.76,0,0,0-.83.21,2.62,2.62,0,0,0-.7.54,2.67,2.67,0,0,0-.51.76v1.84a2.2,2.2,0,0,0,.32.53,1.81,1.81,0,0,0,.46.41,2.41,2.41,0,0,0,.57.25A1.62,1.62,0,0,0,76.43,107.44Z"/><path class="cls-12" d="M82,98.05h2v8.44a1.14,1.14,0,0,0,.18.75.65.65,0,0,0,.48.18,2.19,2.19,0,0,0,.52,0,2.24,2.24,0,0,0,.44-.17l.27,1.54a3.5,3.5,0,0,1-.93.3,4.54,4.54,0,0,1-1,.11,2,2,0,0,1-1.46-.5,1.93,1.93,0,0,1-.52-1.43Z"/><path class="cls-12" d="M90.44,109.15a4.45,4.45,0,0,1-1.71-.32,3.85,3.85,0,0,1-1.31-.87,4,4,0,0,1-.82-1.27,4.25,4.25,0,0,1,.22-3.56,3.81,3.81,0,0,1,1.42-1.48,4.22,4.22,0,0,1,2.21-.56,4.15,4.15,0,0,1,2.19.56,3.82,3.82,0,0,1,1.41,1.47,4,4,0,0,1,.5,2c0,.13,0,.25,0,.36s0,.22,0,.29H88.44a2,2,0,0,0,.34,1.05,2.09,2.09,0,0,0,.75.67,2,2,0,0,0,1,.24,2.32,2.32,0,0,0,1.15-.3,1.51,1.51,0,0,0,.72-.78l1.71.47a3.13,3.13,0,0,1-.79,1.07,4,4,0,0,1-1.25.73A4.75,4.75,0,0,1,90.44,109.15Zm-2.06-4.66h4.11a2.28,2.28,0,0,0-.33-1,2,2,0,0,0-.73-.68,2.12,2.12,0,0,0-1-.24,2,2,0,0,0-1.7.92A2.28,2.28,0,0,0,88.38,104.49Z"/><path class="cls-12" d="M60.46,120.47a3.06,3.06,0,0,0-.56-.4,7.44,7.44,0,0,0-1-.52,7.78,7.78,0,0,0-1.26-.44,5.47,5.47,0,0,0-1.39-.18,3.19,3.19,0,0,0-1.86.45,1.5,1.5,0,0,0-.63,1.3,1.33,1.33,0,0,0,.4,1,3.07,3.07,0,0,0,1.19.63c.53.18,1.18.37,2,.57a14.84,14.84,0,0,1,2.67.91,4.4,4.4,0,0,1,1.74,1.4,4,4,0,0,1,.6,2.31,4.4,4.4,0,0,1-.46,2.1,4,4,0,0,1-1.26,1.44,5.63,5.63,0,0,1-1.85.81,9.36,9.36,0,0,1-2.21.25,11.45,11.45,0,0,1-2.33-.24,11.22,11.22,0,0,1-2.24-.7,11.54,11.54,0,0,1-2-1.08l1.34-2.62a5.49,5.49,0,0,0,.71.52,9.27,9.27,0,0,0,1.23.63,8.88,8.88,0,0,0,1.58.54,6.86,6.86,0,0,0,1.74.22,3.44,3.44,0,0,0,1.87-.4,1.33,1.33,0,0,0,.62-1.19,1.35,1.35,0,0,0-.5-1.1,4.14,4.14,0,0,0-1.4-.7q-.9-.3-2.13-.63a12.21,12.21,0,0,1-2.47-.94,3.88,3.88,0,0,1-1.48-1.3,3.61,3.61,0,0,1-.49-2,4.5,4.5,0,0,1,.77-2.69,4.76,4.76,0,0,1,2.07-1.64,7.22,7.22,0,0,1,2.88-.56,8.78,8.78,0,0,1,2.08.24,10.39,10.39,0,0,1,1.83.64,10.16,10.16,0,0,1,1.54.86Z"/><path class="cls-12" d="M71.31,132.11a7,7,0,0,1-3.11-.67,7.85,7.85,0,0,1-2.39-1.79,8.15,8.15,0,0,1-2.12-5.46,7.76,7.76,0,0,1,.59-3,8.43,8.43,0,0,1,1.6-2.53,7.73,7.73,0,0,1,2.43-1.76,7.27,7.27,0,0,1,3.06-.65,7,7,0,0,1,3.09.68,7.58,7.58,0,0,1,2.39,1.83,8.49,8.49,0,0,1,1.53,2.55,8.07,8.07,0,0,1-1.61,8.39,7.3,7.3,0,0,1-2.42,1.75A7.14,7.14,0,0,1,71.31,132.11Zm0-2.68a4,4,0,0,0,2-.46,4.65,4.65,0,0,0,1.42-1.19,5.34,5.34,0,0,0,.86-1.7,6.52,6.52,0,0,0,.29-1.89,6.18,6.18,0,0,0-.31-2,4.9,4.9,0,0,0-.9-1.67,4.77,4.77,0,0,0-1.43-1.17,4.08,4.08,0,0,0-1.91-.44,4,4,0,0,0-1.93.46A4.58,4.58,0,0,0,68,120.6a5.34,5.34,0,0,0-.88,1.69,6.14,6.14,0,0,0-.3,1.9,6.43,6.43,0,0,0,.31,2,5.24,5.24,0,0,0,.89,1.67A4.65,4.65,0,0,0,69.4,129,4.19,4.19,0,0,0,71.33,129.43ZM71,126.24h2.86L79,132H76.15Z"/><path class="cls-12" d="M90,129.34V132H81v-2.66h3.12v-6.69a2.12,2.12,0,0,1-.59.55,6.55,6.55,0,0,1-1,.53,7.81,7.81,0,0,1-1,.39,3.21,3.21,0,0,1-1,.16v-2.75a2.62,2.62,0,0,0,1-.24,8.19,8.19,0,0,0,1.12-.61,11,11,0,0,0,1-.7,1.93,1.93,0,0,0,.49-.54h3v9.9Z"/><polygon class="cls-13" points="124.07 37.13 129.62 49.68 118.9 46.92 124.07 37.13"/></g></g></svg>