<svg xmlns="http://www.w3.org/2000/svg" viewBox="0 0 141.2 141.2"><defs><style>.cls-1{fill:none;}.cls-2{fill:#059d4c;}.cls-10,.cls-11,.cls-2,.cls-3,.cls-4,.cls-5,.cls-6,.cls-7,.cls-8,.cls-9{fill-rule:evenodd;}.cls-3{fill:#8cc340;}.cls-4{fill:#fbdd00;}.cls-5{fill:#f79837;}.cls-6{fill:#bd2327;}.cls-7{fill:#3d2312;}.cls-8{fill:#5a401b;}.cls-9{fill:#5a606f;}.cls-10{fill:#838893;}.cls-11{fill:#d6d7db;}.cls-12{}.cls-13{fill:#6c6e72;}</style></defs><g id="Calque_2" data-name="Calque 2"><g id="Layer_1" data-name="Layer 1"><rect class="cls-1" width="141.2" height="141.2" rx="70.6"/><g id="layer5"><path id="path3365" class="cls-2" d="M111.32,34.82l-11.7,8.52a35,35,0,0,1,6.92,19.83h13.53C119.9,50.1,116,42,111.32,34.82Z"/><path id="path3376" class="cls-3" d="M86.26,15.8,81.6,30.67A35.08,35.08,0,0,1,98.84,42.28l11.57-8.5C104.26,24.9,95.86,19.44,86.26,15.8Z"/><path id="path3378" class="cls-4" d="M70.35,13.31a47.07,47.07,0,0,0-15.29,2.56s2.59,7.78,5.07,15.26a34,34,0,0,1,20.26-.76l4.57-15A55.49,55.49,0,0,0,70.35,13.31Z"/><path id="path3380" class="cls-5" d="M53.9,16.15c-8.63,3.55-16.73,8.56-23.26,18L43.39,43.4A35,35,0,0,1,59.07,31.49Z"/><path id="path3382" class="cls-6" d="M29.88,35.11a50.13,50.13,0,0,0-8.75,28.23h15.4a35.05,35.05,0,0,1,6.14-19L29.88,35.11Z"/></g><g id="layer1"><path id="path3338-3" class="cls-7" d="M32.3,85.85c.44-.36.87,1.49,2.25,2.07s4.11-.13,5.91.16S43,89.64,45.24,89.5s5.41-3.15,8-3.49,4.59,1.13,7,1.11,5.09-1.5,7.45-1.27,4.54,2.64,6.33,2.38,2.16-2.35,3.52-2.54,1.9,1.73,3.79,1.43,3.31-4.42,6.19-4.76,6.6,4.18,9.14,4.29,3.51-1.65,5.06-1.91,3,.72,4.08.16,2.23-1,2-2.7-3.67-2.9-5.06-3.33-2.12.75-2.82,0,.63-2.35-.14-3.33-3.37-.64-3.93-.8-1-1.88-1.83-2.38-2.26.18-3-.32-.34-1.28-1-1.9-2.27-.63-3-1.27S86.61,67.3,86,66.81a5.72,5.72,0,0,0-2.25-.64c-.28-.08-1.8-1.59-2.36-1.9a14.09,14.09,0,0,0-4.18-1.36l-.28.91a11.41,11.41,0,0,1-.88,1.43,6.4,6.4,0,0,0-.71,1l-.52-.35-1.52.31,2-.62-.74,0-1,.63L72,66,69,65.54l-2.91-1.07c-1.79-.9-2.88-.33-2.62-2.32L60.6,63.21l-3.48,3s-3.09,2.37-4.5,3.72-4.51.72-5.84,2-.91,2.34-2.32,3.33-4.45.25-6,1.43-2.75,4.68-3,4.84-2.77.09-3.58.87a3.19,3.19,0,0,0-1,2.86c.26.81,1.34,1.31,1.62,1s-.58,0-.14-.4Z"/></g><g id="layer4"><path id="path3369" class="cls-8" d="M78.14,42.52,94.42,4.9l2-.84,1.88.64,1.56,1.9L83.31,44.4l-.89.49s-2.41-1-2.9-1.14-1.38-1.23-1.38-1.23Z"/></g><g id="layer2"><path id="path3357" class="cls-9" d="M54,72.23c10.43,9.7,16.58,2.63,24.49,6.67L90,57.22c-4.68-2.36-6.73-1.07-10.56-4.26l3.89-8.61a4.48,4.48,0,0,1-1.14.19,5.82,5.82,0,0,1-2.17-.7,13.56,13.56,0,0,1-1.86-1.35l-3.61,8.17c-5-.71-7.51-4.31-12-4.57Z"/><path id="path3360" class="cls-10" d="M77.19,45.08,67.72,70.67,80,46l-1.12-1Z"/><path id="path3362" class="cls-11" d="M77.06,46.36,71.73,60.88l6.26-14c-.6-1.29.06-.66-.18-1.09Z"/><path id="path3364" class="cls-10" d="M86.29,57.47,81.08,72.1l7.25-14.19a3.7,3.7,0,0,0-2-.44Z"/><path id="path3366" class="cls-11" d="M86.9,58.06l-2.68,7.56,3.62-7.23C87.56,58,87.33,58.33,86.9,58.06Z"/></g><path class="cls-12" d="M48.18,109V98.35h7.15v1.81H50.25v2.75h4.23v1.69H50.25V109Z"/><path class="cls-12" d="M59.77,109.15a4.45,4.45,0,0,1-1.71-.32,3.81,3.81,0,0,1-1.3-.87,4,4,0,0,1-.83-1.27,4.35,4.35,0,0,1,.22-3.56,3.88,3.88,0,0,1,1.42-1.48,4.26,4.26,0,0,1,2.22-.56,4.15,4.15,0,0,1,2.19.56,3.87,3.87,0,0,1,1.41,1.46,4.09,4.09,0,0,1,.49,2c0,.13,0,.25,0,.36s0,.22,0,.29H57.78a2.17,2.17,0,0,0,.33,1.05,2.09,2.09,0,0,0,.75.67,2.07,2.07,0,0,0,1,.23A2.31,2.31,0,0,0,61,107.4a1.55,1.55,0,0,0,.73-.79l1.71.48a3.17,3.17,0,0,1-.8,1.07,3.91,3.91,0,0,1-1.24.73A4.81,4.81,0,0,1,59.77,109.15Zm-2.05-4.67h4.11a2.28,2.28,0,0,0-.34-1,2,2,0,0,0-.73-.68,2.18,2.18,0,0,0-2,0,2,2,0,0,0-.72.68A2.28,2.28,0,0,0,57.72,104.48Z"/><path class="cls-12" d="M69.81,102.88a4.08,4.08,0,0,0-1.65.35,2.18,2.18,0,0,0-1,1V109h-2v-7.79H67v1.61A3.48,3.48,0,0,1,68,101.54,2.6,2.6,0,0,1,69.4,101a1,1,0,0,0,.24,0,.47.47,0,0,1,.17,0Z"/><path class="cls-12" d="M83.13,109h-2v-4.35a2.25,2.25,0,0,0-.33-1.36,1.06,1.06,0,0,0-.89-.43,1.7,1.7,0,0,0-1.12.46,2.44,2.44,0,0,0-.75,1.16V109H76v-4.35a2.34,2.34,0,0,0-.31-1.36,1.06,1.06,0,0,0-.89-.43,1.77,1.77,0,0,0-1.12.44,2.4,2.4,0,0,0-.77,1.16V109h-2v-7.79h1.81v1.46a3,3,0,0,1,1.21-1.17,3.58,3.58,0,0,1,1.72-.41,2.23,2.23,0,0,1,1.52.48,2.16,2.16,0,0,1,.7,1.17,3.32,3.32,0,0,1,1.22-1.22,3.37,3.37,0,0,1,1.69-.43,2.36,2.36,0,0,1,1.17.26,1.94,1.94,0,0,1,.72.7,3.06,3.06,0,0,1,.35,1,6.72,6.72,0,0,1,.1,1.1Z"/><path class="cls-12" d="M88.52,109.15a4.53,4.53,0,0,1-1.71-.32,3.91,3.91,0,0,1-1.3-.87,4,4,0,0,1-.82-1.27,4.12,4.12,0,0,1-.29-1.53,4.27,4.27,0,0,1,.5-2,3.9,3.9,0,0,1,1.43-1.48,4.19,4.19,0,0,1,2.21-.56,4.15,4.15,0,0,1,2.19.56,3.87,3.87,0,0,1,1.41,1.46,4.1,4.1,0,0,1,.5,2c0,.13,0,.25,0,.36s0,.22,0,.29H86.53a2.08,2.08,0,0,0,.34,1.05,1.94,1.94,0,0,0,.75.67,2,2,0,0,0,1,.23,2.25,2.25,0,0,0,1.14-.29,1.51,1.51,0,0,0,.73-.79l1.71.48a3.13,3.13,0,0,1-.79,1.07,4.07,4.07,0,0,1-1.25.73A4.77,4.77,0,0,1,88.52,109.15Zm-2-4.67h4.11a2.17,2.17,0,0,0-.34-1,2,2,0,0,0-.72-.68,2.12,2.12,0,0,0-1-.24,2,2,0,0,0-1,.24,1.88,1.88,0,0,0-.72.68A2.17,2.17,0,0,0,86.47,104.48Z"/><path class="cls-12" d="M59.76,120.47a4.09,4.09,0,0,0-.56-.41c-.28-.16-.61-.34-1-.51a7.57,7.57,0,0,0-1.27-.44,5.39,5.39,0,0,0-1.38-.18,3.15,3.15,0,0,0-1.86.45,1.5,1.5,0,0,0-.63,1.3,1.33,1.33,0,0,0,.39,1,3.14,3.14,0,0,0,1.19.63q.8.27,2,.57a14,14,0,0,1,2.68.91A4.37,4.37,0,0,1,61,125.2a3.92,3.92,0,0,1,.61,2.31,4.52,4.52,0,0,1-.46,2.1,3.92,3.92,0,0,1-1.27,1.44,5.45,5.45,0,0,1-1.85.81,9.78,9.78,0,0,1-2.21.25,11.59,11.59,0,0,1-2.33-.24,11.94,11.94,0,0,1-4.22-1.78l1.34-2.62a4.56,4.56,0,0,0,.7.51,8.7,8.7,0,0,0,1.23.64,9.28,9.28,0,0,0,1.59.54,6.8,6.8,0,0,0,1.74.22,3.47,3.47,0,0,0,1.87-.4,1.32,1.32,0,0,0,.61-1.19,1.35,1.35,0,0,0-.49-1.1,4.24,4.24,0,0,0-1.4-.7q-.9-.3-2.13-.63a12.32,12.32,0,0,1-2.48-.94,3.92,3.92,0,0,1-1.47-1.3,3.62,3.62,0,0,1-.5-2,4.54,4.54,0,0,1,.77-2.68,4.88,4.88,0,0,1,2.07-1.64,7.29,7.29,0,0,1,2.88-.56,8.66,8.66,0,0,1,2.08.24,10.5,10.5,0,0,1,1.84.64,10.67,10.67,0,0,1,1.54.86Z"/><path class="cls-12" d="M70.6,132.11a7,7,0,0,1-3.1-.67,8,8,0,0,1-2.4-1.79,8.34,8.34,0,0,1-1.56-2.55,7.87,7.87,0,0,1-.55-2.91,7.72,7.72,0,0,1,.58-3,8.45,8.45,0,0,1,1.61-2.53,7.51,7.51,0,0,1,2.43-1.76,7.27,7.27,0,0,1,3.06-.65,7,7,0,0,1,3.09.68,7.58,7.58,0,0,1,2.39,1.83,8.49,8.49,0,0,1,1.53,2.55,8.27,8.27,0,0,1,.53,2.9,7.83,7.83,0,0,1-.56,3,8,8,0,0,1-1.58,2.53,7.4,7.4,0,0,1-2.42,1.75A7.19,7.19,0,0,1,70.6,132.11Zm0-2.68a4.08,4.08,0,0,0,2-.46A4.54,4.54,0,0,0,74,127.78a5.17,5.17,0,0,0,.87-1.7,6.33,6.33,0,0,0,0-3.85,5.27,5.27,0,0,0-.9-1.67,4.9,4.9,0,0,0-1.43-1.17A4.12,4.12,0,0,0,70.6,119a4,4,0,0,0-1.92.45,4.5,4.5,0,0,0-1.43,1.2,5.14,5.14,0,0,0-.88,1.69,6.26,6.26,0,0,0,0,3.86,5.05,5.05,0,0,0,.89,1.67A4.54,4.54,0,0,0,68.7,129,4.15,4.15,0,0,0,70.62,129.43Zm-.3-3.19h2.86L78.32,132H75.44Z"/><path class="cls-12" d="M87.28,126.65a3.51,3.51,0,0,1,1.63.72,3.8,3.8,0,0,1,1.06,1.4,4.44,4.44,0,0,1,.39,1.89,4.2,4.2,0,0,1-.71,2.41,4.45,4.45,0,0,1-2,1.6,7.38,7.38,0,0,1-3,.56,7.59,7.59,0,0,1-3-.54,5.55,5.55,0,0,1-2.15-1.57l1.68-2.07a4.23,4.23,0,0,0,1.36,1.09,4.33,4.33,0,0,0,2,.41,3.27,3.27,0,0,0,2-.56,2,2,0,0,0,.7-1.67,2.18,2.18,0,0,0-.81-1.82,4,4,0,0,0-2.47-.64h-.61v-2.22h.7a3.17,3.17,0,0,0,2.08-.62,2,2,0,0,0,.74-1.57,1.8,1.8,0,0,0-.27-1,1.53,1.53,0,0,0-.77-.61,3,3,0,0,0-1.16-.2,3.67,3.67,0,0,0-1.82.45,3.43,3.43,0,0,0-1.31,1.31l-1.85-2.07A4.58,4.58,0,0,1,81,120.13a6.52,6.52,0,0,1,1.86-.79,8.6,8.6,0,0,1,2.17-.28,6.48,6.48,0,0,1,2.62.5,4,4,0,0,1,1.76,1.37,3.5,3.5,0,0,1,.63,2.09,4,4,0,0,1-.34,1.64,3.46,3.46,0,0,1-1,1.29A3.4,3.4,0,0,1,87.28,126.65Z"/><polygon class="cls-13" points="63.74 2.43 77.46 2.43 70.6 11.12 63.74 2.43"/></g></g></svg>