<svg xmlns="http://www.w3.org/2000/svg" viewBox="0 0 141.2 141.2"><defs><style>.cls-1{fill:none;}.cls-2{fill:#059d4c;}.cls-10,.cls-11,.cls-2,.cls-3,.cls-4,.cls-5,.cls-6,.cls-7,.cls-8,.cls-9{fill-rule:evenodd;}.cls-3{fill:#8cc340;}.cls-4{fill:#fbdd00;}.cls-5{fill:#f79837;}.cls-6{fill:#bd2327;}.cls-7{fill:#3d2312;}.cls-8{fill:#5a401b;}.cls-9{fill:#5a606f;}.cls-10{fill:#838893;}.cls-11{fill:#d6d7db;}.cls-12{}.cls-13{fill:#6c6e72;}</style></defs><g id="Calque_2" data-name="Calque 2"><g id="Layer_1" data-name="Layer 1"><rect class="cls-1" width="141.2" height="141.2" rx="70.6"/><g id="layer5"><path id="path3365" class="cls-2" d="M111.32,34.82l-11.7,8.52a35,35,0,0,1,6.92,19.83h13.53C119.9,50.1,116,42,111.32,34.82Z"/><path id="path3376" class="cls-3" d="M86.26,15.8,81.6,30.67A35.08,35.08,0,0,1,98.84,42.28l11.57-8.5C104.26,24.9,95.86,19.44,86.26,15.8Z"/><path id="path3378" class="cls-4" d="M70.35,13.31a47.07,47.07,0,0,0-15.29,2.56s2.59,7.78,5.07,15.26a34,34,0,0,1,20.26-.76l4.57-15A55.49,55.49,0,0,0,70.35,13.31Z"/><path id="path3380" class="cls-5" d="M53.9,16.15c-8.63,3.55-16.73,8.56-23.26,18L43.39,43.4A35,35,0,0,1,59.07,31.49Z"/><path id="path3382" class="cls-6" d="M29.88,35.11a50.13,50.13,0,0,0-8.75,28.23h15.4a35.05,35.05,0,0,1,6.14-19L29.88,35.11Z"/></g><g id="layer1"><path id="path3338-3" class="cls-7" d="M32.3,85.85c.44-.36.87,1.49,2.25,2.07s4.11-.13,5.91.16S43,89.64,45.24,89.5s5.41-3.15,8-3.49,4.59,1.13,7,1.11,5.09-1.5,7.45-1.27,4.54,2.64,6.33,2.38,2.16-2.35,3.52-2.54,1.9,1.73,3.79,1.43,3.31-4.42,6.19-4.76,6.6,4.18,9.14,4.29,3.51-1.65,5.06-1.91,3,.72,4.08.16,2.23-1,2-2.7-3.67-2.9-5.06-3.33-2.12.75-2.82,0,.63-2.35-.14-3.33-3.37-.64-3.93-.8-1-1.88-1.83-2.38-2.26.18-3-.32-.34-1.28-1-1.9-2.27-.63-3-1.27S86.61,67.3,86,66.81a5.72,5.72,0,0,0-2.25-.64c-.28-.08-1.8-1.59-2.36-1.9a14.09,14.09,0,0,0-4.18-1.36l-.28.91a11.41,11.41,0,0,1-.88,1.43,6.4,6.4,0,0,0-.71,1l-.52-.35-1.52.31,2-.62-.74,0-1,.63L72,66,69,65.54l-2.91-1.07c-1.79-.9-2.88-.33-2.62-2.32L60.6,63.21l-3.48,3s-3.09,2.37-4.5,3.72-4.51.72-5.84,2-.91,2.34-2.32,3.33-4.45.25-6,1.43-2.75,4.68-3,4.84-2.77.09-3.58.87a3.19,3.19,0,0,0-1,2.86c.26.81,1.34,1.31,1.62,1s-.58,0-.14-.4Z"/></g><g id="layer4"><path id="path3369" class="cls-8" d="M78.14,42.52,94.42,4.9l2-.84,1.88.64,1.56,1.9L83.31,44.4l-.89.49s-2.41-1-2.9-1.14-1.38-1.23-1.38-1.23Z"/></g><g id="layer2"><path id="path3357" class="cls-9" d="M54,72.23c10.43,9.7,16.58,2.63,24.49,6.67L90,57.22c-4.68-2.36-6.73-1.07-10.56-4.26l3.89-8.61a4.48,4.48,0,0,1-1.14.19,5.82,5.82,0,0,1-2.17-.7,13.56,13.56,0,0,1-1.86-1.35l-3.61,8.17c-5-.71-7.51-4.31-12-4.57Z"/><path id="path3360" class="cls-10" d="M77.19,45.08,67.72,70.67,80,46l-1.12-1Z"/><path id="path3362" class="cls-11" d="M77.06,46.36,71.73,60.88l6.26-14c-.6-1.29.06-.66-.18-1.09Z"/><path id="path3364" class="cls-10" d="M86.29,57.47,81.08,72.1l7.25-14.19a3.7,3.7,0,0,0-2-.44Z"/><path id="path3366" class="cls-11" d="M86.9,58.06l-2.68,7.56,3.62-7.23C87.56,58,87.33,58.33,86.9,58.06Z"/></g><path class="cls-12" d="M37.64,103.58a5.48,5.48,0,0,1,.35-1.92A5.38,5.38,0,0,1,39,100a5.11,5.11,0,0,1,1.66-1.22,5.18,5.18,0,0,1,2.2-.46,4.82,4.82,0,0,1,2.54.65A4,4,0,0,1,47,100.6l-1.58,1.09a2.44,2.44,0,0,0-.7-.94,2.85,2.85,0,0,0-.94-.5,3.42,3.42,0,0,0-1-.15,2.82,2.82,0,0,0-1.36.32,3,3,0,0,0-1,.82,3.81,3.81,0,0,0-.57,1.14,4.33,4.33,0,0,0-.2,1.28A4.06,4.06,0,0,0,40,105a3.82,3.82,0,0,0,.63,1.16,3.14,3.14,0,0,0,1,.79,2.73,2.73,0,0,0,1.27.29,3.2,3.2,0,0,0,1-.16,2.89,2.89,0,0,0,.95-.53,2.61,2.61,0,0,0,.7-.94l1.68,1a3.33,3.33,0,0,1-1,1.35,5.27,5.27,0,0,1-1.59.84,5.66,5.66,0,0,1-1.75.28,4.51,4.51,0,0,1-2.08-.47,5.21,5.21,0,0,1-1.62-1.26A5.93,5.93,0,0,1,38,105.57,5.53,5.53,0,0,1,37.64,103.58Z"/><path class="cls-12" d="M52,109.15a4.29,4.29,0,0,1-1.72-.33,3.77,3.77,0,0,1-1.29-.89,3.69,3.69,0,0,1-.82-1.28,4.1,4.1,0,0,1-.28-1.52,4.27,4.27,0,0,1,.28-1.56,3.67,3.67,0,0,1,.81-1.28,3.78,3.78,0,0,1,1.3-.88,4.78,4.78,0,0,1,3.44,0,3.94,3.94,0,0,1,1.29.88,3.72,3.72,0,0,1,.83,1.28,4.28,4.28,0,0,1,.29,1.56,4.11,4.11,0,0,1-.29,1.52,3.72,3.72,0,0,1-.83,1.28,3.68,3.68,0,0,1-1.29.89A4.29,4.29,0,0,1,52,109.15Zm-2-4a2.57,2.57,0,0,0,.27,1.19,2,2,0,0,0,.74.82,1.89,1.89,0,0,0,1,.3,1.91,1.91,0,0,0,1-.3,2.21,2.21,0,0,0,.74-.83,2.67,2.67,0,0,0,0-2.38,2.18,2.18,0,0,0-.74-.82A1.85,1.85,0,0,0,52,102.8a1.79,1.79,0,0,0-1,.31,2.08,2.08,0,0,0-.73.82A2.59,2.59,0,0,0,49.93,105.13Z"/><path class="cls-12" d="M69.65,109h-2v-4.35a2.33,2.33,0,0,0-.32-1.36,1.07,1.07,0,0,0-.89-.43,1.73,1.73,0,0,0-1.13.46,2.44,2.44,0,0,0-.75,1.16V109h-2v-4.35a2.33,2.33,0,0,0-.32-1.36,1.05,1.05,0,0,0-.88-.43,1.79,1.79,0,0,0-1.13.44,2.32,2.32,0,0,0-.76,1.16V109h-2v-7.79h1.82v1.46a3.06,3.06,0,0,1,1.2-1.17,3.61,3.61,0,0,1,1.72-.41,2.22,2.22,0,0,1,1.52.48,2.1,2.1,0,0,1,.7,1.17,3.27,3.27,0,0,1,2.91-1.65,2.43,2.43,0,0,1,1.18.26,2,2,0,0,1,.71.7,2.84,2.84,0,0,1,.35,1,5.77,5.77,0,0,1,.1,1.1Z"/><path class="cls-12" d="M76.12,109.15a3.12,3.12,0,0,1-1.63-.42,3,3,0,0,1-1.09-1.09v4.55h-2v-11h1.75v1.35a3.33,3.33,0,0,1,1.14-1.07,3.16,3.16,0,0,1,1.57-.4,3.4,3.4,0,0,1,1.47.32,3.62,3.62,0,0,1,1.17.86,4,4,0,0,1,.77,1.29,4.38,4.38,0,0,1,.27,1.54,4.77,4.77,0,0,1-.44,2.05,3.73,3.73,0,0,1-1.22,1.46A3,3,0,0,1,76.12,109.15Zm-.68-1.71a1.78,1.78,0,0,0,.83-.19,1.94,1.94,0,0,0,.65-.52,2.3,2.3,0,0,0,.43-.75,2.84,2.84,0,0,0,0-1.79A2.2,2.2,0,0,0,76.18,103a2.08,2.08,0,0,0-.87-.18,2,2,0,0,0-.57.1,2.22,2.22,0,0,0-.56.27,2.31,2.31,0,0,0-.47.4,1.94,1.94,0,0,0-.31.52v1.83a3.29,3.29,0,0,0,.5.77,2.23,2.23,0,0,0,.72.55A1.84,1.84,0,0,0,75.44,107.44Z"/><path class="cls-12" d="M80.37,106.7a2.12,2.12,0,0,1,.43-1.31A2.88,2.88,0,0,1,82,104.5a4.53,4.53,0,0,1,1.76-.32,6.85,6.85,0,0,1,1,.08,3.48,3.48,0,0,1,.89.24v-.43A1.44,1.44,0,0,0,85.2,103a1.84,1.84,0,0,0-1.3-.4,3.37,3.37,0,0,0-1.24.22,6.46,6.46,0,0,0-1.24.65l-.63-1.31a5.83,5.83,0,0,1,1.59-.77,6,6,0,0,1,1.71-.25,3.83,3.83,0,0,1,2.62.83,3,3,0,0,1,.94,2.37v2.47a.71.71,0,0,0,.11.44.51.51,0,0,0,.37.16V109l-.49.07a1.58,1.58,0,0,1-.36,0,1.37,1.37,0,0,1-.91-.26,1,1,0,0,1-.37-.66l0-.4a3.7,3.7,0,0,1-2.84,1.38,3,3,0,0,1-1.41-.33,2.43,2.43,0,0,1-1-.88A2.22,2.22,0,0,1,80.37,106.7Zm4.89.38a1.54,1.54,0,0,0,.28-.34.78.78,0,0,0,.1-.32v-.77a3.73,3.73,0,0,0-.78-.23,4.6,4.6,0,0,0-.79-.08,2.31,2.31,0,0,0-1.29.33,1,1,0,0,0-.5.87,1,1,0,0,0,.17.56,1,1,0,0,0,.47.43,1.54,1.54,0,0,0,.75.16,2.31,2.31,0,0,0,.89-.17A2.1,2.1,0,0,0,85.26,107.08Z"/><path class="cls-12" d="M93.18,109.15a4.48,4.48,0,0,1-1.73-.32,3.81,3.81,0,0,1-1.3-.89,3.93,3.93,0,0,1-.82-1.3,4.12,4.12,0,0,1-.29-1.53,4.18,4.18,0,0,1,.5-2A3.78,3.78,0,0,1,91,101.64a4.34,4.34,0,0,1,2.21-.55,4.15,4.15,0,0,1,2.19.56,3.42,3.42,0,0,1,1.35,1.45l-1.95.6a1.72,1.72,0,0,0-.68-.66,1.85,1.85,0,0,0-.94-.24,1.92,1.92,0,0,0-1,.29,2,2,0,0,0-.74.8,2.78,2.78,0,0,0,0,2.43,2,2,0,0,0,.74.82,1.85,1.85,0,0,0,1,.3,1.92,1.92,0,0,0,.69-.12,1.88,1.88,0,0,0,.58-.34,1.28,1.28,0,0,0,.38-.47l2,.6a3.27,3.27,0,0,1-.78,1,3.92,3.92,0,0,1-1.22.73A4.53,4.53,0,0,1,93.18,109.15Z"/><path class="cls-12" d="M102.71,108.61l-.62.25a7.12,7.12,0,0,1-.77.21,4.58,4.58,0,0,1-.83.08,2.68,2.68,0,0,1-1-.19,1.65,1.65,0,0,1-.74-.62,2,2,0,0,1-.28-1.11v-4.49h-1v-1.53h1V98.66h2v2.55h1.65v1.53h-1.65v3.81a.71.71,0,0,0,.76.77,1.81,1.81,0,0,0,.6-.11l.5-.21Z"/><path class="cls-12" d="M59.55,120.47a3.53,3.53,0,0,0-.56-.41,8.93,8.93,0,0,0-1-.51,7.57,7.57,0,0,0-1.27-.44,5.33,5.33,0,0,0-1.38-.18,3.19,3.19,0,0,0-1.86.45,1.5,1.5,0,0,0-.63,1.3,1.3,1.3,0,0,0,.4,1,3.07,3.07,0,0,0,1.19.63c.52.18,1.18.37,2,.57a14,14,0,0,1,2.68.91,4.47,4.47,0,0,1,1.74,1.4,4,4,0,0,1,.6,2.31,4.4,4.4,0,0,1-.46,2.1,3.92,3.92,0,0,1-1.27,1.44,5.49,5.49,0,0,1-1.84.81,9.91,9.91,0,0,1-2.21.25,11.62,11.62,0,0,1-2.34-.24,11.33,11.33,0,0,1-2.23-.7,11.18,11.18,0,0,1-2-1.08l1.34-2.62a4.28,4.28,0,0,0,.71.51,7.72,7.72,0,0,0,1.23.64,8.88,8.88,0,0,0,1.58.54,6.8,6.8,0,0,0,1.74.22,3.44,3.44,0,0,0,1.87-.4,1.33,1.33,0,0,0,.62-1.19,1.35,1.35,0,0,0-.5-1.1,4.24,4.24,0,0,0-1.4-.7q-.9-.3-2.13-.63a12.56,12.56,0,0,1-2.48-.94,3.92,3.92,0,0,1-1.47-1.3,3.62,3.62,0,0,1-.5-2,4.47,4.47,0,0,1,.78-2.68,4.79,4.79,0,0,1,2.06-1.64,7.3,7.3,0,0,1,2.89-.56,8.64,8.64,0,0,1,2.07.24,10.65,10.65,0,0,1,3.38,1.5Z"/><path class="cls-12" d="M70.39,132.11a7,7,0,0,1-3.1-.67,8,8,0,0,1-2.4-1.79,8.34,8.34,0,0,1-1.56-2.55,8.08,8.08,0,0,1-.55-2.91,7.73,7.73,0,0,1,.59-3,8.23,8.23,0,0,1,1.6-2.53,7.51,7.51,0,0,1,2.43-1.76,7.27,7.27,0,0,1,3.06-.65,7,7,0,0,1,3.09.68,7.58,7.58,0,0,1,2.39,1.83,8.49,8.49,0,0,1,1.53,2.55,8.08,8.08,0,0,1,0,5.86,8.21,8.21,0,0,1-1.59,2.53,7.4,7.4,0,0,1-2.42,1.75A7.19,7.19,0,0,1,70.39,132.11Zm0-2.68a4,4,0,0,0,2-.46,4.43,4.43,0,0,0,1.42-1.19,5.17,5.17,0,0,0,.87-1.7,6.52,6.52,0,0,0,.29-1.89,6.18,6.18,0,0,0-.31-2,5.27,5.27,0,0,0-.9-1.67,4.77,4.77,0,0,0-1.43-1.17,4.12,4.12,0,0,0-1.92-.44,4,4,0,0,0-1.92.45A4.61,4.61,0,0,0,67,120.6a5.34,5.34,0,0,0-.88,1.69,6.26,6.26,0,0,0,0,3.86,5.24,5.24,0,0,0,.89,1.67A4.65,4.65,0,0,0,68.49,129,4.19,4.19,0,0,0,70.42,129.43Zm-.31-3.19H73L78.12,132H75.23Z"/><path class="cls-12" d="M85.71,134.79v-3.27H79.28V128.9l7.37-9.46h2v9.44h1.94v2.64H88.65v3.27Zm-3.48-5.91H86v-5Z"/><polygon class="cls-13" points="28.64 19.4 39.58 11.12 39.35 22.19 28.64 19.4"/></g></g></svg>