<svg xmlns="http://www.w3.org/2000/svg" viewBox="0 0 141.2 141.2"><defs><style>.cls-1{fill:none;}.cls-2{fill:#059d4c;}.cls-10,.cls-11,.cls-2,.cls-3,.cls-4,.cls-5,.cls-6,.cls-7,.cls-8,.cls-9{fill-rule:evenodd;}.cls-3{fill:#8cc340;}.cls-4{fill:#fbdd00;}.cls-5{fill:#f79837;}.cls-6{fill:#bd2327;}.cls-7{fill:#3d2312;}.cls-8{fill:#695230;}.cls-9{fill:#5a606f;}.cls-10{fill:#838893;}.cls-11{fill:#d6d7db;}.cls-12{}.cls-13{fill:#6c6e72;}</style></defs><g id="Calque_2" data-name="Calque 2"><g id="Layer_1" data-name="Layer 1"><rect class="cls-1" width="141.2" height="141.2" rx="70.6"/><g id="layer5"><path id="path3365" class="cls-2" d="M111.32,34.82l-11.7,8.52a35,35,0,0,1,6.92,19.83h13.53C119.9,50.1,116,42,111.32,34.82Z"/><path id="path3376" class="cls-3" d="M86.26,15.8,81.6,30.67A35.08,35.08,0,0,1,98.84,42.28l11.57-8.5C104.26,24.9,95.86,19.44,86.26,15.8Z"/><path id="path3378" class="cls-4" d="M70.35,13.31a47.07,47.07,0,0,0-15.29,2.56s2.59,7.78,5.07,15.26a34,34,0,0,1,20.26-.76l4.57-15A55.49,55.49,0,0,0,70.35,13.31Z"/><path id="path3380" class="cls-5" d="M53.9,16.15c-8.63,3.55-16.73,8.56-23.26,18L43.39,43.4A35,35,0,0,1,59.07,31.49Z"/><path id="path3382" class="cls-6" d="M29.88,35.11a50.13,50.13,0,0,0-8.75,28.23h15.4a35.05,35.05,0,0,1,6.14-19L29.88,35.11Z"/></g><g id="layer1"><path id="path3338-3" class="cls-7" d="M32.3,85.85c.44-.36.87,1.49,2.25,2.07s4.11-.13,5.91.16S43,89.64,45.24,89.5s5.41-3.15,8-3.49,4.59,1.13,7,1.11,5.09-1.5,7.45-1.27,4.54,2.64,6.33,2.38,2.16-2.35,3.52-2.54,1.9,1.73,3.79,1.43,3.31-4.42,6.19-4.76,6.6,4.18,9.14,4.29,3.51-1.65,5.06-1.91,3,.72,4.08.16,2.23-1,2-2.7-3.67-2.9-5.06-3.33-2.12.75-2.82,0,.63-2.35-.14-3.33-3.37-.64-3.93-.8-1-1.88-1.83-2.38-2.26.18-3-.32-.34-1.28-1-1.9-2.27-.63-3-1.27S86.61,67.3,86,66.81a5.72,5.72,0,0,0-2.25-.64c-.28-.08-1.8-1.59-2.36-1.9a14.09,14.09,0,0,0-4.18-1.36l-.28.91a11.41,11.41,0,0,1-.88,1.43,6.4,6.4,0,0,0-.71,1l-.52-.35-1.52.31,2-.62-.74,0-1,.63L72,66,69,65.54l-2.91-1.07c-1.79-.9-2.88-.33-2.62-2.32L60.6,63.21l-3.48,3s-3.09,2.37-4.5,3.72-4.51.72-5.84,2-.91,2.34-2.32,3.33-4.45.25-6,1.43-2.75,4.68-3,4.84-2.77.09-3.58.87a3.19,3.19,0,0,0-1,2.86c.26.81,1.34,1.31,1.62,1s-.58,0-.14-.4Z"/></g><g id="layer4"><path id="path3369" class="cls-8" d="M78.14,42.52,94.42,4.9l2-.84,1.88.64,1.56,1.9L83.31,44.4l-.89.49s-2.41-1-2.9-1.14-1.38-1.23-1.38-1.23Z"/></g><g id="layer2"><path id="path3357" class="cls-9" d="M54,72.23c10.43,9.7,16.58,2.63,24.49,6.67L90,57.22c-4.68-2.36-6.73-1.07-10.56-4.26l3.89-8.61a4.48,4.48,0,0,1-1.14.19,5.82,5.82,0,0,1-2.17-.7,13.56,13.56,0,0,1-1.86-1.35l-3.61,8.17c-5-.71-7.51-4.31-12-4.57Z"/><path id="path3360" class="cls-10" d="M77.19,45.08,67.72,70.67,80,46l-1.12-1Z"/><path id="path3362" class="cls-11" d="M77.06,46.36,71.73,60.88l6.26-14c-.6-1.29.06-.66-.18-1.09Z"/><path id="path3364" class="cls-10" d="M86.29,57.47,81.08,72.1l7.25-14.19a3.7,3.7,0,0,0-2-.44Z"/><path id="path3366" class="cls-11" d="M86.9,58.06l-2.68,7.56,3.62-7.23C87.56,58,87.33,58.33,86.9,58.06Z"/></g><path class="cls-12" d="M30,100.16H26.65V109h-2v-8.84H21.18V98.35H30Z"/><path class="cls-12" d="M35.13,102.88a4.08,4.08,0,0,0-1.65.35,2.18,2.18,0,0,0-1,1V109h-2v-7.79h1.85v1.61a3.56,3.56,0,0,1,1.07-1.28,2.67,2.67,0,0,1,1.37-.5H35a.32.32,0,0,1,.17,0Z"/><path class="cls-12" d="M39.78,109.15a4.45,4.45,0,0,1-1.71-.32,3.85,3.85,0,0,1-1.31-.87,4,4,0,0,1-.82-1.27,4.12,4.12,0,0,1-.29-1.53,4.27,4.27,0,0,1,.5-2,3.9,3.9,0,0,1,1.43-1.48,4.19,4.19,0,0,1,2.21-.56,4.15,4.15,0,0,1,2.19.56,3.82,3.82,0,0,1,1.41,1.47,4,4,0,0,1,.5,2c0,.13,0,.25,0,.36s0,.22,0,.3H37.78a2,2,0,0,0,.34,1,1.94,1.94,0,0,0,.75.67,2,2,0,0,0,1,.24,2.26,2.26,0,0,0,1.14-.3,1.49,1.49,0,0,0,.73-.78l1.71.47a3,3,0,0,1-.79,1.07,4,4,0,0,1-1.25.73A4.75,4.75,0,0,1,39.78,109.15Zm-2.06-4.66h4.11a2.17,2.17,0,0,0-.34-1,1.88,1.88,0,0,0-.72-.68,2.12,2.12,0,0,0-1-.24,2,2,0,0,0-1,.24,1.88,1.88,0,0,0-.72.68A2.17,2.17,0,0,0,37.72,104.49ZM37.89,98h1.86l.81,1.78-1.28.39Z"/><path class="cls-12" d="M48,109.15a5.71,5.71,0,0,1-1.93-.33,4.06,4.06,0,0,1-1.56-1l.73-1.3a5.23,5.23,0,0,0,1.37.84,3.54,3.54,0,0,0,1.32.27,2,2,0,0,0,.94-.2.67.67,0,0,0,.35-.61.54.54,0,0,0-.2-.45,1.82,1.82,0,0,0-.56-.27l-.89-.26a10,10,0,0,1-1.45-.54,2.23,2.23,0,0,1-.88-.68,1.71,1.71,0,0,1-.3-1,2.18,2.18,0,0,1,.4-1.33,2.49,2.49,0,0,1,1.11-.86,4.08,4.08,0,0,1,1.67-.32,4.66,4.66,0,0,1,1.59.27,3.85,3.85,0,0,1,1.37.84l-.83,1.3a4,4,0,0,0-1.12-.7,2.84,2.84,0,0,0-1.1-.22,2.27,2.27,0,0,0-.59.07.9.9,0,0,0-.45.25.65.65,0,0,0-.17.48.63.63,0,0,0,.15.43,1.47,1.47,0,0,0,.49.28l.78.26a14.52,14.52,0,0,1,1.59.54,2.39,2.39,0,0,1,1,.69,1.68,1.68,0,0,1,.34,1.12,2.12,2.12,0,0,1-.85,1.8A3.74,3.74,0,0,1,48,109.15Z"/><path class="cls-12" d="M59.8,109.15a4.45,4.45,0,0,1-1.73-.32,3.72,3.72,0,0,1-1.3-.89,3.93,3.93,0,0,1-.82-1.3,4.11,4.11,0,0,1-.29-1.52,4.19,4.19,0,0,1,.5-2,3.78,3.78,0,0,1,1.42-1.47,4.34,4.34,0,0,1,2.21-.55,4.15,4.15,0,0,1,2.19.56,3.39,3.39,0,0,1,1.35,1.46l-1.95.59a1.72,1.72,0,0,0-.68-.66,1.85,1.85,0,0,0-.94-.24,1.92,1.92,0,0,0-1,.29,2.14,2.14,0,0,0-.75.8,2.63,2.63,0,0,0-.27,1.23,2.59,2.59,0,0,0,.27,1.2,2.23,2.23,0,0,0,.75.83,2,2,0,0,0,1.72.17A1.88,1.88,0,0,0,61,107a1.28,1.28,0,0,0,.38-.47l1.95.6a3.16,3.16,0,0,1-.79,1,3.87,3.87,0,0,1-1.21.73A4.57,4.57,0,0,1,59.8,109.15Z"/><path class="cls-12" d="M68.17,109.15a4.29,4.29,0,0,1-1.72-.33,3.77,3.77,0,0,1-1.29-.89,3.69,3.69,0,0,1-.82-1.28,4.1,4.1,0,0,1-.28-1.52,4.27,4.27,0,0,1,.28-1.56,3.67,3.67,0,0,1,.81-1.28,3.88,3.88,0,0,1,1.3-.88,4.78,4.78,0,0,1,3.44,0,4.09,4.09,0,0,1,1.3.88,3.84,3.84,0,0,1,.82,1.28,4.28,4.28,0,0,1,.29,1.56,4.11,4.11,0,0,1-.29,1.52,3.89,3.89,0,0,1-2.12,2.17A4.26,4.26,0,0,1,68.17,109.15Zm-2-4a2.57,2.57,0,0,0,.27,1.19,2.06,2.06,0,0,0,.74.83,2,2,0,0,0,1,.29,1.89,1.89,0,0,0,1-.3,2.21,2.21,0,0,0,.74-.83,2.41,2.41,0,0,0,.28-1.19,2.43,2.43,0,0,0-.28-1.19,2.18,2.18,0,0,0-.74-.82,1.92,1.92,0,0,0-2.09,0,2.08,2.08,0,0,0-.73.82A2.59,2.59,0,0,0,66.12,105.13Z"/><path class="cls-12" d="M85.84,109h-2v-4.35a2.25,2.25,0,0,0-.32-1.36,1.06,1.06,0,0,0-.89-.42,1.71,1.71,0,0,0-1.13.45,2.44,2.44,0,0,0-.75,1.16V109h-2v-4.35a2.33,2.33,0,0,0-.32-1.36,1,1,0,0,0-.88-.42,1.78,1.78,0,0,0-1.13.43,2.39,2.39,0,0,0-.76,1.16V109h-2v-7.79h1.82v1.46a3.13,3.13,0,0,1,1.2-1.17,3.61,3.61,0,0,1,1.72-.41,2.22,2.22,0,0,1,1.52.48,2.1,2.1,0,0,1,.7,1.17,3.27,3.27,0,0,1,2.91-1.65,2.43,2.43,0,0,1,1.18.26,2,2,0,0,1,.71.7,2.84,2.84,0,0,1,.35,1,5.77,5.77,0,0,1,.1,1.1Z"/><path class="cls-12" d="M92.31,109.15a3.1,3.1,0,0,1-1.62-.42,3,3,0,0,1-1.1-1.09v4.56h-2v-11h1.75v1.35a3.33,3.33,0,0,1,1.14-1.07,3.17,3.17,0,0,1,1.58-.4,3.39,3.39,0,0,1,1.46.32,3.62,3.62,0,0,1,1.17.86,4.1,4.1,0,0,1,.77,1.29,4.38,4.38,0,0,1,.27,1.54,4.77,4.77,0,0,1-.44,2.05,3.73,3.73,0,0,1-1.22,1.46A3,3,0,0,1,92.31,109.15Zm-.68-1.71a1.78,1.78,0,0,0,.83-.19,2,2,0,0,0,.66-.52,2.28,2.28,0,0,0,.42-.75,2.73,2.73,0,0,0,.15-.89,2.6,2.6,0,0,0-.16-.89,2.11,2.11,0,0,0-.46-.73,2.16,2.16,0,0,0-.7-.49,2.05,2.05,0,0,0-.87-.18,2,2,0,0,0-.57.1,2.22,2.22,0,0,0-.56.27,2.24,2.24,0,0,0-.46.4,2,2,0,0,0-.32.52v1.83a3.29,3.29,0,0,0,.5.77,2.23,2.23,0,0,0,.72.55A1.87,1.87,0,0,0,91.63,107.44Z"/><path class="cls-12" d="M96.57,106.7a2.12,2.12,0,0,1,.42-1.31,2.88,2.88,0,0,1,1.19-.89,4.53,4.53,0,0,1,1.76-.32,7,7,0,0,1,1,.08,3.4,3.4,0,0,1,.88.24v-.43a1.43,1.43,0,0,0-.43-1.12,1.87,1.87,0,0,0-1.31-.4,3.22,3.22,0,0,0-1.24.23,6.06,6.06,0,0,0-1.23.64l-.63-1.3a5.54,5.54,0,0,1,1.58-.78,6.06,6.06,0,0,1,1.72-.25,3.8,3.8,0,0,1,2.61.83,3,3,0,0,1,.94,2.37v2.47a.71.71,0,0,0,.11.44.56.56,0,0,0,.37.17V109l-.49.08a2.28,2.28,0,0,1-.36,0,1.39,1.39,0,0,1-.91-.26,1,1,0,0,1-.37-.66l0-.4a3.57,3.57,0,0,1-1.29,1,3.63,3.63,0,0,1-1.56.36,3,3,0,0,1-1.41-.33,2.43,2.43,0,0,1-1-.88A2.21,2.21,0,0,1,96.57,106.7Zm4.89.38a1.27,1.27,0,0,0,.27-.34.65.65,0,0,0,.1-.32v-.77a3.73,3.73,0,0,0-.78-.23,4.5,4.5,0,0,0-.79-.08,2.33,2.33,0,0,0-1.29.33,1,1,0,0,0-.5.87,1.07,1.07,0,0,0,.17.56,1.09,1.09,0,0,0,.47.43,1.58,1.58,0,0,0,.76.17,2.27,2.27,0,0,0,.88-.18A2.15,2.15,0,0,0,101.46,107.08Z"/><path class="cls-12" d="M109.38,109.15a4.54,4.54,0,0,1-1.74-.32,3.93,3.93,0,0,1-2.12-2.19,4.11,4.11,0,0,1-.29-1.52,4.19,4.19,0,0,1,.5-2,3.81,3.81,0,0,1,1.43-1.47,4.3,4.3,0,0,1,2.2-.55,4.15,4.15,0,0,1,2.19.56,3.39,3.39,0,0,1,1.35,1.46l-2,.59a1.7,1.7,0,0,0-.67-.66,1.89,1.89,0,0,0-1-.24,1.92,1.92,0,0,0-1,.29,2,2,0,0,0-.74.8,2.51,2.51,0,0,0-.28,1.23,2.47,2.47,0,0,0,.28,1.2,2.13,2.13,0,0,0,.74.83,2,2,0,0,0,1,.29,1.92,1.92,0,0,0,.69-.12,1.84,1.84,0,0,0,.57-.34,1.31,1.31,0,0,0,.39-.47l2,.6a3.3,3.3,0,0,1-.79,1,3.92,3.92,0,0,1-1.22.73A4.48,4.48,0,0,1,109.38,109.15Z"/><path class="cls-12" d="M118.9,108.61l-.62.25a7.12,7.12,0,0,1-.77.21,4.58,4.58,0,0,1-.83.08,2.71,2.71,0,0,1-1-.19,1.65,1.65,0,0,1-.74-.62,2,2,0,0,1-.27-1.11v-4.48h-1v-1.54h1V98.66h2v2.55h1.65v1.54h-1.65v3.8a.73.73,0,0,0,.23.58.75.75,0,0,0,.53.19,1.87,1.87,0,0,0,.61-.11,5.11,5.11,0,0,0,.49-.21Z"/><path class="cls-12" d="M59.8,120.47a3.06,3.06,0,0,0-.56-.4,7.44,7.44,0,0,0-1-.52,7.57,7.57,0,0,0-1.27-.44,5.33,5.33,0,0,0-1.38-.18,3.19,3.19,0,0,0-1.86.45,1.5,1.5,0,0,0-.63,1.3,1.3,1.3,0,0,0,.4,1,3.21,3.21,0,0,0,1.19.64c.53.17,1.19.36,2,.56a14.84,14.84,0,0,1,2.67.91,4.4,4.4,0,0,1,1.74,1.4,4,4,0,0,1,.6,2.31,4.4,4.4,0,0,1-.46,2.1A4,4,0,0,1,60,131.05a5.63,5.63,0,0,1-1.85.81,9.36,9.36,0,0,1-2.21.25,11.62,11.62,0,0,1-2.34-.24,11.33,11.33,0,0,1-2.23-.7,11.54,11.54,0,0,1-2-1.08l1.34-2.62a4.85,4.85,0,0,0,.71.52,8.69,8.69,0,0,0,1.23.63,8.88,8.88,0,0,0,1.58.54,6.86,6.86,0,0,0,1.74.22,3.44,3.44,0,0,0,1.87-.4,1.33,1.33,0,0,0,.62-1.19,1.35,1.35,0,0,0-.5-1.1,4.18,4.18,0,0,0-1.39-.7c-.61-.2-1.32-.41-2.14-.63a12.21,12.21,0,0,1-2.47-.94,3.88,3.88,0,0,1-1.48-1.3,3.61,3.61,0,0,1-.49-2,4.5,4.5,0,0,1,.77-2.69,4.76,4.76,0,0,1,2.07-1.64,7.22,7.22,0,0,1,2.88-.56,8.78,8.78,0,0,1,2.08.24,10.39,10.39,0,0,1,1.83.64,10.16,10.16,0,0,1,1.54.86Z"/><path class="cls-12" d="M70.65,132.11a7,7,0,0,1-3.1-.67,7.78,7.78,0,0,1-2.4-1.79A8.15,8.15,0,0,1,63,124.19a7.76,7.76,0,0,1,.59-3,8.43,8.43,0,0,1,1.6-2.53,7.62,7.62,0,0,1,2.43-1.76,7.27,7.27,0,0,1,3.06-.65,7,7,0,0,1,3.09.68,7.58,7.58,0,0,1,2.39,1.83,8.49,8.49,0,0,1,1.53,2.55,8.07,8.07,0,0,1-1.61,8.39,7.3,7.3,0,0,1-2.42,1.75A7.14,7.14,0,0,1,70.65,132.11Zm0-2.68a4,4,0,0,0,2-.46,4.65,4.65,0,0,0,1.42-1.19,5.34,5.34,0,0,0,.86-1.7,6.52,6.52,0,0,0,.29-1.89,6.18,6.18,0,0,0-.31-2,4.9,4.9,0,0,0-.9-1.67,4.77,4.77,0,0,0-1.43-1.17,4.08,4.08,0,0,0-1.91-.44,4,4,0,0,0-1.93.46,4.58,4.58,0,0,0-1.43,1.19,5.34,5.34,0,0,0-.88,1.69,6.14,6.14,0,0,0-.3,1.9,6.43,6.43,0,0,0,.31,2,5.24,5.24,0,0,0,.89,1.67A4.65,4.65,0,0,0,68.74,129,4.19,4.19,0,0,0,70.67,129.43Zm-.31-3.19h2.86L78.37,132H75.49Z"/><path class="cls-12" d="M84.7,135.28a6.28,6.28,0,0,1-3-.73,5,5,0,0,1-2.07-2l1.69-1.78a4.52,4.52,0,0,0,1.53,1.39,4,4,0,0,0,1.93.5,3,3,0,0,0,1.41-.33,2.34,2.34,0,0,0,1-.92,2.68,2.68,0,0,0,.34-1.37,2.64,2.64,0,0,0-.33-1.34,2.33,2.33,0,0,0-.9-.89,2.64,2.64,0,0,0-1.3-.32,2.87,2.87,0,0,0-1.35.33,2.64,2.64,0,0,0-1,.9H80l1.81-9.3H89.5v2.68H83.93l-.61,3.5a1.76,1.76,0,0,1,.76-.45,3.51,3.51,0,0,1,1.24-.19,5.4,5.4,0,0,1,2.66.64,4.72,4.72,0,0,1,1.83,1.77,5.11,5.11,0,0,1,.66,2.61,5,5,0,0,1-.75,2.75,5.2,5.2,0,0,1-2,1.86A6.43,6.43,0,0,1,84.7,135.28Z"/><polygon class="cls-13" points="11.81 50.18 16.75 37.38 22.39 46.91 11.81 50.18"/></g></g></svg>