<svg xmlns="http://www.w3.org/2000/svg" viewBox="0 0 141.2 141.2"><defs><style>.cls-1{fill:none;}.cls-2{}</style></defs><g id="Calque_2" data-name="Calque 2"><g id="Layer_1" data-name="Layer 1"><rect class="cls-1" width="141.2" height="141.2" rx="70.6"/><path class="cls-2" d="M36.48,35.56a1.64,1.64,0,0,0-2.27.47h0a18,18,0,1,0,5.1-5.11,1.64,1.64,0,0,0,1.82,2.74h0a14.76,14.76,0,1,1-4.19,4.18,1.63,1.63,0,0,0-.45-2.27Z"/><path class="cls-2" d="M48.42,57.23a1.61,1.61,0,0,0,1.69,0l8.21-4.92a1.65,1.65,0,0,0,.79-1.41V41.06a1.65,1.65,0,0,0-.79-1.41l-8.21-4.92a1.61,1.61,0,0,0-1.69,0l-8.21,4.92a1.65,1.65,0,0,0-.79,1.41V50.9a1.65,1.65,0,0,0,.79,1.41ZM42.7,44l4.92,3v6L42.7,50Zm8.21,9v-6l4.92-3v6ZM49.26,38.05l5,3-5,3-5-3Z"/><path class="cls-2" d="M62.39,96.86h-8.2v-6l1.08-1.35a15.35,15.35,0,0,1,12-5.79,1.65,1.65,0,0,0,0-3.29,18.66,18.66,0,0,0-11.47,3.94,11.5,11.5,0,0,1,9.83-5.58h8.09a11.52,11.52,0,0,1-11.38,9.85H60.75a1.64,1.64,0,0,0,0,3.28h1.64A14.77,14.77,0,0,0,77.16,77.16a1.64,1.64,0,0,0-1.64-1.64H65.68A14.75,14.75,0,0,0,54.19,81v-11A24.39,24.39,0,0,0,64,65.67a1.64,1.64,0,1,0-2-2.62,21.41,21.41,0,1,1,4.31-4.31,1.64,1.64,0,0,0,2.63,2,24.59,24.59,0,1,0-24.62,9.4v6A14.75,14.75,0,0,0,32.85,70.6H23a1.64,1.64,0,0,0-1.65,1.64A14.79,14.79,0,0,0,36.14,87h8.2v9.85h-8.2a1.64,1.64,0,0,0-1.65,1.64,1.24,1.24,0,0,0,0,.27l1.09,6.56a1.64,1.64,0,1,0,3.24-.54l-.78-4.65H60.46l-2.74,16.41H40.81l-.87-5.19a1.64,1.64,0,1,0-3.24.54l1.1,6.56a1.64,1.64,0,0,0,1.62,1.37H59.11a1.64,1.64,0,0,0,1.62-1.37L64,98.77a1.64,1.64,0,0,0-1.35-1.89A1.23,1.23,0,0,0,62.39,96.86Zm-37.63-23h8.09a11.51,11.51,0,0,1,9.84,5.58,18.65,18.65,0,0,0-11.48-3.94,1.64,1.64,0,1,0,0,3.28,15.35,15.35,0,0,1,11.28,4.93H36.14A11.52,11.52,0,0,1,24.76,73.88Zm22.86-3.37c.55,0,1.09.09,1.64.09s1.1,0,1.65-.07V96.86H47.62Z"/><path class="cls-2" d="M78.81,108.34H72.24A1.64,1.64,0,0,0,70.6,110v8.2a1.64,1.64,0,0,0,3.28,0v-6.56h3.28v6.56a1.65,1.65,0,0,0,3.29,0V110A1.65,1.65,0,0,0,78.81,108.34Z"/><path class="cls-2" d="M91.94,101.78H85.37a1.63,1.63,0,0,0-1.64,1.64v14.77a1.63,1.63,0,0,0,1.64,1.64h6.57a1.64,1.64,0,0,0,1.64-1.64V103.42A1.64,1.64,0,0,0,91.94,101.78Zm-1.65,14.77H87V105.06h3.28Z"/><path class="cls-2" d="M105.06,95.22H98.5a1.63,1.63,0,0,0-1.64,1.64v21.33a1.63,1.63,0,0,0,1.64,1.64h6.56a1.64,1.64,0,0,0,1.65-1.64V96.86A1.64,1.64,0,0,0,105.06,95.22Zm-1.64,21.33h-3.28v-18h3.28Z"/><path class="cls-2" d="M118.19,87h-6.56A1.63,1.63,0,0,0,110,88.65v29.54a1.63,1.63,0,0,0,1.64,1.64h6.56a1.64,1.64,0,0,0,1.65-1.64V103.42a1.65,1.65,0,0,0-3.29,0v13.13h-3.28V90.29h3.28v6.57a1.65,1.65,0,0,0,3.29,0V88.65A1.64,1.64,0,0,0,118.19,87Z"/><path class="cls-2" d="M118.19,69h-9.84a1.64,1.64,0,0,0,0,3.28h5.76L98.55,86.38,93.1,80.93a1.65,1.65,0,0,0-2.27-.06l-18,16.41A1.64,1.64,0,1,0,75,99.71L91.88,84.35l5.46,5.46a1.63,1.63,0,0,0,2.26,0l17-15.4v6a1.65,1.65,0,1,0,3.29,0V70.6A1.64,1.64,0,0,0,118.19,69Z"/></g></g></svg>