<svg xmlns="http://www.w3.org/2000/svg" viewBox="0 0 141.2 141.2"><defs><style>.cls-1{fill:none;}.cls-2{}</style></defs><g id="Calque_2" data-name="Calque 2"><g id="Layer_1" data-name="Layer 1"><rect class="cls-1" width="141.2" height="141.2" rx="70.6"/><path class="cls-2" d="M131.21,68.4a17.94,17.94,0,0,0-3-9.82,15.62,15.62,0,0,0,.67-4.55,16.35,16.35,0,0,0-4.63-11.29,12,12,0,0,0,.4-3.08c0-7.44-6.64-13.49-14.79-13.49s-14.79,6-14.79,13.49a12.44,12.44,0,0,0,.39,3.08A16.38,16.38,0,0,0,90.88,54a16,16,0,0,0,.66,4.55,18,18,0,0,0-3,9.82c0,9.54,7.63,17.48,17.64,19.07h0l-.23,20q-2.55-.39-5.34-.73l-2.83-.31c-1.7-.18-3.45-.34-5.25-.49l-3.22-.23q-3.15-.21-6.45-.35l-3.25-.11c-1.64,0-3.3-.09-5-.11H66.34c-3.1,0-6.12.13-9.05.27l-11.24.75c-3.9.36-7.54.8-10.85,1.31l-.23-20h0c10-1.59,17.64-9.53,17.64-19.07a18,18,0,0,0-3-9.82A16,16,0,0,0,50.32,54,16.34,16.34,0,0,0,45.7,42.74a12.44,12.44,0,0,0,.39-3.08c0-7.44-6.63-13.49-14.79-13.49s-14.79,6-14.79,13.49a12,12,0,0,0,.4,3.08A16.35,16.35,0,0,0,12.28,54,15.62,15.62,0,0,0,13,58.58a17.94,17.94,0,0,0-3,9.82c0,9.54,7.64,17.48,17.64,19.07L27.39,109c-4.52,1.06-8,2.32-10,3.72a1.27,1.27,0,0,0,1.43,2.09,12.45,12.45,0,0,1,1.92-1c7.89-3.59,28-6.09,49.85-6.09s42,2.5,49.85,6.09a12.45,12.45,0,0,1,1.92,1,1.22,1.22,0,0,0,.71.22,1.27,1.27,0,0,0,.72-2.31c-2-1.4-5.47-2.66-10-3.72l-.24-21.53C123.57,85.88,131.21,77.94,131.21,68.4Zm-103.39,3-6-6.49h0l1-1,5,4.64ZM28,55l-3.78-4.16.67-.66L28,53Zm1.92,53.45.76-66.07a.61.61,0,0,1,1.22,0l.72,65.55C31.7,108.09,30.8,108.26,29.93,108.44ZM34.57,53l3.14-2.85.67.66h0L34.59,55Zm.18,15.57,5-4.64,1,1-6,6.49Zm.19,16.33-.11-9.78,7.81-8.46a2.52,2.52,0,0,0-.07-3.51h0l-1-1a2.52,2.52,0,0,0-3.51-.07l-3.34,3.09-.07-6.47,5.61-6.17a2.53,2.53,0,0,0-.08-3.5l-.67-.67a2.53,2.53,0,0,0-3.5-.08l-1.47,1.34-.08-7.29a3.16,3.16,0,0,0-3.15-3.11h0a3.17,3.17,0,0,0-3.15,3.11l-.08,7.29L26.6,48.29a2.54,2.54,0,0,0-3.5.08l-.67.67a2.54,2.54,0,0,0-.08,3.5L28,58.71l-.08,6.47-3.34-3.09a2.52,2.52,0,0,0-3.51.07l-1,1h0A2.52,2.52,0,0,0,20,66.68l7.82,8.46-.12,9.78c-8.61-1.53-15.14-8.35-15.14-16.52a15.52,15.52,0,0,1,2.86-8.9,1.28,1.28,0,0,0,.16-1.14A13.33,13.33,0,0,1,14.82,54a13.94,13.94,0,0,1,4.39-10,1.26,1.26,0,0,0,.33-1.3,9.78,9.78,0,0,1-.49-3.05c0-6,5.49-10.95,12.25-10.95s12.26,4.91,12.26,10.95a10.13,10.13,0,0,1-.49,3.05,1.26,1.26,0,0,0,.32,1.3,13.91,13.91,0,0,1,4.4,10,13.34,13.34,0,0,1-.73,4.33,1.28,1.28,0,0,0,.16,1.14,15.52,15.52,0,0,1,2.86,8.9c0,8.17-6.52,15-15.14,16.52Zm71.48-13.47-6-6.49h0l1-1,5,4.64ZM106.61,55l-3.79-4.15h0l.66-.66L106.63,53Zm1.92,52.93.76-65.55a.61.61,0,0,1,1.22,0l.73,66.06C110.37,108.25,109.46,108.08,108.53,107.92ZM113.17,53l3.14-2.85.66.66h0L113.19,55Zm.18,15.57,5-4.64,1,1-6,6.49Zm.19,16.33-.12-9.78,7.82-8.46a2.52,2.52,0,0,0-.07-3.51h0l-1-1a2.52,2.52,0,0,0-3.51-.07l-3.34,3.09-.08-6.47,5.62-6.17a2.54,2.54,0,0,0-.08-3.5l-.67-.67a2.53,2.53,0,0,0-3.5-.08l-1.47,1.34-.08-7.29a3.16,3.16,0,0,0-3.15-3.11h0a3.16,3.16,0,0,0-3.15,3.11l-.08,7.29-1.47-1.34a2.53,2.53,0,0,0-3.5.08L101,49a2.53,2.53,0,0,0-.08,3.5l5.61,6.17-.07,6.47-3.34-3.09a2.52,2.52,0,0,0-3.51.07l-1,1a2.52,2.52,0,0,0-.07,3.51l7.81,8.46-.11,9.78h0c-8.62-1.53-15.14-8.35-15.14-16.52A15.52,15.52,0,0,1,94,59.5a1.28,1.28,0,0,0,.16-1.14A13.34,13.34,0,0,1,93.41,54a14,14,0,0,1,4.4-10,1.28,1.28,0,0,0,.33-1.3,9.79,9.79,0,0,1-.5-3.05c0-6,5.5-10.95,12.26-10.95s12.25,4.91,12.25,10.95a9.82,9.82,0,0,1-.49,3.05A1.26,1.26,0,0,0,122,44a14,14,0,0,1,4.4,10,13.34,13.34,0,0,1-.73,4.33,1.28,1.28,0,0,0,.16,1.14,15.52,15.52,0,0,1,2.86,8.9C128.68,76.57,122.16,83.39,113.54,84.92Z"/><path class="cls-2" d="M47.81,103.79h3l-3.2,2.29.41,6.3H46.43l-1.3-6.61Zm14.92-.05-.95,1.69,1.68,6.95H65l-1.64-8.75a4.5,4.5,0,0,1-.64.11ZM91,82l-4.74-7a1.4,1.4,0,0,0-1.62-.54l-.48-1.07a1.33,1.33,0,0,1,.73-1.77l3.68-1.44H83.78a2.52,2.52,0,0,0-2.31,3.51L82,74.88l-.32.06L80.23,74a2.79,2.79,0,0,0-1.53-.45H76.93l1.94,1.86-5,.83H39.58a3.46,3.46,0,0,0-3.46,3.46V96.87h1.73V79.71A1.74,1.74,0,0,1,39.58,78V91.7a7.08,7.08,0,0,1,5.87-3H58.69a2,2,0,0,0,1.63-.84l1.09-1.53-.54-.82-1.35-2h6.84A6.19,6.19,0,0,1,70.42,85l2.78,2.42a2.83,2.83,0,0,1,1,2.45,2.79,2.79,0,0,1-2.76,2.45H69.75l-1.11,4.88.74,1.53.91,8.65h2.17V94.35a6.54,6.54,0,0,0,4.61-3L81.55,84,85,84.9H87.8l1,.26A2,2,0,0,0,91,82ZM72.88,89.73a1.53,1.53,0,0,0-.54-1.32L69.57,86a4.91,4.91,0,0,0-3.21-1.2H62l1,1.57-1.62,2.26A3.32,3.32,0,0,1,58.69,90H45.45a5.93,5.93,0,0,0-2.56.55,5.78,5.78,0,0,0-3.3,5.22v0a1,1,0,0,0,1,1v4.58L39.58,103,41,112.38h1.56v-6.29l4.87-3.59H56l1.61,3.57.77,6.32h1.51V106.1l2-3.61A5.21,5.21,0,0,0,67,98.43l1.68-7.38h2.7a1.48,1.48,0,0,0,1.47-1.32Z"/></g></g></svg>