<svg xmlns="http://www.w3.org/2000/svg" viewBox="0 0 141.2 141.2"><defs><style>.cls-1{}.cls-2{fill:none;}</style></defs><g id="Calque_2" data-name="Calque 2"><g id="Layer_1" data-name="Layer 1"><path class="cls-1" d="M79.37,90.52c8,0,14.48-7.81,14.48-17.41,0-7.77-4.26-14.37-10.12-16.6a12.78,12.78,0,0,0,.1-1.64,14.48,14.48,0,1,0-29,0v0c0,.38,0,.76,0,1.13a12,12,0,0,0,2.21,22.9,12,12,0,0,0,11.39,8.27h.2l-.19,11.42H58.77a1.12,1.12,0,1,0,0,2.23H81.32a1.12,1.12,0,1,0,0-2.23H71.85l-.18-10.75A12.69,12.69,0,0,0,79.37,90.52ZM68.51,85a9.77,9.77,0,0,1-8.93-5.85A9.5,9.5,0,0,1,59,77.39a.73.73,0,0,0-.65-.57,8.68,8.68,0,0,1-1.76-.33,9.75,9.75,0,0,1-1.34-18.23,9,9,0,0,1,1.43-.52.79.79,0,0,0,.56-.89,12.33,12.33,0,0,1-.15-1.49c0-.16,0-.32,0-.49a12.25,12.25,0,0,1,24.5,0h0c0,.35,0,.7,0,1s-.09.83-.17,1.24a1,1,0,0,0,.72,1.17,8.87,8.87,0,0,1,1.19.42c4.84,2,8.32,7.71,8.32,14.37,0,8.37-5.49,15.18-12.25,15.18a10.5,10.5,0,0,1-6.17-2.07,12.82,12.82,0,0,1-1.58-1.37L71.44,74l6.64-7a.84.84,0,0,0,0-1.18s0,0,0,0a.87.87,0,0,0-1.13.06L71.39,71l-.23-14.15a1,1,0,0,0-1-1h-.07a1,1,0,0,0-.88,1l-.46,28.08Z"/><rect class="cls-2" width="141.2" height="141.2" rx="70.6"/></g></g></svg>