<svg xmlns="http://www.w3.org/2000/svg" viewBox="0 0 141.2 141.2"><defs><style>.cls-1{fill:none;}.cls-2{}</style></defs><g id="Calque_2" data-name="Calque 2"><g id="Layer_1" data-name="Layer 1"><rect class="cls-1" width="141.2" height="141.2" rx="70.6"/><path class="cls-2" d="M111.87,81.9a1,1,0,0,0-1.1,1.1,1.1,1.1,0,1,0,1.1-1.1Z"/><path class="cls-2" d="M84.47,61.8c-2.1.3-2.7,2.3-3.2,4.1-.4,1.3-.8,2.5-1.6,2.9a3,3,0,0,0-2,3.3c.2.6.8,2.1,4.1,2.1h.5c5.6-.3,6-4.2,6.3-6.5v-.4a6.76,6.76,0,0,0-1.1-4.6A3.09,3.09,0,0,0,84.47,61.8Z"/><path class="cls-2" d="M117,91.8a48.46,48.46,0,0,0-.3-5.9,61.22,61.22,0,0,1-.3-7c1.5-2.4,1-6.9.9-7.4a1,1,0,0,0-.7-.8,1,1,0,0,0-1,.2l-2.8,2.7a112.46,112.46,0,0,0-5.3-12.1c-.8-1.5-1.5-3-2.1-4.3-2.2-4.8-6.4-13.8-18.8-13.9H45.87a9.54,9.54,0,0,0-6.7,2.6,5,5,0,0,0-4.1.9q-3.3,2.7-3,11.4c.3,6.5-1.9,11.3-4.1,12-.8.3-1.6-.1-2.3-1.2a1,1,0,0,0-1.4-.3,1.11,1.11,0,0,0-.4,1.4,4.33,4.33,0,0,0,3.5,2.1,5.16,5.16,0,0,0,1.1-.2c3-1,5.8-6.1,5.5-14-.2-6.4,1.1-8.9,2.3-9.8a2.85,2.85,0,0,1,1.4-.6,13.39,13.39,0,0,0-1.2,10c.7,2.7-.3,10.7-2.3,14s-4.1,8-3.6,13a90.35,90.35,0,0,0,2.5,12,1.2,1.2,0,0,0,1,.7H39a.91.91,0,0,0,.8-.4,1,1,0,0,0,.1-.9,26,26,0,0,1-1.5-9.2c1.7,5.2,4,10.4,4,10.5a.87.87,0,0,0,.9.6h5.4a1.05,1.05,0,0,0,.9-.5.91.91,0,0,0,0-1c-2.1-3.4-3.5-9.3-3.8-11.7a9.6,9.6,0,0,1,1.1-4.3,6.19,6.19,0,0,0,1.9.7v1.4a1.63,1.63,0,0,0,1.6,1.8,1.75,1.75,0,0,0,1.4-.7,1.69,1.69,0,0,0,.3-1V81.2a7.72,7.72,0,0,0,1.5-.2l.7,1.5a1.8,1.8,0,0,0,2.3.8,2.19,2.19,0,0,0,.9-1,2,2,0,0,0-.1-1.3l-.5-1.1a6.93,6.93,0,0,0,1.7-1,10.64,10.64,0,0,0,3.3.4h.3c3.1-.1,8.2-.3,13.2-.5l.6-.1V96.9a.94.94,0,0,0,1,1h4.7a1.08,1.08,0,0,0,.7-.3,1.14,1.14,0,0,0,.3-.8c-.2-1.9-.4-7.4.7-10.5a17.77,17.77,0,0,1,1.7-3.4c.5,1.3,1.3,3.2,2,5.1,1.4,3.4,2.7,7,3.6,8.8a1,1,0,0,0,.9.6h5.1a1.05,1.05,0,0,0,.9-.5.91.91,0,0,0,0-1c-2.7-4.2-5.1-13.7-5-17.8h.6c3.3,0,5.9.4,7.2,2.1-2,2.4-1.8,3.9,2.1,8.6a49.75,49.75,0,0,0,5.4,5.6,3,3,0,0,0,.5,1.5,4.58,4.58,0,0,0,3.8,2,5.33,5.33,0,0,0,2.4-.6c3.2-1.5,2.7-3.7,2.5-4.8A2.25,2.25,0,0,1,117,91.8ZM38.57,73.6c-1.6,2.4-2,5-1.3,8.7a20.13,20.13,0,0,0-.2,10.6h-2.8a79.65,79.65,0,0,1-1.6-8.5c-.5-4.4,1.5-8.8,3.3-11.7a23.38,23.38,0,0,0,2.4-8.4C39.77,69.5,39.77,71.8,38.57,73.6Zm5.87,4.81a2.83,2.83,0,1,1,2.82-2.82A2.83,2.83,0,0,1,44.44,78.41Zm0-8.43a2.83,2.83,0,1,1,2.82-2.82A2.83,2.83,0,0,1,44.44,70Zm0-8.43a2.83,2.83,0,1,1,2.82-2.82A2.83,2.83,0,0,1,44.44,61.55Zm0-8.49a2.83,2.83,0,1,1,2.82-2.82A2.83,2.83,0,0,1,44.44,53.06Zm8,25.35a2.83,2.83,0,1,1,2.82-2.82A2.83,2.83,0,0,1,52.42,78.41Zm0-8.43a2.83,2.83,0,1,1,2.82-2.82A2.83,2.83,0,0,1,52.42,70Zm0-8.43a2.83,2.83,0,1,1,2.82-2.82A2.83,2.83,0,0,1,52.42,61.55Zm0-8.49a2.83,2.83,0,1,1,2.82-2.82A2.83,2.83,0,0,1,52.42,53.06Zm17-5.65a2.83,2.83,0,1,1-2.83,2.83A2.83,2.83,0,0,1,69.44,47.41Zm0,8.49a2.83,2.83,0,1,1-2.83,2.83A2.83,2.83,0,0,1,69.44,55.9Zm-8.51-8.49a2.83,2.83,0,1,1-2.83,2.83A2.83,2.83,0,0,1,60.93,47.41Zm0,8.49a2.83,2.83,0,1,1-2.83,2.83A2.83,2.83,0,0,1,60.93,55.9Zm0,14.08a2.83,2.83,0,1,1,2.82-2.82A2.83,2.83,0,0,1,60.93,70ZM94,92.9h-2.7c-.7-1.7-1.5-3.8-2.2-5.7-1-2.6-1.9-4.9-2.5-6.2a8.16,8.16,0,0,1,4-2.7C90.57,82,92.07,88.3,94,92.9Zm20.8-6.9a45,45,0,0,1,.3,5.6,2.77,2.77,0,0,0,.1,1.3c.3,1,.4,1.7-1.4,2.6a2.81,2.81,0,0,1-3.4-.5,1.74,1.74,0,0,1-.3-.7.9.9,0,0,0-.4-1.3c-.1,0-1.7-1-5.5-5.6-3.6-4.3-3.3-4.7-1.7-6.5a1.07,1.07,0,0,0,.1-1.1c-1.8-3.2-5.5-3.7-9.3-3.7h-.8c-6.7.4-9.8,6.8-10.8,9.5a23.44,23.44,0,0,0-1,7.5h-2.5V77.6a1.08,1.08,0,0,0-.3-.7,1.14,1.14,0,0,0-.8-.3l-1.6.1c-4.4.27-9,.46-12.09.49L66.09,71a9.87,9.87,0,0,0,2.68.44,5.33,5.33,0,0,0,4-1.6c2.1-2.2,2.2-6.3,1-9-1.6-3.6,3.5-6,7.5-7.9l.3-.2a3.2,3.2,0,0,0,2.1-3.4,6.85,6.85,0,0,0-2.3-4h5.3c5.5,0,9.1,1.9,11.7,4.4-3.2-1.4-7.4-2.2-10.4.4-2.3,1.9-3.4,3.6-3.5,5.1A4.31,4.31,0,0,0,86,58.5c1.2,1.3,3,.2,4.5-.8,1.2-.8,2.4-1.5,3.2-1.3a1.34,1.34,0,0,1,.8.7c.7,1.2.3,3.8,0,6.1-.4,2.8-.7,5.2.5,6.1a2.76,2.76,0,0,0,2.8,0c3.2-1.3,5.2-.2,6.8.6a5.38,5.38,0,0,0,2.2.8,1.27,1.27,0,0,0,.6-.1,3.34,3.34,0,0,0,1.5-1.6,39,39,0,0,1,2.4,6.5,1.14,1.14,0,0,0,.7.8.92.92,0,0,0,1-.2l2.5-2.4c0,1.5-.1,3.3-.8,4.2a.76.76,0,0,0-.2.5A53.06,53.06,0,0,0,114.77,86Z"/></g></g></svg>