<svg xmlns="http://www.w3.org/2000/svg" viewBox="0 0 141.2 141.2"><defs><style>.cls-1{fill:none;}.cls-2{}</style></defs><g id="Calque_2" data-name="Calque 2"><g id="Layer_1" data-name="Layer 1"><rect class="cls-1" width="141.2" height="141.2" rx="70.6"/><path class="cls-2" d="M113.23,74.84c-.19-.08-.39-.16-.58-.22L65.1,58.51a7.25,7.25,0,0,0-5.25-2l-9.43-34a.65.65,0,0,0-.67-.46.62.62,0,0,0-.24.08A21.06,21.06,0,0,0,51.29,59.8,23.89,23.89,0,0,1,30.07,45.1a3.27,3.27,0,0,0-6.29,1.23A23.87,23.87,0,0,0,55.16,69.18l18.92,45.68A7,7,0,1,0,87,109.62a6.28,6.28,0,0,0-.27-.59l-11-21.61,7.64-10.18,24.29,10.39a7,7,0,0,0,5.56-12.79Zm-36-10.67a8.45,8.45,0,0,1-.58,4,12.84,12.84,0,0,1-2.58,3.52L65.79,68.1a7.2,7.2,0,0,0,.79-7.54Zm-51-11.05a22.58,22.58,0,0,1-1-6.78,1.81,1.81,0,0,1,1.69-1.79H27a1.79,1.79,0,0,1,1.7,1.12A25.37,25.37,0,0,0,53.31,61.26a7.2,7.2,0,0,0,.95,6.67A22.42,22.42,0,0,1,26.24,53.12Zm14.61-18a19.64,19.64,0,0,1,8.44-11.25l9.1,32.81a7.2,7.2,0,0,0-4,2.65A19.6,19.6,0,0,1,40.85,35.13Zm13.5,29v-.4A5.75,5.75,0,0,1,60,57.83H60a5.74,5.74,0,0,1,5.78,5.7v.16a5.74,5.74,0,1,1-11.47.4Zm10.44,5.06,4,7.77a8.42,8.42,0,0,1-3.15,2.4,12.9,12.9,0,0,1-4.35.72l-4-9.74A7.23,7.23,0,0,0,64.79,69.15ZM75,86,67,70.21l15,6.43Z"/></g></g></svg>