<svg xmlns="http://www.w3.org/2000/svg" viewBox="0 0 141.2 141.2"><defs><style>.cls-1{}.cls-2{fill:none;}</style></defs><g id="Calque_2" data-name="Calque 2"><g id="Layer_1" data-name="Layer 1"><path class="cls-1" d="M69.42,79.86l-1.34.45a13.31,13.31,0,0,0-2.48-3.42l.83-1.14-3.27-2.39-1,1.14a14.74,14.74,0,0,0-4.2-1.3V72.08H53.19v1.15a10.76,10.76,0,0,0-3.48,1.3l-.57-1.14L46,75.75l.9,1.14a12.93,12.93,0,0,0-2.44,3.42l-1.32-.45-1.25,3.87,1.35.44a12.93,12.93,0,0,0,0,4.21l-1.35.45,1.25,3.86,1.35-.43A13.2,13.2,0,0,0,47,95.66l-.84,1.15L49.4,99.2l.31-1.15a10.56,10.56,0,0,0,3.48,1.31v1.69h4.72V99.36a15.15,15.15,0,0,0,4.21-1.31L63,99.2l3.35-2.39-.81-1.15a13.35,13.35,0,0,0,2.49-3.4l1.35.43,1.27-3.86-1.35-.44a13.18,13.18,0,0,0,0-4.22l1.35-.43ZM64.33,86.3v.48a8.21,8.21,0,0,1-1.82,4.64,8.05,8.05,0,0,1-6.23,3v0a8.08,8.08,0,0,1-6.23-3,8.24,8.24,0,0,1-1.82-4.64v-1a8,8,0,0,1,1.26-3.86,6,6,0,0,1,.55-.77,8,8,0,0,1,3.3-2.39,6.78,6.78,0,0,1,.9-.3,7.8,7.8,0,0,1,4.07,0,7.31,7.31,0,0,1,.9.3,8.06,8.06,0,0,1,3.3,2.37,8.19,8.19,0,0,1,1.82,4.68Z"/><path class="cls-1" d="M103.92,86.81,97,67.93H86.9V60.58h-2V51.82H82.21V68H79.63l-5.9-20.91H71.79l3.69,13.49H71.29l-5-4.94,1.84-1.85a1,1,0,1,0-1.35-1.47l-.06.06-4.56,4.56a1,1,0,0,0,0,1.41h0a1,1,0,0,0,1.4,0h0l1.84-1.86,4.09,4.08H53.17V56.32c0-2.37-1.1-4.5-3.47-4.5H46.44V47.09h-2V67.67a22.26,22.26,0,0,0-3.74,3.25,2,2,0,0,0,3,2.68,17.93,17.93,0,0,1,30.7,15.61,2,2,0,0,0,1.55,2.31,2.28,2.28,0,0,0,.37,0,2.22,2.22,0,0,0,1.93-1.88,15.52,15.52,0,0,0,.34-2.8H86.1A8.66,8.66,0,0,0,84,92.62a8.21,8.21,0,0,0,8.09,8.32h.14a8.19,8.19,0,0,0,8.19-8.12v-.3a8.5,8.5,0,0,0-2.13-5.71ZM92.16,97.41a4.48,4.48,0,1,1,4.48-4.48A4.48,4.48,0,0,1,92.16,97.41Z"/><polygon class="cls-1" points="74.83 43.05 41.72 43.05 41.72 45.74 75.38 45.74 74.83 43.05"/><rect class="cls-2" width="141.2" height="141.2" rx="70.6"/><path class="cls-1" d="M70.6,30.48A40.12,40.12,0,1,0,110.72,70.6,40.12,40.12,0,0,0,70.6,30.48ZM34.66,70.6A35.93,35.93,0,0,1,96.5,45.7L44.62,95.42A35.83,35.83,0,0,1,34.66,70.6ZM70.6,106.54A35.77,35.77,0,0,1,48.21,98.7l51.65-49a35.93,35.93,0,0,1-29.26,56.8Z"/></g></g></svg>