<svg xmlns="http://www.w3.org/2000/svg" viewBox="0 0 141.2 141.2"><defs><style>.cls-1{fill-rule:evenodd;}.cls-2{fill:none;}</style></defs><g id="Calque_2" data-name="Calque 2"><g id="Layer_1" data-name="Layer 1"><path class="cls-1" d="M84.53,54.84A3.91,3.91,0,0,0,83,54.07a4.66,4.66,0,0,0,2-.51,2.33,2.33,0,0,0-.11.65,3.64,3.64,0,0,0-.36.63ZM75.86,41.36a2.94,2.94,0,0,0,2.94.52,12.27,12.27,0,0,1-1.75,2.22,6.68,6.68,0,0,1-3.27,1.83c0-1.38,0-2.75,0-4.11a3,3,0,0,0,.83-.5,3.15,3.15,0,0,0,.84.71,2.43,2.43,0,0,0,.46-.67Zm4.63-2.58-.06,0h.08Zm1-2.4-.08,0,.12-.12Zm-5.33-3.13A2.59,2.59,0,0,0,75.1,32.1a2.63,2.63,0,0,0-.65,1.17,1.93,1.93,0,0,0-1.39-.65.15.15,0,0,1,0,.09L73,32.28A2.56,2.56,0,0,0,74.32,32a2.23,2.23,0,0,0-.81-1.07,5.51,5.51,0,0,0,2.74-1,.77.77,0,0,0,.23.06,3.54,3.54,0,0,0-1,1.39,4.1,4.1,0,0,0,1.17.42,2.68,2.68,0,0,0-.36.83,1,1,0,0,0,.28.11,4.46,4.46,0,0,1-.35.5Zm-6,0c-.2.07-.41.13-.61.21a3.78,3.78,0,0,0,1.76,2.21H71a5.82,5.82,0,0,1-1.3-1.26,13,13,0,0,1-1.06-1.68l.67-.25a4,4,0,0,0,.87.77Zm.17,3.31a3.5,3.5,0,0,0-.89.35A2.85,2.85,0,0,0,70.31,38l-.24.06a4,4,0,0,0-2.45-.69,4.3,4.3,0,0,0,.28-.57,3.72,3.72,0,0,0-.91-.35,3.19,3.19,0,0,0,.52-.87,3.24,3.24,0,0,0,.8-1.22c.18.26.33.49.5.69a6.31,6.31,0,0,0,1.56,1.52Zm-.82,2.56a1.88,1.88,0,0,0,1.36,0,2.35,2.35,0,0,0-.19.39,5,5,0,0,0-1.54-.18l.37-.25ZM72,41.5A3.91,3.91,0,0,0,72,42a1.45,1.45,0,0,1,.28,0c0,1.26,0,2.52,0,3.78a12.1,12.1,0,0,1-3-1.77,1.19,1.19,0,0,0,.3-.14,2.2,2.2,0,0,0-.78-1A5.21,5.21,0,0,0,72,41.5ZM81.82,54a3.89,3.89,0,0,0-1.74.48,3.71,3.71,0,0,0,.59,1,3.61,3.61,0,0,0-.89.36,2.46,2.46,0,0,0,.28.59,3.92,3.92,0,0,0-2.75,1,3.41,3.41,0,0,0,1.21,1.09,5.31,5.31,0,0,0-3.62,1.35A5.28,5.28,0,0,0,79,62,2.32,2.32,0,0,0,78.18,63a2.58,2.58,0,0,0,2,.16l-.06.18-.07,0a14.27,14.27,0,0,1-6.28,2V56.73a9.12,9.12,0,0,0,4.81-2.17,15.43,15.43,0,0,0,3.1-3.62,3.3,3.3,0,0,0,1.3.25,4.17,4.17,0,0,0-2,2.49,4.92,4.92,0,0,0,.79.27Zm.69-6.72h0a2.19,2.19,0,0,0-2.08.36,2.16,2.16,0,0,0,1.39,1h0a3,3,0,0,0-.91,1.21c.06,0,.1.07.17.09a15.93,15.93,0,0,1-3.23,3.89,8.18,8.18,0,0,1-4,1.87c0-2.86,0-5.74,0-8.61a7.53,7.53,0,0,0,4.09-2.19A15.2,15.2,0,0,0,80.06,42a4.84,4.84,0,0,0,1.41.28,2.3,2.3,0,0,0-.78,1.06,2.57,2.57,0,0,0,2,.18,3.39,3.39,0,0,0-.17,1.62c-.2,0-.39,0-.59.09a3.9,3.9,0,0,0,.59,2Zm.87-2,.54-.15.13.27a4.94,4.94,0,0,0-.67-.12Zm2-1a1.15,1.15,0,0,0,.21-.27,8.21,8.21,0,0,0,.78.29,3.37,3.37,0,0,0,0,.45,3.46,3.46,0,0,0-1-.47ZM92,46l.28.06h-.3Zm.8.12a5.32,5.32,0,0,0,2.49-.45A4.7,4.7,0,0,0,93,42.78a3.64,3.64,0,0,0,1.6-.35,3.68,3.68,0,0,0-.37-.83,4.22,4.22,0,0,0,1.19-.45,3.31,3.31,0,0,0-1.06-1.4A2.43,2.43,0,0,0,96,38.61a2.63,2.63,0,0,0-2.41-.4,4.7,4.7,0,0,0,.69-2.32,5.69,5.69,0,0,0-2.47.08,2.81,2.81,0,0,0,.37-1.42,3.9,3.9,0,0,0-3.34.92,2.86,2.86,0,0,0-.78-.73,2.78,2.78,0,0,0-.19-1,2.56,2.56,0,0,0,2-.18,2.06,2.06,0,0,0-.76-1,5,5,0,0,0,3.82-2.15,5.08,5.08,0,0,0-3.47-1.24,3.61,3.61,0,0,0,1.12-1.05,3.78,3.78,0,0,0-2.64-.9,3.06,3.06,0,0,0,.26-.55,3.74,3.74,0,0,0-.87-.34,3.48,3.48,0,0,0,.55-1,3.85,3.85,0,0,0-4.25.47,3.09,3.09,0,0,0-.57-.85,3.56,3.56,0,0,0-1.08.91A3.76,3.76,0,0,0,78.63,25,2.94,2.94,0,0,0,79,26.35a5.23,5.23,0,0,0-2.37-.08,2.35,2.35,0,0,0-.1-.22,2.87,2.87,0,0,0,2.08-.72,3.05,3.05,0,0,0-.89-.83,4,4,0,0,0,2.73-1,3.93,3.93,0,0,0-3-1.69A1.7,1.7,0,0,0,78,21a2,2,0,0,0-1.54-.14,2.55,2.55,0,0,0,.13-1.32,2.9,2.9,0,0,0-2.32,1.05,4.69,4.69,0,0,0-.6-.2,2.61,2.61,0,0,0-1.32-2.54A2.48,2.48,0,0,0,71.69,19a1.88,1.88,0,0,0-1.36-.65,1.6,1.6,0,0,0,0,1,4.13,4.13,0,0,0-3.51-.08,3.63,3.63,0,0,0,1.74,2.2,3.2,3.2,0,0,0-1.22.24,2.13,2.13,0,0,0,.28.65,3,3,0,0,0-.91.34,1.61,1.61,0,0,0,.16.35,3.94,3.94,0,0,0-.91.81A4,4,0,0,0,62.57,23a3.58,3.58,0,0,0,.37,1.46,5.34,5.34,0,0,0-2.52-.08,4.77,4.77,0,0,0,.72,2.35,2.66,2.66,0,0,0-2.47.43,2.54,2.54,0,0,0,1.65,1.16,3.35,3.35,0,0,0-1.09,1.44,4,4,0,0,0,1.22.45,3,3,0,0,0-.37.87,3.91,3.91,0,0,0,1.65.35,4.79,4.79,0,0,0-2.35,2.94,5.53,5.53,0,0,0,4.71-.14A2.25,2.25,0,0,0,64,35.45a4.22,4.22,0,0,0-.8.52,2.9,2.9,0,0,0-.59-.85,3.44,3.44,0,0,0-1.1.92,3.92,3.92,0,0,0-3.34-.9,3.08,3.08,0,0,0,.35,1.42,5.59,5.59,0,0,0-2.45-.08,4.57,4.57,0,0,0,.69,2.3,2.61,2.61,0,0,0-2.4.42A2.43,2.43,0,0,0,56,40.32a3.62,3.62,0,0,0-1.06,1.4,3.69,3.69,0,0,0,1.19.45,4,4,0,0,0-.37.85,3.63,3.63,0,0,0,1.61.33,4.81,4.81,0,0,0-2.28,2.88,5.59,5.59,0,0,0,1.78.43,3.85,3.85,0,0,0,.54.87,4,4,0,0,0-1.08.43,3.9,3.9,0,0,0,.32.69,4.75,4.75,0,0,0-3.32,1.11,4.53,4.53,0,0,0,1.44,1.32,6.34,6.34,0,0,0-4.36,1.55,6.43,6.43,0,0,0,1.1,1.22,5.11,5.11,0,0,0-1.08.1,3.82,3.82,0,0,0,.45,1.72,6.79,6.79,0,0,0-3-.1,5.33,5.33,0,0,0,.84,2.8,3.24,3.24,0,0,0-3,.51,3,3,0,0,0,2,1.36A4.22,4.22,0,0,0,46.43,62a5.1,5.1,0,0,0,1.45.55,2.69,2.69,0,0,0-.31.61A4.24,4.24,0,0,0,46.12,65a4.51,4.51,0,0,0-1.75-.43,3.8,3.8,0,0,0-.13,1.24,4.7,4.7,0,0,0-5,1.74,4.22,4.22,0,0,0,1.19.78,4.09,4.09,0,0,0-.78.83,7.13,7.13,0,0,0,.63.49,4.3,4.3,0,0,0-2.38,2.39,4.4,4.4,0,0,0,1.88.59,5.88,5.88,0,0,0-3.1,3.21,6.47,6.47,0,0,0,5.55.36A2.8,2.8,0,0,0,42,77.79,3.18,3.18,0,0,0,44.3,77a4,4,0,0,0,.15.65,4.38,4.38,0,0,0-3,2.68,4.84,4.84,0,0,0-1.75-.43,4.1,4.1,0,0,0-.13,1.24,4.69,4.69,0,0,0-5,1.75,4.64,4.64,0,0,0,1.17.77,4.44,4.44,0,0,0-.76.85c.2.16.42.33.63.47a4.33,4.33,0,0,0-2.4,2.39,4.62,4.62,0,0,0,1.91.59A6,6,0,0,0,32,91.13a6.56,6.56,0,0,0,5.57.37A2.51,2.51,0,0,0,37.37,93a3.05,3.05,0,0,0,2.27-.83,4.1,4.1,0,0,0,.87,1.93,4.28,4.28,0,0,0,2.45-3A8.89,8.89,0,0,0,44,91a4.46,4.46,0,0,0,3.84,2.68,1.87,1.87,0,0,0,.13-.53,6.55,6.55,0,0,0,5,.1,2.43,2.43,0,0,0-.24,1.53A3.07,3.07,0,0,0,55,93.93a4.08,4.08,0,0,0,.86,1.93,4.31,4.31,0,0,0,2.45-3,6.85,6.85,0,0,0,1-.13,4.48,4.48,0,0,0,3.86,2.68,3.76,3.76,0,0,0,.08-1.76,58.53,58.53,0,0,0,8.41,1.85c-.22,7.76-.61,15.53-1.3,23.35a5.41,5.41,0,0,1-2.4,4.51h9.49A6.35,6.35,0,0,1,75,118.2c-.54-7.51-.85-15.07-1-22.64a34.75,34.75,0,0,0,11-2.11,29.71,29.71,0,0,0,4.79-2.34,4.44,4.44,0,0,0,.73,0,2.72,2.72,0,0,0-.78,1.38,3.15,3.15,0,0,0,2.45-.06,3.84,3.84,0,0,0,.11,2.09A4.48,4.48,0,0,0,96,91.72a5.7,5.7,0,0,0,1,.08,4.34,4.34,0,0,0,2.55,3,3.8,3.8,0,0,0,.78-2,3.24,3.24,0,0,0,2.32.77,2.65,2.65,0,0,0-.28-1.55,6.49,6.49,0,0,0,5.55-.52,5.86,5.86,0,0,0-3.23-3.11,4.41,4.41,0,0,0,1.86-.65,4.25,4.25,0,0,0-2.47-2.31c.22-.17.41-.33.61-.51a4,4,0,0,0-.78-.81,4.49,4.49,0,0,0,1.15-.82,4.18,4.18,0,0,0-1.09-1,5.41,5.41,0,0,0,4.62,0,4.89,4.89,0,0,0-2.36-2.87,3.89,3.89,0,0,0,1.62-.36,3.72,3.72,0,0,0-.39-.86,3.78,3.78,0,0,0,1.2-.48,3.4,3.4,0,0,0-1.11-1.4,2.51,2.51,0,0,0,1.63-1.18,2.68,2.68,0,0,0-2.48-.37,4.57,4.57,0,0,0,.66-2.35,5.51,5.51,0,0,0-2.5.12,3.25,3.25,0,0,0,.35-1.44,3.87,3.87,0,0,0-3.38,1,4.26,4.26,0,0,0-.43-.42,6.1,6.1,0,0,0,1.51-1.41,6.38,6.38,0,0,0-4.22-1.78,4.52,4.52,0,0,0,1.49-1.24,4.6,4.6,0,0,0-3.23-1.3,4.7,4.7,0,0,0,.39-.69,4.71,4.71,0,0,0-1.06-.47A4.48,4.48,0,0,0,97,63.61a4.88,4.88,0,0,0-2.36-.69,3.27,3.27,0,0,0,.6-2.31,8.53,8.53,0,0,0,.81-.29,3.82,3.82,0,0,0,3,1.41A3.42,3.42,0,0,0,99,60a2.71,2.71,0,0,0,2-.2,2.31,2.31,0,0,0-.81-1.06,5.26,5.26,0,0,0,4-2.25,5.36,5.36,0,0,0-3.62-1.28,3.41,3.41,0,0,0,1.17-1.1A3.73,3.73,0,0,0,99,53.16a4.53,4.53,0,0,0,.28-.59,3.49,3.49,0,0,0-.93-.35,4.06,4.06,0,0,0,.59-1,3.93,3.93,0,0,0-4.42.48,3.26,3.26,0,0,0-.61-.87,1.9,1.9,0,0,0-.52.35,1.77,1.77,0,0,0-.41-.41,4.42,4.42,0,0,0,3.4-1.93,4.56,4.56,0,0,0-3.1-1.08,3.28,3.28,0,0,0,1-1,3.23,3.23,0,0,0-1.54-.73Zm-3.23,6.15a.72.72,0,0,1-.22,0l.13-.06a.45.45,0,0,0,.09.1Zm-2.84,2.21a2.74,2.74,0,0,0-.63.21c-.06-.08-.15-.14-.21-.21a2.79,2.79,0,0,0,.67-.5,4.91,4.91,0,0,0,.17.5Zm12,26.26h0Zm-4.7-1a6.29,6.29,0,0,0-2.13-.92,5.3,5.3,0,0,0-.5,2.89,3.17,3.17,0,0,0-2.9-.73,2.82,2.82,0,0,0,1.15,2,4.6,4.6,0,0,0-1.93,1,4.12,4.12,0,0,0,1,1.08,6.21,6.21,0,0,0-.52.41A4.2,4.2,0,0,0,87,84a3,3,0,0,0,2-1.42A3.3,3.3,0,0,0,86.56,82a29.25,29.25,0,0,0,4.92-4,5.32,5.32,0,0,0,3,1.12,3,3,0,0,0-.52.55Zm-.29-4.06.13-.15a1.94,1.94,0,0,1,.24.15ZM93,74.46a.41.41,0,0,0-.13.1,1.3,1.3,0,0,1,.15.2c-.39.47-.8.92-1.19,1.36-.07,0-.13.07-.2.09a4.23,4.23,0,0,0,.29-1.65,9.33,9.33,0,0,0,1-.26.51.51,0,0,0,.11.16ZM87.93,85.91A4.42,4.42,0,0,0,89.44,87a6.23,6.23,0,0,0-3.25,1.26,5.83,5.83,0,0,0-.8-.53,4.68,4.68,0,0,0,2-.43,4.8,4.8,0,0,0-.47-1,3.88,3.88,0,0,0,1.06-.35Zm-1.69,5.81c-.59.26-1.17.51-1.74.73A34.24,34.24,0,0,1,74,94.5c0-1.22,0-2.43-.07-3.67a4.62,4.62,0,0,0,2.52-1.59,7.53,7.53,0,0,0,.95.31,4.2,4.2,0,0,0,2.21,4,4.08,4.08,0,0,0,1-1.87,3.23,3.23,0,0,0,2.21,1,2.51,2.51,0,0,0-.11-1.56,6.52,6.52,0,0,0,3.58.61ZM78.07,78.88A4.83,4.83,0,0,0,73.78,78V76.16A19.2,19.2,0,0,0,81.6,74c.22-.12.43-.24.65-.38A5.64,5.64,0,0,0,81,75.74a6.56,6.56,0,0,0,5.57.18,2.68,2.68,0,0,0-.2,1.54,3.07,3.07,0,0,0,2.26-.91,4,4,0,0,0,.89,1.87,26.19,26.19,0,0,1-2.91,2.27,5.29,5.29,0,0,0,.18-1.34,6.51,6.51,0,0,0-3,.14,3.86,3.86,0,0,0,.41-1.72,4.58,4.58,0,0,0-4,1.16,4.54,4.54,0,0,0-1.39-1.12,4.75,4.75,0,0,0-.69,1.07Zm-6.18,1.88a4.61,4.61,0,0,0-2.45,1.11,4.38,4.38,0,0,0,1.45,1.3,6.64,6.64,0,0,0-2.92.67c-.7-.18-1.39-.39-2.08-.61a2.69,2.69,0,0,0,.54-1.52,3.18,3.18,0,0,0-2.78.71l-.08,0A4.78,4.78,0,0,0,63.46,81l.35.24a4.09,4.09,0,0,0,1.3-3.61c.3-.13.62-.25.91-.41a4.66,4.66,0,0,0,4.55,1.42,4,4,0,0,0-.67-2,3.16,3.16,0,0,0,2-.5c0,1.52,0,3,0,4.57Zm-5,4.5a6.36,6.36,0,0,0,4.46,2.13,3.05,3.05,0,0,0-.93,1.28A3.14,3.14,0,0,0,71.8,89c0,1.77-.06,3.55-.13,5.34a59.17,59.17,0,0,1-6.09-1.24,2.48,2.48,0,0,0-.78-1.22,6.4,6.4,0,0,0,5-2.25,6.21,6.21,0,0,0-4.16-1.91,4.8,4.8,0,0,0,1.54-1.2,4.44,4.44,0,0,0-.89-.73,3.65,3.65,0,0,0,.61-.57Zm-2.65-22h0a23.47,23.47,0,0,0,3.62,1.87,2.78,2.78,0,0,0-1.23,1.24,5.75,5.75,0,0,0-1.52-2.54,4.74,4.74,0,0,0-.91.69,2.81,2.81,0,0,0-.89-1.14,6.86,6.86,0,0,0,.91-.12Zm-.34,1.56a5.44,5.44,0,0,0-.81,1.08,3.66,3.66,0,0,0-.45-.88,3,3,0,0,0,1.26-.2Zm-3.65,1.85a6,6,0,0,0-.19,1.2,4.44,4.44,0,0,0-1.54,0c-.39-.39-.76-.79-1.12-1.22a4.69,4.69,0,0,0,0-1.06,7.57,7.57,0,0,0,.95-.32,4.46,4.46,0,0,0,1.88,1.36Zm6.16-7a5.71,5.71,0,0,1,1.69,1.06,6.12,6.12,0,0,1-2.49,2.09,23.16,23.16,0,0,0,6.28,2.48v-6.5c0-.73,0-1.44,0-2.15A15.08,15.08,0,0,1,70,55.82a4.4,4.4,0,0,1-.89.08,5.81,5.81,0,0,1,2.77,3.47,6.53,6.53,0,0,1-5.57-.14c0,.12.07.26.11.38ZM57,67.88a4.09,4.09,0,0,1-1,1.26,4.89,4.89,0,0,1,.47.44,1.48,1.48,0,0,1-.28.33,4.56,4.56,0,0,1,2.06-.73c-.41-.41-.84-.83-1.26-1.3Zm-1.51,2.6a2.21,2.21,0,0,0-.29.32,1.1,1.1,0,0,0-.26,0,4.83,4.83,0,0,0,.55-.3Zm-.18,4.38a3.48,3.48,0,0,0-.52,1.08,2.61,2.61,0,0,0-.71-1,7.28,7.28,0,0,0,1.23-.09Zm-.63,1.53a3.28,3.28,0,0,0,0,.46l-.39-.36a3.34,3.34,0,0,0,.43-.1Zm-2.18-.06a26.43,26.43,0,0,0,2.75,2.47,5.18,5.18,0,0,0-.5,2.1,6.67,6.67,0,0,0,2.67,0A3.26,3.26,0,0,0,56.83,82a4.69,4.69,0,0,0-1.76-.42,4,4,0,0,0-.13,1.24A4.72,4.72,0,0,0,52,83a4.61,4.61,0,0,0-2-.94A2.75,2.75,0,0,0,51.08,80a3.21,3.21,0,0,0-2.86.81,5.33,5.33,0,0,0-.6-2.84A5.85,5.85,0,0,0,45,79.31c0-.24-.05-.49-.09-.73a1.91,1.91,0,0,0,.22.3,4.2,4.2,0,0,0,2.44-3,8.27,8.27,0,0,0,1-.12,4.5,4.5,0,0,0,3.86,2.68,3.91,3.91,0,0,0,0-2.09ZM47.9,91.86l-.07-.3a.72.72,0,0,0,.22.08,1.43,1.43,0,0,0-.15.22Zm1.58-1.64,0,0h0Zm12.94-10.4-.2.08a2.26,2.26,0,0,0,.13-.2.75.75,0,0,1,.07.12Zm-2.28,0-.06-.18.09-.06a.66.66,0,0,0,0,.24Zm9.11-14.28c.88.31,1.77.55,2.68.78v4.16a6,6,0,0,0-1.49.18,4.36,4.36,0,0,0,1.06-1.58,3.92,3.92,0,0,0-1.11-.43A3.91,3.91,0,0,0,71,67.33,4.94,4.94,0,0,0,68.79,67a2.64,2.64,0,0,0,.46-1.43Zm2.68,9,0,.41c-.19,0-.41-.11-.63-.15.22-.08.44-.16.65-.26ZM55.81,77.85c-.35-.29-.69-.57-1-.89a4.84,4.84,0,0,0,1.86,0,6.66,6.66,0,0,0-.84.91Zm18-4.59a5.72,5.72,0,0,0,1.25-2,6.17,6.17,0,0,0-1.25-.53c0-1.44,0-2.88,0-4.32A15.72,15.72,0,0,0,80,64.67c0,.1,0,.18,0,.26a3.77,3.77,0,0,0,3-1.44c.27.1.55.18.81.27v.16A4.94,4.94,0,0,0,83,64a5.31,5.31,0,0,0,.67,2.82,3.19,3.19,0,0,0-3,.35,3,3,0,0,0,1.86,1.48,4.38,4.38,0,0,0-1.41,1.63,6,6,0,0,0,1.41.62,4.31,4.31,0,0,0-.52,1,3.46,3.46,0,0,0,.57.24c-.52.35-1,.67-1.57,1a18.19,18.19,0,0,1-7.25,2ZM70.94,55a6.28,6.28,0,0,0-.31-.57A5.28,5.28,0,0,0,72,54c0,.5,0,1,0,1.5a8.45,8.45,0,0,1-1-.43ZM72,53.74a4.31,4.31,0,0,0-1.24-1.54,3.27,3.27,0,0,0,1.3-.59L72,53.74Zm.11-3.29a3.32,3.32,0,0,0-2.32-.12,5.33,5.33,0,0,0,.84-2.8,6.84,6.84,0,0,0-3,.1,3.74,3.74,0,0,0,.46-1.72,1.76,1.76,0,0,0-.46-.06l.11,0a3.19,3.19,0,0,0-.15-1.71l.15,0A12.65,12.65,0,0,0,72.21,47c0,1.16-.06,2.34-.08,3.49ZM67.25,45.8A4.78,4.78,0,0,0,64,47a3.23,3.23,0,0,0-.39-.44A3.6,3.6,0,0,0,64,44.73a4.81,4.81,0,0,0,.78-.27,3.65,3.65,0,0,0,2.49,1.34ZM65.39,35.06a2.69,2.69,0,0,0,.47-.43c0,.15.09.29.14.43a3.11,3.11,0,0,0-.61,0ZM92.22,63.53a4.81,4.81,0,0,0-.44-.47,2.93,2.93,0,0,0,.87-.64,5.52,5.52,0,0,0,.3.79,4.75,4.75,0,0,0-.73.32Zm-1.43-1.22a.46.46,0,0,0-.13-.08h.15Zm-6.5-27.84v-.16c.26-.08.49-.16.75-.26a3.91,3.91,0,0,0,.59.56,4.31,4.31,0,0,0-1.34-.14Zm2.62.77.24.07-.05.08-.19-.15Zm-9.23-2.19,0-.08h.09a.35.35,0,0,0-.13.08Zm-.55-4.75A5.4,5.4,0,0,0,76,27.69a4.43,4.43,0,0,0,.45-.2,2.6,2.6,0,0,0-.41-.75,2.22,2.22,0,0,0,.56-.21,4.88,4.88,0,0,0,.54,1.77Z"/><rect class="cls-2" width="141.2" height="141.2" rx="70.6"/></g></g></svg>