<svg xmlns="http://www.w3.org/2000/svg" viewBox="0 0 141.2 141.2"><defs><style>.cls-1{fill:none;}.cls-2{}</style></defs><g id="Calque_2" data-name="Calque 2"><g id="Layer_1" data-name="Layer 1"><rect class="cls-1" width="141.2" height="141.2" rx="70.6"/><path class="cls-2" d="M53.55,90a1.25,1.25,0,0,1-1.9,1.62,21.29,21.29,0,0,1-5.19-13.89,1.25,1.25,0,0,1,2.5,0A18.69,18.69,0,0,0,53.55,90ZM102,77.42c0,16.06-14.1,29.14-31.42,29.14S39.18,93.48,39.18,77.42c0-10.74,6.37-20.53,16.42-25.6A13.09,13.09,0,0,1,52.3,49a1.22,1.22,0,0,1-.07-1.41A1.25,1.25,0,0,1,53.52,47c4.64.9,11.66-2.22,13.66-3.17a20.11,20.11,0,0,0-.73-7.6,1.24,1.24,0,0,1,1.19-1.62h4.69A1.25,1.25,0,0,1,73.57,36,41.87,41.87,0,0,0,74,43.86c2,1,9,4.08,13.67,3.18A1.24,1.24,0,0,1,89,48.89a8.5,8.5,0,0,1-3.5,2.89C95.61,56.82,102,66.63,102,77.42ZM56.78,49.61a16.3,16.3,0,0,0,2,1.12l.15.07a19.16,19.16,0,0,0,4.86,1.39,1.23,1.23,0,0,1,1,.86,1.27,1.27,0,0,1-.35,1.29,19.46,19.46,0,0,1-5.16,3.32,13,13,0,0,0,7.8-1.12,1.23,1.23,0,0,1,1,0,1.24,1.24,0,0,1,.68.69l1.79,4.52,2-4.5a1.25,1.25,0,0,1,1.62-.64,12.45,12.45,0,0,0,8.08.95,21.69,21.69,0,0,1-6-4.87,1.24,1.24,0,0,1,1-2.06,14,14,0,0,0,7-1,38.65,38.65,0,0,1-11.94-3.8,1.24,1.24,0,0,1-.65-.86,40.1,40.1,0,0,1-.63-7.81H69.23a20.14,20.14,0,0,1,.29,7.81,1.27,1.27,0,0,1-.65.86,38.4,38.4,0,0,1-12.09,3.81ZM99.53,77.42c0-10.61-6.83-20.2-17.39-24.44l-.15-.1a15.2,15.2,0,0,1-1.78.23c1.8,1.58,4,3,5.44,2.7a1.25,1.25,0,0,1,1.14,2.08c-.18.19-4.29,4.31-12.41,1.44l-2.74,6.11a1.26,1.26,0,0,1-1.14.74h0a1.23,1.23,0,0,1-1.12-.79l-2.43-6.1c-8.18,3-12.32-1.21-12.51-1.39h0a1.25,1.25,0,0,1,1.14-2.09c1.54.31,3.61-.7,5.2-1.74a18.87,18.87,0,0,1-2.33-.81C48.23,57.63,41.67,67.05,41.67,77.42c0,14.69,13,26.65,28.93,26.65s28.93-12,28.93-26.65Zm-34.76-26H65a15.92,15.92,0,0,0,5.41-1.8,1.25,1.25,0,1,0-1.31-2.12,13.51,13.51,0,0,1-4.5,1.46,1.24,1.24,0,0,0,.2,2.47Z"/></g></g></svg>