<svg xmlns="http://www.w3.org/2000/svg" viewBox="0 0 141.2 141.2"><defs><style>.cls-1{fill:none;}.cls-2{}</style></defs><g id="Calque_2" data-name="Calque 2"><g id="Layer_1" data-name="Layer 1"><rect class="cls-1" width="141.2" height="141.2" rx="70.6"/><path class="cls-2" d="M108.28,69.11l-4.52-2.91a11.6,11.6,0,0,0-3.07-1.53A13.79,13.79,0,0,0,103,62l3.07-4.44a1.57,1.57,0,0,0,.17-1.62,1.71,1.71,0,0,0-1.28-1l-5.29-1A18.08,18.08,0,0,0,96,53.66a16.53,16.53,0,0,0,1.2-3.42L98.3,45a1.86,1.86,0,0,0-.43-1.53A1.66,1.66,0,0,0,96.33,43L91,44.1a15.93,15.93,0,0,0-3.59,1.19,13.94,13.94,0,0,0-.25-3.75l-1-5.29a1.71,1.71,0,0,0-1-1.28,1.57,1.57,0,0,0-1.62.17L79,38.3a19.93,19.93,0,0,0-2.48,2.13A13.23,13.23,0,0,0,75,37.53L72.09,33a1.59,1.59,0,0,0-1.45-.85,1.69,1.69,0,0,0-1.45.77l-2.9,4.52a19.64,19.64,0,0,0-1.54,3,18.21,18.21,0,0,0-2.47-2.13l-4.44-3.16A1.59,1.59,0,0,0,56.22,35a1.75,1.75,0,0,0-1,1.28l-1,5.29a14.2,14.2,0,0,0-.26,3.75,15.85,15.85,0,0,0-3.58-1.19L45,42.9a1.62,1.62,0,0,0-1.54.43,1.68,1.68,0,0,0-.43,1.54l1.11,5.29a15,15,0,0,0,1.2,3.41,13.59,13.59,0,0,0-3.67.26l-5.29,1a1.75,1.75,0,0,0-1.28,1,1.58,1.58,0,0,0,.17,1.62l3.07,4.44a21.85,21.85,0,0,0,2.3,2.64,21,21,0,0,0-3.07,1.54L33.09,69a1.81,1.81,0,0,0-.85,1.54A1.68,1.68,0,0,0,33,72l4.53,2.9a21,21,0,0,0,3.07,1.54A16,16,0,0,0,38.3,79l-3.08,4.44a1.59,1.59,0,0,0-.17,1.62,1.73,1.73,0,0,0,1.28,1l5.29,1a17.83,17.83,0,0,0,3,.25h.68a15.94,15.94,0,0,0-1.19,3.42L43,96.16a1.81,1.81,0,0,0,.43,1.54,1.67,1.67,0,0,0,1.19.51H45l5.29-1.11a15.93,15.93,0,0,0,3.59-1.19,13.94,13.94,0,0,0,.25,3.75l1,5.29a1.71,1.71,0,0,0,1,1.28,1.56,1.56,0,0,0,.69.17,1.6,1.6,0,0,0,1-.34l4.44-3.16a19.12,19.12,0,0,0,2.47-2.13,14.36,14.36,0,0,0,1.54,3l2.9,4.52a1.69,1.69,0,0,0,1.45.77,1.88,1.88,0,0,0,1.45-.77L75,103.76a19.59,19.59,0,0,0,1.53-3A18.29,18.29,0,0,0,79,102.9l4.44,3.16a2.42,2.42,0,0,0,1,.34,1.14,1.14,0,0,0,.68-.17,1.62,1.62,0,0,0,1-1.28l1-5.29a14.2,14.2,0,0,0,.26-3.75A15.85,15.85,0,0,0,91,97.1l5.29,1.11h.34a1.69,1.69,0,0,0,1.2-.51,1.53,1.53,0,0,0,.43-1.54l-1.2-5.29a14.94,14.94,0,0,0-1.19-3.41h.68a17.85,17.85,0,0,0,3-.26l5.29-1a1.77,1.77,0,0,0,1.28-1,1.62,1.62,0,0,0-.17-1.62l-3.08-4.44a16.49,16.49,0,0,0-2.3-2.56A20.91,20.91,0,0,0,103.67,75l4.53-2.91a1.67,1.67,0,0,0,.76-1.45A1.75,1.75,0,0,0,108.28,69.11ZM99,57.33l2.73.51-1.62,2.3a13.65,13.65,0,0,1-3.76,3.59,16.29,16.29,0,0,0-5.37.43,23.26,23.26,0,0,0-1.37-3.25,16.25,16.25,0,0,0,3.93-3.33A11.77,11.77,0,0,1,99,57.33Zm-7.34-9.9,2.73-.6-.6,2.73a13.13,13.13,0,0,1-6,8.37,22.61,22.61,0,0,0-4.53-4.53A13.34,13.34,0,0,1,91.64,47.43ZM77.56,44.7A12.27,12.27,0,0,1,81,41.11l2.22-1.62.51,2.73a13.84,13.84,0,0,1-.17,5.63,19.23,19.23,0,0,0-3.16,3.76,22.65,22.65,0,0,0-3.24-1.37A17.49,17.49,0,0,0,77.56,44.7Zm-8.45-5.38L70.64,37l1.54,2.31a13,13,0,0,1,1.71,10.16,20.94,20.94,0,0,0-3.25-.26,19.07,19.07,0,0,0-3.16.26A13.35,13.35,0,0,1,69.11,39.32Zm-11.53,2.9.52-2.73,2.22,1.62a12.4,12.4,0,0,1,3.41,3.59,15,15,0,0,0,.43,5.54,23.26,23.26,0,0,0-3.25,1.37,18.56,18.56,0,0,0-3.16-3.76A11.55,11.55,0,0,1,57.58,42.22Zm-7.93,5.21a12.89,12.89,0,0,1,8.36,6,22.56,22.56,0,0,0-4.52,4.53,12.92,12.92,0,0,1-6-8.37l-.59-2.73ZM39.58,57.84l2.73-.51a13,13,0,0,1,5.46.17,16.56,16.56,0,0,0,3.93,3.33,20.58,20.58,0,0,0-1.37,3.24A16.35,16.35,0,0,0,45,63.64a13.44,13.44,0,0,1-3.75-3.58ZM39.4,72.09l-2.3-1.53L39.4,69a13.05,13.05,0,0,1,10.16-1.71,20.93,20.93,0,0,0-.25,3.25,19.08,19.08,0,0,0,.25,3.16A13.36,13.36,0,0,1,39.4,72.09Zm2.91,11.7-2.73-.52L41.2,81A13.44,13.44,0,0,1,45,77.39a9.37,9.37,0,0,0,1.45.08A19.31,19.31,0,0,0,50.24,77a23.26,23.26,0,0,0,1.37,3.25,16.25,16.25,0,0,0-3.93,3.33A12.67,12.67,0,0,1,42.31,83.79Zm7.34,9.9-2.73.59.59-2.73a12.9,12.9,0,0,1,6-8.36A22.51,22.51,0,0,0,58,87.71,13.33,13.33,0,0,1,49.65,93.69Zm14.08,2.73A12.49,12.49,0,0,1,60.32,100l-2.22,1.62-.52-2.73a14,14,0,0,1,.17-5.63,18.56,18.56,0,0,0,3.16-3.76,21.09,21.09,0,0,0,3.25,1.37A17.57,17.57,0,0,0,63.73,96.42Zm8.45,5.38-1.54,2.3-1.53-2.3A13,13,0,0,1,67.4,91.64a20.1,20.1,0,0,0,6.32,0A13,13,0,0,1,72.18,101.8ZM70.64,88.48A17.93,17.93,0,1,1,88.57,70.56,17.92,17.92,0,0,1,70.64,88.48ZM83.7,98.89l-.51,2.73L81,100a13.45,13.45,0,0,1-3.41-3.58,15.21,15.21,0,0,0-.43-5.55,20.58,20.58,0,0,0,3.24-1.37,16.92,16.92,0,0,0,3.16,3.76A11.43,11.43,0,0,1,83.7,98.89Zm7.94-5.2a12.92,12.92,0,0,1-8.37-6,22.56,22.56,0,0,0,4.53-4.52,12.89,12.89,0,0,1,6,8.36l.6,2.73Zm10.07-10.42L99,83.79a13.19,13.19,0,0,1-5.46-.17,16.56,16.56,0,0,0-3.93-3.33A23.26,23.26,0,0,0,91,77a14.37,14.37,0,0,0,3.84.43,8.34,8.34,0,0,0,1.45-.08A13.44,13.44,0,0,1,100,81Zm.17-11.18A13,13,0,0,1,91.72,73.8,19.72,19.72,0,0,0,92,70.64a19.07,19.07,0,0,0-.26-3.16,13,13,0,0,1,10.16,1.71l2.31,1.54Z"/><circle class="cls-2" cx="59.55" cy="74.82" r="1.71"/><circle class="cls-2" cx="62.96" cy="80.8" r="1.71"/><circle class="cls-2" cx="69.79" cy="83.36" r="1.71"/><circle class="cls-2" cx="68.08" cy="74.82" r="1.71"/></g></g></svg>