<svg xmlns="http://www.w3.org/2000/svg" viewBox="0 0 141.2 141.2"><defs><style>.cls-1{fill:none;}.cls-2{}</style></defs><g id="Calque_2" data-name="Calque 2"><g id="Layer_1" data-name="Layer 1"><rect class="cls-1" width="141.2" height="141.2" rx="70.6"/><path class="cls-2" d="M66.81,87.41a10.73,10.73,0,0,1-3.27-6.17l-10,7.48L57,92.11h4.32A10.83,10.83,0,0,1,66.81,87.41Z"/><path class="cls-2" d="M80.47,111.45a10.34,10.34,0,0,1-5.91-.11l1.18,9.45h2.39Z"/><path class="cls-2" d="M107.24,114.23l1.93,6.56h1.6l.91-12.75c-.2,0-.39-.06-.59-.11a10.68,10.68,0,0,1-8.25,3.9c-.35,0-.69,0-1-.08a6.34,6.34,0,0,0,3.71,1.2,1.78,1.78,0,0,1,1.72,1.28Z"/><path class="cls-2" d="M120.76,84.94a7.17,7.17,0,0,0-7.17-7.17,7.06,7.06,0,0,0-1.93.3A1.79,1.79,0,0,1,109.51,77a7.12,7.12,0,0,0-11.89-2.31,1.79,1.79,0,0,1-1.53.56,1.84,1.84,0,0,1-1.35-.92,7.09,7.09,0,0,0-12.48,0,1.8,1.8,0,0,1-1.35.91,1.83,1.83,0,0,1-1.53-.55,7.07,7.07,0,0,0-5.22-2.3,7.17,7.17,0,1,0,0,14.34,1.8,1.8,0,0,1,0,3.59H70.57a7.17,7.17,0,1,0-.06,14.34,1.71,1.71,0,0,1,1.53.71,7.11,7.11,0,0,0,10.72.82,1.8,1.8,0,0,1,2.51,0,7.33,7.33,0,0,0,10,0,1.8,1.8,0,0,1,2.51,0,7.67,7.67,0,0,0,.88.72h.55c0,.12,0,.24,0,.37h0a7.07,7.07,0,0,0,9.59-2.39,1.81,1.81,0,0,1,2.16-.72,7.15,7.15,0,0,0,7.66-11.7,1.8,1.8,0,0,1,0-2.51,7.15,7.15,0,0,0,2.06-5Z"/><path class="cls-2" d="M38.72,58l3-.17h0a18.8,18.8,0,0,0,.39-37.2l-1.55-.18c-.46,0-.92-.07-1.39-.07A18.81,18.81,0,0,0,38.72,58Zm.48-26.86a8.06,8.06,0,1,1-5.7,2.36A8.06,8.06,0,0,1,39.2,31.17Z"/><path class="cls-2" d="M111,33.42a5.38,5.38,0,0,0-10.59,1.33,1.78,1.78,0,0,1-1.79,1.79H88.49v5.38H98.62a1.78,1.78,0,0,1,1.79,1.79A5.38,5.38,0,0,0,111,45a5.27,5.27,0,0,0-1-4.68,1.8,1.8,0,0,1,0-2.26,5.27,5.27,0,0,0,1-4.68Z"/><path class="cls-2" d="M84.91,42.91V35.63l-6.48-5A38.88,38.88,0,0,0,59.1,22.66L53.51,22a22.34,22.34,0,0,1-1.06,35.27l3.86-.22L80,47.28Z"/><path class="cls-2" d="M43.68,39.23a4.48,4.48,0,1,1-4.48-4.48,4.47,4.47,0,0,1,4.48,4.48"/></g></g></svg>