<svg xmlns="http://www.w3.org/2000/svg" viewBox="0 0 141.2 141.2"><defs><style>.cls-1{fill:none;}.cls-2{}</style></defs><g id="Calque_2" data-name="Calque 2"><g id="Layer_1" data-name="Layer 1"><rect class="cls-1" width="141.2" height="141.2" rx="70.6"/><path class="cls-2" d="M73.43,46.1l6.43,12.59c11.2-.13,21.27-1.66,28.63-4.11,6.89-2.32,11.2-5.24,11.2-8.15s-4.31-5.9-11.2-8.15c-7.62-2.52-18.16-4.11-29.89-4.11s-22.27,1.59-29.89,4.11c-6.89,2.32-11.2,5.23-11.2,8.15a4.27,4.27,0,0,0,1.39,2.85,16,16,0,0,0,4.37,3.11L71,45a2.12,2.12,0,0,1,2.52,1.26Zm3.25,15.64-6.3-12.33L43.54,56.63a2.18,2.18,0,0,1-1.46-.13,20.94,20.94,0,0,1-6.29-4.37,8.37,8.37,0,0,1-2.52-5.7c0-5,5.37-9.28,14.12-12.2,8-2.65,19.08-4.3,31.21-4.3s23.2,1.65,31.22,4.3c8.75,2.92,14.11,7.23,14.11,12.2s-5.36,9.28-14.11,12.19c-8,2.65-19.09,4.31-31.22,4.31a2,2,0,0,1-1.85-1.13Z"/><path class="cls-2" d="M33.27,46.69a2.09,2.09,0,1,1,4.17.2c-.26,5.9-.19,15.18-.06,22.87v1.32L33.2,73c0-1.06,0-2.12-.06-3.24-.07-7.82-.2-17.17.06-23.13Zm20.81,33.6L68.2,75.06a2.08,2.08,0,0,1,2.58.93l9,14.77c11.26-.13,21.34-1.65,28.7-4.1,6.89-2.32,11.2-5.24,11.2-8.16,0-2.71-.07-5.5-.2-8.48a221.34,221.34,0,0,1,.13-23,2.12,2.12,0,1,1,4.24.27c-.53,7.49-.33,15.64-.13,22.53.07,3.32.2,6.36.2,8.62,0,5-5.37,9.28-14.12,12.19-8,2.65-19.09,4.31-31.21,4.31a2,2,0,0,1-1.79-1L68,79.56,54.08,84.73V80.29Z"/><path class="cls-2" d="M76.48,61.67a2.12,2.12,0,1,1,4.24,0V91.36a2.12,2.12,0,0,1-4.24,0Z"/><path class="cls-2" d="M40.29,55.18a2.12,2.12,0,1,1,4.24,0l.07,12.65-4.24,1.93Z"/><path class="cls-2" d="M68.26,49.61a2.12,2.12,0,0,1,4.24,0V79.3a2.12,2.12,0,0,1-4.24,0Z"/><path class="cls-2" d="M52,70V84.4a2.08,2.08,0,0,1-2.12,2.12,127.5,127.5,0,0,1-13.52-.73,91.57,91.57,0,0,1-12.26-2.12,2.08,2.08,0,0,1-1.52-2.58,2.33,2.33,0,0,1,1.26-1.46L49,68A2.14,2.14,0,0,1,52,70ZM47.78,82.28V73.34L31.35,80.89c1.79.27,3.58.53,5.43.73,3.51.4,7.16.6,10.94.66Z"/><path class="cls-2" d="M47.78,84.47a2.12,2.12,0,0,1,4.24,0V113.3a2.09,2.09,0,0,1-2.12,2.12,127.5,127.5,0,0,1-13.52-.73,91.57,91.57,0,0,1-12.26-2.12,2.12,2.12,0,0,1-1.59-2.12l-.33-28.1a2.12,2.12,0,0,1,4.24,0l.33,26.51a88,88,0,0,0,10.14,1.66c3.52.4,7.16.59,10.94.66V84.54Z"/><path class="cls-2" d="M56.27,42.45a.8.8,0,1,1,0-1.59h2.12a.8.8,0,0,1,0,1.59Z"/><path class="cls-2" d="M83.84,51.66a.8.8,0,1,1-.47-1.52l2.06-.53a.79.79,0,1,1,.46,1.52Z"/><path class="cls-2" d="M92,47.69a.78.78,0,0,1-.8-1.33L93,45.3a.8.8,0,0,1,1.06.27.81.81,0,0,1-.26,1.06Z"/><path class="cls-2" d="M99.08,50.27a.77.77,0,0,1-1.13,0,.76.76,0,0,1,0-1.12l1.46-1.53a.8.8,0,0,1,1.13,1.13Z"/><path class="cls-2" d="M76.21,41.72a.77.77,0,0,1-1.06.33A.78.78,0,0,1,74.82,41l1-1.85a.77.77,0,0,1,1.06-.33.77.77,0,0,1,.33,1.06Z"/><path class="cls-2" d="M66.67,38.41a.8.8,0,0,1,0-1.59h2.12a.8.8,0,1,1,0,1.59Z"/><path class="cls-2" d="M85,40.8a.8.8,0,0,1-.46-1.53l2-.53A.8.8,0,1,1,87,40.27Z"/><path class="cls-2" d="M95,40.4a.82.82,0,0,1-1.06-.27.8.8,0,0,1,.27-1.06L96,38a.81.81,0,0,1,1.06.26.84.84,0,0,1-.27,1.07Z"/><path class="cls-2" d="M108.16,46A.8.8,0,1,1,107,44.9l1.46-1.52a.8.8,0,1,1,1.13,1.13Z"/><path class="cls-2" d="M50.43,46.49a.78.78,0,0,1-1.06.34A.79.79,0,0,1,49,45.76l1-1.85a.77.77,0,0,1,1.06-.33.78.78,0,0,1,.33,1.06Z"/></g></g></svg>