<svg xmlns="http://www.w3.org/2000/svg" viewBox="0 0 141.2 141.2"><defs><style>.cls-1{fill:none;}.cls-2{}</style></defs><g id="Calque_2" data-name="Calque 2"><g id="Layer_1" data-name="Layer 1"><rect class="cls-1" width="141.2" height="141.2" rx="70.6"/><path class="cls-2" d="M45.5,52.12c-.31-.4-2.93-1-6.14-1.69a124.94,124.94,0,0,0-12.58-1.9c-2.32-.16-3-1.07-3.35-1.61-.05-.07,0-.08-.06-.1l-.06,0,0,0a2.9,2.9,0,0,1-.6-1.87,11.09,11.09,0,0,1,.21-2.66,2.13,2.13,0,0,1,.81-1.35.48.48,0,0,0,.19-.23,3.93,3.93,0,0,0,.13-.45,4,4,0,0,1,1.5-2.51h0a9.7,9.7,0,0,1,4-.93,10.09,10.09,0,0,1,4.21.44,19,19,0,0,1,2.38,1.34c1.13.73,1.68,1.09,5.12,1.31a51.76,51.76,0,0,0,8.34-.72c9.22-1.22,21.46-2.84,26.5,4.07l0,0a3.43,3.43,0,0,0,.56.71,2.88,2.88,0,0,0,.48,0,13.72,13.72,0,0,1,1.39,0c10.68.62,20.12,2.52,27.91,7.68s13.92,13.55,17.93,27.11a10.5,10.5,0,0,0,.55,1.4c.51,1.1.92,2,.65,4.81a8.54,8.54,0,0,1-.62,3,9.36,9.36,0,0,1-1.74,2.25,6,6,0,0,1-2,1.28,8.59,8.59,0,0,0-2.55,1.65c-.25.23-.49.47-.75.72-3.07,3-7.73,7.6-19.06,9.1-3.46.46-8.23,1.08-12.54,1.4s-8.38.33-10.18-.46c-3-1.31-3.59-2.7-4.12-3.87s-1-2.23-7.13-2.21h0a9.76,9.76,0,0,0-4.43.48l-.89.26c-4.25,1.24-7.31-.12-10.71-1.62-.85-.38-1.72-.76-2.58-1.1-1.58-.59-3.67-1.63-5.82-2.69-3.11-1.54-6.36-3.14-8.2-3.51-.9-.17-2.17-.28-3.57-.4-3.46-.28-7.63-.63-9.32-2.37l-.2-.2v-.28c0-2.09,1.58-4.75,3.67-7a14.81,14.81,0,0,1,6.44-4.24A7.42,7.42,0,0,1,30.36,72a8.71,8.71,0,0,1,2.51-2.65,18.44,18.44,0,0,1-.19-2.68c0-1.81,0-2.78-2.92-3.41a25.47,25.47,0,0,0-5.41-.47A10.88,10.88,0,0,1,20,62.15a8.89,8.89,0,0,1-3-1.6,4,4,0,0,1-1.47-3.17,13.15,13.15,0,0,1,.69-2.17c.29-.8.58-1.59.59-1.69.32-3.66,2-4.73,4.19-4.53s5,1.91,7.08,3.23c.72.46,1.37.87,1.87,1.14,2,1.08,6.19,1.06,7.51,1.06h.26a23.79,23.79,0,0,0,3.15-.27C42,54,43,53.79,43.73,53.64L44,55c-.76.15-1.8.35-2.91.52a24.54,24.54,0,0,1-3.35.28h-.25c-1.42,0-5.82,0-8.16-1.22-.55-.29-1.22-.71-2-1.18-2-1.25-4.53-2.86-6.46-3-1.39-.12-2.46.65-2.69,3.27a17.69,17.69,0,0,1-.67,2c-.3.83-.61,1.67-.61,1.71a2.72,2.72,0,0,0,1,2.13,7.75,7.75,0,0,0,2.52,1.32h0a9.76,9.76,0,0,0,3.89.53,26.53,26.53,0,0,1,5.69.5h0c3.92.86,3.95,2.21,4,4.73a17.38,17.38,0,0,0,.25,2.91l.09.47-.41.25a7.33,7.33,0,0,0-2.44,2.45,6,6,0,0,0-.9,3v.61l-.6.07c-1.8.22-4.22,1.87-6.18,3.93-1.77,1.86-3.13,4-3.28,5.69,1.5,1.21,5.17,1.52,8.24,1.77a35.08,35.08,0,0,1,3.72.43c2,.4,5.35,2,8.55,3.62,2.12,1,4.18,2.07,5.69,2.64h0c.95.37,1.81.75,2.65,1.12,3.15,1.4,6,2.66,9.77,1.57l.88-.26c2-.59,2-.6,4.85-.53,7,0,7.58,1.26,8.37,3,.43,1,.94,2.07,3.42,3.16,1.56.69,5.31.66,9.52.35s9-.93,12.46-1.38c10.87-1.44,15.33-5.82,18.27-8.72.27-.26.52-.51.76-.73a10,10,0,0,1,2.92-1.91,5,5,0,0,0,1.55-1,8.5,8.5,0,0,0,1.5-1.91,7.46,7.46,0,0,0,.5-2.51c.24-2.45-.11-3.19-.53-4.1a11.23,11.23,0,0,1-.62-1.6c-3.91-13.21-9.83-21.36-17.37-26.34s-16.76-6.85-27.22-7.45c-.59,0-1,0-1.29,0a2.62,2.62,0,0,1-1-.08C75.74,45,75.53,44.75,75,44v0c-4.56-6.25-16.33-4.69-25.21-3.52a52.17,52.17,0,0,1-8.61.73c-3.79-.24-4.44-.66-5.78-1.52a18.7,18.7,0,0,0-2.23-1.27,9,9,0,0,0-3.52-.3,8.67,8.67,0,0,0-3.36.72,2.88,2.88,0,0,0-.91,1.71c-.06.2-.11.39-.18.58a1.71,1.71,0,0,1-.61.81.92.92,0,0,0-.34.6,9.18,9.18,0,0,0-.17,2.27,2.11,2.11,0,0,0,.17.92,2,2,0,0,1,.35.41c.24.33.64.91,2.3,1,2.38.16,8.14,1,12.77,1.92,3.49.7,6.41,1.5,7,2.2l-1.08.85ZM32.77,68.72a.69.69,0,1,1,1.38-.12c.3,3.43,2.58,7.43,6.1,11a32.71,32.71,0,0,0,12.81,8,.69.69,0,1,1-.43,1.31,34.25,34.25,0,0,1-13.36-8.29c-3.75-3.77-6.17-8.08-6.5-11.83Zm4.16,21.15a.69.69,0,1,1-.54,1.27,10.25,10.25,0,0,1-4.85-4,9.09,9.09,0,0,1-1.22-5.92.69.69,0,1,1,1.37.16,7.79,7.79,0,0,0,1,5,8.88,8.88,0,0,0,4.21,3.41ZM43.4,55.12a.69.69,0,1,1-.27-1.36A44.89,44.89,0,0,1,55.88,53a25.66,25.66,0,0,1,12.6,4.29A18.75,18.75,0,0,1,76,69.4a33.45,33.45,0,0,1,.36,9.72.69.69,0,0,1-.75.63A.69.69,0,0,1,75,79a32.21,32.21,0,0,0-.35-9.33,17.47,17.47,0,0,0-6.95-11.24,24.39,24.39,0,0,0-11.93-4,43.36,43.36,0,0,0-12.36.73ZM43.26,54c2.16-3.74,7-6.12,12.49-7.62C64.38,44,74.83,43.82,79.48,44l0,1.38c-4.57-.17-14.85,0-23.32,2.33-5.21,1.41-9.71,3.6-11.66,7L43.26,54Zm30.29,46a.7.7,0,0,1-.33.92.69.69,0,0,1-.92-.33,13.45,13.45,0,0,1-1.36-4.74A9,9,0,0,1,72.44,90,13.56,13.56,0,0,1,78,85.45c3.4-1.63,8.1-2.78,14.22-3.27a6.86,6.86,0,0,0,1.28-.2,5.32,5.32,0,0,0-1.41-.56c-6.66-1.8-10.42-4.65-12.49-8s-2.42-7.21-2.28-11c.1-2.72.61-3.7,1.63-3.66.73,0,1.49.74,2.52,1.71.33.3.69.64,1.11,1A49.38,49.38,0,0,0,90.83,67a75.48,75.48,0,0,0,7.47,3.68c.19-.71,1.13-1.22,2.51-1.38a11.85,11.85,0,0,1,5.1.64,8.76,8.76,0,0,1,6.15,9.14A13,13,0,0,1,111,83.69,16.44,16.44,0,0,1,108.23,88a5.73,5.73,0,0,0-1.59,3,2.13,2.13,0,0,0,.22,1.29,1.75,1.75,0,0,0,.85.76,2.78,2.78,0,0,0,1.78.11.69.69,0,1,1,.32,1.35,4.16,4.16,0,0,1-2.66-.2A3.14,3.14,0,0,1,105.66,93a3.5,3.5,0,0,1-.4-2.12,7,7,0,0,1,1.94-3.8,15.2,15.2,0,0,0,2.5-4,11.35,11.35,0,0,0,1-4.11,7.45,7.45,0,0,0-5.23-7.79,10.45,10.45,0,0,0-4.48-.57,5,5,0,0,0-1.31.24c0,.15.38.37,1.06.66h0l2,.84a.69.69,0,0,1-.53,1.28l-2-.84A59.39,59.39,0,0,1,90.17,68.2a49.75,49.75,0,0,1-8.47-5.74c-.4-.35-.78-.71-1.14-1a6.47,6.47,0,0,0-1.62-1.34,7.76,7.76,0,0,0-.2,2.33c-.13,3.58.18,7.17,2.08,10.25s5.4,5.72,11.66,7.42a5.4,5.4,0,0,1,2.25,1.07,1.22,1.22,0,0,1,.42.88,1.1,1.1,0,0,1-.51.93,4.93,4.93,0,0,1-2.27.59c-6,.48-10.49,1.57-13.73,3.13a12.28,12.28,0,0,0-5,4,7.69,7.69,0,0,0-1.27,5A12.11,12.11,0,0,0,73.56,100Z"/></g></g></svg>