<svg xmlns="http://www.w3.org/2000/svg" viewBox="0 0 141.2 141.2"><defs><style>.cls-1{fill:none;}.cls-2{}</style></defs><g id="Calque_2" data-name="Calque 2"><g id="Layer_1" data-name="Layer 1"><rect class="cls-1" width="141.2" height="141.2" rx="70.6"/><path class="cls-2" d="M121.38,34.2,77.9,10.35a14.6,14.6,0,0,0-14.29,0L34.91,26.12a2.47,2.47,0,0,0,2.36,4.35L66,14.69a10.08,10.08,0,0,1,9.57,0L119,38.55a9.89,9.89,0,0,1,5.22,8.69V93.83a9.89,9.89,0,0,1-5.22,8.7L75.54,126.38a10,10,0,0,1-9.57,0L22.49,102.53a9.29,9.29,0,0,1-3.73-3.85c.37-.13.87-.25,1.12-.38C25,93.09,34.79,84.51,39.76,83.89c2-.37,5.84.25,9.44.75,7.45,1.12,15,2.24,18.63-1.12,1.74-1.24,8.08-6.09,7.09-11.18a1.39,1.39,0,0,0-.38-1A163.17,163.17,0,0,0,57.27,51.47a19.43,19.43,0,0,0,3.23-7.33,6.19,6.19,0,0,0-9.44-6,16.82,16.82,0,0,0-1.86,1.25c-2.11,1.49-4.1,3-7.21,3a1.6,1.6,0,0,0-.74.12,20.32,20.32,0,0,0-10.32,1.62c-3.1-2.61-8.19-5.59-14.28-4a6.33,6.33,0,0,0-4,3.36A6.23,6.23,0,0,0,12.42,48V94a14.91,14.91,0,0,0,7.71,13l43.48,23.85a14.77,14.77,0,0,0,7.21,1.87,14,14,0,0,0,7.08-1.87L121.38,107a14.9,14.9,0,0,0,7.7-13V47.24a14.9,14.9,0,0,0-7.7-13ZM65,79.55c-.13,0-.25.12-.38.24a2.36,2.36,0,0,1-.74.5,3.46,3.46,0,0,1,.5-3.6A5.09,5.09,0,0,1,69.7,75,16.88,16.88,0,0,1,65,79.55ZM52.06,43.39a16.7,16.7,0,0,0,1.61-1.12,1.12,1.12,0,0,1,1.24,0,1.07,1.07,0,0,1,.63,1.12,12.88,12.88,0,0,1-2.12,4.72c-.24-.24-.49-.37-.74-.62a26,26,0,0,0-3.36-2.23,26,26,0,0,0,2.74-1.87ZM17.27,45.5a1,1,0,0,1,.75-.62c6.46-1.74,12.05,5.22,12.05,5.35a2.44,2.44,0,0,0,3.48.49A2.36,2.36,0,0,0,34.42,48c5.34-1.62,10.31-.5,15.15,3.35,6.71,5.35,13.54,13.42,17.52,18.52a10.69,10.69,0,0,0-6.46,3.47,7.63,7.63,0,0,0-1.74,7.33c-2.86-.12-6.21-.62-8.82-1-4.23-.62-8.08-1.24-10.81-.87-7.2,1-18.26,11.31-21.87,14.78V55.07a21.67,21.67,0,0,0,4,2.86,3.77,3.77,0,0,0,1.12.25,3,3,0,0,0,2.36-1.37,2.35,2.35,0,0,0-1-3.35,16.45,16.45,0,0,1-6.59-6.84,1.17,1.17,0,0,1,0-1.12Z"/><path class="cls-2" d="M102.5,32.71H72.68a2.49,2.49,0,0,0-2.48,2.48v9.94l-4.6,8.45A2.47,2.47,0,0,0,70,55.94L72.8,50.6l4.35,8.07V97.93H68.46V92.47a2.49,2.49,0,1,0-5,0v4.47c0,5.34,3.23,6,4.72,6h40a6,6,0,0,0,6-5.84V58.43a1.88,1.88,0,0,0-.38-1.62v-.25l-8.69-11.93V35.19a2.7,2.7,0,0,0-2.61-2.48ZM75.16,37.55H100V42.9H75.16Zm34.17,59.39a1,1,0,0,1-1,1H82.25V60.54h27.08Zm-2.49-41.37H81.38L77.28,48h24.1Z"/><path class="cls-2" d="M34.17,75a1,1,0,0,0,.87.74h.24L44,73.21a1.19,1.19,0,0,0,.62-.5,2,2,0,0,0,.13-.87l-1.87-6.71a1.73,1.73,0,0,0-.37-.49l-5.71-3.85a2.37,2.37,0,0,0-.87-.13,1.31,1.31,0,0,0-.63.5l-3,6.33a.83.83,0,0,0,0,.75Z"/><path class="cls-2" d="M47.34,60.66a2.25,2.25,0,0,0,2.36-2.48,2.36,2.36,0,0,0-2.49-2.49c-1.49,0-2.36,1-2.48,2.61A2.42,2.42,0,0,0,47.34,60.66Z"/><path class="cls-2" d="M95.66,88.61a8.75,8.75,0,0,0,8.58-9.19c0-3.48-3.36-7.83-6.22-10.93a3.36,3.36,0,0,0-4.84,0C90.32,71.59,87,75.94,87,79.42A8.92,8.92,0,0,0,95.66,88.61Zm0-15.4c2.61,3,3.73,5.34,3.73,6.21a3.76,3.76,0,1,1-7.45,0C91.94,78.43,93.05,76.19,95.66,73.21Z"/></g></g></svg>