<svg xmlns="http://www.w3.org/2000/svg" viewBox="0 0 141.2 141.2"><defs><style>.cls-1{fill:none;}.cls-2{}</style></defs><g id="Calque_2" data-name="Calque 2"><g id="Layer_1" data-name="Layer 1"><rect class="cls-1" width="141.2" height="141.2" rx="70.6"/><path class="cls-2" d="M44.64,59.21c-4.71,2.57-6.07,8.41-3.5,13.13a9.71,9.71,0,0,0,9.47,5A9.72,9.72,0,0,0,64.05,90,9.32,9.32,0,0,0,69,82.89c1-8.24,2.24-18.06,2.24-18.06L56.89,58.5c-7.66-3.11-12.25.71-12.25.71Z"/><path class="cls-2" d="M81.75,89.9c4.8,2.4,10.38.18,12.78-4.62a9.72,9.72,0,0,0-1.29-10.65A9.71,9.71,0,0,0,96,56.37a12.43,12.43,0,0,0-9.6.79c-7.31,3.91-15.16,7.72-15.16,7.72l3,15.36c1.82,8.08,7.58,9.66,7.58,9.66Z"/><path class="cls-2" d="M88.22,43.61c-.17-5.37-4.77-9.22-10.14-9a9.7,9.7,0,0,0-8.75,6.2A9.71,9.71,0,0,0,52,47.07c0,1.2,2,6.34,5.85,8.86,6.91,4.58,13.43,8.86,13.43,8.86l12.1-9.92C89.57,49.42,88.22,43.61,88.22,43.61Z"/><path class="cls-2" d="M70.64,64.16s3.14,11.93,0,23.29a70.61,70.61,0,0,1-8.45,18.3l1.39.89a69.78,69.78,0,0,0,8.54-18.79c2.46-9.42,1.64-24.21-1.45-23.69Z"/></g></g></svg>