<svg xmlns="http://www.w3.org/2000/svg" viewBox="0 0 141.2 141.2"><defs><style>.cls-1{fill:none;}.cls-2{}</style></defs><g id="Calque_2" data-name="Calque 2"><g id="Layer_1" data-name="Layer 1"><rect class="cls-1" width="141.2" height="141.2" rx="70.6"/><path class="cls-2" d="M85.32,75c-.25-.39-.52-.76-.81-1.13A13.78,13.78,0,0,0,83,72.12a14,14,0,0,0-1.87-1.6A17.14,17.14,0,0,0,70.6,67a17.33,17.33,0,0,0-10.5,3.52,16.64,16.64,0,0,0-3.31,3.29c-.31.39-.6.8-.88,1.23a17.48,17.48,0,0,0-2.78,9.43v8.22a3.08,3.08,0,0,0,3.08,3.09H85a3.08,3.08,0,0,0,3.08-3.09V84.47A17.51,17.51,0,0,0,85.32,75Z"/><path class="cls-2" d="M79.85,54.67a9.25,9.25,0,1,1-9.25-9.25A9.26,9.26,0,0,1,79.85,54.67Z"/><path class="cls-2" d="M99.37,54.67a9.25,9.25,0,1,1-9.25-9.25A9.26,9.26,0,0,1,99.37,54.67Z"/><path class="cls-2" d="M103.48,80.36v8.22a3.08,3.08,0,0,1-3.08,3.09H91.15v-7.2A20.65,20.65,0,0,0,87.93,73.4c-.31-.48-.64-.93-.91-1.28a16.18,16.18,0,0,0-1.89-2.18,18.61,18.61,0,0,0-1.42-1.29,13.34,13.34,0,0,1,19.77,11.71Z"/><path class="cls-2" d="M57.51,68.65a20.56,20.56,0,0,0-3.15,3.24c-.35.46-.7.93-1,1.48a20.43,20.43,0,0,0-3.27,11.1v7.2H40.8a3.08,3.08,0,0,1-3.08-3.09V80.36A13.36,13.36,0,0,1,57.51,68.65Z"/><path class="cls-2" d="M60.32,54.67a9.25,9.25,0,1,1-9.24-9.25A9.26,9.26,0,0,1,60.32,54.67Z"/></g></g></svg>