<svg xmlns="http://www.w3.org/2000/svg" viewBox="0 0 141.2 141.2"><defs><style>.cls-1{}.cls-2{fill:none;}</style></defs><g id="Calque_2" data-name="Calque 2"><g id="Layer_1" data-name="Layer 1"><path class="cls-1" d="M45.15,76.27a4.11,4.11,0,0,0,4-3.14h4A17.24,17.24,0,0,0,54.44,78c.07.14.07.2.14.34l-3.15,1.3a3.2,3.2,0,1,0,.69,2v-.41l3.28-1.37a16.37,16.37,0,0,0,3,3.9l.35.34-5,5a3.93,3.93,0,0,0-2.19-.62A4,4,0,0,0,48.7,89.6a4.14,4.14,0,0,0-1.16,2.86,4.27,4.27,0,0,0,1.16,2.87,4,4,0,0,0,6.9-2.87A4.21,4.21,0,0,0,55,90.28l5-5.06a22.28,22.28,0,0,0,4.1,2.46h.07l-.27.69h-.41a3.26,3.26,0,1,0,2.32.95l-.27-.27.34-.75a18,18,0,0,0,5.4.82h.48v3.41a4,4,0,0,0-3.22,3.9,4,4,0,0,0,8.07,0,4.11,4.11,0,0,0-3.15-4V89a17.24,17.24,0,0,0,4.85-1.3c.28-.14.62-.27.89-.41l1,2.26a3.2,3.2,0,1,0,2-.69h-.41l-1-2.46a17.83,17.83,0,0,0,3.34-2.66c.41-.41.76-.75,1.1-1.16l3.14,3.14a4,4,0,0,0,.55,5,4.08,4.08,0,0,0,1.3.89,3.94,3.94,0,0,0,1.5.27,4.29,4.29,0,0,0,2.87-1.16,4,4,0,0,0,0-5.67,4,4,0,0,0-5-.55l-3.28-3.28A18.54,18.54,0,0,0,88.06,78c.07-.21.13-.34.2-.55l3.15,1.3a3.12,3.12,0,0,0,1,2.67,2.73,2.73,0,0,0,1.1.68,3.77,3.77,0,0,0,1.23.2,3.51,3.51,0,0,0,2.32-1,3.24,3.24,0,0,0-4.58-4.58l-.27.27-3.28-1.36a19.37,19.37,0,0,0,.68-4.85v-.69h2.67a4,4,0,1,0,4-4.92,4.1,4.1,0,0,0-4,3.15H89.36a16.48,16.48,0,0,0-1.3-4.65c-.07-.14-.07-.2-.14-.34l3.14-1.3a3.26,3.26,0,0,0,2.53,1.23,3.21,3.21,0,0,0,3.21-3.21,3.14,3.14,0,0,0-3.21-3.14,3.2,3.2,0,0,0-3.21,3.21v.41L87.1,61.92a16.57,16.57,0,0,0-3-3.89l-.27-.28,2.94-2.93a4.21,4.21,0,0,0,2.19.61,4.26,4.26,0,0,0,2.86-1.16A4.11,4.11,0,0,0,93,51.4a4.25,4.25,0,0,0-1.17-2.87,4,4,0,0,0-5.67,0,4,4,0,0,0-.54,5l-3.08,3.07a17.4,17.4,0,0,0-4.17-2.46c-.13-.06-.2-.06-.34-.13l.14-.34h.41a3.28,3.28,0,1,0-2.32-1l.27.27-.21.41a18.06,18.06,0,0,0-5.12-.75h-.07V48.74a4.05,4.05,0,0,0-.89-8,4,4,0,0,0-4,4,4.11,4.11,0,0,0,3.15,4v4A17.6,17.6,0,0,0,64,54.07a3.42,3.42,0,0,0-.34.13l-1.3-3.14a3.25,3.25,0,0,0,1.23-2.53,3.22,3.22,0,1,0-3.21,3.21h.41L62.16,55a16.57,16.57,0,0,0-3.89,3l-.34.34-1-1a4,4,0,0,0-.55-5,4.11,4.11,0,0,0-2.87-1.17,4.25,4.25,0,0,0-2.87,1.17,4,4,0,0,0,0,5.67,4.16,4.16,0,0,0,2.87,1.16,4.25,4.25,0,0,0,2.19-.62l1,1a19.28,19.28,0,0,0-2.39,4.1,13,13,0,0,0-.48,1.36l-1.36-.54v-.41a3.28,3.28,0,1,0-6.56,0,3.28,3.28,0,0,0,5.6,2.32l.27-.27,1.51.61a19.31,19.31,0,0,0-.48,4v.48H49a4,4,0,0,0-8,.89,4.16,4.16,0,0,0,4.17,4ZM48.91,83a1.51,1.51,0,1,1,0-3,1.51,1.51,0,0,1,0,3ZM53.14,94.1a2.38,2.38,0,0,1-1.64.69,2.23,2.23,0,0,1-1.64-.69,2.26,2.26,0,0,1,0-3.21,1.89,1.89,0,0,1,.75-.48,3.88,3.88,0,0,1,.89-.2,2.21,2.21,0,0,1,1.64.68,2.4,2.4,0,0,1,.69,1.64,2.22,2.22,0,0,1-.69,1.57Zm37-7.85a2.27,2.27,0,1,1,0,3.21,2.44,2.44,0,0,1-.68-1.64A2.19,2.19,0,0,1,90.17,86.25Zm3.42-8.2a1.5,1.5,0,1,1,2.12,2.12,1.59,1.59,0,0,1-2.12,0,1.57,1.57,0,0,1,0-2.12ZM96.12,67a2.26,2.26,0,1,1-2.26,2.25A2.23,2.23,0,0,1,96.12,67Zm-2.53-8.34a1.51,1.51,0,1,1-1.5,1.51A1.52,1.52,0,0,1,93.59,58.64Zm-6.22-9A2.39,2.39,0,0,1,89,49a2.21,2.21,0,0,1,1.64.68,2.27,2.27,0,1,1-3.21,3.21,2.22,2.22,0,0,1-.07-3.21ZM82.18,90.62a1.51,1.51,0,1,1-1.5,1.5A1.51,1.51,0,0,1,82.18,90.62ZM77.53,49.35a1.55,1.55,0,0,1,1-.41,1.51,1.51,0,0,1,1,.41,1.49,1.49,0,0,1,0,2,1.17,1.17,0,0,1-.47.34,1.65,1.65,0,0,1-.55.14,1.43,1.43,0,0,1-1-.41,1.51,1.51,0,0,1-.41-1,1.38,1.38,0,0,1,.41-1.09Zm.41,16a3.15,3.15,0,1,1-3.14,3.14,3.18,3.18,0,0,1,3.14-3.14ZM60.52,50A1.51,1.51,0,1,1,62,48.46,1.52,1.52,0,0,1,60.52,50Zm4.1,42.7a1.51,1.51,0,0,1-1,.41,1.43,1.43,0,0,1-1-.41,1.49,1.49,0,0,1,0-2,1.27,1.27,0,0,1,.48-.34,1.59,1.59,0,0,1,.55-.14,1.39,1.39,0,0,1,1,.41,1.51,1.51,0,0,1,.41,1,1.68,1.68,0,0,1-.41,1.09Zm10.25,3.76a2.26,2.26,0,1,1-2.25-2.26A2.19,2.19,0,0,1,74.87,96.43ZM68,44.77A2.26,2.26,0,1,1,70.29,47,2.23,2.23,0,0,1,68,44.77Zm4,32.87a3,3,0,1,1-3-3A3,3,0,0,1,72,77.64ZM64.83,62.06a2.39,2.39,0,0,1,0,4.78,2.39,2.39,0,0,1,0-4.78ZM55.26,56.8a2.27,2.27,0,0,1-3.21-3.21,2.38,2.38,0,0,1,1.64-.69,2.23,2.23,0,0,1,1.64.69A2.37,2.37,0,0,1,56,55.23a2.45,2.45,0,0,1-.75,1.57Zm-4.85,8.4a1.46,1.46,0,0,1-1,.41,1.37,1.37,0,0,1-1-.41,1.51,1.51,0,0,1-.41-1,1.55,1.55,0,0,1,.41-1,1.51,1.51,0,0,1,1-.41,1.4,1.4,0,0,1,1,.41,1.27,1.27,0,0,1,.34.48,1.59,1.59,0,0,1,.14.55,1.45,1.45,0,0,1-.48,1Zm-5.26,4.72a2.26,2.26,0,1,1-2.26,2.25A2.27,2.27,0,0,1,45.15,69.92Z"/><rect class="cls-2" width="141.2" height="141.2" rx="70.6"/></g></g></svg>