<svg xmlns="http://www.w3.org/2000/svg" viewBox="0 0 141.2 141.2"><defs><style>.cls-1{fill:none;}.cls-2{}</style></defs><g id="Calque_2" data-name="Calque 2"><g id="Layer_1" data-name="Layer 1"><rect class="cls-1" width="141.2" height="141.2" rx="70.6"/><path class="cls-2" d="M75.76,87.58a5,5,0,1,1,3.85-8.26h0a5,5,0,0,1-3.85,8.26Zm0-9.12a4.08,4.08,0,1,0,3.13,1.44h0a4.08,4.08,0,0,0-2.79-1.4,1.37,1.37,0,0,0-.34,0Z"/><path class="cls-2" d="M63.66,85.12a.46.46,0,0,1-.47-.33A4.55,4.55,0,0,1,67,78.93a.47.47,0,0,1,.1.94,3.58,3.58,0,0,0-3.14,4,2.9,2.9,0,0,0,.14.65.47.47,0,0,1-.31.59h0A.3.3,0,0,1,63.66,85.12Z"/><path class="cls-2" d="M69.12,76.35a.47.47,0,0,1-.26-.08.48.48,0,0,1-.13-.65,4.39,4.39,0,0,1,4.52-1.87.48.48,0,1,1-.18.94,3.44,3.44,0,0,0-2.91.75,3.29,3.29,0,0,0-.65.74A.46.46,0,0,1,69.12,76.35Z"/><path class="cls-2" d="M84.7,77.1a.47.47,0,0,1-.28-.09.48.48,0,0,1-.12-.65,2.31,2.31,0,1,0-3.69-2.77,2.22,2.22,0,0,0-.25.42.48.48,0,0,1-.63.22.47.47,0,0,1-.22-.62,3.25,3.25,0,0,1,4.33-1.54,3.27,3.27,0,0,1,1.23,4.85A.49.49,0,0,1,84.7,77.1Z"/><path class="cls-2" d="M73.41,78.82a.48.48,0,0,1-.4-.23,4.38,4.38,0,1,1,8.09-2.24.47.47,0,0,1-.94,0,3.44,3.44,0,0,0-3.37-3.51,3.51,3.51,0,0,0-2.3.82,3.47,3.47,0,0,0-.7,4.44.47.47,0,0,1-.15.65h0A.62.62,0,0,1,73.41,78.82Z"/><path class="cls-2" d="M74.51,96.7a5,5,0,1,1,3.83-8.28h0a5,5,0,0,1-3.83,8.28Zm0-9.11a4,4,0,0,0-2.65,1,4.09,4.09,0,0,0,5.29,6.24A4,4,0,0,0,78.56,92a4,4,0,0,0-.94-3h0a4.07,4.07,0,0,0-2.78-1.41Z"/><path class="cls-2" d="M89.81,104a3.42,3.42,0,0,1-2.63-1.22,3.14,3.14,0,0,1-.47-.73.47.47,0,0,1,.83-.43v0a3.11,3.11,0,0,0,.35.54,2.51,2.51,0,0,0,3.83-3.26A2.49,2.49,0,0,0,90.1,98a.48.48,0,0,1-.42-.52.47.47,0,0,1,.52-.42,3.45,3.45,0,0,1-.38,6.88Z"/><path class="cls-2" d="M88.14,99.65a.47.47,0,0,1-.16-.91,3.38,3.38,0,0,0,1.41-5.34,3.35,3.35,0,0,0-2.16-1.17.46.46,0,0,1-.41-.52h0a.47.47,0,0,1,.52-.41h0a4.31,4.31,0,0,1,3.75,4.81,4.27,4.27,0,0,1-1.49,2.75,4.38,4.38,0,0,1-1.3.77Z"/><path class="cls-2" d="M84.94,102.88a3.47,3.47,0,0,1-3.45-3.07.47.47,0,1,1,.94-.11,2.54,2.54,0,1,0,2.21-2.83h-.1a.48.48,0,0,1-.55-.39.49.49,0,0,1,.39-.55,3.47,3.47,0,1,1,1.14,6.85,2.75,2.75,0,0,1-.57,0Z"/><path class="cls-2" d="M63.49,91.57a.36.36,0,0,1-.17,0,3.7,3.7,0,0,1,2.45-7,.47.47,0,0,1,.31.59h0a.47.47,0,0,1-.59.31A2.75,2.75,0,0,0,62,87.27a3.14,3.14,0,0,0-.12.61,2.73,2.73,0,0,0,.65,2,2.84,2.84,0,0,0,1.09.78.46.46,0,0,1,.26.61.46.46,0,0,1-.43.29Z"/><path class="cls-2" d="M67.37,97.52a4.54,4.54,0,1,1,3-8,.46.46,0,0,1,.06.66.47.47,0,0,1-.66.07,3.61,3.61,0,1,0-.33,5.67.47.47,0,0,1,.53.77h0A4.51,4.51,0,0,1,67.37,97.52Z"/><path class="cls-2" d="M66.47,89.24a.47.47,0,0,1-.37-.19,4.53,4.53,0,0,1,5.09-7,.46.46,0,0,1,.29.6.47.47,0,0,1-.59.29,3.6,3.6,0,0,0-4,5.56.47.47,0,0,1-.09.66h0A.47.47,0,0,1,66.47,89.24Z"/><path class="cls-2" d="M73.73,100.21a4.46,4.46,0,0,1-3.94-6.57.47.47,0,0,1,.64-.19.47.47,0,0,1,.19.64h0a3.52,3.52,0,0,0,6.22,3.29,3.48,3.48,0,0,0,.35-2.3.48.48,0,0,1,.94-.18,4.45,4.45,0,0,1-3.53,5.22,4,4,0,0,1-.85.08Z"/><path class="cls-2" d="M80.27,93.05a4.3,4.3,0,0,1-1.13-.12A.49.49,0,0,1,79.4,92a3.38,3.38,0,1,0,.47-6.63.49.49,0,0,1-.52-.41.47.47,0,0,1,.42-.52h0a4.32,4.32,0,0,1,.89,8.6Z"/><path class="cls-2" d="M80.63,100.35h-.34a4,4,0,0,1-2.79-1.43,3.61,3.61,0,0,1-.61-.94.47.47,0,0,1,.21-.64.48.48,0,0,1,.64.21,3.59,3.59,0,0,0,.46.75,3.16,3.16,0,0,0,5.56-1.79,3.1,3.1,0,0,0-.74-2.3,3.15,3.15,0,0,0-3.84-.77.48.48,0,0,1-.63-.2.48.48,0,0,1,.2-.64h0a4.1,4.1,0,0,1,3.72,7.3A4.07,4.07,0,0,1,80.63,100.35Z"/><path class="cls-2" d="M83.91,95a.47.47,0,0,1,0-.94,3.38,3.38,0,0,0,2.31-5.57l-.09-.11a.46.46,0,0,1-.14-.64.47.47,0,0,1,.65-.14.37.37,0,0,1,.16.17l.12.14A4.33,4.33,0,0,1,84,95Z"/><path class="cls-2" d="M84.11,89.55a.48.48,0,0,1-.51-.43.47.47,0,0,1,.43-.51,3.39,3.39,0,0,0,2-5.54,3.48,3.48,0,0,0-.47-.47.47.47,0,0,1,.58-.72,4.11,4.11,0,0,1,.6.58,4.34,4.34,0,0,1-.49,6.11,4.27,4.27,0,0,1-2.11,1Z"/><path class="cls-2" d="M82.43,84.24a4.33,4.33,0,0,1-2.14-.56.47.47,0,0,1-.17-.64.46.46,0,0,1,.64-.17,3.37,3.37,0,1,0-1.62-3.81.47.47,0,1,1-.91-.21,4.33,4.33,0,1,1,4.2,5.39Z"/><path class="cls-2" d="M89.16,92.85a.47.47,0,0,1-.4-.23.46.46,0,0,1,.16-.63,2.8,2.8,0,0,0,.35-.25,2.63,2.63,0,0,0-2.11-4.6A.48.48,0,1,1,87,86.2a3.57,3.57,0,0,1,2.86,6.26,4,4,0,0,1-.47.34A.53.53,0,0,1,89.16,92.85Z"/><path class="cls-2" d="M69.51,82.55a.53.53,0,0,1-.35-.17c-5.61-6.42-4-12.89-3.87-13.17a.45.45,0,0,1,.24-.28,3.32,3.32,0,0,1,3.35.12.46.46,0,0,1,.2.46C67.76,77,71.48,80,71.64,80.13a.47.47,0,1,1-.57.75c-.18-.14-4.23-3.35-3-11.19a2.32,2.32,0,0,0-1.93,0,14.56,14.56,0,0,0,3.72,12.11.47.47,0,0,1,0,.66A.5.5,0,0,1,69.51,82.55Z"/><path class="cls-2" d="M60.44,79.92a.17.17,0,0,1-.1,0L58,79.39a.46.46,0,0,1-.33-.26.51.51,0,0,1,0-.42l.8-1.5-1.7.13a.48.48,0,0,1-.36-.12.47.47,0,0,1-.15-.35V76a6.85,6.85,0,0,1-1.52-2.34.45.45,0,0,1,.1-.47,6.83,6.83,0,0,1,2.34-1.53l.32-.77a.47.47,0,0,1,.28-.27.5.5,0,0,1,.38,0l1.5.8-.13-1.7a.45.45,0,0,1,.15-.39.49.49,0,0,1,.4-.11l2.35.45a.44.44,0,0,1,.33.26c.88,1.93,2.18,4.73,2.48,5.2l0,0a.46.46,0,0,1,0,.66h0l-4.53,3.89A.46.46,0,0,1,60.44,79.92Zm-1.63-1.31,1.5.33,4-3.47c-.35-.61-1-1.93-2.31-4.86l-1.5-.29.16,2a.45.45,0,0,1-.68.43l-1.81-.94-.19.47a.48.48,0,0,1-.28.26,6.47,6.47,0,0,0-2,1.16,6.43,6.43,0,0,0,1.32,1.83.44.44,0,0,1,.15.36v.52l2-.17a.5.5,0,0,1,.44.21.47.47,0,0,1,0,.47Z"/><path class="cls-2" d="M131.21,68.4a17.94,17.94,0,0,0-3-9.82,15.62,15.62,0,0,0,.67-4.55,16.35,16.35,0,0,0-4.63-11.29,12,12,0,0,0,.4-3.08c0-7.44-6.64-13.49-14.79-13.49s-14.79,6-14.79,13.49a12.44,12.44,0,0,0,.39,3.08A16.38,16.38,0,0,0,90.88,54a16,16,0,0,0,.66,4.55,18,18,0,0,0-3,9.82c0,9.54,7.63,17.48,17.64,19.07h0l-.23,20q-2.55-.39-5.34-.73l-2.83-.31c-1.7-.18-3.45-.34-5.25-.49l-3.22-.23q-3.15-.21-6.45-.35l-3.25-.11c-1.64,0-3.3-.09-5-.11H66.34c-3.1,0-6.12.13-9.05.27l-11.24.75c-3.9.36-7.54.8-10.85,1.31l-.23-20h0c10-1.59,17.64-9.53,17.64-19.07a18,18,0,0,0-3-9.82A16,16,0,0,0,50.32,54,16.34,16.34,0,0,0,45.7,42.74a12.44,12.44,0,0,0,.39-3.08c0-7.44-6.63-13.49-14.79-13.49s-14.79,6-14.79,13.49a12,12,0,0,0,.4,3.08A16.35,16.35,0,0,0,12.28,54,15.62,15.62,0,0,0,13,58.58a17.94,17.94,0,0,0-3,9.82c0,9.54,7.64,17.48,17.64,19.07L27.39,109c-4.52,1.06-8,2.32-10,3.72a1.27,1.27,0,0,0,1.43,2.09,12.45,12.45,0,0,1,1.92-1c7.89-3.59,28-6.09,49.85-6.09s42,2.5,49.85,6.09a12.45,12.45,0,0,1,1.92,1,1.22,1.22,0,0,0,.71.22,1.27,1.27,0,0,0,.72-2.31c-2-1.4-5.47-2.66-10-3.72l-.24-21.53C123.57,85.88,131.21,77.94,131.21,68.4Zm-103.39,3-6-6.49h0l1-1,5,4.64ZM28,55l-3.78-4.16.67-.66L28,53Zm1.92,53.45.76-66.07a.61.61,0,0,1,1.22,0l.72,65.55C31.7,108.09,30.8,108.26,29.93,108.44ZM34.57,53l3.14-2.85.67.66h0L34.59,55Zm.18,15.57,5-4.64,1,1-6,6.49Zm.19,16.33-.11-9.78,7.81-8.46a2.52,2.52,0,0,0-.07-3.51h0l-1-1a2.52,2.52,0,0,0-3.51-.07l-3.34,3.09-.07-6.47,5.61-6.17a2.53,2.53,0,0,0-.08-3.5l-.67-.67a2.53,2.53,0,0,0-3.5-.08l-1.47,1.34-.08-7.29a3.16,3.16,0,0,0-3.15-3.11h0a3.17,3.17,0,0,0-3.15,3.11l-.08,7.29L26.6,48.29a2.54,2.54,0,0,0-3.5.08l-.67.67a2.54,2.54,0,0,0-.08,3.5L28,58.71l-.08,6.47-3.34-3.09a2.52,2.52,0,0,0-3.51.07l-1,1h0A2.52,2.52,0,0,0,20,66.68l7.82,8.46-.12,9.78c-8.61-1.53-15.14-8.35-15.14-16.52a15.52,15.52,0,0,1,2.86-8.9,1.28,1.28,0,0,0,.16-1.14A13.33,13.33,0,0,1,14.82,54a13.94,13.94,0,0,1,4.39-10,1.26,1.26,0,0,0,.33-1.3,9.78,9.78,0,0,1-.49-3.05c0-6,5.49-10.95,12.25-10.95s12.26,4.91,12.26,10.95a10.13,10.13,0,0,1-.49,3.05,1.26,1.26,0,0,0,.32,1.3,13.91,13.91,0,0,1,4.4,10,13.34,13.34,0,0,1-.73,4.33,1.28,1.28,0,0,0,.16,1.14,15.52,15.52,0,0,1,2.86,8.9c0,8.17-6.52,15-15.14,16.52Zm71.48-13.47-6-6.49h0l1-1,5,4.64ZM106.61,55l-3.79-4.15h0l.66-.66L106.63,53Zm1.92,52.93.76-65.55a.61.61,0,0,1,1.22,0l.73,66.06C110.37,108.25,109.46,108.08,108.53,107.92ZM113.17,53l3.14-2.85.66.66h0L113.19,55Zm.18,15.57,5-4.64,1,1-6,6.49Zm.19,16.33-.12-9.78,7.82-8.46a2.52,2.52,0,0,0-.07-3.51h0l-1-1a2.52,2.52,0,0,0-3.51-.07l-3.34,3.09-.08-6.47,5.62-6.17a2.54,2.54,0,0,0-.08-3.5l-.67-.67a2.53,2.53,0,0,0-3.5-.08l-1.47,1.34-.08-7.29a3.16,3.16,0,0,0-3.15-3.11h0a3.16,3.16,0,0,0-3.15,3.11l-.08,7.29-1.47-1.34a2.53,2.53,0,0,0-3.5.08L101,49a2.53,2.53,0,0,0-.08,3.5l5.61,6.17-.07,6.47-3.34-3.09a2.52,2.52,0,0,0-3.51.07l-1,1a2.52,2.52,0,0,0-.07,3.51l7.81,8.46-.11,9.78h0c-8.62-1.53-15.14-8.35-15.14-16.52A15.52,15.52,0,0,1,94,59.5a1.28,1.28,0,0,0,.16-1.14A13.34,13.34,0,0,1,93.41,54a14,14,0,0,1,4.4-10,1.28,1.28,0,0,0,.33-1.3,9.79,9.79,0,0,1-.5-3.05c0-6,5.5-10.95,12.26-10.95s12.25,4.91,12.25,10.95a9.82,9.82,0,0,1-.49,3.05A1.26,1.26,0,0,0,122,44a14,14,0,0,1,4.4,10,13.34,13.34,0,0,1-.73,4.33,1.28,1.28,0,0,0,.16,1.14,15.52,15.52,0,0,1,2.86,8.9C128.68,76.57,122.16,83.39,113.54,84.92Z"/></g></g></svg>