<svg xmlns="http://www.w3.org/2000/svg" viewBox="0 0 141.2 141.2"><defs><style>.cls-1{}.cls-2{fill:none;}</style></defs><g id="Calque_2" data-name="Calque 2"><g id="Layer_1" data-name="Layer 1"><path class="cls-1" d="M73.31,72.66A7.73,7.73,0,1,1,79.22,60h0a7.72,7.72,0,0,1-5.91,12.69Zm0-14a6.28,6.28,0,1,0,6.3,6.27,6.34,6.34,0,0,0-1.5-4.06h0a6.27,6.27,0,0,0-4.28-2.16,2.47,2.47,0,0,0-.54-.05Z"/><path class="cls-1" d="M54.72,68.88a.71.71,0,0,1-.72-.5,7,7,0,0,1,5.89-9,.72.72,0,0,1,.16,1.44,5.52,5.52,0,0,0-4.83,6.12,5.87,5.87,0,0,0,.22,1,.72.72,0,0,1-.47.9h0A.54.54,0,0,1,54.72,68.88Z"/><path class="cls-1" d="M63.1,55.42a.68.68,0,0,1-.39-.13.71.71,0,0,1-.21-1,6.75,6.75,0,0,1,7-2.88.73.73,0,0,1-.28,1.44A5.26,5.26,0,0,0,64.71,54a5.42,5.42,0,0,0-1,1.13A.73.73,0,0,1,63.1,55.42Z"/><path class="cls-1" d="M87,56.57a.68.68,0,0,1-.43-.15.73.73,0,0,1-.18-1,3.54,3.54,0,0,0-5.67-4.25,3.86,3.86,0,0,0-.39.65.72.72,0,1,1-1.3-.62,5,5,0,1,1,8.53,5.09A.72.72,0,0,1,87,56.57Z"/><path class="cls-1" d="M69.7,59.2a.72.72,0,0,1-.61-.34,6.72,6.72,0,1,1,12.4-3.44.72.72,0,0,1-1.44,0,5.28,5.28,0,1,0-9.77,2.68.74.74,0,0,1-.23,1h0A.79.79,0,0,1,69.7,59.2Z"/><path class="cls-1" d="M71.38,86.67A7.73,7.73,0,1,1,77.26,74h0a7.72,7.72,0,0,1-5.88,12.72Zm0-14a6.17,6.17,0,0,0-4.06,1.49,6.28,6.28,0,0,0,8.12,9.59,6.15,6.15,0,0,0,2.16-4.28,6.27,6.27,0,0,0-1.44-4.58h0a6.23,6.23,0,0,0-4.28-2.16Z"/><path class="cls-1" d="M94.88,97.79a5.3,5.3,0,0,1-4-1.86,5.55,5.55,0,0,1-.72-1.13.73.73,0,0,1,.31-1,.72.72,0,0,1,1,.31l0,0a4,4,0,0,0,.53.83,3.87,3.87,0,1,0,3.37-6.35.71.71,0,0,1-.63-.8.72.72,0,0,1,.8-.64,5.3,5.3,0,0,1-.59,10.57Z"/><path class="cls-1" d="M92.32,91.18a.72.72,0,0,1-.25-1.39,5.44,5.44,0,0,0,1.56-.92,5.17,5.17,0,0,0,.6-7.28,5.09,5.09,0,0,0-3.32-1.79.73.73,0,0,1-.63-.8h0a.72.72,0,0,1,.8-.63h0A6.62,6.62,0,0,1,94.57,90a6.52,6.52,0,0,1-2,1.18A.71.71,0,0,1,92.32,91.18Z"/><path class="cls-1" d="M87.4,96.15a5.33,5.33,0,0,1-5.3-4.72.73.73,0,0,1,1.44-.17,3.9,3.9,0,1,0,3.39-4.34l-.15,0a.73.73,0,1,1-.23-1.44A5.33,5.33,0,1,1,88.29,96a5.14,5.14,0,0,1-.88.07Z"/><path class="cls-1" d="M54.47,78.79a.75.75,0,0,1-.26-.05A5.68,5.68,0,0,1,58,68a.72.72,0,0,1,.47.9h0a.74.74,0,0,1-.9.47,4.24,4.24,0,0,0-5.31,2.76,5.09,5.09,0,0,0-.18.93,4.16,4.16,0,0,0,1,3.09,4.26,4.26,0,0,0,1.67,1.2.71.71,0,0,1,.4.93.7.7,0,0,1-.66.46Z"/><path class="cls-1" d="M60.42,87.91A7,7,0,1,1,65,75.66a.72.72,0,1,1-.92,1.12,5.57,5.57,0,0,0-7.21,0,5.52,5.52,0,0,0,6.7,8.76.72.72,0,1,1,.82,1.19h0A6.91,6.91,0,0,1,60.42,87.91Z"/><path class="cls-1" d="M59,75.21a.7.7,0,0,1-.57-.29,7,7,0,0,1,7.81-10.77.72.72,0,1,1-.46,1.37,5.52,5.52,0,0,0-6.21,8.54.71.71,0,0,1-.14,1h0A.68.68,0,0,1,59,75.21Z"/><path class="cls-1" d="M70.18,92.05a6.84,6.84,0,0,1-6-10.09.72.72,0,0,1,1.27.69h0A5.41,5.41,0,1,0,75.5,84.17a.72.72,0,0,1,.58-.85.73.73,0,0,1,.86.58,6.85,6.85,0,0,1-5.42,8,7.15,7.15,0,0,1-1.3.12Z"/><path class="cls-1" d="M80.23,81.05a6.65,6.65,0,0,1-1.73-.18A.75.75,0,0,1,78,80a.76.76,0,0,1,.92-.53,5.19,5.19,0,1,0,2.66-10,5.3,5.3,0,0,0-1.94-.14.72.72,0,0,1-.79-.62.71.71,0,0,1,.63-.8h0A6.64,6.64,0,0,1,80.83,81Q80.53,81.05,80.23,81.05Z"/><path class="cls-1" d="M80.77,92.26h-.51A6.27,6.27,0,0,1,76,90.07,6.15,6.15,0,0,1,75,88.63a.73.73,0,0,1,.33-1,.72.72,0,0,1,1,.32,4.93,4.93,0,0,0,.72,1.15,4.85,4.85,0,0,0,6.83.56,4.92,4.92,0,0,0,1.7-3.32,4.85,4.85,0,0,0-7-4.71.72.72,0,1,1-.66-1.28h0A6.29,6.29,0,1,1,83.6,91.58,6.18,6.18,0,0,1,80.77,92.26Z"/><path class="cls-1" d="M85.81,84a.73.73,0,0,1-.06-1.45A5.2,5.2,0,0,0,90.52,77a5.29,5.29,0,0,0-1.21-3l-.14-.15A.72.72,0,0,1,90,72.66a.84.84,0,0,1,.25.28l.18.2a6.65,6.65,0,0,1-.83,9.37A6.72,6.72,0,0,1,85.88,84Z"/><path class="cls-1" d="M86.12,75.68A.72.72,0,1,1,86,74.24a5.21,5.21,0,0,0,3.12-8.51,4.9,4.9,0,0,0-.72-.72.7.7,0,0,1,0-1,.72.72,0,0,1,.85-.1,7.11,7.11,0,0,1,.92.9,6.66,6.66,0,0,1-4,10.87Z"/><path class="cls-1" d="M83.54,67.54a6.73,6.73,0,0,1-3.28-.87.73.73,0,0,1-.26-1,.72.72,0,0,1,1-.26,5.21,5.21,0,1,0-.79-8.5,5.14,5.14,0,0,0-1.69,2.66.72.72,0,0,1-1.41-.33,6.65,6.65,0,1,1,6.45,8.29Z"/><path class="cls-1" d="M93.88,80.74a.71.71,0,0,1-.37-1.32,3.29,3.29,0,0,0,.54-.38A4,4,0,0,0,90.81,72a.72.72,0,0,1-.83-.61.73.73,0,0,1,.61-.83A5.48,5.48,0,0,1,95,80.14a4.18,4.18,0,0,1-.72.53A.72.72,0,0,1,93.88,80.74Z"/><path class="cls-1" d="M63.71,64.93a.75.75,0,0,1-.54-.26c-8.61-9.86-6.07-19.8-6-20.21A.7.7,0,0,1,57.6,44a5.09,5.09,0,0,1,5.14.18.72.72,0,0,1,.31.72C61,56.45,66.74,61,67,61.22a.72.72,0,0,1-.88,1.15c-.27-.21-6.49-5.14-4.56-17.19a3.6,3.6,0,0,0-3,0c-.34,1.7-1.56,10.26,5.71,18.59a.72.72,0,0,1-.07,1A.73.73,0,0,1,63.71,64.93Z"/><path class="cls-1" d="M49.78,60.9h-.16l-3.55-.82a.7.7,0,0,1-.5-.4.72.72,0,0,1,0-.64l1.22-2.31-2.61.21a.75.75,0,0,1-.54-.19.7.7,0,0,1-.23-.54V54.93a10.5,10.5,0,0,1-2.34-3.61.73.73,0,0,1,.15-.72,10.68,10.68,0,0,1,3.61-2.35l.48-1.18a.74.74,0,0,1,.42-.41.76.76,0,0,1,.59,0l2.31,1.24-.21-2.61a.72.72,0,0,1,.85-.77l3.6.68a.73.73,0,0,1,.52.41c1.34,3,3.35,7.26,3.81,8l.08.07a.72.72,0,0,1,0,1h0l-7,6A.74.74,0,0,1,49.78,60.9Zm-2.5-2,2.3.51,6.19-5.32c-.54-.94-1.52-3-3.55-7.47l-2.3-.44.24,3a.74.74,0,0,1-.33.66.71.71,0,0,1-.72,0l-2.76-1.44L46,49.1a.73.73,0,0,1-.43.41,9.59,9.59,0,0,0-3,1.77,9.67,9.67,0,0,0,2,2.81.72.72,0,0,1,.24.55v.8L48,55.18a.73.73,0,0,1,.66.33.74.74,0,0,1,0,.72Z"/><rect class="cls-2" width="141.2" height="141.2" rx="70.6"/></g></g></svg>