<svg xmlns="http://www.w3.org/2000/svg" viewBox="0 0 108.34 85.17"><defs><style>.cls-1{}.cls-2,.cls-3{fill:none;stroke:#414a64;stroke-miterlimit:10;}.cls-2{stroke-width:0.93px;}.cls-3{stroke-width:0.31px;}</style></defs><g id="Calque_2" data-name="Calque 2"><g id="Layer_1" data-name="Layer 1"><path class="cls-1" d="M.47,17.8c2.23-1.21,5.29-2.68,7.71-4.19a12.66,12.66,0,0,0,2.55-1.85c.4.15-.07-.21.22.24,1,.48-.14-.55.44-.52,1.76-.9,3.45-2.42,5.27-3.19C17.2,8,18.38,8,18.47,7.23c.05-.13.46-.19.21-.28-.06.16-.5.77,0,.61.19-.18.34-.51.43,0,.18,0,.37-.16.47-.28a2.46,2.46,0,0,0,.85-.11,31.77,31.77,0,0,1,3-1.12c0-.36-.44,0-.59.1l-1.9.54a2.49,2.49,0,0,1-1.46.45c-.26.3-.18.25-.36,0s-.39.11-.5.29c-.1,0-.12,0-.1.1s.27-.46.32-.48c-.16-.41-.63.25-.63.5a8.21,8.21,0,0,1-1.05.42,7.05,7.05,0,0,0-2.78,1.54c-1,.7-2.56,1.43-3.41,2.07,0,0,.24.38.23.39a.29.29,0,0,1-.2-.23c0-.08-.07,0-.08,0,.1-.1-.22-.2-.28-.12s-.32.27-.2.35,0-.11,0-.07C7.49,14.34,3.23,15.75.47,17.8Z"/><path class="cls-1" d="M47.76,6.91c.91-.63-1-1,.21-1-.2-.43-1.19,0-.14.52C47.93,6.63,47.46,6.78,47.76,6.91Z"/><path class="cls-2" d="M92.7,15.23c-.17-.25-.51-.2-.69-.36-.25,0-.46.16-.6,0s.07-.31-.15-.28c.1-.15,0-.35-.21-.4l-1.15-.5c-.51,0-1,.34-1.49.18a16,16,0,0,0-2.56-.56c-.82-1.48-1.59-.66-1.33-2.79,0-.53-1.66-1.19-2-1.53-.18.11-.34.51-.47.6A2.18,2.18,0,0,1,81,10c-.27.88-1.61.06-2.23.05-.15.35-.23.66-.68.5a18.55,18.55,0,0,0-2.45.16c-1.18-.81,1.28-1.56-.87-2.53-3.3.92-.65-.57-3.66-3A3.5,3.5,0,0,0,71.19,2a1.06,1.06,0,0,1-1-.2c0-1.06-.44-.26-.87.11-.06.17.33.59.06.69-.22.63-2,1.91-2.44,2.44-1.35-1-.37-.72-2.18-.74a3.77,3.77,0,0,1-2.14-.13c-.47-1.23,1-.38,1.53-.28.07-.5-.57-.87-.34-1.41.3,0,.32-.37.27-.59,0,0,.31-.41.14-.44S63.91,1,63.84.85a1.52,1.52,0,0,1-1-.38c-.58,0-.83.7-1.31,1-.15.09-.17.32-.16.47-.34.33-.4.86-.73,1.14-.16.73-1.09.77-1.67.83-.78-.1-1.72-.62-2.44-.16-1-1.5.65-2.72-2-2.1-.25-.11-.37.15-.48.32-.79-.07-1.78.83-2.52,1.07.24.44.23,1.2.59,1.6s1.07,1.23.94,1.64c-.38.19-1.06.48-1.45.24-.62.16-.84-.37-1.15-.76-.83.08-2.23.1-3,.17-.18.25.55.42.48.69-1.75,2.25-4.11,4.68-7,4.95-1.47,2.18-1.78,0-2.33,1.31-.21,0-.8.21-.85-.11.6-.84-.2-.79-.52-.07a5.17,5.17,0,0,1-1.57,0c-1-.12-.28-1.46-.47-2-.51-.35-.49.12-1-.42a3.46,3.46,0,0,1-1.79-.37A7.28,7.28,0,0,1,31,9.56c-.48-.17-1.74-1.49-1.51-.14-.14.14-.37-.17-.51-.22-.43.08-.75.42-1.2,0-.06,0-.13,0-.14.11.29,1.72.56,2-1.39,2-.48.05-1.16,0-1.25-.57-.43-.39-1.89-1.42-1.62-1.88.58-.07-.77-.4.44-1.16.17-.32-.06-.73-.23-1s-.14-1.17-.71-.56c-1.1.17-2.26,1-3.34,1-.08.22-.49.45-.43,0-.16-.07-.38.13-.45.29-.34.18.12-.44.11-.5-.29,0-.44.38-.49.6-1.25.58-2.87.91-3.85,2a30.36,30.36,0,0,1-3.39,2,.76.76,0,0,1,.22.56c-.13-.06-.32-.17-.34-.33-.2-.17-.34.11-.48.23a37,37,0,0,1-3.58,2.37C5.22,15.32,3.3,16,1.73,17.1c-.29.29-1.64.41-1.16,1a12,12,0,0,1,.62,2.56,1,1,0,0,0,.18,1c1.41.49.39.49,1.18,1.43.48.76-.46,1.39-.92,1.91.74.4.26.08.65.8-.14.71.17,1.41-.32,2,.61-.14.84,1,1,1.46.8.18.6-.28,1-.33.34.25.44.48.94.32,1,0,.26.66.75,1,.1.54,1.26.8.93,1.53.53,0,.66.41.61.86.81,1.47,1.16.26,1.87.59.13.14.2.45.37.56.09-.17-.06-.4-.09-.54s-.77-.56-.32-.83c-.12-.35-.28-.75.21-.87.32,0,.28.38.68.1.22.34.83.26,1.1,0,0-.08-.05-.27.09-.25.35-.35,1.19-.26,1-.7-.14-.11-.59-.33-.47-.54.42-.22,1.08-.23,1.47-.56.73.08.46.2.41.66.11.2.15.48.43.51-.14.76.41,0,.79.07,1.18.6,1.08-.44,2.31-.52.5.27.47,1.45,1.3,1.44a1.81,1.81,0,0,0,1-.6,2.39,2.39,0,0,0,2.23.6c1,.4.31,1.61,1.67,1.77.4-.68.4-.37,1-.75a.67.67,0,0,1,.66-.54,10.61,10.61,0,0,0,.94-.61.86.86,0,0,1,1-.21c.42.13,1.13-.2,1.45,0,.14.47-.08,1.18.62,1.18.43.41,1,.07,1.48.12.25.3.29.56.82.29,0-.29,0-.62.29-.83a3,3,0,0,1,1.45-1.43c.28.18.18.55.71.44,1.46-.81.13-.21,1.31.82.33,0,1.08-.1,1.27.21.56.28,1.14-.61,1.76-.17s-.19,1.37.43,1.71c.38.62.49.53,1.12.76a3.39,3.39,0,0,0,1.9-.29c.33.3.87-.19,1.22-.16.23.26.37,0,.43-.26s.65-.19.89-.21c.6-.06,1.1-.68,1.64-.69.26.09.42.53.49.76a4.25,4.25,0,0,1,1.91.83c.33-.75,1.18.06,1.66-.43.17-1.12.23-.46.79-.87.09-.29.08-.2-.17-.17.2-1,.62.14.81.43a.47.47,0,0,0,.49-.65,3.77,3.77,0,0,0,2.27-.9,1.85,1.85,0,0,0,1.22-.2c.22.14-.11.54-.17.68.36.29,1,.84,1,0,1.17.28,2-2.08,2-.07.76-.07,1.92,0,1-1.07,0-.36.29-.78.14-1.18,2.84.84,1.91-1.1,4.16.14a1.25,1.25,0,0,0,1.05.82c.09.75,1.49.5,1.86.11.39.35.06,1,.69,1.16a2.38,2.38,0,0,0,1.32-1,1.94,1.94,0,0,1,1.46.86c0-.36.46.19.52.27.24.71.78,1.59,1.59,1.54.18-.23.54-.21.82-.15a2.65,2.65,0,0,1,.74.49c.12,0,.75,0,.84-.18s.18-.5-.06-.56-.05-.31.12-.3a.82.82,0,0,0,.73,0l.65,0c0-.05.24-.23.31-.16.25.71.7.13,1-.17.33-.11.68.4,1,.33,0-.33.42-.58.67-.73a1.15,1.15,0,0,1,1.89.42c.25.27.86.2,1.2.25.18.05.27-.45.35-.51.21-.3.43.11.57.24a1.55,1.55,0,0,0,.78-.33c0-.06.46-.15.46-.25l0-.5c.24-.3.85-.26,1.19-.42.24-.39.85-.32,1.2-.52.08-.54.79-.32,1-.7.27-.77.83-.38,1.22-.71a6,6,0,0,0-1.2-1.21c-.09-.37-.27-1.25,0-1.54,0,0,.35-.35.38-.32a.43.43,0,0,0,.56-.27c.33-.83.12-.76,1-1a5,5,0,0,1,1-1.8c-.19-.67-.49-.08-.85-.19-.35-.56,1-1.17,1.09-1.75.21-.28.12-.87.26-1.17-.24-.07-.42-.18-.39-.4s.46-.72.41-1.05c.46-.24.41.42.72-.21,0-.32.2-.62-.06-.89-.09-.53.65-.19.93-.38,0-.05.15-.33,0-.33-.58-.16-.71-.37-.45-.91C92.28,16.12,92.82,15.77,92.7,15.23Z"/><path class="cls-1" d="M13.59,31.24c-.16-.21-.57.37-.85.31a1.08,1.08,0,0,1-.39.43,1.09,1.09,0,0,0-1,.41c.16.46-.14.47-.3.78s.06.83-.3.83c-.58.28-.42,0-.84-.09-.34.14-.59-.5-.53,0,.1.24.43.2.64.2.23.43.72.07,1.06,0,0-1.22.57-.85.41-1.59.28-.49.93-.17,1.27-.58a.4.4,0,0,1,.38-.26,1,1,0,0,1,.82-.31c.16-.24-.32-.25-.33-.12s.25,0,.29,0-.07-.07-.06,0c.27-.11-.56,0-.77.27-.32,0-.43.36-.68.49a1.11,1.11,0,0,0-1,.42c.19.64-.41.5-.35,1.28,0,.27-.18.32-.4.38A.36.36,0,0,1,10,34c-.24,0-.52,0-.64-.17-.13.23.42.2.57.2.23.44.71.07,1.06,0a1.55,1.55,0,0,1,.45-1.25.55.55,0,0,1,.26-.65c.4,0,.91,0,1.07-.47A1.93,1.93,0,0,0,13.59,31.24Z"/><path class="cls-1" d="M14.07,30.74c-.06,0-.09,0-.12,0s-.12-.12-.22-.17c-.28-.52.43-.85-.47-1.06-.39-.07-.82.4-1.24.35-1,.31-.7.54-.14,1.06a2.37,2.37,0,0,0-.85.38c-.38.06,0,.45-.73.45-.09,0-.33-.22-.39-.27s-.21.07-.31.12c0-.13-.29-.25-.44-.2a.64.64,0,0,0-.36,1c-.39.28.19.73.36,1,.19,1.23.3.44.86.91.36.2.75-.09,1.11-.17,0-.21.08-.66.11-.87.56-.34.11-.68.55-1,.41,0,.92-.05,1.1-.48.35,0,.59-.44,1-.36S14,31,14.07,30.74Z"/><path class="cls-1" d="M107.42,48.35c0-.26-.59-.58-.75-.76.09-.42,1-1.08.62-1.57,1-2.11-.51-1.22-.63-2.2.62-1-.81-1.38-1.52-1.24-.24-.4-.62-.13-.94-.19s-.56.14-.82.2l-.23-.57c-.2,0-.26-.21-.35-.33s-.32-.3-.18-.36-.06-.51-.17-.67c-.51.35-.14-.27-.33-.44a5.31,5.31,0,0,0,1.31-1.28c.08.1.28.21.3.29a1.22,1.22,0,0,0,.44-.93,1.21,1.21,0,0,0,.51-1.22c-.77.32-1.45-.11-2.19-.2a1.36,1.36,0,0,1-.32.2c-.12-.61-.65-.08.39-1a1.11,1.11,0,0,1-1-.84,6,6,0,0,1-1.47-2.13A12,12,0,0,1,98.42,33c-.11.13-.18.2-.3.2a.35.35,0,0,0-.05-.2c0-.18.35-.7.09-.9-.48-.44-1.23-.35-1.82-.38-.21-.72-1.19-.1-1.66.05a1.27,1.27,0,0,1-.36-.12c-.11.07-.21.15-.31.14-.56.39.18.76.24,1.11a1.21,1.21,0,0,0-.19.23c-.07,0-.16.17-.23.29-.27.38-1.19,0-1.62-.08-.52.16-.7-.67-1.07-.9s-.86-.54-1.11-.35c-.09-.2-.45-.41-.65-.16-.25.51-1.16.14-.87-.43a.39.39,0,0,0-.21.12l0,0c.15-.26.56-.82.41-.95a.78.78,0,0,1-.06-.83c-.1-.65-.48-.14-.92-.2s-.51.48-.82.73-.83.14-.92.57c-.12.1-.62.07-.75.2-.08,0-.32.18-.4.29-.39.19-1.07.08-1.27.52,0,0,0,.48,0,.48-.31.1-.66.43-1,.47-.15-.2-.29-.4-.58-.33-.57.74-.42.65-1.37.5a1.38,1.38,0,0,0-2.21-.54c-.23.16-.63.39-.7.67a1.49,1.49,0,0,0-.88-.29c-.39.17-.62.88-.9.17a.44.44,0,0,0-.46.15c-.24,0-.71-.1-.92.05-.29-.06-.59-.25-.82.07,0,.51.79.82-.44.84-.37-.4-1.31-.77-1.63-.4-.12.14-.4-.14-.58,0-.39-.28-1-2.13-1.5-1.8-.22-.49-1.58-1.35-2.16-.06-1.55,1-.41-1.8-1.85-.56h-1c0-.37-.51-.54-.83-.57-.37-.88-2-1.65-2.64-.68-.05-.27-.57.1-.69.11-.57.14-1.92-1-1.47.45-.61.5.33,1.1,0,1.46-1.7.46-.3-1.05-1.51-.71a2,2,0,0,1-1.68.89c0,.09-.07.56-.24.46a.44.44,0,0,1-.17-.78c-.1-.53-.59-.26-.92-.1-.51-.22-1.24.34-1.6.64s-1.87-.1-1.43.76c-.49.26-.42-.81-1.07-.78l-.31.77-.33,0c-.12,1.81-1.13.23-1.74,1.14a3.91,3.91,0,0,0-1.75-.75,1.2,1.2,0,0,0-.57-.79c-.78,0-1.35.91-2.23.69a.68.68,0,0,0-.6.53c-.3-.14-.74.09-1,.2s-.35-.14-.55-.1a2.31,2.31,0,0,1-.63.31,6.85,6.85,0,0,1-1.2,0l-.24-.18s-.25.06-.26,0c-.26-.37-.77-.76-.5-1.28.16-1.37-1.13-1.19-2-.76-.17-.05-.32-.27-.51-.29s-1.2.09-1.07-.22c-.74-.67.35-1.53-1.25-.59-.65,0-.28-.82-1.06-.23C32,30.94,30.85,32.5,31,33c-.09,0-.2.06-.28.06s-.14-.24-.18-.32a1,1,0,0,0-.91,0c-.39.12-.85-.37-1.19-.31.13-.18-.05-.78-.07-1s-.57-.16-.78-.05a4.75,4.75,0,0,1-1.29-.1c-.55-.05-1,.7-1.47.88-.3.09-.7.15-.8.53s-.93.34-.91.79c-.14-.14-.56-.18-.71-.34-.07-.6-.5-1.73-1.29-1.36a1.75,1.75,0,0,1-1.2-.24,1.32,1.32,0,0,0-.71-.44l-.47.42a1.1,1.1,0,0,1-.46.19c-.05,0-.41-.18-.5-.1-.15-.16-.66-.19-.8-.26l.95.74a1.13,1.13,0,0,0,.56.81c.08.47-.52.37.27.66.16.47.62.28,1,.42.18.24.42.49.32.79l.26.34a.92.92,0,0,0-.52,1.48c-.19.26.16.68.2.93s.5.45.53.64.15.62,0,.91c.24.26.1.53.07.79.28.23,0,.26-.13.38.29.15.1.68.12,1,.58,1,2.13,1.18,2.84,2,.48.13.49-.42.87-.45.46.16.76-.29,1.21-.16.63-.13.33-1.31,1.24-.93s.32.38,0,.79c-.49,1.61.79.6,1.65.6.68-.36.62.76,1.46,0,.53.38.62,1.27,1.28,1.44.14.11.11.48.1.65a2.72,2.72,0,0,1,.39,1.37c.16.68-.52,1.33-.33,2,.13,0,.15.39.16.5a1.41,1.41,0,0,1,.29.79.45.45,0,0,1,.2.52c.34.41,1.07.83,1.07.18.2.17.49.28.57-.12-.14-.36.09-1.62.61-1.19a1,1,0,0,1,1.1-.19.64.64,0,0,0,.23-.05c.12.3.55.5.64.05.65-.36.93.73,1.49.52,0,.19.43.44.68.44a3.64,3.64,0,0,0,1.47-.66c.24.09.27.27.54,0,.21.18.38,0,.57-.07a.87.87,0,0,1,.57-.14c.26-.65.26.21.61.33s.27.24.33.43c.44,0,.66.61.82.93.5-.55.95.33,1,.8,0,.27,0,.69.28.68a.85.85,0,0,0,.24.6c.51.06,1.17,0,1.12-.66,0-.06-.66-.3-.48-.42.2-.28.24,0,.32.14.32.34,1,.15,1.07.72,0,.75-1.1.78-1.21,1.6-1,0-.21.82-.35,1.32a1,1,0,0,0-.19,1.07c-.18.16-.67.48-.48.83-.12.27-.35.6.06.8.62.21,1.07-.47,1.71-.19-.07.16,0,.38,0,.54a.47.47,0,0,0,.06.56.32.32,0,0,0,0,.28,2.25,2.25,0,0,1,.77.85c0,.45-.89.65-1.13,1-.77-.37-1.3.63-1.35,1.26s0,.93.53,1.08c-.23.33-.74.93,0,1.13.16-.11.39-.07.53-.11a.51.51,0,0,0,.08.17.72.72,0,0,1,.39.07c-.21.88.68.5,1.22.48.42-.31,1.21-.12,1.64-.36.63-.18,1.07.28,1.53.57a2.08,2.08,0,0,1,1.25.32,1.69,1.69,0,0,1,1.39.37,6.2,6.2,0,0,0,1.27-.38,1.54,1.54,0,0,0,1.23-.47c.16-.33.32-.56.72-.46a.85.85,0,0,0,.66-.62c.64-.13,1.37-.22,2-.37,1.62-.32.84-.64,1.41-1.86.66-2.18-.91-.54-.09-2.06.22-.73,1.07-.76,1.56-1.1.25-.29.16-.85.49-1.08s1.18-.51,1.39-1c0,0,0,0,0-.07a2.06,2.06,0,0,0,1,.52c.67-.17.3.14.79.41-.16.14-.47.35-.64.49a6.71,6.71,0,0,1,0,1.05,1.2,1.2,0,0,0-.71,0,7.91,7.91,0,0,0-.06,1.08c0,.21-.4.19-.52.23,0,.14.15.62-.06.71.66.41.51.51,0,.94l-.19.65a.31.31,0,0,1,.08.39c.11.32-.07.89-.47.87-.7,1.15.12,1.67,1.25,1.65.28.15.37.64.61.84,1,.59.06,1.68-.17,2.46-.51,0-.14.84-.12,1.12.46,0,.3.58.53.88a1.79,1.79,0,0,0-.52,1.39c.28,0,.66.2.71-.11.15.28,1,.36,1.27.25s.93-.12.81-.49a.28.28,0,0,1,.15-.12,1.65,1.65,0,0,0,.25.15c.15-.18.41-.11.61-.07.42.62,1.08,1.51,1.94,1.3.08.42.5.49.87.3a13.13,13.13,0,0,1,.91,1.28c-.07.16-.09.68.11.79.24-.11.44.12.66.19,0,0,.12-.25.2-.34a1.21,1.21,0,0,1,.12.44c-.06.19-.08.52.2.58.32-.17.8.14,1.07-.06a.43.43,0,0,0,.63.26c.31,0,.76.1.94-.27a9.63,9.63,0,0,1,1.5,1.2c.64,1-1,.63,0,2.66.14-1.11,1.13-.35,1-1.17.21.33.67.3,1,.49,0,.07,1.31,1,1.06,1.14,0,.07.25,1.29.61,1.07l-.29.57c1.21.61.56.82-.31,1.3.64.15,1.14.95,1.56,1.38.14-1.67.75,0,2.21-1.73a2.19,2.19,0,0,1,.95.41.75.75,0,0,0,.66.59c.61-1-.31-1.09.92-1.83.65-.14,1.87.76,2.23.19.09.27.55.24.78.13-.06-.19.06-.27.12-.4a.55.55,0,0,1,0-.44c.44-.23.59.55,1,.45s.26.53.77,0c.47-.35,1-.8,1.49-1.15-.26-.25-.12-.39,0-.65-.21-.19-.66,0-.63-.27.2,0,.55-.35.63-.35a1.21,1.21,0,0,1,.31-1,.57.57,0,0,0,0-.12c.62-.15.48-.34.49-1,0-.19.17-.28.28-.37a7.36,7.36,0,0,0-1.5-.68,1.5,1.5,0,0,0,.16-.62c.77-.53.56-1.05-.17-1.51-.5,0-1.14.44-.82-.46.08-.41-.41-.55-.49-.93-.36-.22-.6-2.36-1.14-1.47a1,1,0,0,0-.55,0c-.09-.51,0-1.18-.31-1.6.28-.25.15-.74.55-.89a1.68,1.68,0,0,0-.15-.36l.18,0c.77.08.75-.48.19-.93-.26-.24-.67-.17-.91-.41,1.25-1.07.34-.65.89-1.3.08-.24.27-.51.09-.76.22-.84.77-.17,1.16-.69a1.73,1.73,0,0,0,0-.2.19.19,0,0,0,.12,0,1.12,1.12,0,0,0,.68-.92c-.13,0-.27-.17-.38-.18l-.08-.18c-.38-.5.38-.65.67-.83.17-.58,1-1.19.23-1.67-.08-.52.66-.37.87-.67s0-.54.09-.77c.18-.38.13-.92.62-1.06,1.65-.47.93-.38,1.59-1.63-.65-.41.23-.64.59-.55,0-.11.51-.19.72-.32a.9.9,0,0,0,.79.92.58.58,0,0,0,1-.19c-.13-.46.45-.19.65-.21a.16.16,0,0,1,0,.29l.15.28c-.32.28,0,.61.17.83l.55.32.18-.31c.18,0,.36-.27.47-.44l-.17-.57-.09,0a.13.13,0,0,0,0-.06.52.52,0,0,1-.08-.65l.25.13c0-.06.19-.3.27-.28l.65.11.13-.45c-.31-.41,0-1.08-.39-1.46a.92.92,0,0,0-.19-.13l.1-.06a2.35,2.35,0,0,1,0-.26l0-.09a.72.72,0,0,0,.58-.13c.2-.27.22-.7.63-.74.75-.45,1.61-.15,2.16-1a.45.45,0,0,1,0-.76c-.09-.35.34-.56.41-.83a1,1,0,0,1,1.17.45l.87-.5.41,0C108.61,49.54,108,48.69,107.42,48.35Z"/><path class="cls-3" d="M88.28,31.79c.19.06.31-.33.47-.15.57-.47.31.14.88,0-.06-.35.74-1.31,1-.89.26.91.38,0,.9,1,.21.13.89-.33,1.08-.41.24.24.08.5.47.14,1.17-.5.38-.06.9.45.16,0-.14.43.41.64.19.36-.49,1.17-.84,1.19-2.77-.53-1,0-2.94-1.52-.38-.26-.69.39-.81-.25l-.18,0c-.1,0-.28.3-.34.38C88.93,32.29,88.28,32.23,88.28,31.79Z"/></g></g></svg>