<svg xmlns="http://www.w3.org/2000/svg" viewBox="0 0 141.2 141.2"><defs><style>.cls-1{fill:none;}.cls-2{}</style></defs><g id="Calque_2" data-name="Calque 2"><g id="Layer_1" data-name="Layer 1"><rect class="cls-1" width="141.2" height="141.2" rx="70.6"/><path class="cls-2" d="M60.39,52.74l-.13-.7L59.55,52a8.89,8.89,0,0,0-7.2,3.1,9.76,9.76,0,0,0-1.91,3.2,9.69,9.69,0,0,0-1.92-3.2,8.89,8.89,0,0,0-7.2-3.1l-.71.06-.13.7a9.43,9.43,0,0,0,8.64,10.6,10.4,10.4,0,0,0-.1,5.3,18.72,18.72,0,0,1,.36,3.43h1.86a21.19,21.19,0,0,0-.38-3.75,8.23,8.23,0,0,1,.24-5l.36,0a9.42,9.42,0,0,0,8.93-10.62ZM44.19,59a7.33,7.33,0,0,1-2-5.16,7.68,7.68,0,0,1,6.88,7.65A7.33,7.33,0,0,1,44.19,59Zm12.49,0a7.31,7.31,0,0,1-4.91,2.49,7.68,7.68,0,0,1,6.88-7.65A7.33,7.33,0,0,1,56.68,59Z"/><path class="cls-2" d="M80.56,61.34l-.13-.7-.71-.06a8.91,8.91,0,0,0-7.21,3.1,9.76,9.76,0,0,0-1.91,3.2,9.76,9.76,0,0,0-1.91-3.2,8.91,8.91,0,0,0-7.2-3.1l-.72.06-.13.7a9.41,9.41,0,0,0,8.64,10.6,10.4,10.4,0,0,0-.09,5.3,19.84,19.84,0,0,1,.35,3.44h1.87A20.89,20.89,0,0,0,71,76.93a8.3,8.3,0,0,1,.24-5h.36a9.42,9.42,0,0,0,8.94-10.62Zm-16.2,6.25a7.32,7.32,0,0,1-2-5.16,7.36,7.36,0,0,1,4.91,2.5,7.26,7.26,0,0,1,2,5.16A7.34,7.34,0,0,1,64.36,67.59Zm12.48,0a7.34,7.34,0,0,1-4.91,2.5,7.68,7.68,0,0,1,6.88-7.66A7.32,7.32,0,0,1,76.84,67.59Z"/><path class="cls-2" d="M58.78,64.44q-2.23.15-4.41.36c-.75.08-1.18.18-1.8.25a7,7,0,0,0,0,2.14c2.16-.23,4.43-.43,6.81-.58A10.68,10.68,0,0,1,58.78,64.44Z"/><path class="cls-2" d="M101.6,67.12c-.28.67-.54,1.36-.8,2.06,7.93,1.83,12.57,4.27,12.57,6.58,0,4.49-17.57,9.49-42.77,9.49s-42.77-5-42.77-9.49c0-2.89,7.27-6,19.17-7.83a12.89,12.89,0,0,1-.15-2.2C34.69,67.6,25.6,71,25.6,75.76c0,7.61,23.18,11.72,45,11.72s45-4.11,45-11.72C115.6,72,110,69.1,101.6,67.12Z"/><path class="cls-2" d="M89.44,65.08c-2.28-.26-4.63-.48-7-.64a10.68,10.68,0,0,1-.62,2.17q4.61.28,8.66.8C90.14,66.61,89.79,65.83,89.44,65.08Z"/><path class="cls-2" d="M96.25,31.07c-8.25,0-14,5.76-14,14C82.25,54.3,94,70,94.52,70.67l.3.4h2.85l.3-.4c.51-.66,12.28-16.37,12.28-25.6C110.25,36.83,104.49,31.07,96.25,31.07Zm0,17a4,4,0,1,1,4-4A4,4,0,0,1,96.25,48.07Z"/></g></g></svg>